G04 #@! TF.GenerationSoftware,KiCad,Pcbnew,(5.0.1)-3*
G04 #@! TF.CreationDate,2019-04-12T12:42:41-05:00*
G04 #@! TF.ProjectId,    RemoteControl,2020202052656D6F7465436F6E74726F,rev?*
G04 #@! TF.SameCoordinates,Original*
G04 #@! TF.FileFunction,Paste,Top*
G04 #@! TF.FilePolarity,Positive*
%FSLAX46Y46*%
G04 Gerber Fmt 4.6, Leading zero omitted, Abs format (unit mm)*
G04 Created by KiCad (PCBNEW (5.0.1)-3) date 12/04/2019 12:42:41*
%MOMM*%
%LPD*%
G01*
G04 APERTURE LIST*
%ADD10R,1.700000X2.000000*%
%ADD11R,1.200000X0.750000*%
%ADD12R,1.795780X2.697480*%
%ADD13R,0.800000X1.900000*%
%ADD14R,2.100580X1.699260*%
%ADD15R,2.000000X1.700000*%
%ADD16R,3.800000X2.000000*%
%ADD17R,1.500000X2.000000*%
%ADD18R,4.000000X2.500000*%
%ADD19R,1.550000X1.300000*%
G04 APERTURE END LIST*
D10*
G04 #@! TO.C,R2*
X145288000Y-69660000D03*
X145288000Y-73660000D03*
G04 #@! TD*
D11*
G04 #@! TO.C,C5*
X107188000Y-97028000D03*
X105288000Y-97028000D03*
G04 #@! TD*
G04 #@! TO.C,C6*
X105857000Y-71437500D03*
X107757000Y-71437500D03*
G04 #@! TD*
D10*
G04 #@! TO.C,R1*
X127508000Y-73755000D03*
X127508000Y-69755000D03*
G04 #@! TD*
D12*
G04 #@! TO.C,D4*
X152399600Y-63500000D03*
X149402400Y-63500000D03*
G04 #@! TD*
D13*
G04 #@! TO.C,Q1*
X127188000Y-76605000D03*
X125288000Y-76605000D03*
X126238000Y-79605000D03*
G04 #@! TD*
D10*
G04 #@! TO.C,R3*
X123698000Y-69850000D03*
X123698000Y-73850000D03*
G04 #@! TD*
G04 #@! TO.C,R4*
X141478000Y-73755000D03*
X141478000Y-69755000D03*
G04 #@! TD*
G04 #@! TO.C,R5*
X163068000Y-73120000D03*
X163068000Y-69120000D03*
G04 #@! TD*
D14*
G04 #@! TO.C,D7*
X182293260Y-78740000D03*
X185752740Y-78740000D03*
G04 #@! TD*
G04 #@! TO.C,D9*
X95552260Y-101600000D03*
X99011740Y-101600000D03*
G04 #@! TD*
D13*
G04 #@! TO.C,Q2*
X144333000Y-76605000D03*
X142433000Y-76605000D03*
X143383000Y-79605000D03*
G04 #@! TD*
G04 #@! TO.C,Q3*
X161478000Y-76605000D03*
X159578000Y-76605000D03*
X160528000Y-79605000D03*
G04 #@! TD*
G04 #@! TO.C,Q4*
X177673000Y-79605000D03*
X176723000Y-76605000D03*
X178623000Y-76605000D03*
G04 #@! TD*
D10*
G04 #@! TO.C,R6*
X180213000Y-72485000D03*
X180213000Y-68485000D03*
G04 #@! TD*
G04 #@! TO.C,R7*
X159258000Y-73120000D03*
X159258000Y-69120000D03*
G04 #@! TD*
G04 #@! TO.C,R8*
X176403000Y-68485000D03*
X176403000Y-72485000D03*
G04 #@! TD*
D15*
G04 #@! TO.C,R9*
X108807000Y-74930000D03*
X104807000Y-74930000D03*
G04 #@! TD*
G04 #@! TO.C,R10*
X108807000Y-78740000D03*
X104807000Y-78740000D03*
G04 #@! TD*
D12*
G04 #@! TO.C,D2*
X131724400Y-63500000D03*
X134721600Y-63500000D03*
G04 #@! TD*
D11*
G04 #@! TO.C,C1*
X104460000Y-83185000D03*
X106360000Y-83185000D03*
G04 #@! TD*
G04 #@! TO.C,C2*
X90871000Y-69646800D03*
X92771000Y-69646800D03*
G04 #@! TD*
D14*
G04 #@! TO.C,D1*
X130858260Y-78740000D03*
X134317740Y-78740000D03*
G04 #@! TD*
G04 #@! TO.C,D3*
X151462740Y-78740000D03*
X148003260Y-78740000D03*
G04 #@! TD*
G04 #@! TO.C,D5*
X168607740Y-78740000D03*
X165148260Y-78740000D03*
G04 #@! TD*
D12*
G04 #@! TO.C,D6*
X170281600Y-63500000D03*
X167284400Y-63500000D03*
G04 #@! TD*
G04 #@! TO.C,D8*
X184429400Y-63500000D03*
X187426600Y-63500000D03*
G04 #@! TD*
G04 #@! TO.C,D10*
X91236800Y-65913000D03*
X94234000Y-65913000D03*
G04 #@! TD*
D16*
G04 #@! TO.C,U5*
X94615000Y-82575000D03*
D17*
X94615000Y-88875000D03*
X96915000Y-88875000D03*
X92315000Y-88875000D03*
G04 #@! TD*
D11*
G04 #@! TO.C,C7*
X106360000Y-81280000D03*
X104460000Y-81280000D03*
G04 #@! TD*
D18*
G04 #@! TO.C,C3*
X92962000Y-95250000D03*
X99062000Y-95250000D03*
G04 #@! TD*
G04 #@! TO.C,C4*
X98808000Y-76200000D03*
X92708000Y-76200000D03*
G04 #@! TD*
D19*
G04 #@! TO.C,SW1*
X99017000Y-63536000D03*
X99017000Y-68036000D03*
X106977000Y-68036000D03*
X106977000Y-63536000D03*
G04 #@! TD*
M02*
