%FSLAX45Y45*%
G04 Gerber Fmt 4.5, Leading zero omitted, Abs format (unit mm)*
G04 Created by KiCad (PCBNEW (5.0.1)-3) date 12/04/2019 12:42:46*
%MOMM*%
%LPD*%
G01*
G04 APERTURE LIST*
%ADD10C,0.150000*%
%ADD11C,0.200000*%
%ADD12C,0.300000*%
G04 APERTURE END LIST*
D10*
X19481800Y-11658600D02*
X19585940Y-11554460D01*
X19484340Y-6057900D02*
X19585940Y-6154420D01*
X8585200Y-6159500D02*
X8686800Y-6057900D01*
X8684260Y-11658600D02*
X8585200Y-11557000D01*
X8585200Y-11557000D02*
X8585200Y-6159500D01*
X8686800Y-6057900D02*
X19484340Y-6057900D01*
X19585940Y-11554460D02*
X19585940Y-6154420D01*
X8686800Y-11658600D02*
X19481800Y-11658600D01*
D11*
D12*
X8864128Y-12131814D02*
X8864128Y-11831814D01*
X8935557Y-11831814D01*
X8978414Y-11846100D01*
X9006986Y-11874671D01*
X9021271Y-11903243D01*
X9035557Y-11960386D01*
X9035557Y-12003243D01*
X9021271Y-12060386D01*
X9006986Y-12088957D01*
X8978414Y-12117529D01*
X8935557Y-12131814D01*
X8864128Y-12131814D01*
X9164128Y-12131814D02*
X9164128Y-11931814D01*
X9164128Y-11988957D02*
X9178414Y-11960386D01*
X9192700Y-11946100D01*
X9221271Y-11931814D01*
X9249843Y-11931814D01*
X9349843Y-12131814D02*
X9349843Y-11931814D01*
X9349843Y-11831814D02*
X9335557Y-11846100D01*
X9349843Y-11860386D01*
X9364128Y-11846100D01*
X9349843Y-11831814D01*
X9349843Y-11860386D01*
X9535557Y-12131814D02*
X9506986Y-12117529D01*
X9492700Y-12088957D01*
X9492700Y-11831814D01*
X9692700Y-12131814D02*
X9664128Y-12117529D01*
X9649843Y-12088957D01*
X9649843Y-11831814D01*
X10035557Y-12131814D02*
X10035557Y-11831814D01*
X10135557Y-12046100D01*
X10235557Y-11831814D01*
X10235557Y-12131814D01*
X10506986Y-12131814D02*
X10506986Y-11974671D01*
X10492700Y-11946100D01*
X10464128Y-11931814D01*
X10406986Y-11931814D01*
X10378414Y-11946100D01*
X10506986Y-12117529D02*
X10478414Y-12131814D01*
X10406986Y-12131814D01*
X10378414Y-12117529D01*
X10364128Y-12088957D01*
X10364128Y-12060386D01*
X10378414Y-12031814D01*
X10406986Y-12017529D01*
X10478414Y-12017529D01*
X10506986Y-12003243D01*
X10649843Y-11931814D02*
X10649843Y-12231814D01*
X10649843Y-11946100D02*
X10678414Y-11931814D01*
X10735557Y-11931814D01*
X10764128Y-11946100D01*
X10778414Y-11960386D01*
X10792700Y-11988957D01*
X10792700Y-12074671D01*
X10778414Y-12103243D01*
X10764128Y-12117529D01*
X10735557Y-12131814D01*
X10678414Y-12131814D01*
X10649843Y-12117529D01*
X10921271Y-12103243D02*
X10935557Y-12117529D01*
X10921271Y-12131814D01*
X10906986Y-12117529D01*
X10921271Y-12103243D01*
X10921271Y-12131814D01*
X10921271Y-11946100D02*
X10935557Y-11960386D01*
X10921271Y-11974671D01*
X10906986Y-11960386D01*
X10921271Y-11946100D01*
X10921271Y-11974671D01*
M02*
