G04 #@! TF.GenerationSoftware,KiCad,Pcbnew,(5.0.1)-3*
G04 #@! TF.CreationDate,2019-04-12T12:42:41-05:00*
G04 #@! TF.ProjectId,    RemoteControl,2020202052656D6F7465436F6E74726F,rev?*
G04 #@! TF.SameCoordinates,Original*
G04 #@! TF.FileFunction,Soldermask,Top*
G04 #@! TF.FilePolarity,Negative*
%FSLAX46Y46*%
G04 Gerber Fmt 4.6, Leading zero omitted, Abs format (unit mm)*
G04 Created by KiCad (PCBNEW (5.0.1)-3) date 12/04/2019 12:42:41*
%MOMM*%
%LPD*%
G01*
G04 APERTURE LIST*
%ADD10C,0.100000*%
G04 APERTURE END LIST*
D10*
G36*
X97918947Y-108841722D02*
X98182833Y-108951027D01*
X98420324Y-109109713D01*
X98622287Y-109311676D01*
X98780973Y-109549167D01*
X98890278Y-109813053D01*
X98946000Y-110093186D01*
X98946000Y-110378814D01*
X98890278Y-110658947D01*
X98780973Y-110922833D01*
X98622287Y-111160324D01*
X98420324Y-111362287D01*
X98182833Y-111520973D01*
X97918947Y-111630278D01*
X97638814Y-111686000D01*
X97353186Y-111686000D01*
X97073053Y-111630278D01*
X96809167Y-111520973D01*
X96571676Y-111362287D01*
X96369713Y-111160324D01*
X96211027Y-110922833D01*
X96101722Y-110658947D01*
X96046000Y-110378814D01*
X96046000Y-110093186D01*
X96101722Y-109813053D01*
X96211027Y-109549167D01*
X96369713Y-109311676D01*
X96571676Y-109109713D01*
X96809167Y-108951027D01*
X97073053Y-108841722D01*
X97353186Y-108786000D01*
X97638814Y-108786000D01*
X97918947Y-108841722D01*
X97918947Y-108841722D01*
G37*
G36*
X137502947Y-108841722D02*
X137766833Y-108951027D01*
X138004324Y-109109713D01*
X138206287Y-109311676D01*
X138364973Y-109549167D01*
X138474278Y-109813053D01*
X138530000Y-110093186D01*
X138530000Y-110378814D01*
X138474278Y-110658947D01*
X138364973Y-110922833D01*
X138206287Y-111160324D01*
X138004324Y-111362287D01*
X137766833Y-111520973D01*
X137502947Y-111630278D01*
X137222814Y-111686000D01*
X136937186Y-111686000D01*
X136657053Y-111630278D01*
X136393167Y-111520973D01*
X136155676Y-111362287D01*
X135953713Y-111160324D01*
X135795027Y-110922833D01*
X135685722Y-110658947D01*
X135630000Y-110378814D01*
X135630000Y-110093186D01*
X135685722Y-109813053D01*
X135795027Y-109549167D01*
X135953713Y-109311676D01*
X136155676Y-109109713D01*
X136393167Y-108951027D01*
X136657053Y-108841722D01*
X136937186Y-108786000D01*
X137222814Y-108786000D01*
X137502947Y-108841722D01*
X137502947Y-108841722D01*
G37*
G36*
X188810947Y-108841722D02*
X189074833Y-108951027D01*
X189312324Y-109109713D01*
X189514287Y-109311676D01*
X189672973Y-109549167D01*
X189782278Y-109813053D01*
X189838000Y-110093186D01*
X189838000Y-110378814D01*
X189782278Y-110658947D01*
X189672973Y-110922833D01*
X189514287Y-111160324D01*
X189312324Y-111362287D01*
X189074833Y-111520973D01*
X188810947Y-111630278D01*
X188530814Y-111686000D01*
X188245186Y-111686000D01*
X187965053Y-111630278D01*
X187701167Y-111520973D01*
X187463676Y-111362287D01*
X187261713Y-111160324D01*
X187103027Y-110922833D01*
X186993722Y-110658947D01*
X186938000Y-110378814D01*
X186938000Y-110093186D01*
X186993722Y-109813053D01*
X187103027Y-109549167D01*
X187261713Y-109311676D01*
X187463676Y-109109713D01*
X187701167Y-108951027D01*
X187965053Y-108841722D01*
X188245186Y-108786000D01*
X188530814Y-108786000D01*
X188810947Y-108841722D01*
X188810947Y-108841722D01*
G37*
G36*
X178810947Y-108841722D02*
X179074833Y-108951027D01*
X179312324Y-109109713D01*
X179514287Y-109311676D01*
X179672973Y-109549167D01*
X179782278Y-109813053D01*
X179838000Y-110093186D01*
X179838000Y-110378814D01*
X179782278Y-110658947D01*
X179672973Y-110922833D01*
X179514287Y-111160324D01*
X179312324Y-111362287D01*
X179074833Y-111520973D01*
X178810947Y-111630278D01*
X178530814Y-111686000D01*
X178245186Y-111686000D01*
X177965053Y-111630278D01*
X177701167Y-111520973D01*
X177463676Y-111362287D01*
X177261713Y-111160324D01*
X177103027Y-110922833D01*
X176993722Y-110658947D01*
X176938000Y-110378814D01*
X176938000Y-110093186D01*
X176993722Y-109813053D01*
X177103027Y-109549167D01*
X177261713Y-109311676D01*
X177463676Y-109109713D01*
X177701167Y-108951027D01*
X177965053Y-108841722D01*
X178245186Y-108786000D01*
X178530814Y-108786000D01*
X178810947Y-108841722D01*
X178810947Y-108841722D01*
G37*
G36*
X172046947Y-108841722D02*
X172310833Y-108951027D01*
X172548324Y-109109713D01*
X172750287Y-109311676D01*
X172908973Y-109549167D01*
X173018278Y-109813053D01*
X173074000Y-110093186D01*
X173074000Y-110378814D01*
X173018278Y-110658947D01*
X172908973Y-110922833D01*
X172750287Y-111160324D01*
X172548324Y-111362287D01*
X172310833Y-111520973D01*
X172046947Y-111630278D01*
X171766814Y-111686000D01*
X171481186Y-111686000D01*
X171201053Y-111630278D01*
X170937167Y-111520973D01*
X170699676Y-111362287D01*
X170497713Y-111160324D01*
X170339027Y-110922833D01*
X170229722Y-110658947D01*
X170174000Y-110378814D01*
X170174000Y-110093186D01*
X170229722Y-109813053D01*
X170339027Y-109549167D01*
X170497713Y-109311676D01*
X170699676Y-109109713D01*
X170937167Y-108951027D01*
X171201053Y-108841722D01*
X171481186Y-108786000D01*
X171766814Y-108786000D01*
X172046947Y-108841722D01*
X172046947Y-108841722D01*
G37*
G36*
X162046947Y-108841722D02*
X162310833Y-108951027D01*
X162548324Y-109109713D01*
X162750287Y-109311676D01*
X162908973Y-109549167D01*
X163018278Y-109813053D01*
X163074000Y-110093186D01*
X163074000Y-110378814D01*
X163018278Y-110658947D01*
X162908973Y-110922833D01*
X162750287Y-111160324D01*
X162548324Y-111362287D01*
X162310833Y-111520973D01*
X162046947Y-111630278D01*
X161766814Y-111686000D01*
X161481186Y-111686000D01*
X161201053Y-111630278D01*
X160937167Y-111520973D01*
X160699676Y-111362287D01*
X160497713Y-111160324D01*
X160339027Y-110922833D01*
X160229722Y-110658947D01*
X160174000Y-110378814D01*
X160174000Y-110093186D01*
X160229722Y-109813053D01*
X160339027Y-109549167D01*
X160497713Y-109311676D01*
X160699676Y-109109713D01*
X160937167Y-108951027D01*
X161201053Y-108841722D01*
X161481186Y-108786000D01*
X161766814Y-108786000D01*
X162046947Y-108841722D01*
X162046947Y-108841722D01*
G37*
G36*
X167046947Y-108841722D02*
X167310833Y-108951027D01*
X167548324Y-109109713D01*
X167750287Y-109311676D01*
X167908973Y-109549167D01*
X168018278Y-109813053D01*
X168074000Y-110093186D01*
X168074000Y-110378814D01*
X168018278Y-110658947D01*
X167908973Y-110922833D01*
X167750287Y-111160324D01*
X167548324Y-111362287D01*
X167310833Y-111520973D01*
X167046947Y-111630278D01*
X166766814Y-111686000D01*
X166481186Y-111686000D01*
X166201053Y-111630278D01*
X165937167Y-111520973D01*
X165699676Y-111362287D01*
X165497713Y-111160324D01*
X165339027Y-110922833D01*
X165229722Y-110658947D01*
X165174000Y-110378814D01*
X165174000Y-110093186D01*
X165229722Y-109813053D01*
X165339027Y-109549167D01*
X165497713Y-109311676D01*
X165699676Y-109109713D01*
X165937167Y-108951027D01*
X166201053Y-108841722D01*
X166481186Y-108786000D01*
X166766814Y-108786000D01*
X167046947Y-108841722D01*
X167046947Y-108841722D01*
G37*
G36*
X132502947Y-108841722D02*
X132766833Y-108951027D01*
X133004324Y-109109713D01*
X133206287Y-109311676D01*
X133364973Y-109549167D01*
X133474278Y-109813053D01*
X133530000Y-110093186D01*
X133530000Y-110378814D01*
X133474278Y-110658947D01*
X133364973Y-110922833D01*
X133206287Y-111160324D01*
X133004324Y-111362287D01*
X132766833Y-111520973D01*
X132502947Y-111630278D01*
X132222814Y-111686000D01*
X131937186Y-111686000D01*
X131657053Y-111630278D01*
X131393167Y-111520973D01*
X131155676Y-111362287D01*
X130953713Y-111160324D01*
X130795027Y-110922833D01*
X130685722Y-110658947D01*
X130630000Y-110378814D01*
X130630000Y-110093186D01*
X130685722Y-109813053D01*
X130795027Y-109549167D01*
X130953713Y-109311676D01*
X131155676Y-109109713D01*
X131393167Y-108951027D01*
X131657053Y-108841722D01*
X131937186Y-108786000D01*
X132222814Y-108786000D01*
X132502947Y-108841722D01*
X132502947Y-108841722D01*
G37*
G36*
X127502947Y-108841722D02*
X127766833Y-108951027D01*
X128004324Y-109109713D01*
X128206287Y-109311676D01*
X128364973Y-109549167D01*
X128474278Y-109813053D01*
X128530000Y-110093186D01*
X128530000Y-110378814D01*
X128474278Y-110658947D01*
X128364973Y-110922833D01*
X128206287Y-111160324D01*
X128004324Y-111362287D01*
X127766833Y-111520973D01*
X127502947Y-111630278D01*
X127222814Y-111686000D01*
X126937186Y-111686000D01*
X126657053Y-111630278D01*
X126393167Y-111520973D01*
X126155676Y-111362287D01*
X125953713Y-111160324D01*
X125795027Y-110922833D01*
X125685722Y-110658947D01*
X125630000Y-110378814D01*
X125630000Y-110093186D01*
X125685722Y-109813053D01*
X125795027Y-109549167D01*
X125953713Y-109311676D01*
X126155676Y-109109713D01*
X126393167Y-108951027D01*
X126657053Y-108841722D01*
X126937186Y-108786000D01*
X127222814Y-108786000D01*
X127502947Y-108841722D01*
X127502947Y-108841722D01*
G37*
G36*
X183810947Y-108841722D02*
X184074833Y-108951027D01*
X184312324Y-109109713D01*
X184514287Y-109311676D01*
X184672973Y-109549167D01*
X184782278Y-109813053D01*
X184838000Y-110093186D01*
X184838000Y-110378814D01*
X184782278Y-110658947D01*
X184672973Y-110922833D01*
X184514287Y-111160324D01*
X184312324Y-111362287D01*
X184074833Y-111520973D01*
X183810947Y-111630278D01*
X183530814Y-111686000D01*
X183245186Y-111686000D01*
X182965053Y-111630278D01*
X182701167Y-111520973D01*
X182463676Y-111362287D01*
X182261713Y-111160324D01*
X182103027Y-110922833D01*
X181993722Y-110658947D01*
X181938000Y-110378814D01*
X181938000Y-110093186D01*
X181993722Y-109813053D01*
X182103027Y-109549167D01*
X182261713Y-109311676D01*
X182463676Y-109109713D01*
X182701167Y-108951027D01*
X182965053Y-108841722D01*
X183245186Y-108786000D01*
X183530814Y-108786000D01*
X183810947Y-108841722D01*
X183810947Y-108841722D01*
G37*
G36*
X144774947Y-108841722D02*
X145038833Y-108951027D01*
X145276324Y-109109713D01*
X145478287Y-109311676D01*
X145636973Y-109549167D01*
X145746278Y-109813053D01*
X145802000Y-110093186D01*
X145802000Y-110378814D01*
X145746278Y-110658947D01*
X145636973Y-110922833D01*
X145478287Y-111160324D01*
X145276324Y-111362287D01*
X145038833Y-111520973D01*
X144774947Y-111630278D01*
X144494814Y-111686000D01*
X144209186Y-111686000D01*
X143929053Y-111630278D01*
X143665167Y-111520973D01*
X143427676Y-111362287D01*
X143225713Y-111160324D01*
X143067027Y-110922833D01*
X142957722Y-110658947D01*
X142902000Y-110378814D01*
X142902000Y-110093186D01*
X142957722Y-109813053D01*
X143067027Y-109549167D01*
X143225713Y-109311676D01*
X143427676Y-109109713D01*
X143665167Y-108951027D01*
X143929053Y-108841722D01*
X144209186Y-108786000D01*
X144494814Y-108786000D01*
X144774947Y-108841722D01*
X144774947Y-108841722D01*
G37*
G36*
X149774947Y-108841722D02*
X150038833Y-108951027D01*
X150276324Y-109109713D01*
X150478287Y-109311676D01*
X150636973Y-109549167D01*
X150746278Y-109813053D01*
X150802000Y-110093186D01*
X150802000Y-110378814D01*
X150746278Y-110658947D01*
X150636973Y-110922833D01*
X150478287Y-111160324D01*
X150276324Y-111362287D01*
X150038833Y-111520973D01*
X149774947Y-111630278D01*
X149494814Y-111686000D01*
X149209186Y-111686000D01*
X148929053Y-111630278D01*
X148665167Y-111520973D01*
X148427676Y-111362287D01*
X148225713Y-111160324D01*
X148067027Y-110922833D01*
X147957722Y-110658947D01*
X147902000Y-110378814D01*
X147902000Y-110093186D01*
X147957722Y-109813053D01*
X148067027Y-109549167D01*
X148225713Y-109311676D01*
X148427676Y-109109713D01*
X148665167Y-108951027D01*
X148929053Y-108841722D01*
X149209186Y-108786000D01*
X149494814Y-108786000D01*
X149774947Y-108841722D01*
X149774947Y-108841722D01*
G37*
G36*
X119682947Y-108841722D02*
X119946833Y-108951027D01*
X120184324Y-109109713D01*
X120386287Y-109311676D01*
X120544973Y-109549167D01*
X120654278Y-109813053D01*
X120710000Y-110093186D01*
X120710000Y-110378814D01*
X120654278Y-110658947D01*
X120544973Y-110922833D01*
X120386287Y-111160324D01*
X120184324Y-111362287D01*
X119946833Y-111520973D01*
X119682947Y-111630278D01*
X119402814Y-111686000D01*
X119117186Y-111686000D01*
X118837053Y-111630278D01*
X118573167Y-111520973D01*
X118335676Y-111362287D01*
X118133713Y-111160324D01*
X117975027Y-110922833D01*
X117865722Y-110658947D01*
X117810000Y-110378814D01*
X117810000Y-110093186D01*
X117865722Y-109813053D01*
X117975027Y-109549167D01*
X118133713Y-109311676D01*
X118335676Y-109109713D01*
X118573167Y-108951027D01*
X118837053Y-108841722D01*
X119117186Y-108786000D01*
X119402814Y-108786000D01*
X119682947Y-108841722D01*
X119682947Y-108841722D01*
G37*
G36*
X114682947Y-108841722D02*
X114946833Y-108951027D01*
X115184324Y-109109713D01*
X115386287Y-109311676D01*
X115544973Y-109549167D01*
X115654278Y-109813053D01*
X115710000Y-110093186D01*
X115710000Y-110378814D01*
X115654278Y-110658947D01*
X115544973Y-110922833D01*
X115386287Y-111160324D01*
X115184324Y-111362287D01*
X114946833Y-111520973D01*
X114682947Y-111630278D01*
X114402814Y-111686000D01*
X114117186Y-111686000D01*
X113837053Y-111630278D01*
X113573167Y-111520973D01*
X113335676Y-111362287D01*
X113133713Y-111160324D01*
X112975027Y-110922833D01*
X112865722Y-110658947D01*
X112810000Y-110378814D01*
X112810000Y-110093186D01*
X112865722Y-109813053D01*
X112975027Y-109549167D01*
X113133713Y-109311676D01*
X113335676Y-109109713D01*
X113573167Y-108951027D01*
X113837053Y-108841722D01*
X114117186Y-108786000D01*
X114402814Y-108786000D01*
X114682947Y-108841722D01*
X114682947Y-108841722D01*
G37*
G36*
X104682947Y-108841722D02*
X104946833Y-108951027D01*
X105184324Y-109109713D01*
X105386287Y-109311676D01*
X105544973Y-109549167D01*
X105654278Y-109813053D01*
X105710000Y-110093186D01*
X105710000Y-110378814D01*
X105654278Y-110658947D01*
X105544973Y-110922833D01*
X105386287Y-111160324D01*
X105184324Y-111362287D01*
X104946833Y-111520973D01*
X104682947Y-111630278D01*
X104402814Y-111686000D01*
X104117186Y-111686000D01*
X103837053Y-111630278D01*
X103573167Y-111520973D01*
X103335676Y-111362287D01*
X103133713Y-111160324D01*
X102975027Y-110922833D01*
X102865722Y-110658947D01*
X102810000Y-110378814D01*
X102810000Y-110093186D01*
X102865722Y-109813053D01*
X102975027Y-109549167D01*
X103133713Y-109311676D01*
X103335676Y-109109713D01*
X103573167Y-108951027D01*
X103837053Y-108841722D01*
X104117186Y-108786000D01*
X104402814Y-108786000D01*
X104682947Y-108841722D01*
X104682947Y-108841722D01*
G37*
G36*
X109682947Y-108841722D02*
X109946833Y-108951027D01*
X110184324Y-109109713D01*
X110386287Y-109311676D01*
X110544973Y-109549167D01*
X110654278Y-109813053D01*
X110710000Y-110093186D01*
X110710000Y-110378814D01*
X110654278Y-110658947D01*
X110544973Y-110922833D01*
X110386287Y-111160324D01*
X110184324Y-111362287D01*
X109946833Y-111520973D01*
X109682947Y-111630278D01*
X109402814Y-111686000D01*
X109117186Y-111686000D01*
X108837053Y-111630278D01*
X108573167Y-111520973D01*
X108335676Y-111362287D01*
X108133713Y-111160324D01*
X107975027Y-110922833D01*
X107865722Y-110658947D01*
X107810000Y-110378814D01*
X107810000Y-110093186D01*
X107865722Y-109813053D01*
X107975027Y-109549167D01*
X108133713Y-109311676D01*
X108335676Y-109109713D01*
X108573167Y-108951027D01*
X108837053Y-108841722D01*
X109117186Y-108786000D01*
X109402814Y-108786000D01*
X109682947Y-108841722D01*
X109682947Y-108841722D01*
G37*
G36*
X92918947Y-108841722D02*
X93182833Y-108951027D01*
X93420324Y-109109713D01*
X93622287Y-109311676D01*
X93780973Y-109549167D01*
X93890278Y-109813053D01*
X93946000Y-110093186D01*
X93946000Y-110378814D01*
X93890278Y-110658947D01*
X93780973Y-110922833D01*
X93622287Y-111160324D01*
X93420324Y-111362287D01*
X93182833Y-111520973D01*
X92918947Y-111630278D01*
X92638814Y-111686000D01*
X92353186Y-111686000D01*
X92073053Y-111630278D01*
X91809167Y-111520973D01*
X91571676Y-111362287D01*
X91369713Y-111160324D01*
X91211027Y-110922833D01*
X91101722Y-110658947D01*
X91046000Y-110378814D01*
X91046000Y-110093186D01*
X91101722Y-109813053D01*
X91211027Y-109549167D01*
X91369713Y-109311676D01*
X91571676Y-109109713D01*
X91809167Y-108951027D01*
X92073053Y-108841722D01*
X92353186Y-108786000D01*
X92638814Y-108786000D01*
X92918947Y-108841722D01*
X92918947Y-108841722D01*
G37*
G36*
X154774947Y-108841722D02*
X155038833Y-108951027D01*
X155276324Y-109109713D01*
X155478287Y-109311676D01*
X155636973Y-109549167D01*
X155746278Y-109813053D01*
X155802000Y-110093186D01*
X155802000Y-110378814D01*
X155746278Y-110658947D01*
X155636973Y-110922833D01*
X155478287Y-111160324D01*
X155276324Y-111362287D01*
X155038833Y-111520973D01*
X154774947Y-111630278D01*
X154494814Y-111686000D01*
X154209186Y-111686000D01*
X153929053Y-111630278D01*
X153665167Y-111520973D01*
X153427676Y-111362287D01*
X153225713Y-111160324D01*
X153067027Y-110922833D01*
X152957722Y-110658947D01*
X152902000Y-110378814D01*
X152902000Y-110093186D01*
X152957722Y-109813053D01*
X153067027Y-109549167D01*
X153225713Y-109311676D01*
X153427676Y-109109713D01*
X153665167Y-108951027D01*
X153929053Y-108841722D01*
X154209186Y-108786000D01*
X154494814Y-108786000D01*
X154774947Y-108841722D01*
X154774947Y-108841722D01*
G37*
G36*
X88524393Y-99499053D02*
X88633872Y-99520830D01*
X88943252Y-99648979D01*
X89221687Y-99835023D01*
X89458477Y-100071813D01*
X89644521Y-100350248D01*
X89772670Y-100659628D01*
X89838000Y-100988065D01*
X89838000Y-101322935D01*
X89772670Y-101651372D01*
X89644521Y-101960752D01*
X89458477Y-102239187D01*
X89221687Y-102475977D01*
X88943252Y-102662021D01*
X88633872Y-102790170D01*
X88524393Y-102811947D01*
X88305437Y-102855500D01*
X87970563Y-102855500D01*
X87751607Y-102811947D01*
X87642128Y-102790170D01*
X87332748Y-102662021D01*
X87054313Y-102475977D01*
X86817523Y-102239187D01*
X86631479Y-101960752D01*
X86503330Y-101651372D01*
X86438000Y-101322935D01*
X86438000Y-100988065D01*
X86503330Y-100659628D01*
X86631479Y-100350248D01*
X86817523Y-100071813D01*
X87054313Y-99835023D01*
X87332748Y-99648979D01*
X87642128Y-99520830D01*
X87751607Y-99499053D01*
X87970563Y-99455500D01*
X88305437Y-99455500D01*
X88524393Y-99499053D01*
X88524393Y-99499053D01*
G37*
G36*
X194188393Y-99499053D02*
X194297872Y-99520830D01*
X194607252Y-99648979D01*
X194885687Y-99835023D01*
X195122477Y-100071813D01*
X195308521Y-100350248D01*
X195436670Y-100659628D01*
X195502000Y-100988065D01*
X195502000Y-101322935D01*
X195436670Y-101651372D01*
X195308521Y-101960752D01*
X195122477Y-102239187D01*
X194885687Y-102475977D01*
X194607252Y-102662021D01*
X194297872Y-102790170D01*
X194188393Y-102811947D01*
X193969437Y-102855500D01*
X193634563Y-102855500D01*
X193415607Y-102811947D01*
X193306128Y-102790170D01*
X192996748Y-102662021D01*
X192718313Y-102475977D01*
X192481523Y-102239187D01*
X192295479Y-101960752D01*
X192167330Y-101651372D01*
X192102000Y-101322935D01*
X192102000Y-100988065D01*
X192167330Y-100659628D01*
X192295479Y-100350248D01*
X192481523Y-100071813D01*
X192718313Y-99835023D01*
X192996748Y-99648979D01*
X193306128Y-99520830D01*
X193415607Y-99499053D01*
X193634563Y-99455500D01*
X193969437Y-99455500D01*
X194188393Y-99499053D01*
X194188393Y-99499053D01*
G37*
G36*
X96802550Y-102649630D02*
X94301970Y-102649630D01*
X94301970Y-100550370D01*
X96802550Y-100550370D01*
X96802550Y-102649630D01*
X96802550Y-102649630D01*
G37*
G36*
X100262030Y-102649630D02*
X97761450Y-102649630D01*
X97761450Y-100550370D01*
X100262030Y-100550370D01*
X100262030Y-102649630D01*
X100262030Y-102649630D01*
G37*
G36*
X119576030Y-100614469D02*
X119576033Y-100614470D01*
X119576034Y-100614470D01*
X119764535Y-100671651D01*
X119764537Y-100671652D01*
X119938260Y-100764509D01*
X120090528Y-100889472D01*
X120215491Y-101041740D01*
X120215492Y-101041742D01*
X120308349Y-101215465D01*
X120340950Y-101322937D01*
X120365531Y-101403970D01*
X120384838Y-101600000D01*
X120365531Y-101796030D01*
X120308348Y-101984537D01*
X120215491Y-102158260D01*
X120090528Y-102310528D01*
X119938260Y-102435491D01*
X119938258Y-102435492D01*
X119764535Y-102528349D01*
X119576034Y-102585530D01*
X119576033Y-102585530D01*
X119576030Y-102585531D01*
X119429124Y-102600000D01*
X119330876Y-102600000D01*
X119183970Y-102585531D01*
X119183967Y-102585530D01*
X119183966Y-102585530D01*
X118995465Y-102528349D01*
X118821742Y-102435492D01*
X118821740Y-102435491D01*
X118669472Y-102310528D01*
X118544509Y-102158260D01*
X118451652Y-101984537D01*
X118394469Y-101796030D01*
X118375162Y-101600000D01*
X118394469Y-101403970D01*
X118419050Y-101322937D01*
X118451651Y-101215465D01*
X118544508Y-101041742D01*
X118544509Y-101041740D01*
X118669472Y-100889472D01*
X118821740Y-100764509D01*
X118995463Y-100671652D01*
X118995465Y-100671651D01*
X119183966Y-100614470D01*
X119183967Y-100614470D01*
X119183970Y-100614469D01*
X119330876Y-100600000D01*
X119429124Y-100600000D01*
X119576030Y-100614469D01*
X119576030Y-100614469D01*
G37*
G36*
X111956030Y-100614469D02*
X111956033Y-100614470D01*
X111956034Y-100614470D01*
X112144535Y-100671651D01*
X112144537Y-100671652D01*
X112318260Y-100764509D01*
X112470528Y-100889472D01*
X112595491Y-101041740D01*
X112595492Y-101041742D01*
X112688349Y-101215465D01*
X112720950Y-101322937D01*
X112745531Y-101403970D01*
X112764838Y-101600000D01*
X112745531Y-101796030D01*
X112688348Y-101984537D01*
X112595491Y-102158260D01*
X112470528Y-102310528D01*
X112318260Y-102435491D01*
X112318258Y-102435492D01*
X112144535Y-102528349D01*
X111956034Y-102585530D01*
X111956033Y-102585530D01*
X111956030Y-102585531D01*
X111809124Y-102600000D01*
X111710876Y-102600000D01*
X111563970Y-102585531D01*
X111563967Y-102585530D01*
X111563966Y-102585530D01*
X111375465Y-102528349D01*
X111201742Y-102435492D01*
X111201740Y-102435491D01*
X111049472Y-102310528D01*
X110924509Y-102158260D01*
X110831652Y-101984537D01*
X110774469Y-101796030D01*
X110755162Y-101600000D01*
X110774469Y-101403970D01*
X110799050Y-101322937D01*
X110831651Y-101215465D01*
X110924508Y-101041742D01*
X110924509Y-101041740D01*
X111049472Y-100889472D01*
X111201740Y-100764509D01*
X111375463Y-100671652D01*
X111375465Y-100671651D01*
X111563966Y-100614470D01*
X111563967Y-100614470D01*
X111563970Y-100614469D01*
X111710876Y-100600000D01*
X111809124Y-100600000D01*
X111956030Y-100614469D01*
X111956030Y-100614469D01*
G37*
G36*
X119576030Y-98074469D02*
X119576033Y-98074470D01*
X119576034Y-98074470D01*
X119764535Y-98131651D01*
X119764537Y-98131652D01*
X119938260Y-98224509D01*
X120090528Y-98349472D01*
X120215491Y-98501740D01*
X120215492Y-98501742D01*
X120308349Y-98675465D01*
X120365530Y-98863966D01*
X120365531Y-98863970D01*
X120384838Y-99060000D01*
X120365531Y-99256030D01*
X120308348Y-99444537D01*
X120215491Y-99618260D01*
X120090528Y-99770528D01*
X119938260Y-99895491D01*
X119938258Y-99895492D01*
X119764535Y-99988349D01*
X119576034Y-100045530D01*
X119576033Y-100045530D01*
X119576030Y-100045531D01*
X119429124Y-100060000D01*
X119330876Y-100060000D01*
X119183970Y-100045531D01*
X119183967Y-100045530D01*
X119183966Y-100045530D01*
X118995465Y-99988349D01*
X118821742Y-99895492D01*
X118821740Y-99895491D01*
X118669472Y-99770528D01*
X118544509Y-99618260D01*
X118451652Y-99444537D01*
X118394469Y-99256030D01*
X118375162Y-99060000D01*
X118394469Y-98863970D01*
X118394470Y-98863966D01*
X118451651Y-98675465D01*
X118544508Y-98501742D01*
X118544509Y-98501740D01*
X118669472Y-98349472D01*
X118821740Y-98224509D01*
X118995463Y-98131652D01*
X118995465Y-98131651D01*
X119183966Y-98074470D01*
X119183967Y-98074470D01*
X119183970Y-98074469D01*
X119330876Y-98060000D01*
X119429124Y-98060000D01*
X119576030Y-98074469D01*
X119576030Y-98074469D01*
G37*
G36*
X111956030Y-98074469D02*
X111956033Y-98074470D01*
X111956034Y-98074470D01*
X112144535Y-98131651D01*
X112144537Y-98131652D01*
X112318260Y-98224509D01*
X112470528Y-98349472D01*
X112595491Y-98501740D01*
X112595492Y-98501742D01*
X112688349Y-98675465D01*
X112745530Y-98863966D01*
X112745531Y-98863970D01*
X112764838Y-99060000D01*
X112745531Y-99256030D01*
X112688348Y-99444537D01*
X112595491Y-99618260D01*
X112470528Y-99770528D01*
X112318260Y-99895491D01*
X112318258Y-99895492D01*
X112144535Y-99988349D01*
X111956034Y-100045530D01*
X111956033Y-100045530D01*
X111956030Y-100045531D01*
X111809124Y-100060000D01*
X111710876Y-100060000D01*
X111563970Y-100045531D01*
X111563967Y-100045530D01*
X111563966Y-100045530D01*
X111375465Y-99988349D01*
X111201742Y-99895492D01*
X111201740Y-99895491D01*
X111049472Y-99770528D01*
X110924509Y-99618260D01*
X110831652Y-99444537D01*
X110774469Y-99256030D01*
X110755162Y-99060000D01*
X110774469Y-98863970D01*
X110774470Y-98863966D01*
X110831651Y-98675465D01*
X110924508Y-98501742D01*
X110924509Y-98501740D01*
X111049472Y-98349472D01*
X111201740Y-98224509D01*
X111375463Y-98131652D01*
X111375465Y-98131651D01*
X111563966Y-98074470D01*
X111563967Y-98074470D01*
X111563970Y-98074469D01*
X111710876Y-98060000D01*
X111809124Y-98060000D01*
X111956030Y-98074469D01*
X111956030Y-98074469D01*
G37*
G36*
X143338830Y-96574196D02*
X143509250Y-96590981D01*
X143782576Y-96673894D01*
X144034474Y-96808536D01*
X144255265Y-96989735D01*
X144436464Y-97210526D01*
X144571106Y-97462424D01*
X144654019Y-97735750D01*
X144682015Y-98020000D01*
X144654019Y-98304250D01*
X144571106Y-98577576D01*
X144436464Y-98829474D01*
X144255265Y-99050265D01*
X144034474Y-99231464D01*
X143782576Y-99366106D01*
X143509250Y-99449019D01*
X143338830Y-99465804D01*
X143296226Y-99470000D01*
X143153774Y-99470000D01*
X143111170Y-99465804D01*
X142940750Y-99449019D01*
X142667424Y-99366106D01*
X142415526Y-99231464D01*
X142194735Y-99050265D01*
X142013536Y-98829474D01*
X141878894Y-98577576D01*
X141795981Y-98304250D01*
X141767985Y-98020000D01*
X141795981Y-97735750D01*
X141878894Y-97462424D01*
X142013536Y-97210526D01*
X142194735Y-96989735D01*
X142415526Y-96808536D01*
X142667424Y-96673894D01*
X142940750Y-96590981D01*
X143111170Y-96574196D01*
X143153774Y-96570000D01*
X143296226Y-96570000D01*
X143338830Y-96574196D01*
X143338830Y-96574196D01*
G37*
G36*
X160483830Y-96574196D02*
X160654250Y-96590981D01*
X160927576Y-96673894D01*
X161179474Y-96808536D01*
X161400265Y-96989735D01*
X161581464Y-97210526D01*
X161716106Y-97462424D01*
X161799019Y-97735750D01*
X161827015Y-98020000D01*
X161799019Y-98304250D01*
X161716106Y-98577576D01*
X161581464Y-98829474D01*
X161400265Y-99050265D01*
X161179474Y-99231464D01*
X160927576Y-99366106D01*
X160654250Y-99449019D01*
X160483830Y-99465804D01*
X160441226Y-99470000D01*
X160298774Y-99470000D01*
X160256170Y-99465804D01*
X160085750Y-99449019D01*
X159812424Y-99366106D01*
X159560526Y-99231464D01*
X159339735Y-99050265D01*
X159158536Y-98829474D01*
X159023894Y-98577576D01*
X158940981Y-98304250D01*
X158912985Y-98020000D01*
X158940981Y-97735750D01*
X159023894Y-97462424D01*
X159158536Y-97210526D01*
X159339735Y-96989735D01*
X159560526Y-96808536D01*
X159812424Y-96673894D01*
X160085750Y-96590981D01*
X160256170Y-96574196D01*
X160298774Y-96570000D01*
X160441226Y-96570000D01*
X160483830Y-96574196D01*
X160483830Y-96574196D01*
G37*
G36*
X189628830Y-96574196D02*
X189799250Y-96590981D01*
X190072576Y-96673894D01*
X190324474Y-96808536D01*
X190545265Y-96989735D01*
X190726464Y-97210526D01*
X190861106Y-97462424D01*
X190944019Y-97735750D01*
X190972015Y-98020000D01*
X190944019Y-98304250D01*
X190861106Y-98577576D01*
X190726464Y-98829474D01*
X190545265Y-99050265D01*
X190324474Y-99231464D01*
X190072576Y-99366106D01*
X189799250Y-99449019D01*
X189628830Y-99465804D01*
X189586226Y-99470000D01*
X189443774Y-99470000D01*
X189401170Y-99465804D01*
X189230750Y-99449019D01*
X188957424Y-99366106D01*
X188705526Y-99231464D01*
X188484735Y-99050265D01*
X188303536Y-98829474D01*
X188168894Y-98577576D01*
X188085981Y-98304250D01*
X188057985Y-98020000D01*
X188085981Y-97735750D01*
X188168894Y-97462424D01*
X188303536Y-97210526D01*
X188484735Y-96989735D01*
X188705526Y-96808536D01*
X188957424Y-96673894D01*
X189230750Y-96590981D01*
X189401170Y-96574196D01*
X189443774Y-96570000D01*
X189586226Y-96570000D01*
X189628830Y-96574196D01*
X189628830Y-96574196D01*
G37*
G36*
X155338830Y-96574196D02*
X155509250Y-96590981D01*
X155782576Y-96673894D01*
X156034474Y-96808536D01*
X156255265Y-96989735D01*
X156436464Y-97210526D01*
X156571106Y-97462424D01*
X156654019Y-97735750D01*
X156682015Y-98020000D01*
X156654019Y-98304250D01*
X156571106Y-98577576D01*
X156436464Y-98829474D01*
X156255265Y-99050265D01*
X156034474Y-99231464D01*
X155782576Y-99366106D01*
X155509250Y-99449019D01*
X155338830Y-99465804D01*
X155296226Y-99470000D01*
X155153774Y-99470000D01*
X155111170Y-99465804D01*
X154940750Y-99449019D01*
X154667424Y-99366106D01*
X154415526Y-99231464D01*
X154194735Y-99050265D01*
X154013536Y-98829474D01*
X153878894Y-98577576D01*
X153795981Y-98304250D01*
X153767985Y-98020000D01*
X153795981Y-97735750D01*
X153878894Y-97462424D01*
X154013536Y-97210526D01*
X154194735Y-96989735D01*
X154415526Y-96808536D01*
X154667424Y-96673894D01*
X154940750Y-96590981D01*
X155111170Y-96574196D01*
X155153774Y-96570000D01*
X155296226Y-96570000D01*
X155338830Y-96574196D01*
X155338830Y-96574196D01*
G37*
G36*
X172483830Y-96574196D02*
X172654250Y-96590981D01*
X172927576Y-96673894D01*
X173179474Y-96808536D01*
X173400265Y-96989735D01*
X173581464Y-97210526D01*
X173716106Y-97462424D01*
X173799019Y-97735750D01*
X173827015Y-98020000D01*
X173799019Y-98304250D01*
X173716106Y-98577576D01*
X173581464Y-98829474D01*
X173400265Y-99050265D01*
X173179474Y-99231464D01*
X172927576Y-99366106D01*
X172654250Y-99449019D01*
X172483830Y-99465804D01*
X172441226Y-99470000D01*
X172298774Y-99470000D01*
X172256170Y-99465804D01*
X172085750Y-99449019D01*
X171812424Y-99366106D01*
X171560526Y-99231464D01*
X171339735Y-99050265D01*
X171158536Y-98829474D01*
X171023894Y-98577576D01*
X170940981Y-98304250D01*
X170912985Y-98020000D01*
X170940981Y-97735750D01*
X171023894Y-97462424D01*
X171158536Y-97210526D01*
X171339735Y-96989735D01*
X171560526Y-96808536D01*
X171812424Y-96673894D01*
X172085750Y-96590981D01*
X172256170Y-96574196D01*
X172298774Y-96570000D01*
X172441226Y-96570000D01*
X172483830Y-96574196D01*
X172483830Y-96574196D01*
G37*
G36*
X138193830Y-96574196D02*
X138364250Y-96590981D01*
X138637576Y-96673894D01*
X138889474Y-96808536D01*
X139110265Y-96989735D01*
X139291464Y-97210526D01*
X139426106Y-97462424D01*
X139509019Y-97735750D01*
X139537015Y-98020000D01*
X139509019Y-98304250D01*
X139426106Y-98577576D01*
X139291464Y-98829474D01*
X139110265Y-99050265D01*
X138889474Y-99231464D01*
X138637576Y-99366106D01*
X138364250Y-99449019D01*
X138193830Y-99465804D01*
X138151226Y-99470000D01*
X138008774Y-99470000D01*
X137966170Y-99465804D01*
X137795750Y-99449019D01*
X137522424Y-99366106D01*
X137270526Y-99231464D01*
X137049735Y-99050265D01*
X136868536Y-98829474D01*
X136733894Y-98577576D01*
X136650981Y-98304250D01*
X136622985Y-98020000D01*
X136650981Y-97735750D01*
X136733894Y-97462424D01*
X136868536Y-97210526D01*
X137049735Y-96989735D01*
X137270526Y-96808536D01*
X137522424Y-96673894D01*
X137795750Y-96590981D01*
X137966170Y-96574196D01*
X138008774Y-96570000D01*
X138151226Y-96570000D01*
X138193830Y-96574196D01*
X138193830Y-96574196D01*
G37*
G36*
X126193830Y-96574196D02*
X126364250Y-96590981D01*
X126637576Y-96673894D01*
X126889474Y-96808536D01*
X127110265Y-96989735D01*
X127291464Y-97210526D01*
X127426106Y-97462424D01*
X127509019Y-97735750D01*
X127537015Y-98020000D01*
X127509019Y-98304250D01*
X127426106Y-98577576D01*
X127291464Y-98829474D01*
X127110265Y-99050265D01*
X126889474Y-99231464D01*
X126637576Y-99366106D01*
X126364250Y-99449019D01*
X126193830Y-99465804D01*
X126151226Y-99470000D01*
X126008774Y-99470000D01*
X125966170Y-99465804D01*
X125795750Y-99449019D01*
X125522424Y-99366106D01*
X125270526Y-99231464D01*
X125049735Y-99050265D01*
X124868536Y-98829474D01*
X124733894Y-98577576D01*
X124650981Y-98304250D01*
X124622985Y-98020000D01*
X124650981Y-97735750D01*
X124733894Y-97462424D01*
X124868536Y-97210526D01*
X125049735Y-96989735D01*
X125270526Y-96808536D01*
X125522424Y-96673894D01*
X125795750Y-96590981D01*
X125966170Y-96574196D01*
X126008774Y-96570000D01*
X126151226Y-96570000D01*
X126193830Y-96574196D01*
X126193830Y-96574196D01*
G37*
G36*
X177628830Y-96574196D02*
X177799250Y-96590981D01*
X178072576Y-96673894D01*
X178324474Y-96808536D01*
X178545265Y-96989735D01*
X178726464Y-97210526D01*
X178861106Y-97462424D01*
X178944019Y-97735750D01*
X178972015Y-98020000D01*
X178944019Y-98304250D01*
X178861106Y-98577576D01*
X178726464Y-98829474D01*
X178545265Y-99050265D01*
X178324474Y-99231464D01*
X178072576Y-99366106D01*
X177799250Y-99449019D01*
X177628830Y-99465804D01*
X177586226Y-99470000D01*
X177443774Y-99470000D01*
X177401170Y-99465804D01*
X177230750Y-99449019D01*
X176957424Y-99366106D01*
X176705526Y-99231464D01*
X176484735Y-99050265D01*
X176303536Y-98829474D01*
X176168894Y-98577576D01*
X176085981Y-98304250D01*
X176057985Y-98020000D01*
X176085981Y-97735750D01*
X176168894Y-97462424D01*
X176303536Y-97210526D01*
X176484735Y-96989735D01*
X176705526Y-96808536D01*
X176957424Y-96673894D01*
X177230750Y-96590981D01*
X177401170Y-96574196D01*
X177443774Y-96570000D01*
X177586226Y-96570000D01*
X177628830Y-96574196D01*
X177628830Y-96574196D01*
G37*
G36*
X106088000Y-97603000D02*
X104488000Y-97603000D01*
X104488000Y-96453000D01*
X106088000Y-96453000D01*
X106088000Y-97603000D01*
X106088000Y-97603000D01*
G37*
G36*
X107988000Y-97603000D02*
X106388000Y-97603000D01*
X106388000Y-96453000D01*
X107988000Y-96453000D01*
X107988000Y-97603000D01*
X107988000Y-97603000D01*
G37*
G36*
X119576030Y-95534469D02*
X119576033Y-95534470D01*
X119576034Y-95534470D01*
X119764535Y-95591651D01*
X119764537Y-95591652D01*
X119938260Y-95684509D01*
X120090528Y-95809472D01*
X120215491Y-95961740D01*
X120308348Y-96135463D01*
X120365531Y-96323970D01*
X120384838Y-96520000D01*
X120365531Y-96716030D01*
X120308348Y-96904537D01*
X120215491Y-97078260D01*
X120090528Y-97230528D01*
X119938260Y-97355491D01*
X119938258Y-97355492D01*
X119764535Y-97448349D01*
X119576034Y-97505530D01*
X119576033Y-97505530D01*
X119576030Y-97505531D01*
X119429124Y-97520000D01*
X119330876Y-97520000D01*
X119183970Y-97505531D01*
X119183967Y-97505530D01*
X119183966Y-97505530D01*
X118995465Y-97448349D01*
X118821742Y-97355492D01*
X118821740Y-97355491D01*
X118669472Y-97230528D01*
X118544509Y-97078260D01*
X118451652Y-96904537D01*
X118394469Y-96716030D01*
X118375162Y-96520000D01*
X118394469Y-96323970D01*
X118451652Y-96135463D01*
X118544509Y-95961740D01*
X118669472Y-95809472D01*
X118821740Y-95684509D01*
X118995463Y-95591652D01*
X118995465Y-95591651D01*
X119183966Y-95534470D01*
X119183967Y-95534470D01*
X119183970Y-95534469D01*
X119330876Y-95520000D01*
X119429124Y-95520000D01*
X119576030Y-95534469D01*
X119576030Y-95534469D01*
G37*
G36*
X111956030Y-95534469D02*
X111956033Y-95534470D01*
X111956034Y-95534470D01*
X112144535Y-95591651D01*
X112144537Y-95591652D01*
X112318260Y-95684509D01*
X112470528Y-95809472D01*
X112595491Y-95961740D01*
X112688348Y-96135463D01*
X112745531Y-96323970D01*
X112764838Y-96520000D01*
X112745531Y-96716030D01*
X112688348Y-96904537D01*
X112595491Y-97078260D01*
X112470528Y-97230528D01*
X112318260Y-97355491D01*
X112318258Y-97355492D01*
X112144535Y-97448349D01*
X111956034Y-97505530D01*
X111956033Y-97505530D01*
X111956030Y-97505531D01*
X111809124Y-97520000D01*
X111710876Y-97520000D01*
X111563970Y-97505531D01*
X111563967Y-97505530D01*
X111563966Y-97505530D01*
X111375465Y-97448349D01*
X111201742Y-97355492D01*
X111201740Y-97355491D01*
X111049472Y-97230528D01*
X110924509Y-97078260D01*
X110831652Y-96904537D01*
X110774469Y-96716030D01*
X110755162Y-96520000D01*
X110774469Y-96323970D01*
X110831652Y-96135463D01*
X110924509Y-95961740D01*
X111049472Y-95809472D01*
X111201740Y-95684509D01*
X111375463Y-95591652D01*
X111375465Y-95591651D01*
X111563966Y-95534470D01*
X111563967Y-95534470D01*
X111563970Y-95534469D01*
X111710876Y-95520000D01*
X111809124Y-95520000D01*
X111956030Y-95534469D01*
X111956030Y-95534469D01*
G37*
G36*
X95162000Y-96700000D02*
X90762000Y-96700000D01*
X90762000Y-93800000D01*
X95162000Y-93800000D01*
X95162000Y-96700000D01*
X95162000Y-96700000D01*
G37*
G36*
X101262000Y-96700000D02*
X96862000Y-96700000D01*
X96862000Y-93800000D01*
X101262000Y-93800000D01*
X101262000Y-96700000D01*
X101262000Y-96700000D01*
G37*
G36*
X111956030Y-92994469D02*
X111956033Y-92994470D01*
X111956034Y-92994470D01*
X112144535Y-93051651D01*
X112144537Y-93051652D01*
X112318260Y-93144509D01*
X112470528Y-93269472D01*
X112595491Y-93421740D01*
X112595492Y-93421742D01*
X112688349Y-93595465D01*
X112745530Y-93783966D01*
X112745531Y-93783970D01*
X112764838Y-93980000D01*
X112745531Y-94176030D01*
X112688348Y-94364537D01*
X112595491Y-94538260D01*
X112470528Y-94690528D01*
X112318260Y-94815491D01*
X112318258Y-94815492D01*
X112144535Y-94908349D01*
X111956034Y-94965530D01*
X111956033Y-94965530D01*
X111956030Y-94965531D01*
X111809124Y-94980000D01*
X111710876Y-94980000D01*
X111563970Y-94965531D01*
X111563967Y-94965530D01*
X111563966Y-94965530D01*
X111375465Y-94908349D01*
X111201742Y-94815492D01*
X111201740Y-94815491D01*
X111049472Y-94690528D01*
X110924509Y-94538260D01*
X110831652Y-94364537D01*
X110774469Y-94176030D01*
X110755162Y-93980000D01*
X110774469Y-93783970D01*
X110774470Y-93783966D01*
X110831651Y-93595465D01*
X110924508Y-93421742D01*
X110924509Y-93421740D01*
X111049472Y-93269472D01*
X111201740Y-93144509D01*
X111375463Y-93051652D01*
X111375465Y-93051651D01*
X111563966Y-92994470D01*
X111563967Y-92994470D01*
X111563970Y-92994469D01*
X111710876Y-92980000D01*
X111809124Y-92980000D01*
X111956030Y-92994469D01*
X111956030Y-92994469D01*
G37*
G36*
X119576030Y-92994469D02*
X119576033Y-92994470D01*
X119576034Y-92994470D01*
X119764535Y-93051651D01*
X119764537Y-93051652D01*
X119938260Y-93144509D01*
X120090528Y-93269472D01*
X120215491Y-93421740D01*
X120215492Y-93421742D01*
X120308349Y-93595465D01*
X120365530Y-93783966D01*
X120365531Y-93783970D01*
X120384838Y-93980000D01*
X120365531Y-94176030D01*
X120308348Y-94364537D01*
X120215491Y-94538260D01*
X120090528Y-94690528D01*
X119938260Y-94815491D01*
X119938258Y-94815492D01*
X119764535Y-94908349D01*
X119576034Y-94965530D01*
X119576033Y-94965530D01*
X119576030Y-94965531D01*
X119429124Y-94980000D01*
X119330876Y-94980000D01*
X119183970Y-94965531D01*
X119183967Y-94965530D01*
X119183966Y-94965530D01*
X118995465Y-94908349D01*
X118821742Y-94815492D01*
X118821740Y-94815491D01*
X118669472Y-94690528D01*
X118544509Y-94538260D01*
X118451652Y-94364537D01*
X118394469Y-94176030D01*
X118375162Y-93980000D01*
X118394469Y-93783970D01*
X118394470Y-93783966D01*
X118451651Y-93595465D01*
X118544508Y-93421742D01*
X118544509Y-93421740D01*
X118669472Y-93269472D01*
X118821740Y-93144509D01*
X118995463Y-93051652D01*
X118995465Y-93051651D01*
X119183966Y-92994470D01*
X119183967Y-92994470D01*
X119183970Y-92994469D01*
X119330876Y-92980000D01*
X119429124Y-92980000D01*
X119576030Y-92994469D01*
X119576030Y-92994469D01*
G37*
G36*
X106775876Y-91556605D02*
X106994172Y-91647026D01*
X107190633Y-91778297D01*
X107357703Y-91945367D01*
X107488974Y-92141828D01*
X107579395Y-92360124D01*
X107625490Y-92591859D01*
X107625490Y-92828141D01*
X107579395Y-93059876D01*
X107488974Y-93278172D01*
X107357703Y-93474633D01*
X107190633Y-93641703D01*
X106994172Y-93772974D01*
X106775876Y-93863395D01*
X106544141Y-93909490D01*
X106307859Y-93909490D01*
X106076124Y-93863395D01*
X105857828Y-93772974D01*
X105661367Y-93641703D01*
X105494297Y-93474633D01*
X105363026Y-93278172D01*
X105272605Y-93059876D01*
X105226510Y-92828141D01*
X105226510Y-92591859D01*
X105272605Y-92360124D01*
X105363026Y-92141828D01*
X105494297Y-91945367D01*
X105661367Y-91778297D01*
X105857828Y-91647026D01*
X106076124Y-91556605D01*
X106307859Y-91510510D01*
X106544141Y-91510510D01*
X106775876Y-91556605D01*
X106775876Y-91556605D01*
G37*
G36*
X111956030Y-90454469D02*
X111956033Y-90454470D01*
X111956034Y-90454470D01*
X112144535Y-90511651D01*
X112144537Y-90511652D01*
X112318260Y-90604509D01*
X112470528Y-90729472D01*
X112595491Y-90881740D01*
X112688348Y-91055463D01*
X112745531Y-91243970D01*
X112764838Y-91440000D01*
X112745531Y-91636030D01*
X112745530Y-91636033D01*
X112745530Y-91636034D01*
X112702376Y-91778295D01*
X112688348Y-91824537D01*
X112595491Y-91998260D01*
X112470528Y-92150528D01*
X112318260Y-92275491D01*
X112318258Y-92275492D01*
X112144535Y-92368349D01*
X111956034Y-92425530D01*
X111956033Y-92425530D01*
X111956030Y-92425531D01*
X111809124Y-92440000D01*
X111710876Y-92440000D01*
X111563970Y-92425531D01*
X111563967Y-92425530D01*
X111563966Y-92425530D01*
X111375465Y-92368349D01*
X111201742Y-92275492D01*
X111201740Y-92275491D01*
X111049472Y-92150528D01*
X110924509Y-91998260D01*
X110831652Y-91824537D01*
X110817625Y-91778295D01*
X110774470Y-91636034D01*
X110774470Y-91636033D01*
X110774469Y-91636030D01*
X110755162Y-91440000D01*
X110774469Y-91243970D01*
X110831652Y-91055463D01*
X110924509Y-90881740D01*
X111049472Y-90729472D01*
X111201740Y-90604509D01*
X111375463Y-90511652D01*
X111375465Y-90511651D01*
X111563966Y-90454470D01*
X111563967Y-90454470D01*
X111563970Y-90454469D01*
X111710876Y-90440000D01*
X111809124Y-90440000D01*
X111956030Y-90454469D01*
X111956030Y-90454469D01*
G37*
G36*
X119576030Y-90454469D02*
X119576033Y-90454470D01*
X119576034Y-90454470D01*
X119764535Y-90511651D01*
X119764537Y-90511652D01*
X119938260Y-90604509D01*
X120090528Y-90729472D01*
X120215491Y-90881740D01*
X120308348Y-91055463D01*
X120365531Y-91243970D01*
X120384838Y-91440000D01*
X120365531Y-91636030D01*
X120365530Y-91636033D01*
X120365530Y-91636034D01*
X120322376Y-91778295D01*
X120308348Y-91824537D01*
X120215491Y-91998260D01*
X120090528Y-92150528D01*
X119938260Y-92275491D01*
X119938258Y-92275492D01*
X119764535Y-92368349D01*
X119576034Y-92425530D01*
X119576033Y-92425530D01*
X119576030Y-92425531D01*
X119429124Y-92440000D01*
X119330876Y-92440000D01*
X119183970Y-92425531D01*
X119183967Y-92425530D01*
X119183966Y-92425530D01*
X118995465Y-92368349D01*
X118821742Y-92275492D01*
X118821740Y-92275491D01*
X118669472Y-92150528D01*
X118544509Y-91998260D01*
X118451652Y-91824537D01*
X118437625Y-91778295D01*
X118394470Y-91636034D01*
X118394470Y-91636033D01*
X118394469Y-91636030D01*
X118375162Y-91440000D01*
X118394469Y-91243970D01*
X118451652Y-91055463D01*
X118544509Y-90881740D01*
X118669472Y-90729472D01*
X118821740Y-90604509D01*
X118995463Y-90511652D01*
X118995465Y-90511651D01*
X119183966Y-90454470D01*
X119183967Y-90454470D01*
X119183970Y-90454469D01*
X119330876Y-90440000D01*
X119429124Y-90440000D01*
X119576030Y-90454469D01*
X119576030Y-90454469D01*
G37*
G36*
X194188393Y-86989553D02*
X194297872Y-87011330D01*
X194607252Y-87139479D01*
X194885687Y-87325523D01*
X195122477Y-87562313D01*
X195308521Y-87840748D01*
X195436670Y-88150128D01*
X195458447Y-88259607D01*
X195502000Y-88478563D01*
X195502000Y-88813437D01*
X195484781Y-88900000D01*
X195436670Y-89141872D01*
X195308521Y-89451252D01*
X195122477Y-89729687D01*
X194885687Y-89966477D01*
X194607252Y-90152521D01*
X194297872Y-90280670D01*
X194188393Y-90302447D01*
X193969437Y-90346000D01*
X193634563Y-90346000D01*
X193415607Y-90302447D01*
X193306128Y-90280670D01*
X192996748Y-90152521D01*
X192718313Y-89966477D01*
X192481523Y-89729687D01*
X192295479Y-89451252D01*
X192167330Y-89141872D01*
X192119219Y-88900000D01*
X192102000Y-88813437D01*
X192102000Y-88478563D01*
X192145553Y-88259607D01*
X192167330Y-88150128D01*
X192295479Y-87840748D01*
X192481523Y-87562313D01*
X192718313Y-87325523D01*
X192996748Y-87139479D01*
X193306128Y-87011330D01*
X193415607Y-86989553D01*
X193634563Y-86946000D01*
X193969437Y-86946000D01*
X194188393Y-86989553D01*
X194188393Y-86989553D01*
G37*
G36*
X88524393Y-86989553D02*
X88633872Y-87011330D01*
X88943252Y-87139479D01*
X89221687Y-87325523D01*
X89458477Y-87562313D01*
X89644521Y-87840748D01*
X89772670Y-88150128D01*
X89794447Y-88259607D01*
X89838000Y-88478563D01*
X89838000Y-88813437D01*
X89820781Y-88900000D01*
X89772670Y-89141872D01*
X89644521Y-89451252D01*
X89458477Y-89729687D01*
X89221687Y-89966477D01*
X88943252Y-90152521D01*
X88633872Y-90280670D01*
X88524393Y-90302447D01*
X88305437Y-90346000D01*
X87970563Y-90346000D01*
X87751607Y-90302447D01*
X87642128Y-90280670D01*
X87332748Y-90152521D01*
X87054313Y-89966477D01*
X86817523Y-89729687D01*
X86631479Y-89451252D01*
X86503330Y-89141872D01*
X86455219Y-88900000D01*
X86438000Y-88813437D01*
X86438000Y-88478563D01*
X86481553Y-88259607D01*
X86503330Y-88150128D01*
X86631479Y-87840748D01*
X86817523Y-87562313D01*
X87054313Y-87325523D01*
X87332748Y-87139479D01*
X87642128Y-87011330D01*
X87751607Y-86989553D01*
X87970563Y-86946000D01*
X88305437Y-86946000D01*
X88524393Y-86989553D01*
X88524393Y-86989553D01*
G37*
G36*
X95565000Y-90075000D02*
X93665000Y-90075000D01*
X93665000Y-87675000D01*
X95565000Y-87675000D01*
X95565000Y-90075000D01*
X95565000Y-90075000D01*
G37*
G36*
X97865000Y-90075000D02*
X95965000Y-90075000D01*
X95965000Y-87675000D01*
X97865000Y-87675000D01*
X97865000Y-90075000D01*
X97865000Y-90075000D01*
G37*
G36*
X93265000Y-90075000D02*
X91365000Y-90075000D01*
X91365000Y-87675000D01*
X93265000Y-87675000D01*
X93265000Y-90075000D01*
X93265000Y-90075000D01*
G37*
G36*
X111956030Y-87914469D02*
X111956033Y-87914470D01*
X111956034Y-87914470D01*
X112144535Y-87971651D01*
X112144537Y-87971652D01*
X112318260Y-88064509D01*
X112470528Y-88189472D01*
X112595491Y-88341740D01*
X112668626Y-88478565D01*
X112688349Y-88515465D01*
X112745530Y-88703966D01*
X112745531Y-88703970D01*
X112764838Y-88900000D01*
X112745531Y-89096030D01*
X112745530Y-89096033D01*
X112745530Y-89096034D01*
X112731626Y-89141871D01*
X112688348Y-89284537D01*
X112595491Y-89458260D01*
X112470528Y-89610528D01*
X112318260Y-89735491D01*
X112318258Y-89735492D01*
X112144535Y-89828349D01*
X111956034Y-89885530D01*
X111956033Y-89885530D01*
X111956030Y-89885531D01*
X111809124Y-89900000D01*
X111710876Y-89900000D01*
X111563970Y-89885531D01*
X111563967Y-89885530D01*
X111563966Y-89885530D01*
X111375465Y-89828349D01*
X111201742Y-89735492D01*
X111201740Y-89735491D01*
X111049472Y-89610528D01*
X110924509Y-89458260D01*
X110831652Y-89284537D01*
X110788375Y-89141871D01*
X110774470Y-89096034D01*
X110774470Y-89096033D01*
X110774469Y-89096030D01*
X110755162Y-88900000D01*
X110774469Y-88703970D01*
X110774470Y-88703966D01*
X110831651Y-88515465D01*
X110851374Y-88478565D01*
X110924509Y-88341740D01*
X111049472Y-88189472D01*
X111201740Y-88064509D01*
X111375463Y-87971652D01*
X111375465Y-87971651D01*
X111563966Y-87914470D01*
X111563967Y-87914470D01*
X111563970Y-87914469D01*
X111710876Y-87900000D01*
X111809124Y-87900000D01*
X111956030Y-87914469D01*
X111956030Y-87914469D01*
G37*
G36*
X119576030Y-87914469D02*
X119576033Y-87914470D01*
X119576034Y-87914470D01*
X119764535Y-87971651D01*
X119764537Y-87971652D01*
X119938260Y-88064509D01*
X120090528Y-88189472D01*
X120215491Y-88341740D01*
X120288626Y-88478565D01*
X120308349Y-88515465D01*
X120365530Y-88703966D01*
X120365531Y-88703970D01*
X120384838Y-88900000D01*
X120365531Y-89096030D01*
X120365530Y-89096033D01*
X120365530Y-89096034D01*
X120351626Y-89141871D01*
X120308348Y-89284537D01*
X120215491Y-89458260D01*
X120090528Y-89610528D01*
X119938260Y-89735491D01*
X119938258Y-89735492D01*
X119764535Y-89828349D01*
X119576034Y-89885530D01*
X119576033Y-89885530D01*
X119576030Y-89885531D01*
X119429124Y-89900000D01*
X119330876Y-89900000D01*
X119183970Y-89885531D01*
X119183967Y-89885530D01*
X119183966Y-89885530D01*
X118995465Y-89828349D01*
X118821742Y-89735492D01*
X118821740Y-89735491D01*
X118669472Y-89610528D01*
X118544509Y-89458260D01*
X118451652Y-89284537D01*
X118408375Y-89141871D01*
X118394470Y-89096034D01*
X118394470Y-89096033D01*
X118394469Y-89096030D01*
X118375162Y-88900000D01*
X118394469Y-88703970D01*
X118394470Y-88703966D01*
X118451651Y-88515465D01*
X118471374Y-88478565D01*
X118544509Y-88341740D01*
X118669472Y-88189472D01*
X118821740Y-88064509D01*
X118995463Y-87971652D01*
X118995465Y-87971651D01*
X119183966Y-87914470D01*
X119183967Y-87914470D01*
X119183970Y-87914469D01*
X119330876Y-87900000D01*
X119429124Y-87900000D01*
X119576030Y-87914469D01*
X119576030Y-87914469D01*
G37*
G36*
X106775876Y-86476605D02*
X106994172Y-86567026D01*
X107190633Y-86698297D01*
X107357703Y-86865367D01*
X107488974Y-87061828D01*
X107579395Y-87280124D01*
X107625490Y-87511859D01*
X107625490Y-87748141D01*
X107579395Y-87979876D01*
X107488974Y-88198172D01*
X107357703Y-88394633D01*
X107190633Y-88561703D01*
X106994172Y-88692974D01*
X106775876Y-88783395D01*
X106544141Y-88829490D01*
X106307859Y-88829490D01*
X106076124Y-88783395D01*
X105857828Y-88692974D01*
X105661367Y-88561703D01*
X105494297Y-88394633D01*
X105363026Y-88198172D01*
X105272605Y-87979876D01*
X105226510Y-87748141D01*
X105226510Y-87511859D01*
X105272605Y-87280124D01*
X105363026Y-87061828D01*
X105494297Y-86865367D01*
X105661367Y-86698297D01*
X105857828Y-86567026D01*
X106076124Y-86476605D01*
X106307859Y-86430510D01*
X106544141Y-86430510D01*
X106775876Y-86476605D01*
X106775876Y-86476605D01*
G37*
G36*
X119576030Y-85374469D02*
X119576033Y-85374470D01*
X119576034Y-85374470D01*
X119764535Y-85431651D01*
X119764537Y-85431652D01*
X119938260Y-85524509D01*
X120090528Y-85649472D01*
X120215491Y-85801740D01*
X120308348Y-85975463D01*
X120365531Y-86163970D01*
X120384838Y-86360000D01*
X120365531Y-86556030D01*
X120365530Y-86556033D01*
X120365530Y-86556034D01*
X120322376Y-86698295D01*
X120308348Y-86744537D01*
X120215491Y-86918260D01*
X120090528Y-87070528D01*
X119938260Y-87195491D01*
X119938258Y-87195492D01*
X119764535Y-87288349D01*
X119576034Y-87345530D01*
X119576033Y-87345530D01*
X119576030Y-87345531D01*
X119429124Y-87360000D01*
X119330876Y-87360000D01*
X119183970Y-87345531D01*
X119183967Y-87345530D01*
X119183966Y-87345530D01*
X118995465Y-87288349D01*
X118821742Y-87195492D01*
X118821740Y-87195491D01*
X118669472Y-87070528D01*
X118544509Y-86918260D01*
X118451652Y-86744537D01*
X118437625Y-86698295D01*
X118394470Y-86556034D01*
X118394470Y-86556033D01*
X118394469Y-86556030D01*
X118375162Y-86360000D01*
X118394469Y-86163970D01*
X118451652Y-85975463D01*
X118544509Y-85801740D01*
X118669472Y-85649472D01*
X118821740Y-85524509D01*
X118995463Y-85431652D01*
X118995465Y-85431651D01*
X119183966Y-85374470D01*
X119183967Y-85374470D01*
X119183970Y-85374469D01*
X119330876Y-85360000D01*
X119429124Y-85360000D01*
X119576030Y-85374469D01*
X119576030Y-85374469D01*
G37*
G36*
X111956030Y-85374469D02*
X111956033Y-85374470D01*
X111956034Y-85374470D01*
X112144535Y-85431651D01*
X112144537Y-85431652D01*
X112318260Y-85524509D01*
X112470528Y-85649472D01*
X112595491Y-85801740D01*
X112688348Y-85975463D01*
X112745531Y-86163970D01*
X112764838Y-86360000D01*
X112745531Y-86556030D01*
X112745530Y-86556033D01*
X112745530Y-86556034D01*
X112702376Y-86698295D01*
X112688348Y-86744537D01*
X112595491Y-86918260D01*
X112470528Y-87070528D01*
X112318260Y-87195491D01*
X112318258Y-87195492D01*
X112144535Y-87288349D01*
X111956034Y-87345530D01*
X111956033Y-87345530D01*
X111956030Y-87345531D01*
X111809124Y-87360000D01*
X111710876Y-87360000D01*
X111563970Y-87345531D01*
X111563967Y-87345530D01*
X111563966Y-87345530D01*
X111375465Y-87288349D01*
X111201742Y-87195492D01*
X111201740Y-87195491D01*
X111049472Y-87070528D01*
X110924509Y-86918260D01*
X110831652Y-86744537D01*
X110817625Y-86698295D01*
X110774470Y-86556034D01*
X110774470Y-86556033D01*
X110774469Y-86556030D01*
X110755162Y-86360000D01*
X110774469Y-86163970D01*
X110831652Y-85975463D01*
X110924509Y-85801740D01*
X111049472Y-85649472D01*
X111201740Y-85524509D01*
X111375463Y-85431652D01*
X111375465Y-85431651D01*
X111563966Y-85374470D01*
X111563967Y-85374470D01*
X111563970Y-85374469D01*
X111710876Y-85360000D01*
X111809124Y-85360000D01*
X111956030Y-85374469D01*
X111956030Y-85374469D01*
G37*
G36*
X143338830Y-84374196D02*
X143509250Y-84390981D01*
X143782576Y-84473894D01*
X144034474Y-84608536D01*
X144255265Y-84789735D01*
X144436464Y-85010526D01*
X144571106Y-85262424D01*
X144654019Y-85535750D01*
X144682015Y-85820000D01*
X144654019Y-86104250D01*
X144571106Y-86377576D01*
X144436464Y-86629474D01*
X144255265Y-86850265D01*
X144034474Y-87031464D01*
X143782576Y-87166106D01*
X143509250Y-87249019D01*
X143338830Y-87265804D01*
X143296226Y-87270000D01*
X143153774Y-87270000D01*
X143111170Y-87265804D01*
X142940750Y-87249019D01*
X142667424Y-87166106D01*
X142415526Y-87031464D01*
X142194735Y-86850265D01*
X142013536Y-86629474D01*
X141878894Y-86377576D01*
X141795981Y-86104250D01*
X141767985Y-85820000D01*
X141795981Y-85535750D01*
X141878894Y-85262424D01*
X142013536Y-85010526D01*
X142194735Y-84789735D01*
X142415526Y-84608536D01*
X142667424Y-84473894D01*
X142940750Y-84390981D01*
X143111170Y-84374196D01*
X143153774Y-84370000D01*
X143296226Y-84370000D01*
X143338830Y-84374196D01*
X143338830Y-84374196D01*
G37*
G36*
X138193830Y-84374196D02*
X138364250Y-84390981D01*
X138637576Y-84473894D01*
X138889474Y-84608536D01*
X139110265Y-84789735D01*
X139291464Y-85010526D01*
X139426106Y-85262424D01*
X139509019Y-85535750D01*
X139537015Y-85820000D01*
X139509019Y-86104250D01*
X139426106Y-86377576D01*
X139291464Y-86629474D01*
X139110265Y-86850265D01*
X138889474Y-87031464D01*
X138637576Y-87166106D01*
X138364250Y-87249019D01*
X138193830Y-87265804D01*
X138151226Y-87270000D01*
X138008774Y-87270000D01*
X137966170Y-87265804D01*
X137795750Y-87249019D01*
X137522424Y-87166106D01*
X137270526Y-87031464D01*
X137049735Y-86850265D01*
X136868536Y-86629474D01*
X136733894Y-86377576D01*
X136650981Y-86104250D01*
X136622985Y-85820000D01*
X136650981Y-85535750D01*
X136733894Y-85262424D01*
X136868536Y-85010526D01*
X137049735Y-84789735D01*
X137270526Y-84608536D01*
X137522424Y-84473894D01*
X137795750Y-84390981D01*
X137966170Y-84374196D01*
X138008774Y-84370000D01*
X138151226Y-84370000D01*
X138193830Y-84374196D01*
X138193830Y-84374196D01*
G37*
G36*
X155338830Y-84374196D02*
X155509250Y-84390981D01*
X155782576Y-84473894D01*
X156034474Y-84608536D01*
X156255265Y-84789735D01*
X156436464Y-85010526D01*
X156571106Y-85262424D01*
X156654019Y-85535750D01*
X156682015Y-85820000D01*
X156654019Y-86104250D01*
X156571106Y-86377576D01*
X156436464Y-86629474D01*
X156255265Y-86850265D01*
X156034474Y-87031464D01*
X155782576Y-87166106D01*
X155509250Y-87249019D01*
X155338830Y-87265804D01*
X155296226Y-87270000D01*
X155153774Y-87270000D01*
X155111170Y-87265804D01*
X154940750Y-87249019D01*
X154667424Y-87166106D01*
X154415526Y-87031464D01*
X154194735Y-86850265D01*
X154013536Y-86629474D01*
X153878894Y-86377576D01*
X153795981Y-86104250D01*
X153767985Y-85820000D01*
X153795981Y-85535750D01*
X153878894Y-85262424D01*
X154013536Y-85010526D01*
X154194735Y-84789735D01*
X154415526Y-84608536D01*
X154667424Y-84473894D01*
X154940750Y-84390981D01*
X155111170Y-84374196D01*
X155153774Y-84370000D01*
X155296226Y-84370000D01*
X155338830Y-84374196D01*
X155338830Y-84374196D01*
G37*
G36*
X126193830Y-84374196D02*
X126364250Y-84390981D01*
X126637576Y-84473894D01*
X126889474Y-84608536D01*
X127110265Y-84789735D01*
X127291464Y-85010526D01*
X127426106Y-85262424D01*
X127509019Y-85535750D01*
X127537015Y-85820000D01*
X127509019Y-86104250D01*
X127426106Y-86377576D01*
X127291464Y-86629474D01*
X127110265Y-86850265D01*
X126889474Y-87031464D01*
X126637576Y-87166106D01*
X126364250Y-87249019D01*
X126193830Y-87265804D01*
X126151226Y-87270000D01*
X126008774Y-87270000D01*
X125966170Y-87265804D01*
X125795750Y-87249019D01*
X125522424Y-87166106D01*
X125270526Y-87031464D01*
X125049735Y-86850265D01*
X124868536Y-86629474D01*
X124733894Y-86377576D01*
X124650981Y-86104250D01*
X124622985Y-85820000D01*
X124650981Y-85535750D01*
X124733894Y-85262424D01*
X124868536Y-85010526D01*
X125049735Y-84789735D01*
X125270526Y-84608536D01*
X125522424Y-84473894D01*
X125795750Y-84390981D01*
X125966170Y-84374196D01*
X126008774Y-84370000D01*
X126151226Y-84370000D01*
X126193830Y-84374196D01*
X126193830Y-84374196D01*
G37*
G36*
X177628830Y-84374196D02*
X177799250Y-84390981D01*
X178072576Y-84473894D01*
X178324474Y-84608536D01*
X178545265Y-84789735D01*
X178726464Y-85010526D01*
X178861106Y-85262424D01*
X178944019Y-85535750D01*
X178972015Y-85820000D01*
X178944019Y-86104250D01*
X178861106Y-86377576D01*
X178726464Y-86629474D01*
X178545265Y-86850265D01*
X178324474Y-87031464D01*
X178072576Y-87166106D01*
X177799250Y-87249019D01*
X177628830Y-87265804D01*
X177586226Y-87270000D01*
X177443774Y-87270000D01*
X177401170Y-87265804D01*
X177230750Y-87249019D01*
X176957424Y-87166106D01*
X176705526Y-87031464D01*
X176484735Y-86850265D01*
X176303536Y-86629474D01*
X176168894Y-86377576D01*
X176085981Y-86104250D01*
X176057985Y-85820000D01*
X176085981Y-85535750D01*
X176168894Y-85262424D01*
X176303536Y-85010526D01*
X176484735Y-84789735D01*
X176705526Y-84608536D01*
X176957424Y-84473894D01*
X177230750Y-84390981D01*
X177401170Y-84374196D01*
X177443774Y-84370000D01*
X177586226Y-84370000D01*
X177628830Y-84374196D01*
X177628830Y-84374196D01*
G37*
G36*
X189628830Y-84374196D02*
X189799250Y-84390981D01*
X190072576Y-84473894D01*
X190324474Y-84608536D01*
X190545265Y-84789735D01*
X190726464Y-85010526D01*
X190861106Y-85262424D01*
X190944019Y-85535750D01*
X190972015Y-85820000D01*
X190944019Y-86104250D01*
X190861106Y-86377576D01*
X190726464Y-86629474D01*
X190545265Y-86850265D01*
X190324474Y-87031464D01*
X190072576Y-87166106D01*
X189799250Y-87249019D01*
X189628830Y-87265804D01*
X189586226Y-87270000D01*
X189443774Y-87270000D01*
X189401170Y-87265804D01*
X189230750Y-87249019D01*
X188957424Y-87166106D01*
X188705526Y-87031464D01*
X188484735Y-86850265D01*
X188303536Y-86629474D01*
X188168894Y-86377576D01*
X188085981Y-86104250D01*
X188057985Y-85820000D01*
X188085981Y-85535750D01*
X188168894Y-85262424D01*
X188303536Y-85010526D01*
X188484735Y-84789735D01*
X188705526Y-84608536D01*
X188957424Y-84473894D01*
X189230750Y-84390981D01*
X189401170Y-84374196D01*
X189443774Y-84370000D01*
X189586226Y-84370000D01*
X189628830Y-84374196D01*
X189628830Y-84374196D01*
G37*
G36*
X172483830Y-84374196D02*
X172654250Y-84390981D01*
X172927576Y-84473894D01*
X173179474Y-84608536D01*
X173400265Y-84789735D01*
X173581464Y-85010526D01*
X173716106Y-85262424D01*
X173799019Y-85535750D01*
X173827015Y-85820000D01*
X173799019Y-86104250D01*
X173716106Y-86377576D01*
X173581464Y-86629474D01*
X173400265Y-86850265D01*
X173179474Y-87031464D01*
X172927576Y-87166106D01*
X172654250Y-87249019D01*
X172483830Y-87265804D01*
X172441226Y-87270000D01*
X172298774Y-87270000D01*
X172256170Y-87265804D01*
X172085750Y-87249019D01*
X171812424Y-87166106D01*
X171560526Y-87031464D01*
X171339735Y-86850265D01*
X171158536Y-86629474D01*
X171023894Y-86377576D01*
X170940981Y-86104250D01*
X170912985Y-85820000D01*
X170940981Y-85535750D01*
X171023894Y-85262424D01*
X171158536Y-85010526D01*
X171339735Y-84789735D01*
X171560526Y-84608536D01*
X171812424Y-84473894D01*
X172085750Y-84390981D01*
X172256170Y-84374196D01*
X172298774Y-84370000D01*
X172441226Y-84370000D01*
X172483830Y-84374196D01*
X172483830Y-84374196D01*
G37*
G36*
X160483830Y-84374196D02*
X160654250Y-84390981D01*
X160927576Y-84473894D01*
X161179474Y-84608536D01*
X161400265Y-84789735D01*
X161581464Y-85010526D01*
X161716106Y-85262424D01*
X161799019Y-85535750D01*
X161827015Y-85820000D01*
X161799019Y-86104250D01*
X161716106Y-86377576D01*
X161581464Y-86629474D01*
X161400265Y-86850265D01*
X161179474Y-87031464D01*
X160927576Y-87166106D01*
X160654250Y-87249019D01*
X160483830Y-87265804D01*
X160441226Y-87270000D01*
X160298774Y-87270000D01*
X160256170Y-87265804D01*
X160085750Y-87249019D01*
X159812424Y-87166106D01*
X159560526Y-87031464D01*
X159339735Y-86850265D01*
X159158536Y-86629474D01*
X159023894Y-86377576D01*
X158940981Y-86104250D01*
X158912985Y-85820000D01*
X158940981Y-85535750D01*
X159023894Y-85262424D01*
X159158536Y-85010526D01*
X159339735Y-84789735D01*
X159560526Y-84608536D01*
X159812424Y-84473894D01*
X160085750Y-84390981D01*
X160256170Y-84374196D01*
X160298774Y-84370000D01*
X160441226Y-84370000D01*
X160483830Y-84374196D01*
X160483830Y-84374196D01*
G37*
G36*
X167820000Y-85270000D02*
X164920000Y-85270000D01*
X164920000Y-82370000D01*
X167820000Y-82370000D01*
X167820000Y-85270000D01*
X167820000Y-85270000D01*
G37*
G36*
X150675000Y-85270000D02*
X147775000Y-85270000D01*
X147775000Y-82370000D01*
X150675000Y-82370000D01*
X150675000Y-85270000D01*
X150675000Y-85270000D01*
G37*
G36*
X133530000Y-85270000D02*
X130630000Y-85270000D01*
X130630000Y-82370000D01*
X133530000Y-82370000D01*
X133530000Y-85270000D01*
X133530000Y-85270000D01*
G37*
G36*
X184965000Y-85270000D02*
X182065000Y-85270000D01*
X182065000Y-82370000D01*
X184965000Y-82370000D01*
X184965000Y-85270000D01*
X184965000Y-85270000D01*
G37*
G36*
X111956030Y-82834469D02*
X111956033Y-82834470D01*
X111956034Y-82834470D01*
X112144535Y-82891651D01*
X112144537Y-82891652D01*
X112318260Y-82984509D01*
X112470528Y-83109472D01*
X112595491Y-83261740D01*
X112688348Y-83435463D01*
X112745531Y-83623970D01*
X112764838Y-83820000D01*
X112745531Y-84016030D01*
X112688348Y-84204537D01*
X112595491Y-84378260D01*
X112470528Y-84530528D01*
X112318260Y-84655491D01*
X112318258Y-84655492D01*
X112144535Y-84748349D01*
X111956034Y-84805530D01*
X111956033Y-84805530D01*
X111956030Y-84805531D01*
X111809124Y-84820000D01*
X111710876Y-84820000D01*
X111563970Y-84805531D01*
X111563967Y-84805530D01*
X111563966Y-84805530D01*
X111375465Y-84748349D01*
X111201742Y-84655492D01*
X111201740Y-84655491D01*
X111049472Y-84530528D01*
X110924509Y-84378260D01*
X110831652Y-84204537D01*
X110774469Y-84016030D01*
X110755162Y-83820000D01*
X110774469Y-83623970D01*
X110831652Y-83435463D01*
X110924509Y-83261740D01*
X111049472Y-83109472D01*
X111201740Y-82984509D01*
X111375463Y-82891652D01*
X111375465Y-82891651D01*
X111563966Y-82834470D01*
X111563967Y-82834470D01*
X111563970Y-82834469D01*
X111710876Y-82820000D01*
X111809124Y-82820000D01*
X111956030Y-82834469D01*
X111956030Y-82834469D01*
G37*
G36*
X119576030Y-82834469D02*
X119576033Y-82834470D01*
X119576034Y-82834470D01*
X119764535Y-82891651D01*
X119764537Y-82891652D01*
X119938260Y-82984509D01*
X120090528Y-83109472D01*
X120215491Y-83261740D01*
X120308348Y-83435463D01*
X120365531Y-83623970D01*
X120384838Y-83820000D01*
X120365531Y-84016030D01*
X120308348Y-84204537D01*
X120215491Y-84378260D01*
X120090528Y-84530528D01*
X119938260Y-84655491D01*
X119938258Y-84655492D01*
X119764535Y-84748349D01*
X119576034Y-84805530D01*
X119576033Y-84805530D01*
X119576030Y-84805531D01*
X119429124Y-84820000D01*
X119330876Y-84820000D01*
X119183970Y-84805531D01*
X119183967Y-84805530D01*
X119183966Y-84805530D01*
X118995465Y-84748349D01*
X118821742Y-84655492D01*
X118821740Y-84655491D01*
X118669472Y-84530528D01*
X118544509Y-84378260D01*
X118451652Y-84204537D01*
X118394469Y-84016030D01*
X118375162Y-83820000D01*
X118394469Y-83623970D01*
X118451652Y-83435463D01*
X118544509Y-83261740D01*
X118669472Y-83109472D01*
X118821740Y-82984509D01*
X118995463Y-82891652D01*
X118995465Y-82891651D01*
X119183966Y-82834470D01*
X119183967Y-82834470D01*
X119183970Y-82834469D01*
X119330876Y-82820000D01*
X119429124Y-82820000D01*
X119576030Y-82834469D01*
X119576030Y-82834469D01*
G37*
G36*
X96715000Y-83775000D02*
X92515000Y-83775000D01*
X92515000Y-81375000D01*
X96715000Y-81375000D01*
X96715000Y-83775000D01*
X96715000Y-83775000D01*
G37*
G36*
X105260000Y-83760000D02*
X103660000Y-83760000D01*
X103660000Y-82610000D01*
X105260000Y-82610000D01*
X105260000Y-83760000D01*
X105260000Y-83760000D01*
G37*
G36*
X107160000Y-83760000D02*
X105560000Y-83760000D01*
X105560000Y-82610000D01*
X107160000Y-82610000D01*
X107160000Y-83760000D01*
X107160000Y-83760000D01*
G37*
G36*
X119576030Y-80294469D02*
X119576033Y-80294470D01*
X119576034Y-80294470D01*
X119764535Y-80351651D01*
X119764537Y-80351652D01*
X119938260Y-80444509D01*
X120090528Y-80569472D01*
X120215491Y-80721740D01*
X120308348Y-80895463D01*
X120365531Y-81083970D01*
X120384838Y-81280000D01*
X120365531Y-81476030D01*
X120308348Y-81664537D01*
X120215491Y-81838260D01*
X120090528Y-81990528D01*
X119938260Y-82115491D01*
X119938258Y-82115492D01*
X119764535Y-82208349D01*
X119576034Y-82265530D01*
X119576033Y-82265530D01*
X119576030Y-82265531D01*
X119429124Y-82280000D01*
X119330876Y-82280000D01*
X119183970Y-82265531D01*
X119183967Y-82265530D01*
X119183966Y-82265530D01*
X118995465Y-82208349D01*
X118821742Y-82115492D01*
X118821740Y-82115491D01*
X118669472Y-81990528D01*
X118544509Y-81838260D01*
X118451652Y-81664537D01*
X118394469Y-81476030D01*
X118375162Y-81280000D01*
X118394469Y-81083970D01*
X118451652Y-80895463D01*
X118544509Y-80721740D01*
X118669472Y-80569472D01*
X118821740Y-80444509D01*
X118995463Y-80351652D01*
X118995465Y-80351651D01*
X119183966Y-80294470D01*
X119183967Y-80294470D01*
X119183970Y-80294469D01*
X119330876Y-80280000D01*
X119429124Y-80280000D01*
X119576030Y-80294469D01*
X119576030Y-80294469D01*
G37*
G36*
X111956030Y-80294469D02*
X111956033Y-80294470D01*
X111956034Y-80294470D01*
X112144535Y-80351651D01*
X112144537Y-80351652D01*
X112318260Y-80444509D01*
X112470528Y-80569472D01*
X112595491Y-80721740D01*
X112688348Y-80895463D01*
X112745531Y-81083970D01*
X112764838Y-81280000D01*
X112745531Y-81476030D01*
X112688348Y-81664537D01*
X112595491Y-81838260D01*
X112470528Y-81990528D01*
X112318260Y-82115491D01*
X112318258Y-82115492D01*
X112144535Y-82208349D01*
X111956034Y-82265530D01*
X111956033Y-82265530D01*
X111956030Y-82265531D01*
X111809124Y-82280000D01*
X111710876Y-82280000D01*
X111563970Y-82265531D01*
X111563967Y-82265530D01*
X111563966Y-82265530D01*
X111375465Y-82208349D01*
X111201742Y-82115492D01*
X111201740Y-82115491D01*
X111049472Y-81990528D01*
X110924509Y-81838260D01*
X110831652Y-81664537D01*
X110774469Y-81476030D01*
X110755162Y-81280000D01*
X110774469Y-81083970D01*
X110831652Y-80895463D01*
X110924509Y-80721740D01*
X111049472Y-80569472D01*
X111201740Y-80444509D01*
X111375463Y-80351652D01*
X111375465Y-80351651D01*
X111563966Y-80294470D01*
X111563967Y-80294470D01*
X111563970Y-80294469D01*
X111710876Y-80280000D01*
X111809124Y-80280000D01*
X111956030Y-80294469D01*
X111956030Y-80294469D01*
G37*
G36*
X105260000Y-81855000D02*
X103660000Y-81855000D01*
X103660000Y-80705000D01*
X105260000Y-80705000D01*
X105260000Y-81855000D01*
X105260000Y-81855000D01*
G37*
G36*
X107160000Y-81855000D02*
X105560000Y-81855000D01*
X105560000Y-80705000D01*
X107160000Y-80705000D01*
X107160000Y-81855000D01*
X107160000Y-81855000D01*
G37*
G36*
X143983000Y-80755000D02*
X142783000Y-80755000D01*
X142783000Y-78455000D01*
X143983000Y-78455000D01*
X143983000Y-80755000D01*
X143983000Y-80755000D01*
G37*
G36*
X178273000Y-80755000D02*
X177073000Y-80755000D01*
X177073000Y-78455000D01*
X178273000Y-78455000D01*
X178273000Y-80755000D01*
X178273000Y-80755000D01*
G37*
G36*
X126838000Y-80755000D02*
X125638000Y-80755000D01*
X125638000Y-78455000D01*
X126838000Y-78455000D01*
X126838000Y-80755000D01*
X126838000Y-80755000D01*
G37*
G36*
X161128000Y-80755000D02*
X159928000Y-80755000D01*
X159928000Y-78455000D01*
X161128000Y-78455000D01*
X161128000Y-80755000D01*
X161128000Y-80755000D01*
G37*
G36*
X106007000Y-79790000D02*
X103607000Y-79790000D01*
X103607000Y-77690000D01*
X106007000Y-77690000D01*
X106007000Y-79790000D01*
X106007000Y-79790000D01*
G37*
G36*
X110007000Y-79790000D02*
X107607000Y-79790000D01*
X107607000Y-77690000D01*
X110007000Y-77690000D01*
X110007000Y-79790000D01*
X110007000Y-79790000D01*
G37*
G36*
X183543550Y-79789630D02*
X181042970Y-79789630D01*
X181042970Y-77690370D01*
X183543550Y-77690370D01*
X183543550Y-79789630D01*
X183543550Y-79789630D01*
G37*
G36*
X169858030Y-79789630D02*
X167357450Y-79789630D01*
X167357450Y-77690370D01*
X169858030Y-77690370D01*
X169858030Y-79789630D01*
X169858030Y-79789630D01*
G37*
G36*
X152713030Y-79789630D02*
X150212450Y-79789630D01*
X150212450Y-77690370D01*
X152713030Y-77690370D01*
X152713030Y-79789630D01*
X152713030Y-79789630D01*
G37*
G36*
X149253550Y-79789630D02*
X146752970Y-79789630D01*
X146752970Y-77690370D01*
X149253550Y-77690370D01*
X149253550Y-79789630D01*
X149253550Y-79789630D01*
G37*
G36*
X135568030Y-79789630D02*
X133067450Y-79789630D01*
X133067450Y-77690370D01*
X135568030Y-77690370D01*
X135568030Y-79789630D01*
X135568030Y-79789630D01*
G37*
G36*
X132108550Y-79789630D02*
X129607970Y-79789630D01*
X129607970Y-77690370D01*
X132108550Y-77690370D01*
X132108550Y-79789630D01*
X132108550Y-79789630D01*
G37*
G36*
X187003030Y-79789630D02*
X184502450Y-79789630D01*
X184502450Y-77690370D01*
X187003030Y-77690370D01*
X187003030Y-79789630D01*
X187003030Y-79789630D01*
G37*
G36*
X166398550Y-79789630D02*
X163897970Y-79789630D01*
X163897970Y-77690370D01*
X166398550Y-77690370D01*
X166398550Y-79789630D01*
X166398550Y-79789630D01*
G37*
G36*
X119576030Y-77754469D02*
X119576033Y-77754470D01*
X119576034Y-77754470D01*
X119764535Y-77811651D01*
X119764537Y-77811652D01*
X119938260Y-77904509D01*
X120090528Y-78029472D01*
X120215491Y-78181740D01*
X120215492Y-78181742D01*
X120308349Y-78355465D01*
X120365530Y-78543966D01*
X120365531Y-78543970D01*
X120384838Y-78740000D01*
X120365531Y-78936030D01*
X120308348Y-79124537D01*
X120215491Y-79298260D01*
X120090528Y-79450528D01*
X119938260Y-79575491D01*
X119938258Y-79575492D01*
X119764535Y-79668349D01*
X119576034Y-79725530D01*
X119576033Y-79725530D01*
X119576030Y-79725531D01*
X119429124Y-79740000D01*
X119330876Y-79740000D01*
X119183970Y-79725531D01*
X119183967Y-79725530D01*
X119183966Y-79725530D01*
X118995465Y-79668349D01*
X118821742Y-79575492D01*
X118821740Y-79575491D01*
X118669472Y-79450528D01*
X118544509Y-79298260D01*
X118451652Y-79124537D01*
X118394469Y-78936030D01*
X118375162Y-78740000D01*
X118394469Y-78543970D01*
X118394470Y-78543966D01*
X118451651Y-78355465D01*
X118544508Y-78181742D01*
X118544509Y-78181740D01*
X118669472Y-78029472D01*
X118821740Y-77904509D01*
X118995463Y-77811652D01*
X118995465Y-77811651D01*
X119183966Y-77754470D01*
X119183967Y-77754470D01*
X119183970Y-77754469D01*
X119330876Y-77740000D01*
X119429124Y-77740000D01*
X119576030Y-77754469D01*
X119576030Y-77754469D01*
G37*
G36*
X111956030Y-77754469D02*
X111956033Y-77754470D01*
X111956034Y-77754470D01*
X112144535Y-77811651D01*
X112144537Y-77811652D01*
X112318260Y-77904509D01*
X112470528Y-78029472D01*
X112595491Y-78181740D01*
X112595492Y-78181742D01*
X112688349Y-78355465D01*
X112745530Y-78543966D01*
X112745531Y-78543970D01*
X112764838Y-78740000D01*
X112745531Y-78936030D01*
X112688348Y-79124537D01*
X112595491Y-79298260D01*
X112470528Y-79450528D01*
X112318260Y-79575491D01*
X112318258Y-79575492D01*
X112144535Y-79668349D01*
X111956034Y-79725530D01*
X111956033Y-79725530D01*
X111956030Y-79725531D01*
X111809124Y-79740000D01*
X111710876Y-79740000D01*
X111563970Y-79725531D01*
X111563967Y-79725530D01*
X111563966Y-79725530D01*
X111375465Y-79668349D01*
X111201742Y-79575492D01*
X111201740Y-79575491D01*
X111049472Y-79450528D01*
X110924509Y-79298260D01*
X110831652Y-79124537D01*
X110774469Y-78936030D01*
X110755162Y-78740000D01*
X110774469Y-78543970D01*
X110774470Y-78543966D01*
X110831651Y-78355465D01*
X110924508Y-78181742D01*
X110924509Y-78181740D01*
X111049472Y-78029472D01*
X111201740Y-77904509D01*
X111375463Y-77811652D01*
X111375465Y-77811651D01*
X111563966Y-77754470D01*
X111563967Y-77754470D01*
X111563970Y-77754469D01*
X111710876Y-77740000D01*
X111809124Y-77740000D01*
X111956030Y-77754469D01*
X111956030Y-77754469D01*
G37*
G36*
X88524393Y-74480053D02*
X88633872Y-74501830D01*
X88943252Y-74629979D01*
X89221687Y-74816023D01*
X89458477Y-75052813D01*
X89644521Y-75331248D01*
X89772670Y-75640628D01*
X89794447Y-75750107D01*
X89838000Y-75969063D01*
X89838000Y-76303937D01*
X89794447Y-76522893D01*
X89772670Y-76632372D01*
X89644521Y-76941752D01*
X89458477Y-77220187D01*
X89221687Y-77456977D01*
X88943252Y-77643021D01*
X88633872Y-77771170D01*
X88524393Y-77792947D01*
X88305437Y-77836500D01*
X87970563Y-77836500D01*
X87751607Y-77792947D01*
X87642128Y-77771170D01*
X87332748Y-77643021D01*
X87054313Y-77456977D01*
X86817523Y-77220187D01*
X86631479Y-76941752D01*
X86503330Y-76632372D01*
X86481553Y-76522893D01*
X86438000Y-76303937D01*
X86438000Y-75969063D01*
X86481553Y-75750107D01*
X86503330Y-75640628D01*
X86631479Y-75331248D01*
X86817523Y-75052813D01*
X87054313Y-74816023D01*
X87332748Y-74629979D01*
X87642128Y-74501830D01*
X87751607Y-74480053D01*
X87970563Y-74436500D01*
X88305437Y-74436500D01*
X88524393Y-74480053D01*
X88524393Y-74480053D01*
G37*
G36*
X194188393Y-74480053D02*
X194297872Y-74501830D01*
X194607252Y-74629979D01*
X194885687Y-74816023D01*
X195122477Y-75052813D01*
X195308521Y-75331248D01*
X195436670Y-75640628D01*
X195458447Y-75750107D01*
X195502000Y-75969063D01*
X195502000Y-76303937D01*
X195458447Y-76522893D01*
X195436670Y-76632372D01*
X195308521Y-76941752D01*
X195122477Y-77220187D01*
X194885687Y-77456977D01*
X194607252Y-77643021D01*
X194297872Y-77771170D01*
X194188393Y-77792947D01*
X193969437Y-77836500D01*
X193634563Y-77836500D01*
X193415607Y-77792947D01*
X193306128Y-77771170D01*
X192996748Y-77643021D01*
X192718313Y-77456977D01*
X192481523Y-77220187D01*
X192295479Y-76941752D01*
X192167330Y-76632372D01*
X192145553Y-76522893D01*
X192102000Y-76303937D01*
X192102000Y-75969063D01*
X192145553Y-75750107D01*
X192167330Y-75640628D01*
X192295479Y-75331248D01*
X192481523Y-75052813D01*
X192718313Y-74816023D01*
X192996748Y-74629979D01*
X193306128Y-74501830D01*
X193415607Y-74480053D01*
X193634563Y-74436500D01*
X193969437Y-74436500D01*
X194188393Y-74480053D01*
X194188393Y-74480053D01*
G37*
G36*
X143033000Y-77755000D02*
X141833000Y-77755000D01*
X141833000Y-75455000D01*
X143033000Y-75455000D01*
X143033000Y-77755000D01*
X143033000Y-77755000D01*
G37*
G36*
X127788000Y-77755000D02*
X126588000Y-77755000D01*
X126588000Y-75455000D01*
X127788000Y-75455000D01*
X127788000Y-77755000D01*
X127788000Y-77755000D01*
G37*
G36*
X177323000Y-77755000D02*
X176123000Y-77755000D01*
X176123000Y-75455000D01*
X177323000Y-75455000D01*
X177323000Y-77755000D01*
X177323000Y-77755000D01*
G37*
G36*
X179223000Y-77755000D02*
X178023000Y-77755000D01*
X178023000Y-75455000D01*
X179223000Y-75455000D01*
X179223000Y-77755000D01*
X179223000Y-77755000D01*
G37*
G36*
X160178000Y-77755000D02*
X158978000Y-77755000D01*
X158978000Y-75455000D01*
X160178000Y-75455000D01*
X160178000Y-77755000D01*
X160178000Y-77755000D01*
G37*
G36*
X144933000Y-77755000D02*
X143733000Y-77755000D01*
X143733000Y-75455000D01*
X144933000Y-75455000D01*
X144933000Y-77755000D01*
X144933000Y-77755000D01*
G37*
G36*
X125888000Y-77755000D02*
X124688000Y-77755000D01*
X124688000Y-75455000D01*
X125888000Y-75455000D01*
X125888000Y-77755000D01*
X125888000Y-77755000D01*
G37*
G36*
X162078000Y-77755000D02*
X160878000Y-77755000D01*
X160878000Y-75455000D01*
X162078000Y-75455000D01*
X162078000Y-77755000D01*
X162078000Y-77755000D01*
G37*
G36*
X94908000Y-77650000D02*
X90508000Y-77650000D01*
X90508000Y-74750000D01*
X94908000Y-74750000D01*
X94908000Y-77650000D01*
X94908000Y-77650000D01*
G37*
G36*
X101008000Y-77650000D02*
X96608000Y-77650000D01*
X96608000Y-74750000D01*
X101008000Y-74750000D01*
X101008000Y-77650000D01*
X101008000Y-77650000D01*
G37*
G36*
X111956030Y-75214469D02*
X111956033Y-75214470D01*
X111956034Y-75214470D01*
X112144535Y-75271651D01*
X112144537Y-75271652D01*
X112318260Y-75364509D01*
X112470528Y-75489472D01*
X112595491Y-75641740D01*
X112595492Y-75641742D01*
X112688349Y-75815465D01*
X112734942Y-75969063D01*
X112745531Y-76003970D01*
X112764838Y-76200000D01*
X112745531Y-76396030D01*
X112688348Y-76584537D01*
X112595491Y-76758260D01*
X112470528Y-76910528D01*
X112318260Y-77035491D01*
X112318258Y-77035492D01*
X112144535Y-77128349D01*
X111956034Y-77185530D01*
X111956033Y-77185530D01*
X111956030Y-77185531D01*
X111809124Y-77200000D01*
X111710876Y-77200000D01*
X111563970Y-77185531D01*
X111563967Y-77185530D01*
X111563966Y-77185530D01*
X111375465Y-77128349D01*
X111201742Y-77035492D01*
X111201740Y-77035491D01*
X111049472Y-76910528D01*
X110924509Y-76758260D01*
X110831652Y-76584537D01*
X110774469Y-76396030D01*
X110755162Y-76200000D01*
X110774469Y-76003970D01*
X110785058Y-75969063D01*
X110831651Y-75815465D01*
X110924508Y-75641742D01*
X110924509Y-75641740D01*
X111049472Y-75489472D01*
X111201740Y-75364509D01*
X111375463Y-75271652D01*
X111375465Y-75271651D01*
X111563966Y-75214470D01*
X111563967Y-75214470D01*
X111563970Y-75214469D01*
X111710876Y-75200000D01*
X111809124Y-75200000D01*
X111956030Y-75214469D01*
X111956030Y-75214469D01*
G37*
G36*
X119576030Y-75214469D02*
X119576033Y-75214470D01*
X119576034Y-75214470D01*
X119764535Y-75271651D01*
X119764537Y-75271652D01*
X119938260Y-75364509D01*
X120090528Y-75489472D01*
X120215491Y-75641740D01*
X120215492Y-75641742D01*
X120308349Y-75815465D01*
X120354942Y-75969063D01*
X120365531Y-76003970D01*
X120384838Y-76200000D01*
X120365531Y-76396030D01*
X120308348Y-76584537D01*
X120215491Y-76758260D01*
X120090528Y-76910528D01*
X119938260Y-77035491D01*
X119938258Y-77035492D01*
X119764535Y-77128349D01*
X119576034Y-77185530D01*
X119576033Y-77185530D01*
X119576030Y-77185531D01*
X119429124Y-77200000D01*
X119330876Y-77200000D01*
X119183970Y-77185531D01*
X119183967Y-77185530D01*
X119183966Y-77185530D01*
X118995465Y-77128349D01*
X118821742Y-77035492D01*
X118821740Y-77035491D01*
X118669472Y-76910528D01*
X118544509Y-76758260D01*
X118451652Y-76584537D01*
X118394469Y-76396030D01*
X118375162Y-76200000D01*
X118394469Y-76003970D01*
X118405058Y-75969063D01*
X118451651Y-75815465D01*
X118544508Y-75641742D01*
X118544509Y-75641740D01*
X118669472Y-75489472D01*
X118821740Y-75364509D01*
X118995463Y-75271652D01*
X118995465Y-75271651D01*
X119183966Y-75214470D01*
X119183967Y-75214470D01*
X119183970Y-75214469D01*
X119330876Y-75200000D01*
X119429124Y-75200000D01*
X119576030Y-75214469D01*
X119576030Y-75214469D01*
G37*
G36*
X110007000Y-75980000D02*
X107607000Y-75980000D01*
X107607000Y-73880000D01*
X110007000Y-73880000D01*
X110007000Y-75980000D01*
X110007000Y-75980000D01*
G37*
G36*
X106007000Y-75980000D02*
X103607000Y-75980000D01*
X103607000Y-73880000D01*
X106007000Y-73880000D01*
X106007000Y-75980000D01*
X106007000Y-75980000D01*
G37*
G36*
X134689030Y-73944469D02*
X134689033Y-73944470D01*
X134689034Y-73944470D01*
X134877535Y-74001651D01*
X134877537Y-74001652D01*
X135051260Y-74094509D01*
X135203528Y-74219472D01*
X135328491Y-74371740D01*
X135328492Y-74371742D01*
X135421349Y-74545465D01*
X135478530Y-74733966D01*
X135478531Y-74733970D01*
X135497838Y-74930000D01*
X135478531Y-75126030D01*
X135478530Y-75126033D01*
X135478530Y-75126034D01*
X135434358Y-75271651D01*
X135421348Y-75314537D01*
X135328491Y-75488260D01*
X135203528Y-75640528D01*
X135051260Y-75765491D01*
X135051258Y-75765492D01*
X134877535Y-75858349D01*
X134689034Y-75915530D01*
X134689033Y-75915530D01*
X134689030Y-75915531D01*
X134542124Y-75930000D01*
X134443876Y-75930000D01*
X134296970Y-75915531D01*
X134296967Y-75915530D01*
X134296966Y-75915530D01*
X134108465Y-75858349D01*
X133934742Y-75765492D01*
X133934740Y-75765491D01*
X133782472Y-75640528D01*
X133657509Y-75488260D01*
X133564652Y-75314537D01*
X133551643Y-75271651D01*
X133507470Y-75126034D01*
X133507470Y-75126033D01*
X133507469Y-75126030D01*
X133488162Y-74930000D01*
X133507469Y-74733970D01*
X133507470Y-74733966D01*
X133564651Y-74545465D01*
X133657508Y-74371742D01*
X133657509Y-74371740D01*
X133782472Y-74219472D01*
X133934740Y-74094509D01*
X134108463Y-74001652D01*
X134108465Y-74001651D01*
X134296966Y-73944470D01*
X134296967Y-73944470D01*
X134296970Y-73944469D01*
X134443876Y-73930000D01*
X134542124Y-73930000D01*
X134689030Y-73944469D01*
X134689030Y-73944469D01*
G37*
G36*
X132149030Y-73944469D02*
X132149033Y-73944470D01*
X132149034Y-73944470D01*
X132337535Y-74001651D01*
X132337537Y-74001652D01*
X132511260Y-74094509D01*
X132663528Y-74219472D01*
X132788491Y-74371740D01*
X132788492Y-74371742D01*
X132881349Y-74545465D01*
X132938530Y-74733966D01*
X132938531Y-74733970D01*
X132957838Y-74930000D01*
X132938531Y-75126030D01*
X132938530Y-75126033D01*
X132938530Y-75126034D01*
X132894358Y-75271651D01*
X132881348Y-75314537D01*
X132788491Y-75488260D01*
X132663528Y-75640528D01*
X132511260Y-75765491D01*
X132511258Y-75765492D01*
X132337535Y-75858349D01*
X132149034Y-75915530D01*
X132149033Y-75915530D01*
X132149030Y-75915531D01*
X132002124Y-75930000D01*
X131903876Y-75930000D01*
X131756970Y-75915531D01*
X131756967Y-75915530D01*
X131756966Y-75915530D01*
X131568465Y-75858349D01*
X131394742Y-75765492D01*
X131394740Y-75765491D01*
X131242472Y-75640528D01*
X131117509Y-75488260D01*
X131024652Y-75314537D01*
X131011643Y-75271651D01*
X130967470Y-75126034D01*
X130967470Y-75126033D01*
X130967469Y-75126030D01*
X130948162Y-74930000D01*
X130967469Y-74733970D01*
X130967470Y-74733966D01*
X131024651Y-74545465D01*
X131117508Y-74371742D01*
X131117509Y-74371740D01*
X131242472Y-74219472D01*
X131394740Y-74094509D01*
X131568463Y-74001652D01*
X131568465Y-74001651D01*
X131756966Y-73944470D01*
X131756967Y-73944470D01*
X131756970Y-73944469D01*
X131903876Y-73930000D01*
X132002124Y-73930000D01*
X132149030Y-73944469D01*
X132149030Y-73944469D01*
G37*
G36*
X149929030Y-73944469D02*
X149929033Y-73944470D01*
X149929034Y-73944470D01*
X150117535Y-74001651D01*
X150117537Y-74001652D01*
X150291260Y-74094509D01*
X150443528Y-74219472D01*
X150568491Y-74371740D01*
X150568492Y-74371742D01*
X150661349Y-74545465D01*
X150718530Y-74733966D01*
X150718531Y-74733970D01*
X150737838Y-74930000D01*
X150718531Y-75126030D01*
X150718530Y-75126033D01*
X150718530Y-75126034D01*
X150674358Y-75271651D01*
X150661348Y-75314537D01*
X150568491Y-75488260D01*
X150443528Y-75640528D01*
X150291260Y-75765491D01*
X150291258Y-75765492D01*
X150117535Y-75858349D01*
X149929034Y-75915530D01*
X149929033Y-75915530D01*
X149929030Y-75915531D01*
X149782124Y-75930000D01*
X149683876Y-75930000D01*
X149536970Y-75915531D01*
X149536967Y-75915530D01*
X149536966Y-75915530D01*
X149348465Y-75858349D01*
X149174742Y-75765492D01*
X149174740Y-75765491D01*
X149022472Y-75640528D01*
X148897509Y-75488260D01*
X148804652Y-75314537D01*
X148791643Y-75271651D01*
X148747470Y-75126034D01*
X148747470Y-75126033D01*
X148747469Y-75126030D01*
X148728162Y-74930000D01*
X148747469Y-74733970D01*
X148747470Y-74733966D01*
X148804651Y-74545465D01*
X148897508Y-74371742D01*
X148897509Y-74371740D01*
X149022472Y-74219472D01*
X149174740Y-74094509D01*
X149348463Y-74001652D01*
X149348465Y-74001651D01*
X149536966Y-73944470D01*
X149536967Y-73944470D01*
X149536970Y-73944469D01*
X149683876Y-73930000D01*
X149782124Y-73930000D01*
X149929030Y-73944469D01*
X149929030Y-73944469D01*
G37*
G36*
X152469030Y-73944469D02*
X152469033Y-73944470D01*
X152469034Y-73944470D01*
X152657535Y-74001651D01*
X152657537Y-74001652D01*
X152831260Y-74094509D01*
X152983528Y-74219472D01*
X153108491Y-74371740D01*
X153108492Y-74371742D01*
X153201349Y-74545465D01*
X153258530Y-74733966D01*
X153258531Y-74733970D01*
X153277838Y-74930000D01*
X153258531Y-75126030D01*
X153258530Y-75126033D01*
X153258530Y-75126034D01*
X153214358Y-75271651D01*
X153201348Y-75314537D01*
X153108491Y-75488260D01*
X152983528Y-75640528D01*
X152831260Y-75765491D01*
X152831258Y-75765492D01*
X152657535Y-75858349D01*
X152469034Y-75915530D01*
X152469033Y-75915530D01*
X152469030Y-75915531D01*
X152322124Y-75930000D01*
X152223876Y-75930000D01*
X152076970Y-75915531D01*
X152076967Y-75915530D01*
X152076966Y-75915530D01*
X151888465Y-75858349D01*
X151714742Y-75765492D01*
X151714740Y-75765491D01*
X151562472Y-75640528D01*
X151437509Y-75488260D01*
X151344652Y-75314537D01*
X151331643Y-75271651D01*
X151287470Y-75126034D01*
X151287470Y-75126033D01*
X151287469Y-75126030D01*
X151268162Y-74930000D01*
X151287469Y-74733970D01*
X151287470Y-74733966D01*
X151344651Y-74545465D01*
X151437508Y-74371742D01*
X151437509Y-74371740D01*
X151562472Y-74219472D01*
X151714740Y-74094509D01*
X151888463Y-74001652D01*
X151888465Y-74001651D01*
X152076966Y-73944470D01*
X152076967Y-73944470D01*
X152076970Y-73944469D01*
X152223876Y-73930000D01*
X152322124Y-73930000D01*
X152469030Y-73944469D01*
X152469030Y-73944469D01*
G37*
G36*
X184854030Y-73944469D02*
X184854033Y-73944470D01*
X184854034Y-73944470D01*
X185042535Y-74001651D01*
X185042537Y-74001652D01*
X185216260Y-74094509D01*
X185368528Y-74219472D01*
X185493491Y-74371740D01*
X185493492Y-74371742D01*
X185586349Y-74545465D01*
X185643530Y-74733966D01*
X185643531Y-74733970D01*
X185662838Y-74930000D01*
X185643531Y-75126030D01*
X185643530Y-75126033D01*
X185643530Y-75126034D01*
X185599358Y-75271651D01*
X185586348Y-75314537D01*
X185493491Y-75488260D01*
X185368528Y-75640528D01*
X185216260Y-75765491D01*
X185216258Y-75765492D01*
X185042535Y-75858349D01*
X184854034Y-75915530D01*
X184854033Y-75915530D01*
X184854030Y-75915531D01*
X184707124Y-75930000D01*
X184608876Y-75930000D01*
X184461970Y-75915531D01*
X184461967Y-75915530D01*
X184461966Y-75915530D01*
X184273465Y-75858349D01*
X184099742Y-75765492D01*
X184099740Y-75765491D01*
X183947472Y-75640528D01*
X183822509Y-75488260D01*
X183729652Y-75314537D01*
X183716643Y-75271651D01*
X183672470Y-75126034D01*
X183672470Y-75126033D01*
X183672469Y-75126030D01*
X183653162Y-74930000D01*
X183672469Y-74733970D01*
X183672470Y-74733966D01*
X183729651Y-74545465D01*
X183822508Y-74371742D01*
X183822509Y-74371740D01*
X183947472Y-74219472D01*
X184099740Y-74094509D01*
X184273463Y-74001652D01*
X184273465Y-74001651D01*
X184461966Y-73944470D01*
X184461967Y-73944470D01*
X184461970Y-73944469D01*
X184608876Y-73930000D01*
X184707124Y-73930000D01*
X184854030Y-73944469D01*
X184854030Y-73944469D01*
G37*
G36*
X187394030Y-73944469D02*
X187394033Y-73944470D01*
X187394034Y-73944470D01*
X187582535Y-74001651D01*
X187582537Y-74001652D01*
X187756260Y-74094509D01*
X187908528Y-74219472D01*
X188033491Y-74371740D01*
X188033492Y-74371742D01*
X188126349Y-74545465D01*
X188183530Y-74733966D01*
X188183531Y-74733970D01*
X188202838Y-74930000D01*
X188183531Y-75126030D01*
X188183530Y-75126033D01*
X188183530Y-75126034D01*
X188139358Y-75271651D01*
X188126348Y-75314537D01*
X188033491Y-75488260D01*
X187908528Y-75640528D01*
X187756260Y-75765491D01*
X187756258Y-75765492D01*
X187582535Y-75858349D01*
X187394034Y-75915530D01*
X187394033Y-75915530D01*
X187394030Y-75915531D01*
X187247124Y-75930000D01*
X187148876Y-75930000D01*
X187001970Y-75915531D01*
X187001967Y-75915530D01*
X187001966Y-75915530D01*
X186813465Y-75858349D01*
X186639742Y-75765492D01*
X186639740Y-75765491D01*
X186487472Y-75640528D01*
X186362509Y-75488260D01*
X186269652Y-75314537D01*
X186256643Y-75271651D01*
X186212470Y-75126034D01*
X186212470Y-75126033D01*
X186212469Y-75126030D01*
X186193162Y-74930000D01*
X186212469Y-74733970D01*
X186212470Y-74733966D01*
X186269651Y-74545465D01*
X186362508Y-74371742D01*
X186362509Y-74371740D01*
X186487472Y-74219472D01*
X186639740Y-74094509D01*
X186813463Y-74001652D01*
X186813465Y-74001651D01*
X187001966Y-73944470D01*
X187001967Y-73944470D01*
X187001970Y-73944469D01*
X187148876Y-73930000D01*
X187247124Y-73930000D01*
X187394030Y-73944469D01*
X187394030Y-73944469D01*
G37*
G36*
X167709030Y-73944469D02*
X167709033Y-73944470D01*
X167709034Y-73944470D01*
X167897535Y-74001651D01*
X167897537Y-74001652D01*
X168071260Y-74094509D01*
X168223528Y-74219472D01*
X168348491Y-74371740D01*
X168348492Y-74371742D01*
X168441349Y-74545465D01*
X168498530Y-74733966D01*
X168498531Y-74733970D01*
X168517838Y-74930000D01*
X168498531Y-75126030D01*
X168498530Y-75126033D01*
X168498530Y-75126034D01*
X168454358Y-75271651D01*
X168441348Y-75314537D01*
X168348491Y-75488260D01*
X168223528Y-75640528D01*
X168071260Y-75765491D01*
X168071258Y-75765492D01*
X167897535Y-75858349D01*
X167709034Y-75915530D01*
X167709033Y-75915530D01*
X167709030Y-75915531D01*
X167562124Y-75930000D01*
X167463876Y-75930000D01*
X167316970Y-75915531D01*
X167316967Y-75915530D01*
X167316966Y-75915530D01*
X167128465Y-75858349D01*
X166954742Y-75765492D01*
X166954740Y-75765491D01*
X166802472Y-75640528D01*
X166677509Y-75488260D01*
X166584652Y-75314537D01*
X166571643Y-75271651D01*
X166527470Y-75126034D01*
X166527470Y-75126033D01*
X166527469Y-75126030D01*
X166508162Y-74930000D01*
X166527469Y-74733970D01*
X166527470Y-74733966D01*
X166584651Y-74545465D01*
X166677508Y-74371742D01*
X166677509Y-74371740D01*
X166802472Y-74219472D01*
X166954740Y-74094509D01*
X167128463Y-74001652D01*
X167128465Y-74001651D01*
X167316966Y-73944470D01*
X167316967Y-73944470D01*
X167316970Y-73944469D01*
X167463876Y-73930000D01*
X167562124Y-73930000D01*
X167709030Y-73944469D01*
X167709030Y-73944469D01*
G37*
G36*
X170249030Y-73944469D02*
X170249033Y-73944470D01*
X170249034Y-73944470D01*
X170437535Y-74001651D01*
X170437537Y-74001652D01*
X170611260Y-74094509D01*
X170763528Y-74219472D01*
X170888491Y-74371740D01*
X170888492Y-74371742D01*
X170981349Y-74545465D01*
X171038530Y-74733966D01*
X171038531Y-74733970D01*
X171057838Y-74930000D01*
X171038531Y-75126030D01*
X171038530Y-75126033D01*
X171038530Y-75126034D01*
X170994358Y-75271651D01*
X170981348Y-75314537D01*
X170888491Y-75488260D01*
X170763528Y-75640528D01*
X170611260Y-75765491D01*
X170611258Y-75765492D01*
X170437535Y-75858349D01*
X170249034Y-75915530D01*
X170249033Y-75915530D01*
X170249030Y-75915531D01*
X170102124Y-75930000D01*
X170003876Y-75930000D01*
X169856970Y-75915531D01*
X169856967Y-75915530D01*
X169856966Y-75915530D01*
X169668465Y-75858349D01*
X169494742Y-75765492D01*
X169494740Y-75765491D01*
X169342472Y-75640528D01*
X169217509Y-75488260D01*
X169124652Y-75314537D01*
X169111643Y-75271651D01*
X169067470Y-75126034D01*
X169067470Y-75126033D01*
X169067469Y-75126030D01*
X169048162Y-74930000D01*
X169067469Y-74733970D01*
X169067470Y-74733966D01*
X169124651Y-74545465D01*
X169217508Y-74371742D01*
X169217509Y-74371740D01*
X169342472Y-74219472D01*
X169494740Y-74094509D01*
X169668463Y-74001652D01*
X169668465Y-74001651D01*
X169856966Y-73944470D01*
X169856967Y-73944470D01*
X169856970Y-73944469D01*
X170003876Y-73930000D01*
X170102124Y-73930000D01*
X170249030Y-73944469D01*
X170249030Y-73944469D01*
G37*
G36*
X124748000Y-75050000D02*
X122648000Y-75050000D01*
X122648000Y-72650000D01*
X124748000Y-72650000D01*
X124748000Y-75050000D01*
X124748000Y-75050000D01*
G37*
G36*
X142528000Y-74955000D02*
X140428000Y-74955000D01*
X140428000Y-72555000D01*
X142528000Y-72555000D01*
X142528000Y-74955000D01*
X142528000Y-74955000D01*
G37*
G36*
X128558000Y-74955000D02*
X126458000Y-74955000D01*
X126458000Y-72555000D01*
X128558000Y-72555000D01*
X128558000Y-74955000D01*
X128558000Y-74955000D01*
G37*
G36*
X146338000Y-74860000D02*
X144238000Y-74860000D01*
X144238000Y-72460000D01*
X146338000Y-72460000D01*
X146338000Y-74860000D01*
X146338000Y-74860000D01*
G37*
G36*
X111956030Y-72674469D02*
X111956033Y-72674470D01*
X111956034Y-72674470D01*
X112144535Y-72731651D01*
X112144537Y-72731652D01*
X112318260Y-72824509D01*
X112470528Y-72949472D01*
X112595491Y-73101740D01*
X112688348Y-73275463D01*
X112745531Y-73463970D01*
X112764838Y-73660000D01*
X112745531Y-73856030D01*
X112745530Y-73856033D01*
X112745530Y-73856034D01*
X112701358Y-74001651D01*
X112688348Y-74044537D01*
X112595491Y-74218260D01*
X112470528Y-74370528D01*
X112318260Y-74495491D01*
X112224769Y-74545463D01*
X112144535Y-74588349D01*
X111956034Y-74645530D01*
X111956033Y-74645530D01*
X111956030Y-74645531D01*
X111809124Y-74660000D01*
X111710876Y-74660000D01*
X111563970Y-74645531D01*
X111563967Y-74645530D01*
X111563966Y-74645530D01*
X111375465Y-74588349D01*
X111295231Y-74545463D01*
X111201740Y-74495491D01*
X111049472Y-74370528D01*
X110924509Y-74218260D01*
X110831652Y-74044537D01*
X110818643Y-74001651D01*
X110774470Y-73856034D01*
X110774470Y-73856033D01*
X110774469Y-73856030D01*
X110755162Y-73660000D01*
X110774469Y-73463970D01*
X110831652Y-73275463D01*
X110924509Y-73101740D01*
X111049472Y-72949472D01*
X111201740Y-72824509D01*
X111375463Y-72731652D01*
X111375465Y-72731651D01*
X111563966Y-72674470D01*
X111563967Y-72674470D01*
X111563970Y-72674469D01*
X111710876Y-72660000D01*
X111809124Y-72660000D01*
X111956030Y-72674469D01*
X111956030Y-72674469D01*
G37*
G36*
X119576030Y-72674469D02*
X119576033Y-72674470D01*
X119576034Y-72674470D01*
X119764535Y-72731651D01*
X119764537Y-72731652D01*
X119938260Y-72824509D01*
X120090528Y-72949472D01*
X120215491Y-73101740D01*
X120308348Y-73275463D01*
X120365531Y-73463970D01*
X120384838Y-73660000D01*
X120365531Y-73856030D01*
X120365530Y-73856033D01*
X120365530Y-73856034D01*
X120321358Y-74001651D01*
X120308348Y-74044537D01*
X120215491Y-74218260D01*
X120090528Y-74370528D01*
X119938260Y-74495491D01*
X119844769Y-74545463D01*
X119764535Y-74588349D01*
X119576034Y-74645530D01*
X119576033Y-74645530D01*
X119576030Y-74645531D01*
X119429124Y-74660000D01*
X119330876Y-74660000D01*
X119183970Y-74645531D01*
X119183967Y-74645530D01*
X119183966Y-74645530D01*
X118995465Y-74588349D01*
X118915231Y-74545463D01*
X118821740Y-74495491D01*
X118669472Y-74370528D01*
X118544509Y-74218260D01*
X118451652Y-74044537D01*
X118438643Y-74001651D01*
X118394470Y-73856034D01*
X118394470Y-73856033D01*
X118394469Y-73856030D01*
X118375162Y-73660000D01*
X118394469Y-73463970D01*
X118451652Y-73275463D01*
X118544509Y-73101740D01*
X118669472Y-72949472D01*
X118821740Y-72824509D01*
X118995463Y-72731652D01*
X118995465Y-72731651D01*
X119183966Y-72674470D01*
X119183967Y-72674470D01*
X119183970Y-72674469D01*
X119330876Y-72660000D01*
X119429124Y-72660000D01*
X119576030Y-72674469D01*
X119576030Y-72674469D01*
G37*
G36*
X164118000Y-74320000D02*
X162018000Y-74320000D01*
X162018000Y-71920000D01*
X164118000Y-71920000D01*
X164118000Y-74320000D01*
X164118000Y-74320000D01*
G37*
G36*
X160308000Y-74320000D02*
X158208000Y-74320000D01*
X158208000Y-71920000D01*
X160308000Y-71920000D01*
X160308000Y-74320000D01*
X160308000Y-74320000D01*
G37*
G36*
X181263000Y-73685000D02*
X179163000Y-73685000D01*
X179163000Y-71285000D01*
X181263000Y-71285000D01*
X181263000Y-73685000D01*
X181263000Y-73685000D01*
G37*
G36*
X177453000Y-73685000D02*
X175353000Y-73685000D01*
X175353000Y-71285000D01*
X177453000Y-71285000D01*
X177453000Y-73685000D01*
X177453000Y-73685000D01*
G37*
G36*
X119576030Y-70134469D02*
X119576033Y-70134470D01*
X119576034Y-70134470D01*
X119764535Y-70191651D01*
X119764537Y-70191652D01*
X119938260Y-70284509D01*
X120090528Y-70409472D01*
X120215491Y-70561740D01*
X120215492Y-70561742D01*
X120308349Y-70735465D01*
X120365530Y-70923966D01*
X120365531Y-70923970D01*
X120384838Y-71120000D01*
X120365531Y-71316030D01*
X120308348Y-71504537D01*
X120215491Y-71678260D01*
X120090528Y-71830528D01*
X119938260Y-71955491D01*
X119938258Y-71955492D01*
X119764535Y-72048349D01*
X119576034Y-72105530D01*
X119576033Y-72105530D01*
X119576030Y-72105531D01*
X119429124Y-72120000D01*
X119330876Y-72120000D01*
X119183970Y-72105531D01*
X119183967Y-72105530D01*
X119183966Y-72105530D01*
X118995465Y-72048349D01*
X118821742Y-71955492D01*
X118821740Y-71955491D01*
X118669472Y-71830528D01*
X118544509Y-71678260D01*
X118451652Y-71504537D01*
X118394469Y-71316030D01*
X118375162Y-71120000D01*
X118394469Y-70923970D01*
X118394470Y-70923966D01*
X118451651Y-70735465D01*
X118544508Y-70561742D01*
X118544509Y-70561740D01*
X118669472Y-70409472D01*
X118821740Y-70284509D01*
X118995463Y-70191652D01*
X118995465Y-70191651D01*
X119183966Y-70134470D01*
X119183967Y-70134470D01*
X119183970Y-70134469D01*
X119330876Y-70120000D01*
X119429124Y-70120000D01*
X119576030Y-70134469D01*
X119576030Y-70134469D01*
G37*
G36*
X111956030Y-70134469D02*
X111956033Y-70134470D01*
X111956034Y-70134470D01*
X112144535Y-70191651D01*
X112144537Y-70191652D01*
X112318260Y-70284509D01*
X112470528Y-70409472D01*
X112595491Y-70561740D01*
X112595492Y-70561742D01*
X112688349Y-70735465D01*
X112745530Y-70923966D01*
X112745531Y-70923970D01*
X112764838Y-71120000D01*
X112745531Y-71316030D01*
X112688348Y-71504537D01*
X112595491Y-71678260D01*
X112470528Y-71830528D01*
X112318260Y-71955491D01*
X112318258Y-71955492D01*
X112144535Y-72048349D01*
X111956034Y-72105530D01*
X111956033Y-72105530D01*
X111956030Y-72105531D01*
X111809124Y-72120000D01*
X111710876Y-72120000D01*
X111563970Y-72105531D01*
X111563967Y-72105530D01*
X111563966Y-72105530D01*
X111375465Y-72048349D01*
X111201742Y-71955492D01*
X111201740Y-71955491D01*
X111049472Y-71830528D01*
X110924509Y-71678260D01*
X110831652Y-71504537D01*
X110774469Y-71316030D01*
X110755162Y-71120000D01*
X110774469Y-70923970D01*
X110774470Y-70923966D01*
X110831651Y-70735465D01*
X110924508Y-70561742D01*
X110924509Y-70561740D01*
X111049472Y-70409472D01*
X111201740Y-70284509D01*
X111375463Y-70191652D01*
X111375465Y-70191651D01*
X111563966Y-70134470D01*
X111563967Y-70134470D01*
X111563970Y-70134469D01*
X111710876Y-70120000D01*
X111809124Y-70120000D01*
X111956030Y-70134469D01*
X111956030Y-70134469D01*
G37*
G36*
X108557000Y-72012500D02*
X106957000Y-72012500D01*
X106957000Y-70862500D01*
X108557000Y-70862500D01*
X108557000Y-72012500D01*
X108557000Y-72012500D01*
G37*
G36*
X106657000Y-72012500D02*
X105057000Y-72012500D01*
X105057000Y-70862500D01*
X106657000Y-70862500D01*
X106657000Y-72012500D01*
X106657000Y-72012500D01*
G37*
G36*
X124748000Y-71050000D02*
X122648000Y-71050000D01*
X122648000Y-68650000D01*
X124748000Y-68650000D01*
X124748000Y-71050000D01*
X124748000Y-71050000D01*
G37*
G36*
X142528000Y-70955000D02*
X140428000Y-70955000D01*
X140428000Y-68555000D01*
X142528000Y-68555000D01*
X142528000Y-70955000D01*
X142528000Y-70955000D01*
G37*
G36*
X128558000Y-70955000D02*
X126458000Y-70955000D01*
X126458000Y-68555000D01*
X128558000Y-68555000D01*
X128558000Y-70955000D01*
X128558000Y-70955000D01*
G37*
G36*
X146338000Y-70860000D02*
X144238000Y-70860000D01*
X144238000Y-68460000D01*
X146338000Y-68460000D01*
X146338000Y-70860000D01*
X146338000Y-70860000D01*
G37*
G36*
X164118000Y-70320000D02*
X162018000Y-70320000D01*
X162018000Y-67920000D01*
X164118000Y-67920000D01*
X164118000Y-70320000D01*
X164118000Y-70320000D01*
G37*
G36*
X160308000Y-70320000D02*
X158208000Y-70320000D01*
X158208000Y-67920000D01*
X160308000Y-67920000D01*
X160308000Y-70320000D01*
X160308000Y-70320000D01*
G37*
G36*
X93571000Y-70221800D02*
X91971000Y-70221800D01*
X91971000Y-69071800D01*
X93571000Y-69071800D01*
X93571000Y-70221800D01*
X93571000Y-70221800D01*
G37*
G36*
X91671000Y-70221800D02*
X90071000Y-70221800D01*
X90071000Y-69071800D01*
X91671000Y-69071800D01*
X91671000Y-70221800D01*
X91671000Y-70221800D01*
G37*
G36*
X181263000Y-69685000D02*
X179163000Y-69685000D01*
X179163000Y-67285000D01*
X181263000Y-67285000D01*
X181263000Y-69685000D01*
X181263000Y-69685000D01*
G37*
G36*
X177453000Y-69685000D02*
X175353000Y-69685000D01*
X175353000Y-67285000D01*
X177453000Y-67285000D01*
X177453000Y-69685000D01*
X177453000Y-69685000D01*
G37*
G36*
X112760000Y-69580000D02*
X110760000Y-69580000D01*
X110760000Y-67580000D01*
X112760000Y-67580000D01*
X112760000Y-69580000D01*
X112760000Y-69580000D01*
G37*
G36*
X119576030Y-67594469D02*
X119576033Y-67594470D01*
X119576034Y-67594470D01*
X119764535Y-67651651D01*
X119764537Y-67651652D01*
X119938260Y-67744509D01*
X120090528Y-67869472D01*
X120215491Y-68021740D01*
X120215492Y-68021742D01*
X120308349Y-68195465D01*
X120365530Y-68383966D01*
X120365531Y-68383970D01*
X120384838Y-68580000D01*
X120365531Y-68776030D01*
X120308348Y-68964537D01*
X120215491Y-69138260D01*
X120090528Y-69290528D01*
X119938260Y-69415491D01*
X119938258Y-69415492D01*
X119764535Y-69508349D01*
X119576034Y-69565530D01*
X119576033Y-69565530D01*
X119576030Y-69565531D01*
X119429124Y-69580000D01*
X119330876Y-69580000D01*
X119183970Y-69565531D01*
X119183967Y-69565530D01*
X119183966Y-69565530D01*
X118995465Y-69508349D01*
X118821742Y-69415492D01*
X118821740Y-69415491D01*
X118669472Y-69290528D01*
X118544509Y-69138260D01*
X118451652Y-68964537D01*
X118394469Y-68776030D01*
X118375162Y-68580000D01*
X118394469Y-68383970D01*
X118394470Y-68383966D01*
X118451651Y-68195465D01*
X118544508Y-68021742D01*
X118544509Y-68021740D01*
X118669472Y-67869472D01*
X118821740Y-67744509D01*
X118995463Y-67651652D01*
X118995465Y-67651651D01*
X119183966Y-67594470D01*
X119183967Y-67594470D01*
X119183970Y-67594469D01*
X119330876Y-67580000D01*
X119429124Y-67580000D01*
X119576030Y-67594469D01*
X119576030Y-67594469D01*
G37*
G36*
X99992000Y-68886000D02*
X98042000Y-68886000D01*
X98042000Y-67186000D01*
X99992000Y-67186000D01*
X99992000Y-68886000D01*
X99992000Y-68886000D01*
G37*
G36*
X107952000Y-68886000D02*
X106002000Y-68886000D01*
X106002000Y-67186000D01*
X107952000Y-67186000D01*
X107952000Y-68886000D01*
X107952000Y-68886000D01*
G37*
G36*
X153273000Y-68310000D02*
X151273000Y-68310000D01*
X151273000Y-66310000D01*
X153273000Y-66310000D01*
X153273000Y-68310000D01*
X153273000Y-68310000D01*
G37*
G36*
X135493000Y-68310000D02*
X133493000Y-68310000D01*
X133493000Y-66310000D01*
X135493000Y-66310000D01*
X135493000Y-68310000D01*
X135493000Y-68310000D01*
G37*
G36*
X149929030Y-66324469D02*
X149929033Y-66324470D01*
X149929034Y-66324470D01*
X150117535Y-66381651D01*
X150117537Y-66381652D01*
X150291260Y-66474509D01*
X150443528Y-66599472D01*
X150568491Y-66751740D01*
X150661348Y-66925463D01*
X150718531Y-67113970D01*
X150737838Y-67310000D01*
X150718531Y-67506030D01*
X150718530Y-67506033D01*
X150718530Y-67506034D01*
X150674358Y-67651651D01*
X150661348Y-67694537D01*
X150568491Y-67868260D01*
X150443528Y-68020528D01*
X150291260Y-68145491D01*
X150291258Y-68145492D01*
X150117535Y-68238349D01*
X149929034Y-68295530D01*
X149929033Y-68295530D01*
X149929030Y-68295531D01*
X149782124Y-68310000D01*
X149683876Y-68310000D01*
X149536970Y-68295531D01*
X149536967Y-68295530D01*
X149536966Y-68295530D01*
X149348465Y-68238349D01*
X149174742Y-68145492D01*
X149174740Y-68145491D01*
X149022472Y-68020528D01*
X148897509Y-67868260D01*
X148804652Y-67694537D01*
X148791643Y-67651651D01*
X148747470Y-67506034D01*
X148747470Y-67506033D01*
X148747469Y-67506030D01*
X148728162Y-67310000D01*
X148747469Y-67113970D01*
X148804652Y-66925463D01*
X148897509Y-66751740D01*
X149022472Y-66599472D01*
X149174740Y-66474509D01*
X149348463Y-66381652D01*
X149348465Y-66381651D01*
X149536966Y-66324470D01*
X149536967Y-66324470D01*
X149536970Y-66324469D01*
X149683876Y-66310000D01*
X149782124Y-66310000D01*
X149929030Y-66324469D01*
X149929030Y-66324469D01*
G37*
G36*
X132149030Y-66324469D02*
X132149033Y-66324470D01*
X132149034Y-66324470D01*
X132337535Y-66381651D01*
X132337537Y-66381652D01*
X132511260Y-66474509D01*
X132663528Y-66599472D01*
X132788491Y-66751740D01*
X132881348Y-66925463D01*
X132938531Y-67113970D01*
X132957838Y-67310000D01*
X132938531Y-67506030D01*
X132938530Y-67506033D01*
X132938530Y-67506034D01*
X132894358Y-67651651D01*
X132881348Y-67694537D01*
X132788491Y-67868260D01*
X132663528Y-68020528D01*
X132511260Y-68145491D01*
X132511258Y-68145492D01*
X132337535Y-68238349D01*
X132149034Y-68295530D01*
X132149033Y-68295530D01*
X132149030Y-68295531D01*
X132002124Y-68310000D01*
X131903876Y-68310000D01*
X131756970Y-68295531D01*
X131756967Y-68295530D01*
X131756966Y-68295530D01*
X131568465Y-68238349D01*
X131394742Y-68145492D01*
X131394740Y-68145491D01*
X131242472Y-68020528D01*
X131117509Y-67868260D01*
X131024652Y-67694537D01*
X131011643Y-67651651D01*
X130967470Y-67506034D01*
X130967470Y-67506033D01*
X130967469Y-67506030D01*
X130948162Y-67310000D01*
X130967469Y-67113970D01*
X131024652Y-66925463D01*
X131117509Y-66751740D01*
X131242472Y-66599472D01*
X131394740Y-66474509D01*
X131568463Y-66381652D01*
X131568465Y-66381651D01*
X131756966Y-66324470D01*
X131756967Y-66324470D01*
X131756970Y-66324469D01*
X131903876Y-66310000D01*
X132002124Y-66310000D01*
X132149030Y-66324469D01*
X132149030Y-66324469D01*
G37*
G36*
X167709030Y-66324469D02*
X167709033Y-66324470D01*
X167709034Y-66324470D01*
X167897535Y-66381651D01*
X167897537Y-66381652D01*
X168071260Y-66474509D01*
X168223528Y-66599472D01*
X168348491Y-66751740D01*
X168441348Y-66925463D01*
X168498531Y-67113970D01*
X168517838Y-67310000D01*
X168498531Y-67506030D01*
X168498530Y-67506033D01*
X168498530Y-67506034D01*
X168454358Y-67651651D01*
X168441348Y-67694537D01*
X168348491Y-67868260D01*
X168223528Y-68020528D01*
X168071260Y-68145491D01*
X168071258Y-68145492D01*
X167897535Y-68238349D01*
X167709034Y-68295530D01*
X167709033Y-68295530D01*
X167709030Y-68295531D01*
X167562124Y-68310000D01*
X167463876Y-68310000D01*
X167316970Y-68295531D01*
X167316967Y-68295530D01*
X167316966Y-68295530D01*
X167128465Y-68238349D01*
X166954742Y-68145492D01*
X166954740Y-68145491D01*
X166802472Y-68020528D01*
X166677509Y-67868260D01*
X166584652Y-67694537D01*
X166571643Y-67651651D01*
X166527470Y-67506034D01*
X166527470Y-67506033D01*
X166527469Y-67506030D01*
X166508162Y-67310000D01*
X166527469Y-67113970D01*
X166584652Y-66925463D01*
X166677509Y-66751740D01*
X166802472Y-66599472D01*
X166954740Y-66474509D01*
X167128463Y-66381652D01*
X167128465Y-66381651D01*
X167316966Y-66324470D01*
X167316967Y-66324470D01*
X167316970Y-66324469D01*
X167463876Y-66310000D01*
X167562124Y-66310000D01*
X167709030Y-66324469D01*
X167709030Y-66324469D01*
G37*
G36*
X171053000Y-68310000D02*
X169053000Y-68310000D01*
X169053000Y-66310000D01*
X171053000Y-66310000D01*
X171053000Y-68310000D01*
X171053000Y-68310000D01*
G37*
G36*
X184854030Y-66324469D02*
X184854033Y-66324470D01*
X184854034Y-66324470D01*
X185042535Y-66381651D01*
X185042537Y-66381652D01*
X185216260Y-66474509D01*
X185368528Y-66599472D01*
X185493491Y-66751740D01*
X185586348Y-66925463D01*
X185643531Y-67113970D01*
X185662838Y-67310000D01*
X185643531Y-67506030D01*
X185643530Y-67506033D01*
X185643530Y-67506034D01*
X185599358Y-67651651D01*
X185586348Y-67694537D01*
X185493491Y-67868260D01*
X185368528Y-68020528D01*
X185216260Y-68145491D01*
X185216258Y-68145492D01*
X185042535Y-68238349D01*
X184854034Y-68295530D01*
X184854033Y-68295530D01*
X184854030Y-68295531D01*
X184707124Y-68310000D01*
X184608876Y-68310000D01*
X184461970Y-68295531D01*
X184461967Y-68295530D01*
X184461966Y-68295530D01*
X184273465Y-68238349D01*
X184099742Y-68145492D01*
X184099740Y-68145491D01*
X183947472Y-68020528D01*
X183822509Y-67868260D01*
X183729652Y-67694537D01*
X183716643Y-67651651D01*
X183672470Y-67506034D01*
X183672470Y-67506033D01*
X183672469Y-67506030D01*
X183653162Y-67310000D01*
X183672469Y-67113970D01*
X183729652Y-66925463D01*
X183822509Y-66751740D01*
X183947472Y-66599472D01*
X184099740Y-66474509D01*
X184273463Y-66381652D01*
X184273465Y-66381651D01*
X184461966Y-66324470D01*
X184461967Y-66324470D01*
X184461970Y-66324469D01*
X184608876Y-66310000D01*
X184707124Y-66310000D01*
X184854030Y-66324469D01*
X184854030Y-66324469D01*
G37*
G36*
X188198000Y-68310000D02*
X186198000Y-68310000D01*
X186198000Y-66310000D01*
X188198000Y-66310000D01*
X188198000Y-68310000D01*
X188198000Y-68310000D01*
G37*
G36*
X95331890Y-67461740D02*
X93136110Y-67461740D01*
X93136110Y-64364260D01*
X95331890Y-64364260D01*
X95331890Y-67461740D01*
X95331890Y-67461740D01*
G37*
G36*
X92334690Y-67461740D02*
X90138910Y-67461740D01*
X90138910Y-64364260D01*
X92334690Y-64364260D01*
X92334690Y-67461740D01*
X92334690Y-67461740D01*
G37*
G36*
X153497490Y-65048740D02*
X151301710Y-65048740D01*
X151301710Y-61951260D01*
X153497490Y-61951260D01*
X153497490Y-65048740D01*
X153497490Y-65048740D01*
G37*
G36*
X185527290Y-65048740D02*
X183331510Y-65048740D01*
X183331510Y-61951260D01*
X185527290Y-61951260D01*
X185527290Y-65048740D01*
X185527290Y-65048740D01*
G37*
G36*
X188524490Y-65048740D02*
X186328710Y-65048740D01*
X186328710Y-61951260D01*
X188524490Y-61951260D01*
X188524490Y-65048740D01*
X188524490Y-65048740D01*
G37*
G36*
X168382290Y-65048740D02*
X166186510Y-65048740D01*
X166186510Y-61951260D01*
X168382290Y-61951260D01*
X168382290Y-65048740D01*
X168382290Y-65048740D01*
G37*
G36*
X171379490Y-65048740D02*
X169183710Y-65048740D01*
X169183710Y-61951260D01*
X171379490Y-61951260D01*
X171379490Y-65048740D01*
X171379490Y-65048740D01*
G37*
G36*
X135819490Y-65048740D02*
X133623710Y-65048740D01*
X133623710Y-61951260D01*
X135819490Y-61951260D01*
X135819490Y-65048740D01*
X135819490Y-65048740D01*
G37*
G36*
X132822290Y-65048740D02*
X130626510Y-65048740D01*
X130626510Y-61951260D01*
X132822290Y-61951260D01*
X132822290Y-65048740D01*
X132822290Y-65048740D01*
G37*
G36*
X150500290Y-65048740D02*
X148304510Y-65048740D01*
X148304510Y-61951260D01*
X150500290Y-61951260D01*
X150500290Y-65048740D01*
X150500290Y-65048740D01*
G37*
G36*
X99992000Y-64386000D02*
X98042000Y-64386000D01*
X98042000Y-62686000D01*
X99992000Y-62686000D01*
X99992000Y-64386000D01*
X99992000Y-64386000D01*
G37*
G36*
X107952000Y-64386000D02*
X106002000Y-64386000D01*
X106002000Y-62686000D01*
X107952000Y-62686000D01*
X107952000Y-64386000D01*
X107952000Y-64386000D01*
G37*
M02*
