%FSLAX45Y45*%
G04 Gerber Fmt 4.5, Leading zero omitted, Abs format (unit mm)*
G04 Created by KiCad (PCBNEW (5.0.0)) date 09/12/18 00:51:42*
%MOMM*%
%LPD*%
G01*
G04 APERTURE LIST*
%ADD10C,0.150000*%
%ADD11C,0.200000*%
%ADD12C,0.300000*%
G04 APERTURE END LIST*
D10*
X3200400Y-13309600D02*
X3251200Y-13309600D01*
X3200400Y-4826000D02*
X3200400Y-13309600D01*
X23266400Y-4826000D02*
X3200400Y-4826000D01*
X23266400Y-13309600D02*
X23266400Y-4826000D01*
X3251200Y-13309600D02*
X23266400Y-13309600D01*
D11*
X3456400Y-7164800D02*
X3706400Y-7414800D01*
X3706400Y-7164800D02*
X3456400Y-7414800D01*
X22836600Y-8307800D02*
X23086600Y-8557800D01*
X23086600Y-8307800D02*
X22836600Y-8557800D01*
X22760400Y-9806400D02*
X23010400Y-10056400D01*
X23010400Y-9806400D02*
X22760400Y-10056400D01*
X3405600Y-8765000D02*
X3655600Y-9015000D01*
X3655600Y-8765000D02*
X3405600Y-9015000D01*
D12*
X3479328Y-13782814D02*
X3479328Y-13482814D01*
X3550757Y-13482814D01*
X3593614Y-13497100D01*
X3622186Y-13525671D01*
X3636471Y-13554243D01*
X3650757Y-13611386D01*
X3650757Y-13654243D01*
X3636471Y-13711386D01*
X3622186Y-13739957D01*
X3593614Y-13768529D01*
X3550757Y-13782814D01*
X3479328Y-13782814D01*
X3779328Y-13782814D02*
X3779328Y-13582814D01*
X3779328Y-13639957D02*
X3793614Y-13611386D01*
X3807900Y-13597100D01*
X3836471Y-13582814D01*
X3865043Y-13582814D01*
X3965043Y-13782814D02*
X3965043Y-13582814D01*
X3965043Y-13482814D02*
X3950757Y-13497100D01*
X3965043Y-13511386D01*
X3979328Y-13497100D01*
X3965043Y-13482814D01*
X3965043Y-13511386D01*
X4150757Y-13782814D02*
X4122186Y-13768529D01*
X4107900Y-13739957D01*
X4107900Y-13482814D01*
X4307900Y-13782814D02*
X4279328Y-13768529D01*
X4265043Y-13739957D01*
X4265043Y-13482814D01*
X4650757Y-13782814D02*
X4650757Y-13482814D01*
X4750757Y-13697100D01*
X4850757Y-13482814D01*
X4850757Y-13782814D01*
X5122186Y-13782814D02*
X5122186Y-13625671D01*
X5107900Y-13597100D01*
X5079328Y-13582814D01*
X5022186Y-13582814D01*
X4993614Y-13597100D01*
X5122186Y-13768529D02*
X5093614Y-13782814D01*
X5022186Y-13782814D01*
X4993614Y-13768529D01*
X4979328Y-13739957D01*
X4979328Y-13711386D01*
X4993614Y-13682814D01*
X5022186Y-13668529D01*
X5093614Y-13668529D01*
X5122186Y-13654243D01*
X5265043Y-13582814D02*
X5265043Y-13882814D01*
X5265043Y-13597100D02*
X5293614Y-13582814D01*
X5350757Y-13582814D01*
X5379328Y-13597100D01*
X5393614Y-13611386D01*
X5407900Y-13639957D01*
X5407900Y-13725671D01*
X5393614Y-13754243D01*
X5379328Y-13768529D01*
X5350757Y-13782814D01*
X5293614Y-13782814D01*
X5265043Y-13768529D01*
X5536471Y-13754243D02*
X5550757Y-13768529D01*
X5536471Y-13782814D01*
X5522186Y-13768529D01*
X5536471Y-13754243D01*
X5536471Y-13782814D01*
X5536471Y-13597100D02*
X5550757Y-13611386D01*
X5536471Y-13625671D01*
X5522186Y-13611386D01*
X5536471Y-13597100D01*
X5536471Y-13625671D01*
X2942900Y-14152100D02*
X3192900Y-14402100D01*
X3192900Y-14152100D02*
X2942900Y-14402100D01*
X3465043Y-14141386D02*
X3479328Y-14127100D01*
X3507900Y-14112814D01*
X3579328Y-14112814D01*
X3607900Y-14127100D01*
X3622186Y-14141386D01*
X3636471Y-14169957D01*
X3636471Y-14198529D01*
X3622186Y-14241386D01*
X3450757Y-14412814D01*
X3636471Y-14412814D01*
X3765043Y-14384243D02*
X3779328Y-14398529D01*
X3765043Y-14412814D01*
X3750757Y-14398529D01*
X3765043Y-14384243D01*
X3765043Y-14412814D01*
X4050757Y-14112814D02*
X3907900Y-14112814D01*
X3893614Y-14255671D01*
X3907900Y-14241386D01*
X3936471Y-14227100D01*
X4007900Y-14227100D01*
X4036471Y-14241386D01*
X4050757Y-14255671D01*
X4065043Y-14284243D01*
X4065043Y-14355671D01*
X4050757Y-14384243D01*
X4036471Y-14398529D01*
X4007900Y-14412814D01*
X3936471Y-14412814D01*
X3907900Y-14398529D01*
X3893614Y-14384243D01*
X4250757Y-14112814D02*
X4279328Y-14112814D01*
X4307900Y-14127100D01*
X4322186Y-14141386D01*
X4336471Y-14169957D01*
X4350757Y-14227100D01*
X4350757Y-14298529D01*
X4336471Y-14355671D01*
X4322186Y-14384243D01*
X4307900Y-14398529D01*
X4279328Y-14412814D01*
X4250757Y-14412814D01*
X4222186Y-14398529D01*
X4207900Y-14384243D01*
X4193614Y-14355671D01*
X4179328Y-14298529D01*
X4179328Y-14227100D01*
X4193614Y-14169957D01*
X4207900Y-14141386D01*
X4222186Y-14127100D01*
X4250757Y-14112814D01*
X4479328Y-14412814D02*
X4479328Y-14212814D01*
X4479328Y-14241386D02*
X4493614Y-14227100D01*
X4522186Y-14212814D01*
X4565043Y-14212814D01*
X4593614Y-14227100D01*
X4607900Y-14255671D01*
X4607900Y-14412814D01*
X4607900Y-14255671D02*
X4622186Y-14227100D01*
X4650757Y-14212814D01*
X4693614Y-14212814D01*
X4722186Y-14227100D01*
X4736471Y-14255671D01*
X4736471Y-14412814D01*
X4879328Y-14412814D02*
X4879328Y-14212814D01*
X4879328Y-14241386D02*
X4893614Y-14227100D01*
X4922186Y-14212814D01*
X4965043Y-14212814D01*
X4993614Y-14227100D01*
X5007900Y-14255671D01*
X5007900Y-14412814D01*
X5007900Y-14255671D02*
X5022186Y-14227100D01*
X5050757Y-14212814D01*
X5093614Y-14212814D01*
X5122186Y-14227100D01*
X5136471Y-14255671D01*
X5136471Y-14412814D01*
X5722186Y-14098529D02*
X5465043Y-14484243D01*
X6107900Y-14112814D02*
X6136471Y-14112814D01*
X6165043Y-14127100D01*
X6179328Y-14141386D01*
X6193614Y-14169957D01*
X6207900Y-14227100D01*
X6207900Y-14298529D01*
X6193614Y-14355671D01*
X6179328Y-14384243D01*
X6165043Y-14398529D01*
X6136471Y-14412814D01*
X6107900Y-14412814D01*
X6079328Y-14398529D01*
X6065043Y-14384243D01*
X6050757Y-14355671D01*
X6036471Y-14298529D01*
X6036471Y-14227100D01*
X6050757Y-14169957D01*
X6065043Y-14141386D01*
X6079328Y-14127100D01*
X6107900Y-14112814D01*
X6336471Y-14384243D02*
X6350757Y-14398529D01*
X6336471Y-14412814D01*
X6322186Y-14398529D01*
X6336471Y-14384243D01*
X6336471Y-14412814D01*
X6536471Y-14112814D02*
X6565043Y-14112814D01*
X6593614Y-14127100D01*
X6607900Y-14141386D01*
X6622186Y-14169957D01*
X6636471Y-14227100D01*
X6636471Y-14298529D01*
X6622186Y-14355671D01*
X6607900Y-14384243D01*
X6593614Y-14398529D01*
X6565043Y-14412814D01*
X6536471Y-14412814D01*
X6507900Y-14398529D01*
X6493614Y-14384243D01*
X6479328Y-14355671D01*
X6465043Y-14298529D01*
X6465043Y-14227100D01*
X6479328Y-14169957D01*
X6493614Y-14141386D01*
X6507900Y-14127100D01*
X6536471Y-14112814D01*
X6779328Y-14412814D02*
X6836471Y-14412814D01*
X6865043Y-14398529D01*
X6879328Y-14384243D01*
X6907900Y-14341386D01*
X6922186Y-14284243D01*
X6922186Y-14169957D01*
X6907900Y-14141386D01*
X6893614Y-14127100D01*
X6865043Y-14112814D01*
X6807900Y-14112814D01*
X6779328Y-14127100D01*
X6765043Y-14141386D01*
X6750757Y-14169957D01*
X6750757Y-14241386D01*
X6765043Y-14269957D01*
X6779328Y-14284243D01*
X6807900Y-14298529D01*
X6865043Y-14298529D01*
X6893614Y-14284243D01*
X6907900Y-14269957D01*
X6922186Y-14241386D01*
X7093614Y-14241386D02*
X7065043Y-14227100D01*
X7050757Y-14212814D01*
X7036471Y-14184243D01*
X7036471Y-14169957D01*
X7050757Y-14141386D01*
X7065043Y-14127100D01*
X7093614Y-14112814D01*
X7150757Y-14112814D01*
X7179328Y-14127100D01*
X7193614Y-14141386D01*
X7207900Y-14169957D01*
X7207900Y-14184243D01*
X7193614Y-14212814D01*
X7179328Y-14227100D01*
X7150757Y-14241386D01*
X7093614Y-14241386D01*
X7065043Y-14255671D01*
X7050757Y-14269957D01*
X7036471Y-14298529D01*
X7036471Y-14355671D01*
X7050757Y-14384243D01*
X7065043Y-14398529D01*
X7093614Y-14412814D01*
X7150757Y-14412814D01*
X7179328Y-14398529D01*
X7193614Y-14384243D01*
X7207900Y-14355671D01*
X7207900Y-14298529D01*
X7193614Y-14269957D01*
X7179328Y-14255671D01*
X7150757Y-14241386D01*
X7322186Y-14112814D02*
X7322186Y-14169957D01*
X7436471Y-14112814D02*
X7436471Y-14169957D01*
X7879328Y-14527100D02*
X7865043Y-14512814D01*
X7836471Y-14469957D01*
X7822186Y-14441386D01*
X7807900Y-14398529D01*
X7793614Y-14327100D01*
X7793614Y-14269957D01*
X7807900Y-14198529D01*
X7822186Y-14155671D01*
X7836471Y-14127100D01*
X7865043Y-14084243D01*
X7879328Y-14069957D01*
X8122186Y-14212814D02*
X8122186Y-14412814D01*
X8050757Y-14098529D02*
X7979328Y-14312814D01*
X8165043Y-14312814D01*
X8507900Y-14412814D02*
X8507900Y-14112814D01*
X8636471Y-14412814D02*
X8636471Y-14255671D01*
X8622186Y-14227100D01*
X8593614Y-14212814D01*
X8550757Y-14212814D01*
X8522186Y-14227100D01*
X8507900Y-14241386D01*
X8822186Y-14412814D02*
X8793614Y-14398529D01*
X8779328Y-14384243D01*
X8765043Y-14355671D01*
X8765043Y-14269957D01*
X8779328Y-14241386D01*
X8793614Y-14227100D01*
X8822186Y-14212814D01*
X8865043Y-14212814D01*
X8893614Y-14227100D01*
X8907900Y-14241386D01*
X8922186Y-14269957D01*
X8922186Y-14355671D01*
X8907900Y-14384243D01*
X8893614Y-14398529D01*
X8865043Y-14412814D01*
X8822186Y-14412814D01*
X9093614Y-14412814D02*
X9065043Y-14398529D01*
X9050757Y-14369957D01*
X9050757Y-14112814D01*
X9322186Y-14398529D02*
X9293614Y-14412814D01*
X9236471Y-14412814D01*
X9207900Y-14398529D01*
X9193614Y-14369957D01*
X9193614Y-14255671D01*
X9207900Y-14227100D01*
X9236471Y-14212814D01*
X9293614Y-14212814D01*
X9322186Y-14227100D01*
X9336471Y-14255671D01*
X9336471Y-14284243D01*
X9193614Y-14312814D01*
X9450757Y-14398529D02*
X9479328Y-14412814D01*
X9536471Y-14412814D01*
X9565043Y-14398529D01*
X9579328Y-14369957D01*
X9579328Y-14355671D01*
X9565043Y-14327100D01*
X9536471Y-14312814D01*
X9493614Y-14312814D01*
X9465043Y-14298529D01*
X9450757Y-14269957D01*
X9450757Y-14255671D01*
X9465043Y-14227100D01*
X9493614Y-14212814D01*
X9536471Y-14212814D01*
X9565043Y-14227100D01*
X9679328Y-14527100D02*
X9693614Y-14512814D01*
X9722186Y-14469957D01*
X9736471Y-14441386D01*
X9750757Y-14398529D01*
X9765043Y-14327100D01*
X9765043Y-14269957D01*
X9750757Y-14198529D01*
X9736471Y-14155671D01*
X9722186Y-14127100D01*
X9693614Y-14084243D01*
X9679328Y-14069957D01*
X10222186Y-14527100D02*
X10207900Y-14512814D01*
X10179328Y-14469957D01*
X10165043Y-14441386D01*
X10150757Y-14398529D01*
X10136471Y-14327100D01*
X10136471Y-14269957D01*
X10150757Y-14198529D01*
X10165043Y-14155671D01*
X10179328Y-14127100D01*
X10207900Y-14084243D01*
X10222186Y-14069957D01*
X10336471Y-14212814D02*
X10336471Y-14412814D01*
X10336471Y-14241386D02*
X10350757Y-14227100D01*
X10379328Y-14212814D01*
X10422186Y-14212814D01*
X10450757Y-14227100D01*
X10465043Y-14255671D01*
X10465043Y-14412814D01*
X10650757Y-14412814D02*
X10622186Y-14398529D01*
X10607900Y-14384243D01*
X10593614Y-14355671D01*
X10593614Y-14269957D01*
X10607900Y-14241386D01*
X10622186Y-14227100D01*
X10650757Y-14212814D01*
X10693614Y-14212814D01*
X10722186Y-14227100D01*
X10736471Y-14241386D01*
X10750757Y-14269957D01*
X10750757Y-14355671D01*
X10736471Y-14384243D01*
X10722186Y-14398529D01*
X10693614Y-14412814D01*
X10650757Y-14412814D01*
X10836471Y-14212814D02*
X10950757Y-14212814D01*
X10879328Y-14112814D02*
X10879328Y-14369957D01*
X10893614Y-14398529D01*
X10922186Y-14412814D01*
X10950757Y-14412814D01*
X11279328Y-14212814D02*
X11279328Y-14512814D01*
X11279328Y-14227100D02*
X11307900Y-14212814D01*
X11365043Y-14212814D01*
X11393614Y-14227100D01*
X11407900Y-14241386D01*
X11422186Y-14269957D01*
X11422186Y-14355671D01*
X11407900Y-14384243D01*
X11393614Y-14398529D01*
X11365043Y-14412814D01*
X11307900Y-14412814D01*
X11279328Y-14398529D01*
X11593614Y-14412814D02*
X11565043Y-14398529D01*
X11550757Y-14369957D01*
X11550757Y-14112814D01*
X11836471Y-14412814D02*
X11836471Y-14255671D01*
X11822186Y-14227100D01*
X11793614Y-14212814D01*
X11736471Y-14212814D01*
X11707900Y-14227100D01*
X11836471Y-14398529D02*
X11807900Y-14412814D01*
X11736471Y-14412814D01*
X11707900Y-14398529D01*
X11693614Y-14369957D01*
X11693614Y-14341386D01*
X11707900Y-14312814D01*
X11736471Y-14298529D01*
X11807900Y-14298529D01*
X11836471Y-14284243D01*
X11936471Y-14212814D02*
X12050757Y-14212814D01*
X11979328Y-14112814D02*
X11979328Y-14369957D01*
X11993614Y-14398529D01*
X12022186Y-14412814D01*
X12050757Y-14412814D01*
X12265043Y-14398529D02*
X12236471Y-14412814D01*
X12179328Y-14412814D01*
X12150757Y-14398529D01*
X12136471Y-14369957D01*
X12136471Y-14255671D01*
X12150757Y-14227100D01*
X12179328Y-14212814D01*
X12236471Y-14212814D01*
X12265043Y-14227100D01*
X12279328Y-14255671D01*
X12279328Y-14284243D01*
X12136471Y-14312814D01*
X12536471Y-14412814D02*
X12536471Y-14112814D01*
X12536471Y-14398529D02*
X12507900Y-14412814D01*
X12450757Y-14412814D01*
X12422186Y-14398529D01*
X12407900Y-14384243D01*
X12393614Y-14355671D01*
X12393614Y-14269957D01*
X12407900Y-14241386D01*
X12422186Y-14227100D01*
X12450757Y-14212814D01*
X12507900Y-14212814D01*
X12536471Y-14227100D01*
X12650757Y-14527100D02*
X12665043Y-14512814D01*
X12693614Y-14469957D01*
X12707900Y-14441386D01*
X12722186Y-14398529D01*
X12736471Y-14327100D01*
X12736471Y-14269957D01*
X12722186Y-14198529D01*
X12707900Y-14155671D01*
X12693614Y-14127100D01*
X12665043Y-14084243D01*
X12650757Y-14069957D01*
M02*
