M48
;DRILL file {KiCad (5.0.0)} date 09/12/18 00:51:41
;FORMAT={-:-/ absolute / metric / decimal}
FMAT,2
METRIC,TZ
T1C0.400
T2C0.800
T3C0.800
T4C1.001
T5C1.300
%
G90
G05
M71
T1
X43.497Y-103.252
X47.466Y-105.651
X47.794Y-66.382
X51.793Y-64.406
X54.888Y-108.565
X55.737Y-99.284
X72.755Y-103.047
X74.139Y-70.077
X74.756Y-71.503
X79.502Y-64.406
X80.902Y-63.332
X81.291Y-94.621
X84.49Y-81.608
X85.134Y-114.402
X85.508Y-115.982
X92.353Y-98.428
X108.369Y-85.626
X108.827Y-61.024
X109.497Y-98.721
X110.018Y-104.656
X110.073Y-76.082
X127.659Y-65.951
X128.222Y-64.093
X130.906Y-92.993
X134.193Y-63.198
X135.432Y-90.568
X152.174Y-89.986
X152.993Y-53.25
X157.378Y-107.069
X158.067Y-68.12
X161.133Y-113.149
X161.909Y-73.615
X165.451Y-119.611
X166.786Y-116.29
X172.837Y-73.462
X177.12Y-54.238
X177.187Y-68.247
X177.797Y-79.546
X178.793Y-93.108
X179.197Y-85.606
X179.942Y-67.183
X181.299Y-68.812
X181.823Y-114.889
X182.223Y-111.808
X184.272Y-53.25
X184.45Y-62.103
X184.656Y-55.226
X186.391Y-73.355
X187.557Y-68.247
X192.528Y-105.256
X194.239Y-85.819
X196.484Y-67.054
X199.946Y-59.537
X208.787Y-85.606
T2
X202.692Y-51.435
X202.692Y-59.055
X205.232Y-51.435
X205.232Y-59.055
X174.117Y-51.435
X174.117Y-59.055
X176.657Y-51.435
X176.657Y-59.055
X183.642Y-51.435
X183.642Y-59.055
X186.182Y-51.435
X186.182Y-59.055
X164.592Y-51.435
X164.592Y-59.055
X167.132Y-51.435
X167.132Y-59.055
X193.167Y-51.435
X193.167Y-59.055
X195.707Y-51.435
X195.707Y-59.055
X111.315Y-78.168
X111.315Y-85.788
X113.855Y-78.168
X113.855Y-85.788
X116.395Y-78.168
X116.395Y-85.788
X118.935Y-78.168
X118.935Y-85.788
X121.475Y-78.168
X121.475Y-85.788
X124.015Y-78.168
X124.015Y-85.788
X126.555Y-78.168
X126.555Y-85.788
X129.095Y-78.168
X129.095Y-85.788
X131.635Y-78.168
X131.635Y-85.788
X134.175Y-78.168
X134.175Y-85.788
X212.217Y-51.435
X212.217Y-59.055
X214.757Y-51.435
X214.757Y-59.055
X145.542Y-51.435
X145.542Y-59.055
X148.082Y-51.435
X148.082Y-59.055
X155.067Y-51.435
X155.067Y-59.055
X157.607Y-51.435
X157.607Y-59.055
X56.896Y-78.232
X56.896Y-85.852
X59.436Y-78.232
X59.436Y-85.852
X61.976Y-78.232
X61.976Y-85.852
X64.516Y-78.232
X64.516Y-85.852
X67.056Y-78.232
X67.056Y-85.852
X69.596Y-78.232
X69.596Y-85.852
X72.136Y-78.232
X72.136Y-85.852
X74.676Y-78.232
X74.676Y-85.852
X77.216Y-78.232
X77.216Y-85.852
X79.756Y-78.232
X79.756Y-85.852
T3
X112.84Y-99.632
X112.84Y-107.252
X115.38Y-99.632
X115.38Y-107.252
X117.92Y-99.632
X117.92Y-107.252
X120.46Y-99.632
X120.46Y-107.252
X123.Y-99.632
X123.Y-107.252
X125.54Y-99.632
X125.54Y-107.252
X128.08Y-99.632
X128.08Y-107.252
X130.62Y-99.632
X130.62Y-107.252
X58.229Y-98.996
X58.229Y-106.616
X60.77Y-98.996
X60.77Y-106.616
X63.309Y-98.996
X63.309Y-106.616
X65.849Y-98.996
X65.849Y-106.616
X68.389Y-98.996
X68.389Y-106.616
X70.929Y-98.996
X70.929Y-106.616
X73.469Y-98.996
X73.469Y-106.616
X76.01Y-98.996
X76.01Y-106.616
T4
X103.886Y-103.632
X106.426Y-103.632
X49.974Y-99.378
X52.514Y-99.378
X103.886Y-100.584
X106.426Y-100.584
X49.974Y-102.552
X52.514Y-102.552
X103.886Y-106.68
X106.426Y-106.68
X49.974Y-105.728
X52.514Y-105.728
T5
X141.57Y-125.73
X146.57Y-125.73
X151.57Y-125.73
X156.57Y-125.73
X161.57Y-125.73
X166.57Y-125.73
X171.57Y-125.73
X176.57Y-125.73
X181.57Y-125.73
X186.57Y-125.73
X191.57Y-125.73
X196.57Y-125.73
X201.57Y-125.73
X206.57Y-125.73
X211.57Y-125.73
X216.57Y-125.73
X35.934Y-125.857
X40.934Y-125.857
X45.934Y-125.857
X50.934Y-125.857
X223.56Y-125.73
X228.56Y-125.73
X58.004Y-125.857
X63.004Y-125.857
X68.004Y-125.857
X73.004Y-125.857
X78.004Y-125.857
X83.004Y-125.857
X88.004Y-125.857
X93.004Y-125.857
X98.004Y-125.857
X103.004Y-125.857
X108.004Y-125.857
X113.004Y-125.857
X118.004Y-125.857
X123.004Y-125.857
X128.004Y-125.857
X133.004Y-125.857
T0
M30
