%FSLAX45Y45*%
G04 Gerber Fmt 4.5, Leading zero omitted, Abs format (unit mm)*
G04 Created by KiCad (PCBNEW 4.0.6) date 08/18/17 12:25:05*
%MOMM*%
%LPD*%
G01*
G04 APERTURE LIST*
%ADD10C,0.127000*%
%ADD11C,0.150000*%
%ADD12C,0.200000*%
%ADD13C,0.300000*%
G04 APERTURE END LIST*
D10*
D11*
X13106400Y-6934200D02*
X13106400Y-11125200D01*
X22453600Y-6934200D02*
X13106400Y-6934200D01*
X22453600Y-11125200D02*
X22453600Y-6934200D01*
X13106400Y-11125200D02*
X22453600Y-11125200D01*
D12*
X15012162Y-9119362D02*
X15112238Y-9219438D01*
X15112238Y-9119362D02*
X15012162Y-9219438D01*
X15266162Y-9119362D02*
X15366238Y-9219438D01*
X15366238Y-9119362D02*
X15266162Y-9219438D01*
X15520162Y-9119362D02*
X15620238Y-9219438D01*
X15620238Y-9119362D02*
X15520162Y-9219438D01*
X15774162Y-9119362D02*
X15874238Y-9219438D01*
X15874238Y-9119362D02*
X15774162Y-9219438D01*
X16028162Y-9119362D02*
X16128238Y-9219438D01*
X16128238Y-9119362D02*
X16028162Y-9219438D01*
X16282162Y-9119362D02*
X16382238Y-9219438D01*
X16382238Y-9119362D02*
X16282162Y-9219438D01*
X16536162Y-9119362D02*
X16636238Y-9219438D01*
X16636238Y-9119362D02*
X16536162Y-9219438D01*
X16790162Y-9119362D02*
X16890238Y-9219438D01*
X16890238Y-9119362D02*
X16790162Y-9219438D01*
X17044162Y-9119362D02*
X17144238Y-9219438D01*
X17144238Y-9119362D02*
X17044162Y-9219438D01*
X17298162Y-9119362D02*
X17398238Y-9219438D01*
X17398238Y-9119362D02*
X17298162Y-9219438D01*
X18161762Y-9119362D02*
X18261838Y-9219438D01*
X18261838Y-9119362D02*
X18161762Y-9219438D01*
X18415762Y-9119362D02*
X18515838Y-9219438D01*
X18515838Y-9119362D02*
X18415762Y-9219438D01*
X18669762Y-9119362D02*
X18769838Y-9219438D01*
X18769838Y-9119362D02*
X18669762Y-9219438D01*
X18923762Y-9119362D02*
X19023838Y-9219438D01*
X19023838Y-9119362D02*
X18923762Y-9219438D01*
X19177762Y-9119362D02*
X19277838Y-9219438D01*
X19277838Y-9119362D02*
X19177762Y-9219438D01*
X19431762Y-9119362D02*
X19531838Y-9219438D01*
X19531838Y-9119362D02*
X19431762Y-9219438D01*
X19685762Y-9119362D02*
X19785838Y-9219438D01*
X19785838Y-9119362D02*
X19685762Y-9219438D01*
X19939762Y-9119362D02*
X20039838Y-9219438D01*
X20039838Y-9119362D02*
X19939762Y-9219438D01*
X20193762Y-9119362D02*
X20293838Y-9219438D01*
X20293838Y-9119362D02*
X20193762Y-9219438D01*
X20447762Y-9119362D02*
X20547838Y-9219438D01*
X20547838Y-9119362D02*
X20447762Y-9219438D01*
X13933400Y-8394000D02*
G75*
G03X13933400Y-8394000I-65000J0D01*
G01*
X13933400Y-8894000D02*
G75*
G03X13933400Y-8894000I-65000J0D01*
G01*
X13933400Y-9394000D02*
G75*
G03X13933400Y-9394000I-65000J0D01*
G01*
X13933400Y-9894000D02*
G75*
G03X13933400Y-9894000I-65000J0D01*
G01*
X14957400Y-10363200D02*
G75*
G03X14957400Y-10363200I-65000J0D01*
G01*
X15457400Y-10363200D02*
G75*
G03X15457400Y-10363200I-65000J0D01*
G01*
X15957400Y-10363200D02*
G75*
G03X15957400Y-10363200I-65000J0D01*
G01*
X16557600Y-10363200D02*
G75*
G03X16557600Y-10363200I-65000J0D01*
G01*
X17057600Y-10363200D02*
G75*
G03X17057600Y-10363200I-65000J0D01*
G01*
X17557600Y-10363200D02*
G75*
G03X17557600Y-10363200I-65000J0D01*
G01*
X18157800Y-10363200D02*
G75*
G03X18157800Y-10363200I-65000J0D01*
G01*
X18657800Y-10363200D02*
G75*
G03X18657800Y-10363200I-65000J0D01*
G01*
X19157800Y-10363200D02*
G75*
G03X19157800Y-10363200I-65000J0D01*
G01*
X19758000Y-10363200D02*
G75*
G03X19758000Y-10363200I-65000J0D01*
G01*
X20258000Y-10363200D02*
G75*
G03X20258000Y-10363200I-65000J0D01*
G01*
X20758000Y-10363200D02*
G75*
G03X20758000Y-10363200I-65000J0D01*
G01*
X21756600Y-8343200D02*
G75*
G03X21756600Y-8343200I-65000J0D01*
G01*
X21756600Y-8843200D02*
G75*
G03X21756600Y-8843200I-65000J0D01*
G01*
X21756600Y-9343200D02*
G75*
G03X21756600Y-9343200I-65000J0D01*
G01*
X21756600Y-9843200D02*
G75*
G03X21756600Y-9843200I-65000J0D01*
G01*
D13*
X13370328Y-11598414D02*
X13370328Y-11298414D01*
X13441757Y-11298414D01*
X13484614Y-11312700D01*
X13513186Y-11341271D01*
X13527471Y-11369843D01*
X13541757Y-11426986D01*
X13541757Y-11469843D01*
X13527471Y-11526986D01*
X13513186Y-11555557D01*
X13484614Y-11584129D01*
X13441757Y-11598414D01*
X13370328Y-11598414D01*
X13670328Y-11598414D02*
X13670328Y-11398414D01*
X13670328Y-11455557D02*
X13684614Y-11426986D01*
X13698900Y-11412700D01*
X13727471Y-11398414D01*
X13756043Y-11398414D01*
X13856043Y-11598414D02*
X13856043Y-11398414D01*
X13856043Y-11298414D02*
X13841757Y-11312700D01*
X13856043Y-11326986D01*
X13870328Y-11312700D01*
X13856043Y-11298414D01*
X13856043Y-11326986D01*
X14041757Y-11598414D02*
X14013186Y-11584129D01*
X13998900Y-11555557D01*
X13998900Y-11298414D01*
X14198900Y-11598414D02*
X14170328Y-11584129D01*
X14156043Y-11555557D01*
X14156043Y-11298414D01*
X14541757Y-11598414D02*
X14541757Y-11298414D01*
X14641757Y-11512700D01*
X14741757Y-11298414D01*
X14741757Y-11598414D01*
X15013186Y-11598414D02*
X15013186Y-11441271D01*
X14998900Y-11412700D01*
X14970328Y-11398414D01*
X14913186Y-11398414D01*
X14884614Y-11412700D01*
X15013186Y-11584129D02*
X14984614Y-11598414D01*
X14913186Y-11598414D01*
X14884614Y-11584129D01*
X14870328Y-11555557D01*
X14870328Y-11526986D01*
X14884614Y-11498414D01*
X14913186Y-11484129D01*
X14984614Y-11484129D01*
X15013186Y-11469843D01*
X15156043Y-11398414D02*
X15156043Y-11698414D01*
X15156043Y-11412700D02*
X15184614Y-11398414D01*
X15241757Y-11398414D01*
X15270328Y-11412700D01*
X15284614Y-11426986D01*
X15298900Y-11455557D01*
X15298900Y-11541271D01*
X15284614Y-11569843D01*
X15270328Y-11584129D01*
X15241757Y-11598414D01*
X15184614Y-11598414D01*
X15156043Y-11584129D01*
X15427471Y-11569843D02*
X15441757Y-11584129D01*
X15427471Y-11598414D01*
X15413186Y-11584129D01*
X15427471Y-11569843D01*
X15427471Y-11598414D01*
X15427471Y-11412700D02*
X15441757Y-11426986D01*
X15427471Y-11441271D01*
X15413186Y-11426986D01*
X15427471Y-11412700D01*
X15427471Y-11441271D01*
X12998824Y-12042662D02*
X13098900Y-12142738D01*
X13098900Y-12042662D02*
X12998824Y-12142738D01*
X13527471Y-12228414D02*
X13356043Y-12228414D01*
X13441757Y-12228414D02*
X13441757Y-11928414D01*
X13413186Y-11971271D01*
X13384614Y-11999843D01*
X13356043Y-12014129D01*
X13656043Y-12199843D02*
X13670328Y-12214129D01*
X13656043Y-12228414D01*
X13641757Y-12214129D01*
X13656043Y-12199843D01*
X13656043Y-12228414D01*
X13856043Y-11928414D02*
X13884614Y-11928414D01*
X13913186Y-11942700D01*
X13927471Y-11956986D01*
X13941757Y-11985557D01*
X13956043Y-12042700D01*
X13956043Y-12114129D01*
X13941757Y-12171271D01*
X13927471Y-12199843D01*
X13913186Y-12214129D01*
X13884614Y-12228414D01*
X13856043Y-12228414D01*
X13827471Y-12214129D01*
X13813186Y-12199843D01*
X13798900Y-12171271D01*
X13784614Y-12114129D01*
X13784614Y-12042700D01*
X13798900Y-11985557D01*
X13813186Y-11956986D01*
X13827471Y-11942700D01*
X13856043Y-11928414D01*
X14141757Y-11928414D02*
X14170328Y-11928414D01*
X14198900Y-11942700D01*
X14213186Y-11956986D01*
X14227471Y-11985557D01*
X14241757Y-12042700D01*
X14241757Y-12114129D01*
X14227471Y-12171271D01*
X14213186Y-12199843D01*
X14198900Y-12214129D01*
X14170328Y-12228414D01*
X14141757Y-12228414D01*
X14113186Y-12214129D01*
X14098900Y-12199843D01*
X14084614Y-12171271D01*
X14070328Y-12114129D01*
X14070328Y-12042700D01*
X14084614Y-11985557D01*
X14098900Y-11956986D01*
X14113186Y-11942700D01*
X14141757Y-11928414D01*
X14370328Y-12228414D02*
X14370328Y-12028414D01*
X14370328Y-12056986D02*
X14384614Y-12042700D01*
X14413186Y-12028414D01*
X14456043Y-12028414D01*
X14484614Y-12042700D01*
X14498900Y-12071271D01*
X14498900Y-12228414D01*
X14498900Y-12071271D02*
X14513186Y-12042700D01*
X14541757Y-12028414D01*
X14584614Y-12028414D01*
X14613186Y-12042700D01*
X14627471Y-12071271D01*
X14627471Y-12228414D01*
X14770328Y-12228414D02*
X14770328Y-12028414D01*
X14770328Y-12056986D02*
X14784614Y-12042700D01*
X14813186Y-12028414D01*
X14856043Y-12028414D01*
X14884614Y-12042700D01*
X14898900Y-12071271D01*
X14898900Y-12228414D01*
X14898900Y-12071271D02*
X14913186Y-12042700D01*
X14941757Y-12028414D01*
X14984614Y-12028414D01*
X15013186Y-12042700D01*
X15027471Y-12071271D01*
X15027471Y-12228414D01*
X15613186Y-11914129D02*
X15356043Y-12299843D01*
X15998900Y-11928414D02*
X16027471Y-11928414D01*
X16056043Y-11942700D01*
X16070328Y-11956986D01*
X16084614Y-11985557D01*
X16098900Y-12042700D01*
X16098900Y-12114129D01*
X16084614Y-12171271D01*
X16070328Y-12199843D01*
X16056043Y-12214129D01*
X16027471Y-12228414D01*
X15998900Y-12228414D01*
X15970328Y-12214129D01*
X15956043Y-12199843D01*
X15941757Y-12171271D01*
X15927471Y-12114129D01*
X15927471Y-12042700D01*
X15941757Y-11985557D01*
X15956043Y-11956986D01*
X15970328Y-11942700D01*
X15998900Y-11928414D01*
X16227471Y-12199843D02*
X16241757Y-12214129D01*
X16227471Y-12228414D01*
X16213186Y-12214129D01*
X16227471Y-12199843D01*
X16227471Y-12228414D01*
X16427471Y-11928414D02*
X16456043Y-11928414D01*
X16484614Y-11942700D01*
X16498900Y-11956986D01*
X16513185Y-11985557D01*
X16527471Y-12042700D01*
X16527471Y-12114129D01*
X16513185Y-12171271D01*
X16498900Y-12199843D01*
X16484614Y-12214129D01*
X16456043Y-12228414D01*
X16427471Y-12228414D01*
X16398900Y-12214129D01*
X16384614Y-12199843D01*
X16370328Y-12171271D01*
X16356043Y-12114129D01*
X16356043Y-12042700D01*
X16370328Y-11985557D01*
X16384614Y-11956986D01*
X16398900Y-11942700D01*
X16427471Y-11928414D01*
X16627471Y-11928414D02*
X16813186Y-11928414D01*
X16713185Y-12042700D01*
X16756043Y-12042700D01*
X16784614Y-12056986D01*
X16798900Y-12071271D01*
X16813186Y-12099843D01*
X16813186Y-12171271D01*
X16798900Y-12199843D01*
X16784614Y-12214129D01*
X16756043Y-12228414D01*
X16670328Y-12228414D01*
X16641757Y-12214129D01*
X16627471Y-12199843D01*
X16956043Y-12228414D02*
X17013186Y-12228414D01*
X17041757Y-12214129D01*
X17056043Y-12199843D01*
X17084614Y-12156986D01*
X17098900Y-12099843D01*
X17098900Y-11985557D01*
X17084614Y-11956986D01*
X17070328Y-11942700D01*
X17041757Y-11928414D01*
X16984614Y-11928414D01*
X16956043Y-11942700D01*
X16941757Y-11956986D01*
X16927471Y-11985557D01*
X16927471Y-12056986D01*
X16941757Y-12085557D01*
X16956043Y-12099843D01*
X16984614Y-12114129D01*
X17041757Y-12114129D01*
X17070328Y-12099843D01*
X17084614Y-12085557D01*
X17098900Y-12056986D01*
X17213186Y-11928414D02*
X17213186Y-11985557D01*
X17327471Y-11928414D02*
X17327471Y-11985557D01*
X17770328Y-12342700D02*
X17756043Y-12328414D01*
X17727471Y-12285557D01*
X17713186Y-12256986D01*
X17698900Y-12214129D01*
X17684614Y-12142700D01*
X17684614Y-12085557D01*
X17698900Y-12014129D01*
X17713186Y-11971271D01*
X17727471Y-11942700D01*
X17756043Y-11899843D01*
X17770328Y-11885557D01*
X17870328Y-11956986D02*
X17884614Y-11942700D01*
X17913186Y-11928414D01*
X17984614Y-11928414D01*
X18013186Y-11942700D01*
X18027471Y-11956986D01*
X18041757Y-11985557D01*
X18041757Y-12014129D01*
X18027471Y-12056986D01*
X17856043Y-12228414D01*
X18041757Y-12228414D01*
X18227471Y-11928414D02*
X18256043Y-11928414D01*
X18284614Y-11942700D01*
X18298900Y-11956986D01*
X18313186Y-11985557D01*
X18327471Y-12042700D01*
X18327471Y-12114129D01*
X18313186Y-12171271D01*
X18298900Y-12199843D01*
X18284614Y-12214129D01*
X18256043Y-12228414D01*
X18227471Y-12228414D01*
X18198900Y-12214129D01*
X18184614Y-12199843D01*
X18170328Y-12171271D01*
X18156043Y-12114129D01*
X18156043Y-12042700D01*
X18170328Y-11985557D01*
X18184614Y-11956986D01*
X18198900Y-11942700D01*
X18227471Y-11928414D01*
X18684614Y-12228414D02*
X18684614Y-11928414D01*
X18813186Y-12228414D02*
X18813186Y-12071271D01*
X18798900Y-12042700D01*
X18770328Y-12028414D01*
X18727471Y-12028414D01*
X18698900Y-12042700D01*
X18684614Y-12056986D01*
X18998900Y-12228414D02*
X18970328Y-12214129D01*
X18956043Y-12199843D01*
X18941757Y-12171271D01*
X18941757Y-12085557D01*
X18956043Y-12056986D01*
X18970328Y-12042700D01*
X18998900Y-12028414D01*
X19041757Y-12028414D01*
X19070328Y-12042700D01*
X19084614Y-12056986D01*
X19098900Y-12085557D01*
X19098900Y-12171271D01*
X19084614Y-12199843D01*
X19070328Y-12214129D01*
X19041757Y-12228414D01*
X18998900Y-12228414D01*
X19270328Y-12228414D02*
X19241757Y-12214129D01*
X19227471Y-12185557D01*
X19227471Y-11928414D01*
X19498900Y-12214129D02*
X19470329Y-12228414D01*
X19413186Y-12228414D01*
X19384614Y-12214129D01*
X19370329Y-12185557D01*
X19370329Y-12071271D01*
X19384614Y-12042700D01*
X19413186Y-12028414D01*
X19470329Y-12028414D01*
X19498900Y-12042700D01*
X19513186Y-12071271D01*
X19513186Y-12099843D01*
X19370329Y-12128414D01*
X19627471Y-12214129D02*
X19656043Y-12228414D01*
X19713186Y-12228414D01*
X19741757Y-12214129D01*
X19756043Y-12185557D01*
X19756043Y-12171271D01*
X19741757Y-12142700D01*
X19713186Y-12128414D01*
X19670329Y-12128414D01*
X19641757Y-12114129D01*
X19627471Y-12085557D01*
X19627471Y-12071271D01*
X19641757Y-12042700D01*
X19670329Y-12028414D01*
X19713186Y-12028414D01*
X19741757Y-12042700D01*
X19856043Y-12342700D02*
X19870329Y-12328414D01*
X19898900Y-12285557D01*
X19913186Y-12256986D01*
X19927471Y-12214129D01*
X19941757Y-12142700D01*
X19941757Y-12085557D01*
X19927471Y-12014129D01*
X19913186Y-11971271D01*
X19898900Y-11942700D01*
X19870329Y-11899843D01*
X19856043Y-11885557D01*
X13098900Y-12488700D02*
G75*
G03X13098900Y-12488700I-65000J0D01*
G01*
X13527471Y-12624414D02*
X13356043Y-12624414D01*
X13441757Y-12624414D02*
X13441757Y-12324414D01*
X13413186Y-12367271D01*
X13384614Y-12395843D01*
X13356043Y-12410129D01*
X13656043Y-12595843D02*
X13670328Y-12610129D01*
X13656043Y-12624414D01*
X13641757Y-12610129D01*
X13656043Y-12595843D01*
X13656043Y-12624414D01*
X13770328Y-12324414D02*
X13956043Y-12324414D01*
X13856043Y-12438700D01*
X13898900Y-12438700D01*
X13927471Y-12452986D01*
X13941757Y-12467271D01*
X13956043Y-12495843D01*
X13956043Y-12567271D01*
X13941757Y-12595843D01*
X13927471Y-12610129D01*
X13898900Y-12624414D01*
X13813186Y-12624414D01*
X13784614Y-12610129D01*
X13770328Y-12595843D01*
X14141757Y-12324414D02*
X14170328Y-12324414D01*
X14198900Y-12338700D01*
X14213186Y-12352986D01*
X14227471Y-12381557D01*
X14241757Y-12438700D01*
X14241757Y-12510129D01*
X14227471Y-12567271D01*
X14213186Y-12595843D01*
X14198900Y-12610129D01*
X14170328Y-12624414D01*
X14141757Y-12624414D01*
X14113186Y-12610129D01*
X14098900Y-12595843D01*
X14084614Y-12567271D01*
X14070328Y-12510129D01*
X14070328Y-12438700D01*
X14084614Y-12381557D01*
X14098900Y-12352986D01*
X14113186Y-12338700D01*
X14141757Y-12324414D01*
X14370328Y-12624414D02*
X14370328Y-12424414D01*
X14370328Y-12452986D02*
X14384614Y-12438700D01*
X14413186Y-12424414D01*
X14456043Y-12424414D01*
X14484614Y-12438700D01*
X14498900Y-12467271D01*
X14498900Y-12624414D01*
X14498900Y-12467271D02*
X14513186Y-12438700D01*
X14541757Y-12424414D01*
X14584614Y-12424414D01*
X14613186Y-12438700D01*
X14627471Y-12467271D01*
X14627471Y-12624414D01*
X14770328Y-12624414D02*
X14770328Y-12424414D01*
X14770328Y-12452986D02*
X14784614Y-12438700D01*
X14813186Y-12424414D01*
X14856043Y-12424414D01*
X14884614Y-12438700D01*
X14898900Y-12467271D01*
X14898900Y-12624414D01*
X14898900Y-12467271D02*
X14913186Y-12438700D01*
X14941757Y-12424414D01*
X14984614Y-12424414D01*
X15013186Y-12438700D01*
X15027471Y-12467271D01*
X15027471Y-12624414D01*
X15613186Y-12310129D02*
X15356043Y-12695843D01*
X15998900Y-12324414D02*
X16027471Y-12324414D01*
X16056043Y-12338700D01*
X16070328Y-12352986D01*
X16084614Y-12381557D01*
X16098900Y-12438700D01*
X16098900Y-12510129D01*
X16084614Y-12567271D01*
X16070328Y-12595843D01*
X16056043Y-12610129D01*
X16027471Y-12624414D01*
X15998900Y-12624414D01*
X15970328Y-12610129D01*
X15956043Y-12595843D01*
X15941757Y-12567271D01*
X15927471Y-12510129D01*
X15927471Y-12438700D01*
X15941757Y-12381557D01*
X15956043Y-12352986D01*
X15970328Y-12338700D01*
X15998900Y-12324414D01*
X16227471Y-12595843D02*
X16241757Y-12610129D01*
X16227471Y-12624414D01*
X16213186Y-12610129D01*
X16227471Y-12595843D01*
X16227471Y-12624414D01*
X16427471Y-12324414D02*
X16456043Y-12324414D01*
X16484614Y-12338700D01*
X16498900Y-12352986D01*
X16513185Y-12381557D01*
X16527471Y-12438700D01*
X16527471Y-12510129D01*
X16513185Y-12567271D01*
X16498900Y-12595843D01*
X16484614Y-12610129D01*
X16456043Y-12624414D01*
X16427471Y-12624414D01*
X16398900Y-12610129D01*
X16384614Y-12595843D01*
X16370328Y-12567271D01*
X16356043Y-12510129D01*
X16356043Y-12438700D01*
X16370328Y-12381557D01*
X16384614Y-12352986D01*
X16398900Y-12338700D01*
X16427471Y-12324414D01*
X16798900Y-12324414D02*
X16656043Y-12324414D01*
X16641757Y-12467271D01*
X16656043Y-12452986D01*
X16684614Y-12438700D01*
X16756043Y-12438700D01*
X16784614Y-12452986D01*
X16798900Y-12467271D01*
X16813186Y-12495843D01*
X16813186Y-12567271D01*
X16798900Y-12595843D01*
X16784614Y-12610129D01*
X16756043Y-12624414D01*
X16684614Y-12624414D01*
X16656043Y-12610129D01*
X16641757Y-12595843D01*
X17098900Y-12624414D02*
X16927471Y-12624414D01*
X17013186Y-12624414D02*
X17013186Y-12324414D01*
X16984614Y-12367271D01*
X16956043Y-12395843D01*
X16927471Y-12410129D01*
X17213186Y-12324414D02*
X17213186Y-12381557D01*
X17327471Y-12324414D02*
X17327471Y-12381557D01*
X17770328Y-12738700D02*
X17756043Y-12724414D01*
X17727471Y-12681557D01*
X17713186Y-12652986D01*
X17698900Y-12610129D01*
X17684614Y-12538700D01*
X17684614Y-12481557D01*
X17698900Y-12410129D01*
X17713186Y-12367271D01*
X17727471Y-12338700D01*
X17756043Y-12295843D01*
X17770328Y-12281557D01*
X17870328Y-12352986D02*
X17884614Y-12338700D01*
X17913186Y-12324414D01*
X17984614Y-12324414D01*
X18013186Y-12338700D01*
X18027471Y-12352986D01*
X18041757Y-12381557D01*
X18041757Y-12410129D01*
X18027471Y-12452986D01*
X17856043Y-12624414D01*
X18041757Y-12624414D01*
X18227471Y-12324414D02*
X18256043Y-12324414D01*
X18284614Y-12338700D01*
X18298900Y-12352986D01*
X18313186Y-12381557D01*
X18327471Y-12438700D01*
X18327471Y-12510129D01*
X18313186Y-12567271D01*
X18298900Y-12595843D01*
X18284614Y-12610129D01*
X18256043Y-12624414D01*
X18227471Y-12624414D01*
X18198900Y-12610129D01*
X18184614Y-12595843D01*
X18170328Y-12567271D01*
X18156043Y-12510129D01*
X18156043Y-12438700D01*
X18170328Y-12381557D01*
X18184614Y-12352986D01*
X18198900Y-12338700D01*
X18227471Y-12324414D01*
X18684614Y-12624414D02*
X18684614Y-12324414D01*
X18813186Y-12624414D02*
X18813186Y-12467271D01*
X18798900Y-12438700D01*
X18770328Y-12424414D01*
X18727471Y-12424414D01*
X18698900Y-12438700D01*
X18684614Y-12452986D01*
X18998900Y-12624414D02*
X18970328Y-12610129D01*
X18956043Y-12595843D01*
X18941757Y-12567271D01*
X18941757Y-12481557D01*
X18956043Y-12452986D01*
X18970328Y-12438700D01*
X18998900Y-12424414D01*
X19041757Y-12424414D01*
X19070328Y-12438700D01*
X19084614Y-12452986D01*
X19098900Y-12481557D01*
X19098900Y-12567271D01*
X19084614Y-12595843D01*
X19070328Y-12610129D01*
X19041757Y-12624414D01*
X18998900Y-12624414D01*
X19270328Y-12624414D02*
X19241757Y-12610129D01*
X19227471Y-12581557D01*
X19227471Y-12324414D01*
X19498900Y-12610129D02*
X19470329Y-12624414D01*
X19413186Y-12624414D01*
X19384614Y-12610129D01*
X19370329Y-12581557D01*
X19370329Y-12467271D01*
X19384614Y-12438700D01*
X19413186Y-12424414D01*
X19470329Y-12424414D01*
X19498900Y-12438700D01*
X19513186Y-12467271D01*
X19513186Y-12495843D01*
X19370329Y-12524414D01*
X19627471Y-12610129D02*
X19656043Y-12624414D01*
X19713186Y-12624414D01*
X19741757Y-12610129D01*
X19756043Y-12581557D01*
X19756043Y-12567271D01*
X19741757Y-12538700D01*
X19713186Y-12524414D01*
X19670329Y-12524414D01*
X19641757Y-12510129D01*
X19627471Y-12481557D01*
X19627471Y-12467271D01*
X19641757Y-12438700D01*
X19670329Y-12424414D01*
X19713186Y-12424414D01*
X19741757Y-12438700D01*
X19856043Y-12738700D02*
X19870329Y-12724414D01*
X19898900Y-12681557D01*
X19913186Y-12652986D01*
X19927471Y-12610129D01*
X19941757Y-12538700D01*
X19941757Y-12481557D01*
X19927471Y-12410129D01*
X19913186Y-12367271D01*
X19898900Y-12338700D01*
X19870329Y-12295843D01*
X19856043Y-12281557D01*
M02*
