G04 #@! TF.GenerationSoftware,KiCad,Pcbnew,(5.0.1)-3*
G04 #@! TF.CreationDate,2019-04-12T12:40:20-05:00*
G04 #@! TF.ProjectId,New_I2C_ports,4E65775F4932435F706F7274732E6B69,rev?*
G04 #@! TF.SameCoordinates,Original*
G04 #@! TF.FileFunction,Copper,L2,Bot,Signal*
G04 #@! TF.FilePolarity,Positive*
%FSLAX46Y46*%
G04 Gerber Fmt 4.6, Leading zero omitted, Abs format (unit mm)*
G04 Created by KiCad (PCBNEW (5.0.1)-3) date 12/04/2019 12:40:20*
%MOMM*%
%LPD*%
G01*
G04 APERTURE LIST*
G04 #@! TA.AperFunction,ComponentPad*
%ADD10R,2.199640X1.524000*%
G04 #@! TD*
G04 #@! TA.AperFunction,ComponentPad*
%ADD11O,2.199640X1.524000*%
G04 #@! TD*
G04 #@! TA.AperFunction,ComponentPad*
%ADD12O,1.501140X2.199640*%
G04 #@! TD*
G04 #@! TA.AperFunction,ComponentPad*
%ADD13C,2.500000*%
G04 #@! TD*
G04 #@! TA.AperFunction,ComponentPad*
%ADD14C,3.000000*%
G04 #@! TD*
G04 #@! TA.AperFunction,ComponentPad*
%ADD15R,1.524000X2.199640*%
G04 #@! TD*
G04 #@! TA.AperFunction,ComponentPad*
%ADD16O,1.524000X2.199640*%
G04 #@! TD*
G04 #@! TA.AperFunction,ViaPad*
%ADD17C,0.800000*%
G04 #@! TD*
G04 #@! TA.AperFunction,Conductor*
%ADD18C,0.600000*%
G04 #@! TD*
G04 #@! TA.AperFunction,Conductor*
%ADD19C,0.254000*%
G04 #@! TD*
G04 APERTURE END LIST*
D10*
G04 #@! TO.P,A2,1*
G04 #@! TO.N,+5V*
X106680000Y-128270000D03*
D11*
G04 #@! TO.P,A2,2*
G04 #@! TO.N,Net-(P4-Pad2)*
X106680000Y-130810000D03*
G04 #@! TO.P,A2,3*
G04 #@! TO.N,GND*
X106680000Y-133350000D03*
G04 #@! TD*
D12*
G04 #@! TO.P,U1,1*
G04 #@! TO.N,Net-(P2-Pad2)*
X113030000Y-133350000D03*
G04 #@! TO.P,U1,2*
G04 #@! TO.N,Net-(P3-Pad2)*
X115570000Y-133350000D03*
G04 #@! TO.P,U1,3*
G04 #@! TO.N,Net-(P4-Pad2)*
X118110000Y-133350000D03*
G04 #@! TO.P,U1,4*
G04 #@! TO.N,IN1*
X120650000Y-133350000D03*
G04 #@! TO.P,U1,5*
G04 #@! TO.N,IN2*
X123190000Y-133350000D03*
G04 #@! TO.P,U1,6*
G04 #@! TO.N,IN3*
X125730000Y-133350000D03*
G04 #@! TO.P,U1,7*
G04 #@! TO.N,IN4*
X128270000Y-133350000D03*
G04 #@! TO.P,U1,8*
G04 #@! TO.N,GND*
X130810000Y-133350000D03*
G04 #@! TO.P,U1,9*
G04 #@! TO.N,IN5*
X130810000Y-125730000D03*
G04 #@! TO.P,U1,10*
G04 #@! TO.N,IN6*
X128270000Y-125730000D03*
G04 #@! TO.P,U1,11*
G04 #@! TO.N,IN7*
X125730000Y-125730000D03*
G04 #@! TO.P,U1,12*
G04 #@! TO.N,IN8*
X123190000Y-125730000D03*
G04 #@! TO.P,U1,13*
G04 #@! TO.N,N/C*
X120650000Y-125730000D03*
G04 #@! TO.P,U1,14*
G04 #@! TO.N,SCL*
X118110000Y-125730000D03*
G04 #@! TO.P,U1,15*
G04 #@! TO.N,SDA*
X115570000Y-125730000D03*
G04 #@! TO.P,U1,16*
G04 #@! TO.N,+5V*
X113030000Y-125730000D03*
G04 #@! TD*
D13*
G04 #@! TO.P,J3,2*
G04 #@! TO.N,B1*
X203200000Y-143510000D03*
G04 #@! TO.P,J3,1*
G04 #@! TO.N,B0*
X198200000Y-143510000D03*
G04 #@! TO.P,J3,3*
G04 #@! TO.N,GND*
X208200000Y-143510000D03*
G04 #@! TD*
G04 #@! TO.P,J2,3*
G04 #@! TO.N,GND*
X191690000Y-143510000D03*
G04 #@! TO.P,J2,1*
G04 #@! TO.N,A2*
X181690000Y-143510000D03*
G04 #@! TO.P,J2,2*
G04 #@! TO.N,A3*
X186690000Y-143510000D03*
G04 #@! TD*
G04 #@! TO.P,P1,4*
G04 #@! TO.N,GND*
X85090000Y-133230000D03*
G04 #@! TO.P,P1,3*
G04 #@! TO.N,SCL*
X85090000Y-128230000D03*
G04 #@! TO.P,P1,1*
G04 #@! TO.N,+5V*
X85090000Y-118230000D03*
G04 #@! TO.P,P1,2*
G04 #@! TO.N,SDA*
X85090000Y-123230000D03*
G04 #@! TD*
D10*
G04 #@! TO.P,A0,1*
G04 #@! TO.N,+5V*
X99060000Y-128270000D03*
D11*
G04 #@! TO.P,A0,2*
G04 #@! TO.N,Net-(P2-Pad2)*
X99060000Y-130810000D03*
G04 #@! TO.P,A0,3*
G04 #@! TO.N,GND*
X99060000Y-133350000D03*
G04 #@! TD*
G04 #@! TO.P,A1,3*
G04 #@! TO.N,GND*
X102870000Y-133350000D03*
G04 #@! TO.P,A1,2*
G04 #@! TO.N,Net-(P3-Pad2)*
X102870000Y-130810000D03*
D10*
G04 #@! TO.P,A1,1*
G04 #@! TO.N,+5V*
X102870000Y-128270000D03*
G04 #@! TD*
D13*
G04 #@! TO.P,P6,2*
G04 #@! TO.N,SDA*
X205740000Y-128230000D03*
G04 #@! TO.P,P6,1*
G04 #@! TO.N,+5V*
X205740000Y-133230000D03*
G04 #@! TO.P,P6,3*
G04 #@! TO.N,SCL*
X205740000Y-123230000D03*
G04 #@! TO.P,P6,4*
G04 #@! TO.N,GND*
X205740000Y-118230000D03*
G04 #@! TD*
G04 #@! TO.P,J1,3*
G04 #@! TO.N,GND*
X175180000Y-143510000D03*
G04 #@! TO.P,J1,1*
G04 #@! TO.N,A0*
X165180000Y-143510000D03*
G04 #@! TO.P,J1,2*
G04 #@! TO.N,A1*
X170180000Y-143510000D03*
G04 #@! TD*
G04 #@! TO.P,P5,16*
G04 #@! TO.N,GND*
X158150000Y-143510000D03*
G04 #@! TO.P,P5,15*
G04 #@! TO.N,IN8*
X153150000Y-143510000D03*
G04 #@! TO.P,P5,14*
G04 #@! TO.N,GND*
X148150000Y-143510000D03*
G04 #@! TO.P,P5,13*
G04 #@! TO.N,IN7*
X143150000Y-143510000D03*
G04 #@! TO.P,P5,12*
G04 #@! TO.N,GND*
X138150000Y-143510000D03*
G04 #@! TO.P,P5,11*
G04 #@! TO.N,IN6*
X133150000Y-143510000D03*
G04 #@! TO.P,P5,10*
G04 #@! TO.N,GND*
X128150000Y-143510000D03*
G04 #@! TO.P,P5,9*
G04 #@! TO.N,IN5*
X123150000Y-143510000D03*
G04 #@! TO.P,P5,8*
G04 #@! TO.N,GND*
X118150000Y-143510000D03*
G04 #@! TO.P,P5,7*
G04 #@! TO.N,IN4*
X113150000Y-143510000D03*
G04 #@! TO.P,P5,6*
G04 #@! TO.N,GND*
X108150000Y-143510000D03*
G04 #@! TO.P,P5,5*
G04 #@! TO.N,IN3*
X103150000Y-143510000D03*
G04 #@! TO.P,P5,4*
G04 #@! TO.N,GND*
X98150000Y-143510000D03*
G04 #@! TO.P,P5,3*
G04 #@! TO.N,IN2*
X93150000Y-143510000D03*
G04 #@! TO.P,P5,1*
G04 #@! TO.N,IN1*
X83150000Y-143510000D03*
G04 #@! TO.P,P5,2*
G04 #@! TO.N,GND*
X88150000Y-143510000D03*
G04 #@! TD*
D14*
G04 #@! TO.P,J6,2*
G04 #@! TO.N,N/C*
X92710000Y-133350000D03*
G04 #@! TO.P,J6,1*
X92710000Y-120840500D03*
G04 #@! TD*
G04 #@! TO.P,J7,1*
G04 #@! TO.N,N/C*
X198120000Y-120840500D03*
G04 #@! TO.P,J7,2*
X198120000Y-133350000D03*
G04 #@! TD*
D15*
G04 #@! TO.P,J4,1*
G04 #@! TO.N,+5V*
X138938000Y-132080000D03*
D16*
G04 #@! TO.P,J4,2*
G04 #@! TO.N,GND*
X141478000Y-132080000D03*
G04 #@! TO.P,J4,3*
G04 #@! TO.N,SCL*
X144018000Y-132080000D03*
G04 #@! TO.P,J4,4*
G04 #@! TO.N,SDA*
X146558000Y-132080000D03*
G04 #@! TO.P,J4,5*
G04 #@! TO.N,GND*
X149098000Y-132080000D03*
G04 #@! TO.P,J4,6*
G04 #@! TO.N,N/C*
X151638000Y-132080000D03*
G04 #@! TO.P,J4,7*
G04 #@! TO.N,A0*
X154178000Y-132080000D03*
G04 #@! TO.P,J4,8*
G04 #@! TO.N,A1*
X156718000Y-132080000D03*
G04 #@! TO.P,J4,9*
G04 #@! TO.N,A2*
X159258000Y-132080000D03*
G04 #@! TO.P,J4,10*
G04 #@! TO.N,A3*
X161798000Y-132080000D03*
G04 #@! TD*
D15*
G04 #@! TO.P,J5,1*
G04 #@! TO.N,+5V*
X168910000Y-132080000D03*
D16*
G04 #@! TO.P,J5,2*
G04 #@! TO.N,GND*
X171450000Y-132080000D03*
G04 #@! TO.P,J5,3*
G04 #@! TO.N,SCL*
X173990000Y-132080000D03*
G04 #@! TO.P,J5,4*
G04 #@! TO.N,SDA*
X176530000Y-132080000D03*
G04 #@! TO.P,J5,5*
G04 #@! TO.N,+5V*
X179070000Y-132080000D03*
G04 #@! TO.P,J5,6*
G04 #@! TO.N,N/C*
X181610000Y-132080000D03*
G04 #@! TO.P,J5,7*
G04 #@! TO.N,B0*
X184150000Y-132080000D03*
G04 #@! TO.P,J5,8*
G04 #@! TO.N,B1*
X186690000Y-132080000D03*
G04 #@! TO.P,J5,9*
G04 #@! TO.N,N/C*
X189230000Y-132080000D03*
G04 #@! TO.P,J5,10*
X191770000Y-132080000D03*
G04 #@! TD*
D17*
G04 #@! TO.N,GND*
X132481200Y-131531400D03*
G04 #@! TD*
D18*
G04 #@! TO.N,GND*
X118150000Y-143510000D02*
X119900400Y-145260400D01*
X119900400Y-145260400D02*
X126399600Y-145260400D01*
X126399600Y-145260400D02*
X128150000Y-143510000D01*
X158150000Y-143510000D02*
X159900400Y-145260400D01*
X159900400Y-145260400D02*
X173429600Y-145260400D01*
X173429600Y-145260400D02*
X175180000Y-143510000D01*
X158150000Y-143510000D02*
X156399600Y-145260400D01*
X156399600Y-145260400D02*
X149900400Y-145260400D01*
X149900400Y-145260400D02*
X148150000Y-143510000D01*
X130810000Y-133350000D02*
X130810000Y-131650100D01*
X130810000Y-131650100D02*
X132362500Y-131650100D01*
X132362500Y-131650100D02*
X132481200Y-131531400D01*
X191690000Y-143510000D02*
X189939600Y-145260400D01*
X189939600Y-145260400D02*
X176930400Y-145260400D01*
X176930400Y-145260400D02*
X175180000Y-143510000D01*
G04 #@! TO.N,+5V*
X85090000Y-118230000D02*
X95130000Y-128270000D01*
X95130000Y-128270000D02*
X99060000Y-128270000D01*
X113030000Y-125730000D02*
X111679400Y-125730000D01*
X106680000Y-128270000D02*
X109139400Y-128270000D01*
X109139400Y-128270000D02*
X111679400Y-125730000D01*
X168910000Y-132080000D02*
X171332500Y-134502500D01*
X171332500Y-134502500D02*
X176647500Y-134502500D01*
X176647500Y-134502500D02*
X179070000Y-132080000D01*
X179070000Y-132080000D02*
X180710300Y-130439700D01*
X180710300Y-130439700D02*
X202949700Y-130439700D01*
X202949700Y-130439700D02*
X205740000Y-133230000D01*
G04 #@! TO.N,IN8*
X153150000Y-143510000D02*
X150720400Y-143510000D01*
X150720400Y-143510000D02*
X140207600Y-132997200D01*
X140207600Y-132997200D02*
X140207600Y-130699700D01*
X140207600Y-130699700D02*
X131988000Y-122480100D01*
X131988000Y-122480100D02*
X126439900Y-122480100D01*
X126439900Y-122480100D02*
X123190000Y-125730000D01*
G04 #@! TO.N,IN7*
X143150000Y-143510000D02*
X135163600Y-135523600D01*
X135163600Y-135523600D02*
X135163600Y-126789700D01*
X135163600Y-126789700D02*
X131654500Y-123280600D01*
X131654500Y-123280600D02*
X128179400Y-123280600D01*
X128179400Y-123280600D02*
X125730000Y-125730000D01*
G04 #@! TO.N,IN6*
X133150000Y-143510000D02*
X133381500Y-143278500D01*
X133381500Y-143278500D02*
X133381500Y-126174400D01*
X133381500Y-126174400D02*
X131322600Y-124115500D01*
X131322600Y-124115500D02*
X129884500Y-124115500D01*
X129884500Y-124115500D02*
X128270000Y-125730000D01*
G04 #@! TO.N,IN5*
X123150000Y-143510000D02*
X129521000Y-137139000D01*
X129521000Y-137139000D02*
X129521000Y-127019000D01*
X129521000Y-127019000D02*
X130810000Y-125730000D01*
G04 #@! TO.N,IN4*
X113150000Y-143510000D02*
X116692300Y-139967700D01*
X116692300Y-139967700D02*
X121652300Y-139967700D01*
X121652300Y-139967700D02*
X128270000Y-133350000D01*
G04 #@! TO.N,IN3*
X103150000Y-143510000D02*
X108205300Y-138454700D01*
X108205300Y-138454700D02*
X120625300Y-138454700D01*
X120625300Y-138454700D02*
X125730000Y-133350000D01*
G04 #@! TO.N,IN1*
X83150000Y-143510000D02*
X90612900Y-136047100D01*
X90612900Y-136047100D02*
X117952900Y-136047100D01*
X117952900Y-136047100D02*
X120650000Y-133350000D01*
G04 #@! TO.N,IN2*
X123190000Y-133350000D02*
X119055400Y-137484600D01*
X119055400Y-137484600D02*
X99175400Y-137484600D01*
X99175400Y-137484600D02*
X93150000Y-143510000D01*
G04 #@! TO.N,SDA*
X146558000Y-132080000D02*
X148227300Y-130410700D01*
X148227300Y-130410700D02*
X171967100Y-130410700D01*
X171967100Y-130410700D02*
X172720000Y-131163600D01*
X172720000Y-131163600D02*
X172720000Y-132944300D01*
X172720000Y-132944300D02*
X173477900Y-133702200D01*
X173477900Y-133702200D02*
X174907800Y-133702200D01*
X174907800Y-133702200D02*
X176530000Y-132080000D01*
G04 #@! TO.N,SCL*
X144018000Y-132080000D02*
X133589800Y-121651800D01*
X133589800Y-121651800D02*
X122188200Y-121651800D01*
X122188200Y-121651800D02*
X118110000Y-125730000D01*
X173990000Y-130380100D02*
X173211600Y-129601700D01*
X173211600Y-129601700D02*
X146496300Y-129601700D01*
X146496300Y-129601700D02*
X144018000Y-132080000D01*
X205740000Y-123230000D02*
X181140100Y-123230000D01*
X181140100Y-123230000D02*
X173990000Y-130380100D01*
X173990000Y-132080000D02*
X173990000Y-130380100D01*
X118110000Y-125730000D02*
X114292300Y-129547700D01*
X114292300Y-129547700D02*
X86407700Y-129547700D01*
X86407700Y-129547700D02*
X85090000Y-128230000D01*
G04 #@! TO.N,Net-(P4-Pad2)*
X118110000Y-133350000D02*
X115570000Y-130810000D01*
X115570000Y-130810000D02*
X106680000Y-130810000D01*
G04 #@! TO.N,A3*
X186690000Y-143510000D02*
X181139100Y-137959100D01*
X181139100Y-137959100D02*
X169039100Y-137959100D01*
X169039100Y-137959100D02*
X163160000Y-132080000D01*
X161798000Y-132080000D02*
X163160000Y-132080000D01*
G04 #@! TO.N,A2*
X159258000Y-132080000D02*
X167832900Y-140654900D01*
X167832900Y-140654900D02*
X178834900Y-140654900D01*
X178834900Y-140654900D02*
X181690000Y-143510000D01*
G04 #@! TO.N,B1*
X186690000Y-132080000D02*
X193176800Y-138566800D01*
X193176800Y-138566800D02*
X198256800Y-138566800D01*
X198256800Y-138566800D02*
X203200000Y-143510000D01*
G04 #@! TO.N,Net-(P3-Pad2)*
X102870000Y-130810000D02*
X104132400Y-132072400D01*
X104132400Y-132072400D02*
X109464600Y-132072400D01*
X109464600Y-132072400D02*
X109811100Y-131725900D01*
X109811100Y-131725900D02*
X113945900Y-131725900D01*
X113945900Y-131725900D02*
X115570000Y-133350000D01*
G04 #@! TD*
D19*
G04 #@! TO.N,GND*
G36*
X211007787Y-115054065D02*
X211172920Y-115149405D01*
X211295488Y-115295477D01*
X211371555Y-115504465D01*
X211380001Y-115601007D01*
X211380000Y-148527881D01*
X211335935Y-148777787D01*
X211240596Y-148942919D01*
X211094524Y-149065488D01*
X210885532Y-149141555D01*
X210789004Y-149150000D01*
X80072119Y-149150000D01*
X79822213Y-149105935D01*
X79657081Y-149010596D01*
X79534512Y-148864524D01*
X79458445Y-148655532D01*
X79450000Y-148559004D01*
X79450000Y-143135050D01*
X81265000Y-143135050D01*
X81265000Y-143884950D01*
X81551974Y-144577767D01*
X82082233Y-145108026D01*
X82775050Y-145395000D01*
X83524950Y-145395000D01*
X84217767Y-145108026D01*
X84482473Y-144843320D01*
X86996285Y-144843320D01*
X87125533Y-145136123D01*
X87825806Y-145404388D01*
X88575435Y-145384250D01*
X89174467Y-145136123D01*
X89303715Y-144843320D01*
X88150000Y-143689605D01*
X86996285Y-144843320D01*
X84482473Y-144843320D01*
X84748026Y-144577767D01*
X85035000Y-143884950D01*
X85035000Y-143185806D01*
X86255612Y-143185806D01*
X86275750Y-143935435D01*
X86523877Y-144534467D01*
X86816680Y-144663715D01*
X87970395Y-143510000D01*
X88329605Y-143510000D01*
X89483320Y-144663715D01*
X89776123Y-144534467D01*
X90044388Y-143834194D01*
X90024250Y-143084565D01*
X89776123Y-142485533D01*
X89483320Y-142356285D01*
X88329605Y-143510000D01*
X87970395Y-143510000D01*
X86816680Y-142356285D01*
X86523877Y-142485533D01*
X86255612Y-143185806D01*
X85035000Y-143185806D01*
X85035000Y-143135050D01*
X84980006Y-143002283D01*
X85805609Y-142176680D01*
X86996285Y-142176680D01*
X88150000Y-143330395D01*
X89303715Y-142176680D01*
X89174467Y-141883877D01*
X88474194Y-141615612D01*
X87724565Y-141635750D01*
X87125533Y-141883877D01*
X86996285Y-142176680D01*
X85805609Y-142176680D01*
X91000190Y-136982100D01*
X98355610Y-136982100D01*
X93657717Y-141679994D01*
X93524950Y-141625000D01*
X92775050Y-141625000D01*
X92082233Y-141911974D01*
X91551974Y-142442233D01*
X91265000Y-143135050D01*
X91265000Y-143884950D01*
X91551974Y-144577767D01*
X92082233Y-145108026D01*
X92775050Y-145395000D01*
X93524950Y-145395000D01*
X94217767Y-145108026D01*
X94482473Y-144843320D01*
X96996285Y-144843320D01*
X97125533Y-145136123D01*
X97825806Y-145404388D01*
X98575435Y-145384250D01*
X99174467Y-145136123D01*
X99303715Y-144843320D01*
X98150000Y-143689605D01*
X96996285Y-144843320D01*
X94482473Y-144843320D01*
X94748026Y-144577767D01*
X95035000Y-143884950D01*
X95035000Y-143185806D01*
X96255612Y-143185806D01*
X96275750Y-143935435D01*
X96523877Y-144534467D01*
X96816680Y-144663715D01*
X97970395Y-143510000D01*
X98329605Y-143510000D01*
X99483320Y-144663715D01*
X99776123Y-144534467D01*
X100044388Y-143834194D01*
X100024250Y-143084565D01*
X99776123Y-142485533D01*
X99483320Y-142356285D01*
X98329605Y-143510000D01*
X97970395Y-143510000D01*
X96816680Y-142356285D01*
X96523877Y-142485533D01*
X96255612Y-143185806D01*
X95035000Y-143185806D01*
X95035000Y-143135050D01*
X94980006Y-143002283D01*
X95805609Y-142176680D01*
X96996285Y-142176680D01*
X98150000Y-143330395D01*
X99303715Y-142176680D01*
X99174467Y-141883877D01*
X98474194Y-141615612D01*
X97724565Y-141635750D01*
X97125533Y-141883877D01*
X96996285Y-142176680D01*
X95805609Y-142176680D01*
X99562690Y-138419600D01*
X106918110Y-138419600D01*
X103657717Y-141679994D01*
X103524950Y-141625000D01*
X102775050Y-141625000D01*
X102082233Y-141911974D01*
X101551974Y-142442233D01*
X101265000Y-143135050D01*
X101265000Y-143884950D01*
X101551974Y-144577767D01*
X102082233Y-145108026D01*
X102775050Y-145395000D01*
X103524950Y-145395000D01*
X104217767Y-145108026D01*
X104482473Y-144843320D01*
X106996285Y-144843320D01*
X107125533Y-145136123D01*
X107825806Y-145404388D01*
X108575435Y-145384250D01*
X109174467Y-145136123D01*
X109303715Y-144843320D01*
X108150000Y-143689605D01*
X106996285Y-144843320D01*
X104482473Y-144843320D01*
X104748026Y-144577767D01*
X105035000Y-143884950D01*
X105035000Y-143185806D01*
X106255612Y-143185806D01*
X106275750Y-143935435D01*
X106523877Y-144534467D01*
X106816680Y-144663715D01*
X107970395Y-143510000D01*
X108329605Y-143510000D01*
X109483320Y-144663715D01*
X109776123Y-144534467D01*
X110044388Y-143834194D01*
X110024250Y-143084565D01*
X109776123Y-142485533D01*
X109483320Y-142356285D01*
X108329605Y-143510000D01*
X107970395Y-143510000D01*
X106816680Y-142356285D01*
X106523877Y-142485533D01*
X106255612Y-143185806D01*
X105035000Y-143185806D01*
X105035000Y-143135050D01*
X104980006Y-143002283D01*
X105805609Y-142176680D01*
X106996285Y-142176680D01*
X108150000Y-143330395D01*
X109303715Y-142176680D01*
X109174467Y-141883877D01*
X108474194Y-141615612D01*
X107724565Y-141635750D01*
X107125533Y-141883877D01*
X106996285Y-142176680D01*
X105805609Y-142176680D01*
X108592590Y-139389700D01*
X115948011Y-139389700D01*
X113657717Y-141679994D01*
X113524950Y-141625000D01*
X112775050Y-141625000D01*
X112082233Y-141911974D01*
X111551974Y-142442233D01*
X111265000Y-143135050D01*
X111265000Y-143884950D01*
X111551974Y-144577767D01*
X112082233Y-145108026D01*
X112775050Y-145395000D01*
X113524950Y-145395000D01*
X114217767Y-145108026D01*
X114482473Y-144843320D01*
X116996285Y-144843320D01*
X117125533Y-145136123D01*
X117825806Y-145404388D01*
X118575435Y-145384250D01*
X119174467Y-145136123D01*
X119303715Y-144843320D01*
X118150000Y-143689605D01*
X116996285Y-144843320D01*
X114482473Y-144843320D01*
X114748026Y-144577767D01*
X115035000Y-143884950D01*
X115035000Y-143185806D01*
X116255612Y-143185806D01*
X116275750Y-143935435D01*
X116523877Y-144534467D01*
X116816680Y-144663715D01*
X117970395Y-143510000D01*
X118329605Y-143510000D01*
X119483320Y-144663715D01*
X119776123Y-144534467D01*
X120044388Y-143834194D01*
X120024250Y-143084565D01*
X119776123Y-142485533D01*
X119483320Y-142356285D01*
X118329605Y-143510000D01*
X117970395Y-143510000D01*
X116816680Y-142356285D01*
X116523877Y-142485533D01*
X116255612Y-143185806D01*
X115035000Y-143185806D01*
X115035000Y-143135050D01*
X114980006Y-143002283D01*
X115805609Y-142176680D01*
X116996285Y-142176680D01*
X118150000Y-143330395D01*
X119303715Y-142176680D01*
X119174467Y-141883877D01*
X118474194Y-141615612D01*
X117724565Y-141635750D01*
X117125533Y-141883877D01*
X116996285Y-142176680D01*
X115805609Y-142176680D01*
X117079589Y-140902700D01*
X121560214Y-140902700D01*
X121652300Y-140921017D01*
X121744386Y-140902700D01*
X122017119Y-140848450D01*
X122326397Y-140641797D01*
X122378561Y-140563728D01*
X127903272Y-135039017D01*
X128270000Y-135111964D01*
X128586000Y-135049108D01*
X128586000Y-136751711D01*
X123657717Y-141679994D01*
X123524950Y-141625000D01*
X122775050Y-141625000D01*
X122082233Y-141911974D01*
X121551974Y-142442233D01*
X121265000Y-143135050D01*
X121265000Y-143884950D01*
X121551974Y-144577767D01*
X122082233Y-145108026D01*
X122775050Y-145395000D01*
X123524950Y-145395000D01*
X124217767Y-145108026D01*
X124482473Y-144843320D01*
X126996285Y-144843320D01*
X127125533Y-145136123D01*
X127825806Y-145404388D01*
X128575435Y-145384250D01*
X129174467Y-145136123D01*
X129303715Y-144843320D01*
X128150000Y-143689605D01*
X126996285Y-144843320D01*
X124482473Y-144843320D01*
X124748026Y-144577767D01*
X125035000Y-143884950D01*
X125035000Y-143185806D01*
X126255612Y-143185806D01*
X126275750Y-143935435D01*
X126523877Y-144534467D01*
X126816680Y-144663715D01*
X127970395Y-143510000D01*
X128329605Y-143510000D01*
X129483320Y-144663715D01*
X129776123Y-144534467D01*
X130044388Y-143834194D01*
X130024250Y-143084565D01*
X129776123Y-142485533D01*
X129483320Y-142356285D01*
X128329605Y-143510000D01*
X127970395Y-143510000D01*
X126816680Y-142356285D01*
X126523877Y-142485533D01*
X126255612Y-143185806D01*
X125035000Y-143185806D01*
X125035000Y-143135050D01*
X124980006Y-143002283D01*
X125805609Y-142176680D01*
X126996285Y-142176680D01*
X128150000Y-143330395D01*
X129303715Y-142176680D01*
X129174467Y-141883877D01*
X128474194Y-141615612D01*
X127724565Y-141635750D01*
X127125533Y-141883877D01*
X126996285Y-142176680D01*
X125805609Y-142176680D01*
X130117028Y-137865261D01*
X130195097Y-137813097D01*
X130401750Y-137503819D01*
X130456000Y-137231086D01*
X130456000Y-137231085D01*
X130474317Y-137139000D01*
X130456000Y-137046914D01*
X130456000Y-135039613D01*
X130468725Y-135042133D01*
X130683000Y-134919479D01*
X130683000Y-133477000D01*
X130937000Y-133477000D01*
X130937000Y-134919479D01*
X131151275Y-135042133D01*
X131222903Y-135027950D01*
X131699944Y-134768798D01*
X132041499Y-134346817D01*
X132195570Y-133826250D01*
X132195570Y-133477000D01*
X130937000Y-133477000D01*
X130683000Y-133477000D01*
X130663000Y-133477000D01*
X130663000Y-133223000D01*
X130683000Y-133223000D01*
X130683000Y-131780521D01*
X130937000Y-131780521D01*
X130937000Y-133223000D01*
X132195570Y-133223000D01*
X132195570Y-132873750D01*
X132041499Y-132353183D01*
X131699944Y-131931202D01*
X131222903Y-131672050D01*
X131151275Y-131657867D01*
X130937000Y-131780521D01*
X130683000Y-131780521D01*
X130468725Y-131657867D01*
X130456000Y-131660387D01*
X130456000Y-127421549D01*
X130810000Y-127491964D01*
X131350622Y-127384428D01*
X131808940Y-127078190D01*
X132115178Y-126619872D01*
X132179801Y-126294990D01*
X132446501Y-126561691D01*
X132446500Y-141761090D01*
X132082233Y-141911974D01*
X131551974Y-142442233D01*
X131265000Y-143135050D01*
X131265000Y-143884950D01*
X131551974Y-144577767D01*
X132082233Y-145108026D01*
X132775050Y-145395000D01*
X133524950Y-145395000D01*
X134217767Y-145108026D01*
X134482473Y-144843320D01*
X136996285Y-144843320D01*
X137125533Y-145136123D01*
X137825806Y-145404388D01*
X138575435Y-145384250D01*
X139174467Y-145136123D01*
X139303715Y-144843320D01*
X138150000Y-143689605D01*
X136996285Y-144843320D01*
X134482473Y-144843320D01*
X134748026Y-144577767D01*
X135035000Y-143884950D01*
X135035000Y-143185806D01*
X136255612Y-143185806D01*
X136275750Y-143935435D01*
X136523877Y-144534467D01*
X136816680Y-144663715D01*
X137970395Y-143510000D01*
X138329605Y-143510000D01*
X139483320Y-144663715D01*
X139776123Y-144534467D01*
X140044388Y-143834194D01*
X140024250Y-143084565D01*
X139776123Y-142485533D01*
X139483320Y-142356285D01*
X138329605Y-143510000D01*
X137970395Y-143510000D01*
X136816680Y-142356285D01*
X136523877Y-142485533D01*
X136255612Y-143185806D01*
X135035000Y-143185806D01*
X135035000Y-143135050D01*
X134748026Y-142442233D01*
X134482473Y-142176680D01*
X136996285Y-142176680D01*
X138150000Y-143330395D01*
X139303715Y-142176680D01*
X139174467Y-141883877D01*
X138474194Y-141615612D01*
X137724565Y-141635750D01*
X137125533Y-141883877D01*
X136996285Y-142176680D01*
X134482473Y-142176680D01*
X134316500Y-142010707D01*
X134316500Y-135938779D01*
X134489503Y-136197697D01*
X134567572Y-136249861D01*
X141319994Y-143002283D01*
X141265000Y-143135050D01*
X141265000Y-143884950D01*
X141551974Y-144577767D01*
X142082233Y-145108026D01*
X142775050Y-145395000D01*
X143524950Y-145395000D01*
X144217767Y-145108026D01*
X144482473Y-144843320D01*
X146996285Y-144843320D01*
X147125533Y-145136123D01*
X147825806Y-145404388D01*
X148575435Y-145384250D01*
X149174467Y-145136123D01*
X149303715Y-144843320D01*
X148150000Y-143689605D01*
X146996285Y-144843320D01*
X144482473Y-144843320D01*
X144748026Y-144577767D01*
X145035000Y-143884950D01*
X145035000Y-143185806D01*
X146255612Y-143185806D01*
X146275750Y-143935435D01*
X146523877Y-144534467D01*
X146816680Y-144663715D01*
X147970395Y-143510000D01*
X146816680Y-142356285D01*
X146523877Y-142485533D01*
X146255612Y-143185806D01*
X145035000Y-143185806D01*
X145035000Y-143135050D01*
X144748026Y-142442233D01*
X144217767Y-141911974D01*
X143524950Y-141625000D01*
X142775050Y-141625000D01*
X142642283Y-141679994D01*
X136098600Y-135136311D01*
X136098600Y-127912990D01*
X138518350Y-130332740D01*
X138176000Y-130332740D01*
X137928235Y-130382023D01*
X137718191Y-130522371D01*
X137577843Y-130732415D01*
X137528560Y-130980180D01*
X137528560Y-133179820D01*
X137577843Y-133427585D01*
X137718191Y-133637629D01*
X137928235Y-133777977D01*
X138176000Y-133827260D01*
X139700000Y-133827260D01*
X139712821Y-133824710D01*
X147582645Y-141694535D01*
X147125533Y-141883877D01*
X146996285Y-142176680D01*
X148150000Y-143330395D01*
X148164143Y-143316253D01*
X148343748Y-143495858D01*
X148329605Y-143510000D01*
X149483320Y-144663715D01*
X149776123Y-144534467D01*
X149955177Y-144067067D01*
X149994141Y-144106031D01*
X150046303Y-144184097D01*
X150355581Y-144390750D01*
X150628314Y-144445000D01*
X150628317Y-144445000D01*
X150720399Y-144463316D01*
X150812481Y-144445000D01*
X151496980Y-144445000D01*
X151551974Y-144577767D01*
X152082233Y-145108026D01*
X152775050Y-145395000D01*
X153524950Y-145395000D01*
X154217767Y-145108026D01*
X154482473Y-144843320D01*
X156996285Y-144843320D01*
X157125533Y-145136123D01*
X157825806Y-145404388D01*
X158575435Y-145384250D01*
X159174467Y-145136123D01*
X159303715Y-144843320D01*
X158150000Y-143689605D01*
X156996285Y-144843320D01*
X154482473Y-144843320D01*
X154748026Y-144577767D01*
X155035000Y-143884950D01*
X155035000Y-143185806D01*
X156255612Y-143185806D01*
X156275750Y-143935435D01*
X156523877Y-144534467D01*
X156816680Y-144663715D01*
X157970395Y-143510000D01*
X158329605Y-143510000D01*
X159483320Y-144663715D01*
X159776123Y-144534467D01*
X160044388Y-143834194D01*
X160025607Y-143135050D01*
X163295000Y-143135050D01*
X163295000Y-143884950D01*
X163581974Y-144577767D01*
X164112233Y-145108026D01*
X164805050Y-145395000D01*
X165554950Y-145395000D01*
X166247767Y-145108026D01*
X166778026Y-144577767D01*
X167065000Y-143884950D01*
X167065000Y-143135050D01*
X168295000Y-143135050D01*
X168295000Y-143884950D01*
X168581974Y-144577767D01*
X169112233Y-145108026D01*
X169805050Y-145395000D01*
X170554950Y-145395000D01*
X171247767Y-145108026D01*
X171512473Y-144843320D01*
X174026285Y-144843320D01*
X174155533Y-145136123D01*
X174855806Y-145404388D01*
X175605435Y-145384250D01*
X176204467Y-145136123D01*
X176333715Y-144843320D01*
X175180000Y-143689605D01*
X174026285Y-144843320D01*
X171512473Y-144843320D01*
X171778026Y-144577767D01*
X172065000Y-143884950D01*
X172065000Y-143185806D01*
X173285612Y-143185806D01*
X173305750Y-143935435D01*
X173553877Y-144534467D01*
X173846680Y-144663715D01*
X175000395Y-143510000D01*
X175359605Y-143510000D01*
X176513320Y-144663715D01*
X176806123Y-144534467D01*
X177074388Y-143834194D01*
X177054250Y-143084565D01*
X176806123Y-142485533D01*
X176513320Y-142356285D01*
X175359605Y-143510000D01*
X175000395Y-143510000D01*
X173846680Y-142356285D01*
X173553877Y-142485533D01*
X173285612Y-143185806D01*
X172065000Y-143185806D01*
X172065000Y-143135050D01*
X171778026Y-142442233D01*
X171512473Y-142176680D01*
X174026285Y-142176680D01*
X175180000Y-143330395D01*
X176333715Y-142176680D01*
X176204467Y-141883877D01*
X175504194Y-141615612D01*
X174754565Y-141635750D01*
X174155533Y-141883877D01*
X174026285Y-142176680D01*
X171512473Y-142176680D01*
X171247767Y-141911974D01*
X170554950Y-141625000D01*
X169805050Y-141625000D01*
X169112233Y-141911974D01*
X168581974Y-142442233D01*
X168295000Y-143135050D01*
X167065000Y-143135050D01*
X166778026Y-142442233D01*
X166247767Y-141911974D01*
X165554950Y-141625000D01*
X164805050Y-141625000D01*
X164112233Y-141911974D01*
X163581974Y-142442233D01*
X163295000Y-143135050D01*
X160025607Y-143135050D01*
X160024250Y-143084565D01*
X159776123Y-142485533D01*
X159483320Y-142356285D01*
X158329605Y-143510000D01*
X157970395Y-143510000D01*
X156816680Y-142356285D01*
X156523877Y-142485533D01*
X156255612Y-143185806D01*
X155035000Y-143185806D01*
X155035000Y-143135050D01*
X154748026Y-142442233D01*
X154482473Y-142176680D01*
X156996285Y-142176680D01*
X158150000Y-143330395D01*
X159303715Y-142176680D01*
X159174467Y-141883877D01*
X158474194Y-141615612D01*
X157724565Y-141635750D01*
X157125533Y-141883877D01*
X156996285Y-142176680D01*
X154482473Y-142176680D01*
X154217767Y-141911974D01*
X153524950Y-141625000D01*
X152775050Y-141625000D01*
X152082233Y-141911974D01*
X151551974Y-142442233D01*
X151496980Y-142575000D01*
X151107690Y-142575000D01*
X142150742Y-133618053D01*
X142376026Y-133495450D01*
X142720059Y-133069761D01*
X142736420Y-133014331D01*
X143010821Y-133425000D01*
X143472919Y-133733764D01*
X144018000Y-133842188D01*
X144563082Y-133733764D01*
X145025180Y-133425000D01*
X145288000Y-133031662D01*
X145550821Y-133425000D01*
X146012919Y-133733764D01*
X146558000Y-133842188D01*
X147103082Y-133733764D01*
X147565180Y-133425000D01*
X147839580Y-133014331D01*
X147855941Y-133069761D01*
X148199974Y-133495450D01*
X148680723Y-133757080D01*
X148754930Y-133772040D01*
X148971000Y-133649540D01*
X148971000Y-132207000D01*
X148951000Y-132207000D01*
X148951000Y-131953000D01*
X148971000Y-131953000D01*
X148971000Y-131933000D01*
X149225000Y-131933000D01*
X149225000Y-131953000D01*
X149245000Y-131953000D01*
X149245000Y-132207000D01*
X149225000Y-132207000D01*
X149225000Y-133649540D01*
X149441070Y-133772040D01*
X149515277Y-133757080D01*
X149996026Y-133495450D01*
X150340059Y-133069761D01*
X150356420Y-133014331D01*
X150630821Y-133425000D01*
X151092919Y-133733764D01*
X151638000Y-133842188D01*
X152183082Y-133733764D01*
X152645180Y-133425000D01*
X152908000Y-133031662D01*
X153170821Y-133425000D01*
X153632919Y-133733764D01*
X154178000Y-133842188D01*
X154723082Y-133733764D01*
X155185180Y-133425000D01*
X155448000Y-133031662D01*
X155710821Y-133425000D01*
X156172919Y-133733764D01*
X156718000Y-133842188D01*
X157263082Y-133733764D01*
X157725180Y-133425000D01*
X157988000Y-133031662D01*
X158250821Y-133425000D01*
X158712919Y-133733764D01*
X159258000Y-133842188D01*
X159624915Y-133769204D01*
X167106640Y-141250930D01*
X167158803Y-141328997D01*
X167236869Y-141381159D01*
X167468081Y-141535650D01*
X167832900Y-141608217D01*
X167924986Y-141589900D01*
X178447611Y-141589900D01*
X179859994Y-143002283D01*
X179805000Y-143135050D01*
X179805000Y-143884950D01*
X180091974Y-144577767D01*
X180622233Y-145108026D01*
X181315050Y-145395000D01*
X182064950Y-145395000D01*
X182757767Y-145108026D01*
X183288026Y-144577767D01*
X183575000Y-143884950D01*
X183575000Y-143135050D01*
X183288026Y-142442233D01*
X182757767Y-141911974D01*
X182064950Y-141625000D01*
X181315050Y-141625000D01*
X181182283Y-141679994D01*
X179561161Y-140058872D01*
X179508997Y-139980803D01*
X179199719Y-139774150D01*
X178926986Y-139719900D01*
X178834900Y-139701583D01*
X178742814Y-139719900D01*
X168220190Y-139719900D01*
X162252142Y-133751853D01*
X162343082Y-133733764D01*
X162805180Y-133425000D01*
X162956398Y-133198687D01*
X168312840Y-138555130D01*
X168365003Y-138633197D01*
X168443069Y-138685359D01*
X168674281Y-138839850D01*
X169039100Y-138912417D01*
X169131186Y-138894100D01*
X180751811Y-138894100D01*
X184859994Y-143002283D01*
X184805000Y-143135050D01*
X184805000Y-143884950D01*
X185091974Y-144577767D01*
X185622233Y-145108026D01*
X186315050Y-145395000D01*
X187064950Y-145395000D01*
X187757767Y-145108026D01*
X188022473Y-144843320D01*
X190536285Y-144843320D01*
X190665533Y-145136123D01*
X191365806Y-145404388D01*
X192115435Y-145384250D01*
X192714467Y-145136123D01*
X192843715Y-144843320D01*
X191690000Y-143689605D01*
X190536285Y-144843320D01*
X188022473Y-144843320D01*
X188288026Y-144577767D01*
X188575000Y-143884950D01*
X188575000Y-143185806D01*
X189795612Y-143185806D01*
X189815750Y-143935435D01*
X190063877Y-144534467D01*
X190356680Y-144663715D01*
X191510395Y-143510000D01*
X191869605Y-143510000D01*
X193023320Y-144663715D01*
X193316123Y-144534467D01*
X193584388Y-143834194D01*
X193565607Y-143135050D01*
X196315000Y-143135050D01*
X196315000Y-143884950D01*
X196601974Y-144577767D01*
X197132233Y-145108026D01*
X197825050Y-145395000D01*
X198574950Y-145395000D01*
X199267767Y-145108026D01*
X199798026Y-144577767D01*
X200085000Y-143884950D01*
X200085000Y-143135050D01*
X199798026Y-142442233D01*
X199267767Y-141911974D01*
X198574950Y-141625000D01*
X197825050Y-141625000D01*
X197132233Y-141911974D01*
X196601974Y-142442233D01*
X196315000Y-143135050D01*
X193565607Y-143135050D01*
X193564250Y-143084565D01*
X193316123Y-142485533D01*
X193023320Y-142356285D01*
X191869605Y-143510000D01*
X191510395Y-143510000D01*
X190356680Y-142356285D01*
X190063877Y-142485533D01*
X189795612Y-143185806D01*
X188575000Y-143185806D01*
X188575000Y-143135050D01*
X188288026Y-142442233D01*
X188022473Y-142176680D01*
X190536285Y-142176680D01*
X191690000Y-143330395D01*
X192843715Y-142176680D01*
X192714467Y-141883877D01*
X192014194Y-141615612D01*
X191264565Y-141635750D01*
X190665533Y-141883877D01*
X190536285Y-142176680D01*
X188022473Y-142176680D01*
X187757767Y-141911974D01*
X187064950Y-141625000D01*
X186315050Y-141625000D01*
X186182283Y-141679994D01*
X181865361Y-137363072D01*
X181813197Y-137285003D01*
X181503919Y-137078350D01*
X181231186Y-137024100D01*
X181139100Y-137005783D01*
X181047014Y-137024100D01*
X169426390Y-137024100D01*
X163886261Y-131483972D01*
X163834097Y-131405903D01*
X163743997Y-131345700D01*
X167500560Y-131345700D01*
X167500560Y-133179820D01*
X167549843Y-133427585D01*
X167690191Y-133637629D01*
X167900235Y-133777977D01*
X168148000Y-133827260D01*
X169334971Y-133827260D01*
X170606241Y-135098531D01*
X170658403Y-135176597D01*
X170967681Y-135383250D01*
X171240414Y-135437500D01*
X171240417Y-135437500D01*
X171332499Y-135455816D01*
X171424581Y-135437500D01*
X176555414Y-135437500D01*
X176647500Y-135455817D01*
X176739586Y-135437500D01*
X177012319Y-135383250D01*
X177321597Y-135176597D01*
X177373761Y-135098528D01*
X178703086Y-133769204D01*
X179070000Y-133842188D01*
X179615082Y-133733764D01*
X180077180Y-133425000D01*
X180340000Y-133031662D01*
X180602821Y-133425000D01*
X181064919Y-133733764D01*
X181610000Y-133842188D01*
X182155082Y-133733764D01*
X182617180Y-133425000D01*
X182880000Y-133031662D01*
X183142821Y-133425000D01*
X183604919Y-133733764D01*
X184150000Y-133842188D01*
X184695082Y-133733764D01*
X185157180Y-133425000D01*
X185420000Y-133031662D01*
X185682821Y-133425000D01*
X186144919Y-133733764D01*
X186690000Y-133842188D01*
X187056915Y-133769204D01*
X192450539Y-139162828D01*
X192502703Y-139240897D01*
X192811981Y-139447550D01*
X193084714Y-139501800D01*
X193176800Y-139520117D01*
X193268886Y-139501800D01*
X197869511Y-139501800D01*
X201369994Y-143002283D01*
X201315000Y-143135050D01*
X201315000Y-143884950D01*
X201601974Y-144577767D01*
X202132233Y-145108026D01*
X202825050Y-145395000D01*
X203574950Y-145395000D01*
X204267767Y-145108026D01*
X204532473Y-144843320D01*
X207046285Y-144843320D01*
X207175533Y-145136123D01*
X207875806Y-145404388D01*
X208625435Y-145384250D01*
X209224467Y-145136123D01*
X209353715Y-144843320D01*
X208200000Y-143689605D01*
X207046285Y-144843320D01*
X204532473Y-144843320D01*
X204798026Y-144577767D01*
X205085000Y-143884950D01*
X205085000Y-143185806D01*
X206305612Y-143185806D01*
X206325750Y-143935435D01*
X206573877Y-144534467D01*
X206866680Y-144663715D01*
X208020395Y-143510000D01*
X208379605Y-143510000D01*
X209533320Y-144663715D01*
X209826123Y-144534467D01*
X210094388Y-143834194D01*
X210074250Y-143084565D01*
X209826123Y-142485533D01*
X209533320Y-142356285D01*
X208379605Y-143510000D01*
X208020395Y-143510000D01*
X206866680Y-142356285D01*
X206573877Y-142485533D01*
X206305612Y-143185806D01*
X205085000Y-143185806D01*
X205085000Y-143135050D01*
X204798026Y-142442233D01*
X204532473Y-142176680D01*
X207046285Y-142176680D01*
X208200000Y-143330395D01*
X209353715Y-142176680D01*
X209224467Y-141883877D01*
X208524194Y-141615612D01*
X207774565Y-141635750D01*
X207175533Y-141883877D01*
X207046285Y-142176680D01*
X204532473Y-142176680D01*
X204267767Y-141911974D01*
X203574950Y-141625000D01*
X202825050Y-141625000D01*
X202692283Y-141679994D01*
X198983061Y-137970772D01*
X198930897Y-137892703D01*
X198621619Y-137686050D01*
X198348886Y-137631800D01*
X198256800Y-137613483D01*
X198164714Y-137631800D01*
X193564089Y-137631800D01*
X189684142Y-133751853D01*
X189775082Y-133733764D01*
X190237180Y-133425000D01*
X190500000Y-133031662D01*
X190762821Y-133425000D01*
X191224919Y-133733764D01*
X191770000Y-133842188D01*
X192315082Y-133733764D01*
X192777180Y-133425000D01*
X193085944Y-132962902D01*
X193167000Y-132555407D01*
X193167000Y-131604592D01*
X193121271Y-131374700D01*
X197309772Y-131374700D01*
X196910620Y-131540034D01*
X196310034Y-132140620D01*
X195985000Y-132925322D01*
X195985000Y-133774678D01*
X196310034Y-134559380D01*
X196910620Y-135159966D01*
X197695322Y-135485000D01*
X198544678Y-135485000D01*
X199329380Y-135159966D01*
X199929966Y-134559380D01*
X200255000Y-133774678D01*
X200255000Y-132925322D01*
X199929966Y-132140620D01*
X199329380Y-131540034D01*
X198930228Y-131374700D01*
X202562411Y-131374700D01*
X203909994Y-132722283D01*
X203855000Y-132855050D01*
X203855000Y-133604950D01*
X204141974Y-134297767D01*
X204672233Y-134828026D01*
X205365050Y-135115000D01*
X206114950Y-135115000D01*
X206807767Y-134828026D01*
X207338026Y-134297767D01*
X207625000Y-133604950D01*
X207625000Y-132855050D01*
X207338026Y-132162233D01*
X206807767Y-131631974D01*
X206114950Y-131345000D01*
X205365050Y-131345000D01*
X205232283Y-131399994D01*
X203675961Y-129843672D01*
X203623797Y-129765603D01*
X203314519Y-129558950D01*
X203041786Y-129504700D01*
X202949700Y-129486383D01*
X202857614Y-129504700D01*
X180802386Y-129504700D01*
X180710300Y-129486383D01*
X180618214Y-129504700D01*
X180345481Y-129558950D01*
X180036203Y-129765603D01*
X179984039Y-129843672D01*
X179436915Y-130390796D01*
X179070000Y-130317812D01*
X178524918Y-130426236D01*
X178062820Y-130735001D01*
X177800000Y-131128339D01*
X177537179Y-130735000D01*
X177075081Y-130426236D01*
X176530000Y-130317812D01*
X175984918Y-130426236D01*
X175522820Y-130735001D01*
X175260000Y-131128339D01*
X174997179Y-130735000D01*
X174973327Y-130719062D01*
X177837339Y-127855050D01*
X203855000Y-127855050D01*
X203855000Y-128604950D01*
X204141974Y-129297767D01*
X204672233Y-129828026D01*
X205365050Y-130115000D01*
X206114950Y-130115000D01*
X206807767Y-129828026D01*
X207338026Y-129297767D01*
X207625000Y-128604950D01*
X207625000Y-127855050D01*
X207338026Y-127162233D01*
X206807767Y-126631974D01*
X206114950Y-126345000D01*
X205365050Y-126345000D01*
X204672233Y-126631974D01*
X204141974Y-127162233D01*
X203855000Y-127855050D01*
X177837339Y-127855050D01*
X181527390Y-124165000D01*
X204086980Y-124165000D01*
X204141974Y-124297767D01*
X204672233Y-124828026D01*
X205365050Y-125115000D01*
X206114950Y-125115000D01*
X206807767Y-124828026D01*
X207338026Y-124297767D01*
X207625000Y-123604950D01*
X207625000Y-122855050D01*
X207338026Y-122162233D01*
X206807767Y-121631974D01*
X206114950Y-121345000D01*
X205365050Y-121345000D01*
X204672233Y-121631974D01*
X204141974Y-122162233D01*
X204086980Y-122295000D01*
X199684846Y-122295000D01*
X199929966Y-122049880D01*
X200255000Y-121265178D01*
X200255000Y-120415822D01*
X199929966Y-119631120D01*
X199862166Y-119563320D01*
X204586285Y-119563320D01*
X204715533Y-119856123D01*
X205415806Y-120124388D01*
X206165435Y-120104250D01*
X206764467Y-119856123D01*
X206893715Y-119563320D01*
X205740000Y-118409605D01*
X204586285Y-119563320D01*
X199862166Y-119563320D01*
X199329380Y-119030534D01*
X198544678Y-118705500D01*
X197695322Y-118705500D01*
X196910620Y-119030534D01*
X196310034Y-119631120D01*
X195985000Y-120415822D01*
X195985000Y-121265178D01*
X196310034Y-122049880D01*
X196555154Y-122295000D01*
X181232181Y-122295000D01*
X181140099Y-122276684D01*
X181048017Y-122295000D01*
X181048014Y-122295000D01*
X180775281Y-122349250D01*
X180466003Y-122555903D01*
X180413841Y-122633969D01*
X173990000Y-129057811D01*
X173937861Y-129005672D01*
X173885697Y-128927603D01*
X173576419Y-128720950D01*
X173303686Y-128666700D01*
X173211600Y-128648383D01*
X173119514Y-128666700D01*
X146588380Y-128666700D01*
X146496299Y-128648384D01*
X146404218Y-128666700D01*
X146404214Y-128666700D01*
X146131481Y-128720950D01*
X145822203Y-128927603D01*
X145770041Y-129005669D01*
X144384914Y-130390796D01*
X144018000Y-130317812D01*
X143651086Y-130390796D01*
X134316061Y-121055772D01*
X134263897Y-120977703D01*
X133954619Y-120771050D01*
X133681886Y-120716800D01*
X133589800Y-120698483D01*
X133497714Y-120716800D01*
X122280286Y-120716800D01*
X122188200Y-120698483D01*
X122096114Y-120716800D01*
X121823381Y-120771050D01*
X121514103Y-120977703D01*
X121461941Y-121055769D01*
X118476728Y-124040983D01*
X118110000Y-123968036D01*
X117569378Y-124075572D01*
X117111060Y-124381811D01*
X116840000Y-124787481D01*
X116568939Y-124381810D01*
X116110621Y-124075572D01*
X115570000Y-123968036D01*
X115029378Y-124075572D01*
X114571060Y-124381811D01*
X114300000Y-124787481D01*
X114028939Y-124381810D01*
X113570621Y-124075572D01*
X113030000Y-123968036D01*
X112489378Y-124075572D01*
X112031060Y-124381811D01*
X111756912Y-124792102D01*
X111679399Y-124776684D01*
X111587318Y-124795000D01*
X111587314Y-124795000D01*
X111314581Y-124849250D01*
X111005303Y-125055903D01*
X110953141Y-125133969D01*
X108752111Y-127335000D01*
X108392849Y-127335000D01*
X108377977Y-127260235D01*
X108237629Y-127050191D01*
X108027585Y-126909843D01*
X107779820Y-126860560D01*
X105580180Y-126860560D01*
X105332415Y-126909843D01*
X105122371Y-127050191D01*
X104982023Y-127260235D01*
X104932740Y-127508000D01*
X104932740Y-128612700D01*
X104617260Y-128612700D01*
X104617260Y-127508000D01*
X104567977Y-127260235D01*
X104427629Y-127050191D01*
X104217585Y-126909843D01*
X103969820Y-126860560D01*
X101770180Y-126860560D01*
X101522415Y-126909843D01*
X101312371Y-127050191D01*
X101172023Y-127260235D01*
X101122740Y-127508000D01*
X101122740Y-128612700D01*
X100807260Y-128612700D01*
X100807260Y-127508000D01*
X100757977Y-127260235D01*
X100617629Y-127050191D01*
X100407585Y-126909843D01*
X100159820Y-126860560D01*
X97960180Y-126860560D01*
X97712415Y-126909843D01*
X97502371Y-127050191D01*
X97362023Y-127260235D01*
X97347151Y-127335000D01*
X95517290Y-127335000D01*
X88598112Y-120415822D01*
X90575000Y-120415822D01*
X90575000Y-121265178D01*
X90900034Y-122049880D01*
X91500620Y-122650466D01*
X92285322Y-122975500D01*
X93134678Y-122975500D01*
X93919380Y-122650466D01*
X94519966Y-122049880D01*
X94845000Y-121265178D01*
X94845000Y-120415822D01*
X94519966Y-119631120D01*
X93919380Y-119030534D01*
X93134678Y-118705500D01*
X92285322Y-118705500D01*
X91500620Y-119030534D01*
X90900034Y-119631120D01*
X90575000Y-120415822D01*
X88598112Y-120415822D01*
X86920006Y-118737717D01*
X86975000Y-118604950D01*
X86975000Y-117905806D01*
X203845612Y-117905806D01*
X203865750Y-118655435D01*
X204113877Y-119254467D01*
X204406680Y-119383715D01*
X205560395Y-118230000D01*
X205919605Y-118230000D01*
X207073320Y-119383715D01*
X207366123Y-119254467D01*
X207634388Y-118554194D01*
X207614250Y-117804565D01*
X207366123Y-117205533D01*
X207073320Y-117076285D01*
X205919605Y-118230000D01*
X205560395Y-118230000D01*
X204406680Y-117076285D01*
X204113877Y-117205533D01*
X203845612Y-117905806D01*
X86975000Y-117905806D01*
X86975000Y-117855050D01*
X86688026Y-117162233D01*
X86422473Y-116896680D01*
X204586285Y-116896680D01*
X205740000Y-118050395D01*
X206893715Y-116896680D01*
X206764467Y-116603877D01*
X206064194Y-116335612D01*
X205314565Y-116355750D01*
X204715533Y-116603877D01*
X204586285Y-116896680D01*
X86422473Y-116896680D01*
X86157767Y-116631974D01*
X85464950Y-116345000D01*
X84715050Y-116345000D01*
X84022233Y-116631974D01*
X83491974Y-117162233D01*
X83205000Y-117855050D01*
X83205000Y-118604950D01*
X83491974Y-119297767D01*
X84022233Y-119828026D01*
X84715050Y-120115000D01*
X85464950Y-120115000D01*
X85597717Y-120060006D01*
X94150410Y-128612700D01*
X86971790Y-128612700D01*
X86975000Y-128604950D01*
X86975000Y-127855050D01*
X86688026Y-127162233D01*
X86157767Y-126631974D01*
X85464950Y-126345000D01*
X84715050Y-126345000D01*
X84022233Y-126631974D01*
X83491974Y-127162233D01*
X83205000Y-127855050D01*
X83205000Y-128604950D01*
X83491974Y-129297767D01*
X84022233Y-129828026D01*
X84715050Y-130115000D01*
X85464950Y-130115000D01*
X85597717Y-130060006D01*
X85681441Y-130143731D01*
X85733603Y-130221797D01*
X86042881Y-130428450D01*
X86315614Y-130482700D01*
X86315617Y-130482700D01*
X86407699Y-130501016D01*
X86499781Y-130482700D01*
X97362916Y-130482700D01*
X97297812Y-130810000D01*
X97406236Y-131355082D01*
X97715000Y-131817180D01*
X98125669Y-132091580D01*
X98070239Y-132107941D01*
X97644550Y-132451974D01*
X97382920Y-132932723D01*
X97367960Y-133006930D01*
X97490460Y-133223000D01*
X98933000Y-133223000D01*
X98933000Y-133203000D01*
X99187000Y-133203000D01*
X99187000Y-133223000D01*
X100629540Y-133223000D01*
X100752040Y-133006930D01*
X100737080Y-132932723D01*
X100475450Y-132451974D01*
X100049761Y-132107941D01*
X99994331Y-132091580D01*
X100405000Y-131817180D01*
X100713764Y-131355082D01*
X100822188Y-130810000D01*
X100757084Y-130482700D01*
X101172916Y-130482700D01*
X101107812Y-130810000D01*
X101216236Y-131355082D01*
X101525000Y-131817180D01*
X101935669Y-132091580D01*
X101880239Y-132107941D01*
X101454550Y-132451974D01*
X101192920Y-132932723D01*
X101177960Y-133006930D01*
X101300460Y-133223000D01*
X102743000Y-133223000D01*
X102743000Y-133203000D01*
X102997000Y-133203000D01*
X102997000Y-133223000D01*
X104439540Y-133223000D01*
X104561774Y-133007400D01*
X104988226Y-133007400D01*
X105110460Y-133223000D01*
X106553000Y-133223000D01*
X106553000Y-133203000D01*
X106807000Y-133203000D01*
X106807000Y-133223000D01*
X108249540Y-133223000D01*
X108371774Y-133007400D01*
X109372514Y-133007400D01*
X109464600Y-133025717D01*
X109556686Y-133007400D01*
X109829419Y-132953150D01*
X110138697Y-132746497D01*
X110190861Y-132668428D01*
X110198389Y-132660900D01*
X111684886Y-132660900D01*
X111644430Y-132864288D01*
X111644430Y-133835713D01*
X111724822Y-134239872D01*
X112031061Y-134698190D01*
X112489379Y-135004428D01*
X113030000Y-135111964D01*
X113570622Y-135004428D01*
X114028940Y-134698190D01*
X114300000Y-134292520D01*
X114571061Y-134698190D01*
X115029379Y-135004428D01*
X115570000Y-135111964D01*
X116110622Y-135004428D01*
X116568940Y-134698190D01*
X116840000Y-134292520D01*
X117111061Y-134698190D01*
X117569379Y-135004428D01*
X117656044Y-135021667D01*
X117565611Y-135112100D01*
X93967246Y-135112100D01*
X94519966Y-134559380D01*
X94845000Y-133774678D01*
X94845000Y-133693070D01*
X97367960Y-133693070D01*
X97382920Y-133767277D01*
X97644550Y-134248026D01*
X98070239Y-134592059D01*
X98595180Y-134747000D01*
X98933000Y-134747000D01*
X98933000Y-133477000D01*
X99187000Y-133477000D01*
X99187000Y-134747000D01*
X99524820Y-134747000D01*
X100049761Y-134592059D01*
X100475450Y-134248026D01*
X100737080Y-133767277D01*
X100752040Y-133693070D01*
X101177960Y-133693070D01*
X101192920Y-133767277D01*
X101454550Y-134248026D01*
X101880239Y-134592059D01*
X102405180Y-134747000D01*
X102743000Y-134747000D01*
X102743000Y-133477000D01*
X102997000Y-133477000D01*
X102997000Y-134747000D01*
X103334820Y-134747000D01*
X103859761Y-134592059D01*
X104285450Y-134248026D01*
X104547080Y-133767277D01*
X104562040Y-133693070D01*
X104987960Y-133693070D01*
X105002920Y-133767277D01*
X105264550Y-134248026D01*
X105690239Y-134592059D01*
X106215180Y-134747000D01*
X106553000Y-134747000D01*
X106553000Y-133477000D01*
X106807000Y-133477000D01*
X106807000Y-134747000D01*
X107144820Y-134747000D01*
X107669761Y-134592059D01*
X108095450Y-134248026D01*
X108357080Y-133767277D01*
X108372040Y-133693070D01*
X108249540Y-133477000D01*
X106807000Y-133477000D01*
X106553000Y-133477000D01*
X105110460Y-133477000D01*
X104987960Y-133693070D01*
X104562040Y-133693070D01*
X104439540Y-133477000D01*
X102997000Y-133477000D01*
X102743000Y-133477000D01*
X101300460Y-133477000D01*
X101177960Y-133693070D01*
X100752040Y-133693070D01*
X100629540Y-133477000D01*
X99187000Y-133477000D01*
X98933000Y-133477000D01*
X97490460Y-133477000D01*
X97367960Y-133693070D01*
X94845000Y-133693070D01*
X94845000Y-132925322D01*
X94519966Y-132140620D01*
X93919380Y-131540034D01*
X93134678Y-131215000D01*
X92285322Y-131215000D01*
X91500620Y-131540034D01*
X90900034Y-132140620D01*
X90575000Y-132925322D01*
X90575000Y-133774678D01*
X90900034Y-134559380D01*
X91452754Y-135112100D01*
X90704981Y-135112100D01*
X90612899Y-135093784D01*
X90520817Y-135112100D01*
X90520814Y-135112100D01*
X90248081Y-135166350D01*
X89938803Y-135373003D01*
X89886641Y-135451069D01*
X83657717Y-141679994D01*
X83524950Y-141625000D01*
X82775050Y-141625000D01*
X82082233Y-141911974D01*
X81551974Y-142442233D01*
X81265000Y-143135050D01*
X79450000Y-143135050D01*
X79450000Y-134563320D01*
X83936285Y-134563320D01*
X84065533Y-134856123D01*
X84765806Y-135124388D01*
X85515435Y-135104250D01*
X86114467Y-134856123D01*
X86243715Y-134563320D01*
X85090000Y-133409605D01*
X83936285Y-134563320D01*
X79450000Y-134563320D01*
X79450000Y-132905806D01*
X83195612Y-132905806D01*
X83215750Y-133655435D01*
X83463877Y-134254467D01*
X83756680Y-134383715D01*
X84910395Y-133230000D01*
X85269605Y-133230000D01*
X86423320Y-134383715D01*
X86716123Y-134254467D01*
X86984388Y-133554194D01*
X86964250Y-132804565D01*
X86716123Y-132205533D01*
X86423320Y-132076285D01*
X85269605Y-133230000D01*
X84910395Y-133230000D01*
X83756680Y-132076285D01*
X83463877Y-132205533D01*
X83195612Y-132905806D01*
X79450000Y-132905806D01*
X79450000Y-131896680D01*
X83936285Y-131896680D01*
X85090000Y-133050395D01*
X86243715Y-131896680D01*
X86114467Y-131603877D01*
X85414194Y-131335612D01*
X84664565Y-131355750D01*
X84065533Y-131603877D01*
X83936285Y-131896680D01*
X79450000Y-131896680D01*
X79450000Y-122855050D01*
X83205000Y-122855050D01*
X83205000Y-123604950D01*
X83491974Y-124297767D01*
X84022233Y-124828026D01*
X84715050Y-125115000D01*
X85464950Y-125115000D01*
X86157767Y-124828026D01*
X86688026Y-124297767D01*
X86975000Y-123604950D01*
X86975000Y-122855050D01*
X86688026Y-122162233D01*
X86157767Y-121631974D01*
X85464950Y-121345000D01*
X84715050Y-121345000D01*
X84022233Y-121631974D01*
X83491974Y-122162233D01*
X83205000Y-122855050D01*
X79450000Y-122855050D01*
X79450000Y-115632119D01*
X79494065Y-115382213D01*
X79589405Y-115217080D01*
X79735477Y-115094512D01*
X79944465Y-115018445D01*
X80040996Y-115010000D01*
X210757881Y-115010000D01*
X211007787Y-115054065D01*
X211007787Y-115054065D01*
G37*
X211007787Y-115054065D02*
X211172920Y-115149405D01*
X211295488Y-115295477D01*
X211371555Y-115504465D01*
X211380001Y-115601007D01*
X211380000Y-148527881D01*
X211335935Y-148777787D01*
X211240596Y-148942919D01*
X211094524Y-149065488D01*
X210885532Y-149141555D01*
X210789004Y-149150000D01*
X80072119Y-149150000D01*
X79822213Y-149105935D01*
X79657081Y-149010596D01*
X79534512Y-148864524D01*
X79458445Y-148655532D01*
X79450000Y-148559004D01*
X79450000Y-143135050D01*
X81265000Y-143135050D01*
X81265000Y-143884950D01*
X81551974Y-144577767D01*
X82082233Y-145108026D01*
X82775050Y-145395000D01*
X83524950Y-145395000D01*
X84217767Y-145108026D01*
X84482473Y-144843320D01*
X86996285Y-144843320D01*
X87125533Y-145136123D01*
X87825806Y-145404388D01*
X88575435Y-145384250D01*
X89174467Y-145136123D01*
X89303715Y-144843320D01*
X88150000Y-143689605D01*
X86996285Y-144843320D01*
X84482473Y-144843320D01*
X84748026Y-144577767D01*
X85035000Y-143884950D01*
X85035000Y-143185806D01*
X86255612Y-143185806D01*
X86275750Y-143935435D01*
X86523877Y-144534467D01*
X86816680Y-144663715D01*
X87970395Y-143510000D01*
X88329605Y-143510000D01*
X89483320Y-144663715D01*
X89776123Y-144534467D01*
X90044388Y-143834194D01*
X90024250Y-143084565D01*
X89776123Y-142485533D01*
X89483320Y-142356285D01*
X88329605Y-143510000D01*
X87970395Y-143510000D01*
X86816680Y-142356285D01*
X86523877Y-142485533D01*
X86255612Y-143185806D01*
X85035000Y-143185806D01*
X85035000Y-143135050D01*
X84980006Y-143002283D01*
X85805609Y-142176680D01*
X86996285Y-142176680D01*
X88150000Y-143330395D01*
X89303715Y-142176680D01*
X89174467Y-141883877D01*
X88474194Y-141615612D01*
X87724565Y-141635750D01*
X87125533Y-141883877D01*
X86996285Y-142176680D01*
X85805609Y-142176680D01*
X91000190Y-136982100D01*
X98355610Y-136982100D01*
X93657717Y-141679994D01*
X93524950Y-141625000D01*
X92775050Y-141625000D01*
X92082233Y-141911974D01*
X91551974Y-142442233D01*
X91265000Y-143135050D01*
X91265000Y-143884950D01*
X91551974Y-144577767D01*
X92082233Y-145108026D01*
X92775050Y-145395000D01*
X93524950Y-145395000D01*
X94217767Y-145108026D01*
X94482473Y-144843320D01*
X96996285Y-144843320D01*
X97125533Y-145136123D01*
X97825806Y-145404388D01*
X98575435Y-145384250D01*
X99174467Y-145136123D01*
X99303715Y-144843320D01*
X98150000Y-143689605D01*
X96996285Y-144843320D01*
X94482473Y-144843320D01*
X94748026Y-144577767D01*
X95035000Y-143884950D01*
X95035000Y-143185806D01*
X96255612Y-143185806D01*
X96275750Y-143935435D01*
X96523877Y-144534467D01*
X96816680Y-144663715D01*
X97970395Y-143510000D01*
X98329605Y-143510000D01*
X99483320Y-144663715D01*
X99776123Y-144534467D01*
X100044388Y-143834194D01*
X100024250Y-143084565D01*
X99776123Y-142485533D01*
X99483320Y-142356285D01*
X98329605Y-143510000D01*
X97970395Y-143510000D01*
X96816680Y-142356285D01*
X96523877Y-142485533D01*
X96255612Y-143185806D01*
X95035000Y-143185806D01*
X95035000Y-143135050D01*
X94980006Y-143002283D01*
X95805609Y-142176680D01*
X96996285Y-142176680D01*
X98150000Y-143330395D01*
X99303715Y-142176680D01*
X99174467Y-141883877D01*
X98474194Y-141615612D01*
X97724565Y-141635750D01*
X97125533Y-141883877D01*
X96996285Y-142176680D01*
X95805609Y-142176680D01*
X99562690Y-138419600D01*
X106918110Y-138419600D01*
X103657717Y-141679994D01*
X103524950Y-141625000D01*
X102775050Y-141625000D01*
X102082233Y-141911974D01*
X101551974Y-142442233D01*
X101265000Y-143135050D01*
X101265000Y-143884950D01*
X101551974Y-144577767D01*
X102082233Y-145108026D01*
X102775050Y-145395000D01*
X103524950Y-145395000D01*
X104217767Y-145108026D01*
X104482473Y-144843320D01*
X106996285Y-144843320D01*
X107125533Y-145136123D01*
X107825806Y-145404388D01*
X108575435Y-145384250D01*
X109174467Y-145136123D01*
X109303715Y-144843320D01*
X108150000Y-143689605D01*
X106996285Y-144843320D01*
X104482473Y-144843320D01*
X104748026Y-144577767D01*
X105035000Y-143884950D01*
X105035000Y-143185806D01*
X106255612Y-143185806D01*
X106275750Y-143935435D01*
X106523877Y-144534467D01*
X106816680Y-144663715D01*
X107970395Y-143510000D01*
X108329605Y-143510000D01*
X109483320Y-144663715D01*
X109776123Y-144534467D01*
X110044388Y-143834194D01*
X110024250Y-143084565D01*
X109776123Y-142485533D01*
X109483320Y-142356285D01*
X108329605Y-143510000D01*
X107970395Y-143510000D01*
X106816680Y-142356285D01*
X106523877Y-142485533D01*
X106255612Y-143185806D01*
X105035000Y-143185806D01*
X105035000Y-143135050D01*
X104980006Y-143002283D01*
X105805609Y-142176680D01*
X106996285Y-142176680D01*
X108150000Y-143330395D01*
X109303715Y-142176680D01*
X109174467Y-141883877D01*
X108474194Y-141615612D01*
X107724565Y-141635750D01*
X107125533Y-141883877D01*
X106996285Y-142176680D01*
X105805609Y-142176680D01*
X108592590Y-139389700D01*
X115948011Y-139389700D01*
X113657717Y-141679994D01*
X113524950Y-141625000D01*
X112775050Y-141625000D01*
X112082233Y-141911974D01*
X111551974Y-142442233D01*
X111265000Y-143135050D01*
X111265000Y-143884950D01*
X111551974Y-144577767D01*
X112082233Y-145108026D01*
X112775050Y-145395000D01*
X113524950Y-145395000D01*
X114217767Y-145108026D01*
X114482473Y-144843320D01*
X116996285Y-144843320D01*
X117125533Y-145136123D01*
X117825806Y-145404388D01*
X118575435Y-145384250D01*
X119174467Y-145136123D01*
X119303715Y-144843320D01*
X118150000Y-143689605D01*
X116996285Y-144843320D01*
X114482473Y-144843320D01*
X114748026Y-144577767D01*
X115035000Y-143884950D01*
X115035000Y-143185806D01*
X116255612Y-143185806D01*
X116275750Y-143935435D01*
X116523877Y-144534467D01*
X116816680Y-144663715D01*
X117970395Y-143510000D01*
X118329605Y-143510000D01*
X119483320Y-144663715D01*
X119776123Y-144534467D01*
X120044388Y-143834194D01*
X120024250Y-143084565D01*
X119776123Y-142485533D01*
X119483320Y-142356285D01*
X118329605Y-143510000D01*
X117970395Y-143510000D01*
X116816680Y-142356285D01*
X116523877Y-142485533D01*
X116255612Y-143185806D01*
X115035000Y-143185806D01*
X115035000Y-143135050D01*
X114980006Y-143002283D01*
X115805609Y-142176680D01*
X116996285Y-142176680D01*
X118150000Y-143330395D01*
X119303715Y-142176680D01*
X119174467Y-141883877D01*
X118474194Y-141615612D01*
X117724565Y-141635750D01*
X117125533Y-141883877D01*
X116996285Y-142176680D01*
X115805609Y-142176680D01*
X117079589Y-140902700D01*
X121560214Y-140902700D01*
X121652300Y-140921017D01*
X121744386Y-140902700D01*
X122017119Y-140848450D01*
X122326397Y-140641797D01*
X122378561Y-140563728D01*
X127903272Y-135039017D01*
X128270000Y-135111964D01*
X128586000Y-135049108D01*
X128586000Y-136751711D01*
X123657717Y-141679994D01*
X123524950Y-141625000D01*
X122775050Y-141625000D01*
X122082233Y-141911974D01*
X121551974Y-142442233D01*
X121265000Y-143135050D01*
X121265000Y-143884950D01*
X121551974Y-144577767D01*
X122082233Y-145108026D01*
X122775050Y-145395000D01*
X123524950Y-145395000D01*
X124217767Y-145108026D01*
X124482473Y-144843320D01*
X126996285Y-144843320D01*
X127125533Y-145136123D01*
X127825806Y-145404388D01*
X128575435Y-145384250D01*
X129174467Y-145136123D01*
X129303715Y-144843320D01*
X128150000Y-143689605D01*
X126996285Y-144843320D01*
X124482473Y-144843320D01*
X124748026Y-144577767D01*
X125035000Y-143884950D01*
X125035000Y-143185806D01*
X126255612Y-143185806D01*
X126275750Y-143935435D01*
X126523877Y-144534467D01*
X126816680Y-144663715D01*
X127970395Y-143510000D01*
X128329605Y-143510000D01*
X129483320Y-144663715D01*
X129776123Y-144534467D01*
X130044388Y-143834194D01*
X130024250Y-143084565D01*
X129776123Y-142485533D01*
X129483320Y-142356285D01*
X128329605Y-143510000D01*
X127970395Y-143510000D01*
X126816680Y-142356285D01*
X126523877Y-142485533D01*
X126255612Y-143185806D01*
X125035000Y-143185806D01*
X125035000Y-143135050D01*
X124980006Y-143002283D01*
X125805609Y-142176680D01*
X126996285Y-142176680D01*
X128150000Y-143330395D01*
X129303715Y-142176680D01*
X129174467Y-141883877D01*
X128474194Y-141615612D01*
X127724565Y-141635750D01*
X127125533Y-141883877D01*
X126996285Y-142176680D01*
X125805609Y-142176680D01*
X130117028Y-137865261D01*
X130195097Y-137813097D01*
X130401750Y-137503819D01*
X130456000Y-137231086D01*
X130456000Y-137231085D01*
X130474317Y-137139000D01*
X130456000Y-137046914D01*
X130456000Y-135039613D01*
X130468725Y-135042133D01*
X130683000Y-134919479D01*
X130683000Y-133477000D01*
X130937000Y-133477000D01*
X130937000Y-134919479D01*
X131151275Y-135042133D01*
X131222903Y-135027950D01*
X131699944Y-134768798D01*
X132041499Y-134346817D01*
X132195570Y-133826250D01*
X132195570Y-133477000D01*
X130937000Y-133477000D01*
X130683000Y-133477000D01*
X130663000Y-133477000D01*
X130663000Y-133223000D01*
X130683000Y-133223000D01*
X130683000Y-131780521D01*
X130937000Y-131780521D01*
X130937000Y-133223000D01*
X132195570Y-133223000D01*
X132195570Y-132873750D01*
X132041499Y-132353183D01*
X131699944Y-131931202D01*
X131222903Y-131672050D01*
X131151275Y-131657867D01*
X130937000Y-131780521D01*
X130683000Y-131780521D01*
X130468725Y-131657867D01*
X130456000Y-131660387D01*
X130456000Y-127421549D01*
X130810000Y-127491964D01*
X131350622Y-127384428D01*
X131808940Y-127078190D01*
X132115178Y-126619872D01*
X132179801Y-126294990D01*
X132446501Y-126561691D01*
X132446500Y-141761090D01*
X132082233Y-141911974D01*
X131551974Y-142442233D01*
X131265000Y-143135050D01*
X131265000Y-143884950D01*
X131551974Y-144577767D01*
X132082233Y-145108026D01*
X132775050Y-145395000D01*
X133524950Y-145395000D01*
X134217767Y-145108026D01*
X134482473Y-144843320D01*
X136996285Y-144843320D01*
X137125533Y-145136123D01*
X137825806Y-145404388D01*
X138575435Y-145384250D01*
X139174467Y-145136123D01*
X139303715Y-144843320D01*
X138150000Y-143689605D01*
X136996285Y-144843320D01*
X134482473Y-144843320D01*
X134748026Y-144577767D01*
X135035000Y-143884950D01*
X135035000Y-143185806D01*
X136255612Y-143185806D01*
X136275750Y-143935435D01*
X136523877Y-144534467D01*
X136816680Y-144663715D01*
X137970395Y-143510000D01*
X138329605Y-143510000D01*
X139483320Y-144663715D01*
X139776123Y-144534467D01*
X140044388Y-143834194D01*
X140024250Y-143084565D01*
X139776123Y-142485533D01*
X139483320Y-142356285D01*
X138329605Y-143510000D01*
X137970395Y-143510000D01*
X136816680Y-142356285D01*
X136523877Y-142485533D01*
X136255612Y-143185806D01*
X135035000Y-143185806D01*
X135035000Y-143135050D01*
X134748026Y-142442233D01*
X134482473Y-142176680D01*
X136996285Y-142176680D01*
X138150000Y-143330395D01*
X139303715Y-142176680D01*
X139174467Y-141883877D01*
X138474194Y-141615612D01*
X137724565Y-141635750D01*
X137125533Y-141883877D01*
X136996285Y-142176680D01*
X134482473Y-142176680D01*
X134316500Y-142010707D01*
X134316500Y-135938779D01*
X134489503Y-136197697D01*
X134567572Y-136249861D01*
X141319994Y-143002283D01*
X141265000Y-143135050D01*
X141265000Y-143884950D01*
X141551974Y-144577767D01*
X142082233Y-145108026D01*
X142775050Y-145395000D01*
X143524950Y-145395000D01*
X144217767Y-145108026D01*
X144482473Y-144843320D01*
X146996285Y-144843320D01*
X147125533Y-145136123D01*
X147825806Y-145404388D01*
X148575435Y-145384250D01*
X149174467Y-145136123D01*
X149303715Y-144843320D01*
X148150000Y-143689605D01*
X146996285Y-144843320D01*
X144482473Y-144843320D01*
X144748026Y-144577767D01*
X145035000Y-143884950D01*
X145035000Y-143185806D01*
X146255612Y-143185806D01*
X146275750Y-143935435D01*
X146523877Y-144534467D01*
X146816680Y-144663715D01*
X147970395Y-143510000D01*
X146816680Y-142356285D01*
X146523877Y-142485533D01*
X146255612Y-143185806D01*
X145035000Y-143185806D01*
X145035000Y-143135050D01*
X144748026Y-142442233D01*
X144217767Y-141911974D01*
X143524950Y-141625000D01*
X142775050Y-141625000D01*
X142642283Y-141679994D01*
X136098600Y-135136311D01*
X136098600Y-127912990D01*
X138518350Y-130332740D01*
X138176000Y-130332740D01*
X137928235Y-130382023D01*
X137718191Y-130522371D01*
X137577843Y-130732415D01*
X137528560Y-130980180D01*
X137528560Y-133179820D01*
X137577843Y-133427585D01*
X137718191Y-133637629D01*
X137928235Y-133777977D01*
X138176000Y-133827260D01*
X139700000Y-133827260D01*
X139712821Y-133824710D01*
X147582645Y-141694535D01*
X147125533Y-141883877D01*
X146996285Y-142176680D01*
X148150000Y-143330395D01*
X148164143Y-143316253D01*
X148343748Y-143495858D01*
X148329605Y-143510000D01*
X149483320Y-144663715D01*
X149776123Y-144534467D01*
X149955177Y-144067067D01*
X149994141Y-144106031D01*
X150046303Y-144184097D01*
X150355581Y-144390750D01*
X150628314Y-144445000D01*
X150628317Y-144445000D01*
X150720399Y-144463316D01*
X150812481Y-144445000D01*
X151496980Y-144445000D01*
X151551974Y-144577767D01*
X152082233Y-145108026D01*
X152775050Y-145395000D01*
X153524950Y-145395000D01*
X154217767Y-145108026D01*
X154482473Y-144843320D01*
X156996285Y-144843320D01*
X157125533Y-145136123D01*
X157825806Y-145404388D01*
X158575435Y-145384250D01*
X159174467Y-145136123D01*
X159303715Y-144843320D01*
X158150000Y-143689605D01*
X156996285Y-144843320D01*
X154482473Y-144843320D01*
X154748026Y-144577767D01*
X155035000Y-143884950D01*
X155035000Y-143185806D01*
X156255612Y-143185806D01*
X156275750Y-143935435D01*
X156523877Y-144534467D01*
X156816680Y-144663715D01*
X157970395Y-143510000D01*
X158329605Y-143510000D01*
X159483320Y-144663715D01*
X159776123Y-144534467D01*
X160044388Y-143834194D01*
X160025607Y-143135050D01*
X163295000Y-143135050D01*
X163295000Y-143884950D01*
X163581974Y-144577767D01*
X164112233Y-145108026D01*
X164805050Y-145395000D01*
X165554950Y-145395000D01*
X166247767Y-145108026D01*
X166778026Y-144577767D01*
X167065000Y-143884950D01*
X167065000Y-143135050D01*
X168295000Y-143135050D01*
X168295000Y-143884950D01*
X168581974Y-144577767D01*
X169112233Y-145108026D01*
X169805050Y-145395000D01*
X170554950Y-145395000D01*
X171247767Y-145108026D01*
X171512473Y-144843320D01*
X174026285Y-144843320D01*
X174155533Y-145136123D01*
X174855806Y-145404388D01*
X175605435Y-145384250D01*
X176204467Y-145136123D01*
X176333715Y-144843320D01*
X175180000Y-143689605D01*
X174026285Y-144843320D01*
X171512473Y-144843320D01*
X171778026Y-144577767D01*
X172065000Y-143884950D01*
X172065000Y-143185806D01*
X173285612Y-143185806D01*
X173305750Y-143935435D01*
X173553877Y-144534467D01*
X173846680Y-144663715D01*
X175000395Y-143510000D01*
X175359605Y-143510000D01*
X176513320Y-144663715D01*
X176806123Y-144534467D01*
X177074388Y-143834194D01*
X177054250Y-143084565D01*
X176806123Y-142485533D01*
X176513320Y-142356285D01*
X175359605Y-143510000D01*
X175000395Y-143510000D01*
X173846680Y-142356285D01*
X173553877Y-142485533D01*
X173285612Y-143185806D01*
X172065000Y-143185806D01*
X172065000Y-143135050D01*
X171778026Y-142442233D01*
X171512473Y-142176680D01*
X174026285Y-142176680D01*
X175180000Y-143330395D01*
X176333715Y-142176680D01*
X176204467Y-141883877D01*
X175504194Y-141615612D01*
X174754565Y-141635750D01*
X174155533Y-141883877D01*
X174026285Y-142176680D01*
X171512473Y-142176680D01*
X171247767Y-141911974D01*
X170554950Y-141625000D01*
X169805050Y-141625000D01*
X169112233Y-141911974D01*
X168581974Y-142442233D01*
X168295000Y-143135050D01*
X167065000Y-143135050D01*
X166778026Y-142442233D01*
X166247767Y-141911974D01*
X165554950Y-141625000D01*
X164805050Y-141625000D01*
X164112233Y-141911974D01*
X163581974Y-142442233D01*
X163295000Y-143135050D01*
X160025607Y-143135050D01*
X160024250Y-143084565D01*
X159776123Y-142485533D01*
X159483320Y-142356285D01*
X158329605Y-143510000D01*
X157970395Y-143510000D01*
X156816680Y-142356285D01*
X156523877Y-142485533D01*
X156255612Y-143185806D01*
X155035000Y-143185806D01*
X155035000Y-143135050D01*
X154748026Y-142442233D01*
X154482473Y-142176680D01*
X156996285Y-142176680D01*
X158150000Y-143330395D01*
X159303715Y-142176680D01*
X159174467Y-141883877D01*
X158474194Y-141615612D01*
X157724565Y-141635750D01*
X157125533Y-141883877D01*
X156996285Y-142176680D01*
X154482473Y-142176680D01*
X154217767Y-141911974D01*
X153524950Y-141625000D01*
X152775050Y-141625000D01*
X152082233Y-141911974D01*
X151551974Y-142442233D01*
X151496980Y-142575000D01*
X151107690Y-142575000D01*
X142150742Y-133618053D01*
X142376026Y-133495450D01*
X142720059Y-133069761D01*
X142736420Y-133014331D01*
X143010821Y-133425000D01*
X143472919Y-133733764D01*
X144018000Y-133842188D01*
X144563082Y-133733764D01*
X145025180Y-133425000D01*
X145288000Y-133031662D01*
X145550821Y-133425000D01*
X146012919Y-133733764D01*
X146558000Y-133842188D01*
X147103082Y-133733764D01*
X147565180Y-133425000D01*
X147839580Y-133014331D01*
X147855941Y-133069761D01*
X148199974Y-133495450D01*
X148680723Y-133757080D01*
X148754930Y-133772040D01*
X148971000Y-133649540D01*
X148971000Y-132207000D01*
X148951000Y-132207000D01*
X148951000Y-131953000D01*
X148971000Y-131953000D01*
X148971000Y-131933000D01*
X149225000Y-131933000D01*
X149225000Y-131953000D01*
X149245000Y-131953000D01*
X149245000Y-132207000D01*
X149225000Y-132207000D01*
X149225000Y-133649540D01*
X149441070Y-133772040D01*
X149515277Y-133757080D01*
X149996026Y-133495450D01*
X150340059Y-133069761D01*
X150356420Y-133014331D01*
X150630821Y-133425000D01*
X151092919Y-133733764D01*
X151638000Y-133842188D01*
X152183082Y-133733764D01*
X152645180Y-133425000D01*
X152908000Y-133031662D01*
X153170821Y-133425000D01*
X153632919Y-133733764D01*
X154178000Y-133842188D01*
X154723082Y-133733764D01*
X155185180Y-133425000D01*
X155448000Y-133031662D01*
X155710821Y-133425000D01*
X156172919Y-133733764D01*
X156718000Y-133842188D01*
X157263082Y-133733764D01*
X157725180Y-133425000D01*
X157988000Y-133031662D01*
X158250821Y-133425000D01*
X158712919Y-133733764D01*
X159258000Y-133842188D01*
X159624915Y-133769204D01*
X167106640Y-141250930D01*
X167158803Y-141328997D01*
X167236869Y-141381159D01*
X167468081Y-141535650D01*
X167832900Y-141608217D01*
X167924986Y-141589900D01*
X178447611Y-141589900D01*
X179859994Y-143002283D01*
X179805000Y-143135050D01*
X179805000Y-143884950D01*
X180091974Y-144577767D01*
X180622233Y-145108026D01*
X181315050Y-145395000D01*
X182064950Y-145395000D01*
X182757767Y-145108026D01*
X183288026Y-144577767D01*
X183575000Y-143884950D01*
X183575000Y-143135050D01*
X183288026Y-142442233D01*
X182757767Y-141911974D01*
X182064950Y-141625000D01*
X181315050Y-141625000D01*
X181182283Y-141679994D01*
X179561161Y-140058872D01*
X179508997Y-139980803D01*
X179199719Y-139774150D01*
X178926986Y-139719900D01*
X178834900Y-139701583D01*
X178742814Y-139719900D01*
X168220190Y-139719900D01*
X162252142Y-133751853D01*
X162343082Y-133733764D01*
X162805180Y-133425000D01*
X162956398Y-133198687D01*
X168312840Y-138555130D01*
X168365003Y-138633197D01*
X168443069Y-138685359D01*
X168674281Y-138839850D01*
X169039100Y-138912417D01*
X169131186Y-138894100D01*
X180751811Y-138894100D01*
X184859994Y-143002283D01*
X184805000Y-143135050D01*
X184805000Y-143884950D01*
X185091974Y-144577767D01*
X185622233Y-145108026D01*
X186315050Y-145395000D01*
X187064950Y-145395000D01*
X187757767Y-145108026D01*
X188022473Y-144843320D01*
X190536285Y-144843320D01*
X190665533Y-145136123D01*
X191365806Y-145404388D01*
X192115435Y-145384250D01*
X192714467Y-145136123D01*
X192843715Y-144843320D01*
X191690000Y-143689605D01*
X190536285Y-144843320D01*
X188022473Y-144843320D01*
X188288026Y-144577767D01*
X188575000Y-143884950D01*
X188575000Y-143185806D01*
X189795612Y-143185806D01*
X189815750Y-143935435D01*
X190063877Y-144534467D01*
X190356680Y-144663715D01*
X191510395Y-143510000D01*
X191869605Y-143510000D01*
X193023320Y-144663715D01*
X193316123Y-144534467D01*
X193584388Y-143834194D01*
X193565607Y-143135050D01*
X196315000Y-143135050D01*
X196315000Y-143884950D01*
X196601974Y-144577767D01*
X197132233Y-145108026D01*
X197825050Y-145395000D01*
X198574950Y-145395000D01*
X199267767Y-145108026D01*
X199798026Y-144577767D01*
X200085000Y-143884950D01*
X200085000Y-143135050D01*
X199798026Y-142442233D01*
X199267767Y-141911974D01*
X198574950Y-141625000D01*
X197825050Y-141625000D01*
X197132233Y-141911974D01*
X196601974Y-142442233D01*
X196315000Y-143135050D01*
X193565607Y-143135050D01*
X193564250Y-143084565D01*
X193316123Y-142485533D01*
X193023320Y-142356285D01*
X191869605Y-143510000D01*
X191510395Y-143510000D01*
X190356680Y-142356285D01*
X190063877Y-142485533D01*
X189795612Y-143185806D01*
X188575000Y-143185806D01*
X188575000Y-143135050D01*
X188288026Y-142442233D01*
X188022473Y-142176680D01*
X190536285Y-142176680D01*
X191690000Y-143330395D01*
X192843715Y-142176680D01*
X192714467Y-141883877D01*
X192014194Y-141615612D01*
X191264565Y-141635750D01*
X190665533Y-141883877D01*
X190536285Y-142176680D01*
X188022473Y-142176680D01*
X187757767Y-141911974D01*
X187064950Y-141625000D01*
X186315050Y-141625000D01*
X186182283Y-141679994D01*
X181865361Y-137363072D01*
X181813197Y-137285003D01*
X181503919Y-137078350D01*
X181231186Y-137024100D01*
X181139100Y-137005783D01*
X181047014Y-137024100D01*
X169426390Y-137024100D01*
X163886261Y-131483972D01*
X163834097Y-131405903D01*
X163743997Y-131345700D01*
X167500560Y-131345700D01*
X167500560Y-133179820D01*
X167549843Y-133427585D01*
X167690191Y-133637629D01*
X167900235Y-133777977D01*
X168148000Y-133827260D01*
X169334971Y-133827260D01*
X170606241Y-135098531D01*
X170658403Y-135176597D01*
X170967681Y-135383250D01*
X171240414Y-135437500D01*
X171240417Y-135437500D01*
X171332499Y-135455816D01*
X171424581Y-135437500D01*
X176555414Y-135437500D01*
X176647500Y-135455817D01*
X176739586Y-135437500D01*
X177012319Y-135383250D01*
X177321597Y-135176597D01*
X177373761Y-135098528D01*
X178703086Y-133769204D01*
X179070000Y-133842188D01*
X179615082Y-133733764D01*
X180077180Y-133425000D01*
X180340000Y-133031662D01*
X180602821Y-133425000D01*
X181064919Y-133733764D01*
X181610000Y-133842188D01*
X182155082Y-133733764D01*
X182617180Y-133425000D01*
X182880000Y-133031662D01*
X183142821Y-133425000D01*
X183604919Y-133733764D01*
X184150000Y-133842188D01*
X184695082Y-133733764D01*
X185157180Y-133425000D01*
X185420000Y-133031662D01*
X185682821Y-133425000D01*
X186144919Y-133733764D01*
X186690000Y-133842188D01*
X187056915Y-133769204D01*
X192450539Y-139162828D01*
X192502703Y-139240897D01*
X192811981Y-139447550D01*
X193084714Y-139501800D01*
X193176800Y-139520117D01*
X193268886Y-139501800D01*
X197869511Y-139501800D01*
X201369994Y-143002283D01*
X201315000Y-143135050D01*
X201315000Y-143884950D01*
X201601974Y-144577767D01*
X202132233Y-145108026D01*
X202825050Y-145395000D01*
X203574950Y-145395000D01*
X204267767Y-145108026D01*
X204532473Y-144843320D01*
X207046285Y-144843320D01*
X207175533Y-145136123D01*
X207875806Y-145404388D01*
X208625435Y-145384250D01*
X209224467Y-145136123D01*
X209353715Y-144843320D01*
X208200000Y-143689605D01*
X207046285Y-144843320D01*
X204532473Y-144843320D01*
X204798026Y-144577767D01*
X205085000Y-143884950D01*
X205085000Y-143185806D01*
X206305612Y-143185806D01*
X206325750Y-143935435D01*
X206573877Y-144534467D01*
X206866680Y-144663715D01*
X208020395Y-143510000D01*
X208379605Y-143510000D01*
X209533320Y-144663715D01*
X209826123Y-144534467D01*
X210094388Y-143834194D01*
X210074250Y-143084565D01*
X209826123Y-142485533D01*
X209533320Y-142356285D01*
X208379605Y-143510000D01*
X208020395Y-143510000D01*
X206866680Y-142356285D01*
X206573877Y-142485533D01*
X206305612Y-143185806D01*
X205085000Y-143185806D01*
X205085000Y-143135050D01*
X204798026Y-142442233D01*
X204532473Y-142176680D01*
X207046285Y-142176680D01*
X208200000Y-143330395D01*
X209353715Y-142176680D01*
X209224467Y-141883877D01*
X208524194Y-141615612D01*
X207774565Y-141635750D01*
X207175533Y-141883877D01*
X207046285Y-142176680D01*
X204532473Y-142176680D01*
X204267767Y-141911974D01*
X203574950Y-141625000D01*
X202825050Y-141625000D01*
X202692283Y-141679994D01*
X198983061Y-137970772D01*
X198930897Y-137892703D01*
X198621619Y-137686050D01*
X198348886Y-137631800D01*
X198256800Y-137613483D01*
X198164714Y-137631800D01*
X193564089Y-137631800D01*
X189684142Y-133751853D01*
X189775082Y-133733764D01*
X190237180Y-133425000D01*
X190500000Y-133031662D01*
X190762821Y-133425000D01*
X191224919Y-133733764D01*
X191770000Y-133842188D01*
X192315082Y-133733764D01*
X192777180Y-133425000D01*
X193085944Y-132962902D01*
X193167000Y-132555407D01*
X193167000Y-131604592D01*
X193121271Y-131374700D01*
X197309772Y-131374700D01*
X196910620Y-131540034D01*
X196310034Y-132140620D01*
X195985000Y-132925322D01*
X195985000Y-133774678D01*
X196310034Y-134559380D01*
X196910620Y-135159966D01*
X197695322Y-135485000D01*
X198544678Y-135485000D01*
X199329380Y-135159966D01*
X199929966Y-134559380D01*
X200255000Y-133774678D01*
X200255000Y-132925322D01*
X199929966Y-132140620D01*
X199329380Y-131540034D01*
X198930228Y-131374700D01*
X202562411Y-131374700D01*
X203909994Y-132722283D01*
X203855000Y-132855050D01*
X203855000Y-133604950D01*
X204141974Y-134297767D01*
X204672233Y-134828026D01*
X205365050Y-135115000D01*
X206114950Y-135115000D01*
X206807767Y-134828026D01*
X207338026Y-134297767D01*
X207625000Y-133604950D01*
X207625000Y-132855050D01*
X207338026Y-132162233D01*
X206807767Y-131631974D01*
X206114950Y-131345000D01*
X205365050Y-131345000D01*
X205232283Y-131399994D01*
X203675961Y-129843672D01*
X203623797Y-129765603D01*
X203314519Y-129558950D01*
X203041786Y-129504700D01*
X202949700Y-129486383D01*
X202857614Y-129504700D01*
X180802386Y-129504700D01*
X180710300Y-129486383D01*
X180618214Y-129504700D01*
X180345481Y-129558950D01*
X180036203Y-129765603D01*
X179984039Y-129843672D01*
X179436915Y-130390796D01*
X179070000Y-130317812D01*
X178524918Y-130426236D01*
X178062820Y-130735001D01*
X177800000Y-131128339D01*
X177537179Y-130735000D01*
X177075081Y-130426236D01*
X176530000Y-130317812D01*
X175984918Y-130426236D01*
X175522820Y-130735001D01*
X175260000Y-131128339D01*
X174997179Y-130735000D01*
X174973327Y-130719062D01*
X177837339Y-127855050D01*
X203855000Y-127855050D01*
X203855000Y-128604950D01*
X204141974Y-129297767D01*
X204672233Y-129828026D01*
X205365050Y-130115000D01*
X206114950Y-130115000D01*
X206807767Y-129828026D01*
X207338026Y-129297767D01*
X207625000Y-128604950D01*
X207625000Y-127855050D01*
X207338026Y-127162233D01*
X206807767Y-126631974D01*
X206114950Y-126345000D01*
X205365050Y-126345000D01*
X204672233Y-126631974D01*
X204141974Y-127162233D01*
X203855000Y-127855050D01*
X177837339Y-127855050D01*
X181527390Y-124165000D01*
X204086980Y-124165000D01*
X204141974Y-124297767D01*
X204672233Y-124828026D01*
X205365050Y-125115000D01*
X206114950Y-125115000D01*
X206807767Y-124828026D01*
X207338026Y-124297767D01*
X207625000Y-123604950D01*
X207625000Y-122855050D01*
X207338026Y-122162233D01*
X206807767Y-121631974D01*
X206114950Y-121345000D01*
X205365050Y-121345000D01*
X204672233Y-121631974D01*
X204141974Y-122162233D01*
X204086980Y-122295000D01*
X199684846Y-122295000D01*
X199929966Y-122049880D01*
X200255000Y-121265178D01*
X200255000Y-120415822D01*
X199929966Y-119631120D01*
X199862166Y-119563320D01*
X204586285Y-119563320D01*
X204715533Y-119856123D01*
X205415806Y-120124388D01*
X206165435Y-120104250D01*
X206764467Y-119856123D01*
X206893715Y-119563320D01*
X205740000Y-118409605D01*
X204586285Y-119563320D01*
X199862166Y-119563320D01*
X199329380Y-119030534D01*
X198544678Y-118705500D01*
X197695322Y-118705500D01*
X196910620Y-119030534D01*
X196310034Y-119631120D01*
X195985000Y-120415822D01*
X195985000Y-121265178D01*
X196310034Y-122049880D01*
X196555154Y-122295000D01*
X181232181Y-122295000D01*
X181140099Y-122276684D01*
X181048017Y-122295000D01*
X181048014Y-122295000D01*
X180775281Y-122349250D01*
X180466003Y-122555903D01*
X180413841Y-122633969D01*
X173990000Y-129057811D01*
X173937861Y-129005672D01*
X173885697Y-128927603D01*
X173576419Y-128720950D01*
X173303686Y-128666700D01*
X173211600Y-128648383D01*
X173119514Y-128666700D01*
X146588380Y-128666700D01*
X146496299Y-128648384D01*
X146404218Y-128666700D01*
X146404214Y-128666700D01*
X146131481Y-128720950D01*
X145822203Y-128927603D01*
X145770041Y-129005669D01*
X144384914Y-130390796D01*
X144018000Y-130317812D01*
X143651086Y-130390796D01*
X134316061Y-121055772D01*
X134263897Y-120977703D01*
X133954619Y-120771050D01*
X133681886Y-120716800D01*
X133589800Y-120698483D01*
X133497714Y-120716800D01*
X122280286Y-120716800D01*
X122188200Y-120698483D01*
X122096114Y-120716800D01*
X121823381Y-120771050D01*
X121514103Y-120977703D01*
X121461941Y-121055769D01*
X118476728Y-124040983D01*
X118110000Y-123968036D01*
X117569378Y-124075572D01*
X117111060Y-124381811D01*
X116840000Y-124787481D01*
X116568939Y-124381810D01*
X116110621Y-124075572D01*
X115570000Y-123968036D01*
X115029378Y-124075572D01*
X114571060Y-124381811D01*
X114300000Y-124787481D01*
X114028939Y-124381810D01*
X113570621Y-124075572D01*
X113030000Y-123968036D01*
X112489378Y-124075572D01*
X112031060Y-124381811D01*
X111756912Y-124792102D01*
X111679399Y-124776684D01*
X111587318Y-124795000D01*
X111587314Y-124795000D01*
X111314581Y-124849250D01*
X111005303Y-125055903D01*
X110953141Y-125133969D01*
X108752111Y-127335000D01*
X108392849Y-127335000D01*
X108377977Y-127260235D01*
X108237629Y-127050191D01*
X108027585Y-126909843D01*
X107779820Y-126860560D01*
X105580180Y-126860560D01*
X105332415Y-126909843D01*
X105122371Y-127050191D01*
X104982023Y-127260235D01*
X104932740Y-127508000D01*
X104932740Y-128612700D01*
X104617260Y-128612700D01*
X104617260Y-127508000D01*
X104567977Y-127260235D01*
X104427629Y-127050191D01*
X104217585Y-126909843D01*
X103969820Y-126860560D01*
X101770180Y-126860560D01*
X101522415Y-126909843D01*
X101312371Y-127050191D01*
X101172023Y-127260235D01*
X101122740Y-127508000D01*
X101122740Y-128612700D01*
X100807260Y-128612700D01*
X100807260Y-127508000D01*
X100757977Y-127260235D01*
X100617629Y-127050191D01*
X100407585Y-126909843D01*
X100159820Y-126860560D01*
X97960180Y-126860560D01*
X97712415Y-126909843D01*
X97502371Y-127050191D01*
X97362023Y-127260235D01*
X97347151Y-127335000D01*
X95517290Y-127335000D01*
X88598112Y-120415822D01*
X90575000Y-120415822D01*
X90575000Y-121265178D01*
X90900034Y-122049880D01*
X91500620Y-122650466D01*
X92285322Y-122975500D01*
X93134678Y-122975500D01*
X93919380Y-122650466D01*
X94519966Y-122049880D01*
X94845000Y-121265178D01*
X94845000Y-120415822D01*
X94519966Y-119631120D01*
X93919380Y-119030534D01*
X93134678Y-118705500D01*
X92285322Y-118705500D01*
X91500620Y-119030534D01*
X90900034Y-119631120D01*
X90575000Y-120415822D01*
X88598112Y-120415822D01*
X86920006Y-118737717D01*
X86975000Y-118604950D01*
X86975000Y-117905806D01*
X203845612Y-117905806D01*
X203865750Y-118655435D01*
X204113877Y-119254467D01*
X204406680Y-119383715D01*
X205560395Y-118230000D01*
X205919605Y-118230000D01*
X207073320Y-119383715D01*
X207366123Y-119254467D01*
X207634388Y-118554194D01*
X207614250Y-117804565D01*
X207366123Y-117205533D01*
X207073320Y-117076285D01*
X205919605Y-118230000D01*
X205560395Y-118230000D01*
X204406680Y-117076285D01*
X204113877Y-117205533D01*
X203845612Y-117905806D01*
X86975000Y-117905806D01*
X86975000Y-117855050D01*
X86688026Y-117162233D01*
X86422473Y-116896680D01*
X204586285Y-116896680D01*
X205740000Y-118050395D01*
X206893715Y-116896680D01*
X206764467Y-116603877D01*
X206064194Y-116335612D01*
X205314565Y-116355750D01*
X204715533Y-116603877D01*
X204586285Y-116896680D01*
X86422473Y-116896680D01*
X86157767Y-116631974D01*
X85464950Y-116345000D01*
X84715050Y-116345000D01*
X84022233Y-116631974D01*
X83491974Y-117162233D01*
X83205000Y-117855050D01*
X83205000Y-118604950D01*
X83491974Y-119297767D01*
X84022233Y-119828026D01*
X84715050Y-120115000D01*
X85464950Y-120115000D01*
X85597717Y-120060006D01*
X94150410Y-128612700D01*
X86971790Y-128612700D01*
X86975000Y-128604950D01*
X86975000Y-127855050D01*
X86688026Y-127162233D01*
X86157767Y-126631974D01*
X85464950Y-126345000D01*
X84715050Y-126345000D01*
X84022233Y-126631974D01*
X83491974Y-127162233D01*
X83205000Y-127855050D01*
X83205000Y-128604950D01*
X83491974Y-129297767D01*
X84022233Y-129828026D01*
X84715050Y-130115000D01*
X85464950Y-130115000D01*
X85597717Y-130060006D01*
X85681441Y-130143731D01*
X85733603Y-130221797D01*
X86042881Y-130428450D01*
X86315614Y-130482700D01*
X86315617Y-130482700D01*
X86407699Y-130501016D01*
X86499781Y-130482700D01*
X97362916Y-130482700D01*
X97297812Y-130810000D01*
X97406236Y-131355082D01*
X97715000Y-131817180D01*
X98125669Y-132091580D01*
X98070239Y-132107941D01*
X97644550Y-132451974D01*
X97382920Y-132932723D01*
X97367960Y-133006930D01*
X97490460Y-133223000D01*
X98933000Y-133223000D01*
X98933000Y-133203000D01*
X99187000Y-133203000D01*
X99187000Y-133223000D01*
X100629540Y-133223000D01*
X100752040Y-133006930D01*
X100737080Y-132932723D01*
X100475450Y-132451974D01*
X100049761Y-132107941D01*
X99994331Y-132091580D01*
X100405000Y-131817180D01*
X100713764Y-131355082D01*
X100822188Y-130810000D01*
X100757084Y-130482700D01*
X101172916Y-130482700D01*
X101107812Y-130810000D01*
X101216236Y-131355082D01*
X101525000Y-131817180D01*
X101935669Y-132091580D01*
X101880239Y-132107941D01*
X101454550Y-132451974D01*
X101192920Y-132932723D01*
X101177960Y-133006930D01*
X101300460Y-133223000D01*
X102743000Y-133223000D01*
X102743000Y-133203000D01*
X102997000Y-133203000D01*
X102997000Y-133223000D01*
X104439540Y-133223000D01*
X104561774Y-133007400D01*
X104988226Y-133007400D01*
X105110460Y-133223000D01*
X106553000Y-133223000D01*
X106553000Y-133203000D01*
X106807000Y-133203000D01*
X106807000Y-133223000D01*
X108249540Y-133223000D01*
X108371774Y-133007400D01*
X109372514Y-133007400D01*
X109464600Y-133025717D01*
X109556686Y-133007400D01*
X109829419Y-132953150D01*
X110138697Y-132746497D01*
X110190861Y-132668428D01*
X110198389Y-132660900D01*
X111684886Y-132660900D01*
X111644430Y-132864288D01*
X111644430Y-133835713D01*
X111724822Y-134239872D01*
X112031061Y-134698190D01*
X112489379Y-135004428D01*
X113030000Y-135111964D01*
X113570622Y-135004428D01*
X114028940Y-134698190D01*
X114300000Y-134292520D01*
X114571061Y-134698190D01*
X115029379Y-135004428D01*
X115570000Y-135111964D01*
X116110622Y-135004428D01*
X116568940Y-134698190D01*
X116840000Y-134292520D01*
X117111061Y-134698190D01*
X117569379Y-135004428D01*
X117656044Y-135021667D01*
X117565611Y-135112100D01*
X93967246Y-135112100D01*
X94519966Y-134559380D01*
X94845000Y-133774678D01*
X94845000Y-133693070D01*
X97367960Y-133693070D01*
X97382920Y-133767277D01*
X97644550Y-134248026D01*
X98070239Y-134592059D01*
X98595180Y-134747000D01*
X98933000Y-134747000D01*
X98933000Y-133477000D01*
X99187000Y-133477000D01*
X99187000Y-134747000D01*
X99524820Y-134747000D01*
X100049761Y-134592059D01*
X100475450Y-134248026D01*
X100737080Y-133767277D01*
X100752040Y-133693070D01*
X101177960Y-133693070D01*
X101192920Y-133767277D01*
X101454550Y-134248026D01*
X101880239Y-134592059D01*
X102405180Y-134747000D01*
X102743000Y-134747000D01*
X102743000Y-133477000D01*
X102997000Y-133477000D01*
X102997000Y-134747000D01*
X103334820Y-134747000D01*
X103859761Y-134592059D01*
X104285450Y-134248026D01*
X104547080Y-133767277D01*
X104562040Y-133693070D01*
X104987960Y-133693070D01*
X105002920Y-133767277D01*
X105264550Y-134248026D01*
X105690239Y-134592059D01*
X106215180Y-134747000D01*
X106553000Y-134747000D01*
X106553000Y-133477000D01*
X106807000Y-133477000D01*
X106807000Y-134747000D01*
X107144820Y-134747000D01*
X107669761Y-134592059D01*
X108095450Y-134248026D01*
X108357080Y-133767277D01*
X108372040Y-133693070D01*
X108249540Y-133477000D01*
X106807000Y-133477000D01*
X106553000Y-133477000D01*
X105110460Y-133477000D01*
X104987960Y-133693070D01*
X104562040Y-133693070D01*
X104439540Y-133477000D01*
X102997000Y-133477000D01*
X102743000Y-133477000D01*
X101300460Y-133477000D01*
X101177960Y-133693070D01*
X100752040Y-133693070D01*
X100629540Y-133477000D01*
X99187000Y-133477000D01*
X98933000Y-133477000D01*
X97490460Y-133477000D01*
X97367960Y-133693070D01*
X94845000Y-133693070D01*
X94845000Y-132925322D01*
X94519966Y-132140620D01*
X93919380Y-131540034D01*
X93134678Y-131215000D01*
X92285322Y-131215000D01*
X91500620Y-131540034D01*
X90900034Y-132140620D01*
X90575000Y-132925322D01*
X90575000Y-133774678D01*
X90900034Y-134559380D01*
X91452754Y-135112100D01*
X90704981Y-135112100D01*
X90612899Y-135093784D01*
X90520817Y-135112100D01*
X90520814Y-135112100D01*
X90248081Y-135166350D01*
X89938803Y-135373003D01*
X89886641Y-135451069D01*
X83657717Y-141679994D01*
X83524950Y-141625000D01*
X82775050Y-141625000D01*
X82082233Y-141911974D01*
X81551974Y-142442233D01*
X81265000Y-143135050D01*
X79450000Y-143135050D01*
X79450000Y-134563320D01*
X83936285Y-134563320D01*
X84065533Y-134856123D01*
X84765806Y-135124388D01*
X85515435Y-135104250D01*
X86114467Y-134856123D01*
X86243715Y-134563320D01*
X85090000Y-133409605D01*
X83936285Y-134563320D01*
X79450000Y-134563320D01*
X79450000Y-132905806D01*
X83195612Y-132905806D01*
X83215750Y-133655435D01*
X83463877Y-134254467D01*
X83756680Y-134383715D01*
X84910395Y-133230000D01*
X85269605Y-133230000D01*
X86423320Y-134383715D01*
X86716123Y-134254467D01*
X86984388Y-133554194D01*
X86964250Y-132804565D01*
X86716123Y-132205533D01*
X86423320Y-132076285D01*
X85269605Y-133230000D01*
X84910395Y-133230000D01*
X83756680Y-132076285D01*
X83463877Y-132205533D01*
X83195612Y-132905806D01*
X79450000Y-132905806D01*
X79450000Y-131896680D01*
X83936285Y-131896680D01*
X85090000Y-133050395D01*
X86243715Y-131896680D01*
X86114467Y-131603877D01*
X85414194Y-131335612D01*
X84664565Y-131355750D01*
X84065533Y-131603877D01*
X83936285Y-131896680D01*
X79450000Y-131896680D01*
X79450000Y-122855050D01*
X83205000Y-122855050D01*
X83205000Y-123604950D01*
X83491974Y-124297767D01*
X84022233Y-124828026D01*
X84715050Y-125115000D01*
X85464950Y-125115000D01*
X86157767Y-124828026D01*
X86688026Y-124297767D01*
X86975000Y-123604950D01*
X86975000Y-122855050D01*
X86688026Y-122162233D01*
X86157767Y-121631974D01*
X85464950Y-121345000D01*
X84715050Y-121345000D01*
X84022233Y-121631974D01*
X83491974Y-122162233D01*
X83205000Y-122855050D01*
X79450000Y-122855050D01*
X79450000Y-115632119D01*
X79494065Y-115382213D01*
X79589405Y-115217080D01*
X79735477Y-115094512D01*
X79944465Y-115018445D01*
X80040996Y-115010000D01*
X210757881Y-115010000D01*
X211007787Y-115054065D01*
G36*
X171577000Y-131953000D02*
X171597000Y-131953000D01*
X171597000Y-132207000D01*
X171577000Y-132207000D01*
X171577000Y-132227000D01*
X171323000Y-132227000D01*
X171323000Y-132207000D01*
X171303000Y-132207000D01*
X171303000Y-131953000D01*
X171323000Y-131953000D01*
X171323000Y-131933000D01*
X171577000Y-131933000D01*
X171577000Y-131953000D01*
X171577000Y-131953000D01*
G37*
X171577000Y-131953000D02*
X171597000Y-131953000D01*
X171597000Y-132207000D01*
X171577000Y-132207000D01*
X171577000Y-132227000D01*
X171323000Y-132227000D01*
X171323000Y-132207000D01*
X171303000Y-132207000D01*
X171303000Y-131953000D01*
X171323000Y-131953000D01*
X171323000Y-131933000D01*
X171577000Y-131933000D01*
X171577000Y-131953000D01*
G36*
X141605000Y-131953000D02*
X141625000Y-131953000D01*
X141625000Y-132207000D01*
X141605000Y-132207000D01*
X141605000Y-132227000D01*
X141351000Y-132227000D01*
X141351000Y-132207000D01*
X141331000Y-132207000D01*
X141331000Y-131953000D01*
X141351000Y-131953000D01*
X141351000Y-131933000D01*
X141605000Y-131933000D01*
X141605000Y-131953000D01*
X141605000Y-131953000D01*
G37*
X141605000Y-131953000D02*
X141625000Y-131953000D01*
X141625000Y-132207000D01*
X141605000Y-132207000D01*
X141605000Y-132227000D01*
X141351000Y-132227000D01*
X141351000Y-132207000D01*
X141331000Y-132207000D01*
X141331000Y-131953000D01*
X141351000Y-131953000D01*
X141351000Y-131933000D01*
X141605000Y-131933000D01*
X141605000Y-131953000D01*
G04 #@! TD*
M02*
