G04 #@! TF.GenerationSoftware,KiCad,Pcbnew,(5.0.1)-3*
G04 #@! TF.CreationDate,2019-04-12T12:40:20-05:00*
G04 #@! TF.ProjectId,New_I2C_ports,4E65775F4932435F706F7274732E6B69,rev?*
G04 #@! TF.SameCoordinates,Original*
G04 #@! TF.FileFunction,Legend,Top*
G04 #@! TF.FilePolarity,Positive*
%FSLAX46Y46*%
G04 Gerber Fmt 4.6, Leading zero omitted, Abs format (unit mm)*
G04 Created by KiCad (PCBNEW (5.0.1)-3) date 12/04/2019 12:40:20*
%MOMM*%
%LPD*%
G01*
G04 APERTURE LIST*
%ADD10C,0.175000*%
%ADD11C,0.200000*%
%ADD12C,0.250000*%
%ADD13C,0.120000*%
%ADD14C,0.198120*%
%ADD15C,0.304800*%
%ADD16C,0.381000*%
%ADD17C,0.150000*%
%ADD18C,0.149860*%
%ADD19C,0.203200*%
%ADD20C,0.285750*%
%ADD21C,0.287020*%
%ADD22C,0.300000*%
G04 APERTURE END LIST*
D10*
X152716000Y-149160666D02*
X152716000Y-148460666D01*
X153049333Y-149160666D02*
X153049333Y-148460666D01*
X153449333Y-149160666D01*
X153449333Y-148460666D01*
X153716000Y-148460666D02*
X154182666Y-148460666D01*
X153882666Y-149160666D01*
X137642666Y-148494000D02*
X137576000Y-148460666D01*
X137476000Y-148460666D01*
X137376000Y-148494000D01*
X137309333Y-148560666D01*
X137276000Y-148627333D01*
X137242666Y-148760666D01*
X137242666Y-148860666D01*
X137276000Y-148994000D01*
X137309333Y-149060666D01*
X137376000Y-149127333D01*
X137476000Y-149160666D01*
X137542666Y-149160666D01*
X137642666Y-149127333D01*
X137676000Y-149094000D01*
X137676000Y-148860666D01*
X137542666Y-148860666D01*
X137976000Y-149160666D02*
X137976000Y-148460666D01*
X138376000Y-149160666D01*
X138376000Y-148460666D01*
X138709333Y-149160666D02*
X138709333Y-148460666D01*
X138876000Y-148460666D01*
X138976000Y-148494000D01*
X139042666Y-148560666D01*
X139076000Y-148627333D01*
X139109333Y-148760666D01*
X139109333Y-148860666D01*
X139076000Y-148994000D01*
X139042666Y-149060666D01*
X138976000Y-149127333D01*
X138876000Y-149160666D01*
X138709333Y-149160666D01*
X147548666Y-148494000D02*
X147482000Y-148460666D01*
X147382000Y-148460666D01*
X147282000Y-148494000D01*
X147215333Y-148560666D01*
X147182000Y-148627333D01*
X147148666Y-148760666D01*
X147148666Y-148860666D01*
X147182000Y-148994000D01*
X147215333Y-149060666D01*
X147282000Y-149127333D01*
X147382000Y-149160666D01*
X147448666Y-149160666D01*
X147548666Y-149127333D01*
X147582000Y-149094000D01*
X147582000Y-148860666D01*
X147448666Y-148860666D01*
X147882000Y-149160666D02*
X147882000Y-148460666D01*
X148282000Y-149160666D01*
X148282000Y-148460666D01*
X148615333Y-149160666D02*
X148615333Y-148460666D01*
X148782000Y-148460666D01*
X148882000Y-148494000D01*
X148948666Y-148560666D01*
X148982000Y-148627333D01*
X149015333Y-148760666D01*
X149015333Y-148860666D01*
X148982000Y-148994000D01*
X148948666Y-149060666D01*
X148882000Y-149127333D01*
X148782000Y-149160666D01*
X148615333Y-149160666D01*
X142556000Y-149160666D02*
X142556000Y-148460666D01*
X142889333Y-149160666D02*
X142889333Y-148460666D01*
X143289333Y-149160666D01*
X143289333Y-148460666D01*
X143922666Y-148460666D02*
X143789333Y-148460666D01*
X143722666Y-148494000D01*
X143689333Y-148527333D01*
X143622666Y-148627333D01*
X143589333Y-148760666D01*
X143589333Y-149027333D01*
X143622666Y-149094000D01*
X143656000Y-149127333D01*
X143722666Y-149160666D01*
X143856000Y-149160666D01*
X143922666Y-149127333D01*
X143956000Y-149094000D01*
X143989333Y-149027333D01*
X143989333Y-148860666D01*
X143956000Y-148794000D01*
X143922666Y-148760666D01*
X143856000Y-148727333D01*
X143722666Y-148727333D01*
X143656000Y-148760666D01*
X143622666Y-148794000D01*
X143589333Y-148860666D01*
X157962666Y-148494000D02*
X157896000Y-148460666D01*
X157796000Y-148460666D01*
X157696000Y-148494000D01*
X157629333Y-148560666D01*
X157596000Y-148627333D01*
X157562666Y-148760666D01*
X157562666Y-148860666D01*
X157596000Y-148994000D01*
X157629333Y-149060666D01*
X157696000Y-149127333D01*
X157796000Y-149160666D01*
X157862666Y-149160666D01*
X157962666Y-149127333D01*
X157996000Y-149094000D01*
X157996000Y-148860666D01*
X157862666Y-148860666D01*
X158296000Y-149160666D02*
X158296000Y-148460666D01*
X158696000Y-149160666D01*
X158696000Y-148460666D01*
X159029333Y-149160666D02*
X159029333Y-148460666D01*
X159196000Y-148460666D01*
X159296000Y-148494000D01*
X159362666Y-148560666D01*
X159396000Y-148627333D01*
X159429333Y-148760666D01*
X159429333Y-148860666D01*
X159396000Y-148994000D01*
X159362666Y-149060666D01*
X159296000Y-149127333D01*
X159196000Y-149160666D01*
X159029333Y-149160666D01*
X132396000Y-149160666D02*
X132396000Y-148460666D01*
X132729333Y-149160666D02*
X132729333Y-148460666D01*
X133129333Y-149160666D01*
X133129333Y-148460666D01*
X133796000Y-148460666D02*
X133462666Y-148460666D01*
X133429333Y-148794000D01*
X133462666Y-148760666D01*
X133529333Y-148727333D01*
X133696000Y-148727333D01*
X133762666Y-148760666D01*
X133796000Y-148794000D01*
X133829333Y-148860666D01*
X133829333Y-149027333D01*
X133796000Y-149094000D01*
X133762666Y-149127333D01*
X133696000Y-149160666D01*
X133529333Y-149160666D01*
X133462666Y-149127333D01*
X133429333Y-149094000D01*
X127736666Y-148494000D02*
X127670000Y-148460666D01*
X127570000Y-148460666D01*
X127470000Y-148494000D01*
X127403333Y-148560666D01*
X127370000Y-148627333D01*
X127336666Y-148760666D01*
X127336666Y-148860666D01*
X127370000Y-148994000D01*
X127403333Y-149060666D01*
X127470000Y-149127333D01*
X127570000Y-149160666D01*
X127636666Y-149160666D01*
X127736666Y-149127333D01*
X127770000Y-149094000D01*
X127770000Y-148860666D01*
X127636666Y-148860666D01*
X128070000Y-149160666D02*
X128070000Y-148460666D01*
X128470000Y-149160666D01*
X128470000Y-148460666D01*
X128803333Y-149160666D02*
X128803333Y-148460666D01*
X128970000Y-148460666D01*
X129070000Y-148494000D01*
X129136666Y-148560666D01*
X129170000Y-148627333D01*
X129203333Y-148760666D01*
X129203333Y-148860666D01*
X129170000Y-148994000D01*
X129136666Y-149060666D01*
X129070000Y-149127333D01*
X128970000Y-149160666D01*
X128803333Y-149160666D01*
X122236000Y-149160666D02*
X122236000Y-148460666D01*
X122569333Y-149160666D02*
X122569333Y-148460666D01*
X122969333Y-149160666D01*
X122969333Y-148460666D01*
X123602666Y-148694000D02*
X123602666Y-149160666D01*
X123436000Y-148427333D02*
X123269333Y-148927333D01*
X123702666Y-148927333D01*
X117830666Y-148494000D02*
X117764000Y-148460666D01*
X117664000Y-148460666D01*
X117564000Y-148494000D01*
X117497333Y-148560666D01*
X117464000Y-148627333D01*
X117430666Y-148760666D01*
X117430666Y-148860666D01*
X117464000Y-148994000D01*
X117497333Y-149060666D01*
X117564000Y-149127333D01*
X117664000Y-149160666D01*
X117730666Y-149160666D01*
X117830666Y-149127333D01*
X117864000Y-149094000D01*
X117864000Y-148860666D01*
X117730666Y-148860666D01*
X118164000Y-149160666D02*
X118164000Y-148460666D01*
X118564000Y-149160666D01*
X118564000Y-148460666D01*
X118897333Y-149160666D02*
X118897333Y-148460666D01*
X119064000Y-148460666D01*
X119164000Y-148494000D01*
X119230666Y-148560666D01*
X119264000Y-148627333D01*
X119297333Y-148760666D01*
X119297333Y-148860666D01*
X119264000Y-148994000D01*
X119230666Y-149060666D01*
X119164000Y-149127333D01*
X119064000Y-149160666D01*
X118897333Y-149160666D01*
X112584000Y-149160666D02*
X112584000Y-148460666D01*
X112917333Y-149160666D02*
X112917333Y-148460666D01*
X113317333Y-149160666D01*
X113317333Y-148460666D01*
X113584000Y-148460666D02*
X114017333Y-148460666D01*
X113784000Y-148727333D01*
X113884000Y-148727333D01*
X113950666Y-148760666D01*
X113984000Y-148794000D01*
X114017333Y-148860666D01*
X114017333Y-149027333D01*
X113984000Y-149094000D01*
X113950666Y-149127333D01*
X113884000Y-149160666D01*
X113684000Y-149160666D01*
X113617333Y-149127333D01*
X113584000Y-149094000D01*
X107670666Y-148494000D02*
X107604000Y-148460666D01*
X107504000Y-148460666D01*
X107404000Y-148494000D01*
X107337333Y-148560666D01*
X107304000Y-148627333D01*
X107270666Y-148760666D01*
X107270666Y-148860666D01*
X107304000Y-148994000D01*
X107337333Y-149060666D01*
X107404000Y-149127333D01*
X107504000Y-149160666D01*
X107570666Y-149160666D01*
X107670666Y-149127333D01*
X107704000Y-149094000D01*
X107704000Y-148860666D01*
X107570666Y-148860666D01*
X108004000Y-149160666D02*
X108004000Y-148460666D01*
X108404000Y-149160666D01*
X108404000Y-148460666D01*
X108737333Y-149160666D02*
X108737333Y-148460666D01*
X108904000Y-148460666D01*
X109004000Y-148494000D01*
X109070666Y-148560666D01*
X109104000Y-148627333D01*
X109137333Y-148760666D01*
X109137333Y-148860666D01*
X109104000Y-148994000D01*
X109070666Y-149060666D01*
X109004000Y-149127333D01*
X108904000Y-149160666D01*
X108737333Y-149160666D01*
X102424000Y-149160666D02*
X102424000Y-148460666D01*
X102757333Y-149160666D02*
X102757333Y-148460666D01*
X103157333Y-149160666D01*
X103157333Y-148460666D01*
X103457333Y-148527333D02*
X103490666Y-148494000D01*
X103557333Y-148460666D01*
X103724000Y-148460666D01*
X103790666Y-148494000D01*
X103824000Y-148527333D01*
X103857333Y-148594000D01*
X103857333Y-148660666D01*
X103824000Y-148760666D01*
X103424000Y-149160666D01*
X103857333Y-149160666D01*
X97510666Y-148494000D02*
X97444000Y-148460666D01*
X97344000Y-148460666D01*
X97244000Y-148494000D01*
X97177333Y-148560666D01*
X97144000Y-148627333D01*
X97110666Y-148760666D01*
X97110666Y-148860666D01*
X97144000Y-148994000D01*
X97177333Y-149060666D01*
X97244000Y-149127333D01*
X97344000Y-149160666D01*
X97410666Y-149160666D01*
X97510666Y-149127333D01*
X97544000Y-149094000D01*
X97544000Y-148860666D01*
X97410666Y-148860666D01*
X97844000Y-149160666D02*
X97844000Y-148460666D01*
X98244000Y-149160666D01*
X98244000Y-148460666D01*
X98577333Y-149160666D02*
X98577333Y-148460666D01*
X98744000Y-148460666D01*
X98844000Y-148494000D01*
X98910666Y-148560666D01*
X98944000Y-148627333D01*
X98977333Y-148760666D01*
X98977333Y-148860666D01*
X98944000Y-148994000D01*
X98910666Y-149060666D01*
X98844000Y-149127333D01*
X98744000Y-149160666D01*
X98577333Y-149160666D01*
X92264000Y-149160666D02*
X92264000Y-148460666D01*
X92597333Y-149160666D02*
X92597333Y-148460666D01*
X92997333Y-149160666D01*
X92997333Y-148460666D01*
X93697333Y-149160666D02*
X93297333Y-149160666D01*
X93497333Y-149160666D02*
X93497333Y-148460666D01*
X93430666Y-148560666D01*
X93364000Y-148627333D01*
X93297333Y-148660666D01*
X82612000Y-149160666D02*
X82612000Y-148460666D01*
X82945333Y-149160666D02*
X82945333Y-148460666D01*
X83345333Y-149160666D01*
X83345333Y-148460666D01*
X83812000Y-148460666D02*
X83878666Y-148460666D01*
X83945333Y-148494000D01*
X83978666Y-148527333D01*
X84012000Y-148594000D01*
X84045333Y-148727333D01*
X84045333Y-148894000D01*
X84012000Y-149027333D01*
X83978666Y-149094000D01*
X83945333Y-149127333D01*
X83878666Y-149160666D01*
X83812000Y-149160666D01*
X83745333Y-149127333D01*
X83712000Y-149094000D01*
X83678666Y-149027333D01*
X83645333Y-148894000D01*
X83645333Y-148727333D01*
X83678666Y-148594000D01*
X83712000Y-148527333D01*
X83745333Y-148494000D01*
X83812000Y-148460666D01*
X87858666Y-148494000D02*
X87792000Y-148460666D01*
X87692000Y-148460666D01*
X87592000Y-148494000D01*
X87525333Y-148560666D01*
X87492000Y-148627333D01*
X87458666Y-148760666D01*
X87458666Y-148860666D01*
X87492000Y-148994000D01*
X87525333Y-149060666D01*
X87592000Y-149127333D01*
X87692000Y-149160666D01*
X87758666Y-149160666D01*
X87858666Y-149127333D01*
X87892000Y-149094000D01*
X87892000Y-148860666D01*
X87758666Y-148860666D01*
X88192000Y-149160666D02*
X88192000Y-148460666D01*
X88592000Y-149160666D01*
X88592000Y-148460666D01*
X88925333Y-149160666D02*
X88925333Y-148460666D01*
X89092000Y-148460666D01*
X89192000Y-148494000D01*
X89258666Y-148560666D01*
X89292000Y-148627333D01*
X89325333Y-148760666D01*
X89325333Y-148860666D01*
X89292000Y-148994000D01*
X89258666Y-149060666D01*
X89192000Y-149127333D01*
X89092000Y-149160666D01*
X88925333Y-149160666D01*
X203424666Y-148794000D02*
X203524666Y-148827333D01*
X203558000Y-148860666D01*
X203591333Y-148927333D01*
X203591333Y-149027333D01*
X203558000Y-149094000D01*
X203524666Y-149127333D01*
X203458000Y-149160666D01*
X203191333Y-149160666D01*
X203191333Y-148460666D01*
X203424666Y-148460666D01*
X203491333Y-148494000D01*
X203524666Y-148527333D01*
X203558000Y-148594000D01*
X203558000Y-148660666D01*
X203524666Y-148727333D01*
X203491333Y-148760666D01*
X203424666Y-148794000D01*
X203191333Y-148794000D01*
X204258000Y-149160666D02*
X203858000Y-149160666D01*
X204058000Y-149160666D02*
X204058000Y-148460666D01*
X203991333Y-148560666D01*
X203924666Y-148627333D01*
X203858000Y-148660666D01*
X198344666Y-148794000D02*
X198444666Y-148827333D01*
X198478000Y-148860666D01*
X198511333Y-148927333D01*
X198511333Y-149027333D01*
X198478000Y-149094000D01*
X198444666Y-149127333D01*
X198378000Y-149160666D01*
X198111333Y-149160666D01*
X198111333Y-148460666D01*
X198344666Y-148460666D01*
X198411333Y-148494000D01*
X198444666Y-148527333D01*
X198478000Y-148594000D01*
X198478000Y-148660666D01*
X198444666Y-148727333D01*
X198411333Y-148760666D01*
X198344666Y-148794000D01*
X198111333Y-148794000D01*
X198944666Y-148460666D02*
X199011333Y-148460666D01*
X199078000Y-148494000D01*
X199111333Y-148527333D01*
X199144666Y-148594000D01*
X199178000Y-148727333D01*
X199178000Y-148894000D01*
X199144666Y-149027333D01*
X199111333Y-149094000D01*
X199078000Y-149127333D01*
X199011333Y-149160666D01*
X198944666Y-149160666D01*
X198878000Y-149127333D01*
X198844666Y-149094000D01*
X198811333Y-149027333D01*
X198778000Y-148894000D01*
X198778000Y-148727333D01*
X198811333Y-148594000D01*
X198844666Y-148527333D01*
X198878000Y-148494000D01*
X198944666Y-148460666D01*
X207746666Y-148494000D02*
X207680000Y-148460666D01*
X207580000Y-148460666D01*
X207480000Y-148494000D01*
X207413333Y-148560666D01*
X207380000Y-148627333D01*
X207346666Y-148760666D01*
X207346666Y-148860666D01*
X207380000Y-148994000D01*
X207413333Y-149060666D01*
X207480000Y-149127333D01*
X207580000Y-149160666D01*
X207646666Y-149160666D01*
X207746666Y-149127333D01*
X207780000Y-149094000D01*
X207780000Y-148860666D01*
X207646666Y-148860666D01*
X208080000Y-149160666D02*
X208080000Y-148460666D01*
X208480000Y-149160666D01*
X208480000Y-148460666D01*
X208813333Y-149160666D02*
X208813333Y-148460666D01*
X208980000Y-148460666D01*
X209080000Y-148494000D01*
X209146666Y-148560666D01*
X209180000Y-148627333D01*
X209213333Y-148760666D01*
X209213333Y-148860666D01*
X209180000Y-148994000D01*
X209146666Y-149060666D01*
X209080000Y-149127333D01*
X208980000Y-149160666D01*
X208813333Y-149160666D01*
X190982666Y-148494000D02*
X190916000Y-148460666D01*
X190816000Y-148460666D01*
X190716000Y-148494000D01*
X190649333Y-148560666D01*
X190616000Y-148627333D01*
X190582666Y-148760666D01*
X190582666Y-148860666D01*
X190616000Y-148994000D01*
X190649333Y-149060666D01*
X190716000Y-149127333D01*
X190816000Y-149160666D01*
X190882666Y-149160666D01*
X190982666Y-149127333D01*
X191016000Y-149094000D01*
X191016000Y-148860666D01*
X190882666Y-148860666D01*
X191316000Y-149160666D02*
X191316000Y-148460666D01*
X191716000Y-149160666D01*
X191716000Y-148460666D01*
X192049333Y-149160666D02*
X192049333Y-148460666D01*
X192216000Y-148460666D01*
X192316000Y-148494000D01*
X192382666Y-148560666D01*
X192416000Y-148627333D01*
X192449333Y-148760666D01*
X192449333Y-148860666D01*
X192416000Y-148994000D01*
X192382666Y-149060666D01*
X192316000Y-149127333D01*
X192216000Y-149160666D01*
X192049333Y-149160666D01*
X181364000Y-148960666D02*
X181697333Y-148960666D01*
X181297333Y-149160666D02*
X181530666Y-148460666D01*
X181764000Y-149160666D01*
X181964000Y-148527333D02*
X181997333Y-148494000D01*
X182064000Y-148460666D01*
X182230666Y-148460666D01*
X182297333Y-148494000D01*
X182330666Y-148527333D01*
X182364000Y-148594000D01*
X182364000Y-148660666D01*
X182330666Y-148760666D01*
X181930666Y-149160666D01*
X182364000Y-149160666D01*
X186444000Y-148960666D02*
X186777333Y-148960666D01*
X186377333Y-149160666D02*
X186610666Y-148460666D01*
X186844000Y-149160666D01*
X187010666Y-148460666D02*
X187444000Y-148460666D01*
X187210666Y-148727333D01*
X187310666Y-148727333D01*
X187377333Y-148760666D01*
X187410666Y-148794000D01*
X187444000Y-148860666D01*
X187444000Y-149027333D01*
X187410666Y-149094000D01*
X187377333Y-149127333D01*
X187310666Y-149160666D01*
X187110666Y-149160666D01*
X187044000Y-149127333D01*
X187010666Y-149094000D01*
X164600000Y-148960666D02*
X164933333Y-148960666D01*
X164533333Y-149160666D02*
X164766666Y-148460666D01*
X165000000Y-149160666D01*
X165366666Y-148460666D02*
X165433333Y-148460666D01*
X165500000Y-148494000D01*
X165533333Y-148527333D01*
X165566666Y-148594000D01*
X165600000Y-148727333D01*
X165600000Y-148894000D01*
X165566666Y-149027333D01*
X165533333Y-149094000D01*
X165500000Y-149127333D01*
X165433333Y-149160666D01*
X165366666Y-149160666D01*
X165300000Y-149127333D01*
X165266666Y-149094000D01*
X165233333Y-149027333D01*
X165200000Y-148894000D01*
X165200000Y-148727333D01*
X165233333Y-148594000D01*
X165266666Y-148527333D01*
X165300000Y-148494000D01*
X165366666Y-148460666D01*
X174218666Y-148494000D02*
X174152000Y-148460666D01*
X174052000Y-148460666D01*
X173952000Y-148494000D01*
X173885333Y-148560666D01*
X173852000Y-148627333D01*
X173818666Y-148760666D01*
X173818666Y-148860666D01*
X173852000Y-148994000D01*
X173885333Y-149060666D01*
X173952000Y-149127333D01*
X174052000Y-149160666D01*
X174118666Y-149160666D01*
X174218666Y-149127333D01*
X174252000Y-149094000D01*
X174252000Y-148860666D01*
X174118666Y-148860666D01*
X174552000Y-149160666D02*
X174552000Y-148460666D01*
X174952000Y-149160666D01*
X174952000Y-148460666D01*
X175285333Y-149160666D02*
X175285333Y-148460666D01*
X175452000Y-148460666D01*
X175552000Y-148494000D01*
X175618666Y-148560666D01*
X175652000Y-148627333D01*
X175685333Y-148760666D01*
X175685333Y-148860666D01*
X175652000Y-148994000D01*
X175618666Y-149060666D01*
X175552000Y-149127333D01*
X175452000Y-149160666D01*
X175285333Y-149160666D01*
X169680000Y-148960666D02*
X170013333Y-148960666D01*
X169613333Y-149160666D02*
X169846666Y-148460666D01*
X170080000Y-149160666D01*
X170680000Y-149160666D02*
X170280000Y-149160666D01*
X170480000Y-149160666D02*
X170480000Y-148460666D01*
X170413333Y-148560666D01*
X170346666Y-148627333D01*
X170280000Y-148660666D01*
X211611333Y-128866000D02*
X211644666Y-128766000D01*
X211644666Y-128599333D01*
X211611333Y-128532666D01*
X211578000Y-128499333D01*
X211511333Y-128466000D01*
X211444666Y-128466000D01*
X211378000Y-128499333D01*
X211344666Y-128532666D01*
X211311333Y-128599333D01*
X211278000Y-128732666D01*
X211244666Y-128799333D01*
X211211333Y-128832666D01*
X211144666Y-128866000D01*
X211078000Y-128866000D01*
X211011333Y-128832666D01*
X210978000Y-128799333D01*
X210944666Y-128732666D01*
X210944666Y-128566000D01*
X210978000Y-128466000D01*
X211644666Y-128166000D02*
X210944666Y-128166000D01*
X210944666Y-127999333D01*
X210978000Y-127899333D01*
X211044666Y-127832666D01*
X211111333Y-127799333D01*
X211244666Y-127766000D01*
X211344666Y-127766000D01*
X211478000Y-127799333D01*
X211544666Y-127832666D01*
X211611333Y-127899333D01*
X211644666Y-127999333D01*
X211644666Y-128166000D01*
X211444666Y-127499333D02*
X211444666Y-127166000D01*
X211644666Y-127566000D02*
X210944666Y-127332666D01*
X211644666Y-127099333D01*
X211378000Y-134696000D02*
X211378000Y-134162666D01*
X211644666Y-134429333D02*
X211111333Y-134429333D01*
X210944666Y-133496000D02*
X210944666Y-133829333D01*
X211278000Y-133862666D01*
X211244666Y-133829333D01*
X211211333Y-133762666D01*
X211211333Y-133596000D01*
X211244666Y-133529333D01*
X211278000Y-133496000D01*
X211344666Y-133462666D01*
X211511333Y-133462666D01*
X211578000Y-133496000D01*
X211611333Y-133529333D01*
X211644666Y-133596000D01*
X211644666Y-133762666D01*
X211611333Y-133829333D01*
X211578000Y-133862666D01*
X210944666Y-133262666D02*
X211644666Y-133029333D01*
X210944666Y-132796000D01*
X211578000Y-132162666D02*
X211611333Y-132196000D01*
X211644666Y-132296000D01*
X211644666Y-132362666D01*
X211611333Y-132462666D01*
X211544666Y-132529333D01*
X211478000Y-132562666D01*
X211344666Y-132596000D01*
X211244666Y-132596000D01*
X211111333Y-132562666D01*
X211044666Y-132529333D01*
X210978000Y-132462666D01*
X210944666Y-132362666D01*
X210944666Y-132296000D01*
X210978000Y-132196000D01*
X211011333Y-132162666D01*
X211644666Y-131862666D02*
X210944666Y-131862666D01*
X210944666Y-131696000D01*
X210978000Y-131596000D01*
X211044666Y-131529333D01*
X211111333Y-131496000D01*
X211244666Y-131462666D01*
X211344666Y-131462666D01*
X211478000Y-131496000D01*
X211544666Y-131529333D01*
X211611333Y-131596000D01*
X211644666Y-131696000D01*
X211644666Y-131862666D01*
X211611333Y-124277333D02*
X211644666Y-124177333D01*
X211644666Y-124010666D01*
X211611333Y-123944000D01*
X211578000Y-123910666D01*
X211511333Y-123877333D01*
X211444666Y-123877333D01*
X211378000Y-123910666D01*
X211344666Y-123944000D01*
X211311333Y-124010666D01*
X211278000Y-124144000D01*
X211244666Y-124210666D01*
X211211333Y-124244000D01*
X211144666Y-124277333D01*
X211078000Y-124277333D01*
X211011333Y-124244000D01*
X210978000Y-124210666D01*
X210944666Y-124144000D01*
X210944666Y-123977333D01*
X210978000Y-123877333D01*
X211578000Y-123177333D02*
X211611333Y-123210666D01*
X211644666Y-123310666D01*
X211644666Y-123377333D01*
X211611333Y-123477333D01*
X211544666Y-123544000D01*
X211478000Y-123577333D01*
X211344666Y-123610666D01*
X211244666Y-123610666D01*
X211111333Y-123577333D01*
X211044666Y-123544000D01*
X210978000Y-123477333D01*
X210944666Y-123377333D01*
X210944666Y-123310666D01*
X210978000Y-123210666D01*
X211011333Y-123177333D01*
X211644666Y-122544000D02*
X211644666Y-122877333D01*
X210944666Y-122877333D01*
X210978000Y-118897333D02*
X210944666Y-118964000D01*
X210944666Y-119064000D01*
X210978000Y-119164000D01*
X211044666Y-119230666D01*
X211111333Y-119264000D01*
X211244666Y-119297333D01*
X211344666Y-119297333D01*
X211478000Y-119264000D01*
X211544666Y-119230666D01*
X211611333Y-119164000D01*
X211644666Y-119064000D01*
X211644666Y-118997333D01*
X211611333Y-118897333D01*
X211578000Y-118864000D01*
X211344666Y-118864000D01*
X211344666Y-118997333D01*
X211644666Y-118564000D02*
X210944666Y-118564000D01*
X211644666Y-118164000D01*
X210944666Y-118164000D01*
X211644666Y-117830666D02*
X210944666Y-117830666D01*
X210944666Y-117664000D01*
X210978000Y-117564000D01*
X211044666Y-117497333D01*
X211111333Y-117464000D01*
X211244666Y-117430666D01*
X211344666Y-117430666D01*
X211478000Y-117464000D01*
X211544666Y-117497333D01*
X211611333Y-117564000D01*
X211644666Y-117664000D01*
X211644666Y-117830666D01*
X80106000Y-132562666D02*
X80139333Y-132496000D01*
X80139333Y-132396000D01*
X80106000Y-132296000D01*
X80039333Y-132229333D01*
X79972666Y-132196000D01*
X79839333Y-132162666D01*
X79739333Y-132162666D01*
X79606000Y-132196000D01*
X79539333Y-132229333D01*
X79472666Y-132296000D01*
X79439333Y-132396000D01*
X79439333Y-132462666D01*
X79472666Y-132562666D01*
X79506000Y-132596000D01*
X79739333Y-132596000D01*
X79739333Y-132462666D01*
X79439333Y-132896000D02*
X80139333Y-132896000D01*
X79439333Y-133296000D01*
X80139333Y-133296000D01*
X79439333Y-133629333D02*
X80139333Y-133629333D01*
X80139333Y-133796000D01*
X80106000Y-133896000D01*
X80039333Y-133962666D01*
X79972666Y-133996000D01*
X79839333Y-134029333D01*
X79739333Y-134029333D01*
X79606000Y-133996000D01*
X79539333Y-133962666D01*
X79472666Y-133896000D01*
X79439333Y-133796000D01*
X79439333Y-133629333D01*
X79472666Y-127182666D02*
X79439333Y-127282666D01*
X79439333Y-127449333D01*
X79472666Y-127516000D01*
X79506000Y-127549333D01*
X79572666Y-127582666D01*
X79639333Y-127582666D01*
X79706000Y-127549333D01*
X79739333Y-127516000D01*
X79772666Y-127449333D01*
X79806000Y-127316000D01*
X79839333Y-127249333D01*
X79872666Y-127216000D01*
X79939333Y-127182666D01*
X80006000Y-127182666D01*
X80072666Y-127216000D01*
X80106000Y-127249333D01*
X80139333Y-127316000D01*
X80139333Y-127482666D01*
X80106000Y-127582666D01*
X79506000Y-128282666D02*
X79472666Y-128249333D01*
X79439333Y-128149333D01*
X79439333Y-128082666D01*
X79472666Y-127982666D01*
X79539333Y-127916000D01*
X79606000Y-127882666D01*
X79739333Y-127849333D01*
X79839333Y-127849333D01*
X79972666Y-127882666D01*
X80039333Y-127916000D01*
X80106000Y-127982666D01*
X80139333Y-128082666D01*
X80139333Y-128149333D01*
X80106000Y-128249333D01*
X80072666Y-128282666D01*
X79439333Y-128916000D02*
X79439333Y-128582666D01*
X80139333Y-128582666D01*
X79472666Y-122594000D02*
X79439333Y-122694000D01*
X79439333Y-122860666D01*
X79472666Y-122927333D01*
X79506000Y-122960666D01*
X79572666Y-122994000D01*
X79639333Y-122994000D01*
X79706000Y-122960666D01*
X79739333Y-122927333D01*
X79772666Y-122860666D01*
X79806000Y-122727333D01*
X79839333Y-122660666D01*
X79872666Y-122627333D01*
X79939333Y-122594000D01*
X80006000Y-122594000D01*
X80072666Y-122627333D01*
X80106000Y-122660666D01*
X80139333Y-122727333D01*
X80139333Y-122894000D01*
X80106000Y-122994000D01*
X79439333Y-123294000D02*
X80139333Y-123294000D01*
X80139333Y-123460666D01*
X80106000Y-123560666D01*
X80039333Y-123627333D01*
X79972666Y-123660666D01*
X79839333Y-123694000D01*
X79739333Y-123694000D01*
X79606000Y-123660666D01*
X79539333Y-123627333D01*
X79472666Y-123560666D01*
X79439333Y-123460666D01*
X79439333Y-123294000D01*
X79639333Y-123960666D02*
X79639333Y-124294000D01*
X79439333Y-123894000D02*
X80139333Y-124127333D01*
X79439333Y-124360666D01*
X79706000Y-116764000D02*
X79706000Y-117297333D01*
X79439333Y-117030666D02*
X79972666Y-117030666D01*
X80139333Y-117964000D02*
X80139333Y-117630666D01*
X79806000Y-117597333D01*
X79839333Y-117630666D01*
X79872666Y-117697333D01*
X79872666Y-117864000D01*
X79839333Y-117930666D01*
X79806000Y-117964000D01*
X79739333Y-117997333D01*
X79572666Y-117997333D01*
X79506000Y-117964000D01*
X79472666Y-117930666D01*
X79439333Y-117864000D01*
X79439333Y-117697333D01*
X79472666Y-117630666D01*
X79506000Y-117597333D01*
X80139333Y-118197333D02*
X79439333Y-118430666D01*
X80139333Y-118664000D01*
X79506000Y-119297333D02*
X79472666Y-119264000D01*
X79439333Y-119164000D01*
X79439333Y-119097333D01*
X79472666Y-118997333D01*
X79539333Y-118930666D01*
X79606000Y-118897333D01*
X79739333Y-118864000D01*
X79839333Y-118864000D01*
X79972666Y-118897333D01*
X80039333Y-118930666D01*
X80106000Y-118997333D01*
X80139333Y-119097333D01*
X80139333Y-119164000D01*
X80106000Y-119264000D01*
X80072666Y-119297333D01*
X79439333Y-119597333D02*
X80139333Y-119597333D01*
X80139333Y-119764000D01*
X80106000Y-119864000D01*
X80039333Y-119930666D01*
X79972666Y-119964000D01*
X79839333Y-119997333D01*
X79739333Y-119997333D01*
X79606000Y-119964000D01*
X79539333Y-119930666D01*
X79472666Y-119864000D01*
X79439333Y-119764000D01*
X79439333Y-119597333D01*
D11*
X97282000Y-127254000D02*
X96266000Y-127254000D01*
X97282000Y-126492000D02*
X97282000Y-127762000D01*
X108458000Y-126492000D02*
X97282000Y-126492000D01*
X108458000Y-127762000D02*
X108458000Y-126492000D01*
X100076000Y-136144000D02*
X100076000Y-135382000D01*
X96774000Y-136144000D02*
X100076000Y-136144000D01*
X97282000Y-135382000D02*
X97282000Y-133858000D01*
X108458000Y-135382000D02*
X97282000Y-135382000D01*
X108458000Y-133858000D02*
X108458000Y-135382000D01*
D12*
X94234095Y-135390000D02*
X94138857Y-135342380D01*
X93996000Y-135342380D01*
X93853142Y-135390000D01*
X93757904Y-135485238D01*
X93710285Y-135580476D01*
X93662666Y-135770952D01*
X93662666Y-135913809D01*
X93710285Y-136104285D01*
X93757904Y-136199523D01*
X93853142Y-136294761D01*
X93996000Y-136342380D01*
X94091238Y-136342380D01*
X94234095Y-136294761D01*
X94281714Y-136247142D01*
X94281714Y-135913809D01*
X94091238Y-135913809D01*
X94710285Y-136342380D02*
X94710285Y-135342380D01*
X95281714Y-136342380D01*
X95281714Y-135342380D01*
X95757904Y-136342380D02*
X95757904Y-135342380D01*
X95996000Y-135342380D01*
X96138857Y-135390000D01*
X96234095Y-135485238D01*
X96281714Y-135580476D01*
X96329333Y-135770952D01*
X96329333Y-135913809D01*
X96281714Y-136104285D01*
X96234095Y-136199523D01*
X96138857Y-136294761D01*
X95996000Y-136342380D01*
X95757904Y-136342380D01*
X93456285Y-127071428D02*
X94218190Y-127071428D01*
X93837238Y-127452380D02*
X93837238Y-126690476D01*
X95170571Y-126452380D02*
X94694380Y-126452380D01*
X94646761Y-126928571D01*
X94694380Y-126880952D01*
X94789619Y-126833333D01*
X95027714Y-126833333D01*
X95122952Y-126880952D01*
X95170571Y-126928571D01*
X95218190Y-127023809D01*
X95218190Y-127261904D01*
X95170571Y-127357142D01*
X95122952Y-127404761D01*
X95027714Y-127452380D01*
X94789619Y-127452380D01*
X94694380Y-127404761D01*
X94646761Y-127357142D01*
X95503904Y-126452380D02*
X95837238Y-127452380D01*
X96170571Y-126452380D01*
D13*
G04 #@! TO.C,C1*
X133600000Y-128540000D02*
X133600000Y-130540000D01*
X135640000Y-130540000D02*
X135640000Y-128540000D01*
D14*
G04 #@! TO.C,D1*
X98859340Y-119479060D02*
X99260660Y-119479060D01*
X98760280Y-119280940D02*
X99359720Y-119280940D01*
X97660460Y-120881140D02*
X100459540Y-120881140D01*
X100459540Y-117878860D02*
X97660460Y-117878860D01*
X100258880Y-119380000D02*
G75*
G03X100258880Y-119380000I-1198880J0D01*
G01*
X99560380Y-119181880D02*
X98559620Y-119181880D01*
X98559620Y-119181880D02*
X99060000Y-119679720D01*
X99060000Y-119679720D02*
X99560380Y-119181880D01*
X97660460Y-120180100D02*
X98358960Y-120878600D01*
X97660460Y-120578880D02*
X97960180Y-120878600D01*
X97861120Y-120878600D02*
X97660460Y-120680480D01*
X97660460Y-120378220D02*
X98160840Y-120878600D01*
X100459540Y-117680740D02*
X97660460Y-117680740D01*
X97660460Y-117680740D02*
X97660460Y-121079260D01*
X97660460Y-121079260D02*
X100459540Y-121079260D01*
X100457000Y-121079260D02*
X100457000Y-117680740D01*
D15*
G04 #@! TO.C,A2*
X105410000Y-129540000D02*
X107950000Y-129540000D01*
X107950000Y-127000000D02*
X107950000Y-134620000D01*
X107950000Y-134620000D02*
X105410000Y-134620000D01*
X105410000Y-134620000D02*
X105410000Y-127000000D01*
X105410000Y-127000000D02*
X107950000Y-127000000D01*
D13*
G04 #@! TO.C,R1*
X105210000Y-118920000D02*
X105210000Y-120920000D01*
X103070000Y-120920000D02*
X103070000Y-118920000D01*
G04 #@! TO.C,R2*
X114100000Y-118920000D02*
X114100000Y-120920000D01*
X111960000Y-120920000D02*
X111960000Y-118920000D01*
G04 #@! TO.C,R3*
X117040000Y-120920000D02*
X117040000Y-118920000D01*
X119180000Y-118920000D02*
X119180000Y-120920000D01*
D16*
G04 #@! TO.C,U1*
X111760000Y-128270000D02*
X111760000Y-130810000D01*
X133096000Y-132842000D02*
X110744000Y-132842000D01*
X110744000Y-126238000D02*
X133096000Y-126238000D01*
X111760000Y-130810000D02*
X110744000Y-130810000D01*
X111760000Y-128270000D02*
X110744000Y-128270000D01*
X133096000Y-126238000D02*
X133096000Y-132842000D01*
X110744000Y-132842000D02*
X110744000Y-126238000D01*
G04 #@! TO.C,J3*
X195700000Y-138310000D02*
X195700000Y-148110000D01*
X210700000Y-138310000D02*
X195700000Y-138310000D01*
X210700000Y-148110000D02*
X210700000Y-138310000D01*
X195700000Y-148110000D02*
X210700000Y-148110000D01*
X195700000Y-147610000D02*
X210700000Y-147610000D01*
X195700000Y-141210000D02*
X210700000Y-141210000D01*
X195700000Y-146110000D02*
X210700000Y-146110000D01*
X200200000Y-143610000D02*
G75*
G03X200200000Y-143610000I-2000000J0D01*
G01*
X205200000Y-143610000D02*
G75*
G03X205200000Y-143610000I-2000000J0D01*
G01*
X200700000Y-147610000D02*
X200700000Y-148110000D01*
X205700000Y-147610000D02*
X205700000Y-148110000D01*
X210200000Y-143610000D02*
G75*
G03X210200000Y-143610000I-2000000J0D01*
G01*
G04 #@! TO.C,J2*
X193690000Y-143610000D02*
G75*
G03X193690000Y-143610000I-2000000J0D01*
G01*
X189190000Y-147610000D02*
X189190000Y-148110000D01*
X184190000Y-147610000D02*
X184190000Y-148110000D01*
X188690000Y-143610000D02*
G75*
G03X188690000Y-143610000I-2000000J0D01*
G01*
X183690000Y-143610000D02*
G75*
G03X183690000Y-143610000I-2000000J0D01*
G01*
X179190000Y-146110000D02*
X194190000Y-146110000D01*
X179190000Y-141210000D02*
X194190000Y-141210000D01*
X179190000Y-147610000D02*
X194190000Y-147610000D01*
X179190000Y-148110000D02*
X194190000Y-148110000D01*
X194190000Y-148110000D02*
X194190000Y-138310000D01*
X194190000Y-138310000D02*
X179190000Y-138310000D01*
X179190000Y-138310000D02*
X179190000Y-148110000D01*
G04 #@! TO.C,P1*
X80990000Y-130730000D02*
X80490000Y-130730000D01*
X86990000Y-133230000D02*
G75*
G03X86990000Y-133230000I-2000000J0D01*
G01*
X86990000Y-128230000D02*
G75*
G03X86990000Y-128230000I-2000000J0D01*
G01*
X80990000Y-125730000D02*
X80490000Y-125730000D01*
X80990000Y-120730000D02*
X80490000Y-120730000D01*
X86990000Y-123230000D02*
G75*
G03X86990000Y-123230000I-2000000J0D01*
G01*
X86990000Y-118230000D02*
G75*
G03X86990000Y-118230000I-2000000J0D01*
G01*
X82490000Y-115730000D02*
X82490000Y-135730000D01*
X87390000Y-115730000D02*
X87390000Y-135730000D01*
X80990000Y-115730000D02*
X80990000Y-135730000D01*
X80490000Y-115730000D02*
X80490000Y-135730000D01*
X80490000Y-135730000D02*
X90290000Y-135730000D01*
X90290000Y-135730000D02*
X90290000Y-115730000D01*
X90290000Y-115730000D02*
X80490000Y-115730000D01*
D15*
G04 #@! TO.C,A0*
X97790000Y-129540000D02*
X100330000Y-129540000D01*
X100330000Y-127000000D02*
X100330000Y-134620000D01*
X100330000Y-134620000D02*
X97790000Y-134620000D01*
X97790000Y-134620000D02*
X97790000Y-127000000D01*
X97790000Y-127000000D02*
X100330000Y-127000000D01*
G04 #@! TO.C,A1*
X101600000Y-127000000D02*
X104140000Y-127000000D01*
X101600000Y-134620000D02*
X101600000Y-127000000D01*
X104140000Y-134620000D02*
X101600000Y-134620000D01*
X104140000Y-127000000D02*
X104140000Y-134620000D01*
X101600000Y-129540000D02*
X104140000Y-129540000D01*
D16*
G04 #@! TO.C,P6*
X200540000Y-135730000D02*
X210340000Y-135730000D01*
X200540000Y-115730000D02*
X200540000Y-135730000D01*
X210340000Y-115730000D02*
X200540000Y-115730000D01*
X210340000Y-135730000D02*
X210340000Y-115730000D01*
X209840000Y-135730000D02*
X209840000Y-115730000D01*
X203440000Y-135730000D02*
X203440000Y-115730000D01*
X208340000Y-135730000D02*
X208340000Y-115730000D01*
X207840000Y-133230000D02*
G75*
G03X207840000Y-133230000I-2000000J0D01*
G01*
X207840000Y-128230000D02*
G75*
G03X207840000Y-128230000I-2000000J0D01*
G01*
X209840000Y-130730000D02*
X210340000Y-130730000D01*
X209840000Y-125730000D02*
X210340000Y-125730000D01*
X207840000Y-123230000D02*
G75*
G03X207840000Y-123230000I-2000000J0D01*
G01*
X207840000Y-118230000D02*
G75*
G03X207840000Y-118230000I-2000000J0D01*
G01*
X209840000Y-120730000D02*
X210340000Y-120730000D01*
G04 #@! TO.C,J1*
X177180000Y-143610000D02*
G75*
G03X177180000Y-143610000I-2000000J0D01*
G01*
X172680000Y-147610000D02*
X172680000Y-148110000D01*
X167680000Y-147610000D02*
X167680000Y-148110000D01*
X172180000Y-143610000D02*
G75*
G03X172180000Y-143610000I-2000000J0D01*
G01*
X167180000Y-143610000D02*
G75*
G03X167180000Y-143610000I-2000000J0D01*
G01*
X162680000Y-146110000D02*
X177680000Y-146110000D01*
X162680000Y-141210000D02*
X177680000Y-141210000D01*
X162680000Y-147610000D02*
X177680000Y-147610000D01*
X162680000Y-148110000D02*
X177680000Y-148110000D01*
X177680000Y-148110000D02*
X177680000Y-138310000D01*
X177680000Y-138310000D02*
X162680000Y-138310000D01*
X162680000Y-138310000D02*
X162680000Y-148110000D01*
G04 #@! TO.C,P5*
X160150000Y-143610000D02*
G75*
G03X160150000Y-143610000I-2000000J0D01*
G01*
X155650000Y-147610000D02*
X155650000Y-148110000D01*
X150650000Y-147610000D02*
X150650000Y-148110000D01*
X155150000Y-143610000D02*
G75*
G03X155150000Y-143610000I-2000000J0D01*
G01*
X150150000Y-143610000D02*
G75*
G03X150150000Y-143610000I-2000000J0D01*
G01*
X145650000Y-147610000D02*
X145650000Y-148110000D01*
X140650000Y-147610000D02*
X140650000Y-148110000D01*
X145150000Y-143610000D02*
G75*
G03X145150000Y-143610000I-2000000J0D01*
G01*
X140150000Y-143610000D02*
G75*
G03X140150000Y-143610000I-2000000J0D01*
G01*
X135650000Y-147610000D02*
X135650000Y-148110000D01*
X130650000Y-147610000D02*
X130650000Y-148110000D01*
X135150000Y-143610000D02*
G75*
G03X135150000Y-143610000I-2000000J0D01*
G01*
X130150000Y-143610000D02*
G75*
G03X130150000Y-143610000I-2000000J0D01*
G01*
X125650000Y-147610000D02*
X125650000Y-148110000D01*
X120650000Y-147610000D02*
X120650000Y-148110000D01*
X125150000Y-143610000D02*
G75*
G03X125150000Y-143610000I-2000000J0D01*
G01*
X120150000Y-143610000D02*
G75*
G03X120150000Y-143610000I-2000000J0D01*
G01*
X115650000Y-147610000D02*
X115650000Y-148110000D01*
X110650000Y-147610000D02*
X110650000Y-148110000D01*
X115150000Y-143610000D02*
G75*
G03X115150000Y-143610000I-2000000J0D01*
G01*
X110150000Y-143610000D02*
G75*
G03X110150000Y-143610000I-2000000J0D01*
G01*
X105650000Y-147610000D02*
X105650000Y-148110000D01*
X100650000Y-147610000D02*
X100650000Y-148110000D01*
X105150000Y-143610000D02*
G75*
G03X105150000Y-143610000I-2000000J0D01*
G01*
X95650000Y-147610000D02*
X95650000Y-148110000D01*
X100150000Y-143610000D02*
G75*
G03X100150000Y-143610000I-2000000J0D01*
G01*
X95150000Y-143610000D02*
G75*
G03X95150000Y-143610000I-2000000J0D01*
G01*
X90650000Y-147610000D02*
X90650000Y-148110000D01*
X85650000Y-147610000D02*
X85650000Y-148110000D01*
X90150000Y-143610000D02*
G75*
G03X90150000Y-143610000I-2000000J0D01*
G01*
X85150000Y-143610000D02*
G75*
G03X85150000Y-143610000I-2000000J0D01*
G01*
X80650000Y-146110000D02*
X160650000Y-146110000D01*
X80650000Y-141210000D02*
X160650000Y-141210000D01*
X80650000Y-147610000D02*
X160650000Y-147610000D01*
X80650000Y-148110000D02*
X160650000Y-148110000D01*
X160650000Y-148110000D02*
X160650000Y-138310000D01*
X160650000Y-138310000D02*
X80650000Y-138310000D01*
X80650000Y-138310000D02*
X80650000Y-148110000D01*
D17*
G04 #@! TO.C,J6*
X94082129Y-133350000D02*
G75*
G03X94082129Y-133350000I-1372129J0D01*
G01*
X94082129Y-120840500D02*
G75*
G03X94082129Y-120840500I-1372129J0D01*
G01*
G04 #@! TO.C,J7*
X199492129Y-120840500D02*
G75*
G03X199492129Y-120840500I-1372129J0D01*
G01*
X199492129Y-133350000D02*
G75*
G03X199492129Y-133350000I-1372129J0D01*
G01*
D15*
G04 #@! TO.C,J4*
X140208000Y-130810000D02*
X140208000Y-133350000D01*
X137668000Y-130810000D02*
X163068000Y-130810000D01*
X163068000Y-130810000D02*
X163068000Y-133350000D01*
X163068000Y-133350000D02*
X137668000Y-133350000D01*
X137668000Y-133350000D02*
X137668000Y-130810000D01*
G04 #@! TO.C,J5*
X170180000Y-130810000D02*
X170180000Y-133350000D01*
X167640000Y-130810000D02*
X193040000Y-130810000D01*
X193040000Y-130810000D02*
X193040000Y-133350000D01*
X193040000Y-133350000D02*
X167640000Y-133350000D01*
X167640000Y-133350000D02*
X167640000Y-130810000D01*
G04 #@! TO.C,C1*
D17*
X136727142Y-129706666D02*
X136774761Y-129754285D01*
X136822380Y-129897142D01*
X136822380Y-129992380D01*
X136774761Y-130135238D01*
X136679523Y-130230476D01*
X136584285Y-130278095D01*
X136393809Y-130325714D01*
X136250952Y-130325714D01*
X136060476Y-130278095D01*
X135965238Y-130230476D01*
X135870000Y-130135238D01*
X135822380Y-129992380D01*
X135822380Y-129897142D01*
X135870000Y-129754285D01*
X135917619Y-129706666D01*
X136822380Y-128754285D02*
X136822380Y-129325714D01*
X136822380Y-129040000D02*
X135822380Y-129040000D01*
X135965238Y-129135238D01*
X136060476Y-129230476D01*
X136108095Y-129325714D01*
G04 #@! TO.C,D1*
D18*
X101522530Y-119970550D02*
X100722430Y-119970550D01*
X100722430Y-119780050D01*
X100760530Y-119665750D01*
X100836730Y-119589550D01*
X100912930Y-119551450D01*
X101065330Y-119513350D01*
X101179630Y-119513350D01*
X101332030Y-119551450D01*
X101408230Y-119589550D01*
X101484430Y-119665750D01*
X101522530Y-119780050D01*
X101522530Y-119970550D01*
X101522530Y-118751350D02*
X101522530Y-119208550D01*
X101522530Y-118979950D02*
X100722430Y-118979950D01*
X100836730Y-119056150D01*
X100912930Y-119132350D01*
X100951030Y-119208550D01*
X97212150Y-115931950D02*
X97212150Y-115131850D01*
X97516950Y-115131850D01*
X97593150Y-115169950D01*
X97631250Y-115208050D01*
X97669350Y-115284250D01*
X97669350Y-115398550D01*
X97631250Y-115474750D01*
X97593150Y-115512850D01*
X97516950Y-115550950D01*
X97212150Y-115550950D01*
X98164650Y-115131850D02*
X98317050Y-115131850D01*
X98393250Y-115169950D01*
X98469450Y-115246150D01*
X98507550Y-115398550D01*
X98507550Y-115665250D01*
X98469450Y-115817650D01*
X98393250Y-115893850D01*
X98317050Y-115931950D01*
X98164650Y-115931950D01*
X98088450Y-115893850D01*
X98012250Y-115817650D01*
X97974150Y-115665250D01*
X97974150Y-115398550D01*
X98012250Y-115246150D01*
X98088450Y-115169950D01*
X98164650Y-115131850D01*
X98774250Y-115131850D02*
X98964750Y-115931950D01*
X99117150Y-115360450D01*
X99269550Y-115931950D01*
X99460050Y-115131850D01*
X99764850Y-115512850D02*
X100031550Y-115512850D01*
X100145850Y-115931950D02*
X99764850Y-115931950D01*
X99764850Y-115131850D01*
X100145850Y-115131850D01*
X100945950Y-115931950D02*
X100679250Y-115550950D01*
X100488750Y-115931950D02*
X100488750Y-115131850D01*
X100793550Y-115131850D01*
X100869750Y-115169950D01*
X100907850Y-115208050D01*
X100945950Y-115284250D01*
X100945950Y-115398550D01*
X100907850Y-115474750D01*
X100869750Y-115512850D01*
X100793550Y-115550950D01*
X100488750Y-115550950D01*
G04 #@! TO.C,A2*
D19*
X105954285Y-125899333D02*
X106438095Y-125899333D01*
X105857523Y-126189619D02*
X106196190Y-125173619D01*
X106534857Y-126189619D01*
X106825142Y-125270380D02*
X106873523Y-125222000D01*
X106970285Y-125173619D01*
X107212190Y-125173619D01*
X107308952Y-125222000D01*
X107357333Y-125270380D01*
X107405714Y-125367142D01*
X107405714Y-125463904D01*
X107357333Y-125609047D01*
X106776761Y-126189619D01*
X107405714Y-126189619D01*
G04 #@! TO.C,R1*
D17*
X106442380Y-120086666D02*
X105966190Y-120420000D01*
X106442380Y-120658095D02*
X105442380Y-120658095D01*
X105442380Y-120277142D01*
X105490000Y-120181904D01*
X105537619Y-120134285D01*
X105632857Y-120086666D01*
X105775714Y-120086666D01*
X105870952Y-120134285D01*
X105918571Y-120181904D01*
X105966190Y-120277142D01*
X105966190Y-120658095D01*
X106442380Y-119134285D02*
X106442380Y-119705714D01*
X106442380Y-119420000D02*
X105442380Y-119420000D01*
X105585238Y-119515238D01*
X105680476Y-119610476D01*
X105728095Y-119705714D01*
G04 #@! TO.C,R2*
X115332380Y-120086666D02*
X114856190Y-120420000D01*
X115332380Y-120658095D02*
X114332380Y-120658095D01*
X114332380Y-120277142D01*
X114380000Y-120181904D01*
X114427619Y-120134285D01*
X114522857Y-120086666D01*
X114665714Y-120086666D01*
X114760952Y-120134285D01*
X114808571Y-120181904D01*
X114856190Y-120277142D01*
X114856190Y-120658095D01*
X114427619Y-119705714D02*
X114380000Y-119658095D01*
X114332380Y-119562857D01*
X114332380Y-119324761D01*
X114380000Y-119229523D01*
X114427619Y-119181904D01*
X114522857Y-119134285D01*
X114618095Y-119134285D01*
X114760952Y-119181904D01*
X115332380Y-119753333D01*
X115332380Y-119134285D01*
G04 #@! TO.C,R3*
X120412380Y-120086666D02*
X119936190Y-120420000D01*
X120412380Y-120658095D02*
X119412380Y-120658095D01*
X119412380Y-120277142D01*
X119460000Y-120181904D01*
X119507619Y-120134285D01*
X119602857Y-120086666D01*
X119745714Y-120086666D01*
X119840952Y-120134285D01*
X119888571Y-120181904D01*
X119936190Y-120277142D01*
X119936190Y-120658095D01*
X119412380Y-119753333D02*
X119412380Y-119134285D01*
X119793333Y-119467619D01*
X119793333Y-119324761D01*
X119840952Y-119229523D01*
X119888571Y-119181904D01*
X119983809Y-119134285D01*
X120221904Y-119134285D01*
X120317142Y-119181904D01*
X120364761Y-119229523D01*
X120412380Y-119324761D01*
X120412380Y-119610476D01*
X120364761Y-119705714D01*
X120317142Y-119753333D01*
G04 #@! TO.C,U1*
D20*
X121049142Y-122355428D02*
X121049142Y-123589142D01*
X121103571Y-123734285D01*
X121158000Y-123806857D01*
X121266857Y-123879428D01*
X121484571Y-123879428D01*
X121593428Y-123806857D01*
X121647857Y-123734285D01*
X121702285Y-123589142D01*
X121702285Y-122355428D01*
X122845285Y-123879428D02*
X122192142Y-123879428D01*
X122518714Y-123879428D02*
X122518714Y-122355428D01*
X122409857Y-122573142D01*
X122301000Y-122718285D01*
X122192142Y-122790857D01*
D21*
D20*
X119203288Y-131123508D02*
X119203288Y-129599508D01*
X119638717Y-129599508D01*
X119747574Y-129672080D01*
X119802002Y-129744651D01*
X119856431Y-129889794D01*
X119856431Y-130107508D01*
X119802002Y-130252651D01*
X119747574Y-130325222D01*
X119638717Y-130397794D01*
X119203288Y-130397794D01*
X120999431Y-130978365D02*
X120945002Y-131050937D01*
X120781717Y-131123508D01*
X120672860Y-131123508D01*
X120509574Y-131050937D01*
X120400717Y-130905794D01*
X120346288Y-130760651D01*
X120291860Y-130470365D01*
X120291860Y-130252651D01*
X120346288Y-129962365D01*
X120400717Y-129817222D01*
X120509574Y-129672080D01*
X120672860Y-129599508D01*
X120781717Y-129599508D01*
X120945002Y-129672080D01*
X120999431Y-129744651D01*
X121870288Y-130325222D02*
X121489288Y-130325222D01*
X121489288Y-131123508D02*
X121489288Y-129599508D01*
X122033574Y-129599508D01*
X122196860Y-131268651D02*
X123067717Y-131268651D01*
X123339860Y-131123508D02*
X123339860Y-129599508D01*
X123829717Y-129744651D02*
X123884145Y-129672080D01*
X123993002Y-129599508D01*
X124265145Y-129599508D01*
X124374002Y-129672080D01*
X124428431Y-129744651D01*
X124482860Y-129889794D01*
X124482860Y-130034937D01*
X124428431Y-130252651D01*
X123775288Y-131123508D01*
X124482860Y-131123508D01*
X125625860Y-130978365D02*
X125571431Y-131050937D01*
X125408145Y-131123508D01*
X125299288Y-131123508D01*
X125136002Y-131050937D01*
X125027145Y-130905794D01*
X124972717Y-130760651D01*
X124918288Y-130470365D01*
X124918288Y-130252651D01*
X124972717Y-129962365D01*
X125027145Y-129817222D01*
X125136002Y-129672080D01*
X125299288Y-129599508D01*
X125408145Y-129599508D01*
X125571431Y-129672080D01*
X125625860Y-129744651D01*
G04 #@! TO.C,J3*
D22*
X202700000Y-138878571D02*
X202700000Y-139950000D01*
X202628571Y-140164285D01*
X202485714Y-140307142D01*
X202271428Y-140378571D01*
X202128571Y-140378571D01*
X203271428Y-138878571D02*
X204200000Y-138878571D01*
X203700000Y-139450000D01*
X203914285Y-139450000D01*
X204057142Y-139521428D01*
X204128571Y-139592857D01*
X204200000Y-139735714D01*
X204200000Y-140092857D01*
X204128571Y-140235714D01*
X204057142Y-140307142D01*
X203914285Y-140378571D01*
X203485714Y-140378571D01*
X203342857Y-140307142D01*
X203271428Y-140235714D01*
X199664285Y-137838571D02*
X199664285Y-136338571D01*
X200235714Y-136338571D01*
X200378571Y-136410000D01*
X200450000Y-136481428D01*
X200521428Y-136624285D01*
X200521428Y-136838571D01*
X200450000Y-136981428D01*
X200378571Y-137052857D01*
X200235714Y-137124285D01*
X199664285Y-137124285D01*
X201164285Y-137838571D02*
X201164285Y-136338571D01*
X201164285Y-137052857D02*
X202021428Y-137052857D01*
X202021428Y-137838571D02*
X202021428Y-136338571D01*
X202735714Y-137267142D02*
X203878571Y-137267142D01*
X204878571Y-136338571D02*
X205021428Y-136338571D01*
X205164285Y-136410000D01*
X205235714Y-136481428D01*
X205307142Y-136624285D01*
X205378571Y-136910000D01*
X205378571Y-137267142D01*
X205307142Y-137552857D01*
X205235714Y-137695714D01*
X205164285Y-137767142D01*
X205021428Y-137838571D01*
X204878571Y-137838571D01*
X204735714Y-137767142D01*
X204664285Y-137695714D01*
X204592857Y-137552857D01*
X204521428Y-137267142D01*
X204521428Y-136910000D01*
X204592857Y-136624285D01*
X204664285Y-136481428D01*
X204735714Y-136410000D01*
X204878571Y-136338571D01*
X205950000Y-136481428D02*
X206021428Y-136410000D01*
X206164285Y-136338571D01*
X206521428Y-136338571D01*
X206664285Y-136410000D01*
X206735714Y-136481428D01*
X206807142Y-136624285D01*
X206807142Y-136767142D01*
X206735714Y-136981428D01*
X205878571Y-137838571D01*
X206807142Y-137838571D01*
G04 #@! TO.C,J2*
X186190000Y-138878571D02*
X186190000Y-139950000D01*
X186118571Y-140164285D01*
X185975714Y-140307142D01*
X185761428Y-140378571D01*
X185618571Y-140378571D01*
X186832857Y-139021428D02*
X186904285Y-138950000D01*
X187047142Y-138878571D01*
X187404285Y-138878571D01*
X187547142Y-138950000D01*
X187618571Y-139021428D01*
X187690000Y-139164285D01*
X187690000Y-139307142D01*
X187618571Y-139521428D01*
X186761428Y-140378571D01*
X187690000Y-140378571D01*
X183154285Y-137838571D02*
X183154285Y-136338571D01*
X183725714Y-136338571D01*
X183868571Y-136410000D01*
X183940000Y-136481428D01*
X184011428Y-136624285D01*
X184011428Y-136838571D01*
X183940000Y-136981428D01*
X183868571Y-137052857D01*
X183725714Y-137124285D01*
X183154285Y-137124285D01*
X184654285Y-137838571D02*
X184654285Y-136338571D01*
X184654285Y-137052857D02*
X185511428Y-137052857D01*
X185511428Y-137838571D02*
X185511428Y-136338571D01*
X186225714Y-137267142D02*
X187368571Y-137267142D01*
X188368571Y-136338571D02*
X188511428Y-136338571D01*
X188654285Y-136410000D01*
X188725714Y-136481428D01*
X188797142Y-136624285D01*
X188868571Y-136910000D01*
X188868571Y-137267142D01*
X188797142Y-137552857D01*
X188725714Y-137695714D01*
X188654285Y-137767142D01*
X188511428Y-137838571D01*
X188368571Y-137838571D01*
X188225714Y-137767142D01*
X188154285Y-137695714D01*
X188082857Y-137552857D01*
X188011428Y-137267142D01*
X188011428Y-136910000D01*
X188082857Y-136624285D01*
X188154285Y-136481428D01*
X188225714Y-136410000D01*
X188368571Y-136338571D01*
X190297142Y-137838571D02*
X189440000Y-137838571D01*
X189868571Y-137838571D02*
X189868571Y-136338571D01*
X189725714Y-136552857D01*
X189582857Y-136695714D01*
X189440000Y-136767142D01*
G04 #@! TO.C,P1*
X92368571Y-126837142D02*
X90868571Y-126837142D01*
X90868571Y-126265714D01*
X90940000Y-126122857D01*
X91011428Y-126051428D01*
X91154285Y-125980000D01*
X91368571Y-125980000D01*
X91511428Y-126051428D01*
X91582857Y-126122857D01*
X91654285Y-126265714D01*
X91654285Y-126837142D01*
X92368571Y-124551428D02*
X92368571Y-125408571D01*
X92368571Y-124980000D02*
X90868571Y-124980000D01*
X91082857Y-125122857D01*
X91225714Y-125265714D01*
X91297142Y-125408571D01*
X89435714Y-132372857D02*
X89507142Y-132444285D01*
X89578571Y-132658571D01*
X89578571Y-132801428D01*
X89507142Y-133015714D01*
X89364285Y-133158571D01*
X89221428Y-133230000D01*
X88935714Y-133301428D01*
X88721428Y-133301428D01*
X88435714Y-133230000D01*
X88292857Y-133158571D01*
X88150000Y-133015714D01*
X88078571Y-132801428D01*
X88078571Y-132658571D01*
X88150000Y-132444285D01*
X88221428Y-132372857D01*
X88078571Y-131444285D02*
X88078571Y-131158571D01*
X88150000Y-131015714D01*
X88292857Y-130872857D01*
X88578571Y-130801428D01*
X89078571Y-130801428D01*
X89364285Y-130872857D01*
X89507142Y-131015714D01*
X89578571Y-131158571D01*
X89578571Y-131444285D01*
X89507142Y-131587142D01*
X89364285Y-131730000D01*
X89078571Y-131801428D01*
X88578571Y-131801428D01*
X88292857Y-131730000D01*
X88150000Y-131587142D01*
X88078571Y-131444285D01*
X89578571Y-130158571D02*
X88078571Y-130158571D01*
X89578571Y-129301428D01*
X88078571Y-129301428D01*
X89578571Y-128587142D02*
X88078571Y-128587142D01*
X89578571Y-127730000D01*
X88078571Y-127730000D01*
X88792857Y-127015714D02*
X88792857Y-126515714D01*
X89578571Y-126301428D02*
X89578571Y-127015714D01*
X88078571Y-127015714D01*
X88078571Y-126301428D01*
X89435714Y-124801428D02*
X89507142Y-124872857D01*
X89578571Y-125087142D01*
X89578571Y-125230000D01*
X89507142Y-125444285D01*
X89364285Y-125587142D01*
X89221428Y-125658571D01*
X88935714Y-125730000D01*
X88721428Y-125730000D01*
X88435714Y-125658571D01*
X88292857Y-125587142D01*
X88150000Y-125444285D01*
X88078571Y-125230000D01*
X88078571Y-125087142D01*
X88150000Y-124872857D01*
X88221428Y-124801428D01*
X88078571Y-124372857D02*
X88078571Y-123515714D01*
X89578571Y-123944285D02*
X88078571Y-123944285D01*
X88078571Y-122730000D02*
X88078571Y-122444285D01*
X88150000Y-122301428D01*
X88292857Y-122158571D01*
X88578571Y-122087142D01*
X89078571Y-122087142D01*
X89364285Y-122158571D01*
X89507142Y-122301428D01*
X89578571Y-122444285D01*
X89578571Y-122730000D01*
X89507142Y-122872857D01*
X89364285Y-123015714D01*
X89078571Y-123087142D01*
X88578571Y-123087142D01*
X88292857Y-123015714D01*
X88150000Y-122872857D01*
X88078571Y-122730000D01*
X89578571Y-120587142D02*
X88864285Y-121087142D01*
X89578571Y-121444285D02*
X88078571Y-121444285D01*
X88078571Y-120872857D01*
X88150000Y-120730000D01*
X88221428Y-120658571D01*
X88364285Y-120587142D01*
X88578571Y-120587142D01*
X88721428Y-120658571D01*
X88792857Y-120730000D01*
X88864285Y-120872857D01*
X88864285Y-121444285D01*
X89150000Y-118872857D02*
X89150000Y-118158571D01*
X89578571Y-119015714D02*
X88078571Y-118515714D01*
X89578571Y-118015714D01*
G04 #@! TO.C,A0*
D19*
X98345714Y-125896666D02*
X98821904Y-125896666D01*
X98250476Y-126182380D02*
X98583809Y-125182380D01*
X98917142Y-126182380D01*
X99440952Y-125182380D02*
X99536190Y-125182380D01*
X99631428Y-125230000D01*
X99679047Y-125277619D01*
X99726666Y-125372857D01*
X99774285Y-125563333D01*
X99774285Y-125801428D01*
X99726666Y-125991904D01*
X99679047Y-126087142D01*
X99631428Y-126134761D01*
X99536190Y-126182380D01*
X99440952Y-126182380D01*
X99345714Y-126134761D01*
X99298095Y-126087142D01*
X99250476Y-125991904D01*
X99202857Y-125801428D01*
X99202857Y-125563333D01*
X99250476Y-125372857D01*
X99298095Y-125277619D01*
X99345714Y-125230000D01*
X99440952Y-125182380D01*
G04 #@! TO.C,A1*
X102155714Y-125896666D02*
X102631904Y-125896666D01*
X102060476Y-126182380D02*
X102393809Y-125182380D01*
X102727142Y-126182380D01*
X103584285Y-126182380D02*
X103012857Y-126182380D01*
X103298571Y-126182380D02*
X103298571Y-125182380D01*
X103203333Y-125325238D01*
X103108095Y-125420476D01*
X103012857Y-125468095D01*
G04 #@! TO.C,P6*
D22*
X199818571Y-126837142D02*
X198318571Y-126837142D01*
X198318571Y-126265714D01*
X198390000Y-126122857D01*
X198461428Y-126051428D01*
X198604285Y-125980000D01*
X198818571Y-125980000D01*
X198961428Y-126051428D01*
X199032857Y-126122857D01*
X199104285Y-126265714D01*
X199104285Y-126837142D01*
X198318571Y-124694285D02*
X198318571Y-124980000D01*
X198390000Y-125122857D01*
X198461428Y-125194285D01*
X198675714Y-125337142D01*
X198961428Y-125408571D01*
X199532857Y-125408571D01*
X199675714Y-125337142D01*
X199747142Y-125265714D01*
X199818571Y-125122857D01*
X199818571Y-124837142D01*
X199747142Y-124694285D01*
X199675714Y-124622857D01*
X199532857Y-124551428D01*
X199175714Y-124551428D01*
X199032857Y-124622857D01*
X198961428Y-124694285D01*
X198890000Y-124837142D01*
X198890000Y-125122857D01*
X198961428Y-125265714D01*
X199032857Y-125337142D01*
X199175714Y-125408571D01*
X202465714Y-131210000D02*
X202537142Y-131281428D01*
X202608571Y-131495714D01*
X202608571Y-131638571D01*
X202537142Y-131852857D01*
X202394285Y-131995714D01*
X202251428Y-132067142D01*
X201965714Y-132138571D01*
X201751428Y-132138571D01*
X201465714Y-132067142D01*
X201322857Y-131995714D01*
X201180000Y-131852857D01*
X201108571Y-131638571D01*
X201108571Y-131495714D01*
X201180000Y-131281428D01*
X201251428Y-131210000D01*
X201108571Y-130281428D02*
X201108571Y-129995714D01*
X201180000Y-129852857D01*
X201322857Y-129710000D01*
X201608571Y-129638571D01*
X202108571Y-129638571D01*
X202394285Y-129710000D01*
X202537142Y-129852857D01*
X202608571Y-129995714D01*
X202608571Y-130281428D01*
X202537142Y-130424285D01*
X202394285Y-130567142D01*
X202108571Y-130638571D01*
X201608571Y-130638571D01*
X201322857Y-130567142D01*
X201180000Y-130424285D01*
X201108571Y-130281428D01*
X202608571Y-128995714D02*
X201108571Y-128995714D01*
X202608571Y-128138571D01*
X201108571Y-128138571D01*
X202608571Y-127424285D02*
X201108571Y-127424285D01*
X202608571Y-126567142D01*
X201108571Y-126567142D01*
X201822857Y-125852857D02*
X201822857Y-125352857D01*
X202608571Y-125138571D02*
X202608571Y-125852857D01*
X201108571Y-125852857D01*
X201108571Y-125138571D01*
X202465714Y-123638571D02*
X202537142Y-123710000D01*
X202608571Y-123924285D01*
X202608571Y-124067142D01*
X202537142Y-124281428D01*
X202394285Y-124424285D01*
X202251428Y-124495714D01*
X201965714Y-124567142D01*
X201751428Y-124567142D01*
X201465714Y-124495714D01*
X201322857Y-124424285D01*
X201180000Y-124281428D01*
X201108571Y-124067142D01*
X201108571Y-123924285D01*
X201180000Y-123710000D01*
X201251428Y-123638571D01*
X201108571Y-123210000D02*
X201108571Y-122352857D01*
X202608571Y-122781428D02*
X201108571Y-122781428D01*
X201108571Y-121567142D02*
X201108571Y-121281428D01*
X201180000Y-121138571D01*
X201322857Y-120995714D01*
X201608571Y-120924285D01*
X202108571Y-120924285D01*
X202394285Y-120995714D01*
X202537142Y-121138571D01*
X202608571Y-121281428D01*
X202608571Y-121567142D01*
X202537142Y-121710000D01*
X202394285Y-121852857D01*
X202108571Y-121924285D01*
X201608571Y-121924285D01*
X201322857Y-121852857D01*
X201180000Y-121710000D01*
X201108571Y-121567142D01*
X202608571Y-119424285D02*
X201894285Y-119924285D01*
X202608571Y-120281428D02*
X201108571Y-120281428D01*
X201108571Y-119710000D01*
X201180000Y-119567142D01*
X201251428Y-119495714D01*
X201394285Y-119424285D01*
X201608571Y-119424285D01*
X201751428Y-119495714D01*
X201822857Y-119567142D01*
X201894285Y-119710000D01*
X201894285Y-120281428D01*
X201822857Y-117138571D02*
X201894285Y-116924285D01*
X201965714Y-116852857D01*
X202108571Y-116781428D01*
X202322857Y-116781428D01*
X202465714Y-116852857D01*
X202537142Y-116924285D01*
X202608571Y-117067142D01*
X202608571Y-117638571D01*
X201108571Y-117638571D01*
X201108571Y-117138571D01*
X201180000Y-116995714D01*
X201251428Y-116924285D01*
X201394285Y-116852857D01*
X201537142Y-116852857D01*
X201680000Y-116924285D01*
X201751428Y-116995714D01*
X201822857Y-117138571D01*
X201822857Y-117638571D01*
G04 #@! TO.C,J1*
X169680000Y-138878571D02*
X169680000Y-139950000D01*
X169608571Y-140164285D01*
X169465714Y-140307142D01*
X169251428Y-140378571D01*
X169108571Y-140378571D01*
X171180000Y-140378571D02*
X170322857Y-140378571D01*
X170751428Y-140378571D02*
X170751428Y-138878571D01*
X170608571Y-139092857D01*
X170465714Y-139235714D01*
X170322857Y-139307142D01*
X166644285Y-137838571D02*
X166644285Y-136338571D01*
X167215714Y-136338571D01*
X167358571Y-136410000D01*
X167430000Y-136481428D01*
X167501428Y-136624285D01*
X167501428Y-136838571D01*
X167430000Y-136981428D01*
X167358571Y-137052857D01*
X167215714Y-137124285D01*
X166644285Y-137124285D01*
X168144285Y-137838571D02*
X168144285Y-136338571D01*
X168144285Y-137052857D02*
X169001428Y-137052857D01*
X169001428Y-137838571D02*
X169001428Y-136338571D01*
X169715714Y-137267142D02*
X170858571Y-137267142D01*
X171858571Y-136338571D02*
X172001428Y-136338571D01*
X172144285Y-136410000D01*
X172215714Y-136481428D01*
X172287142Y-136624285D01*
X172358571Y-136910000D01*
X172358571Y-137267142D01*
X172287142Y-137552857D01*
X172215714Y-137695714D01*
X172144285Y-137767142D01*
X172001428Y-137838571D01*
X171858571Y-137838571D01*
X171715714Y-137767142D01*
X171644285Y-137695714D01*
X171572857Y-137552857D01*
X171501428Y-137267142D01*
X171501428Y-136910000D01*
X171572857Y-136624285D01*
X171644285Y-136481428D01*
X171715714Y-136410000D01*
X171858571Y-136338571D01*
X173287142Y-136338571D02*
X173430000Y-136338571D01*
X173572857Y-136410000D01*
X173644285Y-136481428D01*
X173715714Y-136624285D01*
X173787142Y-136910000D01*
X173787142Y-137267142D01*
X173715714Y-137552857D01*
X173644285Y-137695714D01*
X173572857Y-137767142D01*
X173430000Y-137838571D01*
X173287142Y-137838571D01*
X173144285Y-137767142D01*
X173072857Y-137695714D01*
X173001428Y-137552857D01*
X172930000Y-137267142D01*
X172930000Y-136910000D01*
X173001428Y-136624285D01*
X173072857Y-136481428D01*
X173144285Y-136410000D01*
X173287142Y-136338571D01*
G04 #@! TO.C,P5*
X119288857Y-140378571D02*
X119288857Y-138878571D01*
X119860285Y-138878571D01*
X120003142Y-138950000D01*
X120074571Y-139021428D01*
X120146000Y-139164285D01*
X120146000Y-139378571D01*
X120074571Y-139521428D01*
X120003142Y-139592857D01*
X119860285Y-139664285D01*
X119288857Y-139664285D01*
X121503142Y-138878571D02*
X120788857Y-138878571D01*
X120717428Y-139592857D01*
X120788857Y-139521428D01*
X120931714Y-139450000D01*
X121288857Y-139450000D01*
X121431714Y-139521428D01*
X121503142Y-139592857D01*
X121574571Y-139735714D01*
X121574571Y-140092857D01*
X121503142Y-140235714D01*
X121431714Y-140307142D01*
X121288857Y-140378571D01*
X120931714Y-140378571D01*
X120788857Y-140307142D01*
X120717428Y-140235714D01*
X112574571Y-137838571D02*
X112574571Y-136338571D01*
X113288857Y-137838571D02*
X113288857Y-136338571D01*
X114146000Y-137838571D01*
X114146000Y-136338571D01*
X114860285Y-137838571D02*
X114860285Y-136338571D01*
X115431714Y-136338571D01*
X115574571Y-136410000D01*
X115646000Y-136481428D01*
X115717428Y-136624285D01*
X115717428Y-136838571D01*
X115646000Y-136981428D01*
X115574571Y-137052857D01*
X115431714Y-137124285D01*
X114860285Y-137124285D01*
X116360285Y-136338571D02*
X116360285Y-137552857D01*
X116431714Y-137695714D01*
X116503142Y-137767142D01*
X116646000Y-137838571D01*
X116931714Y-137838571D01*
X117074571Y-137767142D01*
X117146000Y-137695714D01*
X117217428Y-137552857D01*
X117217428Y-136338571D01*
X117717428Y-136338571D02*
X118574571Y-136338571D01*
X118146000Y-137838571D02*
X118146000Y-136338571D01*
X119003142Y-137767142D02*
X119217428Y-137838571D01*
X119574571Y-137838571D01*
X119717428Y-137767142D01*
X119788857Y-137695714D01*
X119860285Y-137552857D01*
X119860285Y-137410000D01*
X119788857Y-137267142D01*
X119717428Y-137195714D01*
X119574571Y-137124285D01*
X119288857Y-137052857D01*
X119146000Y-136981428D01*
X119074571Y-136910000D01*
X119003142Y-136767142D01*
X119003142Y-136624285D01*
X119074571Y-136481428D01*
X119146000Y-136410000D01*
X119288857Y-136338571D01*
X119646000Y-136338571D01*
X119860285Y-136410000D01*
X121574571Y-137410000D02*
X122288857Y-137410000D01*
X121431714Y-137838571D02*
X121931714Y-136338571D01*
X122431714Y-137838571D01*
X123217428Y-136338571D02*
X123360285Y-136338571D01*
X123503142Y-136410000D01*
X123574571Y-136481428D01*
X123646000Y-136624285D01*
X123717428Y-136910000D01*
X123717428Y-137267142D01*
X123646000Y-137552857D01*
X123574571Y-137695714D01*
X123503142Y-137767142D01*
X123360285Y-137838571D01*
X123217428Y-137838571D01*
X123074571Y-137767142D01*
X123003142Y-137695714D01*
X122931714Y-137552857D01*
X122860285Y-137267142D01*
X122860285Y-136910000D01*
X122931714Y-136624285D01*
X123003142Y-136481428D01*
X123074571Y-136410000D01*
X123217428Y-136338571D01*
X124360285Y-137267142D02*
X125503142Y-137267142D01*
X126146000Y-137410000D02*
X126860285Y-137410000D01*
X126003142Y-137838571D02*
X126503142Y-136338571D01*
X127003142Y-137838571D01*
X127360285Y-136338571D02*
X128360285Y-136338571D01*
X127717428Y-137838571D01*
G04 #@! TO.C,J6*
D17*
X95170666Y-132802380D02*
X95170666Y-133516666D01*
X95123047Y-133659523D01*
X95027809Y-133754761D01*
X94884952Y-133802380D01*
X94789714Y-133802380D01*
X96075428Y-132802380D02*
X95884952Y-132802380D01*
X95789714Y-132850000D01*
X95742095Y-132897619D01*
X95646857Y-133040476D01*
X95599238Y-133230952D01*
X95599238Y-133611904D01*
X95646857Y-133707142D01*
X95694476Y-133754761D01*
X95789714Y-133802380D01*
X95980190Y-133802380D01*
X96075428Y-133754761D01*
X96123047Y-133707142D01*
X96170666Y-133611904D01*
X96170666Y-133373809D01*
X96123047Y-133278571D01*
X96075428Y-133230952D01*
X95980190Y-133183333D01*
X95789714Y-133183333D01*
X95694476Y-133230952D01*
X95646857Y-133278571D01*
X95599238Y-133373809D01*
G04 #@! TO.C,J7*
X194738666Y-132802380D02*
X194738666Y-133516666D01*
X194691047Y-133659523D01*
X194595809Y-133754761D01*
X194452952Y-133802380D01*
X194357714Y-133802380D01*
X195119619Y-132802380D02*
X195786285Y-132802380D01*
X195357714Y-133802380D01*
G04 #@! TO.C,J4*
D19*
X150029333Y-129364619D02*
X150029333Y-130090333D01*
X149980952Y-130235476D01*
X149884190Y-130332238D01*
X149739047Y-130380619D01*
X149642285Y-130380619D01*
X150948571Y-129703285D02*
X150948571Y-130380619D01*
X150706666Y-129316238D02*
X150464761Y-130041952D01*
X151093714Y-130041952D01*
G04 #@! TO.C,J5*
X180001333Y-129364619D02*
X180001333Y-130090333D01*
X179952952Y-130235476D01*
X179856190Y-130332238D01*
X179711047Y-130380619D01*
X179614285Y-130380619D01*
X180968952Y-129364619D02*
X180485142Y-129364619D01*
X180436761Y-129848428D01*
X180485142Y-129800047D01*
X180581904Y-129751666D01*
X180823809Y-129751666D01*
X180920571Y-129800047D01*
X180968952Y-129848428D01*
X181017333Y-129945190D01*
X181017333Y-130187095D01*
X180968952Y-130283857D01*
X180920571Y-130332238D01*
X180823809Y-130380619D01*
X180581904Y-130380619D01*
X180485142Y-130332238D01*
X180436761Y-130283857D01*
G04 #@! TD*
M02*
