M48
;DRILL file {KiCad (5.0.1)-3} date 12/04/2019 12:40:23
;FORMAT={-:-/ absolute / metric / decimal}
FMAT,2
METRIC,TZ
T1C0.400
T2C0.800
T3C1.001
T4C1.300
T5C2.700
%
G90
G05
M71
T1
X132.481Y-131.531
T2
X113.03Y-125.73
X113.03Y-133.35
X115.57Y-125.73
X115.57Y-133.35
X118.11Y-125.73
X118.11Y-133.35
X120.65Y-125.73
X120.65Y-133.35
X123.19Y-125.73
X123.19Y-133.35
X125.73Y-125.73
X125.73Y-133.35
X128.27Y-125.73
X128.27Y-133.35
X130.81Y-125.73
X130.81Y-133.35
T3
X168.91Y-132.08
X171.45Y-132.08
X173.99Y-132.08
X176.53Y-132.08
X179.07Y-132.08
X181.61Y-132.08
X184.15Y-132.08
X186.69Y-132.08
X189.23Y-132.08
X191.77Y-132.08
X138.938Y-132.08
X141.478Y-132.08
X144.018Y-132.08
X146.558Y-132.08
X149.098Y-132.08
X151.638Y-132.08
X154.178Y-132.08
X156.718Y-132.08
X159.258Y-132.08
X161.798Y-132.08
X99.06Y-128.27
X99.06Y-130.81
X99.06Y-133.35
X106.68Y-128.27
X106.68Y-130.81
X106.68Y-133.35
X102.87Y-128.27
X102.87Y-130.81
X102.87Y-133.35
T4
X85.09Y-118.23
X85.09Y-123.23
X85.09Y-128.23
X85.09Y-133.23
X181.69Y-143.51
X186.69Y-143.51
X191.69Y-143.51
X83.15Y-143.51
X88.15Y-143.51
X93.15Y-143.51
X98.15Y-143.51
X103.15Y-143.51
X108.15Y-143.51
X113.15Y-143.51
X118.15Y-143.51
X123.15Y-143.51
X128.15Y-143.51
X133.15Y-143.51
X138.15Y-143.51
X143.15Y-143.51
X148.15Y-143.51
X153.15Y-143.51
X158.15Y-143.51
X205.74Y-118.23
X205.74Y-123.23
X205.74Y-128.23
X205.74Y-133.23
X198.2Y-143.51
X203.2Y-143.51
X208.2Y-143.51
X165.18Y-143.51
X170.18Y-143.51
X175.18Y-143.51
T5
X198.12Y-120.84
X198.12Y-133.35
X92.71Y-120.84
X92.71Y-133.35
T0
M30
