G04 #@! TF.FileFunction,Copper,L2,Bot,Signal*
%FSLAX46Y46*%
G04 Gerber Fmt 4.6, Leading zero omitted, Abs format (unit mm)*
G04 Created by KiCad (PCBNEW 4.0.1-stable) date 23/09/2016 02:16:46 p. m.*
%MOMM*%
G01*
G04 APERTURE LIST*
%ADD10C,0.100000*%
%ADD11C,0.300000*%
%ADD12C,2.000000*%
%ADD13O,1.524000X2.197100*%
%ADD14R,1.524000X2.197100*%
%ADD15C,2.500000*%
%ADD16R,2.500000X2.500000*%
%ADD17O,1.501140X2.499360*%
%ADD18C,1.998980*%
%ADD19R,1.498600X2.197100*%
%ADD20O,1.498600X2.197100*%
%ADD21O,1.501140X2.199640*%
%ADD22O,1.600000X1.600000*%
%ADD23C,4.064000*%
%ADD24C,0.800000*%
%ADD25C,2.000000*%
%ADD26C,1.000000*%
%ADD27C,0.254000*%
G04 APERTURE END LIST*
D10*
D11*
X183321429Y-53314286D02*
X183321429Y-51514286D01*
X183321429Y-52371429D02*
X182292857Y-52371429D01*
X182292857Y-53314286D02*
X182292857Y-51514286D01*
X181435715Y-52371429D02*
X180835715Y-52371429D01*
X180578572Y-53314286D02*
X181435715Y-53314286D01*
X181435715Y-51514286D01*
X180578572Y-51514286D01*
X178778572Y-53142857D02*
X178864286Y-53228571D01*
X179121429Y-53314286D01*
X179292858Y-53314286D01*
X179550001Y-53228571D01*
X179721429Y-53057143D01*
X179807144Y-52885714D01*
X179892858Y-52542857D01*
X179892858Y-52285714D01*
X179807144Y-51942857D01*
X179721429Y-51771429D01*
X179550001Y-51600000D01*
X179292858Y-51514286D01*
X179121429Y-51514286D01*
X178864286Y-51600000D01*
X178778572Y-51685714D01*
X178007144Y-53314286D02*
X178007144Y-51514286D01*
X178007144Y-52371429D02*
X176978572Y-52371429D01*
X176978572Y-53314286D02*
X176978572Y-51514286D01*
X175778572Y-51514286D02*
X175435715Y-51514286D01*
X175264287Y-51600000D01*
X175092858Y-51771429D01*
X175007144Y-52114286D01*
X175007144Y-52714286D01*
X175092858Y-53057143D01*
X175264287Y-53228571D01*
X175435715Y-53314286D01*
X175778572Y-53314286D01*
X175950001Y-53228571D01*
X176121430Y-53057143D01*
X176207144Y-52714286D01*
X176207144Y-52114286D01*
X176121430Y-51771429D01*
X175950001Y-51600000D01*
X175778572Y-51514286D01*
X172864287Y-52371429D02*
X172264287Y-52371429D01*
X172007144Y-53314286D02*
X172864287Y-53314286D01*
X172864287Y-51514286D01*
X172007144Y-51514286D01*
X171235716Y-53314286D02*
X171235716Y-51514286D01*
X170207144Y-53314286D01*
X170207144Y-51514286D01*
X167978573Y-53314286D02*
X167978573Y-51514286D01*
X167378573Y-52800000D01*
X166778573Y-51514286D01*
X166778573Y-53314286D01*
X165921430Y-52371429D02*
X165321430Y-52371429D01*
X165064287Y-53314286D02*
X165921430Y-53314286D01*
X165921430Y-51514286D01*
X165064287Y-51514286D01*
X164464287Y-51514286D02*
X163264287Y-53314286D01*
X163264287Y-51514286D02*
X164464287Y-53314286D01*
X162578573Y-53314286D02*
X162578573Y-51514286D01*
X160692858Y-53142857D02*
X160778572Y-53228571D01*
X161035715Y-53314286D01*
X161207144Y-53314286D01*
X161464287Y-53228571D01*
X161635715Y-53057143D01*
X161721430Y-52885714D01*
X161807144Y-52542857D01*
X161807144Y-52285714D01*
X161721430Y-51942857D01*
X161635715Y-51771429D01*
X161464287Y-51600000D01*
X161207144Y-51514286D01*
X161035715Y-51514286D01*
X160778572Y-51600000D01*
X160692858Y-51685714D01*
X159578572Y-51514286D02*
X159235715Y-51514286D01*
X159064287Y-51600000D01*
X158892858Y-51771429D01*
X158807144Y-52114286D01*
X158807144Y-52714286D01*
X158892858Y-53057143D01*
X159064287Y-53228571D01*
X159235715Y-53314286D01*
X159578572Y-53314286D01*
X159750001Y-53228571D01*
X159921430Y-53057143D01*
X160007144Y-52714286D01*
X160007144Y-52114286D01*
X159921430Y-51771429D01*
X159750001Y-51600000D01*
X159578572Y-51514286D01*
X182128571Y-114550000D02*
X182300000Y-114478571D01*
X182557143Y-114478571D01*
X182814286Y-114550000D01*
X182985714Y-114692857D01*
X183071429Y-114835714D01*
X183157143Y-115121429D01*
X183157143Y-115335714D01*
X183071429Y-115621429D01*
X182985714Y-115764286D01*
X182814286Y-115907143D01*
X182557143Y-115978571D01*
X182385714Y-115978571D01*
X182128571Y-115907143D01*
X182042857Y-115835714D01*
X182042857Y-115335714D01*
X182385714Y-115335714D01*
X181271429Y-115978571D02*
X181271429Y-114478571D01*
X180585714Y-114478571D01*
X180414286Y-114550000D01*
X180328571Y-114621429D01*
X180242857Y-114764286D01*
X180242857Y-114978571D01*
X180328571Y-115121429D01*
X180414286Y-115192857D01*
X180585714Y-115264286D01*
X181271429Y-115264286D01*
X179128571Y-114478571D02*
X178785714Y-114478571D01*
X178614286Y-114550000D01*
X178442857Y-114692857D01*
X178357143Y-114978571D01*
X178357143Y-115478571D01*
X178442857Y-115764286D01*
X178614286Y-115907143D01*
X178785714Y-115978571D01*
X179128571Y-115978571D01*
X179300000Y-115907143D01*
X179471429Y-115764286D01*
X179557143Y-115478571D01*
X179557143Y-114978571D01*
X179471429Y-114692857D01*
X179300000Y-114550000D01*
X179128571Y-114478571D01*
X176471428Y-114478571D02*
X175871428Y-115978571D01*
X175271428Y-114478571D01*
X174757143Y-115550000D02*
X173900000Y-115550000D01*
X174928571Y-115978571D02*
X174328571Y-114478571D01*
X173728571Y-115978571D01*
X172271429Y-115978571D02*
X173128572Y-115978571D01*
X173128572Y-114478571D01*
X170814286Y-115978571D02*
X171671429Y-115978571D01*
X171671429Y-114478571D01*
X170300000Y-115550000D02*
X169442857Y-115550000D01*
X170471428Y-115978571D02*
X169871428Y-114478571D01*
X169271428Y-115978571D01*
X168757143Y-115907143D02*
X168500000Y-115978571D01*
X168071429Y-115978571D01*
X167900000Y-115907143D01*
X167814286Y-115835714D01*
X167728571Y-115692857D01*
X167728571Y-115550000D01*
X167814286Y-115407143D01*
X167900000Y-115335714D01*
X168071429Y-115264286D01*
X168414286Y-115192857D01*
X168585714Y-115121429D01*
X168671429Y-115050000D01*
X168757143Y-114907143D01*
X168757143Y-114764286D01*
X168671429Y-114621429D01*
X168585714Y-114550000D01*
X168414286Y-114478571D01*
X167985714Y-114478571D01*
X167728571Y-114550000D01*
X183328571Y-116878571D02*
X182728571Y-118378571D01*
X182128571Y-116878571D01*
X181528572Y-117592857D02*
X180928572Y-117592857D01*
X180671429Y-118378571D02*
X181528572Y-118378571D01*
X181528572Y-116878571D01*
X180671429Y-116878571D01*
X179900001Y-118378571D02*
X179900001Y-116878571D01*
X178871429Y-118378571D01*
X178871429Y-116878571D01*
X178014287Y-118378571D02*
X178014287Y-116878571D01*
X177585715Y-116878571D01*
X177328572Y-116950000D01*
X177157144Y-117092857D01*
X177071429Y-117235714D01*
X176985715Y-117521429D01*
X176985715Y-117735714D01*
X177071429Y-118021429D01*
X177157144Y-118164286D01*
X177328572Y-118307143D01*
X177585715Y-118378571D01*
X178014287Y-118378571D01*
X176214287Y-118378571D02*
X176214287Y-116878571D01*
X175357144Y-118378571D02*
X175357144Y-116878571D01*
X174328572Y-118378571D01*
X174328572Y-116878571D01*
X172528572Y-116950000D02*
X172700001Y-116878571D01*
X172957144Y-116878571D01*
X173214287Y-116950000D01*
X173385715Y-117092857D01*
X173471430Y-117235714D01*
X173557144Y-117521429D01*
X173557144Y-117735714D01*
X173471430Y-118021429D01*
X173385715Y-118164286D01*
X173214287Y-118307143D01*
X172957144Y-118378571D01*
X172785715Y-118378571D01*
X172528572Y-118307143D01*
X172442858Y-118235714D01*
X172442858Y-117735714D01*
X172785715Y-117735714D01*
X169271429Y-118235714D02*
X169357143Y-118307143D01*
X169614286Y-118378571D01*
X169785715Y-118378571D01*
X170042858Y-118307143D01*
X170214286Y-118164286D01*
X170300001Y-118021429D01*
X170385715Y-117735714D01*
X170385715Y-117521429D01*
X170300001Y-117235714D01*
X170214286Y-117092857D01*
X170042858Y-116950000D01*
X169785715Y-116878571D01*
X169614286Y-116878571D01*
X169357143Y-116950000D01*
X169271429Y-117021429D01*
X168157143Y-116878571D02*
X167814286Y-116878571D01*
X167642858Y-116950000D01*
X167471429Y-117092857D01*
X167385715Y-117378571D01*
X167385715Y-117878571D01*
X167471429Y-118164286D01*
X167642858Y-118307143D01*
X167814286Y-118378571D01*
X168157143Y-118378571D01*
X168328572Y-118307143D01*
X168500001Y-118164286D01*
X168585715Y-117878571D01*
X168585715Y-117378571D01*
X168500001Y-117092857D01*
X168328572Y-116950000D01*
X168157143Y-116878571D01*
X166614287Y-118378571D02*
X166614287Y-116878571D01*
X165585715Y-118378571D01*
X165585715Y-116878571D01*
X164985715Y-116878571D02*
X163957144Y-116878571D01*
X164471430Y-118378571D02*
X164471430Y-116878571D01*
X162328572Y-118378571D02*
X162928572Y-117664286D01*
X163357144Y-118378571D02*
X163357144Y-116878571D01*
X162671429Y-116878571D01*
X162500001Y-116950000D01*
X162414286Y-117021429D01*
X162328572Y-117164286D01*
X162328572Y-117378571D01*
X162414286Y-117521429D01*
X162500001Y-117592857D01*
X162671429Y-117664286D01*
X163357144Y-117664286D01*
X161214286Y-116878571D02*
X160871429Y-116878571D01*
X160700001Y-116950000D01*
X160528572Y-117092857D01*
X160442858Y-117378571D01*
X160442858Y-117878571D01*
X160528572Y-118164286D01*
X160700001Y-118307143D01*
X160871429Y-118378571D01*
X161214286Y-118378571D01*
X161385715Y-118307143D01*
X161557144Y-118164286D01*
X161642858Y-117878571D01*
X161642858Y-117378571D01*
X161557144Y-117092857D01*
X161385715Y-116950000D01*
X161214286Y-116878571D01*
X158814287Y-118378571D02*
X159671430Y-118378571D01*
X159671430Y-116878571D01*
X156842858Y-118378571D02*
X156842858Y-116878571D01*
X156071429Y-117021429D02*
X155985715Y-116950000D01*
X155814286Y-116878571D01*
X155385715Y-116878571D01*
X155214286Y-116950000D01*
X155128572Y-117021429D01*
X155042857Y-117164286D01*
X155042857Y-117307143D01*
X155128572Y-117521429D01*
X156157143Y-118378571D01*
X155042857Y-118378571D01*
X153242857Y-118235714D02*
X153328571Y-118307143D01*
X153585714Y-118378571D01*
X153757143Y-118378571D01*
X154014286Y-118307143D01*
X154185714Y-118164286D01*
X154271429Y-118021429D01*
X154357143Y-117735714D01*
X154357143Y-117521429D01*
X154271429Y-117235714D01*
X154185714Y-117092857D01*
X154014286Y-116950000D01*
X153757143Y-116878571D01*
X153585714Y-116878571D01*
X153328571Y-116950000D01*
X153242857Y-117021429D01*
X152900000Y-118521429D02*
X151528571Y-118521429D01*
X151357142Y-116878571D02*
X150757142Y-118378571D01*
X150157142Y-116878571D01*
X148614285Y-118378571D02*
X149642857Y-118378571D01*
X149128571Y-118378571D02*
X149128571Y-116878571D01*
X149300000Y-117092857D01*
X149471428Y-117235714D01*
X149642857Y-117307143D01*
X147842857Y-118235714D02*
X147757142Y-118307143D01*
X147842857Y-118378571D01*
X147928571Y-118307143D01*
X147842857Y-118235714D01*
X147842857Y-118378571D01*
X146042856Y-118378571D02*
X147071428Y-118378571D01*
X146557142Y-118378571D02*
X146557142Y-116878571D01*
X146728571Y-117092857D01*
X146899999Y-117235714D01*
X147071428Y-117307143D01*
D12*
X135500000Y-71000000D03*
X135500000Y-59000000D03*
D13*
X162420000Y-61500000D03*
X159880000Y-61500000D03*
X167500000Y-61500000D03*
X164960000Y-61500000D03*
D14*
X154800000Y-61500000D03*
D13*
X157340000Y-61500000D03*
X146230000Y-108576200D03*
X148770000Y-108576200D03*
X141150000Y-108576200D03*
X143690000Y-108576200D03*
D14*
X153850000Y-108576200D03*
D13*
X151310000Y-108576200D03*
D15*
X178000000Y-107000000D03*
D16*
X168000000Y-107000000D03*
D15*
X173000000Y-107000000D03*
D16*
X124500000Y-107000000D03*
D15*
X129500000Y-107000000D03*
X176000000Y-61000000D03*
X176000000Y-66000000D03*
X176000000Y-71000000D03*
X176000000Y-76000000D03*
X176000000Y-81000000D03*
X176000000Y-86000000D03*
D16*
X176000000Y-96000000D03*
D15*
X176000000Y-91000000D03*
D17*
X124960000Y-84500000D03*
X122420000Y-84500000D03*
X127500000Y-84500000D03*
D18*
X151647000Y-84730500D03*
X151647000Y-74570500D03*
X148147000Y-84730500D03*
X148147000Y-74570500D03*
X144647000Y-84730500D03*
X144647000Y-74570500D03*
X141147000Y-84730500D03*
X141147000Y-74570500D03*
X137647000Y-84730500D03*
X137647000Y-74570500D03*
X134147000Y-84730500D03*
X134147000Y-74570500D03*
X166500000Y-71000000D03*
X156340000Y-71000000D03*
X166500000Y-74500000D03*
X156340000Y-74500000D03*
X166376000Y-78237600D03*
X156216000Y-78237600D03*
X166376000Y-81737600D03*
X156216000Y-81737600D03*
X166376000Y-85238000D03*
X156216000Y-85238000D03*
D19*
X148250000Y-59750000D03*
D20*
X148250000Y-67370000D03*
D19*
X145750000Y-59750000D03*
D20*
X145750000Y-67370000D03*
D19*
X143250000Y-59750000D03*
D20*
X143250000Y-67370000D03*
D21*
X132260000Y-97500000D03*
X134800000Y-97500000D03*
X137340000Y-97500000D03*
X139880000Y-97500000D03*
X142420000Y-97500000D03*
X144960000Y-97500000D03*
X147500000Y-97500000D03*
X150040000Y-97500000D03*
X150040000Y-89880000D03*
X147500000Y-89880000D03*
X144960000Y-89880000D03*
X142420000Y-89880000D03*
X139880000Y-89880000D03*
X137340000Y-89880000D03*
X134800000Y-89880000D03*
X132260000Y-89880000D03*
D22*
X162040000Y-91500000D03*
X159500000Y-91500000D03*
X159500000Y-99120000D03*
X162040000Y-99120000D03*
D23*
X117500000Y-117500000D03*
X187500000Y-117500000D03*
X187500000Y-52500000D03*
X117500000Y-52500000D03*
D24*
X136146100Y-93479200D03*
X151267200Y-91582000D03*
X128678300Y-93254000D03*
X163249300Y-88364700D03*
X159548700Y-86435400D03*
X141594300Y-76430800D03*
D25*
X124960000Y-84500000D02*
X124960000Y-87249800D01*
X124577700Y-102077700D02*
X129500000Y-107000000D01*
X124577700Y-87632100D02*
X124577700Y-102077700D01*
X124960000Y-87249800D02*
X124577700Y-87632100D01*
X132465500Y-71000000D02*
X135500000Y-71000000D01*
X120365300Y-83100200D02*
X132465500Y-71000000D01*
X120365300Y-102865300D02*
X120365300Y-83100200D01*
X124500000Y-107000000D02*
X120365300Y-102865300D01*
D26*
X162420000Y-61428500D02*
X162420000Y-61500000D01*
X158838700Y-57847200D02*
X162420000Y-61428500D01*
X142136900Y-57847200D02*
X158838700Y-57847200D01*
X140332400Y-59651700D02*
X142136900Y-57847200D01*
X140332400Y-73755900D02*
X140332400Y-59651700D01*
X141147000Y-74570500D02*
X140332400Y-73755900D01*
X138666200Y-106477600D02*
X146230000Y-106477600D01*
X130681600Y-98493000D02*
X138666200Y-106477600D01*
X130681600Y-96098300D02*
X130681600Y-98493000D01*
X134800000Y-91979900D02*
X130681600Y-96098300D01*
X134800000Y-89880000D02*
X134800000Y-91979900D01*
X146230000Y-108576200D02*
X146230000Y-106477600D01*
X156216000Y-81737600D02*
X156216000Y-78237600D01*
X150040000Y-97500000D02*
X150040000Y-99007000D01*
X148770000Y-108576200D02*
X148770000Y-106477600D01*
X156340000Y-78113600D02*
X156340000Y-74500000D01*
X156216000Y-78237600D02*
X156340000Y-78113600D01*
X150040000Y-100614200D02*
X152336700Y-102910900D01*
X150040000Y-99007000D02*
X150040000Y-100614200D01*
X152336700Y-102910900D02*
X148770000Y-106477600D01*
X159880000Y-61500000D02*
X159880000Y-63598600D01*
X159880000Y-70960000D02*
X156340000Y-74500000D01*
X159880000Y-63598600D02*
X159880000Y-70960000D01*
X156216000Y-85238000D02*
X156216000Y-81737600D01*
X169504100Y-63598600D02*
X159880000Y-63598600D01*
X174173000Y-58929700D02*
X169504100Y-63598600D01*
X176860100Y-58929700D02*
X174173000Y-58929700D01*
X179352500Y-61422100D02*
X176860100Y-58929700D01*
X179352500Y-97740000D02*
X179352500Y-61422100D01*
X170050400Y-107042100D02*
X179352500Y-97740000D01*
X170050400Y-108669500D02*
X170050400Y-107042100D01*
X169643000Y-109076900D02*
X170050400Y-108669500D01*
X158502700Y-109076900D02*
X169643000Y-109076900D01*
X152336700Y-102910900D02*
X158502700Y-109076900D01*
X132260000Y-89880000D02*
X132260000Y-91979900D01*
X178051300Y-63051300D02*
X176000000Y-61000000D01*
X178051300Y-68948700D02*
X178051300Y-63051300D01*
X176000000Y-71000000D02*
X178051300Y-68948700D01*
X129353700Y-94886200D02*
X132260000Y-91979900D01*
X129353700Y-99004200D02*
X129353700Y-94886200D01*
X138925700Y-108576200D02*
X129353700Y-99004200D01*
X141150000Y-108576200D02*
X138925700Y-108576200D01*
X178051300Y-83051300D02*
X176000000Y-81000000D01*
X178051300Y-88948700D02*
X178051300Y-83051300D01*
X176000000Y-91000000D02*
X178051300Y-88948700D01*
X178051300Y-73051300D02*
X176000000Y-71000000D01*
X178051300Y-78948700D02*
X178051300Y-73051300D01*
X176000000Y-81000000D02*
X178051300Y-78948700D01*
X164960000Y-61423200D02*
X164960000Y-61500000D01*
X160068800Y-56532000D02*
X164960000Y-61423200D01*
X141613000Y-56532000D02*
X160068800Y-56532000D01*
X138385400Y-59759600D02*
X141613000Y-56532000D01*
X138385400Y-73832100D02*
X138385400Y-59759600D01*
X137647000Y-74570500D02*
X138385400Y-73832100D01*
X137340000Y-89797300D02*
X137340000Y-89880000D01*
X135373300Y-87830600D02*
X137340000Y-89797300D01*
X132862900Y-87830600D02*
X135373300Y-87830600D01*
X131046900Y-86014600D02*
X132862900Y-87830600D01*
X131046900Y-81170600D02*
X131046900Y-86014600D01*
X137647000Y-74570500D02*
X131046900Y-81170600D01*
D25*
X153850000Y-108576200D02*
X153850000Y-111174800D01*
X127500000Y-84500000D02*
X127500000Y-87249800D01*
X138933400Y-111174800D02*
X153850000Y-111174800D01*
X126878000Y-99119400D02*
X138933400Y-111174800D01*
X126878000Y-91992000D02*
X126878000Y-99119400D01*
X127500000Y-91370000D02*
X126878000Y-91992000D01*
X127500000Y-87249800D02*
X127500000Y-91370000D01*
X154800000Y-69460000D02*
X154800000Y-61500000D01*
X156340000Y-71000000D02*
X154800000Y-69460000D01*
D26*
X161180400Y-76319600D02*
X166500000Y-71000000D01*
X161180400Y-87556300D02*
X161180400Y-76319600D01*
X157897600Y-90839100D02*
X161180400Y-87556300D01*
X157897600Y-95717600D02*
X157897600Y-90839100D01*
X159500000Y-97320000D02*
X157897600Y-95717600D01*
X159500000Y-99120000D02*
X159500000Y-97320000D01*
X148250000Y-59750000D02*
X149999300Y-59750000D01*
X151647000Y-61397700D02*
X151647000Y-74570500D01*
X149999300Y-59750000D02*
X151647000Y-61397700D01*
X153446800Y-76370300D02*
X151647000Y-74570500D01*
X153446800Y-85476100D02*
X153446800Y-76370300D01*
X152012800Y-86910100D02*
X153446800Y-85476100D01*
X152012700Y-86910100D02*
X152012800Y-86910100D01*
X152012700Y-90836500D02*
X152012700Y-86910100D01*
X151267200Y-91582000D02*
X152012700Y-90836500D01*
X132260000Y-97365300D02*
X136146100Y-93479200D01*
X132260000Y-97500000D02*
X132260000Y-97365300D01*
X145750000Y-59750000D02*
X145750000Y-61848600D01*
X149847100Y-72870400D02*
X148147000Y-74570500D01*
X149847100Y-65945700D02*
X149847100Y-72870400D01*
X145750000Y-61848600D02*
X149847100Y-65945700D01*
X143250000Y-59750000D02*
X143250000Y-61848600D01*
X141667900Y-63430700D02*
X143250000Y-61848600D01*
X141667900Y-71591400D02*
X141667900Y-63430700D01*
X144647000Y-74570500D02*
X141667900Y-71591400D01*
X129306900Y-92625400D02*
X128678300Y-93254000D01*
X129306900Y-79410600D02*
X129306900Y-92625400D01*
X134147000Y-74570500D02*
X129306900Y-79410600D01*
X142420000Y-97500000D02*
X142420000Y-95400100D01*
X162262700Y-107000000D02*
X168000000Y-107000000D01*
X150745600Y-95482900D02*
X162262700Y-107000000D01*
X142502800Y-95482900D02*
X150745600Y-95482900D01*
X142420000Y-95400100D02*
X142502800Y-95482900D01*
X168300300Y-73699700D02*
X176000000Y-66000000D01*
X168300300Y-83313700D02*
X168300300Y-73699700D01*
X166376000Y-85238000D02*
X168300300Y-83313700D01*
X142420000Y-89880000D02*
X142420000Y-91979900D01*
X163249300Y-88364900D02*
X163249300Y-88364700D01*
X163644800Y-88760400D02*
X163249300Y-88364900D01*
X163644800Y-99781000D02*
X163644800Y-88760400D01*
X162674200Y-100751600D02*
X163644800Y-99781000D01*
X158316500Y-100751600D02*
X162674200Y-100751600D01*
X151747500Y-94182600D02*
X158316500Y-100751600D01*
X144622700Y-94182600D02*
X151747500Y-94182600D01*
X142420000Y-91979900D02*
X144622700Y-94182600D01*
X144960000Y-89880000D02*
X144960000Y-91979900D01*
X153101800Y-92882300D02*
X159548700Y-86435400D01*
X145862400Y-92882300D02*
X153101800Y-92882300D01*
X144960000Y-91979900D02*
X145862400Y-92882300D01*
X147500000Y-89880000D02*
X147500000Y-87780100D01*
X139901400Y-76430800D02*
X141594300Y-76430800D01*
X132347200Y-83985000D02*
X139901400Y-76430800D01*
X132347200Y-85476000D02*
X132347200Y-83985000D01*
X133401500Y-86530300D02*
X132347200Y-85476000D01*
X146250200Y-86530300D02*
X133401500Y-86530300D01*
X147500000Y-87780100D02*
X146250200Y-86530300D01*
X174936600Y-87063400D02*
X176000000Y-86000000D01*
X165641000Y-87063400D02*
X174936600Y-87063400D01*
X164557200Y-85979600D02*
X165641000Y-87063400D01*
X164557200Y-80056400D02*
X164557200Y-85979600D01*
X166376000Y-78237600D02*
X164557200Y-80056400D01*
X176000000Y-96000000D02*
X173750000Y-96000000D01*
X163237900Y-77762100D02*
X166500000Y-74500000D01*
X163237900Y-86514500D02*
X163237900Y-77762100D01*
X172723400Y-96000000D02*
X163237900Y-86514500D01*
X173750000Y-96000000D02*
X172723400Y-96000000D01*
D27*
G36*
X185991239Y-50237709D02*
X185240345Y-50987293D01*
X184833464Y-51967173D01*
X184832538Y-53028172D01*
X185237709Y-54008761D01*
X185987293Y-54759655D01*
X186967173Y-55166536D01*
X188028172Y-55167462D01*
X189008761Y-54762291D01*
X189759655Y-54012707D01*
X189873000Y-53739741D01*
X189873000Y-116259175D01*
X189762291Y-115991239D01*
X189012707Y-115240345D01*
X188032827Y-114833464D01*
X186971828Y-114832538D01*
X185991239Y-115237709D01*
X185240345Y-115987293D01*
X184833464Y-116967173D01*
X184832538Y-118028172D01*
X185237709Y-119008761D01*
X185987293Y-119759655D01*
X186260259Y-119873000D01*
X118740825Y-119873000D01*
X119008761Y-119762291D01*
X119759655Y-119012707D01*
X120166536Y-118032827D01*
X120167462Y-116971828D01*
X119762291Y-115991239D01*
X119012707Y-115240345D01*
X118032827Y-114833464D01*
X116971828Y-114832538D01*
X115991239Y-115237709D01*
X115240345Y-115987293D01*
X115127000Y-116260259D01*
X115127000Y-113165000D01*
X144914999Y-113165000D01*
X144914999Y-119535000D01*
X184285000Y-119535000D01*
X184285000Y-113165000D01*
X144914999Y-113165000D01*
X115127000Y-113165000D01*
X115127000Y-83100200D01*
X118730299Y-83100200D01*
X118730300Y-83100205D01*
X118730300Y-102865295D01*
X118730299Y-102865300D01*
X118854757Y-103490988D01*
X119209180Y-104021420D01*
X122602560Y-107414799D01*
X122602560Y-108250000D01*
X122646838Y-108485317D01*
X122785910Y-108701441D01*
X122998110Y-108846431D01*
X123250000Y-108897440D01*
X125750000Y-108897440D01*
X125985317Y-108853162D01*
X126201441Y-108714090D01*
X126346431Y-108501890D01*
X126397440Y-108250000D01*
X126397440Y-106209679D01*
X127652421Y-107464660D01*
X127901043Y-108066372D01*
X128430839Y-108597093D01*
X129123405Y-108884672D01*
X129873305Y-108885326D01*
X130566372Y-108598957D01*
X131097093Y-108069161D01*
X131384672Y-107376595D01*
X131385326Y-106626695D01*
X131098957Y-105933628D01*
X130569161Y-105402907D01*
X129963762Y-105151523D01*
X126212700Y-101400460D01*
X126212700Y-100766340D01*
X137777278Y-112330917D01*
X137777280Y-112330920D01*
X138095251Y-112543381D01*
X138307712Y-112685343D01*
X138933400Y-112809800D01*
X153850000Y-112809800D01*
X154475687Y-112685343D01*
X155006120Y-112330920D01*
X155360543Y-111800487D01*
X155485000Y-111174800D01*
X155485000Y-108576200D01*
X155360543Y-107950513D01*
X155259440Y-107799201D01*
X155259440Y-107477650D01*
X155215162Y-107242333D01*
X155076090Y-107026209D01*
X154863890Y-106881219D01*
X154612000Y-106830210D01*
X153088000Y-106830210D01*
X152852683Y-106874488D01*
X152636559Y-107013560D01*
X152491569Y-107225760D01*
X152447736Y-107442213D01*
X152297828Y-107217860D01*
X151844609Y-106915028D01*
X151310000Y-106808688D01*
X150775391Y-106915028D01*
X150322172Y-107217860D01*
X150031358Y-107653093D01*
X150012059Y-107587709D01*
X149668026Y-107162020D01*
X149187277Y-106900390D01*
X149113070Y-106885430D01*
X148897000Y-107007930D01*
X148897000Y-108449200D01*
X148917000Y-108449200D01*
X148917000Y-108703200D01*
X148897000Y-108703200D01*
X148897000Y-108723200D01*
X148643000Y-108723200D01*
X148643000Y-108703200D01*
X148623000Y-108703200D01*
X148623000Y-108449200D01*
X148643000Y-108449200D01*
X148643000Y-107007930D01*
X148426930Y-106885430D01*
X148352723Y-106900390D01*
X147871974Y-107162020D01*
X147527941Y-107587709D01*
X147508642Y-107653093D01*
X147365000Y-107438118D01*
X147365000Y-106477600D01*
X147278603Y-106043254D01*
X147032566Y-105675034D01*
X146664346Y-105428997D01*
X146230000Y-105342600D01*
X139136332Y-105342600D01*
X132890245Y-99096513D01*
X133239746Y-98862983D01*
X133530000Y-98428588D01*
X133820254Y-98862983D01*
X134269765Y-99163337D01*
X134800000Y-99268807D01*
X135330235Y-99163337D01*
X135779746Y-98862983D01*
X136070000Y-98428588D01*
X136360254Y-98862983D01*
X136809765Y-99163337D01*
X137340000Y-99268807D01*
X137870235Y-99163337D01*
X138319746Y-98862983D01*
X138610000Y-98428588D01*
X138900254Y-98862983D01*
X139349765Y-99163337D01*
X139880000Y-99268807D01*
X140410235Y-99163337D01*
X140859746Y-98862983D01*
X141150000Y-98428588D01*
X141440254Y-98862983D01*
X141889765Y-99163337D01*
X142420000Y-99268807D01*
X142950235Y-99163337D01*
X143399746Y-98862983D01*
X143690000Y-98428588D01*
X143980254Y-98862983D01*
X144429765Y-99163337D01*
X144960000Y-99268807D01*
X145490235Y-99163337D01*
X145939746Y-98862983D01*
X146230000Y-98428588D01*
X146520254Y-98862983D01*
X146969765Y-99163337D01*
X147500000Y-99268807D01*
X148030235Y-99163337D01*
X148479746Y-98862983D01*
X148780100Y-98413472D01*
X148781601Y-98405928D01*
X148808501Y-98496817D01*
X149150056Y-98918798D01*
X149627097Y-99177950D01*
X149698725Y-99192133D01*
X149913000Y-99069479D01*
X149913000Y-97627000D01*
X149893000Y-97627000D01*
X149893000Y-97373000D01*
X149913000Y-97373000D01*
X149913000Y-97353000D01*
X150167000Y-97353000D01*
X150167000Y-97373000D01*
X150187000Y-97373000D01*
X150187000Y-97627000D01*
X150167000Y-97627000D01*
X150167000Y-99069479D01*
X150381275Y-99192133D01*
X150452903Y-99177950D01*
X150929944Y-98918798D01*
X151271499Y-98496817D01*
X151425570Y-97976250D01*
X151425570Y-97768002D01*
X161460134Y-107802566D01*
X161828354Y-108048603D01*
X162262700Y-108135000D01*
X166102560Y-108135000D01*
X166102560Y-108250000D01*
X166146838Y-108485317D01*
X166285910Y-108701441D01*
X166498110Y-108846431D01*
X166750000Y-108897440D01*
X169250000Y-108897440D01*
X169485317Y-108853162D01*
X169701441Y-108714090D01*
X169846431Y-108501890D01*
X169897440Y-108250000D01*
X169897440Y-107373305D01*
X171114674Y-107373305D01*
X171401043Y-108066372D01*
X171930839Y-108597093D01*
X172623405Y-108884672D01*
X173373305Y-108885326D01*
X174066372Y-108598957D01*
X174597093Y-108069161D01*
X174884672Y-107376595D01*
X174884674Y-107373305D01*
X176114674Y-107373305D01*
X176401043Y-108066372D01*
X176930839Y-108597093D01*
X177623405Y-108884672D01*
X178373305Y-108885326D01*
X179066372Y-108598957D01*
X179597093Y-108069161D01*
X179884672Y-107376595D01*
X179885326Y-106626695D01*
X179598957Y-105933628D01*
X179069161Y-105402907D01*
X178376595Y-105115328D01*
X177626695Y-105114674D01*
X176933628Y-105401043D01*
X176402907Y-105930839D01*
X176115328Y-106623405D01*
X176114674Y-107373305D01*
X174884674Y-107373305D01*
X174885326Y-106626695D01*
X174598957Y-105933628D01*
X174069161Y-105402907D01*
X173376595Y-105115328D01*
X172626695Y-105114674D01*
X171933628Y-105401043D01*
X171402907Y-105930839D01*
X171115328Y-106623405D01*
X171114674Y-107373305D01*
X169897440Y-107373305D01*
X169897440Y-105750000D01*
X169853162Y-105514683D01*
X169714090Y-105298559D01*
X169501890Y-105153569D01*
X169250000Y-105102560D01*
X166750000Y-105102560D01*
X166514683Y-105146838D01*
X166298559Y-105285910D01*
X166153569Y-105498110D01*
X166102560Y-105750000D01*
X166102560Y-105865000D01*
X162732832Y-105865000D01*
X158754432Y-101886600D01*
X162674200Y-101886600D01*
X163108546Y-101800203D01*
X163476766Y-101554166D01*
X164447366Y-100583566D01*
X164693404Y-100215345D01*
X164779800Y-99781000D01*
X164779800Y-89661532D01*
X171920834Y-96802566D01*
X172289054Y-97048603D01*
X172723400Y-97135000D01*
X174102560Y-97135000D01*
X174102560Y-97250000D01*
X174146838Y-97485317D01*
X174285910Y-97701441D01*
X174498110Y-97846431D01*
X174750000Y-97897440D01*
X177250000Y-97897440D01*
X177485317Y-97853162D01*
X177701441Y-97714090D01*
X177846431Y-97501890D01*
X177897440Y-97250000D01*
X177897440Y-94750000D01*
X177853162Y-94514683D01*
X177714090Y-94298559D01*
X177501890Y-94153569D01*
X177250000Y-94102560D01*
X174750000Y-94102560D01*
X174514683Y-94146838D01*
X174298559Y-94285910D01*
X174153569Y-94498110D01*
X174102560Y-94750000D01*
X174102560Y-94865000D01*
X173193532Y-94865000D01*
X166526932Y-88198400D01*
X174936600Y-88198400D01*
X175370946Y-88112003D01*
X175711056Y-87884748D01*
X176373305Y-87885326D01*
X176916300Y-87660965D01*
X176916300Y-88478568D01*
X176279625Y-89115243D01*
X175626695Y-89114674D01*
X174933628Y-89401043D01*
X174402907Y-89930839D01*
X174115328Y-90623405D01*
X174114674Y-91373305D01*
X174401043Y-92066372D01*
X174930839Y-92597093D01*
X175623405Y-92884672D01*
X176373305Y-92885326D01*
X177066372Y-92598957D01*
X177597093Y-92069161D01*
X177884672Y-91376595D01*
X177885245Y-90719887D01*
X178853866Y-89751266D01*
X178979684Y-89562966D01*
X179099903Y-89383046D01*
X179186300Y-88948700D01*
X179186300Y-83051300D01*
X179099903Y-82616954D01*
X178853866Y-82248734D01*
X177884757Y-81279625D01*
X177885245Y-80719887D01*
X178853866Y-79751266D01*
X178940203Y-79622054D01*
X179099903Y-79383046D01*
X179186300Y-78948700D01*
X179186300Y-73051300D01*
X179099903Y-72616954D01*
X178853866Y-72248734D01*
X177884757Y-71279625D01*
X177885245Y-70719887D01*
X178853866Y-69751266D01*
X178945893Y-69613538D01*
X179099903Y-69383046D01*
X179186300Y-68948700D01*
X179186300Y-63051300D01*
X179099903Y-62616954D01*
X178853866Y-62248734D01*
X177884757Y-61279625D01*
X177885326Y-60626695D01*
X177598957Y-59933628D01*
X177069161Y-59402907D01*
X176376595Y-59115328D01*
X175626695Y-59114674D01*
X174933628Y-59401043D01*
X174402907Y-59930839D01*
X174115328Y-60623405D01*
X174114674Y-61373305D01*
X174401043Y-62066372D01*
X174930839Y-62597093D01*
X175623405Y-62884672D01*
X176280113Y-62885245D01*
X176916300Y-63521432D01*
X176916300Y-64339433D01*
X176376595Y-64115328D01*
X175626695Y-64114674D01*
X174933628Y-64401043D01*
X174402907Y-64930839D01*
X174115328Y-65623405D01*
X174114755Y-66280113D01*
X167497734Y-72897134D01*
X167368350Y-73090770D01*
X166826547Y-72865794D01*
X166239851Y-72865282D01*
X166470667Y-72634466D01*
X166823694Y-72634774D01*
X167424655Y-72386462D01*
X167884846Y-71927073D01*
X168134206Y-71326547D01*
X168134774Y-70676306D01*
X167886462Y-70075345D01*
X167427073Y-69615154D01*
X166826547Y-69365794D01*
X166176306Y-69365226D01*
X165575345Y-69613538D01*
X165115154Y-70072927D01*
X164865794Y-70673453D01*
X164865483Y-71029384D01*
X160377834Y-75517034D01*
X160131797Y-75885254D01*
X160045400Y-76319600D01*
X160045400Y-85428461D01*
X159983045Y-85386797D01*
X159548700Y-85300401D01*
X159114354Y-85386797D01*
X158746134Y-85632834D01*
X152967025Y-91411943D01*
X153061303Y-91270846D01*
X153147700Y-90836500D01*
X153147700Y-87380332D01*
X154137869Y-86390163D01*
X155243443Y-86390163D01*
X155342042Y-86656965D01*
X155951582Y-86883401D01*
X156601377Y-86859341D01*
X157089958Y-86656965D01*
X157188557Y-86390163D01*
X156216000Y-85417605D01*
X155243443Y-86390163D01*
X154137869Y-86390163D01*
X154249366Y-86278666D01*
X154363713Y-86107534D01*
X154495403Y-85910446D01*
X154581800Y-85476100D01*
X154581800Y-85276090D01*
X154594659Y-85623377D01*
X154797035Y-86111958D01*
X155063837Y-86210557D01*
X156036395Y-85238000D01*
X156395605Y-85238000D01*
X157368163Y-86210557D01*
X157634965Y-86111958D01*
X157861401Y-85502418D01*
X157837341Y-84852623D01*
X157634965Y-84364042D01*
X157368163Y-84265443D01*
X156395605Y-85238000D01*
X156036395Y-85238000D01*
X155063837Y-84265443D01*
X154797035Y-84364042D01*
X154581800Y-84943430D01*
X154581800Y-84085837D01*
X155243443Y-84085837D01*
X156216000Y-85058395D01*
X157188557Y-84085837D01*
X157089958Y-83819035D01*
X156480418Y-83592599D01*
X155830623Y-83616659D01*
X155342042Y-83819035D01*
X155243443Y-84085837D01*
X154581800Y-84085837D01*
X154581800Y-82889763D01*
X155243443Y-82889763D01*
X155342042Y-83156565D01*
X155951582Y-83383001D01*
X156601377Y-83358941D01*
X157089958Y-83156565D01*
X157188557Y-82889763D01*
X156216000Y-81917205D01*
X155243443Y-82889763D01*
X154581800Y-82889763D01*
X154581800Y-81775690D01*
X154594659Y-82122977D01*
X154797035Y-82611558D01*
X155063837Y-82710157D01*
X156036395Y-81737600D01*
X156395605Y-81737600D01*
X157368163Y-82710157D01*
X157634965Y-82611558D01*
X157861401Y-82002018D01*
X157837341Y-81352223D01*
X157634965Y-80863642D01*
X157368163Y-80765043D01*
X156395605Y-81737600D01*
X156036395Y-81737600D01*
X155063837Y-80765043D01*
X154797035Y-80863642D01*
X154581800Y-81443030D01*
X154581800Y-80585437D01*
X155243443Y-80585437D01*
X156216000Y-81557995D01*
X157188557Y-80585437D01*
X157089958Y-80318635D01*
X156480418Y-80092199D01*
X155830623Y-80116259D01*
X155342042Y-80318635D01*
X155243443Y-80585437D01*
X154581800Y-80585437D01*
X154581800Y-79389763D01*
X155243443Y-79389763D01*
X155342042Y-79656565D01*
X155951582Y-79883001D01*
X156601377Y-79858941D01*
X157089958Y-79656565D01*
X157188557Y-79389763D01*
X156216000Y-78417205D01*
X155243443Y-79389763D01*
X154581800Y-79389763D01*
X154581800Y-78275690D01*
X154594659Y-78622977D01*
X154797035Y-79111558D01*
X155063837Y-79210157D01*
X156036395Y-78237600D01*
X156395605Y-78237600D01*
X157368163Y-79210157D01*
X157634965Y-79111558D01*
X157861401Y-78502018D01*
X157837341Y-77852223D01*
X157634965Y-77363642D01*
X157368163Y-77265043D01*
X156395605Y-78237600D01*
X156036395Y-78237600D01*
X155063837Y-77265043D01*
X154797035Y-77363642D01*
X154581800Y-77943030D01*
X154581800Y-77085437D01*
X155243443Y-77085437D01*
X156216000Y-78057995D01*
X157188557Y-77085437D01*
X157089958Y-76818635D01*
X156480418Y-76592199D01*
X155830623Y-76616259D01*
X155342042Y-76818635D01*
X155243443Y-77085437D01*
X154581800Y-77085437D01*
X154581800Y-76370300D01*
X154552704Y-76224023D01*
X154495404Y-75935955D01*
X154305781Y-75652163D01*
X155367443Y-75652163D01*
X155466042Y-75918965D01*
X156075582Y-76145401D01*
X156725377Y-76121341D01*
X157213958Y-75918965D01*
X157312557Y-75652163D01*
X156340000Y-74679605D01*
X155367443Y-75652163D01*
X154305781Y-75652163D01*
X154249367Y-75567734D01*
X153281466Y-74599833D01*
X153281774Y-74246806D01*
X153277137Y-74235582D01*
X154694599Y-74235582D01*
X154718659Y-74885377D01*
X154921035Y-75373958D01*
X155187837Y-75472557D01*
X156160395Y-74500000D01*
X156519605Y-74500000D01*
X157492163Y-75472557D01*
X157758965Y-75373958D01*
X157985401Y-74764418D01*
X157961341Y-74114623D01*
X157758965Y-73626042D01*
X157492163Y-73527443D01*
X156519605Y-74500000D01*
X156160395Y-74500000D01*
X155187837Y-73527443D01*
X154921035Y-73626042D01*
X154694599Y-74235582D01*
X153277137Y-74235582D01*
X153033462Y-73645845D01*
X152782000Y-73393944D01*
X152782000Y-73347837D01*
X155367443Y-73347837D01*
X156340000Y-74320395D01*
X157312557Y-73347837D01*
X157213958Y-73081035D01*
X156604418Y-72854599D01*
X155954623Y-72878659D01*
X155466042Y-73081035D01*
X155367443Y-73347837D01*
X152782000Y-73347837D01*
X152782000Y-61397700D01*
X152777087Y-61373000D01*
X152695604Y-60963355D01*
X152449566Y-60595134D01*
X150836632Y-58982200D01*
X158368568Y-58982200D01*
X159299426Y-59913058D01*
X158981974Y-60085820D01*
X158637941Y-60511509D01*
X158618642Y-60576893D01*
X158327828Y-60141660D01*
X157874609Y-59838828D01*
X157340000Y-59732488D01*
X156805391Y-59838828D01*
X156352172Y-60141660D01*
X156202660Y-60365419D01*
X156165162Y-60166133D01*
X156026090Y-59950009D01*
X155813890Y-59805019D01*
X155562000Y-59754010D01*
X154038000Y-59754010D01*
X153802683Y-59798288D01*
X153586559Y-59937360D01*
X153441569Y-60149560D01*
X153390560Y-60401450D01*
X153390560Y-60723001D01*
X153289457Y-60874313D01*
X153165000Y-61500000D01*
X153165000Y-69459995D01*
X153164999Y-69460000D01*
X153289457Y-70085688D01*
X153643880Y-70616120D01*
X155183880Y-72156120D01*
X155186041Y-72157564D01*
X155412927Y-72384846D01*
X155712133Y-72509087D01*
X155714312Y-72510543D01*
X155716860Y-72511050D01*
X156013453Y-72634206D01*
X156337426Y-72634489D01*
X156340000Y-72635001D01*
X156342551Y-72634493D01*
X156663694Y-72634774D01*
X156963120Y-72511054D01*
X156965688Y-72510543D01*
X156967846Y-72509101D01*
X157264655Y-72386462D01*
X157493940Y-72157577D01*
X157496120Y-72156120D01*
X157497564Y-72153959D01*
X157724846Y-71927073D01*
X157849087Y-71627867D01*
X157850543Y-71625688D01*
X157851050Y-71623140D01*
X157974206Y-71326547D01*
X157974489Y-71002574D01*
X157975001Y-71000000D01*
X157974493Y-70997449D01*
X157974774Y-70676306D01*
X157851054Y-70376880D01*
X157850543Y-70374312D01*
X157849101Y-70372154D01*
X157726462Y-70075345D01*
X157497577Y-69846060D01*
X157496120Y-69843880D01*
X156435000Y-68782760D01*
X156435000Y-62913684D01*
X156805391Y-63161172D01*
X157340000Y-63267512D01*
X157874609Y-63161172D01*
X158327828Y-62858340D01*
X158618642Y-62423107D01*
X158637941Y-62488491D01*
X158981974Y-62914180D01*
X159462723Y-63175810D01*
X159536930Y-63190770D01*
X159753000Y-63068270D01*
X159753000Y-61627000D01*
X159733000Y-61627000D01*
X159733000Y-61373000D01*
X159753000Y-61373000D01*
X159753000Y-61353000D01*
X160007000Y-61353000D01*
X160007000Y-61373000D01*
X160027000Y-61373000D01*
X160027000Y-61627000D01*
X160007000Y-61627000D01*
X160007000Y-63068270D01*
X160223070Y-63190770D01*
X160297277Y-63175810D01*
X160778026Y-62914180D01*
X161122059Y-62488491D01*
X161141358Y-62423107D01*
X161432172Y-62858340D01*
X161885391Y-63161172D01*
X162420000Y-63267512D01*
X162954609Y-63161172D01*
X163407828Y-62858340D01*
X163690000Y-62436041D01*
X163972172Y-62858340D01*
X164425391Y-63161172D01*
X164960000Y-63267512D01*
X165494609Y-63161172D01*
X165947828Y-62858340D01*
X166230000Y-62436041D01*
X166512172Y-62858340D01*
X166965391Y-63161172D01*
X167500000Y-63267512D01*
X168034609Y-63161172D01*
X168487828Y-62858340D01*
X168790660Y-62405121D01*
X168897000Y-61870512D01*
X168897000Y-61129488D01*
X168790660Y-60594879D01*
X168487828Y-60141660D01*
X168034609Y-59838828D01*
X167500000Y-59732488D01*
X166965391Y-59838828D01*
X166512172Y-60141660D01*
X166230000Y-60563959D01*
X165947828Y-60141660D01*
X165494609Y-59838828D01*
X164960000Y-59732488D01*
X164888619Y-59746687D01*
X160871366Y-55729434D01*
X160503146Y-55483397D01*
X160068800Y-55397000D01*
X141613000Y-55397000D01*
X141178655Y-55483396D01*
X140810434Y-55729434D01*
X137582834Y-58957034D01*
X137336797Y-59325254D01*
X137250400Y-59759600D01*
X137250400Y-72965850D01*
X136722345Y-73184038D01*
X136262154Y-73643427D01*
X136012794Y-74243953D01*
X136012483Y-74599885D01*
X135781264Y-74831104D01*
X135781774Y-74246806D01*
X135533462Y-73645845D01*
X135074073Y-73185654D01*
X134473547Y-72936294D01*
X133823306Y-72935726D01*
X133222345Y-73184038D01*
X132762154Y-73643427D01*
X132512794Y-74243953D01*
X132512483Y-74599885D01*
X128504334Y-78608034D01*
X128258297Y-78976254D01*
X128171900Y-79410600D01*
X128171900Y-82778525D01*
X128030235Y-82683867D01*
X127500000Y-82578397D01*
X126969765Y-82683867D01*
X126520254Y-82984221D01*
X126230000Y-83418616D01*
X125939746Y-82984221D01*
X125490235Y-82683867D01*
X124960000Y-82578397D01*
X124429765Y-82683867D01*
X123980254Y-82984221D01*
X123690000Y-83418616D01*
X123399746Y-82984221D01*
X123036340Y-82741400D01*
X133142740Y-72635000D01*
X135498573Y-72635000D01*
X135823795Y-72635284D01*
X136424943Y-72386894D01*
X136885278Y-71927363D01*
X137134716Y-71326648D01*
X137135284Y-70676205D01*
X136886894Y-70075057D01*
X136427363Y-69614722D01*
X135826648Y-69365284D01*
X135176205Y-69364716D01*
X135175518Y-69365000D01*
X132465505Y-69365000D01*
X132465500Y-69364999D01*
X131839812Y-69489457D01*
X131309380Y-69843880D01*
X119209180Y-81944080D01*
X118854757Y-82474512D01*
X118730299Y-83100200D01*
X115127000Y-83100200D01*
X115127000Y-68238015D01*
X122424641Y-68238015D01*
X122809746Y-69170041D01*
X123522208Y-69883748D01*
X124453561Y-70270479D01*
X125462015Y-70271359D01*
X126394041Y-69886254D01*
X127107748Y-69173792D01*
X127494479Y-68242439D01*
X127495359Y-67233985D01*
X127110254Y-66301959D01*
X126397792Y-65588252D01*
X125466439Y-65201521D01*
X124457985Y-65200641D01*
X123525959Y-65585746D01*
X122812252Y-66298208D01*
X122425521Y-67229561D01*
X122424641Y-68238015D01*
X115127000Y-68238015D01*
X115127000Y-59323795D01*
X133864716Y-59323795D01*
X134113106Y-59924943D01*
X134572637Y-60385278D01*
X135173352Y-60634716D01*
X135823795Y-60635284D01*
X136424943Y-60386894D01*
X136885278Y-59927363D01*
X137134716Y-59326648D01*
X137135284Y-58676205D01*
X136886894Y-58075057D01*
X136427363Y-57614722D01*
X135826648Y-57365284D01*
X135176205Y-57364716D01*
X134575057Y-57613106D01*
X134114722Y-58072637D01*
X133865284Y-58673352D01*
X133864716Y-59323795D01*
X115127000Y-59323795D01*
X115127000Y-53740825D01*
X115237709Y-54008761D01*
X115987293Y-54759655D01*
X116967173Y-55166536D01*
X118028172Y-55167462D01*
X119008761Y-54762291D01*
X119759655Y-54012707D01*
X120166536Y-53032827D01*
X120167462Y-51971828D01*
X119762291Y-50991239D01*
X119012707Y-50240345D01*
X118807173Y-50155000D01*
X157679287Y-50155000D01*
X157679287Y-54545000D01*
X184535000Y-54545000D01*
X184535000Y-50155000D01*
X157679287Y-50155000D01*
X118807173Y-50155000D01*
X118739741Y-50127000D01*
X186259175Y-50127000D01*
X185991239Y-50237709D01*
X185991239Y-50237709D01*
G37*
X185991239Y-50237709D02*
X185240345Y-50987293D01*
X184833464Y-51967173D01*
X184832538Y-53028172D01*
X185237709Y-54008761D01*
X185987293Y-54759655D01*
X186967173Y-55166536D01*
X188028172Y-55167462D01*
X189008761Y-54762291D01*
X189759655Y-54012707D01*
X189873000Y-53739741D01*
X189873000Y-116259175D01*
X189762291Y-115991239D01*
X189012707Y-115240345D01*
X188032827Y-114833464D01*
X186971828Y-114832538D01*
X185991239Y-115237709D01*
X185240345Y-115987293D01*
X184833464Y-116967173D01*
X184832538Y-118028172D01*
X185237709Y-119008761D01*
X185987293Y-119759655D01*
X186260259Y-119873000D01*
X118740825Y-119873000D01*
X119008761Y-119762291D01*
X119759655Y-119012707D01*
X120166536Y-118032827D01*
X120167462Y-116971828D01*
X119762291Y-115991239D01*
X119012707Y-115240345D01*
X118032827Y-114833464D01*
X116971828Y-114832538D01*
X115991239Y-115237709D01*
X115240345Y-115987293D01*
X115127000Y-116260259D01*
X115127000Y-113165000D01*
X144914999Y-113165000D01*
X144914999Y-119535000D01*
X184285000Y-119535000D01*
X184285000Y-113165000D01*
X144914999Y-113165000D01*
X115127000Y-113165000D01*
X115127000Y-83100200D01*
X118730299Y-83100200D01*
X118730300Y-83100205D01*
X118730300Y-102865295D01*
X118730299Y-102865300D01*
X118854757Y-103490988D01*
X119209180Y-104021420D01*
X122602560Y-107414799D01*
X122602560Y-108250000D01*
X122646838Y-108485317D01*
X122785910Y-108701441D01*
X122998110Y-108846431D01*
X123250000Y-108897440D01*
X125750000Y-108897440D01*
X125985317Y-108853162D01*
X126201441Y-108714090D01*
X126346431Y-108501890D01*
X126397440Y-108250000D01*
X126397440Y-106209679D01*
X127652421Y-107464660D01*
X127901043Y-108066372D01*
X128430839Y-108597093D01*
X129123405Y-108884672D01*
X129873305Y-108885326D01*
X130566372Y-108598957D01*
X131097093Y-108069161D01*
X131384672Y-107376595D01*
X131385326Y-106626695D01*
X131098957Y-105933628D01*
X130569161Y-105402907D01*
X129963762Y-105151523D01*
X126212700Y-101400460D01*
X126212700Y-100766340D01*
X137777278Y-112330917D01*
X137777280Y-112330920D01*
X138095251Y-112543381D01*
X138307712Y-112685343D01*
X138933400Y-112809800D01*
X153850000Y-112809800D01*
X154475687Y-112685343D01*
X155006120Y-112330920D01*
X155360543Y-111800487D01*
X155485000Y-111174800D01*
X155485000Y-108576200D01*
X155360543Y-107950513D01*
X155259440Y-107799201D01*
X155259440Y-107477650D01*
X155215162Y-107242333D01*
X155076090Y-107026209D01*
X154863890Y-106881219D01*
X154612000Y-106830210D01*
X153088000Y-106830210D01*
X152852683Y-106874488D01*
X152636559Y-107013560D01*
X152491569Y-107225760D01*
X152447736Y-107442213D01*
X152297828Y-107217860D01*
X151844609Y-106915028D01*
X151310000Y-106808688D01*
X150775391Y-106915028D01*
X150322172Y-107217860D01*
X150031358Y-107653093D01*
X150012059Y-107587709D01*
X149668026Y-107162020D01*
X149187277Y-106900390D01*
X149113070Y-106885430D01*
X148897000Y-107007930D01*
X148897000Y-108449200D01*
X148917000Y-108449200D01*
X148917000Y-108703200D01*
X148897000Y-108703200D01*
X148897000Y-108723200D01*
X148643000Y-108723200D01*
X148643000Y-108703200D01*
X148623000Y-108703200D01*
X148623000Y-108449200D01*
X148643000Y-108449200D01*
X148643000Y-107007930D01*
X148426930Y-106885430D01*
X148352723Y-106900390D01*
X147871974Y-107162020D01*
X147527941Y-107587709D01*
X147508642Y-107653093D01*
X147365000Y-107438118D01*
X147365000Y-106477600D01*
X147278603Y-106043254D01*
X147032566Y-105675034D01*
X146664346Y-105428997D01*
X146230000Y-105342600D01*
X139136332Y-105342600D01*
X132890245Y-99096513D01*
X133239746Y-98862983D01*
X133530000Y-98428588D01*
X133820254Y-98862983D01*
X134269765Y-99163337D01*
X134800000Y-99268807D01*
X135330235Y-99163337D01*
X135779746Y-98862983D01*
X136070000Y-98428588D01*
X136360254Y-98862983D01*
X136809765Y-99163337D01*
X137340000Y-99268807D01*
X137870235Y-99163337D01*
X138319746Y-98862983D01*
X138610000Y-98428588D01*
X138900254Y-98862983D01*
X139349765Y-99163337D01*
X139880000Y-99268807D01*
X140410235Y-99163337D01*
X140859746Y-98862983D01*
X141150000Y-98428588D01*
X141440254Y-98862983D01*
X141889765Y-99163337D01*
X142420000Y-99268807D01*
X142950235Y-99163337D01*
X143399746Y-98862983D01*
X143690000Y-98428588D01*
X143980254Y-98862983D01*
X144429765Y-99163337D01*
X144960000Y-99268807D01*
X145490235Y-99163337D01*
X145939746Y-98862983D01*
X146230000Y-98428588D01*
X146520254Y-98862983D01*
X146969765Y-99163337D01*
X147500000Y-99268807D01*
X148030235Y-99163337D01*
X148479746Y-98862983D01*
X148780100Y-98413472D01*
X148781601Y-98405928D01*
X148808501Y-98496817D01*
X149150056Y-98918798D01*
X149627097Y-99177950D01*
X149698725Y-99192133D01*
X149913000Y-99069479D01*
X149913000Y-97627000D01*
X149893000Y-97627000D01*
X149893000Y-97373000D01*
X149913000Y-97373000D01*
X149913000Y-97353000D01*
X150167000Y-97353000D01*
X150167000Y-97373000D01*
X150187000Y-97373000D01*
X150187000Y-97627000D01*
X150167000Y-97627000D01*
X150167000Y-99069479D01*
X150381275Y-99192133D01*
X150452903Y-99177950D01*
X150929944Y-98918798D01*
X151271499Y-98496817D01*
X151425570Y-97976250D01*
X151425570Y-97768002D01*
X161460134Y-107802566D01*
X161828354Y-108048603D01*
X162262700Y-108135000D01*
X166102560Y-108135000D01*
X166102560Y-108250000D01*
X166146838Y-108485317D01*
X166285910Y-108701441D01*
X166498110Y-108846431D01*
X166750000Y-108897440D01*
X169250000Y-108897440D01*
X169485317Y-108853162D01*
X169701441Y-108714090D01*
X169846431Y-108501890D01*
X169897440Y-108250000D01*
X169897440Y-107373305D01*
X171114674Y-107373305D01*
X171401043Y-108066372D01*
X171930839Y-108597093D01*
X172623405Y-108884672D01*
X173373305Y-108885326D01*
X174066372Y-108598957D01*
X174597093Y-108069161D01*
X174884672Y-107376595D01*
X174884674Y-107373305D01*
X176114674Y-107373305D01*
X176401043Y-108066372D01*
X176930839Y-108597093D01*
X177623405Y-108884672D01*
X178373305Y-108885326D01*
X179066372Y-108598957D01*
X179597093Y-108069161D01*
X179884672Y-107376595D01*
X179885326Y-106626695D01*
X179598957Y-105933628D01*
X179069161Y-105402907D01*
X178376595Y-105115328D01*
X177626695Y-105114674D01*
X176933628Y-105401043D01*
X176402907Y-105930839D01*
X176115328Y-106623405D01*
X176114674Y-107373305D01*
X174884674Y-107373305D01*
X174885326Y-106626695D01*
X174598957Y-105933628D01*
X174069161Y-105402907D01*
X173376595Y-105115328D01*
X172626695Y-105114674D01*
X171933628Y-105401043D01*
X171402907Y-105930839D01*
X171115328Y-106623405D01*
X171114674Y-107373305D01*
X169897440Y-107373305D01*
X169897440Y-105750000D01*
X169853162Y-105514683D01*
X169714090Y-105298559D01*
X169501890Y-105153569D01*
X169250000Y-105102560D01*
X166750000Y-105102560D01*
X166514683Y-105146838D01*
X166298559Y-105285910D01*
X166153569Y-105498110D01*
X166102560Y-105750000D01*
X166102560Y-105865000D01*
X162732832Y-105865000D01*
X158754432Y-101886600D01*
X162674200Y-101886600D01*
X163108546Y-101800203D01*
X163476766Y-101554166D01*
X164447366Y-100583566D01*
X164693404Y-100215345D01*
X164779800Y-99781000D01*
X164779800Y-89661532D01*
X171920834Y-96802566D01*
X172289054Y-97048603D01*
X172723400Y-97135000D01*
X174102560Y-97135000D01*
X174102560Y-97250000D01*
X174146838Y-97485317D01*
X174285910Y-97701441D01*
X174498110Y-97846431D01*
X174750000Y-97897440D01*
X177250000Y-97897440D01*
X177485317Y-97853162D01*
X177701441Y-97714090D01*
X177846431Y-97501890D01*
X177897440Y-97250000D01*
X177897440Y-94750000D01*
X177853162Y-94514683D01*
X177714090Y-94298559D01*
X177501890Y-94153569D01*
X177250000Y-94102560D01*
X174750000Y-94102560D01*
X174514683Y-94146838D01*
X174298559Y-94285910D01*
X174153569Y-94498110D01*
X174102560Y-94750000D01*
X174102560Y-94865000D01*
X173193532Y-94865000D01*
X166526932Y-88198400D01*
X174936600Y-88198400D01*
X175370946Y-88112003D01*
X175711056Y-87884748D01*
X176373305Y-87885326D01*
X176916300Y-87660965D01*
X176916300Y-88478568D01*
X176279625Y-89115243D01*
X175626695Y-89114674D01*
X174933628Y-89401043D01*
X174402907Y-89930839D01*
X174115328Y-90623405D01*
X174114674Y-91373305D01*
X174401043Y-92066372D01*
X174930839Y-92597093D01*
X175623405Y-92884672D01*
X176373305Y-92885326D01*
X177066372Y-92598957D01*
X177597093Y-92069161D01*
X177884672Y-91376595D01*
X177885245Y-90719887D01*
X178853866Y-89751266D01*
X178979684Y-89562966D01*
X179099903Y-89383046D01*
X179186300Y-88948700D01*
X179186300Y-83051300D01*
X179099903Y-82616954D01*
X178853866Y-82248734D01*
X177884757Y-81279625D01*
X177885245Y-80719887D01*
X178853866Y-79751266D01*
X178940203Y-79622054D01*
X179099903Y-79383046D01*
X179186300Y-78948700D01*
X179186300Y-73051300D01*
X179099903Y-72616954D01*
X178853866Y-72248734D01*
X177884757Y-71279625D01*
X177885245Y-70719887D01*
X178853866Y-69751266D01*
X178945893Y-69613538D01*
X179099903Y-69383046D01*
X179186300Y-68948700D01*
X179186300Y-63051300D01*
X179099903Y-62616954D01*
X178853866Y-62248734D01*
X177884757Y-61279625D01*
X177885326Y-60626695D01*
X177598957Y-59933628D01*
X177069161Y-59402907D01*
X176376595Y-59115328D01*
X175626695Y-59114674D01*
X174933628Y-59401043D01*
X174402907Y-59930839D01*
X174115328Y-60623405D01*
X174114674Y-61373305D01*
X174401043Y-62066372D01*
X174930839Y-62597093D01*
X175623405Y-62884672D01*
X176280113Y-62885245D01*
X176916300Y-63521432D01*
X176916300Y-64339433D01*
X176376595Y-64115328D01*
X175626695Y-64114674D01*
X174933628Y-64401043D01*
X174402907Y-64930839D01*
X174115328Y-65623405D01*
X174114755Y-66280113D01*
X167497734Y-72897134D01*
X167368350Y-73090770D01*
X166826547Y-72865794D01*
X166239851Y-72865282D01*
X166470667Y-72634466D01*
X166823694Y-72634774D01*
X167424655Y-72386462D01*
X167884846Y-71927073D01*
X168134206Y-71326547D01*
X168134774Y-70676306D01*
X167886462Y-70075345D01*
X167427073Y-69615154D01*
X166826547Y-69365794D01*
X166176306Y-69365226D01*
X165575345Y-69613538D01*
X165115154Y-70072927D01*
X164865794Y-70673453D01*
X164865483Y-71029384D01*
X160377834Y-75517034D01*
X160131797Y-75885254D01*
X160045400Y-76319600D01*
X160045400Y-85428461D01*
X159983045Y-85386797D01*
X159548700Y-85300401D01*
X159114354Y-85386797D01*
X158746134Y-85632834D01*
X152967025Y-91411943D01*
X153061303Y-91270846D01*
X153147700Y-90836500D01*
X153147700Y-87380332D01*
X154137869Y-86390163D01*
X155243443Y-86390163D01*
X155342042Y-86656965D01*
X155951582Y-86883401D01*
X156601377Y-86859341D01*
X157089958Y-86656965D01*
X157188557Y-86390163D01*
X156216000Y-85417605D01*
X155243443Y-86390163D01*
X154137869Y-86390163D01*
X154249366Y-86278666D01*
X154363713Y-86107534D01*
X154495403Y-85910446D01*
X154581800Y-85476100D01*
X154581800Y-85276090D01*
X154594659Y-85623377D01*
X154797035Y-86111958D01*
X155063837Y-86210557D01*
X156036395Y-85238000D01*
X156395605Y-85238000D01*
X157368163Y-86210557D01*
X157634965Y-86111958D01*
X157861401Y-85502418D01*
X157837341Y-84852623D01*
X157634965Y-84364042D01*
X157368163Y-84265443D01*
X156395605Y-85238000D01*
X156036395Y-85238000D01*
X155063837Y-84265443D01*
X154797035Y-84364042D01*
X154581800Y-84943430D01*
X154581800Y-84085837D01*
X155243443Y-84085837D01*
X156216000Y-85058395D01*
X157188557Y-84085837D01*
X157089958Y-83819035D01*
X156480418Y-83592599D01*
X155830623Y-83616659D01*
X155342042Y-83819035D01*
X155243443Y-84085837D01*
X154581800Y-84085837D01*
X154581800Y-82889763D01*
X155243443Y-82889763D01*
X155342042Y-83156565D01*
X155951582Y-83383001D01*
X156601377Y-83358941D01*
X157089958Y-83156565D01*
X157188557Y-82889763D01*
X156216000Y-81917205D01*
X155243443Y-82889763D01*
X154581800Y-82889763D01*
X154581800Y-81775690D01*
X154594659Y-82122977D01*
X154797035Y-82611558D01*
X155063837Y-82710157D01*
X156036395Y-81737600D01*
X156395605Y-81737600D01*
X157368163Y-82710157D01*
X157634965Y-82611558D01*
X157861401Y-82002018D01*
X157837341Y-81352223D01*
X157634965Y-80863642D01*
X157368163Y-80765043D01*
X156395605Y-81737600D01*
X156036395Y-81737600D01*
X155063837Y-80765043D01*
X154797035Y-80863642D01*
X154581800Y-81443030D01*
X154581800Y-80585437D01*
X155243443Y-80585437D01*
X156216000Y-81557995D01*
X157188557Y-80585437D01*
X157089958Y-80318635D01*
X156480418Y-80092199D01*
X155830623Y-80116259D01*
X155342042Y-80318635D01*
X155243443Y-80585437D01*
X154581800Y-80585437D01*
X154581800Y-79389763D01*
X155243443Y-79389763D01*
X155342042Y-79656565D01*
X155951582Y-79883001D01*
X156601377Y-79858941D01*
X157089958Y-79656565D01*
X157188557Y-79389763D01*
X156216000Y-78417205D01*
X155243443Y-79389763D01*
X154581800Y-79389763D01*
X154581800Y-78275690D01*
X154594659Y-78622977D01*
X154797035Y-79111558D01*
X155063837Y-79210157D01*
X156036395Y-78237600D01*
X156395605Y-78237600D01*
X157368163Y-79210157D01*
X157634965Y-79111558D01*
X157861401Y-78502018D01*
X157837341Y-77852223D01*
X157634965Y-77363642D01*
X157368163Y-77265043D01*
X156395605Y-78237600D01*
X156036395Y-78237600D01*
X155063837Y-77265043D01*
X154797035Y-77363642D01*
X154581800Y-77943030D01*
X154581800Y-77085437D01*
X155243443Y-77085437D01*
X156216000Y-78057995D01*
X157188557Y-77085437D01*
X157089958Y-76818635D01*
X156480418Y-76592199D01*
X155830623Y-76616259D01*
X155342042Y-76818635D01*
X155243443Y-77085437D01*
X154581800Y-77085437D01*
X154581800Y-76370300D01*
X154552704Y-76224023D01*
X154495404Y-75935955D01*
X154305781Y-75652163D01*
X155367443Y-75652163D01*
X155466042Y-75918965D01*
X156075582Y-76145401D01*
X156725377Y-76121341D01*
X157213958Y-75918965D01*
X157312557Y-75652163D01*
X156340000Y-74679605D01*
X155367443Y-75652163D01*
X154305781Y-75652163D01*
X154249367Y-75567734D01*
X153281466Y-74599833D01*
X153281774Y-74246806D01*
X153277137Y-74235582D01*
X154694599Y-74235582D01*
X154718659Y-74885377D01*
X154921035Y-75373958D01*
X155187837Y-75472557D01*
X156160395Y-74500000D01*
X156519605Y-74500000D01*
X157492163Y-75472557D01*
X157758965Y-75373958D01*
X157985401Y-74764418D01*
X157961341Y-74114623D01*
X157758965Y-73626042D01*
X157492163Y-73527443D01*
X156519605Y-74500000D01*
X156160395Y-74500000D01*
X155187837Y-73527443D01*
X154921035Y-73626042D01*
X154694599Y-74235582D01*
X153277137Y-74235582D01*
X153033462Y-73645845D01*
X152782000Y-73393944D01*
X152782000Y-73347837D01*
X155367443Y-73347837D01*
X156340000Y-74320395D01*
X157312557Y-73347837D01*
X157213958Y-73081035D01*
X156604418Y-72854599D01*
X155954623Y-72878659D01*
X155466042Y-73081035D01*
X155367443Y-73347837D01*
X152782000Y-73347837D01*
X152782000Y-61397700D01*
X152777087Y-61373000D01*
X152695604Y-60963355D01*
X152449566Y-60595134D01*
X150836632Y-58982200D01*
X158368568Y-58982200D01*
X159299426Y-59913058D01*
X158981974Y-60085820D01*
X158637941Y-60511509D01*
X158618642Y-60576893D01*
X158327828Y-60141660D01*
X157874609Y-59838828D01*
X157340000Y-59732488D01*
X156805391Y-59838828D01*
X156352172Y-60141660D01*
X156202660Y-60365419D01*
X156165162Y-60166133D01*
X156026090Y-59950009D01*
X155813890Y-59805019D01*
X155562000Y-59754010D01*
X154038000Y-59754010D01*
X153802683Y-59798288D01*
X153586559Y-59937360D01*
X153441569Y-60149560D01*
X153390560Y-60401450D01*
X153390560Y-60723001D01*
X153289457Y-60874313D01*
X153165000Y-61500000D01*
X153165000Y-69459995D01*
X153164999Y-69460000D01*
X153289457Y-70085688D01*
X153643880Y-70616120D01*
X155183880Y-72156120D01*
X155186041Y-72157564D01*
X155412927Y-72384846D01*
X155712133Y-72509087D01*
X155714312Y-72510543D01*
X155716860Y-72511050D01*
X156013453Y-72634206D01*
X156337426Y-72634489D01*
X156340000Y-72635001D01*
X156342551Y-72634493D01*
X156663694Y-72634774D01*
X156963120Y-72511054D01*
X156965688Y-72510543D01*
X156967846Y-72509101D01*
X157264655Y-72386462D01*
X157493940Y-72157577D01*
X157496120Y-72156120D01*
X157497564Y-72153959D01*
X157724846Y-71927073D01*
X157849087Y-71627867D01*
X157850543Y-71625688D01*
X157851050Y-71623140D01*
X157974206Y-71326547D01*
X157974489Y-71002574D01*
X157975001Y-71000000D01*
X157974493Y-70997449D01*
X157974774Y-70676306D01*
X157851054Y-70376880D01*
X157850543Y-70374312D01*
X157849101Y-70372154D01*
X157726462Y-70075345D01*
X157497577Y-69846060D01*
X157496120Y-69843880D01*
X156435000Y-68782760D01*
X156435000Y-62913684D01*
X156805391Y-63161172D01*
X157340000Y-63267512D01*
X157874609Y-63161172D01*
X158327828Y-62858340D01*
X158618642Y-62423107D01*
X158637941Y-62488491D01*
X158981974Y-62914180D01*
X159462723Y-63175810D01*
X159536930Y-63190770D01*
X159753000Y-63068270D01*
X159753000Y-61627000D01*
X159733000Y-61627000D01*
X159733000Y-61373000D01*
X159753000Y-61373000D01*
X159753000Y-61353000D01*
X160007000Y-61353000D01*
X160007000Y-61373000D01*
X160027000Y-61373000D01*
X160027000Y-61627000D01*
X160007000Y-61627000D01*
X160007000Y-63068270D01*
X160223070Y-63190770D01*
X160297277Y-63175810D01*
X160778026Y-62914180D01*
X161122059Y-62488491D01*
X161141358Y-62423107D01*
X161432172Y-62858340D01*
X161885391Y-63161172D01*
X162420000Y-63267512D01*
X162954609Y-63161172D01*
X163407828Y-62858340D01*
X163690000Y-62436041D01*
X163972172Y-62858340D01*
X164425391Y-63161172D01*
X164960000Y-63267512D01*
X165494609Y-63161172D01*
X165947828Y-62858340D01*
X166230000Y-62436041D01*
X166512172Y-62858340D01*
X166965391Y-63161172D01*
X167500000Y-63267512D01*
X168034609Y-63161172D01*
X168487828Y-62858340D01*
X168790660Y-62405121D01*
X168897000Y-61870512D01*
X168897000Y-61129488D01*
X168790660Y-60594879D01*
X168487828Y-60141660D01*
X168034609Y-59838828D01*
X167500000Y-59732488D01*
X166965391Y-59838828D01*
X166512172Y-60141660D01*
X166230000Y-60563959D01*
X165947828Y-60141660D01*
X165494609Y-59838828D01*
X164960000Y-59732488D01*
X164888619Y-59746687D01*
X160871366Y-55729434D01*
X160503146Y-55483397D01*
X160068800Y-55397000D01*
X141613000Y-55397000D01*
X141178655Y-55483396D01*
X140810434Y-55729434D01*
X137582834Y-58957034D01*
X137336797Y-59325254D01*
X137250400Y-59759600D01*
X137250400Y-72965850D01*
X136722345Y-73184038D01*
X136262154Y-73643427D01*
X136012794Y-74243953D01*
X136012483Y-74599885D01*
X135781264Y-74831104D01*
X135781774Y-74246806D01*
X135533462Y-73645845D01*
X135074073Y-73185654D01*
X134473547Y-72936294D01*
X133823306Y-72935726D01*
X133222345Y-73184038D01*
X132762154Y-73643427D01*
X132512794Y-74243953D01*
X132512483Y-74599885D01*
X128504334Y-78608034D01*
X128258297Y-78976254D01*
X128171900Y-79410600D01*
X128171900Y-82778525D01*
X128030235Y-82683867D01*
X127500000Y-82578397D01*
X126969765Y-82683867D01*
X126520254Y-82984221D01*
X126230000Y-83418616D01*
X125939746Y-82984221D01*
X125490235Y-82683867D01*
X124960000Y-82578397D01*
X124429765Y-82683867D01*
X123980254Y-82984221D01*
X123690000Y-83418616D01*
X123399746Y-82984221D01*
X123036340Y-82741400D01*
X133142740Y-72635000D01*
X135498573Y-72635000D01*
X135823795Y-72635284D01*
X136424943Y-72386894D01*
X136885278Y-71927363D01*
X137134716Y-71326648D01*
X137135284Y-70676205D01*
X136886894Y-70075057D01*
X136427363Y-69614722D01*
X135826648Y-69365284D01*
X135176205Y-69364716D01*
X135175518Y-69365000D01*
X132465505Y-69365000D01*
X132465500Y-69364999D01*
X131839812Y-69489457D01*
X131309380Y-69843880D01*
X119209180Y-81944080D01*
X118854757Y-82474512D01*
X118730299Y-83100200D01*
X115127000Y-83100200D01*
X115127000Y-68238015D01*
X122424641Y-68238015D01*
X122809746Y-69170041D01*
X123522208Y-69883748D01*
X124453561Y-70270479D01*
X125462015Y-70271359D01*
X126394041Y-69886254D01*
X127107748Y-69173792D01*
X127494479Y-68242439D01*
X127495359Y-67233985D01*
X127110254Y-66301959D01*
X126397792Y-65588252D01*
X125466439Y-65201521D01*
X124457985Y-65200641D01*
X123525959Y-65585746D01*
X122812252Y-66298208D01*
X122425521Y-67229561D01*
X122424641Y-68238015D01*
X115127000Y-68238015D01*
X115127000Y-59323795D01*
X133864716Y-59323795D01*
X134113106Y-59924943D01*
X134572637Y-60385278D01*
X135173352Y-60634716D01*
X135823795Y-60635284D01*
X136424943Y-60386894D01*
X136885278Y-59927363D01*
X137134716Y-59326648D01*
X137135284Y-58676205D01*
X136886894Y-58075057D01*
X136427363Y-57614722D01*
X135826648Y-57365284D01*
X135176205Y-57364716D01*
X134575057Y-57613106D01*
X134114722Y-58072637D01*
X133865284Y-58673352D01*
X133864716Y-59323795D01*
X115127000Y-59323795D01*
X115127000Y-53740825D01*
X115237709Y-54008761D01*
X115987293Y-54759655D01*
X116967173Y-55166536D01*
X118028172Y-55167462D01*
X119008761Y-54762291D01*
X119759655Y-54012707D01*
X120166536Y-53032827D01*
X120167462Y-51971828D01*
X119762291Y-50991239D01*
X119012707Y-50240345D01*
X118807173Y-50155000D01*
X157679287Y-50155000D01*
X157679287Y-54545000D01*
X184535000Y-54545000D01*
X184535000Y-50155000D01*
X157679287Y-50155000D01*
X118807173Y-50155000D01*
X118739741Y-50127000D01*
X186259175Y-50127000D01*
X185991239Y-50237709D01*
G36*
X144536610Y-61299991D02*
X144615000Y-61353553D01*
X144615000Y-61848600D01*
X144701397Y-62282946D01*
X144936632Y-62635000D01*
X144947434Y-62651166D01*
X148064602Y-65768334D01*
X147908925Y-65679126D01*
X147837583Y-65693223D01*
X147360954Y-65952100D01*
X147019674Y-66373669D01*
X147000000Y-66440122D01*
X146980326Y-66373669D01*
X146639046Y-65952100D01*
X146162417Y-65693223D01*
X146091075Y-65679126D01*
X145877000Y-65801798D01*
X145877000Y-67243000D01*
X148123000Y-67243000D01*
X148123000Y-67223000D01*
X148377000Y-67223000D01*
X148377000Y-67243000D01*
X148397000Y-67243000D01*
X148397000Y-67497000D01*
X148377000Y-67497000D01*
X148377000Y-68938202D01*
X148591075Y-69060874D01*
X148662417Y-69046777D01*
X148712100Y-69019792D01*
X148712100Y-72400267D01*
X148176333Y-72936034D01*
X147823306Y-72935726D01*
X147222345Y-73184038D01*
X146762154Y-73643427D01*
X146512794Y-74243953D01*
X146512226Y-74894194D01*
X146760538Y-75495155D01*
X147219927Y-75955346D01*
X147820453Y-76204706D01*
X148470694Y-76205274D01*
X149071655Y-75956962D01*
X149531846Y-75497573D01*
X149781206Y-74897047D01*
X149781517Y-74541116D01*
X150012736Y-74309896D01*
X150012226Y-74894194D01*
X150260538Y-75495155D01*
X150719927Y-75955346D01*
X151320453Y-76204706D01*
X151676384Y-76205017D01*
X152311800Y-76840433D01*
X152311800Y-83236749D01*
X151973547Y-83096294D01*
X151323306Y-83095726D01*
X150722345Y-83344038D01*
X150262154Y-83803427D01*
X150012794Y-84403953D01*
X150012226Y-85054194D01*
X150260538Y-85655155D01*
X150719927Y-86115346D01*
X151099579Y-86272991D01*
X150964097Y-86475754D01*
X150877700Y-86910100D01*
X150877700Y-88422105D01*
X150570235Y-88216663D01*
X150040000Y-88111193D01*
X149509765Y-88216663D01*
X149060254Y-88517017D01*
X148770000Y-88951412D01*
X148635000Y-88749371D01*
X148635000Y-87780100D01*
X148548603Y-87345754D01*
X148302566Y-86977534D01*
X147596918Y-86271886D01*
X147820453Y-86364706D01*
X148470694Y-86365274D01*
X149071655Y-86116962D01*
X149531846Y-85657573D01*
X149781206Y-85057047D01*
X149781774Y-84406806D01*
X149533462Y-83805845D01*
X149074073Y-83345654D01*
X148473547Y-83096294D01*
X147823306Y-83095726D01*
X147222345Y-83344038D01*
X146762154Y-83803427D01*
X146512794Y-84403953D01*
X146512226Y-85054194D01*
X146690514Y-85485685D01*
X146684546Y-85481697D01*
X146250200Y-85395300D01*
X146140751Y-85395300D01*
X146281206Y-85057047D01*
X146281774Y-84406806D01*
X146033462Y-83805845D01*
X145574073Y-83345654D01*
X144973547Y-83096294D01*
X144323306Y-83095726D01*
X143722345Y-83344038D01*
X143262154Y-83803427D01*
X143012794Y-84403953D01*
X143012226Y-85054194D01*
X143153168Y-85395300D01*
X142640751Y-85395300D01*
X142781206Y-85057047D01*
X142781774Y-84406806D01*
X142533462Y-83805845D01*
X142074073Y-83345654D01*
X141473547Y-83096294D01*
X140823306Y-83095726D01*
X140222345Y-83344038D01*
X139762154Y-83803427D01*
X139512794Y-84403953D01*
X139512226Y-85054194D01*
X139653168Y-85395300D01*
X139140751Y-85395300D01*
X139281206Y-85057047D01*
X139281774Y-84406806D01*
X139033462Y-83805845D01*
X138574073Y-83345654D01*
X137973547Y-83096294D01*
X137323306Y-83095726D01*
X136722345Y-83344038D01*
X136262154Y-83803427D01*
X136012794Y-84403953D01*
X136012226Y-85054194D01*
X136153168Y-85395300D01*
X135640751Y-85395300D01*
X135781206Y-85057047D01*
X135781774Y-84406806D01*
X135533462Y-83805845D01*
X135074073Y-83345654D01*
X134733215Y-83204117D01*
X140371532Y-77565800D01*
X141594300Y-77565800D01*
X142028646Y-77479403D01*
X142396866Y-77233366D01*
X142642903Y-76865146D01*
X142729300Y-76430800D01*
X142642903Y-75996454D01*
X142398503Y-75630684D01*
X142531846Y-75497573D01*
X142781206Y-74897047D01*
X142781718Y-74310350D01*
X143012534Y-74541166D01*
X143012226Y-74894194D01*
X143260538Y-75495155D01*
X143719927Y-75955346D01*
X144320453Y-76204706D01*
X144970694Y-76205274D01*
X145571655Y-75956962D01*
X146031846Y-75497573D01*
X146281206Y-74897047D01*
X146281774Y-74246806D01*
X146033462Y-73645845D01*
X145574073Y-73185654D01*
X144973547Y-72936294D01*
X144617615Y-72935983D01*
X142802900Y-71121268D01*
X142802900Y-69027939D01*
X142837583Y-69046777D01*
X142908925Y-69060874D01*
X143123000Y-68938202D01*
X143123000Y-67497000D01*
X143377000Y-67497000D01*
X143377000Y-68938202D01*
X143591075Y-69060874D01*
X143662417Y-69046777D01*
X144139046Y-68787900D01*
X144480326Y-68366331D01*
X144500000Y-68299878D01*
X144519674Y-68366331D01*
X144860954Y-68787900D01*
X145337583Y-69046777D01*
X145408925Y-69060874D01*
X145623000Y-68938202D01*
X145623000Y-67497000D01*
X145877000Y-67497000D01*
X145877000Y-68938202D01*
X146091075Y-69060874D01*
X146162417Y-69046777D01*
X146639046Y-68787900D01*
X146980326Y-68366331D01*
X147000000Y-68299878D01*
X147019674Y-68366331D01*
X147360954Y-68787900D01*
X147837583Y-69046777D01*
X147908925Y-69060874D01*
X148123000Y-68938202D01*
X148123000Y-67497000D01*
X145877000Y-67497000D01*
X145623000Y-67497000D01*
X143377000Y-67497000D01*
X143123000Y-67497000D01*
X143103000Y-67497000D01*
X143103000Y-67243000D01*
X143123000Y-67243000D01*
X143123000Y-65801798D01*
X143377000Y-65801798D01*
X143377000Y-67243000D01*
X145623000Y-67243000D01*
X145623000Y-65801798D01*
X145408925Y-65679126D01*
X145337583Y-65693223D01*
X144860954Y-65952100D01*
X144519674Y-66373669D01*
X144500000Y-66440122D01*
X144480326Y-66373669D01*
X144139046Y-65952100D01*
X143662417Y-65693223D01*
X143591075Y-65679126D01*
X143377000Y-65801798D01*
X143123000Y-65801798D01*
X142908925Y-65679126D01*
X142837583Y-65693223D01*
X142802900Y-65712061D01*
X142802900Y-63900832D01*
X144052566Y-62651166D01*
X144063368Y-62635000D01*
X144298603Y-62282946D01*
X144385000Y-61848600D01*
X144385000Y-61354943D01*
X144450741Y-61312640D01*
X144499155Y-61241784D01*
X144536610Y-61299991D01*
X144536610Y-61299991D01*
G37*
X144536610Y-61299991D02*
X144615000Y-61353553D01*
X144615000Y-61848600D01*
X144701397Y-62282946D01*
X144936632Y-62635000D01*
X144947434Y-62651166D01*
X148064602Y-65768334D01*
X147908925Y-65679126D01*
X147837583Y-65693223D01*
X147360954Y-65952100D01*
X147019674Y-66373669D01*
X147000000Y-66440122D01*
X146980326Y-66373669D01*
X146639046Y-65952100D01*
X146162417Y-65693223D01*
X146091075Y-65679126D01*
X145877000Y-65801798D01*
X145877000Y-67243000D01*
X148123000Y-67243000D01*
X148123000Y-67223000D01*
X148377000Y-67223000D01*
X148377000Y-67243000D01*
X148397000Y-67243000D01*
X148397000Y-67497000D01*
X148377000Y-67497000D01*
X148377000Y-68938202D01*
X148591075Y-69060874D01*
X148662417Y-69046777D01*
X148712100Y-69019792D01*
X148712100Y-72400267D01*
X148176333Y-72936034D01*
X147823306Y-72935726D01*
X147222345Y-73184038D01*
X146762154Y-73643427D01*
X146512794Y-74243953D01*
X146512226Y-74894194D01*
X146760538Y-75495155D01*
X147219927Y-75955346D01*
X147820453Y-76204706D01*
X148470694Y-76205274D01*
X149071655Y-75956962D01*
X149531846Y-75497573D01*
X149781206Y-74897047D01*
X149781517Y-74541116D01*
X150012736Y-74309896D01*
X150012226Y-74894194D01*
X150260538Y-75495155D01*
X150719927Y-75955346D01*
X151320453Y-76204706D01*
X151676384Y-76205017D01*
X152311800Y-76840433D01*
X152311800Y-83236749D01*
X151973547Y-83096294D01*
X151323306Y-83095726D01*
X150722345Y-83344038D01*
X150262154Y-83803427D01*
X150012794Y-84403953D01*
X150012226Y-85054194D01*
X150260538Y-85655155D01*
X150719927Y-86115346D01*
X151099579Y-86272991D01*
X150964097Y-86475754D01*
X150877700Y-86910100D01*
X150877700Y-88422105D01*
X150570235Y-88216663D01*
X150040000Y-88111193D01*
X149509765Y-88216663D01*
X149060254Y-88517017D01*
X148770000Y-88951412D01*
X148635000Y-88749371D01*
X148635000Y-87780100D01*
X148548603Y-87345754D01*
X148302566Y-86977534D01*
X147596918Y-86271886D01*
X147820453Y-86364706D01*
X148470694Y-86365274D01*
X149071655Y-86116962D01*
X149531846Y-85657573D01*
X149781206Y-85057047D01*
X149781774Y-84406806D01*
X149533462Y-83805845D01*
X149074073Y-83345654D01*
X148473547Y-83096294D01*
X147823306Y-83095726D01*
X147222345Y-83344038D01*
X146762154Y-83803427D01*
X146512794Y-84403953D01*
X146512226Y-85054194D01*
X146690514Y-85485685D01*
X146684546Y-85481697D01*
X146250200Y-85395300D01*
X146140751Y-85395300D01*
X146281206Y-85057047D01*
X146281774Y-84406806D01*
X146033462Y-83805845D01*
X145574073Y-83345654D01*
X144973547Y-83096294D01*
X144323306Y-83095726D01*
X143722345Y-83344038D01*
X143262154Y-83803427D01*
X143012794Y-84403953D01*
X143012226Y-85054194D01*
X143153168Y-85395300D01*
X142640751Y-85395300D01*
X142781206Y-85057047D01*
X142781774Y-84406806D01*
X142533462Y-83805845D01*
X142074073Y-83345654D01*
X141473547Y-83096294D01*
X140823306Y-83095726D01*
X140222345Y-83344038D01*
X139762154Y-83803427D01*
X139512794Y-84403953D01*
X139512226Y-85054194D01*
X139653168Y-85395300D01*
X139140751Y-85395300D01*
X139281206Y-85057047D01*
X139281774Y-84406806D01*
X139033462Y-83805845D01*
X138574073Y-83345654D01*
X137973547Y-83096294D01*
X137323306Y-83095726D01*
X136722345Y-83344038D01*
X136262154Y-83803427D01*
X136012794Y-84403953D01*
X136012226Y-85054194D01*
X136153168Y-85395300D01*
X135640751Y-85395300D01*
X135781206Y-85057047D01*
X135781774Y-84406806D01*
X135533462Y-83805845D01*
X135074073Y-83345654D01*
X134733215Y-83204117D01*
X140371532Y-77565800D01*
X141594300Y-77565800D01*
X142028646Y-77479403D01*
X142396866Y-77233366D01*
X142642903Y-76865146D01*
X142729300Y-76430800D01*
X142642903Y-75996454D01*
X142398503Y-75630684D01*
X142531846Y-75497573D01*
X142781206Y-74897047D01*
X142781718Y-74310350D01*
X143012534Y-74541166D01*
X143012226Y-74894194D01*
X143260538Y-75495155D01*
X143719927Y-75955346D01*
X144320453Y-76204706D01*
X144970694Y-76205274D01*
X145571655Y-75956962D01*
X146031846Y-75497573D01*
X146281206Y-74897047D01*
X146281774Y-74246806D01*
X146033462Y-73645845D01*
X145574073Y-73185654D01*
X144973547Y-72936294D01*
X144617615Y-72935983D01*
X142802900Y-71121268D01*
X142802900Y-69027939D01*
X142837583Y-69046777D01*
X142908925Y-69060874D01*
X143123000Y-68938202D01*
X143123000Y-67497000D01*
X143377000Y-67497000D01*
X143377000Y-68938202D01*
X143591075Y-69060874D01*
X143662417Y-69046777D01*
X144139046Y-68787900D01*
X144480326Y-68366331D01*
X144500000Y-68299878D01*
X144519674Y-68366331D01*
X144860954Y-68787900D01*
X145337583Y-69046777D01*
X145408925Y-69060874D01*
X145623000Y-68938202D01*
X145623000Y-67497000D01*
X145877000Y-67497000D01*
X145877000Y-68938202D01*
X146091075Y-69060874D01*
X146162417Y-69046777D01*
X146639046Y-68787900D01*
X146980326Y-68366331D01*
X147000000Y-68299878D01*
X147019674Y-68366331D01*
X147360954Y-68787900D01*
X147837583Y-69046777D01*
X147908925Y-69060874D01*
X148123000Y-68938202D01*
X148123000Y-67497000D01*
X145877000Y-67497000D01*
X145623000Y-67497000D01*
X143377000Y-67497000D01*
X143123000Y-67497000D01*
X143103000Y-67497000D01*
X143103000Y-67243000D01*
X143123000Y-67243000D01*
X143123000Y-65801798D01*
X143377000Y-65801798D01*
X143377000Y-67243000D01*
X145623000Y-67243000D01*
X145623000Y-65801798D01*
X145408925Y-65679126D01*
X145337583Y-65693223D01*
X144860954Y-65952100D01*
X144519674Y-66373669D01*
X144500000Y-66440122D01*
X144480326Y-66373669D01*
X144139046Y-65952100D01*
X143662417Y-65693223D01*
X143591075Y-65679126D01*
X143377000Y-65801798D01*
X143123000Y-65801798D01*
X142908925Y-65679126D01*
X142837583Y-65693223D01*
X142802900Y-65712061D01*
X142802900Y-63900832D01*
X144052566Y-62651166D01*
X144063368Y-62635000D01*
X144298603Y-62282946D01*
X144385000Y-61848600D01*
X144385000Y-61354943D01*
X144450741Y-61312640D01*
X144499155Y-61241784D01*
X144536610Y-61299991D01*
M02*
