M48
;DRILL file {KiCad 4.0.1-stable} date 26/09/2016 04:36:55 p. m.
;FORMAT={-:-/ absolute / metric / decimal}
FMAT,2
METRIC,TZ
T1C0.500
T2C0.800
T3C0.800
T4C1.000
T5C1.001
T6C1.016
T7C1.300
%
G90
G05
M71
T1
X128.678Y-93.254
X136.146Y-93.479
X141.594Y-76.431
X151.267Y-91.582
X159.549Y-86.435
X163.249Y-88.365
T2
X159.5Y-91.5
X159.5Y-99.12
X162.04Y-91.5
X162.04Y-99.12
T3
X132.26Y-89.88
X132.26Y-97.5
X134.8Y-89.88
X134.8Y-97.5
X137.34Y-89.88
X137.34Y-97.5
X139.88Y-89.88
X139.88Y-97.5
X142.42Y-89.88
X142.42Y-97.5
X143.25Y-59.75
X143.25Y-67.37
X144.96Y-89.88
X144.96Y-97.5
X145.75Y-59.75
X145.75Y-67.37
X147.5Y-89.88
X147.5Y-97.5
X148.25Y-59.75
X148.25Y-67.37
X150.04Y-89.88
X150.04Y-97.5
T4
X117.5Y-52.5
X117.5Y-117.5
X135.5Y-59.
X135.5Y-71.
X187.5Y-52.5
X187.5Y-117.5
T5
X122.42Y-84.5
X124.96Y-84.5
X127.5Y-84.5
X134.147Y-74.57
X134.147Y-84.73
X137.647Y-74.57
X137.647Y-84.73
X141.147Y-74.57
X141.147Y-84.73
X144.647Y-74.57
X144.647Y-84.73
X148.147Y-74.57
X148.147Y-84.73
X151.647Y-74.57
X151.647Y-84.73
X156.216Y-78.238
X156.216Y-81.738
X156.216Y-85.238
X156.34Y-71.
X156.34Y-74.5
X166.376Y-78.238
X166.376Y-81.738
X166.376Y-85.238
X166.5Y-71.
X166.5Y-74.5
T6
X141.15Y-108.576
X143.69Y-108.576
X146.23Y-108.576
X148.77Y-108.576
X151.31Y-108.576
X153.85Y-108.576
X154.8Y-61.5
X157.34Y-61.5
X159.88Y-61.5
X162.42Y-61.5
X164.96Y-61.5
X167.5Y-61.5
T7
X124.5Y-107.
X129.5Y-107.
X168.Y-107.
X173.Y-107.
X176.Y-61.
X176.Y-66.
X176.Y-71.
X176.Y-76.
X176.Y-81.
X176.Y-86.
X176.Y-91.
X176.Y-96.
X178.Y-107.
T0
M30
