  0
SECTION
  2
HEADER
  9
$ANGBASE
  50
0.0
  9
$ANGDIR
  70
  1
  9
$MEASUREMENT
  70
0
  0
ENDSEC
  0
SECTION
  2
TABLES
  0
TABLE
  2
LTYPE
  70
1
  0
LTYPE
  2
CONTINUOUS
  70
0
  3
Solid line
  72
65
  73
0
  40
0.0
  0
ENDTAB
  0
TABLE
  2
STYLE
  70
4
  0
STYLE
  2
KICAD
  70
0
  40
0
  41
1
  42
1
  50
0
  71
0
  3
isocp.shx
  0
STYLE
  2
KICADB
  70
0
  40
0
  41
1
  42
1
  50
0
  71
0
  3
isocp.shx
  0
STYLE
  2
KICADI
  70
0
  40
0
  41
1
  42
1
  50
15
  71
0
  3
isocp.shx
  0
STYLE
  2
KICADBI
  70
0
  40
0
  41
1
  42
1
  50
15
  71
0
  3
isocp.shx
  0
ENDTAB
  0
TABLE
  2
LAYER
  70
30
  0
LAYER
  2
BLACK
  70
0
  62
7
  6
CONTINUOUS
  0
LAYER
  2
GRAY1
  70
0
  62
251
  6
CONTINUOUS
  0
LAYER
  2
GRAY2
  70
0
  62
8
  6
CONTINUOUS
  0
LAYER
  2
GRAY3
  70
0
  62
9
  6
CONTINUOUS
  0
LAYER
  2
WHITE
  70
0
  62
7
  6
CONTINUOUS
  0
LAYER
  2
LYELLOW
  70
0
  62
51
  6
CONTINUOUS
  0
LAYER
  2
BLUE1
  70
0
  62
178
  6
CONTINUOUS
  0
LAYER
  2
GREEN1
  70
0
  62
98
  6
CONTINUOUS
  0
LAYER
  2
CYAN1
  70
0
  62
138
  6
CONTINUOUS
  0
LAYER
  2
RED1
  70
0
  62
18
  6
CONTINUOUS
  0
LAYER
  2
MAGENTA1
  70
0
  62
228
  6
CONTINUOUS
  0
LAYER
  2
BROWN1
  70
0
  62
58
  6
CONTINUOUS
  0
LAYER
  2
BLUE2
  70
0
  62
5
  6
CONTINUOUS
  0
LAYER
  2
GREEN2
  70
0
  62
3
  6
CONTINUOUS
  0
LAYER
  2
CYAN2
  70
0
  62
4
  6
CONTINUOUS
  0
LAYER
  2
RED2
  70
0
  62
1
  6
CONTINUOUS
  0
LAYER
  2
MAGENTA2
  70
0
  62
6
  6
CONTINUOUS
  0
LAYER
  2
BROWN2
  70
0
  62
54
  6
CONTINUOUS
  0
LAYER
  2
BLUE3
  70
0
  62
171
  6
CONTINUOUS
  0
LAYER
  2
GREEN3
  70
0
  62
91
  6
CONTINUOUS
  0
LAYER
  2
CYAN3
  70
0
  62
131
  6
CONTINUOUS
  0
LAYER
  2
RED3
  70
0
  62
11
  6
CONTINUOUS
  0
LAYER
  2
MAGENTA3
  70
0
  62
221
  6
CONTINUOUS
  0
LAYER
  2
YELLOW3
  70
0
  62
2
  6
CONTINUOUS
  0
LAYER
  2
BLUE4
  70
0
  62
5
  6
CONTINUOUS
  0
LAYER
  2
GREEN4
  70
0
  62
3
  6
CONTINUOUS
  0
LAYER
  2
CYAN4
  70
0
  62
4
  6
CONTINUOUS
  0
LAYER
  2
RED4
  70
0
  62
1
  6
CONTINUOUS
  0
LAYER
  2
MAGENTA4
  70
0
  62
6
  6
CONTINUOUS
  0
LAYER
  2
YELLOW4
  70
0
  62
2
  6
CONTINUOUS
  0
ENDTAB
  0
ENDSEC
  0
SECTION
  2
ENTITIES
0
LINE
8
Black
10
145.6
20
-99.6
11
146.4
21
-100.4
0
LINE
8
Black
10
146.4
20
-99.6
11
145.6
21
-100.4
0
LINE
8
Black
10
145.6
20
-102.1
11
146.4
21
-102.9
0
LINE
8
Black
10
146.4
20
-102.1
11
145.6
21
-102.9
0
CIRCLE
8
Black
10
143.34
20
-109
40
0.50038
0
CIRCLE
8
Black
10
152.5
20
-100
40
0.50038
0
CIRCLE
8
Black
10
152.5
20
-102.54
40
0.50038
0
CIRCLE
8
Black
10
153.5
20
-109
40
0.50038
0
LINE
8
Black
10
138
20
-98.2792
11
138
21
-99.5288
0
LINE
8
Black
10
137.375
20
-98.904
11
138.625
21
-98.904
0
LINE
8
Black
10
138
20
-102.343
11
138
21
-103.593
0
LINE
8
Black
10
137.375
20
-102.968
11
138.625
21
-102.968
0
LINE
8
Black
10
138
20
-106.407
11
138
21
-107.657
0
LINE
8
Black
10
137.375
20
-107.032
11
138.625
21
-107.032
0
LINE
8
Black
10
138
20
-110.471
11
138
21
-111.721
0
LINE
8
Black
10
137.375
20
-111.096
11
138.625
21
-111.096
0
LINE
8
Black
10
127.96
20
-102.96
11
127.96
21
-102.04
0
LINE
8
Black
10
127.96
20
-102.04
11
127.04
21
-102.04
0
LINE
8
Black
10
127.04
20
-102.04
11
127.04
21
-102.96
0
LINE
8
Black
10
127.04
20
-102.96
11
127.96
21
-102.96
0
LINE
8
Black
10
127.96
20
-107.96
11
127.96
21
-107.04
0
LINE
8
Black
10
127.96
20
-107.04
11
127.04
21
-107.04
0
LINE
8
Black
10
127.04
20
-107.04
11
127.04
21
-107.96
0
LINE
8
Black
10
127.04
20
-107.96
11
127.96
21
-107.96
0
LINE
8
Black
10
163.46
20
-102.96
11
163.46
21
-102.04
0
LINE
8
Black
10
163.46
20
-102.04
11
162.54
21
-102.04
0
LINE
8
Black
10
162.54
20
-102.04
11
162.54
21
-102.96
0
LINE
8
Black
10
162.54
20
-102.96
11
163.46
21
-102.96
0
LINE
8
Black
10
163.46
20
-107.96
11
163.46
21
-107.04
0
LINE
8
Black
10
163.46
20
-107.04
11
162.54
21
-107.04
0
LINE
8
Black
10
162.54
20
-107.04
11
162.54
21
-107.96
0
LINE
8
Black
10
162.54
20
-107.96
11
163.46
21
-107.96
0
LINE
8
Black
10
2.71429
20
-4.65714
11
2.71429
21
-1.65714
0
LINE
8
Black
10
2.71429
20
-1.65714
11
3.42857
21
-1.65714
0
LINE
8
Black
10
3.42857
20
-1.65714
11
3.85714
21
-1.8
0
LINE
8
Black
10
3.85714
20
-1.8
11
4.14286
21
-2.08571
0
LINE
8
Black
10
4.14286
20
-2.08571
11
4.28571
21
-2.37143
0
LINE
8
Black
10
4.28571
20
-2.37143
11
4.42857
21
-2.94286
0
LINE
8
Black
10
4.42857
20
-2.94286
11
4.42857
21
-3.37143
0
LINE
8
Black
10
4.42857
20
-3.37143
11
4.28571
21
-3.94286
0
LINE
8
Black
10
4.28571
20
-3.94286
11
4.14286
21
-4.22857
0
LINE
8
Black
10
4.14286
20
-4.22857
11
3.85714
21
-4.51429
0
LINE
8
Black
10
3.85714
20
-4.51429
11
3.42857
21
-4.65714
0
LINE
8
Black
10
3.42857
20
-4.65714
11
2.71429
21
-4.65714
0
LINE
8
Black
10
5.71429
20
-4.65714
11
5.71429
21
-2.65714
0
LINE
8
Black
10
5.71429
20
-3.22857
11
5.85714
21
-2.94286
0
LINE
8
Black
10
5.85714
20
-2.94286
11
6
21
-2.8
0
LINE
8
Black
10
6
20
-2.8
11
6.28571
21
-2.65714
0
LINE
8
Black
10
6.28571
20
-2.65714
11
6.57143
21
-2.65714
0
LINE
8
Black
10
7.57143
20
-4.65714
11
7.57143
21
-2.65714
0
LINE
8
Black
10
7.57143
20
-1.65714
11
7.42857
21
-1.8
0
LINE
8
Black
10
7.42857
20
-1.8
11
7.57143
21
-1.94286
0
LINE
8
Black
10
7.57143
20
-1.94286
11
7.71429
21
-1.8
0
LINE
8
Black
10
7.71429
20
-1.8
11
7.57143
21
-1.65714
0
LINE
8
Black
10
7.57143
20
-1.65714
11
7.57143
21
-1.94286
0
LINE
8
Black
10
9.42857
20
-4.65714
11
9.14286
21
-4.51429
0
LINE
8
Black
10
9.14286
20
-4.51429
11
9
21
-4.22857
0
LINE
8
Black
10
9
20
-4.22857
11
9
21
-1.65714
0
LINE
8
Black
10
11
20
-4.65714
11
10.7143
21
-4.51429
0
LINE
8
Black
10
10.7143
20
-4.51429
11
10.5714
21
-4.22857
0
LINE
8
Black
10
10.5714
20
-4.22857
11
10.5714
21
-1.65714
0
LINE
8
Black
10
14.4286
20
-4.65714
11
14.4286
21
-1.65714
0
LINE
8
Black
10
14.4286
20
-1.65714
11
15.4286
21
-3.8
0
LINE
8
Black
10
15.4286
20
-3.8
11
16.4286
21
-1.65714
0
LINE
8
Black
10
16.4286
20
-1.65714
11
16.4286
21
-4.65714
0
LINE
8
Black
10
19.1429
20
-4.65714
11
19.1429
21
-3.08571
0
LINE
8
Black
10
19.1429
20
-3.08571
11
19
21
-2.8
0
LINE
8
Black
10
19
20
-2.8
11
18.7143
21
-2.65714
0
LINE
8
Black
10
18.7143
20
-2.65714
11
18.1429
21
-2.65714
0
LINE
8
Black
10
18.1429
20
-2.65714
11
17.8571
21
-2.8
0
LINE
8
Black
10
19.1429
20
-4.51429
11
18.8571
21
-4.65714
0
LINE
8
Black
10
18.8571
20
-4.65714
11
18.1429
21
-4.65714
0
LINE
8
Black
10
18.1429
20
-4.65714
11
17.8571
21
-4.51429
0
LINE
8
Black
10
17.8571
20
-4.51429
11
17.7143
21
-4.22857
0
LINE
8
Black
10
17.7143
20
-4.22857
11
17.7143
21
-3.94286
0
LINE
8
Black
10
17.7143
20
-3.94286
11
17.8571
21
-3.65714
0
LINE
8
Black
10
17.8571
20
-3.65714
11
18.1429
21
-3.51429
0
LINE
8
Black
10
18.1429
20
-3.51429
11
18.8571
21
-3.51429
0
LINE
8
Black
10
18.8571
20
-3.51429
11
19.1429
21
-3.37143
0
LINE
8
Black
10
20.5714
20
-2.65714
11
20.5714
21
-5.65714
0
LINE
8
Black
10
20.5714
20
-2.8
11
20.8571
21
-2.65714
0
LINE
8
Black
10
20.8571
20
-2.65714
11
21.4286
21
-2.65714
0
LINE
8
Black
10
21.4286
20
-2.65714
11
21.7143
21
-2.8
0
LINE
8
Black
10
21.7143
20
-2.8
11
21.8571
21
-2.94286
0
LINE
8
Black
10
21.8571
20
-2.94286
11
22
21
-3.22857
0
LINE
8
Black
10
22
20
-3.22857
11
22
21
-4.08571
0
LINE
8
Black
10
22
20
-4.08571
11
21.8571
21
-4.37143
0
LINE
8
Black
10
21.8571
20
-4.37143
11
21.7143
21
-4.51429
0
LINE
8
Black
10
21.7143
20
-4.51429
11
21.4286
21
-4.65714
0
LINE
8
Black
10
21.4286
20
-4.65714
11
20.8571
21
-4.65714
0
LINE
8
Black
10
20.8571
20
-4.65714
11
20.5714
21
-4.51429
0
LINE
8
Black
10
23.2857
20
-4.37143
11
23.4286
21
-4.51429
0
LINE
8
Black
10
23.4286
20
-4.51429
11
23.2857
21
-4.65714
0
LINE
8
Black
10
23.2857
20
-4.65714
11
23.1429
21
-4.51429
0
LINE
8
Black
10
23.1429
20
-4.51429
11
23.2857
21
-4.37143
0
LINE
8
Black
10
23.2857
20
-4.37143
11
23.2857
21
-4.65714
0
LINE
8
Black
10
23.2857
20
-2.8
11
23.4286
21
-2.94286
0
LINE
8
Black
10
23.4286
20
-2.94286
11
23.2857
21
-3.08571
0
LINE
8
Black
10
23.2857
20
-3.08571
11
23.1429
21
-2.94286
0
LINE
8
Black
10
23.1429
20
-2.94286
11
23.2857
21
-2.8
0
LINE
8
Black
10
23.2857
20
-2.8
11
23.2857
21
-3.08571
0
LINE
8
Black
10
-0.8
20
-9.2
11
0
21
-10
0
LINE
8
Black
10
0
20
-9.2
11
-0.8
21
-10
0
LINE
8
Black
10
3.28571
20
-7.95714
11
3.57143
21
-7.95714
0
LINE
8
Black
10
3.57143
20
-7.95714
11
3.85714
21
-8.1
0
LINE
8
Black
10
3.85714
20
-8.1
11
4
21
-8.24286
0
LINE
8
Black
10
4
20
-8.24286
11
4.14286
21
-8.52857
0
LINE
8
Black
10
4.14286
20
-8.52857
11
4.28571
21
-9.1
0
LINE
8
Black
10
4.28571
20
-9.1
11
4.28571
21
-9.81429
0
LINE
8
Black
10
4.28571
20
-9.81429
11
4.14286
21
-10.3857
0
LINE
8
Black
10
4.14286
20
-10.3857
11
4
21
-10.6714
0
LINE
8
Black
10
4
20
-10.6714
11
3.85714
21
-10.8143
0
LINE
8
Black
10
3.85714
20
-10.8143
11
3.57143
21
-10.9571
0
LINE
8
Black
10
3.57143
20
-10.9571
11
3.28571
21
-10.9571
0
LINE
8
Black
10
3.28571
20
-10.9571
11
3
21
-10.8143
0
LINE
8
Black
10
3
20
-10.8143
11
2.85714
21
-10.6714
0
LINE
8
Black
10
2.85714
20
-10.6714
11
2.71429
21
-10.3857
0
LINE
8
Black
10
2.71429
20
-10.3857
11
2.57143
21
-9.81429
0
LINE
8
Black
10
2.57143
20
-9.81429
11
2.57143
21
-9.1
0
LINE
8
Black
10
2.57143
20
-9.1
11
2.71429
21
-8.52857
0
LINE
8
Black
10
2.71429
20
-8.52857
11
2.85714
21
-8.24286
0
LINE
8
Black
10
2.85714
20
-8.24286
11
3
21
-8.1
0
LINE
8
Black
10
3
20
-8.1
11
3.28571
21
-7.95714
0
LINE
8
Black
10
5.57143
20
-10.6714
11
5.71429
21
-10.8143
0
LINE
8
Black
10
5.71429
20
-10.8143
11
5.57143
21
-10.9571
0
LINE
8
Black
10
5.57143
20
-10.9571
11
5.42857
21
-10.8143
0
LINE
8
Black
10
5.42857
20
-10.8143
11
5.57143
21
-10.6714
0
LINE
8
Black
10
5.57143
20
-10.6714
11
5.57143
21
-10.9571
0
LINE
8
Black
10
7.42857
20
-9.24286
11
7.14286
21
-9.1
0
LINE
8
Black
10
7.14286
20
-9.1
11
7
21
-8.95714
0
LINE
8
Black
10
7
20
-8.95714
11
6.85714
21
-8.67143
0
LINE
8
Black
10
6.85714
20
-8.67143
11
6.85714
21
-8.52857
0
LINE
8
Black
10
6.85714
20
-8.52857
11
7
21
-8.24286
0
LINE
8
Black
10
7
20
-8.24286
11
7.14286
21
-8.1
0
LINE
8
Black
10
7.14286
20
-8.1
11
7.42857
21
-7.95714
0
LINE
8
Black
10
7.42857
20
-7.95714
11
8
21
-7.95714
0
LINE
8
Black
10
8
20
-7.95714
11
8.28571
21
-8.1
0
LINE
8
Black
10
8.28571
20
-8.1
11
8.42857
21
-8.24286
0
LINE
8
Black
10
8.42857
20
-8.24286
11
8.57143
21
-8.52857
0
LINE
8
Black
10
8.57143
20
-8.52857
11
8.57143
21
-8.67143
0
LINE
8
Black
10
8.57143
20
-8.67143
11
8.42857
21
-8.95714
0
LINE
8
Black
10
8.42857
20
-8.95714
11
8.28571
21
-9.1
0
LINE
8
Black
10
8.28571
20
-9.1
11
8
21
-9.24286
0
LINE
8
Black
10
8
20
-9.24286
11
7.42857
21
-9.24286
0
LINE
8
Black
10
7.42857
20
-9.24286
11
7.14286
21
-9.38571
0
LINE
8
Black
10
7.14286
20
-9.38571
11
7
21
-9.52857
0
LINE
8
Black
10
7
20
-9.52857
11
6.85714
21
-9.81429
0
LINE
8
Black
10
6.85714
20
-9.81429
11
6.85714
21
-10.3857
0
LINE
8
Black
10
6.85714
20
-10.3857
11
7
21
-10.6714
0
LINE
8
Black
10
7
20
-10.6714
11
7.14286
21
-10.8143
0
LINE
8
Black
10
7.14286
20
-10.8143
11
7.42857
21
-10.9571
0
LINE
8
Black
10
7.42857
20
-10.9571
11
8
21
-10.9571
0
LINE
8
Black
10
8
20
-10.9571
11
8.28571
21
-10.8143
0
LINE
8
Black
10
8.28571
20
-10.8143
11
8.42857
21
-10.6714
0
LINE
8
Black
10
8.42857
20
-10.6714
11
8.57143
21
-10.3857
0
LINE
8
Black
10
8.57143
20
-10.3857
11
8.57143
21
-9.81429
0
LINE
8
Black
10
8.57143
20
-9.81429
11
8.42857
21
-9.52857
0
LINE
8
Black
10
8.42857
20
-9.52857
11
8.28571
21
-9.38571
0
LINE
8
Black
10
8.28571
20
-9.38571
11
8
21
-9.24286
0
LINE
8
Black
10
10.4286
20
-7.95714
11
10.7143
21
-7.95714
0
LINE
8
Black
10
10.7143
20
-7.95714
11
11
21
-8.1
0
LINE
8
Black
10
11
20
-8.1
11
11.1429
21
-8.24286
0
LINE
8
Black
10
11.1429
20
-8.24286
11
11.2857
21
-8.52857
0
LINE
8
Black
10
11.2857
20
-8.52857
11
11.4286
21
-9.1
0
LINE
8
Black
10
11.4286
20
-9.1
11
11.4286
21
-9.81429
0
LINE
8
Black
10
11.4286
20
-9.81429
11
11.2857
21
-10.3857
0
LINE
8
Black
10
11.2857
20
-10.3857
11
11.1429
21
-10.6714
0
LINE
8
Black
10
11.1429
20
-10.6714
11
11
21
-10.8143
0
LINE
8
Black
10
11
20
-10.8143
11
10.7143
21
-10.9571
0
LINE
8
Black
10
10.7143
20
-10.9571
11
10.4286
21
-10.9571
0
LINE
8
Black
10
10.4286
20
-10.9571
11
10.1429
21
-10.8143
0
LINE
8
Black
10
10.1429
20
-10.8143
11
10
21
-10.6714
0
LINE
8
Black
10
10
20
-10.6714
11
9.85714
21
-10.3857
0
LINE
8
Black
10
9.85714
20
-10.3857
11
9.71429
21
-9.81429
0
LINE
8
Black
10
9.71429
20
-9.81429
11
9.71429
21
-9.1
0
LINE
8
Black
10
9.71429
20
-9.1
11
9.85714
21
-8.52857
0
LINE
8
Black
10
9.85714
20
-8.52857
11
10
21
-8.24286
0
LINE
8
Black
10
10
20
-8.24286
11
10.1429
21
-8.1
0
LINE
8
Black
10
10.1429
20
-8.1
11
10.4286
21
-7.95714
0
LINE
8
Black
10
12.7143
20
-10.9571
11
12.7143
21
-8.95714
0
LINE
8
Black
10
12.7143
20
-9.24286
11
12.8571
21
-9.1
0
LINE
8
Black
10
12.8571
20
-9.1
11
13.1429
21
-8.95714
0
LINE
8
Black
10
13.1429
20
-8.95714
11
13.5714
21
-8.95714
0
LINE
8
Black
10
13.5714
20
-8.95714
11
13.8571
21
-9.1
0
LINE
8
Black
10
13.8571
20
-9.1
11
14
21
-9.38571
0
LINE
8
Black
10
14
20
-9.38571
11
14
21
-10.9571
0
LINE
8
Black
10
14
20
-9.38571
11
14.1429
21
-9.1
0
LINE
8
Black
10
14.1429
20
-9.1
11
14.4286
21
-8.95714
0
LINE
8
Black
10
14.4286
20
-8.95714
11
14.8571
21
-8.95714
0
LINE
8
Black
10
14.8571
20
-8.95714
11
15.1429
21
-9.1
0
LINE
8
Black
10
15.1429
20
-9.1
11
15.2857
21
-9.38571
0
LINE
8
Black
10
15.2857
20
-9.38571
11
15.2857
21
-10.9571
0
LINE
8
Black
10
16.7143
20
-10.9571
11
16.7143
21
-8.95714
0
LINE
8
Black
10
16.7143
20
-9.24286
11
16.8571
21
-9.1
0
LINE
8
Black
10
16.8571
20
-9.1
11
17.1429
21
-8.95714
0
LINE
8
Black
10
17.1429
20
-8.95714
11
17.5714
21
-8.95714
0
LINE
8
Black
10
17.5714
20
-8.95714
11
17.8571
21
-9.1
0
LINE
8
Black
10
17.8571
20
-9.1
11
18
21
-9.38571
0
LINE
8
Black
10
18
20
-9.38571
11
18
21
-10.9571
0
LINE
8
Black
10
18
20
-9.38571
11
18.1429
21
-9.1
0
LINE
8
Black
10
18.1429
20
-9.1
11
18.4286
21
-8.95714
0
LINE
8
Black
10
18.4286
20
-8.95714
11
18.8571
21
-8.95714
0
LINE
8
Black
10
18.8571
20
-8.95714
11
19.1429
21
-9.1
0
LINE
8
Black
10
19.1429
20
-9.1
11
19.2857
21
-9.38571
0
LINE
8
Black
10
19.2857
20
-9.38571
11
19.2857
21
-10.9571
0
LINE
8
Black
10
25.1429
20
-7.81429
11
22.5714
21
-11.6714
0
LINE
8
Black
10
29
20
-7.95714
11
29.2857
21
-7.95714
0
LINE
8
Black
10
29.2857
20
-7.95714
11
29.5714
21
-8.1
0
LINE
8
Black
10
29.5714
20
-8.1
11
29.7143
21
-8.24286
0
LINE
8
Black
10
29.7143
20
-8.24286
11
29.8571
21
-8.52857
0
LINE
8
Black
10
29.8571
20
-8.52857
11
30
21
-9.1
0
LINE
8
Black
10
30
20
-9.1
11
30
21
-9.81429
0
LINE
8
Black
10
30
20
-9.81429
11
29.8571
21
-10.3857
0
LINE
8
Black
10
29.8571
20
-10.3857
11
29.7143
21
-10.6714
0
LINE
8
Black
10
29.7143
20
-10.6714
11
29.5714
21
-10.8143
0
LINE
8
Black
10
29.5714
20
-10.8143
11
29.2857
21
-10.9571
0
LINE
8
Black
10
29.2857
20
-10.9571
11
29
21
-10.9571
0
LINE
8
Black
10
29
20
-10.9571
11
28.7143
21
-10.8143
0
LINE
8
Black
10
28.7143
20
-10.8143
11
28.5714
21
-10.6714
0
LINE
8
Black
10
28.5714
20
-10.6714
11
28.4286
21
-10.3857
0
LINE
8
Black
10
28.4286
20
-10.3857
11
28.2857
21
-9.81429
0
LINE
8
Black
10
28.2857
20
-9.81429
11
28.2857
21
-9.1
0
LINE
8
Black
10
28.2857
20
-9.1
11
28.4286
21
-8.52857
0
LINE
8
Black
10
28.4286
20
-8.52857
11
28.5714
21
-8.24286
0
LINE
8
Black
10
28.5714
20
-8.24286
11
28.7143
21
-8.1
0
LINE
8
Black
10
28.7143
20
-8.1
11
29
21
-7.95714
0
LINE
8
Black
10
31.2857
20
-10.6714
11
31.4286
21
-10.8143
0
LINE
8
Black
10
31.4286
20
-10.8143
11
31.2857
21
-10.9571
0
LINE
8
Black
10
31.2857
20
-10.9571
11
31.1429
21
-10.8143
0
LINE
8
Black
10
31.1429
20
-10.8143
11
31.2857
21
-10.6714
0
LINE
8
Black
10
31.2857
20
-10.6714
11
31.2857
21
-10.9571
0
LINE
8
Black
10
33.2857
20
-7.95714
11
33.5714
21
-7.95714
0
LINE
8
Black
10
33.5714
20
-7.95714
11
33.8571
21
-8.1
0
LINE
8
Black
10
33.8571
20
-8.1
11
34
21
-8.24286
0
LINE
8
Black
10
34
20
-8.24286
11
34.1429
21
-8.52857
0
LINE
8
Black
10
34.1429
20
-8.52857
11
34.2857
21
-9.1
0
LINE
8
Black
10
34.2857
20
-9.1
11
34.2857
21
-9.81429
0
LINE
8
Black
10
34.2857
20
-9.81429
11
34.1429
21
-10.3857
0
LINE
8
Black
10
34.1429
20
-10.3857
11
34
21
-10.6714
0
LINE
8
Black
10
34
20
-10.6714
11
33.8571
21
-10.8143
0
LINE
8
Black
10
33.8571
20
-10.8143
11
33.5714
21
-10.9571
0
LINE
8
Black
10
33.5714
20
-10.9571
11
33.2857
21
-10.9571
0
LINE
8
Black
10
33.2857
20
-10.9571
11
33
21
-10.8143
0
LINE
8
Black
10
33
20
-10.8143
11
32.8571
21
-10.6714
0
LINE
8
Black
10
32.8571
20
-10.6714
11
32.7143
21
-10.3857
0
LINE
8
Black
10
32.7143
20
-10.3857
11
32.5714
21
-9.81429
0
LINE
8
Black
10
32.5714
20
-9.81429
11
32.5714
21
-9.1
0
LINE
8
Black
10
32.5714
20
-9.1
11
32.7143
21
-8.52857
0
LINE
8
Black
10
32.7143
20
-8.52857
11
32.8571
21
-8.24286
0
LINE
8
Black
10
32.8571
20
-8.24286
11
33
21
-8.1
0
LINE
8
Black
10
33
20
-8.1
11
33.2857
21
-7.95714
0
LINE
8
Black
10
35.2857
20
-7.95714
11
37.1429
21
-7.95714
0
LINE
8
Black
10
37.1429
20
-7.95714
11
36.1429
21
-9.1
0
LINE
8
Black
10
36.1429
20
-9.1
11
36.5714
21
-9.1
0
LINE
8
Black
10
36.5714
20
-9.1
11
36.8571
21
-9.24286
0
LINE
8
Black
10
36.8571
20
-9.24286
11
37
21
-9.38571
0
LINE
8
Black
10
37
20
-9.38571
11
37.1429
21
-9.67143
0
LINE
8
Black
10
37.1429
20
-9.67143
11
37.1429
21
-10.3857
0
LINE
8
Black
10
37.1429
20
-10.3857
11
37
21
-10.6714
0
LINE
8
Black
10
37
20
-10.6714
11
36.8571
21
-10.8143
0
LINE
8
Black
10
36.8571
20
-10.8143
11
36.5714
21
-10.9571
0
LINE
8
Black
10
36.5714
20
-10.9571
11
35.7143
21
-10.9571
0
LINE
8
Black
10
35.7143
20
-10.9571
11
35.4286
21
-10.8143
0
LINE
8
Black
10
35.4286
20
-10.8143
11
35.2857
21
-10.6714
0
LINE
8
Black
10
40
20
-10.9571
11
38.2857
21
-10.9571
0
LINE
8
Black
10
39.1429
20
-10.9571
11
39.1429
21
-7.95714
0
LINE
8
Black
10
39.1429
20
-7.95714
11
38.8571
21
-8.38571
0
LINE
8
Black
10
38.8571
20
-8.38571
11
38.5714
21
-8.67143
0
LINE
8
Black
10
38.5714
20
-8.67143
11
38.2857
21
-8.81429
0
LINE
8
Black
10
41.1429
20
-7.95714
11
41.1429
21
-8.52857
0
LINE
8
Black
10
42.2857
20
-7.95714
11
42.2857
21
-8.52857
0
LINE
8
Black
10
46.7143
20
-12.1
11
46.5714
21
-11.9571
0
LINE
8
Black
10
46.5714
20
-11.9571
11
46.2857
21
-11.5286
0
LINE
8
Black
10
46.2857
20
-11.5286
11
46.1429
21
-11.2429
0
LINE
8
Black
10
46.1429
20
-11.2429
11
46
21
-10.8143
0
LINE
8
Black
10
46
20
-10.8143
11
45.8571
21
-10.1
0
LINE
8
Black
10
45.8571
20
-10.1
11
45.8571
21
-9.52857
0
LINE
8
Black
10
45.8571
20
-9.52857
11
46
21
-8.81429
0
LINE
8
Black
10
46
20
-8.81429
11
46.1429
21
-8.38571
0
LINE
8
Black
10
46.1429
20
-8.38571
11
46.2857
21
-8.1
0
LINE
8
Black
10
46.2857
20
-8.1
11
46.5714
21
-7.67143
0
LINE
8
Black
10
46.5714
20
-7.67143
11
46.7143
21
-7.52857
0
LINE
8
Black
10
47.7143
20
-8.24286
11
47.8571
21
-8.1
0
LINE
8
Black
10
47.8571
20
-8.1
11
48.1429
21
-7.95714
0
LINE
8
Black
10
48.1429
20
-7.95714
11
48.8571
21
-7.95714
0
LINE
8
Black
10
48.8571
20
-7.95714
11
49.1429
21
-8.1
0
LINE
8
Black
10
49.1429
20
-8.1
11
49.2857
21
-8.24286
0
LINE
8
Black
10
49.2857
20
-8.24286
11
49.4286
21
-8.52857
0
LINE
8
Black
10
49.4286
20
-8.52857
11
49.4286
21
-8.81429
0
LINE
8
Black
10
49.4286
20
-8.81429
11
49.2857
21
-9.24286
0
LINE
8
Black
10
49.2857
20
-9.24286
11
47.5714
21
-10.9571
0
LINE
8
Black
10
47.5714
20
-10.9571
11
49.4286
21
-10.9571
0
LINE
8
Black
10
53
20
-10.9571
11
53
21
-7.95714
0
LINE
8
Black
10
54.2857
20
-10.9571
11
54.2857
21
-9.38571
0
LINE
8
Black
10
54.2857
20
-9.38571
11
54.1429
21
-9.1
0
LINE
8
Black
10
54.1429
20
-9.1
11
53.8571
21
-8.95714
0
LINE
8
Black
10
53.8571
20
-8.95714
11
53.4286
21
-8.95714
0
LINE
8
Black
10
53.4286
20
-8.95714
11
53.1429
21
-9.1
0
LINE
8
Black
10
53.1429
20
-9.1
11
53
21
-9.24286
0
LINE
8
Black
10
56.1429
20
-10.9571
11
55.8571
21
-10.8143
0
LINE
8
Black
10
55.8571
20
-10.8143
11
55.7143
21
-10.6714
0
LINE
8
Black
10
55.7143
20
-10.6714
11
55.5714
21
-10.3857
0
LINE
8
Black
10
55.5714
20
-10.3857
11
55.5714
21
-9.52857
0
LINE
8
Black
10
55.5714
20
-9.52857
11
55.7143
21
-9.24286
0
LINE
8
Black
10
55.7143
20
-9.24286
11
55.8571
21
-9.1
0
LINE
8
Black
10
55.8571
20
-9.1
11
56.1429
21
-8.95714
0
LINE
8
Black
10
56.1429
20
-8.95714
11
56.5714
21
-8.95714
0
LINE
8
Black
10
56.5714
20
-8.95714
11
56.8571
21
-9.1
0
LINE
8
Black
10
56.8571
20
-9.1
11
57
21
-9.24286
0
LINE
8
Black
10
57
20
-9.24286
11
57.1429
21
-9.52857
0
LINE
8
Black
10
57.1429
20
-9.52857
11
57.1429
21
-10.3857
0
LINE
8
Black
10
57.1429
20
-10.3857
11
57
21
-10.6714
0
LINE
8
Black
10
57
20
-10.6714
11
56.8571
21
-10.8143
0
LINE
8
Black
10
56.8571
20
-10.8143
11
56.5714
21
-10.9571
0
LINE
8
Black
10
56.5714
20
-10.9571
11
56.1429
21
-10.9571
0
LINE
8
Black
10
58.8571
20
-10.9571
11
58.5714
21
-10.8143
0
LINE
8
Black
10
58.5714
20
-10.8143
11
58.4286
21
-10.5286
0
LINE
8
Black
10
58.4286
20
-10.5286
11
58.4286
21
-7.95714
0
LINE
8
Black
10
61.1429
20
-10.8143
11
60.8571
21
-10.9571
0
LINE
8
Black
10
60.8571
20
-10.9571
11
60.2857
21
-10.9571
0
LINE
8
Black
10
60.2857
20
-10.9571
11
60
21
-10.8143
0
LINE
8
Black
10
60
20
-10.8143
11
59.8571
21
-10.5286
0
LINE
8
Black
10
59.8571
20
-10.5286
11
59.8571
21
-9.38571
0
LINE
8
Black
10
59.8571
20
-9.38571
11
60
21
-9.1
0
LINE
8
Black
10
60
20
-9.1
11
60.2857
21
-8.95714
0
LINE
8
Black
10
60.2857
20
-8.95714
11
60.8571
21
-8.95714
0
LINE
8
Black
10
60.8571
20
-8.95714
11
61.1429
21
-9.1
0
LINE
8
Black
10
61.1429
20
-9.1
11
61.2857
21
-9.38571
0
LINE
8
Black
10
61.2857
20
-9.38571
11
61.2857
21
-9.67143
0
LINE
8
Black
10
61.2857
20
-9.67143
11
59.8571
21
-9.95714
0
LINE
8
Black
10
62.4286
20
-10.8143
11
62.7143
21
-10.9571
0
LINE
8
Black
10
62.7143
20
-10.9571
11
63.2857
21
-10.9571
0
LINE
8
Black
10
63.2857
20
-10.9571
11
63.5714
21
-10.8143
0
LINE
8
Black
10
63.5714
20
-10.8143
11
63.7143
21
-10.5286
0
LINE
8
Black
10
63.7143
20
-10.5286
11
63.7143
21
-10.3857
0
LINE
8
Black
10
63.7143
20
-10.3857
11
63.5714
21
-10.1
0
LINE
8
Black
10
63.5714
20
-10.1
11
63.2857
21
-9.95714
0
LINE
8
Black
10
63.2857
20
-9.95714
11
62.8571
21
-9.95714
0
LINE
8
Black
10
62.8571
20
-9.95714
11
62.5714
21
-9.81429
0
LINE
8
Black
10
62.5714
20
-9.81429
11
62.4286
21
-9.52857
0
LINE
8
Black
10
62.4286
20
-9.52857
11
62.4286
21
-9.38571
0
LINE
8
Black
10
62.4286
20
-9.38571
11
62.5714
21
-9.1
0
LINE
8
Black
10
62.5714
20
-9.1
11
62.8571
21
-8.95714
0
LINE
8
Black
10
62.8571
20
-8.95714
11
63.2857
21
-8.95714
0
LINE
8
Black
10
63.2857
20
-8.95714
11
63.5714
21
-9.1
0
LINE
8
Black
10
64.7143
20
-12.1
11
64.8571
21
-11.9571
0
LINE
8
Black
10
64.8571
20
-11.9571
11
65.1429
21
-11.5286
0
LINE
8
Black
10
65.1429
20
-11.5286
11
65.2857
21
-11.2429
0
LINE
8
Black
10
65.2857
20
-11.2429
11
65.4286
21
-10.8143
0
LINE
8
Black
10
65.4286
20
-10.8143
11
65.5714
21
-10.1
0
LINE
8
Black
10
65.5714
20
-10.1
11
65.5714
21
-9.52857
0
LINE
8
Black
10
65.5714
20
-9.52857
11
65.4286
21
-8.81429
0
LINE
8
Black
10
65.4286
20
-8.81429
11
65.2857
21
-8.38571
0
LINE
8
Black
10
65.2857
20
-8.38571
11
65.1429
21
-8.1
0
LINE
8
Black
10
65.1429
20
-8.1
11
64.8571
21
-7.67143
0
LINE
8
Black
10
64.8571
20
-7.67143
11
64.7143
21
-7.52857
0
CIRCLE
8
Black
10
-0.50038
20
-13.56
40
0.50038
0
LINE
8
Black
10
4.28571
20
-14.9171
11
2.57143
21
-14.9171
0
LINE
8
Black
10
3.42857
20
-14.9171
11
3.42857
21
-11.9171
0
LINE
8
Black
10
3.42857
20
-11.9171
11
3.14286
21
-12.3457
0
LINE
8
Black
10
3.14286
20
-12.3457
11
2.85714
21
-12.6314
0
LINE
8
Black
10
2.85714
20
-12.6314
11
2.57143
21
-12.7743
0
LINE
8
Black
10
5.57143
20
-14.6314
11
5.71429
21
-14.7743
0
LINE
8
Black
10
5.71429
20
-14.7743
11
5.57143
21
-14.9171
0
LINE
8
Black
10
5.57143
20
-14.9171
11
5.42857
21
-14.7743
0
LINE
8
Black
10
5.42857
20
-14.7743
11
5.57143
21
-14.6314
0
LINE
8
Black
10
5.57143
20
-14.6314
11
5.57143
21
-14.9171
0
LINE
8
Black
10
7.57143
20
-11.9171
11
7.85714
21
-11.9171
0
LINE
8
Black
10
7.85714
20
-11.9171
11
8.14286
21
-12.06
0
LINE
8
Black
10
8.14286
20
-12.06
11
8.28571
21
-12.2029
0
LINE
8
Black
10
8.28571
20
-12.2029
11
8.42857
21
-12.4886
0
LINE
8
Black
10
8.42857
20
-12.4886
11
8.57143
21
-13.06
0
LINE
8
Black
10
8.57143
20
-13.06
11
8.57143
21
-13.7743
0
LINE
8
Black
10
8.57143
20
-13.7743
11
8.42857
21
-14.3457
0
LINE
8
Black
10
8.42857
20
-14.3457
11
8.28571
21
-14.6314
0
LINE
8
Black
10
8.28571
20
-14.6314
11
8.14286
21
-14.7743
0
LINE
8
Black
10
8.14286
20
-14.7743
11
7.85714
21
-14.9171
0
LINE
8
Black
10
7.85714
20
-14.9171
11
7.57143
21
-14.9171
0
LINE
8
Black
10
7.57143
20
-14.9171
11
7.28571
21
-14.7743
0
LINE
8
Black
10
7.28571
20
-14.7743
11
7.14286
21
-14.6314
0
LINE
8
Black
10
7.14286
20
-14.6314
11
7
21
-14.3457
0
LINE
8
Black
10
7
20
-14.3457
11
6.85714
21
-13.7743
0
LINE
8
Black
10
6.85714
20
-13.7743
11
6.85714
21
-13.06
0
LINE
8
Black
10
6.85714
20
-13.06
11
7
21
-12.4886
0
LINE
8
Black
10
7
20
-12.4886
11
7.14286
21
-12.2029
0
LINE
8
Black
10
7.14286
20
-12.2029
11
7.28571
21
-12.06
0
LINE
8
Black
10
7.28571
20
-12.06
11
7.57143
21
-11.9171
0
LINE
8
Black
10
10.4286
20
-11.9171
11
10.7143
21
-11.9171
0
LINE
8
Black
10
10.7143
20
-11.9171
11
11
21
-12.06
0
LINE
8
Black
10
11
20
-12.06
11
11.1429
21
-12.2029
0
LINE
8
Black
10
11.1429
20
-12.2029
11
11.2857
21
-12.4886
0
LINE
8
Black
10
11.2857
20
-12.4886
11
11.4286
21
-13.06
0
LINE
8
Black
10
11.4286
20
-13.06
11
11.4286
21
-13.7743
0
LINE
8
Black
10
11.4286
20
-13.7743
11
11.2857
21
-14.3457
0
LINE
8
Black
10
11.2857
20
-14.3457
11
11.1429
21
-14.6314
0
LINE
8
Black
10
11.1429
20
-14.6314
11
11
21
-14.7743
0
LINE
8
Black
10
11
20
-14.7743
11
10.7143
21
-14.9171
0
LINE
8
Black
10
10.7143
20
-14.9171
11
10.4286
21
-14.9171
0
LINE
8
Black
10
10.4286
20
-14.9171
11
10.1429
21
-14.7743
0
LINE
8
Black
10
10.1429
20
-14.7743
11
10
21
-14.6314
0
LINE
8
Black
10
10
20
-14.6314
11
9.85714
21
-14.3457
0
LINE
8
Black
10
9.85714
20
-14.3457
11
9.71429
21
-13.7743
0
LINE
8
Black
10
9.71429
20
-13.7743
11
9.71429
21
-13.06
0
LINE
8
Black
10
9.71429
20
-13.06
11
9.85714
21
-12.4886
0
LINE
8
Black
10
9.85714
20
-12.4886
11
10
21
-12.2029
0
LINE
8
Black
10
10
20
-12.2029
11
10.1429
21
-12.06
0
LINE
8
Black
10
10.1429
20
-12.06
11
10.4286
21
-11.9171
0
LINE
8
Black
10
12.7143
20
-14.9171
11
12.7143
21
-12.9171
0
LINE
8
Black
10
12.7143
20
-13.2029
11
12.8571
21
-13.06
0
LINE
8
Black
10
12.8571
20
-13.06
11
13.1429
21
-12.9171
0
LINE
8
Black
10
13.1429
20
-12.9171
11
13.5714
21
-12.9171
0
LINE
8
Black
10
13.5714
20
-12.9171
11
13.8571
21
-13.06
0
LINE
8
Black
10
13.8571
20
-13.06
11
14
21
-13.3457
0
LINE
8
Black
10
14
20
-13.3457
11
14
21
-14.9171
0
LINE
8
Black
10
14
20
-13.3457
11
14.1429
21
-13.06
0
LINE
8
Black
10
14.1429
20
-13.06
11
14.4286
21
-12.9171
0
LINE
8
Black
10
14.4286
20
-12.9171
11
14.8571
21
-12.9171
0
LINE
8
Black
10
14.8571
20
-12.9171
11
15.1429
21
-13.06
0
LINE
8
Black
10
15.1429
20
-13.06
11
15.2857
21
-13.3457
0
LINE
8
Black
10
15.2857
20
-13.3457
11
15.2857
21
-14.9171
0
LINE
8
Black
10
16.7143
20
-14.9171
11
16.7143
21
-12.9171
0
LINE
8
Black
10
16.7143
20
-13.2029
11
16.8571
21
-13.06
0
LINE
8
Black
10
16.8571
20
-13.06
11
17.1429
21
-12.9171
0
LINE
8
Black
10
17.1429
20
-12.9171
11
17.5714
21
-12.9171
0
LINE
8
Black
10
17.5714
20
-12.9171
11
17.8571
21
-13.06
0
LINE
8
Black
10
17.8571
20
-13.06
11
18
21
-13.3457
0
LINE
8
Black
10
18
20
-13.3457
11
18
21
-14.9171
0
LINE
8
Black
10
18
20
-13.3457
11
18.1429
21
-13.06
0
LINE
8
Black
10
18.1429
20
-13.06
11
18.4286
21
-12.9171
0
LINE
8
Black
10
18.4286
20
-12.9171
11
18.8571
21
-12.9171
0
LINE
8
Black
10
18.8571
20
-12.9171
11
19.1429
21
-13.06
0
LINE
8
Black
10
19.1429
20
-13.06
11
19.2857
21
-13.3457
0
LINE
8
Black
10
19.2857
20
-13.3457
11
19.2857
21
-14.9171
0
LINE
8
Black
10
25.1429
20
-11.7743
11
22.5714
21
-15.6314
0
LINE
8
Black
10
29
20
-11.9171
11
29.2857
21
-11.9171
0
LINE
8
Black
10
29.2857
20
-11.9171
11
29.5714
21
-12.06
0
LINE
8
Black
10
29.5714
20
-12.06
11
29.7143
21
-12.2029
0
LINE
8
Black
10
29.7143
20
-12.2029
11
29.8571
21
-12.4886
0
LINE
8
Black
10
29.8571
20
-12.4886
11
30
21
-13.06
0
LINE
8
Black
10
30
20
-13.06
11
30
21
-13.7743
0
LINE
8
Black
10
30
20
-13.7743
11
29.8571
21
-14.3457
0
LINE
8
Black
10
29.8571
20
-14.3457
11
29.7143
21
-14.6314
0
LINE
8
Black
10
29.7143
20
-14.6314
11
29.5714
21
-14.7743
0
LINE
8
Black
10
29.5714
20
-14.7743
11
29.2857
21
-14.9171
0
LINE
8
Black
10
29.2857
20
-14.9171
11
29
21
-14.9171
0
LINE
8
Black
10
29
20
-14.9171
11
28.7143
21
-14.7743
0
LINE
8
Black
10
28.7143
20
-14.7743
11
28.5714
21
-14.6314
0
LINE
8
Black
10
28.5714
20
-14.6314
11
28.4286
21
-14.3457
0
LINE
8
Black
10
28.4286
20
-14.3457
11
28.2857
21
-13.7743
0
LINE
8
Black
10
28.2857
20
-13.7743
11
28.2857
21
-13.06
0
LINE
8
Black
10
28.2857
20
-13.06
11
28.4286
21
-12.4886
0
LINE
8
Black
10
28.4286
20
-12.4886
11
28.5714
21
-12.2029
0
LINE
8
Black
10
28.5714
20
-12.2029
11
28.7143
21
-12.06
0
LINE
8
Black
10
28.7143
20
-12.06
11
29
21
-11.9171
0
LINE
8
Black
10
31.2857
20
-14.6314
11
31.4286
21
-14.7743
0
LINE
8
Black
10
31.4286
20
-14.7743
11
31.2857
21
-14.9171
0
LINE
8
Black
10
31.2857
20
-14.9171
11
31.1429
21
-14.7743
0
LINE
8
Black
10
31.1429
20
-14.7743
11
31.2857
21
-14.6314
0
LINE
8
Black
10
31.2857
20
-14.6314
11
31.2857
21
-14.9171
0
LINE
8
Black
10
33.2857
20
-11.9171
11
33.5714
21
-11.9171
0
LINE
8
Black
10
33.5714
20
-11.9171
11
33.8571
21
-12.06
0
LINE
8
Black
10
33.8571
20
-12.06
11
34
21
-12.2029
0
LINE
8
Black
10
34
20
-12.2029
11
34.1429
21
-12.4886
0
LINE
8
Black
10
34.1429
20
-12.4886
11
34.2857
21
-13.06
0
LINE
8
Black
10
34.2857
20
-13.06
11
34.2857
21
-13.7743
0
LINE
8
Black
10
34.2857
20
-13.7743
11
34.1429
21
-14.3457
0
LINE
8
Black
10
34.1429
20
-14.3457
11
34
21
-14.6314
0
LINE
8
Black
10
34
20
-14.6314
11
33.8571
21
-14.7743
0
LINE
8
Black
10
33.8571
20
-14.7743
11
33.5714
21
-14.9171
0
LINE
8
Black
10
33.5714
20
-14.9171
11
33.2857
21
-14.9171
0
LINE
8
Black
10
33.2857
20
-14.9171
11
33
21
-14.7743
0
LINE
8
Black
10
33
20
-14.7743
11
32.8571
21
-14.6314
0
LINE
8
Black
10
32.8571
20
-14.6314
11
32.7143
21
-14.3457
0
LINE
8
Black
10
32.7143
20
-14.3457
11
32.5714
21
-13.7743
0
LINE
8
Black
10
32.5714
20
-13.7743
11
32.5714
21
-13.06
0
LINE
8
Black
10
32.5714
20
-13.06
11
32.7143
21
-12.4886
0
LINE
8
Black
10
32.7143
20
-12.4886
11
32.8571
21
-12.2029
0
LINE
8
Black
10
32.8571
20
-12.2029
11
33
21
-12.06
0
LINE
8
Black
10
33
20
-12.06
11
33.2857
21
-11.9171
0
LINE
8
Black
10
35.2857
20
-11.9171
11
37.1429
21
-11.9171
0
LINE
8
Black
10
37.1429
20
-11.9171
11
36.1429
21
-13.06
0
LINE
8
Black
10
36.1429
20
-13.06
11
36.5714
21
-13.06
0
LINE
8
Black
10
36.5714
20
-13.06
11
36.8571
21
-13.2029
0
LINE
8
Black
10
36.8571
20
-13.2029
11
37
21
-13.3457
0
LINE
8
Black
10
37
20
-13.3457
11
37.1429
21
-13.6314
0
LINE
8
Black
10
37.1429
20
-13.6314
11
37.1429
21
-14.3457
0
LINE
8
Black
10
37.1429
20
-14.3457
11
37
21
-14.6314
0
LINE
8
Black
10
37
20
-14.6314
11
36.8571
21
-14.7743
0
LINE
8
Black
10
36.8571
20
-14.7743
11
36.5714
21
-14.9171
0
LINE
8
Black
10
36.5714
20
-14.9171
11
35.7143
21
-14.9171
0
LINE
8
Black
10
35.7143
20
-14.9171
11
35.4286
21
-14.7743
0
LINE
8
Black
10
35.4286
20
-14.7743
11
35.2857
21
-14.6314
0
LINE
8
Black
10
38.5714
20
-14.9171
11
39.1429
21
-14.9171
0
LINE
8
Black
10
39.1429
20
-14.9171
11
39.4286
21
-14.7743
0
LINE
8
Black
10
39.4286
20
-14.7743
11
39.5714
21
-14.6314
0
LINE
8
Black
10
39.5714
20
-14.6314
11
39.8571
21
-14.2029
0
LINE
8
Black
10
39.8571
20
-14.2029
11
40
21
-13.6314
0
LINE
8
Black
10
40
20
-13.6314
11
40
21
-12.4886
0
LINE
8
Black
10
40
20
-12.4886
11
39.8571
21
-12.2029
0
LINE
8
Black
10
39.8571
20
-12.2029
11
39.7143
21
-12.06
0
LINE
8
Black
10
39.7143
20
-12.06
11
39.4286
21
-11.9171
0
LINE
8
Black
10
39.4286
20
-11.9171
11
38.8571
21
-11.9171
0
LINE
8
Black
10
38.8571
20
-11.9171
11
38.5714
21
-12.06
0
LINE
8
Black
10
38.5714
20
-12.06
11
38.4286
21
-12.2029
0
LINE
8
Black
10
38.4286
20
-12.2029
11
38.2857
21
-12.4886
0
LINE
8
Black
10
38.2857
20
-12.4886
11
38.2857
21
-13.2029
0
LINE
8
Black
10
38.2857
20
-13.2029
11
38.4286
21
-13.4886
0
LINE
8
Black
10
38.4286
20
-13.4886
11
38.5714
21
-13.6314
0
LINE
8
Black
10
38.5714
20
-13.6314
11
38.8571
21
-13.7743
0
LINE
8
Black
10
38.8571
20
-13.7743
11
39.4286
21
-13.7743
0
LINE
8
Black
10
39.4286
20
-13.7743
11
39.7143
21
-13.6314
0
LINE
8
Black
10
39.7143
20
-13.6314
11
39.8571
21
-13.4886
0
LINE
8
Black
10
39.8571
20
-13.4886
11
40
21
-13.2029
0
LINE
8
Black
10
41.1429
20
-11.9171
11
41.1429
21
-12.4886
0
LINE
8
Black
10
42.2857
20
-11.9171
11
42.2857
21
-12.4886
0
LINE
8
Black
10
46.7143
20
-16.06
11
46.5714
21
-15.9171
0
LINE
8
Black
10
46.5714
20
-15.9171
11
46.2857
21
-15.4886
0
LINE
8
Black
10
46.2857
20
-15.4886
11
46.1429
21
-15.2029
0
LINE
8
Black
10
46.1429
20
-15.2029
11
46
21
-14.7743
0
LINE
8
Black
10
46
20
-14.7743
11
45.8571
21
-14.06
0
LINE
8
Black
10
45.8571
20
-14.06
11
45.8571
21
-13.4886
0
LINE
8
Black
10
45.8571
20
-13.4886
11
46
21
-12.7743
0
LINE
8
Black
10
46
20
-12.7743
11
46.1429
21
-12.3457
0
LINE
8
Black
10
46.1429
20
-12.3457
11
46.2857
21
-12.06
0
LINE
8
Black
10
46.2857
20
-12.06
11
46.5714
21
-11.6314
0
LINE
8
Black
10
46.5714
20
-11.6314
11
46.7143
21
-11.4886
0
LINE
8
Black
10
49.1429
20
-12.9171
11
49.1429
21
-14.9171
0
LINE
8
Black
10
48.4286
20
-11.7743
11
47.7143
21
-13.9171
0
LINE
8
Black
10
47.7143
20
-13.9171
11
49.5714
21
-13.9171
0
LINE
8
Black
10
53
20
-14.9171
11
53
21
-11.9171
0
LINE
8
Black
10
54.2857
20
-14.9171
11
54.2857
21
-13.3457
0
LINE
8
Black
10
54.2857
20
-13.3457
11
54.1429
21
-13.06
0
LINE
8
Black
10
54.1429
20
-13.06
11
53.8571
21
-12.9171
0
LINE
8
Black
10
53.8571
20
-12.9171
11
53.4286
21
-12.9171
0
LINE
8
Black
10
53.4286
20
-12.9171
11
53.1429
21
-13.06
0
LINE
8
Black
10
53.1429
20
-13.06
11
53
21
-13.2029
0
LINE
8
Black
10
56.1429
20
-14.9171
11
55.8571
21
-14.7743
0
LINE
8
Black
10
55.8571
20
-14.7743
11
55.7143
21
-14.6314
0
LINE
8
Black
10
55.7143
20
-14.6314
11
55.5714
21
-14.3457
0
LINE
8
Black
10
55.5714
20
-14.3457
11
55.5714
21
-13.4886
0
LINE
8
Black
10
55.5714
20
-13.4886
11
55.7143
21
-13.2029
0
LINE
8
Black
10
55.7143
20
-13.2029
11
55.8571
21
-13.06
0
LINE
8
Black
10
55.8571
20
-13.06
11
56.1429
21
-12.9171
0
LINE
8
Black
10
56.1429
20
-12.9171
11
56.5714
21
-12.9171
0
LINE
8
Black
10
56.5714
20
-12.9171
11
56.8571
21
-13.06
0
LINE
8
Black
10
56.8571
20
-13.06
11
57
21
-13.2029
0
LINE
8
Black
10
57
20
-13.2029
11
57.1429
21
-13.4886
0
LINE
8
Black
10
57.1429
20
-13.4886
11
57.1429
21
-14.3457
0
LINE
8
Black
10
57.1429
20
-14.3457
11
57
21
-14.6314
0
LINE
8
Black
10
57
20
-14.6314
11
56.8571
21
-14.7743
0
LINE
8
Black
10
56.8571
20
-14.7743
11
56.5714
21
-14.9171
0
LINE
8
Black
10
56.5714
20
-14.9171
11
56.1429
21
-14.9171
0
LINE
8
Black
10
58.8571
20
-14.9171
11
58.5714
21
-14.7743
0
LINE
8
Black
10
58.5714
20
-14.7743
11
58.4286
21
-14.4886
0
LINE
8
Black
10
58.4286
20
-14.4886
11
58.4286
21
-11.9171
0
LINE
8
Black
10
61.1429
20
-14.7743
11
60.8571
21
-14.9171
0
LINE
8
Black
10
60.8571
20
-14.9171
11
60.2857
21
-14.9171
0
LINE
8
Black
10
60.2857
20
-14.9171
11
60
21
-14.7743
0
LINE
8
Black
10
60
20
-14.7743
11
59.8571
21
-14.4886
0
LINE
8
Black
10
59.8571
20
-14.4886
11
59.8571
21
-13.3457
0
LINE
8
Black
10
59.8571
20
-13.3457
11
60
21
-13.06
0
LINE
8
Black
10
60
20
-13.06
11
60.2857
21
-12.9171
0
LINE
8
Black
10
60.2857
20
-12.9171
11
60.8571
21
-12.9171
0
LINE
8
Black
10
60.8571
20
-12.9171
11
61.1429
21
-13.06
0
LINE
8
Black
10
61.1429
20
-13.06
11
61.2857
21
-13.3457
0
LINE
8
Black
10
61.2857
20
-13.3457
11
61.2857
21
-13.6314
0
LINE
8
Black
10
61.2857
20
-13.6314
11
59.8571
21
-13.9171
0
LINE
8
Black
10
62.4286
20
-14.7743
11
62.7143
21
-14.9171
0
LINE
8
Black
10
62.7143
20
-14.9171
11
63.2857
21
-14.9171
0
LINE
8
Black
10
63.2857
20
-14.9171
11
63.5714
21
-14.7743
0
LINE
8
Black
10
63.5714
20
-14.7743
11
63.7143
21
-14.4886
0
LINE
8
Black
10
63.7143
20
-14.4886
11
63.7143
21
-14.3457
0
LINE
8
Black
10
63.7143
20
-14.3457
11
63.5714
21
-14.06
0
LINE
8
Black
10
63.5714
20
-14.06
11
63.2857
21
-13.9171
0
LINE
8
Black
10
63.2857
20
-13.9171
11
62.8571
21
-13.9171
0
LINE
8
Black
10
62.8571
20
-13.9171
11
62.5714
21
-13.7743
0
LINE
8
Black
10
62.5714
20
-13.7743
11
62.4286
21
-13.4886
0
LINE
8
Black
10
62.4286
20
-13.4886
11
62.4286
21
-13.3457
0
LINE
8
Black
10
62.4286
20
-13.3457
11
62.5714
21
-13.06
0
LINE
8
Black
10
62.5714
20
-13.06
11
62.8571
21
-12.9171
0
LINE
8
Black
10
62.8571
20
-12.9171
11
63.2857
21
-12.9171
0
LINE
8
Black
10
63.2857
20
-12.9171
11
63.5714
21
-13.06
0
LINE
8
Black
10
64.7143
20
-16.06
11
64.8571
21
-15.9171
0
LINE
8
Black
10
64.8571
20
-15.9171
11
65.1429
21
-15.4886
0
LINE
8
Black
10
65.1429
20
-15.4886
11
65.2857
21
-15.2029
0
LINE
8
Black
10
65.2857
20
-15.2029
11
65.4286
21
-14.7743
0
LINE
8
Black
10
65.4286
20
-14.7743
11
65.5714
21
-14.06
0
LINE
8
Black
10
65.5714
20
-14.06
11
65.5714
21
-13.4886
0
LINE
8
Black
10
65.5714
20
-13.4886
11
65.4286
21
-12.7743
0
LINE
8
Black
10
65.4286
20
-12.7743
11
65.2857
21
-12.3457
0
LINE
8
Black
10
65.2857
20
-12.3457
11
65.1429
21
-12.06
0
LINE
8
Black
10
65.1429
20
-12.06
11
64.8571
21
-11.6314
0
LINE
8
Black
10
64.8571
20
-11.6314
11
64.7143
21
-11.4886
0
LINE
8
Black
10
-0.62484
20
-16.8952
11
-0.62484
21
-18.1448
0
LINE
8
Black
10
-1.24968
20
-17.52
11
0
21
-17.52
0
LINE
8
Black
10
4.28571
20
-18.8771
11
2.57143
21
-18.8771
0
LINE
8
Black
10
3.42857
20
-18.8771
11
3.42857
21
-15.8771
0
LINE
8
Black
10
3.42857
20
-15.8771
11
3.14286
21
-16.3057
0
LINE
8
Black
10
3.14286
20
-16.3057
11
2.85714
21
-16.5914
0
LINE
8
Black
10
2.85714
20
-16.5914
11
2.57143
21
-16.7343
0
LINE
8
Black
10
5.57143
20
-18.5914
11
5.71429
21
-18.7343
0
LINE
8
Black
10
5.71429
20
-18.7343
11
5.57143
21
-18.8771
0
LINE
8
Black
10
5.57143
20
-18.8771
11
5.42857
21
-18.7343
0
LINE
8
Black
10
5.42857
20
-18.7343
11
5.57143
21
-18.5914
0
LINE
8
Black
10
5.57143
20
-18.5914
11
5.57143
21
-18.8771
0
LINE
8
Black
10
6.85714
20
-16.1629
11
7
21
-16.02
0
LINE
8
Black
10
7
20
-16.02
11
7.28571
21
-15.8771
0
LINE
8
Black
10
7.28571
20
-15.8771
11
8
21
-15.8771
0
LINE
8
Black
10
8
20
-15.8771
11
8.28571
21
-16.02
0
LINE
8
Black
10
8.28571
20
-16.02
11
8.42857
21
-16.1629
0
LINE
8
Black
10
8.42857
20
-16.1629
11
8.57143
21
-16.4486
0
LINE
8
Black
10
8.57143
20
-16.4486
11
8.57143
21
-16.7343
0
LINE
8
Black
10
8.57143
20
-16.7343
11
8.42857
21
-17.1629
0
LINE
8
Black
10
8.42857
20
-17.1629
11
6.71428
21
-18.8771
0
LINE
8
Black
10
6.71428
20
-18.8771
11
8.57143
21
-18.8771
0
LINE
8
Black
10
11.2857
20
-15.8771
11
9.85714
21
-15.8771
0
LINE
8
Black
10
9.85714
20
-15.8771
11
9.71429
21
-17.3057
0
LINE
8
Black
10
9.71429
20
-17.3057
11
9.85714
21
-17.1629
0
LINE
8
Black
10
9.85714
20
-17.1629
11
10.1429
21
-17.02
0
LINE
8
Black
10
10.1429
20
-17.02
11
10.8571
21
-17.02
0
LINE
8
Black
10
10.8571
20
-17.02
11
11.1429
21
-17.1629
0
LINE
8
Black
10
11.1429
20
-17.1629
11
11.2857
21
-17.3057
0
LINE
8
Black
10
11.2857
20
-17.3057
11
11.4286
21
-17.5914
0
LINE
8
Black
10
11.4286
20
-17.5914
11
11.4286
21
-18.3057
0
LINE
8
Black
10
11.4286
20
-18.3057
11
11.2857
21
-18.5914
0
LINE
8
Black
10
11.2857
20
-18.5914
11
11.1429
21
-18.7343
0
LINE
8
Black
10
11.1429
20
-18.7343
11
10.8571
21
-18.8771
0
LINE
8
Black
10
10.8571
20
-18.8771
11
10.1429
21
-18.8771
0
LINE
8
Black
10
10.1429
20
-18.8771
11
9.85714
21
-18.7343
0
LINE
8
Black
10
9.85714
20
-18.7343
11
9.71429
21
-18.5914
0
LINE
8
Black
10
12.7143
20
-18.8771
11
12.7143
21
-16.8771
0
LINE
8
Black
10
12.7143
20
-17.1629
11
12.8571
21
-17.02
0
LINE
8
Black
10
12.8571
20
-17.02
11
13.1429
21
-16.8771
0
LINE
8
Black
10
13.1429
20
-16.8771
11
13.5714
21
-16.8771
0
LINE
8
Black
10
13.5714
20
-16.8771
11
13.8571
21
-17.02
0
LINE
8
Black
10
13.8571
20
-17.02
11
14
21
-17.3057
0
LINE
8
Black
10
14
20
-17.3057
11
14
21
-18.8771
0
LINE
8
Black
10
14
20
-17.3057
11
14.1429
21
-17.02
0
LINE
8
Black
10
14.1429
20
-17.02
11
14.4286
21
-16.8771
0
LINE
8
Black
10
14.4286
20
-16.8771
11
14.8571
21
-16.8771
0
LINE
8
Black
10
14.8571
20
-16.8771
11
15.1429
21
-17.02
0
LINE
8
Black
10
15.1429
20
-17.02
11
15.2857
21
-17.3057
0
LINE
8
Black
10
15.2857
20
-17.3057
11
15.2857
21
-18.8771
0
LINE
8
Black
10
16.7143
20
-18.8771
11
16.7143
21
-16.8771
0
LINE
8
Black
10
16.7143
20
-17.1629
11
16.8571
21
-17.02
0
LINE
8
Black
10
16.8571
20
-17.02
11
17.1429
21
-16.8771
0
LINE
8
Black
10
17.1429
20
-16.8771
11
17.5714
21
-16.8771
0
LINE
8
Black
10
17.5714
20
-16.8771
11
17.8571
21
-17.02
0
LINE
8
Black
10
17.8571
20
-17.02
11
18
21
-17.3057
0
LINE
8
Black
10
18
20
-17.3057
11
18
21
-18.8771
0
LINE
8
Black
10
18
20
-17.3057
11
18.1429
21
-17.02
0
LINE
8
Black
10
18.1429
20
-17.02
11
18.4286
21
-16.8771
0
LINE
8
Black
10
18.4286
20
-16.8771
11
18.8571
21
-16.8771
0
LINE
8
Black
10
18.8571
20
-16.8771
11
19.1429
21
-17.02
0
LINE
8
Black
10
19.1429
20
-17.02
11
19.2857
21
-17.3057
0
LINE
8
Black
10
19.2857
20
-17.3057
11
19.2857
21
-18.8771
0
LINE
8
Black
10
25.1429
20
-15.7343
11
22.5714
21
-19.5914
0
LINE
8
Black
10
29
20
-15.8771
11
29.2857
21
-15.8771
0
LINE
8
Black
10
29.2857
20
-15.8771
11
29.5714
21
-16.02
0
LINE
8
Black
10
29.5714
20
-16.02
11
29.7143
21
-16.1629
0
LINE
8
Black
10
29.7143
20
-16.1629
11
29.8571
21
-16.4486
0
LINE
8
Black
10
29.8571
20
-16.4486
11
30
21
-17.02
0
LINE
8
Black
10
30
20
-17.02
11
30
21
-17.7343
0
LINE
8
Black
10
30
20
-17.7343
11
29.8571
21
-18.3057
0
LINE
8
Black
10
29.8571
20
-18.3057
11
29.7143
21
-18.5914
0
LINE
8
Black
10
29.7143
20
-18.5914
11
29.5714
21
-18.7343
0
LINE
8
Black
10
29.5714
20
-18.7343
11
29.2857
21
-18.8771
0
LINE
8
Black
10
29.2857
20
-18.8771
11
29
21
-18.8771
0
LINE
8
Black
10
29
20
-18.8771
11
28.7143
21
-18.7343
0
LINE
8
Black
10
28.7143
20
-18.7343
11
28.5714
21
-18.5914
0
LINE
8
Black
10
28.5714
20
-18.5914
11
28.4286
21
-18.3057
0
LINE
8
Black
10
28.4286
20
-18.3057
11
28.2857
21
-17.7343
0
LINE
8
Black
10
28.2857
20
-17.7343
11
28.2857
21
-17.02
0
LINE
8
Black
10
28.2857
20
-17.02
11
28.4286
21
-16.4486
0
LINE
8
Black
10
28.4286
20
-16.4486
11
28.5714
21
-16.1629
0
LINE
8
Black
10
28.5714
20
-16.1629
11
28.7143
21
-16.02
0
LINE
8
Black
10
28.7143
20
-16.02
11
29
21
-15.8771
0
LINE
8
Black
10
31.2857
20
-18.5914
11
31.4286
21
-18.7343
0
LINE
8
Black
10
31.4286
20
-18.7343
11
31.2857
21
-18.8771
0
LINE
8
Black
10
31.2857
20
-18.8771
11
31.1429
21
-18.7343
0
LINE
8
Black
10
31.1429
20
-18.7343
11
31.2857
21
-18.5914
0
LINE
8
Black
10
31.2857
20
-18.5914
11
31.2857
21
-18.8771
0
LINE
8
Black
10
33.2857
20
-15.8771
11
33.5714
21
-15.8771
0
LINE
8
Black
10
33.5714
20
-15.8771
11
33.8571
21
-16.02
0
LINE
8
Black
10
33.8571
20
-16.02
11
34
21
-16.1629
0
LINE
8
Black
10
34
20
-16.1629
11
34.1429
21
-16.4486
0
LINE
8
Black
10
34.1429
20
-16.4486
11
34.2857
21
-17.02
0
LINE
8
Black
10
34.2857
20
-17.02
11
34.2857
21
-17.7343
0
LINE
8
Black
10
34.2857
20
-17.7343
11
34.1429
21
-18.3057
0
LINE
8
Black
10
34.1429
20
-18.3057
11
34
21
-18.5914
0
LINE
8
Black
10
34
20
-18.5914
11
33.8571
21
-18.7343
0
LINE
8
Black
10
33.8571
20
-18.7343
11
33.5714
21
-18.8771
0
LINE
8
Black
10
33.5714
20
-18.8771
11
33.2857
21
-18.8771
0
LINE
8
Black
10
33.2857
20
-18.8771
11
33
21
-18.7343
0
LINE
8
Black
10
33
20
-18.7343
11
32.8571
21
-18.5914
0
LINE
8
Black
10
32.8571
20
-18.5914
11
32.7143
21
-18.3057
0
LINE
8
Black
10
32.7143
20
-18.3057
11
32.5714
21
-17.7343
0
LINE
8
Black
10
32.5714
20
-17.7343
11
32.5714
21
-17.02
0
LINE
8
Black
10
32.5714
20
-17.02
11
32.7143
21
-16.4486
0
LINE
8
Black
10
32.7143
20
-16.4486
11
32.8571
21
-16.1629
0
LINE
8
Black
10
32.8571
20
-16.1629
11
33
21
-16.02
0
LINE
8
Black
10
33
20
-16.02
11
33.2857
21
-15.8771
0
LINE
8
Black
10
36.8571
20
-16.8771
11
36.8571
21
-18.8771
0
LINE
8
Black
10
36.1429
20
-15.7343
11
35.4286
21
-17.8771
0
LINE
8
Black
10
35.4286
20
-17.8771
11
37.2857
21
-17.8771
0
LINE
8
Black
10
38.5714
20
-18.8771
11
39.1429
21
-18.8771
0
LINE
8
Black
10
39.1429
20
-18.8771
11
39.4286
21
-18.7343
0
LINE
8
Black
10
39.4286
20
-18.7343
11
39.5714
21
-18.5914
0
LINE
8
Black
10
39.5714
20
-18.5914
11
39.8571
21
-18.1629
0
LINE
8
Black
10
39.8571
20
-18.1629
11
40
21
-17.5914
0
LINE
8
Black
10
40
20
-17.5914
11
40
21
-16.4486
0
LINE
8
Black
10
40
20
-16.4486
11
39.8571
21
-16.1629
0
LINE
8
Black
10
39.8571
20
-16.1629
11
39.7143
21
-16.02
0
LINE
8
Black
10
39.7143
20
-16.02
11
39.4286
21
-15.8771
0
LINE
8
Black
10
39.4286
20
-15.8771
11
38.8571
21
-15.8771
0
LINE
8
Black
10
38.8571
20
-15.8771
11
38.5714
21
-16.02
0
LINE
8
Black
10
38.5714
20
-16.02
11
38.4286
21
-16.1629
0
LINE
8
Black
10
38.4286
20
-16.1629
11
38.2857
21
-16.4486
0
LINE
8
Black
10
38.2857
20
-16.4486
11
38.2857
21
-17.1629
0
LINE
8
Black
10
38.2857
20
-17.1629
11
38.4286
21
-17.4486
0
LINE
8
Black
10
38.4286
20
-17.4486
11
38.5714
21
-17.5914
0
LINE
8
Black
10
38.5714
20
-17.5914
11
38.8571
21
-17.7343
0
LINE
8
Black
10
38.8571
20
-17.7343
11
39.4286
21
-17.7343
0
LINE
8
Black
10
39.4286
20
-17.7343
11
39.7143
21
-17.5914
0
LINE
8
Black
10
39.7143
20
-17.5914
11
39.8571
21
-17.4486
0
LINE
8
Black
10
39.8571
20
-17.4486
11
40
21
-17.1629
0
LINE
8
Black
10
41.1429
20
-15.8771
11
41.1429
21
-16.4486
0
LINE
8
Black
10
42.2857
20
-15.8771
11
42.2857
21
-16.4486
0
LINE
8
Black
10
46.7143
20
-20.02
11
46.5714
21
-19.8771
0
LINE
8
Black
10
46.5714
20
-19.8771
11
46.2857
21
-19.4486
0
LINE
8
Black
10
46.2857
20
-19.4486
11
46.1429
21
-19.1629
0
LINE
8
Black
10
46.1429
20
-19.1629
11
46
21
-18.7343
0
LINE
8
Black
10
46
20
-18.7343
11
45.8571
21
-18.02
0
LINE
8
Black
10
45.8571
20
-18.02
11
45.8571
21
-17.4486
0
LINE
8
Black
10
45.8571
20
-17.4486
11
46
21
-16.7343
0
LINE
8
Black
10
46
20
-16.7343
11
46.1429
21
-16.3057
0
LINE
8
Black
10
46.1429
20
-16.3057
11
46.2857
21
-16.02
0
LINE
8
Black
10
46.2857
20
-16.02
11
46.5714
21
-15.5914
0
LINE
8
Black
10
46.5714
20
-15.5914
11
46.7143
21
-15.4486
0
LINE
8
Black
10
49.1429
20
-16.8771
11
49.1429
21
-18.8771
0
LINE
8
Black
10
48.4286
20
-15.7343
11
47.7143
21
-17.8771
0
LINE
8
Black
10
47.7143
20
-17.8771
11
49.5714
21
-17.8771
0
LINE
8
Black
10
53
20
-18.8771
11
53
21
-15.8771
0
LINE
8
Black
10
54.2857
20
-18.8771
11
54.2857
21
-17.3057
0
LINE
8
Black
10
54.2857
20
-17.3057
11
54.1429
21
-17.02
0
LINE
8
Black
10
54.1429
20
-17.02
11
53.8571
21
-16.8771
0
LINE
8
Black
10
53.8571
20
-16.8771
11
53.4286
21
-16.8771
0
LINE
8
Black
10
53.4286
20
-16.8771
11
53.1429
21
-17.02
0
LINE
8
Black
10
53.1429
20
-17.02
11
53
21
-17.1629
0
LINE
8
Black
10
56.1429
20
-18.8771
11
55.8571
21
-18.7343
0
LINE
8
Black
10
55.8571
20
-18.7343
11
55.7143
21
-18.5914
0
LINE
8
Black
10
55.7143
20
-18.5914
11
55.5714
21
-18.3057
0
LINE
8
Black
10
55.5714
20
-18.3057
11
55.5714
21
-17.4486
0
LINE
8
Black
10
55.5714
20
-17.4486
11
55.7143
21
-17.1629
0
LINE
8
Black
10
55.7143
20
-17.1629
11
55.8571
21
-17.02
0
LINE
8
Black
10
55.8571
20
-17.02
11
56.1429
21
-16.8771
0
LINE
8
Black
10
56.1429
20
-16.8771
11
56.5714
21
-16.8771
0
LINE
8
Black
10
56.5714
20
-16.8771
11
56.8571
21
-17.02
0
LINE
8
Black
10
56.8571
20
-17.02
11
57
21
-17.1629
0
LINE
8
Black
10
57
20
-17.1629
11
57.1429
21
-17.4486
0
LINE
8
Black
10
57.1429
20
-17.4486
11
57.1429
21
-18.3057
0
LINE
8
Black
10
57.1429
20
-18.3057
11
57
21
-18.5914
0
LINE
8
Black
10
57
20
-18.5914
11
56.8571
21
-18.7343
0
LINE
8
Black
10
56.8571
20
-18.7343
11
56.5714
21
-18.8771
0
LINE
8
Black
10
56.5714
20
-18.8771
11
56.1429
21
-18.8771
0
LINE
8
Black
10
58.8571
20
-18.8771
11
58.5714
21
-18.7343
0
LINE
8
Black
10
58.5714
20
-18.7343
11
58.4286
21
-18.4486
0
LINE
8
Black
10
58.4286
20
-18.4486
11
58.4286
21
-15.8771
0
LINE
8
Black
10
61.1429
20
-18.7343
11
60.8571
21
-18.8771
0
LINE
8
Black
10
60.8571
20
-18.8771
11
60.2857
21
-18.8771
0
LINE
8
Black
10
60.2857
20
-18.8771
11
60
21
-18.7343
0
LINE
8
Black
10
60
20
-18.7343
11
59.8571
21
-18.4486
0
LINE
8
Black
10
59.8571
20
-18.4486
11
59.8571
21
-17.3057
0
LINE
8
Black
10
59.8571
20
-17.3057
11
60
21
-17.02
0
LINE
8
Black
10
60
20
-17.02
11
60.2857
21
-16.8771
0
LINE
8
Black
10
60.2857
20
-16.8771
11
60.8571
21
-16.8771
0
LINE
8
Black
10
60.8571
20
-16.8771
11
61.1429
21
-17.02
0
LINE
8
Black
10
61.1429
20
-17.02
11
61.2857
21
-17.3057
0
LINE
8
Black
10
61.2857
20
-17.3057
11
61.2857
21
-17.5914
0
LINE
8
Black
10
61.2857
20
-17.5914
11
59.8571
21
-17.8771
0
LINE
8
Black
10
62.4286
20
-18.7343
11
62.7143
21
-18.8771
0
LINE
8
Black
10
62.7143
20
-18.8771
11
63.2857
21
-18.8771
0
LINE
8
Black
10
63.2857
20
-18.8771
11
63.5714
21
-18.7343
0
LINE
8
Black
10
63.5714
20
-18.7343
11
63.7143
21
-18.4486
0
LINE
8
Black
10
63.7143
20
-18.4486
11
63.7143
21
-18.3057
0
LINE
8
Black
10
63.7143
20
-18.3057
11
63.5714
21
-18.02
0
LINE
8
Black
10
63.5714
20
-18.02
11
63.2857
21
-17.8771
0
LINE
8
Black
10
63.2857
20
-17.8771
11
62.8571
21
-17.8771
0
LINE
8
Black
10
62.8571
20
-17.8771
11
62.5714
21
-17.7343
0
LINE
8
Black
10
62.5714
20
-17.7343
11
62.4286
21
-17.4486
0
LINE
8
Black
10
62.4286
20
-17.4486
11
62.4286
21
-17.3057
0
LINE
8
Black
10
62.4286
20
-17.3057
11
62.5714
21
-17.02
0
LINE
8
Black
10
62.5714
20
-17.02
11
62.8571
21
-16.8771
0
LINE
8
Black
10
62.8571
20
-16.8771
11
63.2857
21
-16.8771
0
LINE
8
Black
10
63.2857
20
-16.8771
11
63.5714
21
-17.02
0
LINE
8
Black
10
64.7143
20
-20.02
11
64.8571
21
-19.8771
0
LINE
8
Black
10
64.8571
20
-19.8771
11
65.1429
21
-19.4486
0
LINE
8
Black
10
65.1429
20
-19.4486
11
65.2857
21
-19.1629
0
LINE
8
Black
10
65.2857
20
-19.1629
11
65.4286
21
-18.7343
0
LINE
8
Black
10
65.4286
20
-18.7343
11
65.5714
21
-18.02
0
LINE
8
Black
10
65.5714
20
-18.02
11
65.5714
21
-17.4486
0
LINE
8
Black
10
65.5714
20
-17.4486
11
65.4286
21
-16.7343
0
LINE
8
Black
10
65.4286
20
-16.7343
11
65.2857
21
-16.3057
0
LINE
8
Black
10
65.2857
20
-16.3057
11
65.1429
21
-16.02
0
LINE
8
Black
10
65.1429
20
-16.02
11
64.8571
21
-15.5914
0
LINE
8
Black
10
64.8571
20
-15.5914
11
64.7143
21
-15.4486
0
LINE
8
Black
10
-0.190376
20
-21.9396
11
-0.190376
21
-21.0204
0
LINE
8
Black
10
-0.190376
20
-21.0204
11
-1.10962
21
-21.0204
0
LINE
8
Black
10
-1.10962
20
-21.0204
11
-1.10962
21
-21.9396
0
LINE
8
Black
10
-1.10962
20
-21.9396
11
-0.190376
21
-21.9396
0
LINE
8
Black
10
4.28571
20
-22.8371
11
2.57143
21
-22.8371
0
LINE
8
Black
10
3.42857
20
-22.8371
11
3.42857
21
-19.8371
0
LINE
8
Black
10
3.42857
20
-19.8371
11
3.14286
21
-20.2657
0
LINE
8
Black
10
3.14286
20
-20.2657
11
2.85714
21
-20.5514
0
LINE
8
Black
10
2.85714
20
-20.5514
11
2.57143
21
-20.6943
0
LINE
8
Black
10
5.57143
20
-22.5514
11
5.71429
21
-22.6943
0
LINE
8
Black
10
5.71429
20
-22.6943
11
5.57143
21
-22.8371
0
LINE
8
Black
10
5.57143
20
-22.8371
11
5.42857
21
-22.6943
0
LINE
8
Black
10
5.42857
20
-22.6943
11
5.57143
21
-22.5514
0
LINE
8
Black
10
5.57143
20
-22.5514
11
5.57143
21
-22.8371
0
LINE
8
Black
10
6.71428
20
-19.8371
11
8.57143
21
-19.8371
0
LINE
8
Black
10
8.57143
20
-19.8371
11
7.57143
21
-20.98
0
LINE
8
Black
10
7.57143
20
-20.98
11
8
21
-20.98
0
LINE
8
Black
10
8
20
-20.98
11
8.28571
21
-21.1229
0
LINE
8
Black
10
8.28571
20
-21.1229
11
8.42857
21
-21.2657
0
LINE
8
Black
10
8.42857
20
-21.2657
11
8.57143
21
-21.5514
0
LINE
8
Black
10
8.57143
20
-21.5514
11
8.57143
21
-22.2657
0
LINE
8
Black
10
8.57143
20
-22.2657
11
8.42857
21
-22.5514
0
LINE
8
Black
10
8.42857
20
-22.5514
11
8.28571
21
-22.6943
0
LINE
8
Black
10
8.28571
20
-22.6943
11
8
21
-22.8371
0
LINE
8
Black
10
8
20
-22.8371
11
7.14286
21
-22.8371
0
LINE
8
Black
10
7.14286
20
-22.8371
11
6.85714
21
-22.6943
0
LINE
8
Black
10
6.85714
20
-22.6943
11
6.71428
21
-22.5514
0
LINE
8
Black
10
10.4286
20
-19.8371
11
10.7143
21
-19.8371
0
LINE
8
Black
10
10.7143
20
-19.8371
11
11
21
-19.98
0
LINE
8
Black
10
11
20
-19.98
11
11.1429
21
-20.1229
0
LINE
8
Black
10
11.1429
20
-20.1229
11
11.2857
21
-20.4086
0
LINE
8
Black
10
11.2857
20
-20.4086
11
11.4286
21
-20.98
0
LINE
8
Black
10
11.4286
20
-20.98
11
11.4286
21
-21.6943
0
LINE
8
Black
10
11.4286
20
-21.6943
11
11.2857
21
-22.2657
0
LINE
8
Black
10
11.2857
20
-22.2657
11
11.1429
21
-22.5514
0
LINE
8
Black
10
11.1429
20
-22.5514
11
11
21
-22.6943
0
LINE
8
Black
10
11
20
-22.6943
11
10.7143
21
-22.8371
0
LINE
8
Black
10
10.7143
20
-22.8371
11
10.4286
21
-22.8371
0
LINE
8
Black
10
10.4286
20
-22.8371
11
10.1429
21
-22.6943
0
LINE
8
Black
10
10.1429
20
-22.6943
11
10
21
-22.5514
0
LINE
8
Black
10
10
20
-22.5514
11
9.85714
21
-22.2657
0
LINE
8
Black
10
9.85714
20
-22.2657
11
9.71429
21
-21.6943
0
LINE
8
Black
10
9.71429
20
-21.6943
11
9.71429
21
-20.98
0
LINE
8
Black
10
9.71429
20
-20.98
11
9.85714
21
-20.4086
0
LINE
8
Black
10
9.85714
20
-20.4086
11
10
21
-20.1229
0
LINE
8
Black
10
10
20
-20.1229
11
10.1429
21
-19.98
0
LINE
8
Black
10
10.1429
20
-19.98
11
10.4286
21
-19.8371
0
LINE
8
Black
10
12.7143
20
-22.8371
11
12.7143
21
-20.8371
0
LINE
8
Black
10
12.7143
20
-21.1229
11
12.8571
21
-20.98
0
LINE
8
Black
10
12.8571
20
-20.98
11
13.1429
21
-20.8371
0
LINE
8
Black
10
13.1429
20
-20.8371
11
13.5714
21
-20.8371
0
LINE
8
Black
10
13.5714
20
-20.8371
11
13.8571
21
-20.98
0
LINE
8
Black
10
13.8571
20
-20.98
11
14
21
-21.2657
0
LINE
8
Black
10
14
20
-21.2657
11
14
21
-22.8371
0
LINE
8
Black
10
14
20
-21.2657
11
14.1429
21
-20.98
0
LINE
8
Black
10
14.1429
20
-20.98
11
14.4286
21
-20.8371
0
LINE
8
Black
10
14.4286
20
-20.8371
11
14.8571
21
-20.8371
0
LINE
8
Black
10
14.8571
20
-20.8371
11
15.1429
21
-20.98
0
LINE
8
Black
10
15.1429
20
-20.98
11
15.2857
21
-21.2657
0
LINE
8
Black
10
15.2857
20
-21.2657
11
15.2857
21
-22.8371
0
LINE
8
Black
10
16.7143
20
-22.8371
11
16.7143
21
-20.8371
0
LINE
8
Black
10
16.7143
20
-21.1229
11
16.8571
21
-20.98
0
LINE
8
Black
10
16.8571
20
-20.98
11
17.1429
21
-20.8371
0
LINE
8
Black
10
17.1429
20
-20.8371
11
17.5714
21
-20.8371
0
LINE
8
Black
10
17.5714
20
-20.8371
11
17.8571
21
-20.98
0
LINE
8
Black
10
17.8571
20
-20.98
11
18
21
-21.2657
0
LINE
8
Black
10
18
20
-21.2657
11
18
21
-22.8371
0
LINE
8
Black
10
18
20
-21.2657
11
18.1429
21
-20.98
0
LINE
8
Black
10
18.1429
20
-20.98
11
18.4286
21
-20.8371
0
LINE
8
Black
10
18.4286
20
-20.8371
11
18.8571
21
-20.8371
0
LINE
8
Black
10
18.8571
20
-20.8371
11
19.1429
21
-20.98
0
LINE
8
Black
10
19.1429
20
-20.98
11
19.2857
21
-21.2657
0
LINE
8
Black
10
19.2857
20
-21.2657
11
19.2857
21
-22.8371
0
LINE
8
Black
10
25.1429
20
-19.6943
11
22.5714
21
-23.5514
0
LINE
8
Black
10
29
20
-19.8371
11
29.2857
21
-19.8371
0
LINE
8
Black
10
29.2857
20
-19.8371
11
29.5714
21
-19.98
0
LINE
8
Black
10
29.5714
20
-19.98
11
29.7143
21
-20.1229
0
LINE
8
Black
10
29.7143
20
-20.1229
11
29.8571
21
-20.4086
0
LINE
8
Black
10
29.8571
20
-20.4086
11
30
21
-20.98
0
LINE
8
Black
10
30
20
-20.98
11
30
21
-21.6943
0
LINE
8
Black
10
30
20
-21.6943
11
29.8571
21
-22.2657
0
LINE
8
Black
10
29.8571
20
-22.2657
11
29.7143
21
-22.5514
0
LINE
8
Black
10
29.7143
20
-22.5514
11
29.5714
21
-22.6943
0
LINE
8
Black
10
29.5714
20
-22.6943
11
29.2857
21
-22.8371
0
LINE
8
Black
10
29.2857
20
-22.8371
11
29
21
-22.8371
0
LINE
8
Black
10
29
20
-22.8371
11
28.7143
21
-22.6943
0
LINE
8
Black
10
28.7143
20
-22.6943
11
28.5714
21
-22.5514
0
LINE
8
Black
10
28.5714
20
-22.5514
11
28.4286
21
-22.2657
0
LINE
8
Black
10
28.4286
20
-22.2657
11
28.2857
21
-21.6943
0
LINE
8
Black
10
28.2857
20
-21.6943
11
28.2857
21
-20.98
0
LINE
8
Black
10
28.2857
20
-20.98
11
28.4286
21
-20.4086
0
LINE
8
Black
10
28.4286
20
-20.4086
11
28.5714
21
-20.1229
0
LINE
8
Black
10
28.5714
20
-20.1229
11
28.7143
21
-19.98
0
LINE
8
Black
10
28.7143
20
-19.98
11
29
21
-19.8371
0
LINE
8
Black
10
31.2857
20
-22.5514
11
31.4286
21
-22.6943
0
LINE
8
Black
10
31.4286
20
-22.6943
11
31.2857
21
-22.8371
0
LINE
8
Black
10
31.2857
20
-22.8371
11
31.1429
21
-22.6943
0
LINE
8
Black
10
31.1429
20
-22.6943
11
31.2857
21
-22.5514
0
LINE
8
Black
10
31.2857
20
-22.5514
11
31.2857
21
-22.8371
0
LINE
8
Black
10
33.2857
20
-19.8371
11
33.5714
21
-19.8371
0
LINE
8
Black
10
33.5714
20
-19.8371
11
33.8571
21
-19.98
0
LINE
8
Black
10
33.8571
20
-19.98
11
34
21
-20.1229
0
LINE
8
Black
10
34
20
-20.1229
11
34.1429
21
-20.4086
0
LINE
8
Black
10
34.1429
20
-20.4086
11
34.2857
21
-20.98
0
LINE
8
Black
10
34.2857
20
-20.98
11
34.2857
21
-21.6943
0
LINE
8
Black
10
34.2857
20
-21.6943
11
34.1429
21
-22.2657
0
LINE
8
Black
10
34.1429
20
-22.2657
11
34
21
-22.5514
0
LINE
8
Black
10
34
20
-22.5514
11
33.8571
21
-22.6943
0
LINE
8
Black
10
33.8571
20
-22.6943
11
33.5714
21
-22.8371
0
LINE
8
Black
10
33.5714
20
-22.8371
11
33.2857
21
-22.8371
0
LINE
8
Black
10
33.2857
20
-22.8371
11
33
21
-22.6943
0
LINE
8
Black
10
33
20
-22.6943
11
32.8571
21
-22.5514
0
LINE
8
Black
10
32.8571
20
-22.5514
11
32.7143
21
-22.2657
0
LINE
8
Black
10
32.7143
20
-22.2657
11
32.5714
21
-21.6943
0
LINE
8
Black
10
32.5714
20
-21.6943
11
32.5714
21
-20.98
0
LINE
8
Black
10
32.5714
20
-20.98
11
32.7143
21
-20.4086
0
LINE
8
Black
10
32.7143
20
-20.4086
11
32.8571
21
-20.1229
0
LINE
8
Black
10
32.8571
20
-20.1229
11
33
21
-19.98
0
LINE
8
Black
10
33
20
-19.98
11
33.2857
21
-19.8371
0
LINE
8
Black
10
37
20
-19.8371
11
35.5714
21
-19.8371
0
LINE
8
Black
10
35.5714
20
-19.8371
11
35.4286
21
-21.2657
0
LINE
8
Black
10
35.4286
20
-21.2657
11
35.5714
21
-21.1229
0
LINE
8
Black
10
35.5714
20
-21.1229
11
35.8571
21
-20.98
0
LINE
8
Black
10
35.8571
20
-20.98
11
36.5714
21
-20.98
0
LINE
8
Black
10
36.5714
20
-20.98
11
36.8571
21
-21.1229
0
LINE
8
Black
10
36.8571
20
-21.1229
11
37
21
-21.2657
0
LINE
8
Black
10
37
20
-21.2657
11
37.1429
21
-21.5514
0
LINE
8
Black
10
37.1429
20
-21.5514
11
37.1429
21
-22.2657
0
LINE
8
Black
10
37.1429
20
-22.2657
11
37
21
-22.5514
0
LINE
8
Black
10
37
20
-22.5514
11
36.8571
21
-22.6943
0
LINE
8
Black
10
36.8571
20
-22.6943
11
36.5714
21
-22.8371
0
LINE
8
Black
10
36.5714
20
-22.8371
11
35.8571
21
-22.8371
0
LINE
8
Black
10
35.8571
20
-22.8371
11
35.5714
21
-22.6943
0
LINE
8
Black
10
35.5714
20
-22.6943
11
35.4286
21
-22.5514
0
LINE
8
Black
10
40
20
-22.8371
11
38.2857
21
-22.8371
0
LINE
8
Black
10
39.1429
20
-22.8371
11
39.1429
21
-19.8371
0
LINE
8
Black
10
39.1429
20
-19.8371
11
38.8571
21
-20.2657
0
LINE
8
Black
10
38.8571
20
-20.2657
11
38.5714
21
-20.5514
0
LINE
8
Black
10
38.5714
20
-20.5514
11
38.2857
21
-20.6943
0
LINE
8
Black
10
41.1429
20
-19.8371
11
41.1429
21
-20.4086
0
LINE
8
Black
10
42.2857
20
-19.8371
11
42.2857
21
-20.4086
0
LINE
8
Black
10
46.7143
20
-23.98
11
46.5714
21
-23.8371
0
LINE
8
Black
10
46.5714
20
-23.8371
11
46.2857
21
-23.4086
0
LINE
8
Black
10
46.2857
20
-23.4086
11
46.1429
21
-23.1229
0
LINE
8
Black
10
46.1429
20
-23.1229
11
46
21
-22.6943
0
LINE
8
Black
10
46
20
-22.6943
11
45.8571
21
-21.98
0
LINE
8
Black
10
45.8571
20
-21.98
11
45.8571
21
-21.4086
0
LINE
8
Black
10
45.8571
20
-21.4086
11
46
21
-20.6943
0
LINE
8
Black
10
46
20
-20.6943
11
46.1429
21
-20.2657
0
LINE
8
Black
10
46.1429
20
-20.2657
11
46.2857
21
-19.98
0
LINE
8
Black
10
46.2857
20
-19.98
11
46.5714
21
-19.5514
0
LINE
8
Black
10
46.5714
20
-19.5514
11
46.7143
21
-19.4086
0
LINE
8
Black
10
49.1429
20
-20.8371
11
49.1429
21
-22.8371
0
LINE
8
Black
10
48.4286
20
-19.6943
11
47.7143
21
-21.8371
0
LINE
8
Black
10
47.7143
20
-21.8371
11
49.5714
21
-21.8371
0
LINE
8
Black
10
53
20
-22.8371
11
53
21
-19.8371
0
LINE
8
Black
10
54.2857
20
-22.8371
11
54.2857
21
-21.2657
0
LINE
8
Black
10
54.2857
20
-21.2657
11
54.1429
21
-20.98
0
LINE
8
Black
10
54.1429
20
-20.98
11
53.8571
21
-20.8371
0
LINE
8
Black
10
53.8571
20
-20.8371
11
53.4286
21
-20.8371
0
LINE
8
Black
10
53.4286
20
-20.8371
11
53.1429
21
-20.98
0
LINE
8
Black
10
53.1429
20
-20.98
11
53
21
-21.1229
0
LINE
8
Black
10
56.1429
20
-22.8371
11
55.8571
21
-22.6943
0
LINE
8
Black
10
55.8571
20
-22.6943
11
55.7143
21
-22.5514
0
LINE
8
Black
10
55.7143
20
-22.5514
11
55.5714
21
-22.2657
0
LINE
8
Black
10
55.5714
20
-22.2657
11
55.5714
21
-21.4086
0
LINE
8
Black
10
55.5714
20
-21.4086
11
55.7143
21
-21.1229
0
LINE
8
Black
10
55.7143
20
-21.1229
11
55.8571
21
-20.98
0
LINE
8
Black
10
55.8571
20
-20.98
11
56.1429
21
-20.8371
0
LINE
8
Black
10
56.1429
20
-20.8371
11
56.5714
21
-20.8371
0
LINE
8
Black
10
56.5714
20
-20.8371
11
56.8571
21
-20.98
0
LINE
8
Black
10
56.8571
20
-20.98
11
57
21
-21.1229
0
LINE
8
Black
10
57
20
-21.1229
11
57.1429
21
-21.4086
0
LINE
8
Black
10
57.1429
20
-21.4086
11
57.1429
21
-22.2657
0
LINE
8
Black
10
57.1429
20
-22.2657
11
57
21
-22.5514
0
LINE
8
Black
10
57
20
-22.5514
11
56.8571
21
-22.6943
0
LINE
8
Black
10
56.8571
20
-22.6943
11
56.5714
21
-22.8371
0
LINE
8
Black
10
56.5714
20
-22.8371
11
56.1429
21
-22.8371
0
LINE
8
Black
10
58.8571
20
-22.8371
11
58.5714
21
-22.6943
0
LINE
8
Black
10
58.5714
20
-22.6943
11
58.4286
21
-22.4086
0
LINE
8
Black
10
58.4286
20
-22.4086
11
58.4286
21
-19.8371
0
LINE
8
Black
10
61.1429
20
-22.6943
11
60.8571
21
-22.8371
0
LINE
8
Black
10
60.8571
20
-22.8371
11
60.2857
21
-22.8371
0
LINE
8
Black
10
60.2857
20
-22.8371
11
60
21
-22.6943
0
LINE
8
Black
10
60
20
-22.6943
11
59.8571
21
-22.4086
0
LINE
8
Black
10
59.8571
20
-22.4086
11
59.8571
21
-21.2657
0
LINE
8
Black
10
59.8571
20
-21.2657
11
60
21
-20.98
0
LINE
8
Black
10
60
20
-20.98
11
60.2857
21
-20.8371
0
LINE
8
Black
10
60.2857
20
-20.8371
11
60.8571
21
-20.8371
0
LINE
8
Black
10
60.8571
20
-20.8371
11
61.1429
21
-20.98
0
LINE
8
Black
10
61.1429
20
-20.98
11
61.2857
21
-21.2657
0
LINE
8
Black
10
61.2857
20
-21.2657
11
61.2857
21
-21.5514
0
LINE
8
Black
10
61.2857
20
-21.5514
11
59.8571
21
-21.8371
0
LINE
8
Black
10
62.4286
20
-22.6943
11
62.7143
21
-22.8371
0
LINE
8
Black
10
62.7143
20
-22.8371
11
63.2857
21
-22.8371
0
LINE
8
Black
10
63.2857
20
-22.8371
11
63.5714
21
-22.6943
0
LINE
8
Black
10
63.5714
20
-22.6943
11
63.7143
21
-22.4086
0
LINE
8
Black
10
63.7143
20
-22.4086
11
63.7143
21
-22.2657
0
LINE
8
Black
10
63.7143
20
-22.2657
11
63.5714
21
-21.98
0
LINE
8
Black
10
63.5714
20
-21.98
11
63.2857
21
-21.8371
0
LINE
8
Black
10
63.2857
20
-21.8371
11
62.8571
21
-21.8371
0
LINE
8
Black
10
62.8571
20
-21.8371
11
62.5714
21
-21.6943
0
LINE
8
Black
10
62.5714
20
-21.6943
11
62.4286
21
-21.4086
0
LINE
8
Black
10
62.4286
20
-21.4086
11
62.4286
21
-21.2657
0
LINE
8
Black
10
62.4286
20
-21.2657
11
62.5714
21
-20.98
0
LINE
8
Black
10
62.5714
20
-20.98
11
62.8571
21
-20.8371
0
LINE
8
Black
10
62.8571
20
-20.8371
11
63.2857
21
-20.8371
0
LINE
8
Black
10
63.2857
20
-20.8371
11
63.5714
21
-20.98
0
LINE
8
Black
10
64.7143
20
-23.98
11
64.8571
21
-23.8371
0
LINE
8
Black
10
64.8571
20
-23.8371
11
65.1429
21
-23.4086
0
LINE
8
Black
10
65.1429
20
-23.4086
11
65.2857
21
-23.1229
0
LINE
8
Black
10
65.2857
20
-23.1229
11
65.4286
21
-22.6943
0
LINE
8
Black
10
65.4286
20
-22.6943
11
65.5714
21
-21.98
0
LINE
8
Black
10
65.5714
20
-21.98
11
65.5714
21
-21.4086
0
LINE
8
Black
10
65.5714
20
-21.4086
11
65.4286
21
-20.6943
0
LINE
8
Black
10
65.4286
20
-20.6943
11
65.2857
21
-20.2657
0
LINE
8
Black
10
65.2857
20
-20.2657
11
65.1429
21
-19.98
0
LINE
8
Black
10
65.1429
20
-19.98
11
64.8571
21
-19.5514
0
LINE
8
Black
10
64.8571
20
-19.5514
11
64.7143
21
-19.4086
  0
ENDSEC
  0
EOF
