<?xml version="1.0" standalone="no"?>
 <!DOCTYPE svg PUBLIC "-//W3C//DTD SVG 1.1//EN" 
 "http://www.w3.org/Graphics/SVG/1.1/DTD/svg11.dtd"> 
<svg xmlns="http://www.w3.org/2000/svg" version="1.1" 
    width="29.7002cm" height="21.0007cm" viewBox="0 0 116930 82680 ">
<title>SVG Picture created as Rectificador-NPTH-drl_map.svg date 2016/09/26 11:33:29 </title>
  <desc>Picture generated by PCBNEW </desc>
<g style="fill:#000000; fill-opacity:1;stroke:#000000; stroke-opacity:1;
stroke-linecap:round; stroke-linejoin:round; "
 transform="translate(0 0) scale(1 1)">
</g>
<g style="fill:#000000; fill-opacity:0.0; 
stroke:#000000; stroke-width:78.7402; stroke-opacity:1; 
stroke-linecap:round; stroke-linejoin:round;">
<path d="M46811 36968
L47677 37834
" />
<path d="M47677 36968
L46811 37834
" />
<path d="M46811 44842
L47677 45708
" />
<path d="M47677 44842
L46811 45708
" />
<path d="M66496 36968
L67362 37834
" />
<path d="M67362 36968
L66496 37834
" />
<path d="M66496 44842
L67362 45708
" />
<path d="M67362 44842
L66496 45708
" />
</g>
<g style="fill:#000000; fill-opacity:0.0; 
stroke:#000000; stroke-width:118.11; stroke-opacity:1; 
stroke-linecap:round; stroke-linejoin:round;">
<path d="M1068 1833
L1068 652
L1349 652
L1518 708
L1631 821
L1687 933
L1743 1158
L1743 1327
L1687 1552
L1631 1664
L1518 1777
L1349 1833
L1068 1833
" />
<path d="M2249 1833
L2249 1046
" />
<path d="M2249 1271
L2305 1158
L2362 1102
L2474 1046
L2587 1046
" />
<path d="M2980 1833
L2980 1046
" />
<path d="M2980 652
L2924 708
L2980 764
L3037 708
L2980 652
L2980 764
" />
<path d="M3712 1833
L3599 1777
L3543 1664
L3543 652
" />
<path d="M4330 1833
L4218 1777
L4161 1664
L4161 652
" />
<path d="M5680 1833
L5680 652
L6074 1496
L6467 652
L6467 1833
" />
<path d="M7536 1833
L7536 1214
L7480 1102
L7367 1046
L7142 1046
L7030 1102
" />
<path d="M7536 1777
L7424 1833
L7142 1833
L7030 1777
L6974 1664
L6974 1552
L7030 1439
L7142 1383
L7424 1383
L7536 1327
" />
<path d="M8098 1046
L8098 2227
" />
<path d="M8098 1102
L8211 1046
L8436 1046
L8548 1102
L8605 1158
L8661 1271
L8661 1608
L8605 1721
L8548 1777
L8436 1833
L8211 1833
L8098 1777
" />
<path d="M9167 1721
L9223 1777
L9167 1833
L9111 1777
L9167 1721
L9167 1833
" />
<path d="M9167 1102
L9223 1158
L9167 1214
L9111 1158
L9167 1102
L9167 1214
" />
<path d="M-866 3346
L0 4212
" />
<path d="M0 3346
L-866 4212
" />
<path d="M1012 3245
L1068 3188
L1181 3132
L1462 3132
L1574 3188
L1631 3245
L1687 3357
L1687 3470
L1631 3638
L956 4313
L1687 4313
" />
<path d="M2193 4201
L2249 4257
L2193 4313
L2137 4257
L2193 4201
L2193 4313
" />
<path d="M2699 3245
L2755 3188
L2868 3132
L3149 3132
L3262 3188
L3318 3245
L3374 3357
L3374 3470
L3318 3638
L2643 4313
L3374 4313
" />
<path d="M4105 3132
L4218 3132
L4330 3188
L4386 3245
L4443 3357
L4499 3582
L4499 3863
L4443 4088
L4386 4201
L4330 4257
L4218 4313
L4105 4313
L3993 4257
L3937 4201
L3880 4088
L3824 3863
L3824 3582
L3880 3357
L3937 3245
L3993 3188
L4105 3132
" />
<path d="M5005 4313
L5005 3526
" />
<path d="M5005 3638
L5061 3582
L5174 3526
L5343 3526
L5455 3582
L5511 3695
L5511 4313
" />
<path d="M5511 3695
L5568 3582
L5680 3526
L5849 3526
L5961 3582
L6017 3695
L6017 4313
" />
<path d="M6580 4313
L6580 3526
" />
<path d="M6580 3638
L6636 3582
L6749 3526
L6917 3526
L7030 3582
L7086 3695
L7086 4313
" />
<path d="M7086 3695
L7142 3582
L7255 3526
L7424 3526
L7536 3582
L7592 3695
L7592 4313
" />
<path d="M9898 3076
L8886 4595
" />
<path d="M11417 3132
L11529 3132
L11642 3188
L11698 3245
L11754 3357
L11811 3582
L11811 3863
L11754 4088
L11698 4201
L11642 4257
L11529 4313
L11417 4313
L11304 4257
L11248 4201
L11192 4088
L11136 3863
L11136 3582
L11192 3357
L11248 3245
L11304 3188
L11417 3132
" />
<path d="M12317 4201
L12373 4257
L12317 4313
L12260 4257
L12317 4201
L12317 4313
" />
<path d="M13104 3132
L13217 3132
L13329 3188
L13385 3245
L13442 3357
L13498 3582
L13498 3863
L13442 4088
L13385 4201
L13329 4257
L13217 4313
L13104 4313
L12992 4257
L12935 4201
L12879 4088
L12823 3863
L12823 3582
L12879 3357
L12935 3245
L12992 3188
L13104 3132
" />
<path d="M14173 3638
L14060 3582
L14004 3526
L13948 3413
L13948 3357
L14004 3245
L14060 3188
L14173 3132
L14398 3132
L14510 3188
L14566 3245
L14623 3357
L14623 3413
L14566 3526
L14510 3582
L14398 3638
L14173 3638
L14060 3695
L14004 3751
L13948 3863
L13948 4088
L14004 4201
L14060 4257
L14173 4313
L14398 4313
L14510 4257
L14566 4201
L14623 4088
L14623 3863
L14566 3751
L14510 3695
L14398 3638
" />
<path d="M15016 3132
L15804 3132
L15298 4313
" />
<path d="M16197 3132
L16197 3357
" />
<path d="M16647 3132
L16647 3357
" />
<path d="M18391 4763
L18335 4707
L18222 4538
L18166 4426
L18110 4257
L18053 3976
L18053 3751
L18110 3470
L18166 3301
L18222 3188
L18335 3020
L18391 2964
" />
<path d="M19347 3526
L19347 4313
" />
<path d="M19066 3076
L18785 3920
L19516 3920
" />
<path d="M20866 4313
L20866 3132
" />
<path d="M21372 4313
L21372 3695
L21316 3582
L21203 3526
L21034 3526
L20922 3582
L20866 3638
" />
<path d="M22103 4313
L21991 4257
L21934 4201
L21878 4088
L21878 3751
L21934 3638
L21991 3582
L22103 3526
L22272 3526
L22384 3582
L22440 3638
L22497 3751
L22497 4088
L22440 4201
L22384 4257
L22272 4313
L22103 4313
" />
<path d="M23172 4313
L23059 4257
L23003 4145
L23003 3132
" />
<path d="M24071 4257
L23959 4313
L23734 4313
L23622 4257
L23565 4145
L23565 3695
L23622 3582
L23734 3526
L23959 3526
L24071 3582
L24128 3695
L24128 3807
L23565 3920
" />
<path d="M24578 4257
L24690 4313
L24915 4313
L25028 4257
L25084 4145
L25084 4088
L25028 3976
L24915 3920
L24746 3920
L24634 3863
L24578 3751
L24578 3695
L24634 3582
L24746 3526
L24915 3526
L25028 3582
" />
<path d="M25478 4763
L25534 4707
L25646 4538
L25703 4426
L25759 4257
L25815 3976
L25815 3751
L25759 3470
L25703 3301
L25646 3188
L25534 3020
L25478 2964
" />
<path d="M27615 4763
L27559 4707
L27446 4538
L27390 4426
L27334 4257
L27277 3976
L27277 3751
L27334 3470
L27390 3301
L27446 3188
L27559 3020
L27615 2964
" />
<path d="M28065 3526
L28065 4313
" />
<path d="M28065 3638
L28121 3582
L28233 3526
L28402 3526
L28515 3582
L28571 3695
L28571 4313
" />
<path d="M29302 4313
L29190 4257
L29133 4201
L29077 4088
L29077 3751
L29133 3638
L29190 3582
L29302 3526
L29471 3526
L29583 3582
L29640 3638
L29696 3751
L29696 4088
L29640 4201
L29583 4257
L29471 4313
L29302 4313
" />
<path d="M30033 3526
L30483 3526
" />
<path d="M30202 3132
L30202 4145
L30258 4257
L30371 4313
L30483 4313
" />
<path d="M31777 3526
L31777 4707
" />
<path d="M31777 3582
L31889 3526
L32114 3526
L32227 3582
L32283 3638
L32339 3751
L32339 4088
L32283 4201
L32227 4257
L32114 4313
L31889 4313
L31777 4257
" />
<path d="M33014 4313
L32902 4257
L32845 4145
L32845 3132
" />
<path d="M33970 4313
L33970 3695
L33914 3582
L33802 3526
L33577 3526
L33464 3582
" />
<path d="M33970 4257
L33858 4313
L33577 4313
L33464 4257
L33408 4145
L33408 4032
L33464 3920
L33577 3863
L33858 3863
L33970 3807
" />
<path d="M34364 3526
L34814 3526
" />
<path d="M34533 3132
L34533 4145
L34589 4257
L34701 4313
L34814 4313
" />
<path d="M35658 4257
L35545 4313
L35320 4313
L35208 4257
L35151 4145
L35151 3695
L35208 3582
L35320 3526
L35545 3526
L35658 3582
L35714 3695
L35714 3807
L35151 3920
" />
<path d="M36726 4313
L36726 3132
" />
<path d="M36726 4257
L36614 4313
L36389 4313
L36276 4257
L36220 4201
L36164 4088
L36164 3751
L36220 3638
L36276 3582
L36389 3526
L36614 3526
L36726 3582
" />
<path d="M37176 4763
L37232 4707
L37345 4538
L37401 4426
L37457 4257
L37514 3976
L37514 3751
L37457 3470
L37401 3301
L37345 3188
L37232 3020
L37176 2964
" />
</g> 
</svg>
