<?xml version="1.0" standalone="no"?>
 <!DOCTYPE svg PUBLIC "-//W3C//DTD SVG 1.1//EN" 
 "http://www.w3.org/Graphics/SVG/1.1/DTD/svg11.dtd"> 
<svg xmlns="http://www.w3.org/2000/svg" version="1.1" 
    width="29.7002cm" height="21.0007cm" viewBox="0 0 116930 82680 ">
<title>SVG Picture created as Rectificador-drl_map.svg date 2016/09/26 11:33:29 </title>
  <desc>Picture generated by PCBNEW </desc>
<g style="fill:#000000; fill-opacity:1;stroke:#000000; stroke-opacity:1;
stroke-linecap:round; stroke-linejoin:round; "
 transform="translate(0 0) scale(1 1)">
</g>
<g style="fill:#000000; fill-opacity:0.0; 
stroke:#000000; stroke-width:78.7402; stroke-opacity:1; 
stroke-linecap:round; stroke-linejoin:round;">
<path d="M57322 39212
L57637 39527
" />
<path d="M57637 39212
L57322 39527
" />
<path d="M57322 40196
L57637 40511
" />
<path d="M57637 40196
L57322 40511
" />
<circle cx="56433.1" cy="42913.4" r="197" /> 
<circle cx="60039.4" cy="39370.1" r="197" /> 
<circle cx="60039.4" cy="40370.1" r="197" /> 
<circle cx="60433.1" cy="42913.4" r="197" /> 
<path d="M54330 38692
L54330 39184
" />
<path d="M54084 38938
L54576 38938
" />
<path d="M54330 40292
L54330 40784
" />
<path d="M54084 40538
L54576 40538
" />
<path d="M54330 41892
L54330 42384
" />
<path d="M54084 42138
L54576 42138
" />
<path d="M54330 43492
L54330 43984
" />
<path d="M54084 43738
L54576 43738
" />
<polyline fill="none;"
points="50377,40535
50377,40173
50015,40173
50015,40535
50377,40535
" /> 
<polyline fill="none;"
points="50377,42503
50377,42141
50015,42141
50015,42503
50377,42503
" /> 
<polyline fill="none;"
points="64354,40535
64354,40173
63992,40173
63992,40535
64354,40535
" /> 
<polyline fill="none;"
points="64354,42503
64354,42141
63992,42141
63992,42503
64354,42503
" /> 
</g>
<g style="fill:#000000; fill-opacity:0.0; 
stroke:#000000; stroke-width:118.11; stroke-opacity:1; 
stroke-linecap:round; stroke-linejoin:round;">
<path d="M1068 1833
L1068 652
L1349 652
L1518 708
L1631 821
L1687 933
L1743 1158
L1743 1327
L1687 1552
L1631 1664
L1518 1777
L1349 1833
L1068 1833
" />
<path d="M2249 1833
L2249 1046
" />
<path d="M2249 1271
L2305 1158
L2362 1102
L2474 1046
L2587 1046
" />
<path d="M2980 1833
L2980 1046
" />
<path d="M2980 652
L2924 708
L2980 764
L3037 708
L2980 652
L2980 764
" />
<path d="M3712 1833
L3599 1777
L3543 1664
L3543 652
" />
<path d="M4330 1833
L4218 1777
L4161 1664
L4161 652
" />
<path d="M5680 1833
L5680 652
L6074 1496
L6467 652
L6467 1833
" />
<path d="M7536 1833
L7536 1214
L7480 1102
L7367 1046
L7142 1046
L7030 1102
" />
<path d="M7536 1777
L7424 1833
L7142 1833
L7030 1777
L6974 1664
L6974 1552
L7030 1439
L7142 1383
L7424 1383
L7536 1327
" />
<path d="M8098 1046
L8098 2227
" />
<path d="M8098 1102
L8211 1046
L8436 1046
L8548 1102
L8605 1158
L8661 1271
L8661 1608
L8605 1721
L8548 1777
L8436 1833
L8211 1833
L8098 1777
" />
<path d="M9167 1721
L9223 1777
L9167 1833
L9111 1777
L9167 1721
L9167 1833
" />
<path d="M9167 1102
L9223 1158
L9167 1214
L9111 1158
L9167 1102
L9167 1214
" />
<path d="M-314 3622
L0 3937
" />
<path d="M0 3622
L-314 3937
" />
<path d="M1293 3132
L1406 3132
L1518 3188
L1574 3245
L1631 3357
L1687 3582
L1687 3863
L1631 4088
L1574 4201
L1518 4257
L1406 4313
L1293 4313
L1181 4257
L1124 4201
L1068 4088
L1012 3863
L1012 3582
L1068 3357
L1124 3245
L1181 3188
L1293 3132
" />
<path d="M2193 4201
L2249 4257
L2193 4313
L2137 4257
L2193 4201
L2193 4313
" />
<path d="M2924 3638
L2812 3582
L2755 3526
L2699 3413
L2699 3357
L2755 3245
L2812 3188
L2924 3132
L3149 3132
L3262 3188
L3318 3245
L3374 3357
L3374 3413
L3318 3526
L3262 3582
L3149 3638
L2924 3638
L2812 3695
L2755 3751
L2699 3863
L2699 4088
L2755 4201
L2812 4257
L2924 4313
L3149 4313
L3262 4257
L3318 4201
L3374 4088
L3374 3863
L3318 3751
L3262 3695
L3149 3638
" />
<path d="M4105 3132
L4218 3132
L4330 3188
L4386 3245
L4443 3357
L4499 3582
L4499 3863
L4443 4088
L4386 4201
L4330 4257
L4218 4313
L4105 4313
L3993 4257
L3937 4201
L3880 4088
L3824 3863
L3824 3582
L3880 3357
L3937 3245
L3993 3188
L4105 3132
" />
<path d="M5005 4313
L5005 3526
" />
<path d="M5005 3638
L5061 3582
L5174 3526
L5343 3526
L5455 3582
L5511 3695
L5511 4313
" />
<path d="M5511 3695
L5568 3582
L5680 3526
L5849 3526
L5961 3582
L6017 3695
L6017 4313
" />
<path d="M6580 4313
L6580 3526
" />
<path d="M6580 3638
L6636 3582
L6749 3526
L6917 3526
L7030 3582
L7086 3695
L7086 4313
" />
<path d="M7086 3695
L7142 3582
L7255 3526
L7424 3526
L7536 3582
L7592 3695
L7592 4313
" />
<path d="M9898 3076
L8886 4595
" />
<path d="M11417 3132
L11529 3132
L11642 3188
L11698 3245
L11754 3357
L11811 3582
L11811 3863
L11754 4088
L11698 4201
L11642 4257
L11529 4313
L11417 4313
L11304 4257
L11248 4201
L11192 4088
L11136 3863
L11136 3582
L11192 3357
L11248 3245
L11304 3188
L11417 3132
" />
<path d="M12317 4201
L12373 4257
L12317 4313
L12260 4257
L12317 4201
L12317 4313
" />
<path d="M13104 3132
L13217 3132
L13329 3188
L13385 3245
L13442 3357
L13498 3582
L13498 3863
L13442 4088
L13385 4201
L13329 4257
L13217 4313
L13104 4313
L12992 4257
L12935 4201
L12879 4088
L12823 3863
L12823 3582
L12879 3357
L12935 3245
L12992 3188
L13104 3132
" />
<path d="M13892 3132
L14623 3132
L14229 3582
L14398 3582
L14510 3638
L14566 3695
L14623 3807
L14623 4088
L14566 4201
L14510 4257
L14398 4313
L14060 4313
L13948 4257
L13892 4201
" />
<path d="M15748 4313
L15073 4313
" />
<path d="M15410 4313
L15410 3132
L15298 3301
L15185 3413
L15073 3470
" />
<path d="M16197 3132
L16197 3357
" />
<path d="M16647 3132
L16647 3357
" />
<path d="M18391 4763
L18335 4707
L18222 4538
L18166 4426
L18110 4257
L18053 3976
L18053 3751
L18110 3470
L18166 3301
L18222 3188
L18335 3020
L18391 2964
" />
<path d="M18785 3245
L18841 3188
L18953 3132
L19235 3132
L19347 3188
L19403 3245
L19460 3357
L19460 3470
L19403 3638
L18728 4313
L19460 4313
" />
<path d="M20866 4313
L20866 3132
" />
<path d="M21372 4313
L21372 3695
L21316 3582
L21203 3526
L21034 3526
L20922 3582
L20866 3638
" />
<path d="M22103 4313
L21991 4257
L21934 4201
L21878 4088
L21878 3751
L21934 3638
L21991 3582
L22103 3526
L22272 3526
L22384 3582
L22440 3638
L22497 3751
L22497 4088
L22440 4201
L22384 4257
L22272 4313
L22103 4313
" />
<path d="M23172 4313
L23059 4257
L23003 4145
L23003 3132
" />
<path d="M24071 4257
L23959 4313
L23734 4313
L23622 4257
L23565 4145
L23565 3695
L23622 3582
L23734 3526
L23959 3526
L24071 3582
L24128 3695
L24128 3807
L23565 3920
" />
<path d="M24578 4257
L24690 4313
L24915 4313
L25028 4257
L25084 4145
L25084 4088
L25028 3976
L24915 3920
L24746 3920
L24634 3863
L24578 3751
L24578 3695
L24634 3582
L24746 3526
L24915 3526
L25028 3582
" />
<path d="M25478 4763
L25534 4707
L25646 4538
L25703 4426
L25759 4257
L25815 3976
L25815 3751
L25759 3470
L25703 3301
L25646 3188
L25534 3020
L25478 2964
" />
<circle cx="-197" cy="5338.58" r="197" /> 
<path d="M1687 5872
L1012 5872
" />
<path d="M1349 5872
L1349 4691
L1237 4860
L1124 4973
L1012 5029
" />
<path d="M2193 5760
L2249 5816
L2193 5872
L2137 5816
L2193 5760
L2193 5872
" />
<path d="M2980 4691
L3093 4691
L3205 4748
L3262 4804
L3318 4916
L3374 5141
L3374 5422
L3318 5647
L3262 5760
L3205 5816
L3093 5872
L2980 5872
L2868 5816
L2812 5760
L2755 5647
L2699 5422
L2699 5141
L2755 4916
L2812 4804
L2868 4748
L2980 4691
" />
<path d="M4105 4691
L4218 4691
L4330 4748
L4386 4804
L4443 4916
L4499 5141
L4499 5422
L4443 5647
L4386 5760
L4330 5816
L4218 5872
L4105 5872
L3993 5816
L3937 5760
L3880 5647
L3824 5422
L3824 5141
L3880 4916
L3937 4804
L3993 4748
L4105 4691
" />
<path d="M5005 5872
L5005 5085
" />
<path d="M5005 5197
L5061 5141
L5174 5085
L5343 5085
L5455 5141
L5511 5254
L5511 5872
" />
<path d="M5511 5254
L5568 5141
L5680 5085
L5849 5085
L5961 5141
L6017 5254
L6017 5872
" />
<path d="M6580 5872
L6580 5085
" />
<path d="M6580 5197
L6636 5141
L6749 5085
L6917 5085
L7030 5141
L7086 5254
L7086 5872
" />
<path d="M7086 5254
L7142 5141
L7255 5085
L7424 5085
L7536 5141
L7592 5254
L7592 5872
" />
<path d="M9898 4635
L8886 6154
" />
<path d="M11417 4691
L11529 4691
L11642 4748
L11698 4804
L11754 4916
L11811 5141
L11811 5422
L11754 5647
L11698 5760
L11642 5816
L11529 5872
L11417 5872
L11304 5816
L11248 5760
L11192 5647
L11136 5422
L11136 5141
L11192 4916
L11248 4804
L11304 4748
L11417 4691
" />
<path d="M12317 5760
L12373 5816
L12317 5872
L12260 5816
L12317 5760
L12317 5872
" />
<path d="M13104 4691
L13217 4691
L13329 4748
L13385 4804
L13442 4916
L13498 5141
L13498 5422
L13442 5647
L13385 5760
L13329 5816
L13217 5872
L13104 5872
L12992 5816
L12935 5760
L12879 5647
L12823 5422
L12823 5141
L12879 4916
L12935 4804
L12992 4748
L13104 4691
" />
<path d="M13892 4691
L14623 4691
L14229 5141
L14398 5141
L14510 5197
L14566 5254
L14623 5366
L14623 5647
L14566 5760
L14510 5816
L14398 5872
L14060 5872
L13948 5816
L13892 5760
" />
<path d="M15185 5872
L15410 5872
L15523 5816
L15579 5760
L15691 5591
L15748 5366
L15748 4916
L15691 4804
L15635 4748
L15523 4691
L15298 4691
L15185 4748
L15129 4804
L15073 4916
L15073 5197
L15129 5310
L15185 5366
L15298 5422
L15523 5422
L15635 5366
L15691 5310
L15748 5197
" />
<path d="M16197 4691
L16197 4916
" />
<path d="M16647 4691
L16647 4916
" />
<path d="M18391 6322
L18335 6266
L18222 6097
L18166 5985
L18110 5816
L18053 5535
L18053 5310
L18110 5029
L18166 4860
L18222 4748
L18335 4579
L18391 4523
" />
<path d="M19347 5085
L19347 5872
" />
<path d="M19066 4635
L18785 5479
L19516 5479
" />
<path d="M20866 5872
L20866 4691
" />
<path d="M21372 5872
L21372 5254
L21316 5141
L21203 5085
L21034 5085
L20922 5141
L20866 5197
" />
<path d="M22103 5872
L21991 5816
L21934 5760
L21878 5647
L21878 5310
L21934 5197
L21991 5141
L22103 5085
L22272 5085
L22384 5141
L22440 5197
L22497 5310
L22497 5647
L22440 5760
L22384 5816
L22272 5872
L22103 5872
" />
<path d="M23172 5872
L23059 5816
L23003 5704
L23003 4691
" />
<path d="M24071 5816
L23959 5872
L23734 5872
L23622 5816
L23565 5704
L23565 5254
L23622 5141
L23734 5085
L23959 5085
L24071 5141
L24128 5254
L24128 5366
L23565 5479
" />
<path d="M24578 5816
L24690 5872
L24915 5872
L25028 5816
L25084 5704
L25084 5647
L25028 5535
L24915 5479
L24746 5479
L24634 5422
L24578 5310
L24578 5254
L24634 5141
L24746 5085
L24915 5085
L25028 5141
" />
<path d="M25478 6322
L25534 6266
L25646 6097
L25703 5985
L25759 5816
L25815 5535
L25815 5310
L25759 5029
L25703 4860
L25646 4748
L25534 4579
L25478 4523
" />
<path d="M-246 6651
L-246 7143
" />
<path d="M-492 6897
L0 6897
" />
<path d="M1687 7431
L1012 7431
" />
<path d="M1349 7431
L1349 6250
L1237 6419
L1124 6532
L1012 6588
" />
<path d="M2193 7319
L2249 7375
L2193 7431
L2137 7375
L2193 7319
L2193 7431
" />
<path d="M2699 6363
L2755 6307
L2868 6250
L3149 6250
L3262 6307
L3318 6363
L3374 6475
L3374 6588
L3318 6757
L2643 7431
L3374 7431
" />
<path d="M4443 6250
L3880 6250
L3824 6813
L3880 6757
L3993 6700
L4274 6700
L4386 6757
L4443 6813
L4499 6925
L4499 7206
L4443 7319
L4386 7375
L4274 7431
L3993 7431
L3880 7375
L3824 7319
" />
<path d="M5005 7431
L5005 6644
" />
<path d="M5005 6757
L5061 6700
L5174 6644
L5343 6644
L5455 6700
L5511 6813
L5511 7431
" />
<path d="M5511 6813
L5568 6700
L5680 6644
L5849 6644
L5961 6700
L6017 6813
L6017 7431
" />
<path d="M6580 7431
L6580 6644
" />
<path d="M6580 6757
L6636 6700
L6749 6644
L6917 6644
L7030 6700
L7086 6813
L7086 7431
" />
<path d="M7086 6813
L7142 6700
L7255 6644
L7424 6644
L7536 6700
L7592 6813
L7592 7431
" />
<path d="M9898 6194
L8886 7713
" />
<path d="M11417 6250
L11529 6250
L11642 6307
L11698 6363
L11754 6475
L11811 6700
L11811 6982
L11754 7206
L11698 7319
L11642 7375
L11529 7431
L11417 7431
L11304 7375
L11248 7319
L11192 7206
L11136 6982
L11136 6700
L11192 6475
L11248 6363
L11304 6307
L11417 6250
" />
<path d="M12317 7319
L12373 7375
L12317 7431
L12260 7375
L12317 7319
L12317 7431
" />
<path d="M13104 6250
L13217 6250
L13329 6307
L13385 6363
L13442 6475
L13498 6700
L13498 6982
L13442 7206
L13385 7319
L13329 7375
L13217 7431
L13104 7431
L12992 7375
L12935 7319
L12879 7206
L12823 6982
L12823 6700
L12879 6475
L12935 6363
L12992 6307
L13104 6250
" />
<path d="M14510 6644
L14510 7431
" />
<path d="M14229 6194
L13948 7038
L14679 7038
" />
<path d="M15185 7431
L15410 7431
L15523 7375
L15579 7319
L15691 7150
L15748 6925
L15748 6475
L15691 6363
L15635 6307
L15523 6250
L15298 6250
L15185 6307
L15129 6363
L15073 6475
L15073 6757
L15129 6869
L15185 6925
L15298 6982
L15523 6982
L15635 6925
L15691 6869
L15748 6757
" />
<path d="M16197 6250
L16197 6475
" />
<path d="M16647 6250
L16647 6475
" />
<path d="M18391 7881
L18335 7825
L18222 7656
L18166 7544
L18110 7375
L18053 7094
L18053 6869
L18110 6588
L18166 6419
L18222 6307
L18335 6138
L18391 6082
" />
<path d="M19347 6644
L19347 7431
" />
<path d="M19066 6194
L18785 7038
L19516 7038
" />
<path d="M20866 7431
L20866 6250
" />
<path d="M21372 7431
L21372 6813
L21316 6700
L21203 6644
L21034 6644
L20922 6700
L20866 6757
" />
<path d="M22103 7431
L21991 7375
L21934 7319
L21878 7206
L21878 6869
L21934 6757
L21991 6700
L22103 6644
L22272 6644
L22384 6700
L22440 6757
L22497 6869
L22497 7206
L22440 7319
L22384 7375
L22272 7431
L22103 7431
" />
<path d="M23172 7431
L23059 7375
L23003 7263
L23003 6250
" />
<path d="M24071 7375
L23959 7431
L23734 7431
L23622 7375
L23565 7263
L23565 6813
L23622 6700
L23734 6644
L23959 6644
L24071 6700
L24128 6813
L24128 6925
L23565 7038
" />
<path d="M24578 7375
L24690 7431
L24915 7431
L25028 7375
L25084 7263
L25084 7206
L25028 7094
L24915 7038
L24746 7038
L24634 6982
L24578 6869
L24578 6813
L24634 6700
L24746 6644
L24915 6644
L25028 6700
" />
<path d="M25478 7881
L25534 7825
L25646 7656
L25703 7544
L25759 7375
L25815 7094
L25815 6869
L25759 6588
L25703 6419
L25646 6307
L25534 6138
L25478 6082
" />
<polyline fill="none;"
points="-74,8637
-74,8275
-436,8275
-436,8637
-74,8637
" /> 
<path d="M1687 8991
L1012 8991
" />
<path d="M1349 8991
L1349 7809
L1237 7978
L1124 8091
L1012 8147
" />
<path d="M2193 8878
L2249 8934
L2193 8991
L2137 8934
L2193 8878
L2193 8991
" />
<path d="M2643 7809
L3374 7809
L2980 8259
L3149 8259
L3262 8316
L3318 8372
L3374 8484
L3374 8766
L3318 8878
L3262 8934
L3149 8991
L2812 8991
L2699 8934
L2643 8878
" />
<path d="M4105 7809
L4218 7809
L4330 7866
L4386 7922
L4443 8034
L4499 8259
L4499 8541
L4443 8766
L4386 8878
L4330 8934
L4218 8991
L4105 8991
L3993 8934
L3937 8878
L3880 8766
L3824 8541
L3824 8259
L3880 8034
L3937 7922
L3993 7866
L4105 7809
" />
<path d="M5005 8991
L5005 8203
" />
<path d="M5005 8316
L5061 8259
L5174 8203
L5343 8203
L5455 8259
L5511 8372
L5511 8991
" />
<path d="M5511 8372
L5568 8259
L5680 8203
L5849 8203
L5961 8259
L6017 8372
L6017 8991
" />
<path d="M6580 8991
L6580 8203
" />
<path d="M6580 8316
L6636 8259
L6749 8203
L6917 8203
L7030 8259
L7086 8372
L7086 8991
" />
<path d="M7086 8372
L7142 8259
L7255 8203
L7424 8203
L7536 8259
L7592 8372
L7592 8991
" />
<path d="M9898 7753
L8886 9272
" />
<path d="M11417 7809
L11529 7809
L11642 7866
L11698 7922
L11754 8034
L11811 8259
L11811 8541
L11754 8766
L11698 8878
L11642 8934
L11529 8991
L11417 8991
L11304 8934
L11248 8878
L11192 8766
L11136 8541
L11136 8259
L11192 8034
L11248 7922
L11304 7866
L11417 7809
" />
<path d="M12317 8878
L12373 8934
L12317 8991
L12260 8934
L12317 8878
L12317 8991
" />
<path d="M13104 7809
L13217 7809
L13329 7866
L13385 7922
L13442 8034
L13498 8259
L13498 8541
L13442 8766
L13385 8878
L13329 8934
L13217 8991
L13104 8991
L12992 8934
L12935 8878
L12879 8766
L12823 8541
L12823 8259
L12879 8034
L12935 7922
L12992 7866
L13104 7809
" />
<path d="M14566 7809
L14004 7809
L13948 8372
L14004 8316
L14116 8259
L14398 8259
L14510 8316
L14566 8372
L14623 8484
L14623 8766
L14566 8878
L14510 8934
L14398 8991
L14116 8991
L14004 8934
L13948 8878
" />
<path d="M15748 8991
L15073 8991
" />
<path d="M15410 8991
L15410 7809
L15298 7978
L15185 8091
L15073 8147
" />
<path d="M16197 7809
L16197 8034
" />
<path d="M16647 7809
L16647 8034
" />
<path d="M18391 9440
L18335 9384
L18222 9215
L18166 9103
L18110 8934
L18053 8653
L18053 8428
L18110 8147
L18166 7978
L18222 7866
L18335 7697
L18391 7641
" />
<path d="M19347 8203
L19347 8991
" />
<path d="M19066 7753
L18785 8597
L19516 8597
" />
<path d="M20866 8991
L20866 7809
" />
<path d="M21372 8991
L21372 8372
L21316 8259
L21203 8203
L21034 8203
L20922 8259
L20866 8316
" />
<path d="M22103 8991
L21991 8934
L21934 8878
L21878 8766
L21878 8428
L21934 8316
L21991 8259
L22103 8203
L22272 8203
L22384 8259
L22440 8316
L22497 8428
L22497 8766
L22440 8878
L22384 8934
L22272 8991
L22103 8991
" />
<path d="M23172 8991
L23059 8934
L23003 8822
L23003 7809
" />
<path d="M24071 8934
L23959 8991
L23734 8991
L23622 8934
L23565 8822
L23565 8372
L23622 8259
L23734 8203
L23959 8203
L24071 8259
L24128 8372
L24128 8484
L23565 8597
" />
<path d="M24578 8934
L24690 8991
L24915 8991
L25028 8934
L25084 8822
L25084 8766
L25028 8653
L24915 8597
L24746 8597
L24634 8541
L24578 8428
L24578 8372
L24634 8259
L24746 8203
L24915 8203
L25028 8259
" />
<path d="M25478 9440
L25534 9384
L25646 9215
L25703 9103
L25759 8934
L25815 8653
L25815 8428
L25759 8147
L25703 7978
L25646 7866
L25534 7697
L25478 7641
" />
</g> 
</svg>
