  0
SECTION
  2
HEADER
  9
$ANGBASE
  50
0.0
  9
$ANGDIR
  70
  1
  9
$MEASUREMENT
  70
0
  0
ENDSEC
  0
SECTION
  2
TABLES
  0
TABLE
  2
LTYPE
  70
1
  0
LTYPE
  2
CONTINUOUS
  70
0
  3
Solid line
  72
65
  73
0
  40
0.0
  0
ENDTAB
  0
TABLE
  2
STYLE
  70
4
  0
STYLE
  2
KICAD
  70
0
  40
0
  41
1
  42
1
  50
0
  71
0
  3
isocp.shx
  0
STYLE
  2
KICADB
  70
0
  40
0
  41
1
  42
1
  50
0
  71
0
  3
isocp.shx
  0
STYLE
  2
KICADI
  70
0
  40
0
  41
1
  42
1
  50
15
  71
0
  3
isocp.shx
  0
STYLE
  2
KICADBI
  70
0
  40
0
  41
1
  42
1
  50
15
  71
0
  3
isocp.shx
  0
ENDTAB
  0
TABLE
  2
LAYER
  70
30
  0
LAYER
  2
BLACK
  70
0
  62
7
  6
CONTINUOUS
  0
LAYER
  2
GRAY1
  70
0
  62
251
  6
CONTINUOUS
  0
LAYER
  2
GRAY2
  70
0
  62
8
  6
CONTINUOUS
  0
LAYER
  2
GRAY3
  70
0
  62
9
  6
CONTINUOUS
  0
LAYER
  2
WHITE
  70
0
  62
7
  6
CONTINUOUS
  0
LAYER
  2
LYELLOW
  70
0
  62
51
  6
CONTINUOUS
  0
LAYER
  2
BLUE1
  70
0
  62
178
  6
CONTINUOUS
  0
LAYER
  2
GREEN1
  70
0
  62
98
  6
CONTINUOUS
  0
LAYER
  2
CYAN1
  70
0
  62
138
  6
CONTINUOUS
  0
LAYER
  2
RED1
  70
0
  62
18
  6
CONTINUOUS
  0
LAYER
  2
MAGENTA1
  70
0
  62
228
  6
CONTINUOUS
  0
LAYER
  2
BROWN1
  70
0
  62
58
  6
CONTINUOUS
  0
LAYER
  2
BLUE2
  70
0
  62
5
  6
CONTINUOUS
  0
LAYER
  2
GREEN2
  70
0
  62
3
  6
CONTINUOUS
  0
LAYER
  2
CYAN2
  70
0
  62
4
  6
CONTINUOUS
  0
LAYER
  2
RED2
  70
0
  62
1
  6
CONTINUOUS
  0
LAYER
  2
MAGENTA2
  70
0
  62
6
  6
CONTINUOUS
  0
LAYER
  2
BROWN2
  70
0
  62
54
  6
CONTINUOUS
  0
LAYER
  2
BLUE3
  70
0
  62
171
  6
CONTINUOUS
  0
LAYER
  2
GREEN3
  70
0
  62
91
  6
CONTINUOUS
  0
LAYER
  2
CYAN3
  70
0
  62
131
  6
CONTINUOUS
  0
LAYER
  2
RED3
  70
0
  62
11
  6
CONTINUOUS
  0
LAYER
  2
MAGENTA3
  70
0
  62
221
  6
CONTINUOUS
  0
LAYER
  2
YELLOW3
  70
0
  62
2
  6
CONTINUOUS
  0
LAYER
  2
BLUE4
  70
0
  62
5
  6
CONTINUOUS
  0
LAYER
  2
GREEN4
  70
0
  62
3
  6
CONTINUOUS
  0
LAYER
  2
CYAN4
  70
0
  62
4
  6
CONTINUOUS
  0
LAYER
  2
RED4
  70
0
  62
1
  6
CONTINUOUS
  0
LAYER
  2
MAGENTA4
  70
0
  62
6
  6
CONTINUOUS
  0
LAYER
  2
YELLOW4
  70
0
  62
2
  6
CONTINUOUS
  0
ENDTAB
  0
ENDSEC
  0
SECTION
  2
ENTITIES
0
LINE
8
Black
10
118.9
20
-93.9
11
121.1
21
-96.1
0
LINE
8
Black
10
121.1
20
-93.9
11
118.9
21
-96.1
0
LINE
8
Black
10
118.9
20
-113.9
11
121.1
21
-116.1
0
LINE
8
Black
10
121.1
20
-113.9
11
118.9
21
-116.1
0
LINE
8
Black
10
168.9
20
-93.9
11
171.1
21
-96.1
0
LINE
8
Black
10
171.1
20
-93.9
11
168.9
21
-96.1
0
LINE
8
Black
10
168.9
20
-113.9
11
171.1
21
-116.1
0
LINE
8
Black
10
171.1
20
-113.9
11
168.9
21
-116.1
0
LINE
8
Black
10
2.71429
20
-4.65714
11
2.71429
21
-1.65714
0
LINE
8
Black
10
2.71429
20
-1.65714
11
3.42857
21
-1.65714
0
LINE
8
Black
10
3.42857
20
-1.65714
11
3.85714
21
-1.8
0
LINE
8
Black
10
3.85714
20
-1.8
11
4.14286
21
-2.08571
0
LINE
8
Black
10
4.14286
20
-2.08571
11
4.28571
21
-2.37143
0
LINE
8
Black
10
4.28571
20
-2.37143
11
4.42857
21
-2.94286
0
LINE
8
Black
10
4.42857
20
-2.94286
11
4.42857
21
-3.37143
0
LINE
8
Black
10
4.42857
20
-3.37143
11
4.28571
21
-3.94286
0
LINE
8
Black
10
4.28571
20
-3.94286
11
4.14286
21
-4.22857
0
LINE
8
Black
10
4.14286
20
-4.22857
11
3.85714
21
-4.51429
0
LINE
8
Black
10
3.85714
20
-4.51429
11
3.42857
21
-4.65714
0
LINE
8
Black
10
3.42857
20
-4.65714
11
2.71429
21
-4.65714
0
LINE
8
Black
10
5.71429
20
-4.65714
11
5.71429
21
-2.65714
0
LINE
8
Black
10
5.71429
20
-3.22857
11
5.85714
21
-2.94286
0
LINE
8
Black
10
5.85714
20
-2.94286
11
6
21
-2.8
0
LINE
8
Black
10
6
20
-2.8
11
6.28571
21
-2.65714
0
LINE
8
Black
10
6.28571
20
-2.65714
11
6.57143
21
-2.65714
0
LINE
8
Black
10
7.57143
20
-4.65714
11
7.57143
21
-2.65714
0
LINE
8
Black
10
7.57143
20
-1.65714
11
7.42857
21
-1.8
0
LINE
8
Black
10
7.42857
20
-1.8
11
7.57143
21
-1.94286
0
LINE
8
Black
10
7.57143
20
-1.94286
11
7.71429
21
-1.8
0
LINE
8
Black
10
7.71429
20
-1.8
11
7.57143
21
-1.65714
0
LINE
8
Black
10
7.57143
20
-1.65714
11
7.57143
21
-1.94286
0
LINE
8
Black
10
9.42857
20
-4.65714
11
9.14286
21
-4.51429
0
LINE
8
Black
10
9.14286
20
-4.51429
11
9
21
-4.22857
0
LINE
8
Black
10
9
20
-4.22857
11
9
21
-1.65714
0
LINE
8
Black
10
11
20
-4.65714
11
10.7143
21
-4.51429
0
LINE
8
Black
10
10.7143
20
-4.51429
11
10.5714
21
-4.22857
0
LINE
8
Black
10
10.5714
20
-4.22857
11
10.5714
21
-1.65714
0
LINE
8
Black
10
14.4286
20
-4.65714
11
14.4286
21
-1.65714
0
LINE
8
Black
10
14.4286
20
-1.65714
11
15.4286
21
-3.8
0
LINE
8
Black
10
15.4286
20
-3.8
11
16.4286
21
-1.65714
0
LINE
8
Black
10
16.4286
20
-1.65714
11
16.4286
21
-4.65714
0
LINE
8
Black
10
19.1429
20
-4.65714
11
19.1429
21
-3.08571
0
LINE
8
Black
10
19.1429
20
-3.08571
11
19
21
-2.8
0
LINE
8
Black
10
19
20
-2.8
11
18.7143
21
-2.65714
0
LINE
8
Black
10
18.7143
20
-2.65714
11
18.1429
21
-2.65714
0
LINE
8
Black
10
18.1429
20
-2.65714
11
17.8571
21
-2.8
0
LINE
8
Black
10
19.1429
20
-4.51429
11
18.8571
21
-4.65714
0
LINE
8
Black
10
18.8571
20
-4.65714
11
18.1429
21
-4.65714
0
LINE
8
Black
10
18.1429
20
-4.65714
11
17.8571
21
-4.51429
0
LINE
8
Black
10
17.8571
20
-4.51429
11
17.7143
21
-4.22857
0
LINE
8
Black
10
17.7143
20
-4.22857
11
17.7143
21
-3.94286
0
LINE
8
Black
10
17.7143
20
-3.94286
11
17.8571
21
-3.65714
0
LINE
8
Black
10
17.8571
20
-3.65714
11
18.1429
21
-3.51429
0
LINE
8
Black
10
18.1429
20
-3.51429
11
18.8571
21
-3.51429
0
LINE
8
Black
10
18.8571
20
-3.51429
11
19.1429
21
-3.37143
0
LINE
8
Black
10
20.5714
20
-2.65714
11
20.5714
21
-5.65714
0
LINE
8
Black
10
20.5714
20
-2.8
11
20.8571
21
-2.65714
0
LINE
8
Black
10
20.8571
20
-2.65714
11
21.4286
21
-2.65714
0
LINE
8
Black
10
21.4286
20
-2.65714
11
21.7143
21
-2.8
0
LINE
8
Black
10
21.7143
20
-2.8
11
21.8571
21
-2.94286
0
LINE
8
Black
10
21.8571
20
-2.94286
11
22
21
-3.22857
0
LINE
8
Black
10
22
20
-3.22857
11
22
21
-4.08571
0
LINE
8
Black
10
22
20
-4.08571
11
21.8571
21
-4.37143
0
LINE
8
Black
10
21.8571
20
-4.37143
11
21.7143
21
-4.51429
0
LINE
8
Black
10
21.7143
20
-4.51429
11
21.4286
21
-4.65714
0
LINE
8
Black
10
21.4286
20
-4.65714
11
20.8571
21
-4.65714
0
LINE
8
Black
10
20.8571
20
-4.65714
11
20.5714
21
-4.51429
0
LINE
8
Black
10
23.2857
20
-4.37143
11
23.4286
21
-4.51429
0
LINE
8
Black
10
23.4286
20
-4.51429
11
23.2857
21
-4.65714
0
LINE
8
Black
10
23.2857
20
-4.65714
11
23.1429
21
-4.51429
0
LINE
8
Black
10
23.1429
20
-4.51429
11
23.2857
21
-4.37143
0
LINE
8
Black
10
23.2857
20
-4.37143
11
23.2857
21
-4.65714
0
LINE
8
Black
10
23.2857
20
-2.8
11
23.4286
21
-2.94286
0
LINE
8
Black
10
23.4286
20
-2.94286
11
23.2857
21
-3.08571
0
LINE
8
Black
10
23.2857
20
-3.08571
11
23.1429
21
-2.94286
0
LINE
8
Black
10
23.1429
20
-2.94286
11
23.2857
21
-2.8
0
LINE
8
Black
10
23.2857
20
-2.8
11
23.2857
21
-3.08571
0
LINE
8
Black
10
-2.2
20
-8.5
11
0
21
-10.7
0
LINE
8
Black
10
0
20
-8.5
11
-2.2
21
-10.7
0
LINE
8
Black
10
2.57143
20
-8.24286
11
2.71429
21
-8.1
0
LINE
8
Black
10
2.71429
20
-8.1
11
3
21
-7.95714
0
LINE
8
Black
10
3
20
-7.95714
11
3.71429
21
-7.95714
0
LINE
8
Black
10
3.71429
20
-7.95714
11
4
21
-8.1
0
LINE
8
Black
10
4
20
-8.1
11
4.14286
21
-8.24286
0
LINE
8
Black
10
4.14286
20
-8.24286
11
4.28571
21
-8.52857
0
LINE
8
Black
10
4.28571
20
-8.52857
11
4.28571
21
-8.81429
0
LINE
8
Black
10
4.28571
20
-8.81429
11
4.14286
21
-9.24286
0
LINE
8
Black
10
4.14286
20
-9.24286
11
2.42857
21
-10.9571
0
LINE
8
Black
10
2.42857
20
-10.9571
11
4.28571
21
-10.9571
0
LINE
8
Black
10
5.57143
20
-10.6714
11
5.71429
21
-10.8143
0
LINE
8
Black
10
5.71429
20
-10.8143
11
5.57143
21
-10.9571
0
LINE
8
Black
10
5.57143
20
-10.9571
11
5.42857
21
-10.8143
0
LINE
8
Black
10
5.42857
20
-10.8143
11
5.57143
21
-10.6714
0
LINE
8
Black
10
5.57143
20
-10.6714
11
5.57143
21
-10.9571
0
LINE
8
Black
10
6.85714
20
-8.24286
11
7
21
-8.1
0
LINE
8
Black
10
7
20
-8.1
11
7.28571
21
-7.95714
0
LINE
8
Black
10
7.28571
20
-7.95714
11
8
21
-7.95714
0
LINE
8
Black
10
8
20
-7.95714
11
8.28571
21
-8.1
0
LINE
8
Black
10
8.28571
20
-8.1
11
8.42857
21
-8.24286
0
LINE
8
Black
10
8.42857
20
-8.24286
11
8.57143
21
-8.52857
0
LINE
8
Black
10
8.57143
20
-8.52857
11
8.57143
21
-8.81429
0
LINE
8
Black
10
8.57143
20
-8.81429
11
8.42857
21
-9.24286
0
LINE
8
Black
10
8.42857
20
-9.24286
11
6.71428
21
-10.9571
0
LINE
8
Black
10
6.71428
20
-10.9571
11
8.57143
21
-10.9571
0
LINE
8
Black
10
10.4286
20
-7.95714
11
10.7143
21
-7.95714
0
LINE
8
Black
10
10.7143
20
-7.95714
11
11
21
-8.1
0
LINE
8
Black
10
11
20
-8.1
11
11.1429
21
-8.24286
0
LINE
8
Black
10
11.1429
20
-8.24286
11
11.2857
21
-8.52857
0
LINE
8
Black
10
11.2857
20
-8.52857
11
11.4286
21
-9.1
0
LINE
8
Black
10
11.4286
20
-9.1
11
11.4286
21
-9.81429
0
LINE
8
Black
10
11.4286
20
-9.81429
11
11.2857
21
-10.3857
0
LINE
8
Black
10
11.2857
20
-10.3857
11
11.1429
21
-10.6714
0
LINE
8
Black
10
11.1429
20
-10.6714
11
11
21
-10.8143
0
LINE
8
Black
10
11
20
-10.8143
11
10.7143
21
-10.9571
0
LINE
8
Black
10
10.7143
20
-10.9571
11
10.4286
21
-10.9571
0
LINE
8
Black
10
10.4286
20
-10.9571
11
10.1429
21
-10.8143
0
LINE
8
Black
10
10.1429
20
-10.8143
11
10
21
-10.6714
0
LINE
8
Black
10
10
20
-10.6714
11
9.85714
21
-10.3857
0
LINE
8
Black
10
9.85714
20
-10.3857
11
9.71429
21
-9.81429
0
LINE
8
Black
10
9.71429
20
-9.81429
11
9.71429
21
-9.1
0
LINE
8
Black
10
9.71429
20
-9.1
11
9.85714
21
-8.52857
0
LINE
8
Black
10
9.85714
20
-8.52857
11
10
21
-8.24286
0
LINE
8
Black
10
10
20
-8.24286
11
10.1429
21
-8.1
0
LINE
8
Black
10
10.1429
20
-8.1
11
10.4286
21
-7.95714
0
LINE
8
Black
10
12.7143
20
-10.9571
11
12.7143
21
-8.95714
0
LINE
8
Black
10
12.7143
20
-9.24286
11
12.8571
21
-9.1
0
LINE
8
Black
10
12.8571
20
-9.1
11
13.1429
21
-8.95714
0
LINE
8
Black
10
13.1429
20
-8.95714
11
13.5714
21
-8.95714
0
LINE
8
Black
10
13.5714
20
-8.95714
11
13.8571
21
-9.1
0
LINE
8
Black
10
13.8571
20
-9.1
11
14
21
-9.38571
0
LINE
8
Black
10
14
20
-9.38571
11
14
21
-10.9571
0
LINE
8
Black
10
14
20
-9.38571
11
14.1429
21
-9.1
0
LINE
8
Black
10
14.1429
20
-9.1
11
14.4286
21
-8.95714
0
LINE
8
Black
10
14.4286
20
-8.95714
11
14.8571
21
-8.95714
0
LINE
8
Black
10
14.8571
20
-8.95714
11
15.1429
21
-9.1
0
LINE
8
Black
10
15.1429
20
-9.1
11
15.2857
21
-9.38571
0
LINE
8
Black
10
15.2857
20
-9.38571
11
15.2857
21
-10.9571
0
LINE
8
Black
10
16.7143
20
-10.9571
11
16.7143
21
-8.95714
0
LINE
8
Black
10
16.7143
20
-9.24286
11
16.8571
21
-9.1
0
LINE
8
Black
10
16.8571
20
-9.1
11
17.1429
21
-8.95714
0
LINE
8
Black
10
17.1429
20
-8.95714
11
17.5714
21
-8.95714
0
LINE
8
Black
10
17.5714
20
-8.95714
11
17.8571
21
-9.1
0
LINE
8
Black
10
17.8571
20
-9.1
11
18
21
-9.38571
0
LINE
8
Black
10
18
20
-9.38571
11
18
21
-10.9571
0
LINE
8
Black
10
18
20
-9.38571
11
18.1429
21
-9.1
0
LINE
8
Black
10
18.1429
20
-9.1
11
18.4286
21
-8.95714
0
LINE
8
Black
10
18.4286
20
-8.95714
11
18.8571
21
-8.95714
0
LINE
8
Black
10
18.8571
20
-8.95714
11
19.1429
21
-9.1
0
LINE
8
Black
10
19.1429
20
-9.1
11
19.2857
21
-9.38571
0
LINE
8
Black
10
19.2857
20
-9.38571
11
19.2857
21
-10.9571
0
LINE
8
Black
10
25.1429
20
-7.81429
11
22.5714
21
-11.6714
0
LINE
8
Black
10
29
20
-7.95714
11
29.2857
21
-7.95714
0
LINE
8
Black
10
29.2857
20
-7.95714
11
29.5714
21
-8.1
0
LINE
8
Black
10
29.5714
20
-8.1
11
29.7143
21
-8.24286
0
LINE
8
Black
10
29.7143
20
-8.24286
11
29.8571
21
-8.52857
0
LINE
8
Black
10
29.8571
20
-8.52857
11
30
21
-9.1
0
LINE
8
Black
10
30
20
-9.1
11
30
21
-9.81429
0
LINE
8
Black
10
30
20
-9.81429
11
29.8571
21
-10.3857
0
LINE
8
Black
10
29.8571
20
-10.3857
11
29.7143
21
-10.6714
0
LINE
8
Black
10
29.7143
20
-10.6714
11
29.5714
21
-10.8143
0
LINE
8
Black
10
29.5714
20
-10.8143
11
29.2857
21
-10.9571
0
LINE
8
Black
10
29.2857
20
-10.9571
11
29
21
-10.9571
0
LINE
8
Black
10
29
20
-10.9571
11
28.7143
21
-10.8143
0
LINE
8
Black
10
28.7143
20
-10.8143
11
28.5714
21
-10.6714
0
LINE
8
Black
10
28.5714
20
-10.6714
11
28.4286
21
-10.3857
0
LINE
8
Black
10
28.4286
20
-10.3857
11
28.2857
21
-9.81429
0
LINE
8
Black
10
28.2857
20
-9.81429
11
28.2857
21
-9.1
0
LINE
8
Black
10
28.2857
20
-9.1
11
28.4286
21
-8.52857
0
LINE
8
Black
10
28.4286
20
-8.52857
11
28.5714
21
-8.24286
0
LINE
8
Black
10
28.5714
20
-8.24286
11
28.7143
21
-8.1
0
LINE
8
Black
10
28.7143
20
-8.1
11
29
21
-7.95714
0
LINE
8
Black
10
31.2857
20
-10.6714
11
31.4286
21
-10.8143
0
LINE
8
Black
10
31.4286
20
-10.8143
11
31.2857
21
-10.9571
0
LINE
8
Black
10
31.2857
20
-10.9571
11
31.1429
21
-10.8143
0
LINE
8
Black
10
31.1429
20
-10.8143
11
31.2857
21
-10.6714
0
LINE
8
Black
10
31.2857
20
-10.6714
11
31.2857
21
-10.9571
0
LINE
8
Black
10
33.2857
20
-7.95714
11
33.5714
21
-7.95714
0
LINE
8
Black
10
33.5714
20
-7.95714
11
33.8571
21
-8.1
0
LINE
8
Black
10
33.8571
20
-8.1
11
34
21
-8.24286
0
LINE
8
Black
10
34
20
-8.24286
11
34.1429
21
-8.52857
0
LINE
8
Black
10
34.1429
20
-8.52857
11
34.2857
21
-9.1
0
LINE
8
Black
10
34.2857
20
-9.1
11
34.2857
21
-9.81429
0
LINE
8
Black
10
34.2857
20
-9.81429
11
34.1429
21
-10.3857
0
LINE
8
Black
10
34.1429
20
-10.3857
11
34
21
-10.6714
0
LINE
8
Black
10
34
20
-10.6714
11
33.8571
21
-10.8143
0
LINE
8
Black
10
33.8571
20
-10.8143
11
33.5714
21
-10.9571
0
LINE
8
Black
10
33.5714
20
-10.9571
11
33.2857
21
-10.9571
0
LINE
8
Black
10
33.2857
20
-10.9571
11
33
21
-10.8143
0
LINE
8
Black
10
33
20
-10.8143
11
32.8571
21
-10.6714
0
LINE
8
Black
10
32.8571
20
-10.6714
11
32.7143
21
-10.3857
0
LINE
8
Black
10
32.7143
20
-10.3857
11
32.5714
21
-9.81429
0
LINE
8
Black
10
32.5714
20
-9.81429
11
32.5714
21
-9.1
0
LINE
8
Black
10
32.5714
20
-9.1
11
32.7143
21
-8.52857
0
LINE
8
Black
10
32.7143
20
-8.52857
11
32.8571
21
-8.24286
0
LINE
8
Black
10
32.8571
20
-8.24286
11
33
21
-8.1
0
LINE
8
Black
10
33
20
-8.1
11
33.2857
21
-7.95714
0
LINE
8
Black
10
36
20
-9.24286
11
35.7143
21
-9.1
0
LINE
8
Black
10
35.7143
20
-9.1
11
35.5714
21
-8.95714
0
LINE
8
Black
10
35.5714
20
-8.95714
11
35.4286
21
-8.67143
0
LINE
8
Black
10
35.4286
20
-8.67143
11
35.4286
21
-8.52857
0
LINE
8
Black
10
35.4286
20
-8.52857
11
35.5714
21
-8.24286
0
LINE
8
Black
10
35.5714
20
-8.24286
11
35.7143
21
-8.1
0
LINE
8
Black
10
35.7143
20
-8.1
11
36
21
-7.95714
0
LINE
8
Black
10
36
20
-7.95714
11
36.5714
21
-7.95714
0
LINE
8
Black
10
36.5714
20
-7.95714
11
36.8571
21
-8.1
0
LINE
8
Black
10
36.8571
20
-8.1
11
37
21
-8.24286
0
LINE
8
Black
10
37
20
-8.24286
11
37.1429
21
-8.52857
0
LINE
8
Black
10
37.1429
20
-8.52857
11
37.1429
21
-8.67143
0
LINE
8
Black
10
37.1429
20
-8.67143
11
37
21
-8.95714
0
LINE
8
Black
10
37
20
-8.95714
11
36.8571
21
-9.1
0
LINE
8
Black
10
36.8571
20
-9.1
11
36.5714
21
-9.24286
0
LINE
8
Black
10
36.5714
20
-9.24286
11
36
21
-9.24286
0
LINE
8
Black
10
36
20
-9.24286
11
35.7143
21
-9.38571
0
LINE
8
Black
10
35.7143
20
-9.38571
11
35.5714
21
-9.52857
0
LINE
8
Black
10
35.5714
20
-9.52857
11
35.4286
21
-9.81429
0
LINE
8
Black
10
35.4286
20
-9.81429
11
35.4286
21
-10.3857
0
LINE
8
Black
10
35.4286
20
-10.3857
11
35.5714
21
-10.6714
0
LINE
8
Black
10
35.5714
20
-10.6714
11
35.7143
21
-10.8143
0
LINE
8
Black
10
35.7143
20
-10.8143
11
36
21
-10.9571
0
LINE
8
Black
10
36
20
-10.9571
11
36.5714
21
-10.9571
0
LINE
8
Black
10
36.5714
20
-10.9571
11
36.8571
21
-10.8143
0
LINE
8
Black
10
36.8571
20
-10.8143
11
37
21
-10.6714
0
LINE
8
Black
10
37
20
-10.6714
11
37.1429
21
-10.3857
0
LINE
8
Black
10
37.1429
20
-10.3857
11
37.1429
21
-9.81429
0
LINE
8
Black
10
37.1429
20
-9.81429
11
37
21
-9.52857
0
LINE
8
Black
10
37
20
-9.52857
11
36.8571
21
-9.38571
0
LINE
8
Black
10
36.8571
20
-9.38571
11
36.5714
21
-9.24286
0
LINE
8
Black
10
38.1429
20
-7.95714
11
40.1429
21
-7.95714
0
LINE
8
Black
10
40.1429
20
-7.95714
11
38.8571
21
-10.9571
0
LINE
8
Black
10
41.1429
20
-7.95714
11
41.1429
21
-8.52857
0
LINE
8
Black
10
42.2857
20
-7.95714
11
42.2857
21
-8.52857
0
LINE
8
Black
10
46.7143
20
-12.1
11
46.5714
21
-11.9571
0
LINE
8
Black
10
46.5714
20
-11.9571
11
46.2857
21
-11.5286
0
LINE
8
Black
10
46.2857
20
-11.5286
11
46.1429
21
-11.2429
0
LINE
8
Black
10
46.1429
20
-11.2429
11
46
21
-10.8143
0
LINE
8
Black
10
46
20
-10.8143
11
45.8571
21
-10.1
0
LINE
8
Black
10
45.8571
20
-10.1
11
45.8571
21
-9.52857
0
LINE
8
Black
10
45.8571
20
-9.52857
11
46
21
-8.81429
0
LINE
8
Black
10
46
20
-8.81429
11
46.1429
21
-8.38571
0
LINE
8
Black
10
46.1429
20
-8.38571
11
46.2857
21
-8.1
0
LINE
8
Black
10
46.2857
20
-8.1
11
46.5714
21
-7.67143
0
LINE
8
Black
10
46.5714
20
-7.67143
11
46.7143
21
-7.52857
0
LINE
8
Black
10
49.1429
20
-8.95714
11
49.1429
21
-10.9571
0
LINE
8
Black
10
48.4286
20
-7.81429
11
47.7143
21
-9.95714
0
LINE
8
Black
10
47.7143
20
-9.95714
11
49.5714
21
-9.95714
0
LINE
8
Black
10
53
20
-10.9571
11
53
21
-7.95714
0
LINE
8
Black
10
54.2857
20
-10.9571
11
54.2857
21
-9.38571
0
LINE
8
Black
10
54.2857
20
-9.38571
11
54.1429
21
-9.1
0
LINE
8
Black
10
54.1429
20
-9.1
11
53.8571
21
-8.95714
0
LINE
8
Black
10
53.8571
20
-8.95714
11
53.4286
21
-8.95714
0
LINE
8
Black
10
53.4286
20
-8.95714
11
53.1429
21
-9.1
0
LINE
8
Black
10
53.1429
20
-9.1
11
53
21
-9.24286
0
LINE
8
Black
10
56.1429
20
-10.9571
11
55.8571
21
-10.8143
0
LINE
8
Black
10
55.8571
20
-10.8143
11
55.7143
21
-10.6714
0
LINE
8
Black
10
55.7143
20
-10.6714
11
55.5714
21
-10.3857
0
LINE
8
Black
10
55.5714
20
-10.3857
11
55.5714
21
-9.52857
0
LINE
8
Black
10
55.5714
20
-9.52857
11
55.7143
21
-9.24286
0
LINE
8
Black
10
55.7143
20
-9.24286
11
55.8571
21
-9.1
0
LINE
8
Black
10
55.8571
20
-9.1
11
56.1429
21
-8.95714
0
LINE
8
Black
10
56.1429
20
-8.95714
11
56.5714
21
-8.95714
0
LINE
8
Black
10
56.5714
20
-8.95714
11
56.8571
21
-9.1
0
LINE
8
Black
10
56.8571
20
-9.1
11
57
21
-9.24286
0
LINE
8
Black
10
57
20
-9.24286
11
57.1429
21
-9.52857
0
LINE
8
Black
10
57.1429
20
-9.52857
11
57.1429
21
-10.3857
0
LINE
8
Black
10
57.1429
20
-10.3857
11
57
21
-10.6714
0
LINE
8
Black
10
57
20
-10.6714
11
56.8571
21
-10.8143
0
LINE
8
Black
10
56.8571
20
-10.8143
11
56.5714
21
-10.9571
0
LINE
8
Black
10
56.5714
20
-10.9571
11
56.1429
21
-10.9571
0
LINE
8
Black
10
58.8571
20
-10.9571
11
58.5714
21
-10.8143
0
LINE
8
Black
10
58.5714
20
-10.8143
11
58.4286
21
-10.5286
0
LINE
8
Black
10
58.4286
20
-10.5286
11
58.4286
21
-7.95714
0
LINE
8
Black
10
61.1429
20
-10.8143
11
60.8571
21
-10.9571
0
LINE
8
Black
10
60.8571
20
-10.9571
11
60.2857
21
-10.9571
0
LINE
8
Black
10
60.2857
20
-10.9571
11
60
21
-10.8143
0
LINE
8
Black
10
60
20
-10.8143
11
59.8571
21
-10.5286
0
LINE
8
Black
10
59.8571
20
-10.5286
11
59.8571
21
-9.38571
0
LINE
8
Black
10
59.8571
20
-9.38571
11
60
21
-9.1
0
LINE
8
Black
10
60
20
-9.1
11
60.2857
21
-8.95714
0
LINE
8
Black
10
60.2857
20
-8.95714
11
60.8571
21
-8.95714
0
LINE
8
Black
10
60.8571
20
-8.95714
11
61.1429
21
-9.1
0
LINE
8
Black
10
61.1429
20
-9.1
11
61.2857
21
-9.38571
0
LINE
8
Black
10
61.2857
20
-9.38571
11
61.2857
21
-9.67143
0
LINE
8
Black
10
61.2857
20
-9.67143
11
59.8571
21
-9.95714
0
LINE
8
Black
10
62.4286
20
-10.8143
11
62.7143
21
-10.9571
0
LINE
8
Black
10
62.7143
20
-10.9571
11
63.2857
21
-10.9571
0
LINE
8
Black
10
63.2857
20
-10.9571
11
63.5714
21
-10.8143
0
LINE
8
Black
10
63.5714
20
-10.8143
11
63.7143
21
-10.5286
0
LINE
8
Black
10
63.7143
20
-10.5286
11
63.7143
21
-10.3857
0
LINE
8
Black
10
63.7143
20
-10.3857
11
63.5714
21
-10.1
0
LINE
8
Black
10
63.5714
20
-10.1
11
63.2857
21
-9.95714
0
LINE
8
Black
10
63.2857
20
-9.95714
11
62.8571
21
-9.95714
0
LINE
8
Black
10
62.8571
20
-9.95714
11
62.5714
21
-9.81429
0
LINE
8
Black
10
62.5714
20
-9.81429
11
62.4286
21
-9.52857
0
LINE
8
Black
10
62.4286
20
-9.52857
11
62.4286
21
-9.38571
0
LINE
8
Black
10
62.4286
20
-9.38571
11
62.5714
21
-9.1
0
LINE
8
Black
10
62.5714
20
-9.1
11
62.8571
21
-8.95714
0
LINE
8
Black
10
62.8571
20
-8.95714
11
63.2857
21
-8.95714
0
LINE
8
Black
10
63.2857
20
-8.95714
11
63.5714
21
-9.1
0
LINE
8
Black
10
64.7143
20
-12.1
11
64.8571
21
-11.9571
0
LINE
8
Black
10
64.8571
20
-11.9571
11
65.1429
21
-11.5286
0
LINE
8
Black
10
65.1429
20
-11.5286
11
65.2857
21
-11.2429
0
LINE
8
Black
10
65.2857
20
-11.2429
11
65.4286
21
-10.8143
0
LINE
8
Black
10
65.4286
20
-10.8143
11
65.5714
21
-10.1
0
LINE
8
Black
10
65.5714
20
-10.1
11
65.5714
21
-9.52857
0
LINE
8
Black
10
65.5714
20
-9.52857
11
65.4286
21
-8.81429
0
LINE
8
Black
10
65.4286
20
-8.81429
11
65.2857
21
-8.38571
0
LINE
8
Black
10
65.2857
20
-8.38571
11
65.1429
21
-8.1
0
LINE
8
Black
10
65.1429
20
-8.1
11
64.8571
21
-7.67143
0
LINE
8
Black
10
64.8571
20
-7.67143
11
64.7143
21
-7.52857
0
LINE
8
Black
10
70.1429
20
-12.1
11
70
21
-11.9571
0
LINE
8
Black
10
70
20
-11.9571
11
69.7143
21
-11.5286
0
LINE
8
Black
10
69.7143
20
-11.5286
11
69.5714
21
-11.2429
0
LINE
8
Black
10
69.5714
20
-11.2429
11
69.4286
21
-10.8143
0
LINE
8
Black
10
69.4286
20
-10.8143
11
69.2857
21
-10.1
0
LINE
8
Black
10
69.2857
20
-10.1
11
69.2857
21
-9.52857
0
LINE
8
Black
10
69.2857
20
-9.52857
11
69.4286
21
-8.81429
0
LINE
8
Black
10
69.4286
20
-8.81429
11
69.5714
21
-8.38571
0
LINE
8
Black
10
69.5714
20
-8.38571
11
69.7143
21
-8.1
0
LINE
8
Black
10
69.7143
20
-8.1
11
70
21
-7.67143
0
LINE
8
Black
10
70
20
-7.67143
11
70.1429
21
-7.52857
0
LINE
8
Black
10
71.2857
20
-8.95714
11
71.2857
21
-10.9571
0
LINE
8
Black
10
71.2857
20
-9.24286
11
71.4286
21
-9.1
0
LINE
8
Black
10
71.4286
20
-9.1
11
71.7143
21
-8.95714
0
LINE
8
Black
10
71.7143
20
-8.95714
11
72.1429
21
-8.95714
0
LINE
8
Black
10
72.1429
20
-8.95714
11
72.4286
21
-9.1
0
LINE
8
Black
10
72.4286
20
-9.1
11
72.5714
21
-9.38571
0
LINE
8
Black
10
72.5714
20
-9.38571
11
72.5714
21
-10.9571
0
LINE
8
Black
10
74.4286
20
-10.9571
11
74.1429
21
-10.8143
0
LINE
8
Black
10
74.1429
20
-10.8143
11
74
21
-10.6714
0
LINE
8
Black
10
74
20
-10.6714
11
73.8571
21
-10.3857
0
LINE
8
Black
10
73.8571
20
-10.3857
11
73.8571
21
-9.52857
0
LINE
8
Black
10
73.8571
20
-9.52857
11
74
21
-9.24286
0
LINE
8
Black
10
74
20
-9.24286
11
74.1429
21
-9.1
0
LINE
8
Black
10
74.1429
20
-9.1
11
74.4286
21
-8.95714
0
LINE
8
Black
10
74.4286
20
-8.95714
11
74.8571
21
-8.95714
0
LINE
8
Black
10
74.8571
20
-8.95714
11
75.1429
21
-9.1
0
LINE
8
Black
10
75.1429
20
-9.1
11
75.2857
21
-9.24286
0
LINE
8
Black
10
75.2857
20
-9.24286
11
75.4286
21
-9.52857
0
LINE
8
Black
10
75.4286
20
-9.52857
11
75.4286
21
-10.3857
0
LINE
8
Black
10
75.4286
20
-10.3857
11
75.2857
21
-10.6714
0
LINE
8
Black
10
75.2857
20
-10.6714
11
75.1429
21
-10.8143
0
LINE
8
Black
10
75.1429
20
-10.8143
11
74.8571
21
-10.9571
0
LINE
8
Black
10
74.8571
20
-10.9571
11
74.4286
21
-10.9571
0
LINE
8
Black
10
76.2857
20
-8.95714
11
77.4286
21
-8.95714
0
LINE
8
Black
10
76.7143
20
-7.95714
11
76.7143
21
-10.5286
0
LINE
8
Black
10
76.7143
20
-10.5286
11
76.8571
21
-10.8143
0
LINE
8
Black
10
76.8571
20
-10.8143
11
77.1429
21
-10.9571
0
LINE
8
Black
10
77.1429
20
-10.9571
11
77.4286
21
-10.9571
0
LINE
8
Black
10
80.7143
20
-8.95714
11
80.7143
21
-11.9571
0
LINE
8
Black
10
80.7143
20
-9.1
11
81
21
-8.95714
0
LINE
8
Black
10
81
20
-8.95714
11
81.5714
21
-8.95714
0
LINE
8
Black
10
81.5714
20
-8.95714
11
81.8571
21
-9.1
0
LINE
8
Black
10
81.8571
20
-9.1
11
82
21
-9.24286
0
LINE
8
Black
10
82
20
-9.24286
11
82.1429
21
-9.52857
0
LINE
8
Black
10
82.1429
20
-9.52857
11
82.1429
21
-10.3857
0
LINE
8
Black
10
82.1429
20
-10.3857
11
82
21
-10.6714
0
LINE
8
Black
10
82
20
-10.6714
11
81.8571
21
-10.8143
0
LINE
8
Black
10
81.8571
20
-10.8143
11
81.5714
21
-10.9571
0
LINE
8
Black
10
81.5714
20
-10.9571
11
81
21
-10.9571
0
LINE
8
Black
10
81
20
-10.9571
11
80.7143
21
-10.8143
0
LINE
8
Black
10
83.8571
20
-10.9571
11
83.5714
21
-10.8143
0
LINE
8
Black
10
83.5714
20
-10.8143
11
83.4286
21
-10.5286
0
LINE
8
Black
10
83.4286
20
-10.5286
11
83.4286
21
-7.95714
0
LINE
8
Black
10
86.2857
20
-10.9571
11
86.2857
21
-9.38571
0
LINE
8
Black
10
86.2857
20
-9.38571
11
86.1429
21
-9.1
0
LINE
8
Black
10
86.1429
20
-9.1
11
85.8571
21
-8.95714
0
LINE
8
Black
10
85.8571
20
-8.95714
11
85.2857
21
-8.95714
0
LINE
8
Black
10
85.2857
20
-8.95714
11
85
21
-9.1
0
LINE
8
Black
10
86.2857
20
-10.8143
11
86
21
-10.9571
0
LINE
8
Black
10
86
20
-10.9571
11
85.2857
21
-10.9571
0
LINE
8
Black
10
85.2857
20
-10.9571
11
85
21
-10.8143
0
LINE
8
Black
10
85
20
-10.8143
11
84.8571
21
-10.5286
0
LINE
8
Black
10
84.8571
20
-10.5286
11
84.8571
21
-10.2429
0
LINE
8
Black
10
84.8571
20
-10.2429
11
85
21
-9.95714
0
LINE
8
Black
10
85
20
-9.95714
11
85.2857
21
-9.81429
0
LINE
8
Black
10
85.2857
20
-9.81429
11
86
21
-9.81429
0
LINE
8
Black
10
86
20
-9.81429
11
86.2857
21
-9.67143
0
LINE
8
Black
10
87.2857
20
-8.95714
11
88.4286
21
-8.95714
0
LINE
8
Black
10
87.7143
20
-7.95714
11
87.7143
21
-10.5286
0
LINE
8
Black
10
87.7143
20
-10.5286
11
87.8571
21
-10.8143
0
LINE
8
Black
10
87.8571
20
-10.8143
11
88.1429
21
-10.9571
0
LINE
8
Black
10
88.1429
20
-10.9571
11
88.4286
21
-10.9571
0
LINE
8
Black
10
90.5714
20
-10.8143
11
90.2857
21
-10.9571
0
LINE
8
Black
10
90.2857
20
-10.9571
11
89.7143
21
-10.9571
0
LINE
8
Black
10
89.7143
20
-10.9571
11
89.4286
21
-10.8143
0
LINE
8
Black
10
89.4286
20
-10.8143
11
89.2857
21
-10.5286
0
LINE
8
Black
10
89.2857
20
-10.5286
11
89.2857
21
-9.38571
0
LINE
8
Black
10
89.2857
20
-9.38571
11
89.4286
21
-9.1
0
LINE
8
Black
10
89.4286
20
-9.1
11
89.7143
21
-8.95714
0
LINE
8
Black
10
89.7143
20
-8.95714
11
90.2857
21
-8.95714
0
LINE
8
Black
10
90.2857
20
-8.95714
11
90.5714
21
-9.1
0
LINE
8
Black
10
90.5714
20
-9.1
11
90.7143
21
-9.38571
0
LINE
8
Black
10
90.7143
20
-9.38571
11
90.7143
21
-9.67143
0
LINE
8
Black
10
90.7143
20
-9.67143
11
89.2857
21
-9.95714
0
LINE
8
Black
10
93.2857
20
-10.9571
11
93.2857
21
-7.95714
0
LINE
8
Black
10
93.2857
20
-10.8143
11
93
21
-10.9571
0
LINE
8
Black
10
93
20
-10.9571
11
92.4286
21
-10.9571
0
LINE
8
Black
10
92.4286
20
-10.9571
11
92.1429
21
-10.8143
0
LINE
8
Black
10
92.1429
20
-10.8143
11
92
21
-10.6714
0
LINE
8
Black
10
92
20
-10.6714
11
91.8571
21
-10.3857
0
LINE
8
Black
10
91.8571
20
-10.3857
11
91.8571
21
-9.52857
0
LINE
8
Black
10
91.8571
20
-9.52857
11
92
21
-9.24286
0
LINE
8
Black
10
92
20
-9.24286
11
92.1429
21
-9.1
0
LINE
8
Black
10
92.1429
20
-9.1
11
92.4286
21
-8.95714
0
LINE
8
Black
10
92.4286
20
-8.95714
11
93
21
-8.95714
0
LINE
8
Black
10
93
20
-8.95714
11
93.2857
21
-9.1
0
LINE
8
Black
10
94.4286
20
-12.1
11
94.5714
21
-11.9571
0
LINE
8
Black
10
94.5714
20
-11.9571
11
94.8571
21
-11.5286
0
LINE
8
Black
10
94.8571
20
-11.5286
11
95
21
-11.2429
0
LINE
8
Black
10
95
20
-11.2429
11
95.1429
21
-10.8143
0
LINE
8
Black
10
95.1429
20
-10.8143
11
95.2857
21
-10.1
0
LINE
8
Black
10
95.2857
20
-10.1
11
95.2857
21
-9.52857
0
LINE
8
Black
10
95.2857
20
-9.52857
11
95.1429
21
-8.81429
0
LINE
8
Black
10
95.1429
20
-8.81429
11
95
21
-8.38571
0
LINE
8
Black
10
95
20
-8.38571
11
94.8571
21
-8.1
0
LINE
8
Black
10
94.8571
20
-8.1
11
94.5714
21
-7.67143
0
LINE
8
Black
10
94.5714
20
-7.67143
11
94.4286
21
-7.52857
  0
ENDSEC
  0
EOF
