G04 #@! TF.FileFunction,Other,Fab,Top*
%FSLAX46Y46*%
G04 Gerber Fmt 4.6, Leading zero omitted, Abs format (unit mm)*
G04 Created by KiCad (PCBNEW 4.0.1-stable) date 26/09/2016 11:32:39 a. m.*
%MOMM*%
G01*
G04 APERTURE LIST*
%ADD10C,0.100000*%
%ADD11C,0.050000*%
G04 APERTURE END LIST*
D10*
D11*
X168176192Y-96590476D02*
X168176192Y-96390476D01*
X168242859Y-96533333D01*
X168309525Y-96390476D01*
X168309525Y-96590476D01*
X168433334Y-96590476D02*
X168414287Y-96580952D01*
X168404763Y-96571429D01*
X168395239Y-96552381D01*
X168395239Y-96495238D01*
X168404763Y-96476190D01*
X168414287Y-96466667D01*
X168433334Y-96457143D01*
X168461906Y-96457143D01*
X168480954Y-96466667D01*
X168490477Y-96476190D01*
X168500001Y-96495238D01*
X168500001Y-96552381D01*
X168490477Y-96571429D01*
X168480954Y-96580952D01*
X168461906Y-96590476D01*
X168433334Y-96590476D01*
X168671429Y-96457143D02*
X168671429Y-96590476D01*
X168585715Y-96457143D02*
X168585715Y-96561905D01*
X168595239Y-96580952D01*
X168614286Y-96590476D01*
X168642858Y-96590476D01*
X168661906Y-96580952D01*
X168671429Y-96571429D01*
X168766667Y-96457143D02*
X168766667Y-96590476D01*
X168766667Y-96476190D02*
X168776191Y-96466667D01*
X168795238Y-96457143D01*
X168823810Y-96457143D01*
X168842858Y-96466667D01*
X168852381Y-96485714D01*
X168852381Y-96590476D01*
X168919048Y-96457143D02*
X168995238Y-96457143D01*
X168947619Y-96390476D02*
X168947619Y-96561905D01*
X168957143Y-96580952D01*
X168976190Y-96590476D01*
X168995238Y-96590476D01*
X169061905Y-96590476D02*
X169061905Y-96457143D01*
X169061905Y-96390476D02*
X169052381Y-96400000D01*
X169061905Y-96409524D01*
X169071429Y-96400000D01*
X169061905Y-96390476D01*
X169061905Y-96409524D01*
X169157143Y-96457143D02*
X169157143Y-96590476D01*
X169157143Y-96476190D02*
X169166667Y-96466667D01*
X169185714Y-96457143D01*
X169214286Y-96457143D01*
X169233334Y-96466667D01*
X169242857Y-96485714D01*
X169242857Y-96590476D01*
X169423809Y-96457143D02*
X169423809Y-96619048D01*
X169414286Y-96638095D01*
X169404762Y-96647619D01*
X169385714Y-96657143D01*
X169357143Y-96657143D01*
X169338095Y-96647619D01*
X169423809Y-96580952D02*
X169404762Y-96590476D01*
X169366666Y-96590476D01*
X169347619Y-96580952D01*
X169338095Y-96571429D01*
X169328571Y-96552381D01*
X169328571Y-96495238D01*
X169338095Y-96476190D01*
X169347619Y-96466667D01*
X169366666Y-96457143D01*
X169404762Y-96457143D01*
X169423809Y-96466667D01*
X169519047Y-96590476D02*
X169519047Y-96390476D01*
X169519047Y-96485714D02*
X169633333Y-96485714D01*
X169633333Y-96590476D02*
X169633333Y-96390476D01*
X169757142Y-96590476D02*
X169738095Y-96580952D01*
X169728571Y-96571429D01*
X169719047Y-96552381D01*
X169719047Y-96495238D01*
X169728571Y-96476190D01*
X169738095Y-96466667D01*
X169757142Y-96457143D01*
X169785714Y-96457143D01*
X169804762Y-96466667D01*
X169814285Y-96476190D01*
X169823809Y-96495238D01*
X169823809Y-96552381D01*
X169814285Y-96571429D01*
X169804762Y-96580952D01*
X169785714Y-96590476D01*
X169757142Y-96590476D01*
X169938094Y-96590476D02*
X169919047Y-96580952D01*
X169909523Y-96561905D01*
X169909523Y-96390476D01*
X170090476Y-96580952D02*
X170071428Y-96590476D01*
X170033333Y-96590476D01*
X170014285Y-96580952D01*
X170004761Y-96561905D01*
X170004761Y-96485714D01*
X170014285Y-96466667D01*
X170033333Y-96457143D01*
X170071428Y-96457143D01*
X170090476Y-96466667D01*
X170099999Y-96485714D01*
X170099999Y-96504762D01*
X170004761Y-96523810D01*
X170138095Y-96609524D02*
X170290476Y-96609524D01*
X170328571Y-96409524D02*
X170338095Y-96400000D01*
X170357143Y-96390476D01*
X170404762Y-96390476D01*
X170423809Y-96400000D01*
X170433333Y-96409524D01*
X170442857Y-96428571D01*
X170442857Y-96447619D01*
X170433333Y-96476190D01*
X170319047Y-96590476D01*
X170442857Y-96590476D01*
X170528571Y-96571429D02*
X170538095Y-96580952D01*
X170528571Y-96590476D01*
X170519047Y-96580952D01*
X170528571Y-96571429D01*
X170528571Y-96590476D01*
X170614285Y-96409524D02*
X170623809Y-96400000D01*
X170642857Y-96390476D01*
X170690476Y-96390476D01*
X170709523Y-96400000D01*
X170719047Y-96409524D01*
X170728571Y-96428571D01*
X170728571Y-96447619D01*
X170719047Y-96476190D01*
X170604761Y-96590476D01*
X170728571Y-96590476D01*
X170814285Y-96590476D02*
X170814285Y-96457143D01*
X170814285Y-96476190D02*
X170823809Y-96466667D01*
X170842856Y-96457143D01*
X170871428Y-96457143D01*
X170890476Y-96466667D01*
X170899999Y-96485714D01*
X170899999Y-96590476D01*
X170899999Y-96485714D02*
X170909523Y-96466667D01*
X170928571Y-96457143D01*
X170957142Y-96457143D01*
X170976190Y-96466667D01*
X170985714Y-96485714D01*
X170985714Y-96590476D01*
X171080952Y-96590476D02*
X171080952Y-96457143D01*
X171080952Y-96476190D02*
X171090476Y-96466667D01*
X171109523Y-96457143D01*
X171138095Y-96457143D01*
X171157143Y-96466667D01*
X171166666Y-96485714D01*
X171166666Y-96590476D01*
X171166666Y-96485714D02*
X171176190Y-96466667D01*
X171195238Y-96457143D01*
X171223809Y-96457143D01*
X171242857Y-96466667D01*
X171252381Y-96485714D01*
X171252381Y-96590476D01*
X171300000Y-96609524D02*
X171452381Y-96609524D01*
X171500000Y-96590476D02*
X171500000Y-96390476D01*
X171566667Y-96533333D01*
X171633333Y-96390476D01*
X171633333Y-96590476D01*
X171719047Y-96409524D02*
X171728571Y-96400000D01*
X171747619Y-96390476D01*
X171795238Y-96390476D01*
X171814285Y-96400000D01*
X171823809Y-96409524D01*
X171833333Y-96428571D01*
X171833333Y-96447619D01*
X171823809Y-96476190D01*
X171709523Y-96590476D01*
X171833333Y-96590476D01*
X168176192Y-116590476D02*
X168176192Y-116390476D01*
X168242859Y-116533333D01*
X168309525Y-116390476D01*
X168309525Y-116590476D01*
X168433334Y-116590476D02*
X168414287Y-116580952D01*
X168404763Y-116571429D01*
X168395239Y-116552381D01*
X168395239Y-116495238D01*
X168404763Y-116476190D01*
X168414287Y-116466667D01*
X168433334Y-116457143D01*
X168461906Y-116457143D01*
X168480954Y-116466667D01*
X168490477Y-116476190D01*
X168500001Y-116495238D01*
X168500001Y-116552381D01*
X168490477Y-116571429D01*
X168480954Y-116580952D01*
X168461906Y-116590476D01*
X168433334Y-116590476D01*
X168671429Y-116457143D02*
X168671429Y-116590476D01*
X168585715Y-116457143D02*
X168585715Y-116561905D01*
X168595239Y-116580952D01*
X168614286Y-116590476D01*
X168642858Y-116590476D01*
X168661906Y-116580952D01*
X168671429Y-116571429D01*
X168766667Y-116457143D02*
X168766667Y-116590476D01*
X168766667Y-116476190D02*
X168776191Y-116466667D01*
X168795238Y-116457143D01*
X168823810Y-116457143D01*
X168842858Y-116466667D01*
X168852381Y-116485714D01*
X168852381Y-116590476D01*
X168919048Y-116457143D02*
X168995238Y-116457143D01*
X168947619Y-116390476D02*
X168947619Y-116561905D01*
X168957143Y-116580952D01*
X168976190Y-116590476D01*
X168995238Y-116590476D01*
X169061905Y-116590476D02*
X169061905Y-116457143D01*
X169061905Y-116390476D02*
X169052381Y-116400000D01*
X169061905Y-116409524D01*
X169071429Y-116400000D01*
X169061905Y-116390476D01*
X169061905Y-116409524D01*
X169157143Y-116457143D02*
X169157143Y-116590476D01*
X169157143Y-116476190D02*
X169166667Y-116466667D01*
X169185714Y-116457143D01*
X169214286Y-116457143D01*
X169233334Y-116466667D01*
X169242857Y-116485714D01*
X169242857Y-116590476D01*
X169423809Y-116457143D02*
X169423809Y-116619048D01*
X169414286Y-116638095D01*
X169404762Y-116647619D01*
X169385714Y-116657143D01*
X169357143Y-116657143D01*
X169338095Y-116647619D01*
X169423809Y-116580952D02*
X169404762Y-116590476D01*
X169366666Y-116590476D01*
X169347619Y-116580952D01*
X169338095Y-116571429D01*
X169328571Y-116552381D01*
X169328571Y-116495238D01*
X169338095Y-116476190D01*
X169347619Y-116466667D01*
X169366666Y-116457143D01*
X169404762Y-116457143D01*
X169423809Y-116466667D01*
X169519047Y-116590476D02*
X169519047Y-116390476D01*
X169519047Y-116485714D02*
X169633333Y-116485714D01*
X169633333Y-116590476D02*
X169633333Y-116390476D01*
X169757142Y-116590476D02*
X169738095Y-116580952D01*
X169728571Y-116571429D01*
X169719047Y-116552381D01*
X169719047Y-116495238D01*
X169728571Y-116476190D01*
X169738095Y-116466667D01*
X169757142Y-116457143D01*
X169785714Y-116457143D01*
X169804762Y-116466667D01*
X169814285Y-116476190D01*
X169823809Y-116495238D01*
X169823809Y-116552381D01*
X169814285Y-116571429D01*
X169804762Y-116580952D01*
X169785714Y-116590476D01*
X169757142Y-116590476D01*
X169938094Y-116590476D02*
X169919047Y-116580952D01*
X169909523Y-116561905D01*
X169909523Y-116390476D01*
X170090476Y-116580952D02*
X170071428Y-116590476D01*
X170033333Y-116590476D01*
X170014285Y-116580952D01*
X170004761Y-116561905D01*
X170004761Y-116485714D01*
X170014285Y-116466667D01*
X170033333Y-116457143D01*
X170071428Y-116457143D01*
X170090476Y-116466667D01*
X170099999Y-116485714D01*
X170099999Y-116504762D01*
X170004761Y-116523810D01*
X170138095Y-116609524D02*
X170290476Y-116609524D01*
X170328571Y-116409524D02*
X170338095Y-116400000D01*
X170357143Y-116390476D01*
X170404762Y-116390476D01*
X170423809Y-116400000D01*
X170433333Y-116409524D01*
X170442857Y-116428571D01*
X170442857Y-116447619D01*
X170433333Y-116476190D01*
X170319047Y-116590476D01*
X170442857Y-116590476D01*
X170528571Y-116571429D02*
X170538095Y-116580952D01*
X170528571Y-116590476D01*
X170519047Y-116580952D01*
X170528571Y-116571429D01*
X170528571Y-116590476D01*
X170614285Y-116409524D02*
X170623809Y-116400000D01*
X170642857Y-116390476D01*
X170690476Y-116390476D01*
X170709523Y-116400000D01*
X170719047Y-116409524D01*
X170728571Y-116428571D01*
X170728571Y-116447619D01*
X170719047Y-116476190D01*
X170604761Y-116590476D01*
X170728571Y-116590476D01*
X170814285Y-116590476D02*
X170814285Y-116457143D01*
X170814285Y-116476190D02*
X170823809Y-116466667D01*
X170842856Y-116457143D01*
X170871428Y-116457143D01*
X170890476Y-116466667D01*
X170899999Y-116485714D01*
X170899999Y-116590476D01*
X170899999Y-116485714D02*
X170909523Y-116466667D01*
X170928571Y-116457143D01*
X170957142Y-116457143D01*
X170976190Y-116466667D01*
X170985714Y-116485714D01*
X170985714Y-116590476D01*
X171080952Y-116590476D02*
X171080952Y-116457143D01*
X171080952Y-116476190D02*
X171090476Y-116466667D01*
X171109523Y-116457143D01*
X171138095Y-116457143D01*
X171157143Y-116466667D01*
X171166666Y-116485714D01*
X171166666Y-116590476D01*
X171166666Y-116485714D02*
X171176190Y-116466667D01*
X171195238Y-116457143D01*
X171223809Y-116457143D01*
X171242857Y-116466667D01*
X171252381Y-116485714D01*
X171252381Y-116590476D01*
X171300000Y-116609524D02*
X171452381Y-116609524D01*
X171500000Y-116590476D02*
X171500000Y-116390476D01*
X171566667Y-116533333D01*
X171633333Y-116390476D01*
X171633333Y-116590476D01*
X171719047Y-116409524D02*
X171728571Y-116400000D01*
X171747619Y-116390476D01*
X171795238Y-116390476D01*
X171814285Y-116400000D01*
X171823809Y-116409524D01*
X171833333Y-116428571D01*
X171833333Y-116447619D01*
X171823809Y-116476190D01*
X171709523Y-116590476D01*
X171833333Y-116590476D01*
X118176192Y-116590476D02*
X118176192Y-116390476D01*
X118242859Y-116533333D01*
X118309525Y-116390476D01*
X118309525Y-116590476D01*
X118433334Y-116590476D02*
X118414287Y-116580952D01*
X118404763Y-116571429D01*
X118395239Y-116552381D01*
X118395239Y-116495238D01*
X118404763Y-116476190D01*
X118414287Y-116466667D01*
X118433334Y-116457143D01*
X118461906Y-116457143D01*
X118480954Y-116466667D01*
X118490477Y-116476190D01*
X118500001Y-116495238D01*
X118500001Y-116552381D01*
X118490477Y-116571429D01*
X118480954Y-116580952D01*
X118461906Y-116590476D01*
X118433334Y-116590476D01*
X118671429Y-116457143D02*
X118671429Y-116590476D01*
X118585715Y-116457143D02*
X118585715Y-116561905D01*
X118595239Y-116580952D01*
X118614286Y-116590476D01*
X118642858Y-116590476D01*
X118661906Y-116580952D01*
X118671429Y-116571429D01*
X118766667Y-116457143D02*
X118766667Y-116590476D01*
X118766667Y-116476190D02*
X118776191Y-116466667D01*
X118795238Y-116457143D01*
X118823810Y-116457143D01*
X118842858Y-116466667D01*
X118852381Y-116485714D01*
X118852381Y-116590476D01*
X118919048Y-116457143D02*
X118995238Y-116457143D01*
X118947619Y-116390476D02*
X118947619Y-116561905D01*
X118957143Y-116580952D01*
X118976190Y-116590476D01*
X118995238Y-116590476D01*
X119061905Y-116590476D02*
X119061905Y-116457143D01*
X119061905Y-116390476D02*
X119052381Y-116400000D01*
X119061905Y-116409524D01*
X119071429Y-116400000D01*
X119061905Y-116390476D01*
X119061905Y-116409524D01*
X119157143Y-116457143D02*
X119157143Y-116590476D01*
X119157143Y-116476190D02*
X119166667Y-116466667D01*
X119185714Y-116457143D01*
X119214286Y-116457143D01*
X119233334Y-116466667D01*
X119242857Y-116485714D01*
X119242857Y-116590476D01*
X119423809Y-116457143D02*
X119423809Y-116619048D01*
X119414286Y-116638095D01*
X119404762Y-116647619D01*
X119385714Y-116657143D01*
X119357143Y-116657143D01*
X119338095Y-116647619D01*
X119423809Y-116580952D02*
X119404762Y-116590476D01*
X119366666Y-116590476D01*
X119347619Y-116580952D01*
X119338095Y-116571429D01*
X119328571Y-116552381D01*
X119328571Y-116495238D01*
X119338095Y-116476190D01*
X119347619Y-116466667D01*
X119366666Y-116457143D01*
X119404762Y-116457143D01*
X119423809Y-116466667D01*
X119519047Y-116590476D02*
X119519047Y-116390476D01*
X119519047Y-116485714D02*
X119633333Y-116485714D01*
X119633333Y-116590476D02*
X119633333Y-116390476D01*
X119757142Y-116590476D02*
X119738095Y-116580952D01*
X119728571Y-116571429D01*
X119719047Y-116552381D01*
X119719047Y-116495238D01*
X119728571Y-116476190D01*
X119738095Y-116466667D01*
X119757142Y-116457143D01*
X119785714Y-116457143D01*
X119804762Y-116466667D01*
X119814285Y-116476190D01*
X119823809Y-116495238D01*
X119823809Y-116552381D01*
X119814285Y-116571429D01*
X119804762Y-116580952D01*
X119785714Y-116590476D01*
X119757142Y-116590476D01*
X119938094Y-116590476D02*
X119919047Y-116580952D01*
X119909523Y-116561905D01*
X119909523Y-116390476D01*
X120090476Y-116580952D02*
X120071428Y-116590476D01*
X120033333Y-116590476D01*
X120014285Y-116580952D01*
X120004761Y-116561905D01*
X120004761Y-116485714D01*
X120014285Y-116466667D01*
X120033333Y-116457143D01*
X120071428Y-116457143D01*
X120090476Y-116466667D01*
X120099999Y-116485714D01*
X120099999Y-116504762D01*
X120004761Y-116523810D01*
X120138095Y-116609524D02*
X120290476Y-116609524D01*
X120328571Y-116409524D02*
X120338095Y-116400000D01*
X120357143Y-116390476D01*
X120404762Y-116390476D01*
X120423809Y-116400000D01*
X120433333Y-116409524D01*
X120442857Y-116428571D01*
X120442857Y-116447619D01*
X120433333Y-116476190D01*
X120319047Y-116590476D01*
X120442857Y-116590476D01*
X120528571Y-116571429D02*
X120538095Y-116580952D01*
X120528571Y-116590476D01*
X120519047Y-116580952D01*
X120528571Y-116571429D01*
X120528571Y-116590476D01*
X120614285Y-116409524D02*
X120623809Y-116400000D01*
X120642857Y-116390476D01*
X120690476Y-116390476D01*
X120709523Y-116400000D01*
X120719047Y-116409524D01*
X120728571Y-116428571D01*
X120728571Y-116447619D01*
X120719047Y-116476190D01*
X120604761Y-116590476D01*
X120728571Y-116590476D01*
X120814285Y-116590476D02*
X120814285Y-116457143D01*
X120814285Y-116476190D02*
X120823809Y-116466667D01*
X120842856Y-116457143D01*
X120871428Y-116457143D01*
X120890476Y-116466667D01*
X120899999Y-116485714D01*
X120899999Y-116590476D01*
X120899999Y-116485714D02*
X120909523Y-116466667D01*
X120928571Y-116457143D01*
X120957142Y-116457143D01*
X120976190Y-116466667D01*
X120985714Y-116485714D01*
X120985714Y-116590476D01*
X121080952Y-116590476D02*
X121080952Y-116457143D01*
X121080952Y-116476190D02*
X121090476Y-116466667D01*
X121109523Y-116457143D01*
X121138095Y-116457143D01*
X121157143Y-116466667D01*
X121166666Y-116485714D01*
X121166666Y-116590476D01*
X121166666Y-116485714D02*
X121176190Y-116466667D01*
X121195238Y-116457143D01*
X121223809Y-116457143D01*
X121242857Y-116466667D01*
X121252381Y-116485714D01*
X121252381Y-116590476D01*
X121300000Y-116609524D02*
X121452381Y-116609524D01*
X121500000Y-116590476D02*
X121500000Y-116390476D01*
X121566667Y-116533333D01*
X121633333Y-116390476D01*
X121633333Y-116590476D01*
X121719047Y-116409524D02*
X121728571Y-116400000D01*
X121747619Y-116390476D01*
X121795238Y-116390476D01*
X121814285Y-116400000D01*
X121823809Y-116409524D01*
X121833333Y-116428571D01*
X121833333Y-116447619D01*
X121823809Y-116476190D01*
X121709523Y-116590476D01*
X121833333Y-116590476D01*
X118176192Y-96590476D02*
X118176192Y-96390476D01*
X118242859Y-96533333D01*
X118309525Y-96390476D01*
X118309525Y-96590476D01*
X118433334Y-96590476D02*
X118414287Y-96580952D01*
X118404763Y-96571429D01*
X118395239Y-96552381D01*
X118395239Y-96495238D01*
X118404763Y-96476190D01*
X118414287Y-96466667D01*
X118433334Y-96457143D01*
X118461906Y-96457143D01*
X118480954Y-96466667D01*
X118490477Y-96476190D01*
X118500001Y-96495238D01*
X118500001Y-96552381D01*
X118490477Y-96571429D01*
X118480954Y-96580952D01*
X118461906Y-96590476D01*
X118433334Y-96590476D01*
X118671429Y-96457143D02*
X118671429Y-96590476D01*
X118585715Y-96457143D02*
X118585715Y-96561905D01*
X118595239Y-96580952D01*
X118614286Y-96590476D01*
X118642858Y-96590476D01*
X118661906Y-96580952D01*
X118671429Y-96571429D01*
X118766667Y-96457143D02*
X118766667Y-96590476D01*
X118766667Y-96476190D02*
X118776191Y-96466667D01*
X118795238Y-96457143D01*
X118823810Y-96457143D01*
X118842858Y-96466667D01*
X118852381Y-96485714D01*
X118852381Y-96590476D01*
X118919048Y-96457143D02*
X118995238Y-96457143D01*
X118947619Y-96390476D02*
X118947619Y-96561905D01*
X118957143Y-96580952D01*
X118976190Y-96590476D01*
X118995238Y-96590476D01*
X119061905Y-96590476D02*
X119061905Y-96457143D01*
X119061905Y-96390476D02*
X119052381Y-96400000D01*
X119061905Y-96409524D01*
X119071429Y-96400000D01*
X119061905Y-96390476D01*
X119061905Y-96409524D01*
X119157143Y-96457143D02*
X119157143Y-96590476D01*
X119157143Y-96476190D02*
X119166667Y-96466667D01*
X119185714Y-96457143D01*
X119214286Y-96457143D01*
X119233334Y-96466667D01*
X119242857Y-96485714D01*
X119242857Y-96590476D01*
X119423809Y-96457143D02*
X119423809Y-96619048D01*
X119414286Y-96638095D01*
X119404762Y-96647619D01*
X119385714Y-96657143D01*
X119357143Y-96657143D01*
X119338095Y-96647619D01*
X119423809Y-96580952D02*
X119404762Y-96590476D01*
X119366666Y-96590476D01*
X119347619Y-96580952D01*
X119338095Y-96571429D01*
X119328571Y-96552381D01*
X119328571Y-96495238D01*
X119338095Y-96476190D01*
X119347619Y-96466667D01*
X119366666Y-96457143D01*
X119404762Y-96457143D01*
X119423809Y-96466667D01*
X119519047Y-96590476D02*
X119519047Y-96390476D01*
X119519047Y-96485714D02*
X119633333Y-96485714D01*
X119633333Y-96590476D02*
X119633333Y-96390476D01*
X119757142Y-96590476D02*
X119738095Y-96580952D01*
X119728571Y-96571429D01*
X119719047Y-96552381D01*
X119719047Y-96495238D01*
X119728571Y-96476190D01*
X119738095Y-96466667D01*
X119757142Y-96457143D01*
X119785714Y-96457143D01*
X119804762Y-96466667D01*
X119814285Y-96476190D01*
X119823809Y-96495238D01*
X119823809Y-96552381D01*
X119814285Y-96571429D01*
X119804762Y-96580952D01*
X119785714Y-96590476D01*
X119757142Y-96590476D01*
X119938094Y-96590476D02*
X119919047Y-96580952D01*
X119909523Y-96561905D01*
X119909523Y-96390476D01*
X120090476Y-96580952D02*
X120071428Y-96590476D01*
X120033333Y-96590476D01*
X120014285Y-96580952D01*
X120004761Y-96561905D01*
X120004761Y-96485714D01*
X120014285Y-96466667D01*
X120033333Y-96457143D01*
X120071428Y-96457143D01*
X120090476Y-96466667D01*
X120099999Y-96485714D01*
X120099999Y-96504762D01*
X120004761Y-96523810D01*
X120138095Y-96609524D02*
X120290476Y-96609524D01*
X120328571Y-96409524D02*
X120338095Y-96400000D01*
X120357143Y-96390476D01*
X120404762Y-96390476D01*
X120423809Y-96400000D01*
X120433333Y-96409524D01*
X120442857Y-96428571D01*
X120442857Y-96447619D01*
X120433333Y-96476190D01*
X120319047Y-96590476D01*
X120442857Y-96590476D01*
X120528571Y-96571429D02*
X120538095Y-96580952D01*
X120528571Y-96590476D01*
X120519047Y-96580952D01*
X120528571Y-96571429D01*
X120528571Y-96590476D01*
X120614285Y-96409524D02*
X120623809Y-96400000D01*
X120642857Y-96390476D01*
X120690476Y-96390476D01*
X120709523Y-96400000D01*
X120719047Y-96409524D01*
X120728571Y-96428571D01*
X120728571Y-96447619D01*
X120719047Y-96476190D01*
X120604761Y-96590476D01*
X120728571Y-96590476D01*
X120814285Y-96590476D02*
X120814285Y-96457143D01*
X120814285Y-96476190D02*
X120823809Y-96466667D01*
X120842856Y-96457143D01*
X120871428Y-96457143D01*
X120890476Y-96466667D01*
X120899999Y-96485714D01*
X120899999Y-96590476D01*
X120899999Y-96485714D02*
X120909523Y-96466667D01*
X120928571Y-96457143D01*
X120957142Y-96457143D01*
X120976190Y-96466667D01*
X120985714Y-96485714D01*
X120985714Y-96590476D01*
X121080952Y-96590476D02*
X121080952Y-96457143D01*
X121080952Y-96476190D02*
X121090476Y-96466667D01*
X121109523Y-96457143D01*
X121138095Y-96457143D01*
X121157143Y-96466667D01*
X121166666Y-96485714D01*
X121166666Y-96590476D01*
X121166666Y-96485714D02*
X121176190Y-96466667D01*
X121195238Y-96457143D01*
X121223809Y-96457143D01*
X121242857Y-96466667D01*
X121252381Y-96485714D01*
X121252381Y-96590476D01*
X121300000Y-96609524D02*
X121452381Y-96609524D01*
X121500000Y-96590476D02*
X121500000Y-96390476D01*
X121566667Y-96533333D01*
X121633333Y-96390476D01*
X121633333Y-96590476D01*
X121719047Y-96409524D02*
X121728571Y-96400000D01*
X121747619Y-96390476D01*
X121795238Y-96390476D01*
X121814285Y-96400000D01*
X121823809Y-96409524D01*
X121833333Y-96428571D01*
X121833333Y-96447619D01*
X121823809Y-96476190D01*
X121709523Y-96590476D01*
X121833333Y-96590476D01*
M02*
