G04 #@! TF.FileFunction,Soldermask,Bot*
%FSLAX46Y46*%
G04 Gerber Fmt 4.6, Leading zero omitted, Abs format (unit mm)*
G04 Created by KiCad (PCBNEW 4.0.1-stable) date 26/09/2016 04:38:14 p. m.*
%MOMM*%
G01*
G04 APERTURE LIST*
%ADD10C,0.100000*%
%ADD11C,2.400000*%
%ADD12O,1.924000X2.597100*%
%ADD13R,1.924000X2.597100*%
%ADD14C,2.900000*%
%ADD15R,2.900000X2.900000*%
%ADD16O,1.901140X2.899360*%
%ADD17C,4.199840*%
%ADD18C,2.398980*%
%ADD19R,1.898600X2.597100*%
%ADD20O,1.898600X2.597100*%
%ADD21O,1.901140X2.599640*%
%ADD22O,2.000000X2.000000*%
%ADD23C,4.464000*%
G04 APERTURE END LIST*
D10*
D11*
X135500000Y-71000000D03*
X135500000Y-59000000D03*
D12*
X162420000Y-61500000D03*
X159880000Y-61500000D03*
X167500000Y-61500000D03*
X164960000Y-61500000D03*
D13*
X154800000Y-61500000D03*
D12*
X157340000Y-61500000D03*
X146230000Y-108576200D03*
X148770000Y-108576200D03*
X141150000Y-108576200D03*
X143690000Y-108576200D03*
D13*
X153850000Y-108576200D03*
D12*
X151310000Y-108576200D03*
D14*
X178000000Y-107000000D03*
D15*
X168000000Y-107000000D03*
D14*
X173000000Y-107000000D03*
D15*
X124500000Y-107000000D03*
D14*
X129500000Y-107000000D03*
X176000000Y-61000000D03*
X176000000Y-66000000D03*
X176000000Y-71000000D03*
X176000000Y-76000000D03*
X176000000Y-81000000D03*
X176000000Y-86000000D03*
D15*
X176000000Y-96000000D03*
D14*
X176000000Y-91000000D03*
D16*
X124960000Y-84500000D03*
X122420000Y-84500000D03*
X127500000Y-84500000D03*
D17*
X124960000Y-67736000D03*
D18*
X151647000Y-84730500D03*
X151647000Y-74570500D03*
X148147000Y-84730500D03*
X148147000Y-74570500D03*
X144647000Y-84730500D03*
X144647000Y-74570500D03*
X141147000Y-84730500D03*
X141147000Y-74570500D03*
X137647000Y-84730500D03*
X137647000Y-74570500D03*
X134147000Y-84730500D03*
X134147000Y-74570500D03*
X166500000Y-71000000D03*
X156340000Y-71000000D03*
X166500000Y-74500000D03*
X156340000Y-74500000D03*
X166376000Y-78237600D03*
X156216000Y-78237600D03*
X166376000Y-81737600D03*
X156216000Y-81737600D03*
X166376000Y-85238000D03*
X156216000Y-85238000D03*
D19*
X148250000Y-59750000D03*
D20*
X148250000Y-67370000D03*
D19*
X145750000Y-59750000D03*
D20*
X145750000Y-67370000D03*
D19*
X143250000Y-59750000D03*
D20*
X143250000Y-67370000D03*
D21*
X132260000Y-97500000D03*
X134800000Y-97500000D03*
X137340000Y-97500000D03*
X139880000Y-97500000D03*
X142420000Y-97500000D03*
X144960000Y-97500000D03*
X147500000Y-97500000D03*
X150040000Y-97500000D03*
X150040000Y-89880000D03*
X147500000Y-89880000D03*
X144960000Y-89880000D03*
X142420000Y-89880000D03*
X139880000Y-89880000D03*
X137340000Y-89880000D03*
X134800000Y-89880000D03*
X132260000Y-89880000D03*
D22*
X162040000Y-91500000D03*
X159500000Y-91500000D03*
X159500000Y-99120000D03*
X162040000Y-99120000D03*
D23*
X117500000Y-117500000D03*
X187500000Y-117500000D03*
X187500000Y-52500000D03*
X117500000Y-52500000D03*
M02*
