G04 #@! TF.FileFunction,Other,User*
%FSLAX46Y46*%
G04 Gerber Fmt 4.6, Leading zero omitted, Abs format (unit mm)*
G04 Created by KiCad (PCBNEW 4.0.1-stable) date 26/09/2016 04:38:14 p. m.*
%MOMM*%
G01*
G04 APERTURE LIST*
%ADD10C,0.100000*%
%ADD11C,0.050000*%
G04 APERTURE END LIST*
D10*
D11*
X165300000Y-111800000D02*
X165300000Y-101600000D01*
X180700000Y-111800000D02*
X165300000Y-111800000D01*
X180700000Y-101600000D02*
X180700000Y-111800000D01*
X165300000Y-101600000D02*
X180700000Y-101600000D01*
X121800000Y-101600000D02*
X132200000Y-101600000D01*
X121800000Y-111800000D02*
X121800000Y-101600000D01*
X132200000Y-111800000D02*
X121800000Y-111800000D01*
X132200000Y-101600000D02*
X132200000Y-111800000D01*
X180800000Y-98700000D02*
X170600000Y-98700000D01*
X180800000Y-58300000D02*
X180800000Y-98700000D01*
X170600000Y-58300000D02*
X180800000Y-58300000D01*
X170600000Y-98700000D02*
X170600000Y-58300000D01*
X150147000Y-85980500D02*
X150147000Y-73330500D01*
X153147000Y-85980500D02*
X150147000Y-85980500D01*
X150147000Y-73330500D02*
X153147000Y-73330500D01*
X153147000Y-85980500D02*
X153147000Y-73330500D01*
X146647000Y-85980500D02*
X146647000Y-73330500D01*
X149647000Y-85980500D02*
X146647000Y-85980500D01*
X146647000Y-73330500D02*
X149647000Y-73330500D01*
X149647000Y-85980500D02*
X149647000Y-73330500D01*
X143147000Y-85980500D02*
X143147000Y-73330500D01*
X146147000Y-85980500D02*
X143147000Y-85980500D01*
X143147000Y-73330500D02*
X146147000Y-73330500D01*
X146147000Y-85980500D02*
X146147000Y-73330500D01*
X139647000Y-85980500D02*
X139647000Y-73330500D01*
X142647000Y-85980500D02*
X139647000Y-85980500D01*
X139647000Y-73330500D02*
X142647000Y-73330500D01*
X142647000Y-85980500D02*
X142647000Y-73330500D01*
X136147000Y-85980500D02*
X136147000Y-73330500D01*
X139147000Y-85980500D02*
X136147000Y-85980500D01*
X136147000Y-73330500D02*
X139147000Y-73330500D01*
X139147000Y-85980500D02*
X139147000Y-73330500D01*
X132647000Y-85980500D02*
X132647000Y-73330500D01*
X135647000Y-85980500D02*
X132647000Y-85980500D01*
X132647000Y-73330500D02*
X135647000Y-73330500D01*
X135647000Y-85980500D02*
X135647000Y-73330500D01*
X167750000Y-72500000D02*
X155100000Y-72500000D01*
X167750000Y-69500000D02*
X167750000Y-72500000D01*
X155100000Y-72500000D02*
X155100000Y-69500000D01*
X167750000Y-69500000D02*
X155100000Y-69500000D01*
X167750000Y-76000000D02*
X155100000Y-76000000D01*
X167750000Y-73000000D02*
X167750000Y-76000000D01*
X155100000Y-76000000D02*
X155100000Y-73000000D01*
X167750000Y-73000000D02*
X155100000Y-73000000D01*
X167626000Y-79737600D02*
X154976000Y-79737600D01*
X167626000Y-76737600D02*
X167626000Y-79737600D01*
X154976000Y-79737600D02*
X154976000Y-76737600D01*
X167626000Y-76737600D02*
X154976000Y-76737600D01*
X167626000Y-83237600D02*
X154976000Y-83237600D01*
X167626000Y-80237600D02*
X167626000Y-83237600D01*
X154976000Y-83237600D02*
X154976000Y-80237600D01*
X167626000Y-80237600D02*
X154976000Y-80237600D01*
X167626000Y-86738000D02*
X154976000Y-86738000D01*
X167626000Y-83738000D02*
X167626000Y-86738000D01*
X154976000Y-86738000D02*
X154976000Y-83738000D01*
X167626000Y-83738000D02*
X154976000Y-83738000D01*
X164490000Y-90450000D02*
X157040000Y-90450000D01*
X164490000Y-100150000D02*
X157040000Y-100150000D01*
X164490000Y-90450000D02*
X164490000Y-100150000D01*
X157040000Y-90450000D02*
X157040000Y-100150000D01*
M02*
