G04 #@! TF.FileFunction,Copper,L1,Top,Signal*
%FSLAX46Y46*%
G04 Gerber Fmt 4.6, Leading zero omitted, Abs format (unit mm)*
G04 Created by KiCad (PCBNEW 4.0.1-stable) date 26/09/2016 04:38:13 p. m.*
%MOMM*%
G01*
G04 APERTURE LIST*
%ADD10C,0.100000*%
%ADD11C,0.200000*%
%ADD12C,2.000000*%
%ADD13O,1.524000X2.197100*%
%ADD14R,1.524000X2.197100*%
%ADD15C,2.500000*%
%ADD16R,2.500000X2.500000*%
%ADD17O,1.501140X2.499360*%
%ADD18C,1.998980*%
%ADD19R,1.498600X2.197100*%
%ADD20O,1.498600X2.197100*%
%ADD21O,1.501140X2.199640*%
%ADD22O,1.600000X1.600000*%
%ADD23C,4.064000*%
%ADD24C,0.800000*%
%ADD25C,2.000000*%
%ADD26C,1.000000*%
%ADD27C,0.254000*%
G04 APERTURE END LIST*
D10*
D11*
X116202381Y-111404762D02*
X117202381Y-111071429D01*
X116202381Y-110738095D01*
X116678571Y-110404762D02*
X116678571Y-110071428D01*
X117202381Y-109928571D02*
X117202381Y-110404762D01*
X116202381Y-110404762D01*
X116202381Y-109928571D01*
X117202381Y-109500000D02*
X116202381Y-109500000D01*
X117202381Y-108928571D01*
X116202381Y-108928571D01*
X117202381Y-108452381D02*
X116202381Y-108452381D01*
X116202381Y-108214286D01*
X116250000Y-108071428D01*
X116345238Y-107976190D01*
X116440476Y-107928571D01*
X116630952Y-107880952D01*
X116773810Y-107880952D01*
X116964286Y-107928571D01*
X117059524Y-107976190D01*
X117154762Y-108071428D01*
X117202381Y-108214286D01*
X117202381Y-108452381D01*
X117202381Y-107452381D02*
X116202381Y-107452381D01*
X117202381Y-106976191D02*
X116202381Y-106976191D01*
X117202381Y-106404762D01*
X116202381Y-106404762D01*
X116250000Y-105404762D02*
X116202381Y-105500000D01*
X116202381Y-105642857D01*
X116250000Y-105785715D01*
X116345238Y-105880953D01*
X116440476Y-105928572D01*
X116630952Y-105976191D01*
X116773810Y-105976191D01*
X116964286Y-105928572D01*
X117059524Y-105880953D01*
X117154762Y-105785715D01*
X117202381Y-105642857D01*
X117202381Y-105547619D01*
X117154762Y-105404762D01*
X117107143Y-105357143D01*
X116773810Y-105357143D01*
X116773810Y-105547619D01*
X117107143Y-103595238D02*
X117154762Y-103642857D01*
X117202381Y-103785714D01*
X117202381Y-103880952D01*
X117154762Y-104023810D01*
X117059524Y-104119048D01*
X116964286Y-104166667D01*
X116773810Y-104214286D01*
X116630952Y-104214286D01*
X116440476Y-104166667D01*
X116345238Y-104119048D01*
X116250000Y-104023810D01*
X116202381Y-103880952D01*
X116202381Y-103785714D01*
X116250000Y-103642857D01*
X116297619Y-103595238D01*
X116202381Y-102976191D02*
X116202381Y-102785714D01*
X116250000Y-102690476D01*
X116345238Y-102595238D01*
X116535714Y-102547619D01*
X116869048Y-102547619D01*
X117059524Y-102595238D01*
X117154762Y-102690476D01*
X117202381Y-102785714D01*
X117202381Y-102976191D01*
X117154762Y-103071429D01*
X117059524Y-103166667D01*
X116869048Y-103214286D01*
X116535714Y-103214286D01*
X116345238Y-103166667D01*
X116250000Y-103071429D01*
X116202381Y-102976191D01*
X117202381Y-102119048D02*
X116202381Y-102119048D01*
X117202381Y-101547619D01*
X116202381Y-101547619D01*
X116202381Y-101214286D02*
X116202381Y-100642857D01*
X117202381Y-100928572D02*
X116202381Y-100928572D01*
X117202381Y-99738095D02*
X116726190Y-100071429D01*
X117202381Y-100309524D02*
X116202381Y-100309524D01*
X116202381Y-99928571D01*
X116250000Y-99833333D01*
X116297619Y-99785714D01*
X116392857Y-99738095D01*
X116535714Y-99738095D01*
X116630952Y-99785714D01*
X116678571Y-99833333D01*
X116726190Y-99928571D01*
X116726190Y-100309524D01*
X116202381Y-99119048D02*
X116202381Y-98928571D01*
X116250000Y-98833333D01*
X116345238Y-98738095D01*
X116535714Y-98690476D01*
X116869048Y-98690476D01*
X117059524Y-98738095D01*
X117154762Y-98833333D01*
X117202381Y-98928571D01*
X117202381Y-99119048D01*
X117154762Y-99214286D01*
X117059524Y-99309524D01*
X116869048Y-99357143D01*
X116535714Y-99357143D01*
X116345238Y-99309524D01*
X116250000Y-99214286D01*
X116202381Y-99119048D01*
X117202381Y-97785714D02*
X117202381Y-98261905D01*
X116202381Y-98261905D01*
X117202381Y-96690476D02*
X116202381Y-96690476D01*
X116297619Y-96261905D02*
X116250000Y-96214286D01*
X116202381Y-96119048D01*
X116202381Y-95880952D01*
X116250000Y-95785714D01*
X116297619Y-95738095D01*
X116392857Y-95690476D01*
X116488095Y-95690476D01*
X116630952Y-95738095D01*
X117202381Y-96309524D01*
X117202381Y-95690476D01*
X117107143Y-94690476D02*
X117154762Y-94738095D01*
X117202381Y-94880952D01*
X117202381Y-94976190D01*
X117154762Y-95119048D01*
X117059524Y-95214286D01*
X116964286Y-95261905D01*
X116773810Y-95309524D01*
X116630952Y-95309524D01*
X116440476Y-95261905D01*
X116345238Y-95214286D01*
X116250000Y-95119048D01*
X116202381Y-94976190D01*
X116202381Y-94880952D01*
X116250000Y-94738095D01*
X116297619Y-94690476D01*
X117297619Y-94500000D02*
X117297619Y-93738095D01*
X116202381Y-93642857D02*
X117202381Y-93309524D01*
X116202381Y-92976190D01*
X117202381Y-92119047D02*
X117202381Y-92690476D01*
X117202381Y-92404762D02*
X116202381Y-92404762D01*
X116345238Y-92500000D01*
X116440476Y-92595238D01*
X116488095Y-92690476D01*
X117107143Y-91690476D02*
X117154762Y-91642857D01*
X117202381Y-91690476D01*
X117154762Y-91738095D01*
X117107143Y-91690476D01*
X117202381Y-91690476D01*
X116202381Y-91023810D02*
X116202381Y-90928571D01*
X116250000Y-90833333D01*
X116297619Y-90785714D01*
X116392857Y-90738095D01*
X116583333Y-90690476D01*
X116821429Y-90690476D01*
X117011905Y-90738095D01*
X117107143Y-90785714D01*
X117154762Y-90833333D01*
X117202381Y-90928571D01*
X117202381Y-91023810D01*
X117154762Y-91119048D01*
X117107143Y-91166667D01*
X117011905Y-91214286D01*
X116821429Y-91261905D01*
X116583333Y-91261905D01*
X116392857Y-91214286D01*
X116297619Y-91166667D01*
X116250000Y-91119048D01*
X116202381Y-91023810D01*
D12*
X135500000Y-71000000D03*
X135500000Y-59000000D03*
D13*
X162420000Y-61500000D03*
X159880000Y-61500000D03*
X167500000Y-61500000D03*
X164960000Y-61500000D03*
D14*
X154800000Y-61500000D03*
D13*
X157340000Y-61500000D03*
X146230000Y-108576200D03*
X148770000Y-108576200D03*
X141150000Y-108576200D03*
X143690000Y-108576200D03*
D14*
X153850000Y-108576200D03*
D13*
X151310000Y-108576200D03*
D15*
X178000000Y-107000000D03*
D16*
X168000000Y-107000000D03*
D15*
X173000000Y-107000000D03*
D16*
X124500000Y-107000000D03*
D15*
X129500000Y-107000000D03*
X176000000Y-61000000D03*
X176000000Y-66000000D03*
X176000000Y-71000000D03*
X176000000Y-76000000D03*
X176000000Y-81000000D03*
X176000000Y-86000000D03*
D16*
X176000000Y-96000000D03*
D15*
X176000000Y-91000000D03*
D17*
X124960000Y-84500000D03*
X122420000Y-84500000D03*
X127500000Y-84500000D03*
D18*
X151647000Y-84730500D03*
X151647000Y-74570500D03*
X148147000Y-84730500D03*
X148147000Y-74570500D03*
X144647000Y-84730500D03*
X144647000Y-74570500D03*
X141147000Y-84730500D03*
X141147000Y-74570500D03*
X137647000Y-84730500D03*
X137647000Y-74570500D03*
X134147000Y-84730500D03*
X134147000Y-74570500D03*
X166500000Y-71000000D03*
X156340000Y-71000000D03*
X166500000Y-74500000D03*
X156340000Y-74500000D03*
X166376000Y-78237600D03*
X156216000Y-78237600D03*
X166376000Y-81737600D03*
X156216000Y-81737600D03*
X166376000Y-85238000D03*
X156216000Y-85238000D03*
D19*
X148250000Y-59750000D03*
D20*
X148250000Y-67370000D03*
D19*
X145750000Y-59750000D03*
D20*
X145750000Y-67370000D03*
D19*
X143250000Y-59750000D03*
D20*
X143250000Y-67370000D03*
D21*
X132260000Y-97500000D03*
X134800000Y-97500000D03*
X137340000Y-97500000D03*
X139880000Y-97500000D03*
X142420000Y-97500000D03*
X144960000Y-97500000D03*
X147500000Y-97500000D03*
X150040000Y-97500000D03*
X150040000Y-89880000D03*
X147500000Y-89880000D03*
X144960000Y-89880000D03*
X142420000Y-89880000D03*
X139880000Y-89880000D03*
X137340000Y-89880000D03*
X134800000Y-89880000D03*
X132260000Y-89880000D03*
D22*
X162040000Y-91500000D03*
X159500000Y-91500000D03*
X159500000Y-99120000D03*
X162040000Y-99120000D03*
D23*
X117500000Y-117500000D03*
X187500000Y-117500000D03*
X187500000Y-52500000D03*
X117500000Y-52500000D03*
D24*
X136146100Y-93479200D03*
X151267200Y-91582000D03*
X128678300Y-93254000D03*
X163249300Y-88364700D03*
X159548700Y-86435400D03*
X141594300Y-76430800D03*
D25*
X124960000Y-73115400D02*
X124960000Y-84500000D01*
X128298800Y-69776600D02*
X124960000Y-73115400D01*
X128298800Y-66201200D02*
X128298800Y-69776600D01*
X135500000Y-59000000D02*
X128298800Y-66201200D01*
X157340000Y-61500000D02*
X157340000Y-58901400D01*
X157482400Y-105977600D02*
X151310000Y-105977600D01*
X162040000Y-101420000D02*
X157482400Y-105977600D01*
X162040000Y-99120000D02*
X162040000Y-101420000D01*
X151310000Y-108576200D02*
X151310000Y-105977600D01*
X155087300Y-56648700D02*
X157340000Y-58901400D01*
X131518800Y-56648700D02*
X155087300Y-56648700D01*
X120337900Y-67829600D02*
X131518800Y-56648700D01*
X120337900Y-97737100D02*
X120337900Y-67829600D01*
X127050400Y-104449600D02*
X120337900Y-97737100D01*
X124500000Y-107000000D02*
X127050400Y-104449600D01*
X149782000Y-104449600D02*
X151310000Y-105977600D01*
X127050400Y-104449600D02*
X149782000Y-104449600D01*
D26*
X134800000Y-89880000D02*
X134800000Y-87780100D01*
X132344900Y-83372600D02*
X141147000Y-74570500D01*
X132344900Y-85490900D02*
X132344900Y-83372600D01*
X134634100Y-87780100D02*
X132344900Y-85490900D01*
X134800000Y-87780100D02*
X134634100Y-87780100D01*
X143250000Y-67370000D02*
X145750000Y-67370000D01*
X145750000Y-67370000D02*
X148250000Y-67370000D01*
X148250000Y-67370000D02*
X149999300Y-67370000D01*
X149999300Y-68159300D02*
X156340000Y-74500000D01*
X149999300Y-67370000D02*
X149999300Y-68159300D01*
X137647000Y-84730500D02*
X141147000Y-84730500D01*
X141147000Y-84730500D02*
X144647000Y-84730500D01*
X144647000Y-84730500D02*
X148147000Y-84730500D01*
X169762000Y-61000000D02*
X169262000Y-61500000D01*
X176000000Y-61000000D02*
X169762000Y-61000000D01*
X167500000Y-61500000D02*
X169262000Y-61500000D01*
X180106100Y-95106100D02*
X176000000Y-91000000D01*
X180106100Y-107817700D02*
X180106100Y-95106100D01*
X177249000Y-110674800D02*
X180106100Y-107817700D01*
X141150000Y-110674800D02*
X177249000Y-110674800D01*
X141150000Y-108576200D02*
X141150000Y-110674800D01*
X175500000Y-91500000D02*
X176000000Y-91000000D01*
X163840000Y-91500000D02*
X175500000Y-91500000D01*
X162040000Y-91500000D02*
X163840000Y-91500000D01*
X153152400Y-84730500D02*
X151647000Y-84730500D01*
X157493000Y-89071100D02*
X153152400Y-84730500D01*
X159611100Y-89071100D02*
X157493000Y-89071100D01*
X162040000Y-91500000D02*
X159611100Y-89071100D01*
X151647000Y-84730500D02*
X148147000Y-84730500D01*
X143690000Y-108491400D02*
X143690000Y-108576200D01*
X141867500Y-106668900D02*
X143690000Y-108491400D01*
X140458800Y-106668900D02*
X141867500Y-106668900D01*
X139578800Y-107548900D02*
X140458800Y-106668900D01*
X139578800Y-110967600D02*
X139578800Y-107548900D01*
X140636000Y-112024800D02*
X139578800Y-110967600D01*
X177798300Y-112024800D02*
X140636000Y-112024800D01*
X181431900Y-108391200D02*
X177798300Y-112024800D01*
X181431900Y-78489300D02*
X181431900Y-108391200D01*
X176442600Y-73500000D02*
X181431900Y-78489300D01*
X174861400Y-73500000D02*
X176442600Y-73500000D01*
X164960000Y-63598600D02*
X174861400Y-73500000D01*
X164960000Y-61500000D02*
X164960000Y-63598600D01*
D25*
X154800000Y-61500000D02*
X152538000Y-61500000D01*
X127500000Y-73908000D02*
X127500000Y-84500000D01*
X130599100Y-70808900D02*
X127500000Y-73908000D01*
X130599100Y-68970000D02*
X130599100Y-70808900D01*
X134761800Y-64807300D02*
X130599100Y-68970000D01*
X149230700Y-64807300D02*
X134761800Y-64807300D01*
X152538000Y-61500000D02*
X149230700Y-64807300D01*
D26*
X159500000Y-99120000D02*
X157700000Y-99120000D01*
X122420000Y-84500000D02*
X122420000Y-86749800D01*
X155908900Y-100911100D02*
X157700000Y-99120000D01*
X131198500Y-100911100D02*
X155908900Y-100911100D01*
X122420000Y-92132600D02*
X131198500Y-100911100D01*
X122420000Y-86749800D02*
X122420000Y-92132600D01*
X149370000Y-93479200D02*
X136146100Y-93479200D01*
X151267200Y-91582000D02*
X149370000Y-93479200D01*
X134800000Y-96801500D02*
X134800000Y-97500000D01*
X129405700Y-91407200D02*
X134800000Y-96801500D01*
X129405700Y-74548300D02*
X129405700Y-91407200D01*
X132399400Y-71554600D02*
X129405700Y-74548300D01*
X132399400Y-69715700D02*
X132399400Y-71554600D01*
X134215700Y-67899400D02*
X132399400Y-69715700D01*
X140521600Y-67899400D02*
X134215700Y-67899400D01*
X147192700Y-74570500D02*
X140521600Y-67899400D01*
X148147000Y-74570500D02*
X147192700Y-74570500D01*
X139276200Y-69199700D02*
X144647000Y-74570500D01*
X134754300Y-69199700D02*
X139276200Y-69199700D01*
X133699700Y-70254300D02*
X134754300Y-69199700D01*
X133699700Y-72464900D02*
X133699700Y-70254300D01*
X130706000Y-75458600D02*
X133699700Y-72464900D01*
X130706000Y-90868600D02*
X130706000Y-75458600D01*
X134800000Y-94962600D02*
X130706000Y-90868600D01*
X134873400Y-94962600D02*
X134800000Y-94962600D01*
X137340000Y-97429200D02*
X134873400Y-94962600D01*
X137340000Y-97500000D02*
X137340000Y-97429200D01*
X137131400Y-87714900D02*
X134147000Y-84730500D01*
X153914900Y-87714900D02*
X137131400Y-87714900D01*
X157700000Y-91500000D02*
X153914900Y-87714900D01*
X159500000Y-91500000D02*
X157700000Y-91500000D01*
X128678300Y-96516300D02*
X128678300Y-93254000D01*
X131761900Y-99599900D02*
X128678300Y-96516300D01*
X139880000Y-99599900D02*
X131761900Y-99599900D01*
X139880000Y-97500000D02*
X139880000Y-99599900D01*
X147500000Y-97500000D02*
X147500000Y-95400100D01*
X166400100Y-95400100D02*
X178000000Y-107000000D01*
X147500000Y-95400100D02*
X166400100Y-95400100D01*
X144960000Y-97500000D02*
X144960000Y-99599900D01*
X163300400Y-97300400D02*
X173000000Y-107000000D01*
X155153000Y-97300400D02*
X163300400Y-97300400D01*
X152853500Y-99599900D02*
X155153000Y-97300400D01*
X144960000Y-99599900D02*
X152853500Y-99599900D01*
X166376000Y-85238000D02*
X163249300Y-88364700D01*
X172113600Y-76000000D02*
X176000000Y-76000000D01*
X166376000Y-81737600D02*
X172113600Y-76000000D01*
X164246500Y-81737600D02*
X166376000Y-81737600D01*
X159548700Y-86435400D02*
X164246500Y-81737600D01*
X164569200Y-76430800D02*
X141594300Y-76430800D01*
X166376000Y-78237600D02*
X164569200Y-76430800D01*
X150040000Y-89880000D02*
X151790600Y-89880000D01*
X176000000Y-96000000D02*
X173750000Y-96000000D01*
X155805400Y-93894800D02*
X151790600Y-89880000D01*
X171644800Y-93894800D02*
X155805400Y-93894800D01*
X173750000Y-96000000D02*
X171644800Y-93894800D01*
D27*
G36*
X185991239Y-50237709D02*
X185240345Y-50987293D01*
X184833464Y-51967173D01*
X184832538Y-53028172D01*
X185237709Y-54008761D01*
X185987293Y-54759655D01*
X186967173Y-55166536D01*
X188028172Y-55167462D01*
X189008761Y-54762291D01*
X189759655Y-54012707D01*
X189873000Y-53739741D01*
X189873000Y-116259175D01*
X189762291Y-115991239D01*
X189012707Y-115240345D01*
X188032827Y-114833464D01*
X186971828Y-114832538D01*
X185991239Y-115237709D01*
X185240345Y-115987293D01*
X184833464Y-116967173D01*
X184832538Y-118028172D01*
X185237709Y-119008761D01*
X185987293Y-119759655D01*
X186260259Y-119873000D01*
X118740825Y-119873000D01*
X119008761Y-119762291D01*
X119759655Y-119012707D01*
X120166536Y-118032827D01*
X120167462Y-116971828D01*
X119762291Y-115991239D01*
X119012707Y-115240345D01*
X118032827Y-114833464D01*
X116971828Y-114832538D01*
X115991239Y-115237709D01*
X115240345Y-115987293D01*
X115127000Y-116260259D01*
X115127000Y-112235000D01*
X118185000Y-112235000D01*
X118185000Y-89765000D01*
X115127000Y-89765000D01*
X115127000Y-67829600D01*
X118702899Y-67829600D01*
X118702900Y-67829605D01*
X118702900Y-97737095D01*
X118702899Y-97737100D01*
X118827357Y-98362788D01*
X119181780Y-98893220D01*
X124738161Y-104449600D01*
X124085200Y-105102560D01*
X123250000Y-105102560D01*
X123014683Y-105146838D01*
X122798559Y-105285910D01*
X122653569Y-105498110D01*
X122602560Y-105750000D01*
X122602560Y-108250000D01*
X122646838Y-108485317D01*
X122785910Y-108701441D01*
X122998110Y-108846431D01*
X123250000Y-108897440D01*
X125750000Y-108897440D01*
X125985317Y-108853162D01*
X126201441Y-108714090D01*
X126346431Y-108501890D01*
X126397440Y-108250000D01*
X126397440Y-107414800D01*
X127727639Y-106084600D01*
X127839060Y-106084600D01*
X127615328Y-106623405D01*
X127614674Y-107373305D01*
X127901043Y-108066372D01*
X128430839Y-108597093D01*
X129123405Y-108884672D01*
X129873305Y-108885326D01*
X130566372Y-108598957D01*
X131097093Y-108069161D01*
X131384672Y-107376595D01*
X131385326Y-106626695D01*
X131161337Y-106084600D01*
X139437968Y-106084600D01*
X138776234Y-106746334D01*
X138530197Y-107114554D01*
X138443800Y-107548900D01*
X138443800Y-110967600D01*
X138530197Y-111401946D01*
X138656154Y-111590454D01*
X138776234Y-111770166D01*
X139833434Y-112827366D01*
X140201655Y-113073404D01*
X140636000Y-113159800D01*
X177798300Y-113159800D01*
X178232646Y-113073403D01*
X178600866Y-112827366D01*
X182234466Y-109193766D01*
X182480503Y-108825546D01*
X182508678Y-108683900D01*
X182566900Y-108391200D01*
X182566900Y-78489300D01*
X182480503Y-78054954D01*
X182234466Y-77686734D01*
X177245166Y-72697434D01*
X177151302Y-72634716D01*
X177078967Y-72586384D01*
X177597093Y-72069161D01*
X177884672Y-71376595D01*
X177885326Y-70626695D01*
X177598957Y-69933628D01*
X177069161Y-69402907D01*
X176376595Y-69115328D01*
X175626695Y-69114674D01*
X174933628Y-69401043D01*
X174402907Y-69930839D01*
X174115328Y-70623405D01*
X174114870Y-71148338D01*
X169339837Y-66373305D01*
X174114674Y-66373305D01*
X174401043Y-67066372D01*
X174930839Y-67597093D01*
X175623405Y-67884672D01*
X176373305Y-67885326D01*
X177066372Y-67598957D01*
X177597093Y-67069161D01*
X177884672Y-66376595D01*
X177885326Y-65626695D01*
X177598957Y-64933628D01*
X177069161Y-64402907D01*
X176376595Y-64115328D01*
X175626695Y-64114674D01*
X174933628Y-64401043D01*
X174402907Y-64930839D01*
X174115328Y-65623405D01*
X174114674Y-66373305D01*
X169339837Y-66373305D01*
X166095000Y-63128468D01*
X166095000Y-62638082D01*
X166230000Y-62436041D01*
X166512172Y-62858340D01*
X166965391Y-63161172D01*
X167500000Y-63267512D01*
X168034609Y-63161172D01*
X168487828Y-62858340D01*
X168637059Y-62635000D01*
X169262000Y-62635000D01*
X169696346Y-62548603D01*
X170064566Y-62302566D01*
X170232132Y-62135000D01*
X174469551Y-62135000D01*
X174930839Y-62597093D01*
X175623405Y-62884672D01*
X176373305Y-62885326D01*
X177066372Y-62598957D01*
X177597093Y-62069161D01*
X177884672Y-61376595D01*
X177885326Y-60626695D01*
X177598957Y-59933628D01*
X177069161Y-59402907D01*
X176376595Y-59115328D01*
X175626695Y-59114674D01*
X174933628Y-59401043D01*
X174468861Y-59865000D01*
X169762000Y-59865000D01*
X169327654Y-59951397D01*
X169021266Y-60156119D01*
X168959434Y-60197434D01*
X168791868Y-60365000D01*
X168637059Y-60365000D01*
X168487828Y-60141660D01*
X168034609Y-59838828D01*
X167500000Y-59732488D01*
X166965391Y-59838828D01*
X166512172Y-60141660D01*
X166230000Y-60563959D01*
X165947828Y-60141660D01*
X165494609Y-59838828D01*
X164960000Y-59732488D01*
X164425391Y-59838828D01*
X163972172Y-60141660D01*
X163690000Y-60563959D01*
X163407828Y-60141660D01*
X162954609Y-59838828D01*
X162420000Y-59732488D01*
X161885391Y-59838828D01*
X161432172Y-60141660D01*
X161141358Y-60576893D01*
X161122059Y-60511509D01*
X160778026Y-60085820D01*
X160297277Y-59824190D01*
X160223070Y-59809230D01*
X160007000Y-59931730D01*
X160007000Y-61373000D01*
X160027000Y-61373000D01*
X160027000Y-61627000D01*
X160007000Y-61627000D01*
X160007000Y-63068270D01*
X160223070Y-63190770D01*
X160297277Y-63175810D01*
X160778026Y-62914180D01*
X161122059Y-62488491D01*
X161141358Y-62423107D01*
X161432172Y-62858340D01*
X161885391Y-63161172D01*
X162420000Y-63267512D01*
X162954609Y-63161172D01*
X163407828Y-62858340D01*
X163690000Y-62436041D01*
X163825000Y-62638082D01*
X163825000Y-63598600D01*
X163911397Y-64032946D01*
X164157352Y-64401043D01*
X164157434Y-64401166D01*
X174058834Y-74302566D01*
X174427054Y-74548603D01*
X174726202Y-74608107D01*
X174468861Y-74865000D01*
X172113600Y-74865000D01*
X171679254Y-74951397D01*
X171311034Y-75197434D01*
X168010264Y-78498204D01*
X168010774Y-77913906D01*
X167762462Y-77312945D01*
X167303073Y-76852754D01*
X166702547Y-76603394D01*
X166346615Y-76603083D01*
X165667753Y-75924221D01*
X166173453Y-76134206D01*
X166823694Y-76134774D01*
X167424655Y-75886462D01*
X167884846Y-75427073D01*
X168134206Y-74826547D01*
X168134774Y-74176306D01*
X167886462Y-73575345D01*
X167427073Y-73115154D01*
X166826547Y-72865794D01*
X166176306Y-72865226D01*
X165575345Y-73113538D01*
X165115154Y-73572927D01*
X164865794Y-74173453D01*
X164865226Y-74823694D01*
X165113538Y-75424655D01*
X165206582Y-75517862D01*
X165003546Y-75382197D01*
X164569200Y-75295800D01*
X157788000Y-75295800D01*
X157985401Y-74764418D01*
X157961341Y-74114623D01*
X157758965Y-73626042D01*
X157492163Y-73527443D01*
X156519605Y-74500000D01*
X156533748Y-74514142D01*
X156354142Y-74693748D01*
X156340000Y-74679605D01*
X156325858Y-74693748D01*
X156146252Y-74514142D01*
X156160395Y-74500000D01*
X155187837Y-73527443D01*
X154921035Y-73626042D01*
X154694599Y-74235582D01*
X154718659Y-74885377D01*
X154888661Y-75295800D01*
X153115629Y-75295800D01*
X153281206Y-74897047D01*
X153281774Y-74246806D01*
X153033462Y-73645845D01*
X152735974Y-73347837D01*
X155367443Y-73347837D01*
X156340000Y-74320395D01*
X157312557Y-73347837D01*
X157213958Y-73081035D01*
X156604418Y-72854599D01*
X155954623Y-72878659D01*
X155466042Y-73081035D01*
X155367443Y-73347837D01*
X152735974Y-73347837D01*
X152574073Y-73185654D01*
X151973547Y-72936294D01*
X151323306Y-72935726D01*
X150722345Y-73184038D01*
X150262154Y-73643427D01*
X150012794Y-74243953D01*
X150012226Y-74894194D01*
X150178166Y-75295800D01*
X149615629Y-75295800D01*
X149781206Y-74897047D01*
X149781774Y-74246806D01*
X149533462Y-73645845D01*
X149074073Y-73185654D01*
X148473547Y-72936294D01*
X147823306Y-72935726D01*
X147356103Y-73128771D01*
X145551026Y-71323694D01*
X154705226Y-71323694D01*
X154953538Y-71924655D01*
X155412927Y-72384846D01*
X156013453Y-72634206D01*
X156663694Y-72634774D01*
X157264655Y-72386462D01*
X157724846Y-71927073D01*
X157974206Y-71326547D01*
X157974208Y-71323694D01*
X164865226Y-71323694D01*
X165113538Y-71924655D01*
X165572927Y-72384846D01*
X166173453Y-72634206D01*
X166823694Y-72634774D01*
X167424655Y-72386462D01*
X167884846Y-71927073D01*
X168134206Y-71326547D01*
X168134774Y-70676306D01*
X167886462Y-70075345D01*
X167427073Y-69615154D01*
X166826547Y-69365794D01*
X166176306Y-69365226D01*
X165575345Y-69613538D01*
X165115154Y-70072927D01*
X164865794Y-70673453D01*
X164865226Y-71323694D01*
X157974208Y-71323694D01*
X157974774Y-70676306D01*
X157726462Y-70075345D01*
X157267073Y-69615154D01*
X156666547Y-69365794D01*
X156016306Y-69365226D01*
X155415345Y-69613538D01*
X154955154Y-70072927D01*
X154705794Y-70673453D01*
X154705226Y-71323694D01*
X145551026Y-71323694D01*
X143330882Y-69103550D01*
X143377002Y-69103550D01*
X143377002Y-68938203D01*
X143591075Y-69060874D01*
X143662417Y-69046777D01*
X144139046Y-68787900D01*
X144480326Y-68366331D01*
X144500000Y-68299878D01*
X144519674Y-68366331D01*
X144860954Y-68787900D01*
X145337583Y-69046777D01*
X145408925Y-69060874D01*
X145623000Y-68938202D01*
X145623000Y-67497000D01*
X145877000Y-67497000D01*
X145877000Y-68938202D01*
X146091075Y-69060874D01*
X146162417Y-69046777D01*
X146639046Y-68787900D01*
X146980326Y-68366331D01*
X147000000Y-68299878D01*
X147019674Y-68366331D01*
X147360954Y-68787900D01*
X147837583Y-69046777D01*
X147908925Y-69060874D01*
X148123000Y-68938202D01*
X148123000Y-67497000D01*
X148377000Y-67497000D01*
X148377000Y-68938202D01*
X148591075Y-69060874D01*
X148662417Y-69046777D01*
X149139046Y-68787900D01*
X149480326Y-68366331D01*
X149634300Y-67846250D01*
X149634300Y-67497000D01*
X148377000Y-67497000D01*
X148123000Y-67497000D01*
X145877000Y-67497000D01*
X145623000Y-67497000D01*
X143377000Y-67497000D01*
X143377000Y-67517000D01*
X143123000Y-67517000D01*
X143123000Y-67497000D01*
X141865700Y-67497000D01*
X141865700Y-67638368D01*
X141324166Y-67096834D01*
X141278576Y-67066372D01*
X140955946Y-66850797D01*
X140521600Y-66764400D01*
X135116939Y-66764400D01*
X135439039Y-66442300D01*
X141999355Y-66442300D01*
X141865700Y-66893750D01*
X141865700Y-67243000D01*
X143123000Y-67243000D01*
X143123000Y-67223000D01*
X143377000Y-67223000D01*
X143377000Y-67243000D01*
X145623000Y-67243000D01*
X145623000Y-67223000D01*
X145877000Y-67223000D01*
X145877000Y-67243000D01*
X148123000Y-67243000D01*
X148123000Y-67223000D01*
X148377000Y-67223000D01*
X148377000Y-67243000D01*
X149634300Y-67243000D01*
X149634300Y-66893750D01*
X149485632Y-66391591D01*
X149856388Y-66317843D01*
X150386820Y-65963420D01*
X153215239Y-63135000D01*
X153698325Y-63135000D01*
X153786110Y-63194981D01*
X154038000Y-63245990D01*
X155562000Y-63245990D01*
X155797317Y-63201712D01*
X156013441Y-63062640D01*
X156158431Y-62850440D01*
X156196125Y-62664302D01*
X156243808Y-62696163D01*
X156352172Y-62858340D01*
X156805391Y-63161172D01*
X157340000Y-63267512D01*
X157874609Y-63161172D01*
X158327828Y-62858340D01*
X158436192Y-62696163D01*
X158496120Y-62656120D01*
X158628806Y-62457541D01*
X158637941Y-62488491D01*
X158981974Y-62914180D01*
X159462723Y-63175810D01*
X159536930Y-63190770D01*
X159753000Y-63068270D01*
X159753000Y-61627000D01*
X159733000Y-61627000D01*
X159733000Y-61373000D01*
X159753000Y-61373000D01*
X159753000Y-59931730D01*
X159536930Y-59809230D01*
X159462723Y-59824190D01*
X158981974Y-60085820D01*
X158975000Y-60094449D01*
X158975000Y-58901405D01*
X158975001Y-58901400D01*
X158850543Y-58275712D01*
X158496120Y-57745280D01*
X156243420Y-55492580D01*
X155712988Y-55138157D01*
X155087300Y-55013699D01*
X155087295Y-55013700D01*
X131518800Y-55013700D01*
X130893113Y-55138157D01*
X130362680Y-55492580D01*
X130362678Y-55492583D01*
X119181780Y-66673480D01*
X118827357Y-67203912D01*
X118702899Y-67829600D01*
X115127000Y-67829600D01*
X115127000Y-53740825D01*
X115237709Y-54008761D01*
X115987293Y-54759655D01*
X116967173Y-55166536D01*
X118028172Y-55167462D01*
X119008761Y-54762291D01*
X119759655Y-54012707D01*
X120166536Y-53032827D01*
X120167462Y-51971828D01*
X119762291Y-50991239D01*
X119012707Y-50240345D01*
X118739741Y-50127000D01*
X186259175Y-50127000D01*
X185991239Y-50237709D01*
X185991239Y-50237709D01*
G37*
X185991239Y-50237709D02*
X185240345Y-50987293D01*
X184833464Y-51967173D01*
X184832538Y-53028172D01*
X185237709Y-54008761D01*
X185987293Y-54759655D01*
X186967173Y-55166536D01*
X188028172Y-55167462D01*
X189008761Y-54762291D01*
X189759655Y-54012707D01*
X189873000Y-53739741D01*
X189873000Y-116259175D01*
X189762291Y-115991239D01*
X189012707Y-115240345D01*
X188032827Y-114833464D01*
X186971828Y-114832538D01*
X185991239Y-115237709D01*
X185240345Y-115987293D01*
X184833464Y-116967173D01*
X184832538Y-118028172D01*
X185237709Y-119008761D01*
X185987293Y-119759655D01*
X186260259Y-119873000D01*
X118740825Y-119873000D01*
X119008761Y-119762291D01*
X119759655Y-119012707D01*
X120166536Y-118032827D01*
X120167462Y-116971828D01*
X119762291Y-115991239D01*
X119012707Y-115240345D01*
X118032827Y-114833464D01*
X116971828Y-114832538D01*
X115991239Y-115237709D01*
X115240345Y-115987293D01*
X115127000Y-116260259D01*
X115127000Y-112235000D01*
X118185000Y-112235000D01*
X118185000Y-89765000D01*
X115127000Y-89765000D01*
X115127000Y-67829600D01*
X118702899Y-67829600D01*
X118702900Y-67829605D01*
X118702900Y-97737095D01*
X118702899Y-97737100D01*
X118827357Y-98362788D01*
X119181780Y-98893220D01*
X124738161Y-104449600D01*
X124085200Y-105102560D01*
X123250000Y-105102560D01*
X123014683Y-105146838D01*
X122798559Y-105285910D01*
X122653569Y-105498110D01*
X122602560Y-105750000D01*
X122602560Y-108250000D01*
X122646838Y-108485317D01*
X122785910Y-108701441D01*
X122998110Y-108846431D01*
X123250000Y-108897440D01*
X125750000Y-108897440D01*
X125985317Y-108853162D01*
X126201441Y-108714090D01*
X126346431Y-108501890D01*
X126397440Y-108250000D01*
X126397440Y-107414800D01*
X127727639Y-106084600D01*
X127839060Y-106084600D01*
X127615328Y-106623405D01*
X127614674Y-107373305D01*
X127901043Y-108066372D01*
X128430839Y-108597093D01*
X129123405Y-108884672D01*
X129873305Y-108885326D01*
X130566372Y-108598957D01*
X131097093Y-108069161D01*
X131384672Y-107376595D01*
X131385326Y-106626695D01*
X131161337Y-106084600D01*
X139437968Y-106084600D01*
X138776234Y-106746334D01*
X138530197Y-107114554D01*
X138443800Y-107548900D01*
X138443800Y-110967600D01*
X138530197Y-111401946D01*
X138656154Y-111590454D01*
X138776234Y-111770166D01*
X139833434Y-112827366D01*
X140201655Y-113073404D01*
X140636000Y-113159800D01*
X177798300Y-113159800D01*
X178232646Y-113073403D01*
X178600866Y-112827366D01*
X182234466Y-109193766D01*
X182480503Y-108825546D01*
X182508678Y-108683900D01*
X182566900Y-108391200D01*
X182566900Y-78489300D01*
X182480503Y-78054954D01*
X182234466Y-77686734D01*
X177245166Y-72697434D01*
X177151302Y-72634716D01*
X177078967Y-72586384D01*
X177597093Y-72069161D01*
X177884672Y-71376595D01*
X177885326Y-70626695D01*
X177598957Y-69933628D01*
X177069161Y-69402907D01*
X176376595Y-69115328D01*
X175626695Y-69114674D01*
X174933628Y-69401043D01*
X174402907Y-69930839D01*
X174115328Y-70623405D01*
X174114870Y-71148338D01*
X169339837Y-66373305D01*
X174114674Y-66373305D01*
X174401043Y-67066372D01*
X174930839Y-67597093D01*
X175623405Y-67884672D01*
X176373305Y-67885326D01*
X177066372Y-67598957D01*
X177597093Y-67069161D01*
X177884672Y-66376595D01*
X177885326Y-65626695D01*
X177598957Y-64933628D01*
X177069161Y-64402907D01*
X176376595Y-64115328D01*
X175626695Y-64114674D01*
X174933628Y-64401043D01*
X174402907Y-64930839D01*
X174115328Y-65623405D01*
X174114674Y-66373305D01*
X169339837Y-66373305D01*
X166095000Y-63128468D01*
X166095000Y-62638082D01*
X166230000Y-62436041D01*
X166512172Y-62858340D01*
X166965391Y-63161172D01*
X167500000Y-63267512D01*
X168034609Y-63161172D01*
X168487828Y-62858340D01*
X168637059Y-62635000D01*
X169262000Y-62635000D01*
X169696346Y-62548603D01*
X170064566Y-62302566D01*
X170232132Y-62135000D01*
X174469551Y-62135000D01*
X174930839Y-62597093D01*
X175623405Y-62884672D01*
X176373305Y-62885326D01*
X177066372Y-62598957D01*
X177597093Y-62069161D01*
X177884672Y-61376595D01*
X177885326Y-60626695D01*
X177598957Y-59933628D01*
X177069161Y-59402907D01*
X176376595Y-59115328D01*
X175626695Y-59114674D01*
X174933628Y-59401043D01*
X174468861Y-59865000D01*
X169762000Y-59865000D01*
X169327654Y-59951397D01*
X169021266Y-60156119D01*
X168959434Y-60197434D01*
X168791868Y-60365000D01*
X168637059Y-60365000D01*
X168487828Y-60141660D01*
X168034609Y-59838828D01*
X167500000Y-59732488D01*
X166965391Y-59838828D01*
X166512172Y-60141660D01*
X166230000Y-60563959D01*
X165947828Y-60141660D01*
X165494609Y-59838828D01*
X164960000Y-59732488D01*
X164425391Y-59838828D01*
X163972172Y-60141660D01*
X163690000Y-60563959D01*
X163407828Y-60141660D01*
X162954609Y-59838828D01*
X162420000Y-59732488D01*
X161885391Y-59838828D01*
X161432172Y-60141660D01*
X161141358Y-60576893D01*
X161122059Y-60511509D01*
X160778026Y-60085820D01*
X160297277Y-59824190D01*
X160223070Y-59809230D01*
X160007000Y-59931730D01*
X160007000Y-61373000D01*
X160027000Y-61373000D01*
X160027000Y-61627000D01*
X160007000Y-61627000D01*
X160007000Y-63068270D01*
X160223070Y-63190770D01*
X160297277Y-63175810D01*
X160778026Y-62914180D01*
X161122059Y-62488491D01*
X161141358Y-62423107D01*
X161432172Y-62858340D01*
X161885391Y-63161172D01*
X162420000Y-63267512D01*
X162954609Y-63161172D01*
X163407828Y-62858340D01*
X163690000Y-62436041D01*
X163825000Y-62638082D01*
X163825000Y-63598600D01*
X163911397Y-64032946D01*
X164157352Y-64401043D01*
X164157434Y-64401166D01*
X174058834Y-74302566D01*
X174427054Y-74548603D01*
X174726202Y-74608107D01*
X174468861Y-74865000D01*
X172113600Y-74865000D01*
X171679254Y-74951397D01*
X171311034Y-75197434D01*
X168010264Y-78498204D01*
X168010774Y-77913906D01*
X167762462Y-77312945D01*
X167303073Y-76852754D01*
X166702547Y-76603394D01*
X166346615Y-76603083D01*
X165667753Y-75924221D01*
X166173453Y-76134206D01*
X166823694Y-76134774D01*
X167424655Y-75886462D01*
X167884846Y-75427073D01*
X168134206Y-74826547D01*
X168134774Y-74176306D01*
X167886462Y-73575345D01*
X167427073Y-73115154D01*
X166826547Y-72865794D01*
X166176306Y-72865226D01*
X165575345Y-73113538D01*
X165115154Y-73572927D01*
X164865794Y-74173453D01*
X164865226Y-74823694D01*
X165113538Y-75424655D01*
X165206582Y-75517862D01*
X165003546Y-75382197D01*
X164569200Y-75295800D01*
X157788000Y-75295800D01*
X157985401Y-74764418D01*
X157961341Y-74114623D01*
X157758965Y-73626042D01*
X157492163Y-73527443D01*
X156519605Y-74500000D01*
X156533748Y-74514142D01*
X156354142Y-74693748D01*
X156340000Y-74679605D01*
X156325858Y-74693748D01*
X156146252Y-74514142D01*
X156160395Y-74500000D01*
X155187837Y-73527443D01*
X154921035Y-73626042D01*
X154694599Y-74235582D01*
X154718659Y-74885377D01*
X154888661Y-75295800D01*
X153115629Y-75295800D01*
X153281206Y-74897047D01*
X153281774Y-74246806D01*
X153033462Y-73645845D01*
X152735974Y-73347837D01*
X155367443Y-73347837D01*
X156340000Y-74320395D01*
X157312557Y-73347837D01*
X157213958Y-73081035D01*
X156604418Y-72854599D01*
X155954623Y-72878659D01*
X155466042Y-73081035D01*
X155367443Y-73347837D01*
X152735974Y-73347837D01*
X152574073Y-73185654D01*
X151973547Y-72936294D01*
X151323306Y-72935726D01*
X150722345Y-73184038D01*
X150262154Y-73643427D01*
X150012794Y-74243953D01*
X150012226Y-74894194D01*
X150178166Y-75295800D01*
X149615629Y-75295800D01*
X149781206Y-74897047D01*
X149781774Y-74246806D01*
X149533462Y-73645845D01*
X149074073Y-73185654D01*
X148473547Y-72936294D01*
X147823306Y-72935726D01*
X147356103Y-73128771D01*
X145551026Y-71323694D01*
X154705226Y-71323694D01*
X154953538Y-71924655D01*
X155412927Y-72384846D01*
X156013453Y-72634206D01*
X156663694Y-72634774D01*
X157264655Y-72386462D01*
X157724846Y-71927073D01*
X157974206Y-71326547D01*
X157974208Y-71323694D01*
X164865226Y-71323694D01*
X165113538Y-71924655D01*
X165572927Y-72384846D01*
X166173453Y-72634206D01*
X166823694Y-72634774D01*
X167424655Y-72386462D01*
X167884846Y-71927073D01*
X168134206Y-71326547D01*
X168134774Y-70676306D01*
X167886462Y-70075345D01*
X167427073Y-69615154D01*
X166826547Y-69365794D01*
X166176306Y-69365226D01*
X165575345Y-69613538D01*
X165115154Y-70072927D01*
X164865794Y-70673453D01*
X164865226Y-71323694D01*
X157974208Y-71323694D01*
X157974774Y-70676306D01*
X157726462Y-70075345D01*
X157267073Y-69615154D01*
X156666547Y-69365794D01*
X156016306Y-69365226D01*
X155415345Y-69613538D01*
X154955154Y-70072927D01*
X154705794Y-70673453D01*
X154705226Y-71323694D01*
X145551026Y-71323694D01*
X143330882Y-69103550D01*
X143377002Y-69103550D01*
X143377002Y-68938203D01*
X143591075Y-69060874D01*
X143662417Y-69046777D01*
X144139046Y-68787900D01*
X144480326Y-68366331D01*
X144500000Y-68299878D01*
X144519674Y-68366331D01*
X144860954Y-68787900D01*
X145337583Y-69046777D01*
X145408925Y-69060874D01*
X145623000Y-68938202D01*
X145623000Y-67497000D01*
X145877000Y-67497000D01*
X145877000Y-68938202D01*
X146091075Y-69060874D01*
X146162417Y-69046777D01*
X146639046Y-68787900D01*
X146980326Y-68366331D01*
X147000000Y-68299878D01*
X147019674Y-68366331D01*
X147360954Y-68787900D01*
X147837583Y-69046777D01*
X147908925Y-69060874D01*
X148123000Y-68938202D01*
X148123000Y-67497000D01*
X148377000Y-67497000D01*
X148377000Y-68938202D01*
X148591075Y-69060874D01*
X148662417Y-69046777D01*
X149139046Y-68787900D01*
X149480326Y-68366331D01*
X149634300Y-67846250D01*
X149634300Y-67497000D01*
X148377000Y-67497000D01*
X148123000Y-67497000D01*
X145877000Y-67497000D01*
X145623000Y-67497000D01*
X143377000Y-67497000D01*
X143377000Y-67517000D01*
X143123000Y-67517000D01*
X143123000Y-67497000D01*
X141865700Y-67497000D01*
X141865700Y-67638368D01*
X141324166Y-67096834D01*
X141278576Y-67066372D01*
X140955946Y-66850797D01*
X140521600Y-66764400D01*
X135116939Y-66764400D01*
X135439039Y-66442300D01*
X141999355Y-66442300D01*
X141865700Y-66893750D01*
X141865700Y-67243000D01*
X143123000Y-67243000D01*
X143123000Y-67223000D01*
X143377000Y-67223000D01*
X143377000Y-67243000D01*
X145623000Y-67243000D01*
X145623000Y-67223000D01*
X145877000Y-67223000D01*
X145877000Y-67243000D01*
X148123000Y-67243000D01*
X148123000Y-67223000D01*
X148377000Y-67223000D01*
X148377000Y-67243000D01*
X149634300Y-67243000D01*
X149634300Y-66893750D01*
X149485632Y-66391591D01*
X149856388Y-66317843D01*
X150386820Y-65963420D01*
X153215239Y-63135000D01*
X153698325Y-63135000D01*
X153786110Y-63194981D01*
X154038000Y-63245990D01*
X155562000Y-63245990D01*
X155797317Y-63201712D01*
X156013441Y-63062640D01*
X156158431Y-62850440D01*
X156196125Y-62664302D01*
X156243808Y-62696163D01*
X156352172Y-62858340D01*
X156805391Y-63161172D01*
X157340000Y-63267512D01*
X157874609Y-63161172D01*
X158327828Y-62858340D01*
X158436192Y-62696163D01*
X158496120Y-62656120D01*
X158628806Y-62457541D01*
X158637941Y-62488491D01*
X158981974Y-62914180D01*
X159462723Y-63175810D01*
X159536930Y-63190770D01*
X159753000Y-63068270D01*
X159753000Y-61627000D01*
X159733000Y-61627000D01*
X159733000Y-61373000D01*
X159753000Y-61373000D01*
X159753000Y-59931730D01*
X159536930Y-59809230D01*
X159462723Y-59824190D01*
X158981974Y-60085820D01*
X158975000Y-60094449D01*
X158975000Y-58901405D01*
X158975001Y-58901400D01*
X158850543Y-58275712D01*
X158496120Y-57745280D01*
X156243420Y-55492580D01*
X155712988Y-55138157D01*
X155087300Y-55013699D01*
X155087295Y-55013700D01*
X131518800Y-55013700D01*
X130893113Y-55138157D01*
X130362680Y-55492580D01*
X130362678Y-55492583D01*
X119181780Y-66673480D01*
X118827357Y-67203912D01*
X118702899Y-67829600D01*
X115127000Y-67829600D01*
X115127000Y-53740825D01*
X115237709Y-54008761D01*
X115987293Y-54759655D01*
X116967173Y-55166536D01*
X118028172Y-55167462D01*
X119008761Y-54762291D01*
X119759655Y-54012707D01*
X120166536Y-53032827D01*
X120167462Y-51971828D01*
X119762291Y-50991239D01*
X119012707Y-50240345D01*
X118739741Y-50127000D01*
X186259175Y-50127000D01*
X185991239Y-50237709D01*
G36*
X149675000Y-106654839D02*
X149675000Y-107170649D01*
X149668026Y-107162020D01*
X149187277Y-106900390D01*
X149113070Y-106885430D01*
X148897000Y-107007930D01*
X148897000Y-108449200D01*
X148917000Y-108449200D01*
X148917000Y-108703200D01*
X148897000Y-108703200D01*
X148897000Y-108723200D01*
X148643000Y-108723200D01*
X148643000Y-108703200D01*
X148623000Y-108703200D01*
X148623000Y-108449200D01*
X148643000Y-108449200D01*
X148643000Y-107007930D01*
X148426930Y-106885430D01*
X148352723Y-106900390D01*
X147871974Y-107162020D01*
X147527941Y-107587709D01*
X147508642Y-107653093D01*
X147217828Y-107217860D01*
X146764609Y-106915028D01*
X146230000Y-106808688D01*
X145695391Y-106915028D01*
X145242172Y-107217860D01*
X144960000Y-107640159D01*
X144677828Y-107217860D01*
X144224609Y-106915028D01*
X143690000Y-106808688D01*
X143625291Y-106821559D01*
X142888332Y-106084600D01*
X149104760Y-106084600D01*
X149675000Y-106654839D01*
X149675000Y-106654839D01*
G37*
X149675000Y-106654839D02*
X149675000Y-107170649D01*
X149668026Y-107162020D01*
X149187277Y-106900390D01*
X149113070Y-106885430D01*
X148897000Y-107007930D01*
X148897000Y-108449200D01*
X148917000Y-108449200D01*
X148917000Y-108703200D01*
X148897000Y-108703200D01*
X148897000Y-108723200D01*
X148643000Y-108723200D01*
X148643000Y-108703200D01*
X148623000Y-108703200D01*
X148623000Y-108449200D01*
X148643000Y-108449200D01*
X148643000Y-107007930D01*
X148426930Y-106885430D01*
X148352723Y-106900390D01*
X147871974Y-107162020D01*
X147527941Y-107587709D01*
X147508642Y-107653093D01*
X147217828Y-107217860D01*
X146764609Y-106915028D01*
X146230000Y-106808688D01*
X145695391Y-106915028D01*
X145242172Y-107217860D01*
X144960000Y-107640159D01*
X144677828Y-107217860D01*
X144224609Y-106915028D01*
X143690000Y-106808688D01*
X143625291Y-106821559D01*
X142888332Y-106084600D01*
X149104760Y-106084600D01*
X149675000Y-106654839D01*
G36*
X152383368Y-98464900D02*
X151280945Y-98464900D01*
X151425570Y-97976250D01*
X151425570Y-97627000D01*
X150167000Y-97627000D01*
X150167000Y-97647000D01*
X149913000Y-97647000D01*
X149913000Y-97627000D01*
X149893000Y-97627000D01*
X149893000Y-97373000D01*
X149913000Y-97373000D01*
X149913000Y-97353000D01*
X150167000Y-97353000D01*
X150167000Y-97373000D01*
X151425570Y-97373000D01*
X151425570Y-97023750D01*
X151280945Y-96535100D01*
X154313168Y-96535100D01*
X152383368Y-98464900D01*
X152383368Y-98464900D01*
G37*
X152383368Y-98464900D02*
X151280945Y-98464900D01*
X151425570Y-97976250D01*
X151425570Y-97627000D01*
X150167000Y-97627000D01*
X150167000Y-97647000D01*
X149913000Y-97647000D01*
X149913000Y-97627000D01*
X149893000Y-97627000D01*
X149893000Y-97373000D01*
X149913000Y-97373000D01*
X149913000Y-97353000D01*
X150167000Y-97353000D01*
X150167000Y-97373000D01*
X151425570Y-97373000D01*
X151425570Y-97023750D01*
X151280945Y-96535100D01*
X154313168Y-96535100D01*
X152383368Y-98464900D01*
G36*
X180296900Y-78959432D02*
X180296900Y-93691768D01*
X177884757Y-91279625D01*
X177885326Y-90626695D01*
X177598957Y-89933628D01*
X177069161Y-89402907D01*
X176376595Y-89115328D01*
X175626695Y-89114674D01*
X174933628Y-89401043D01*
X174402907Y-89930839D01*
X174222627Y-90365000D01*
X162916728Y-90365000D01*
X162589151Y-90146120D01*
X162217283Y-90072151D01*
X160509832Y-88364700D01*
X162114300Y-88364700D01*
X162200697Y-88799045D01*
X162446734Y-89167266D01*
X162814955Y-89413303D01*
X163249300Y-89499700D01*
X163683645Y-89413303D01*
X164051866Y-89167266D01*
X166346667Y-86872466D01*
X166699694Y-86872774D01*
X167300655Y-86624462D01*
X167552250Y-86373305D01*
X174114674Y-86373305D01*
X174401043Y-87066372D01*
X174930839Y-87597093D01*
X175623405Y-87884672D01*
X176373305Y-87885326D01*
X177066372Y-87598957D01*
X177597093Y-87069161D01*
X177884672Y-86376595D01*
X177885326Y-85626695D01*
X177598957Y-84933628D01*
X177069161Y-84402907D01*
X176376595Y-84115328D01*
X175626695Y-84114674D01*
X174933628Y-84401043D01*
X174402907Y-84930839D01*
X174115328Y-85623405D01*
X174114674Y-86373305D01*
X167552250Y-86373305D01*
X167760846Y-86165073D01*
X168010206Y-85564547D01*
X168010774Y-84914306D01*
X167762462Y-84313345D01*
X167303073Y-83853154D01*
X166702547Y-83603794D01*
X166052306Y-83603226D01*
X165451345Y-83851538D01*
X164991154Y-84310927D01*
X164741794Y-84911453D01*
X164741483Y-85267384D01*
X162446734Y-87562134D01*
X162200697Y-87930355D01*
X162114300Y-88364700D01*
X160509832Y-88364700D01*
X160413666Y-88268534D01*
X160045446Y-88022497D01*
X159611100Y-87936100D01*
X157963132Y-87936100D01*
X156802900Y-86775868D01*
X157089958Y-86656965D01*
X157188557Y-86390163D01*
X156216000Y-85417605D01*
X156201858Y-85431748D01*
X156022252Y-85252142D01*
X156036395Y-85238000D01*
X156395605Y-85238000D01*
X157368163Y-86210557D01*
X157634965Y-86111958D01*
X157861401Y-85502418D01*
X157837341Y-84852623D01*
X157634965Y-84364042D01*
X157368163Y-84265443D01*
X156395605Y-85238000D01*
X156036395Y-85238000D01*
X155063837Y-84265443D01*
X154797035Y-84364042D01*
X154687075Y-84660043D01*
X154112869Y-84085837D01*
X155243443Y-84085837D01*
X156216000Y-85058395D01*
X157188557Y-84085837D01*
X157089958Y-83819035D01*
X156480418Y-83592599D01*
X155830623Y-83616659D01*
X155342042Y-83819035D01*
X155243443Y-84085837D01*
X154112869Y-84085837D01*
X153954966Y-83927934D01*
X153768628Y-83803427D01*
X153586746Y-83681897D01*
X153152400Y-83595500D01*
X152823484Y-83595500D01*
X152574073Y-83345654D01*
X151973547Y-83096294D01*
X151323306Y-83095726D01*
X150722345Y-83344038D01*
X150470444Y-83595500D01*
X149323484Y-83595500D01*
X149074073Y-83345654D01*
X148473547Y-83096294D01*
X147823306Y-83095726D01*
X147222345Y-83344038D01*
X146970444Y-83595500D01*
X145823484Y-83595500D01*
X145574073Y-83345654D01*
X144973547Y-83096294D01*
X144323306Y-83095726D01*
X143722345Y-83344038D01*
X143470444Y-83595500D01*
X142323484Y-83595500D01*
X142074073Y-83345654D01*
X141473547Y-83096294D01*
X140823306Y-83095726D01*
X140222345Y-83344038D01*
X139970444Y-83595500D01*
X138823484Y-83595500D01*
X138574073Y-83345654D01*
X137973547Y-83096294D01*
X137323306Y-83095726D01*
X136722345Y-83344038D01*
X136262154Y-83803427D01*
X136012794Y-84403953D01*
X136012282Y-84990650D01*
X135781466Y-84759834D01*
X135781774Y-84406806D01*
X135533462Y-83805845D01*
X135074073Y-83345654D01*
X134473547Y-83096294D01*
X134226554Y-83096078D01*
X134432869Y-82889763D01*
X155243443Y-82889763D01*
X155342042Y-83156565D01*
X155951582Y-83383001D01*
X156601377Y-83358941D01*
X157089958Y-83156565D01*
X157188557Y-82889763D01*
X156216000Y-81917205D01*
X155243443Y-82889763D01*
X134432869Y-82889763D01*
X135849450Y-81473182D01*
X154570599Y-81473182D01*
X154594659Y-82122977D01*
X154797035Y-82611558D01*
X155063837Y-82710157D01*
X156036395Y-81737600D01*
X156395605Y-81737600D01*
X157368163Y-82710157D01*
X157634965Y-82611558D01*
X157861401Y-82002018D01*
X157837341Y-81352223D01*
X157634965Y-80863642D01*
X157368163Y-80765043D01*
X156395605Y-81737600D01*
X156036395Y-81737600D01*
X155063837Y-80765043D01*
X154797035Y-80863642D01*
X154570599Y-81473182D01*
X135849450Y-81473182D01*
X136737195Y-80585437D01*
X155243443Y-80585437D01*
X156216000Y-81557995D01*
X157188557Y-80585437D01*
X157089958Y-80318635D01*
X156480418Y-80092199D01*
X155830623Y-80116259D01*
X155342042Y-80318635D01*
X155243443Y-80585437D01*
X136737195Y-80585437D01*
X137932869Y-79389763D01*
X155243443Y-79389763D01*
X155342042Y-79656565D01*
X155951582Y-79883001D01*
X156601377Y-79858941D01*
X157089958Y-79656565D01*
X157188557Y-79389763D01*
X156216000Y-78417205D01*
X155243443Y-79389763D01*
X137932869Y-79389763D01*
X140531062Y-76791570D01*
X140545697Y-76865146D01*
X140791734Y-77233366D01*
X141159954Y-77479403D01*
X141594300Y-77565800D01*
X154721936Y-77565800D01*
X154570599Y-77973182D01*
X154594659Y-78622977D01*
X154797035Y-79111558D01*
X155063837Y-79210157D01*
X156036395Y-78237600D01*
X156022252Y-78223458D01*
X156201858Y-78043852D01*
X156216000Y-78057995D01*
X156230142Y-78043852D01*
X156409748Y-78223458D01*
X156395605Y-78237600D01*
X157368163Y-79210157D01*
X157634965Y-79111558D01*
X157861401Y-78502018D01*
X157837341Y-77852223D01*
X157718701Y-77565800D01*
X164099068Y-77565800D01*
X164741534Y-78208266D01*
X164741226Y-78561294D01*
X164989538Y-79162255D01*
X165448927Y-79622446D01*
X166049453Y-79871806D01*
X166636150Y-79872318D01*
X166405334Y-80103134D01*
X166052306Y-80102826D01*
X165451345Y-80351138D01*
X165199444Y-80602600D01*
X164246500Y-80602600D01*
X163812154Y-80688997D01*
X163443933Y-80935034D01*
X158746134Y-85632834D01*
X158500097Y-86001055D01*
X158413700Y-86435400D01*
X158500097Y-86869745D01*
X158746134Y-87237966D01*
X159114355Y-87484003D01*
X159548700Y-87570400D01*
X159983045Y-87484003D01*
X160351266Y-87237966D01*
X164716633Y-82872600D01*
X165199516Y-82872600D01*
X165448927Y-83122446D01*
X166049453Y-83371806D01*
X166699694Y-83372374D01*
X167300655Y-83124062D01*
X167760846Y-82664673D01*
X168010206Y-82064147D01*
X168010517Y-81708215D01*
X168345427Y-81373305D01*
X174114674Y-81373305D01*
X174401043Y-82066372D01*
X174930839Y-82597093D01*
X175623405Y-82884672D01*
X176373305Y-82885326D01*
X177066372Y-82598957D01*
X177597093Y-82069161D01*
X177884672Y-81376595D01*
X177885326Y-80626695D01*
X177598957Y-79933628D01*
X177069161Y-79402907D01*
X176376595Y-79115328D01*
X175626695Y-79114674D01*
X174933628Y-79401043D01*
X174402907Y-79930839D01*
X174115328Y-80623405D01*
X174114674Y-81373305D01*
X168345427Y-81373305D01*
X172583732Y-77135000D01*
X174469551Y-77135000D01*
X174930839Y-77597093D01*
X175623405Y-77884672D01*
X176373305Y-77885326D01*
X177066372Y-77598957D01*
X177597093Y-77069161D01*
X177834615Y-76497147D01*
X180296900Y-78959432D01*
X180296900Y-78959432D01*
G37*
X180296900Y-78959432D02*
X180296900Y-93691768D01*
X177884757Y-91279625D01*
X177885326Y-90626695D01*
X177598957Y-89933628D01*
X177069161Y-89402907D01*
X176376595Y-89115328D01*
X175626695Y-89114674D01*
X174933628Y-89401043D01*
X174402907Y-89930839D01*
X174222627Y-90365000D01*
X162916728Y-90365000D01*
X162589151Y-90146120D01*
X162217283Y-90072151D01*
X160509832Y-88364700D01*
X162114300Y-88364700D01*
X162200697Y-88799045D01*
X162446734Y-89167266D01*
X162814955Y-89413303D01*
X163249300Y-89499700D01*
X163683645Y-89413303D01*
X164051866Y-89167266D01*
X166346667Y-86872466D01*
X166699694Y-86872774D01*
X167300655Y-86624462D01*
X167552250Y-86373305D01*
X174114674Y-86373305D01*
X174401043Y-87066372D01*
X174930839Y-87597093D01*
X175623405Y-87884672D01*
X176373305Y-87885326D01*
X177066372Y-87598957D01*
X177597093Y-87069161D01*
X177884672Y-86376595D01*
X177885326Y-85626695D01*
X177598957Y-84933628D01*
X177069161Y-84402907D01*
X176376595Y-84115328D01*
X175626695Y-84114674D01*
X174933628Y-84401043D01*
X174402907Y-84930839D01*
X174115328Y-85623405D01*
X174114674Y-86373305D01*
X167552250Y-86373305D01*
X167760846Y-86165073D01*
X168010206Y-85564547D01*
X168010774Y-84914306D01*
X167762462Y-84313345D01*
X167303073Y-83853154D01*
X166702547Y-83603794D01*
X166052306Y-83603226D01*
X165451345Y-83851538D01*
X164991154Y-84310927D01*
X164741794Y-84911453D01*
X164741483Y-85267384D01*
X162446734Y-87562134D01*
X162200697Y-87930355D01*
X162114300Y-88364700D01*
X160509832Y-88364700D01*
X160413666Y-88268534D01*
X160045446Y-88022497D01*
X159611100Y-87936100D01*
X157963132Y-87936100D01*
X156802900Y-86775868D01*
X157089958Y-86656965D01*
X157188557Y-86390163D01*
X156216000Y-85417605D01*
X156201858Y-85431748D01*
X156022252Y-85252142D01*
X156036395Y-85238000D01*
X156395605Y-85238000D01*
X157368163Y-86210557D01*
X157634965Y-86111958D01*
X157861401Y-85502418D01*
X157837341Y-84852623D01*
X157634965Y-84364042D01*
X157368163Y-84265443D01*
X156395605Y-85238000D01*
X156036395Y-85238000D01*
X155063837Y-84265443D01*
X154797035Y-84364042D01*
X154687075Y-84660043D01*
X154112869Y-84085837D01*
X155243443Y-84085837D01*
X156216000Y-85058395D01*
X157188557Y-84085837D01*
X157089958Y-83819035D01*
X156480418Y-83592599D01*
X155830623Y-83616659D01*
X155342042Y-83819035D01*
X155243443Y-84085837D01*
X154112869Y-84085837D01*
X153954966Y-83927934D01*
X153768628Y-83803427D01*
X153586746Y-83681897D01*
X153152400Y-83595500D01*
X152823484Y-83595500D01*
X152574073Y-83345654D01*
X151973547Y-83096294D01*
X151323306Y-83095726D01*
X150722345Y-83344038D01*
X150470444Y-83595500D01*
X149323484Y-83595500D01*
X149074073Y-83345654D01*
X148473547Y-83096294D01*
X147823306Y-83095726D01*
X147222345Y-83344038D01*
X146970444Y-83595500D01*
X145823484Y-83595500D01*
X145574073Y-83345654D01*
X144973547Y-83096294D01*
X144323306Y-83095726D01*
X143722345Y-83344038D01*
X143470444Y-83595500D01*
X142323484Y-83595500D01*
X142074073Y-83345654D01*
X141473547Y-83096294D01*
X140823306Y-83095726D01*
X140222345Y-83344038D01*
X139970444Y-83595500D01*
X138823484Y-83595500D01*
X138574073Y-83345654D01*
X137973547Y-83096294D01*
X137323306Y-83095726D01*
X136722345Y-83344038D01*
X136262154Y-83803427D01*
X136012794Y-84403953D01*
X136012282Y-84990650D01*
X135781466Y-84759834D01*
X135781774Y-84406806D01*
X135533462Y-83805845D01*
X135074073Y-83345654D01*
X134473547Y-83096294D01*
X134226554Y-83096078D01*
X134432869Y-82889763D01*
X155243443Y-82889763D01*
X155342042Y-83156565D01*
X155951582Y-83383001D01*
X156601377Y-83358941D01*
X157089958Y-83156565D01*
X157188557Y-82889763D01*
X156216000Y-81917205D01*
X155243443Y-82889763D01*
X134432869Y-82889763D01*
X135849450Y-81473182D01*
X154570599Y-81473182D01*
X154594659Y-82122977D01*
X154797035Y-82611558D01*
X155063837Y-82710157D01*
X156036395Y-81737600D01*
X156395605Y-81737600D01*
X157368163Y-82710157D01*
X157634965Y-82611558D01*
X157861401Y-82002018D01*
X157837341Y-81352223D01*
X157634965Y-80863642D01*
X157368163Y-80765043D01*
X156395605Y-81737600D01*
X156036395Y-81737600D01*
X155063837Y-80765043D01*
X154797035Y-80863642D01*
X154570599Y-81473182D01*
X135849450Y-81473182D01*
X136737195Y-80585437D01*
X155243443Y-80585437D01*
X156216000Y-81557995D01*
X157188557Y-80585437D01*
X157089958Y-80318635D01*
X156480418Y-80092199D01*
X155830623Y-80116259D01*
X155342042Y-80318635D01*
X155243443Y-80585437D01*
X136737195Y-80585437D01*
X137932869Y-79389763D01*
X155243443Y-79389763D01*
X155342042Y-79656565D01*
X155951582Y-79883001D01*
X156601377Y-79858941D01*
X157089958Y-79656565D01*
X157188557Y-79389763D01*
X156216000Y-78417205D01*
X155243443Y-79389763D01*
X137932869Y-79389763D01*
X140531062Y-76791570D01*
X140545697Y-76865146D01*
X140791734Y-77233366D01*
X141159954Y-77479403D01*
X141594300Y-77565800D01*
X154721936Y-77565800D01*
X154570599Y-77973182D01*
X154594659Y-78622977D01*
X154797035Y-79111558D01*
X155063837Y-79210157D01*
X156036395Y-78237600D01*
X156022252Y-78223458D01*
X156201858Y-78043852D01*
X156216000Y-78057995D01*
X156230142Y-78043852D01*
X156409748Y-78223458D01*
X156395605Y-78237600D01*
X157368163Y-79210157D01*
X157634965Y-79111558D01*
X157861401Y-78502018D01*
X157837341Y-77852223D01*
X157718701Y-77565800D01*
X164099068Y-77565800D01*
X164741534Y-78208266D01*
X164741226Y-78561294D01*
X164989538Y-79162255D01*
X165448927Y-79622446D01*
X166049453Y-79871806D01*
X166636150Y-79872318D01*
X166405334Y-80103134D01*
X166052306Y-80102826D01*
X165451345Y-80351138D01*
X165199444Y-80602600D01*
X164246500Y-80602600D01*
X163812154Y-80688997D01*
X163443933Y-80935034D01*
X158746134Y-85632834D01*
X158500097Y-86001055D01*
X158413700Y-86435400D01*
X158500097Y-86869745D01*
X158746134Y-87237966D01*
X159114355Y-87484003D01*
X159548700Y-87570400D01*
X159983045Y-87484003D01*
X160351266Y-87237966D01*
X164716633Y-82872600D01*
X165199516Y-82872600D01*
X165448927Y-83122446D01*
X166049453Y-83371806D01*
X166699694Y-83372374D01*
X167300655Y-83124062D01*
X167760846Y-82664673D01*
X168010206Y-82064147D01*
X168010517Y-81708215D01*
X168345427Y-81373305D01*
X174114674Y-81373305D01*
X174401043Y-82066372D01*
X174930839Y-82597093D01*
X175623405Y-82884672D01*
X176373305Y-82885326D01*
X177066372Y-82598957D01*
X177597093Y-82069161D01*
X177884672Y-81376595D01*
X177885326Y-80626695D01*
X177598957Y-79933628D01*
X177069161Y-79402907D01*
X176376595Y-79115328D01*
X175626695Y-79114674D01*
X174933628Y-79401043D01*
X174402907Y-79930839D01*
X174115328Y-80623405D01*
X174114674Y-81373305D01*
X168345427Y-81373305D01*
X172583732Y-77135000D01*
X174469551Y-77135000D01*
X174930839Y-77597093D01*
X175623405Y-77884672D01*
X176373305Y-77885326D01*
X177066372Y-77598957D01*
X177597093Y-77069161D01*
X177834615Y-76497147D01*
X180296900Y-78959432D01*
M02*
