G04 #@! TF.FileFunction,Legend,Top*
%FSLAX46Y46*%
G04 Gerber Fmt 4.6, Leading zero omitted, Abs format (unit mm)*
G04 Created by KiCad (PCBNEW 4.0.1-stable) date 26/09/2016 04:38:14 p. m.*
%MOMM*%
G01*
G04 APERTURE LIST*
%ADD10C,0.100000*%
%ADD11C,0.300000*%
%ADD12C,0.200000*%
%ADD13C,0.304800*%
%ADD14C,0.254000*%
%ADD15C,0.150000*%
%ADD16C,0.381000*%
%ADD17C,0.285750*%
%ADD18C,0.287020*%
G04 APERTURE END LIST*
D10*
D11*
X187107143Y-83857143D02*
X187178571Y-83642857D01*
X187178571Y-83285714D01*
X187107143Y-83142857D01*
X187035714Y-83071428D01*
X186892857Y-83000000D01*
X186750000Y-83000000D01*
X186607143Y-83071428D01*
X186535714Y-83142857D01*
X186464286Y-83285714D01*
X186392857Y-83571428D01*
X186321429Y-83714286D01*
X186250000Y-83785714D01*
X186107143Y-83857143D01*
X185964286Y-83857143D01*
X185821429Y-83785714D01*
X185750000Y-83714286D01*
X185678571Y-83571428D01*
X185678571Y-83214286D01*
X185750000Y-83000000D01*
X186392857Y-82357143D02*
X186392857Y-81857143D01*
X187178571Y-81642857D02*
X187178571Y-82357143D01*
X185678571Y-82357143D01*
X185678571Y-81642857D01*
X187178571Y-81000000D02*
X185678571Y-81000000D01*
X187178571Y-80142857D01*
X185678571Y-80142857D01*
X187107143Y-79500000D02*
X187178571Y-79285714D01*
X187178571Y-78928571D01*
X187107143Y-78785714D01*
X187035714Y-78714285D01*
X186892857Y-78642857D01*
X186750000Y-78642857D01*
X186607143Y-78714285D01*
X186535714Y-78785714D01*
X186464286Y-78928571D01*
X186392857Y-79214285D01*
X186321429Y-79357143D01*
X186250000Y-79428571D01*
X186107143Y-79500000D01*
X185964286Y-79500000D01*
X185821429Y-79428571D01*
X185750000Y-79357143D01*
X185678571Y-79214285D01*
X185678571Y-78857143D01*
X185750000Y-78642857D01*
X185678571Y-77714286D02*
X185678571Y-77428572D01*
X185750000Y-77285714D01*
X185892857Y-77142857D01*
X186178571Y-77071429D01*
X186678571Y-77071429D01*
X186964286Y-77142857D01*
X187107143Y-77285714D01*
X187178571Y-77428572D01*
X187178571Y-77714286D01*
X187107143Y-77857143D01*
X186964286Y-78000000D01*
X186678571Y-78071429D01*
X186178571Y-78071429D01*
X185892857Y-78000000D01*
X185750000Y-77857143D01*
X185678571Y-77714286D01*
X187178571Y-75571428D02*
X186464286Y-76071428D01*
X187178571Y-76428571D02*
X185678571Y-76428571D01*
X185678571Y-75857143D01*
X185750000Y-75714285D01*
X185821429Y-75642857D01*
X185964286Y-75571428D01*
X186178571Y-75571428D01*
X186321429Y-75642857D01*
X186392857Y-75714285D01*
X186464286Y-75857143D01*
X186464286Y-76428571D01*
X187107143Y-75000000D02*
X187178571Y-74785714D01*
X187178571Y-74428571D01*
X187107143Y-74285714D01*
X187035714Y-74214285D01*
X186892857Y-74142857D01*
X186750000Y-74142857D01*
X186607143Y-74214285D01*
X186535714Y-74285714D01*
X186464286Y-74428571D01*
X186392857Y-74714285D01*
X186321429Y-74857143D01*
X186250000Y-74928571D01*
X186107143Y-75000000D01*
X185964286Y-75000000D01*
X185821429Y-74928571D01*
X185750000Y-74857143D01*
X185678571Y-74714285D01*
X185678571Y-74357143D01*
X185750000Y-74142857D01*
D12*
X144595238Y-115952381D02*
X144785715Y-115952381D01*
X144880953Y-116000000D01*
X144976191Y-116095238D01*
X145023810Y-116285714D01*
X145023810Y-116619048D01*
X144976191Y-116809524D01*
X144880953Y-116904762D01*
X144785715Y-116952381D01*
X144595238Y-116952381D01*
X144500000Y-116904762D01*
X144404762Y-116809524D01*
X144357143Y-116619048D01*
X144357143Y-116285714D01*
X144404762Y-116095238D01*
X144500000Y-116000000D01*
X144595238Y-115952381D01*
X145452381Y-115952381D02*
X145452381Y-116761905D01*
X145500000Y-116857143D01*
X145547619Y-116904762D01*
X145642857Y-116952381D01*
X145833334Y-116952381D01*
X145928572Y-116904762D01*
X145976191Y-116857143D01*
X146023810Y-116761905D01*
X146023810Y-115952381D01*
X146357143Y-115952381D02*
X146928572Y-115952381D01*
X146642857Y-116952381D02*
X146642857Y-115952381D01*
X147261905Y-116952381D02*
X147261905Y-115952381D01*
X147642858Y-115952381D01*
X147738096Y-116000000D01*
X147785715Y-116047619D01*
X147833334Y-116142857D01*
X147833334Y-116285714D01*
X147785715Y-116380952D01*
X147738096Y-116428571D01*
X147642858Y-116476190D01*
X147261905Y-116476190D01*
X148261905Y-115952381D02*
X148261905Y-116761905D01*
X148309524Y-116857143D01*
X148357143Y-116904762D01*
X148452381Y-116952381D01*
X148642858Y-116952381D01*
X148738096Y-116904762D01*
X148785715Y-116857143D01*
X148833334Y-116761905D01*
X148833334Y-115952381D01*
X149166667Y-115952381D02*
X149738096Y-115952381D01*
X149452381Y-116952381D02*
X149452381Y-115952381D01*
X160571429Y-54452381D02*
X160571429Y-53452381D01*
X161047619Y-54452381D02*
X161047619Y-53452381D01*
X161619048Y-54452381D01*
X161619048Y-53452381D01*
X162095238Y-54452381D02*
X162095238Y-53452381D01*
X162476191Y-53452381D01*
X162571429Y-53500000D01*
X162619048Y-53547619D01*
X162666667Y-53642857D01*
X162666667Y-53785714D01*
X162619048Y-53880952D01*
X162571429Y-53928571D01*
X162476191Y-53976190D01*
X162095238Y-53976190D01*
X163095238Y-53452381D02*
X163095238Y-54261905D01*
X163142857Y-54357143D01*
X163190476Y-54404762D01*
X163285714Y-54452381D01*
X163476191Y-54452381D01*
X163571429Y-54404762D01*
X163619048Y-54357143D01*
X163666667Y-54261905D01*
X163666667Y-53452381D01*
X164000000Y-53452381D02*
X164571429Y-53452381D01*
X164285714Y-54452381D02*
X164285714Y-53452381D01*
X142857143Y-55666667D02*
X143333334Y-55666667D01*
X142761905Y-55952381D02*
X143095238Y-54952381D01*
X143428572Y-55952381D01*
X143761905Y-55952381D02*
X143761905Y-54952381D01*
X144000000Y-54952381D01*
X144142858Y-55000000D01*
X144238096Y-55095238D01*
X144285715Y-55190476D01*
X144333334Y-55380952D01*
X144333334Y-55523810D01*
X144285715Y-55714286D01*
X144238096Y-55809524D01*
X144142858Y-55904762D01*
X144000000Y-55952381D01*
X143761905Y-55952381D01*
X144761905Y-55952381D02*
X144761905Y-54952381D01*
X145000000Y-54952381D01*
X145142858Y-55000000D01*
X145238096Y-55095238D01*
X145285715Y-55190476D01*
X145333334Y-55380952D01*
X145333334Y-55523810D01*
X145285715Y-55714286D01*
X145238096Y-55809524D01*
X145142858Y-55904762D01*
X145000000Y-55952381D01*
X144761905Y-55952381D01*
X146333334Y-55952381D02*
X146000000Y-55476190D01*
X145761905Y-55952381D02*
X145761905Y-54952381D01*
X146142858Y-54952381D01*
X146238096Y-55000000D01*
X146285715Y-55047619D01*
X146333334Y-55142857D01*
X146333334Y-55285714D01*
X146285715Y-55380952D01*
X146238096Y-55428571D01*
X146142858Y-55476190D01*
X145761905Y-55476190D01*
X146761905Y-55428571D02*
X147095239Y-55428571D01*
X147238096Y-55952381D02*
X146761905Y-55952381D01*
X146761905Y-54952381D01*
X147238096Y-54952381D01*
X147619048Y-55904762D02*
X147761905Y-55952381D01*
X148000001Y-55952381D01*
X148095239Y-55904762D01*
X148142858Y-55857143D01*
X148190477Y-55761905D01*
X148190477Y-55666667D01*
X148142858Y-55571429D01*
X148095239Y-55523810D01*
X148000001Y-55476190D01*
X147809524Y-55428571D01*
X147714286Y-55380952D01*
X147666667Y-55333333D01*
X147619048Y-55238095D01*
X147619048Y-55142857D01*
X147666667Y-55047619D01*
X147714286Y-55000000D01*
X147809524Y-54952381D01*
X148047620Y-54952381D01*
X148190477Y-55000000D01*
X148571429Y-55904762D02*
X148714286Y-55952381D01*
X148952382Y-55952381D01*
X149047620Y-55904762D01*
X149095239Y-55857143D01*
X149142858Y-55761905D01*
X149142858Y-55666667D01*
X149095239Y-55571429D01*
X149047620Y-55523810D01*
X148952382Y-55476190D01*
X148761905Y-55428571D01*
X148666667Y-55380952D01*
X148619048Y-55333333D01*
X148571429Y-55238095D01*
X148571429Y-55142857D01*
X148619048Y-55047619D01*
X148666667Y-55000000D01*
X148761905Y-54952381D01*
X149000001Y-54952381D01*
X149142858Y-55000000D01*
D10*
X149428572Y-57633333D02*
X149809524Y-57633333D01*
X149352381Y-57861905D02*
X149619048Y-57061905D01*
X149885715Y-57861905D01*
X150304762Y-57061905D02*
X150380953Y-57061905D01*
X150457143Y-57100000D01*
X150495238Y-57138095D01*
X150533334Y-57214286D01*
X150571429Y-57366667D01*
X150571429Y-57557143D01*
X150533334Y-57709524D01*
X150495238Y-57785714D01*
X150457143Y-57823810D01*
X150380953Y-57861905D01*
X150304762Y-57861905D01*
X150228572Y-57823810D01*
X150190476Y-57785714D01*
X150152381Y-57709524D01*
X150114286Y-57557143D01*
X150114286Y-57366667D01*
X150152381Y-57214286D01*
X150190476Y-57138095D01*
X150228572Y-57100000D01*
X150304762Y-57061905D01*
X145428572Y-57633333D02*
X145809524Y-57633333D01*
X145352381Y-57861905D02*
X145619048Y-57061905D01*
X145885715Y-57861905D01*
X146571429Y-57861905D02*
X146114286Y-57861905D01*
X146342857Y-57861905D02*
X146342857Y-57061905D01*
X146266667Y-57176190D01*
X146190476Y-57252381D01*
X146114286Y-57290476D01*
X141428572Y-57633333D02*
X141809524Y-57633333D01*
X141352381Y-57861905D02*
X141619048Y-57061905D01*
X141885715Y-57861905D01*
X142114286Y-57138095D02*
X142152381Y-57100000D01*
X142228572Y-57061905D01*
X142419048Y-57061905D01*
X142495238Y-57100000D01*
X142533334Y-57138095D01*
X142571429Y-57214286D01*
X142571429Y-57290476D01*
X142533334Y-57404762D01*
X142076191Y-57861905D01*
X142571429Y-57861905D01*
X167557143Y-57828571D02*
X167557143Y-57219047D01*
X167861905Y-57523809D02*
X167252381Y-57523809D01*
X167061905Y-56457142D02*
X167061905Y-56838095D01*
X167442857Y-56876190D01*
X167404762Y-56838095D01*
X167366667Y-56761904D01*
X167366667Y-56571428D01*
X167404762Y-56495238D01*
X167442857Y-56457142D01*
X167519048Y-56419047D01*
X167709524Y-56419047D01*
X167785714Y-56457142D01*
X167823810Y-56495238D01*
X167861905Y-56571428D01*
X167861905Y-56761904D01*
X167823810Y-56838095D01*
X167785714Y-56876190D01*
X167061905Y-56190476D02*
X167861905Y-55923809D01*
X167061905Y-55657142D01*
X167785714Y-54933333D02*
X167823810Y-54971428D01*
X167861905Y-55085714D01*
X167861905Y-55161904D01*
X167823810Y-55276190D01*
X167747619Y-55352381D01*
X167671429Y-55390476D01*
X167519048Y-55428571D01*
X167404762Y-55428571D01*
X167252381Y-55390476D01*
X167176190Y-55352381D01*
X167100000Y-55276190D01*
X167061905Y-55161904D01*
X167061905Y-55085714D01*
X167100000Y-54971428D01*
X167138095Y-54933333D01*
X167861905Y-54590476D02*
X167061905Y-54590476D01*
X167061905Y-54400000D01*
X167100000Y-54285714D01*
X167176190Y-54209523D01*
X167252381Y-54171428D01*
X167404762Y-54133333D01*
X167519048Y-54133333D01*
X167671429Y-54171428D01*
X167747619Y-54209523D01*
X167823810Y-54285714D01*
X167861905Y-54400000D01*
X167861905Y-54590476D01*
X165323810Y-57952381D02*
X165361905Y-57838095D01*
X165361905Y-57647619D01*
X165323810Y-57571429D01*
X165285714Y-57533333D01*
X165209524Y-57495238D01*
X165133333Y-57495238D01*
X165057143Y-57533333D01*
X165019048Y-57571429D01*
X164980952Y-57647619D01*
X164942857Y-57800000D01*
X164904762Y-57876191D01*
X164866667Y-57914286D01*
X164790476Y-57952381D01*
X164714286Y-57952381D01*
X164638095Y-57914286D01*
X164600000Y-57876191D01*
X164561905Y-57800000D01*
X164561905Y-57609524D01*
X164600000Y-57495238D01*
X165285714Y-56695238D02*
X165323810Y-56733333D01*
X165361905Y-56847619D01*
X165361905Y-56923809D01*
X165323810Y-57038095D01*
X165247619Y-57114286D01*
X165171429Y-57152381D01*
X165019048Y-57190476D01*
X164904762Y-57190476D01*
X164752381Y-57152381D01*
X164676190Y-57114286D01*
X164600000Y-57038095D01*
X164561905Y-56923809D01*
X164561905Y-56847619D01*
X164600000Y-56733333D01*
X164638095Y-56695238D01*
X165361905Y-55971428D02*
X165361905Y-56352381D01*
X164561905Y-56352381D01*
X162823810Y-57971428D02*
X162861905Y-57857142D01*
X162861905Y-57666666D01*
X162823810Y-57590476D01*
X162785714Y-57552380D01*
X162709524Y-57514285D01*
X162633333Y-57514285D01*
X162557143Y-57552380D01*
X162519048Y-57590476D01*
X162480952Y-57666666D01*
X162442857Y-57819047D01*
X162404762Y-57895238D01*
X162366667Y-57933333D01*
X162290476Y-57971428D01*
X162214286Y-57971428D01*
X162138095Y-57933333D01*
X162100000Y-57895238D01*
X162061905Y-57819047D01*
X162061905Y-57628571D01*
X162100000Y-57514285D01*
X162861905Y-57171428D02*
X162061905Y-57171428D01*
X162061905Y-56980952D01*
X162100000Y-56866666D01*
X162176190Y-56790475D01*
X162252381Y-56752380D01*
X162404762Y-56714285D01*
X162519048Y-56714285D01*
X162671429Y-56752380D01*
X162747619Y-56790475D01*
X162823810Y-56866666D01*
X162861905Y-56980952D01*
X162861905Y-57171428D01*
X162633333Y-56409523D02*
X162633333Y-56028571D01*
X162861905Y-56485714D02*
X162061905Y-56219047D01*
X162861905Y-55952380D01*
X159600000Y-57609523D02*
X159561905Y-57685714D01*
X159561905Y-57799999D01*
X159600000Y-57914285D01*
X159676190Y-57990476D01*
X159752381Y-58028571D01*
X159904762Y-58066666D01*
X160019048Y-58066666D01*
X160171429Y-58028571D01*
X160247619Y-57990476D01*
X160323810Y-57914285D01*
X160361905Y-57799999D01*
X160361905Y-57723809D01*
X160323810Y-57609523D01*
X160285714Y-57571428D01*
X160019048Y-57571428D01*
X160019048Y-57723809D01*
X160361905Y-57228571D02*
X159561905Y-57228571D01*
X160361905Y-56771428D01*
X159561905Y-56771428D01*
X160361905Y-56390476D02*
X159561905Y-56390476D01*
X159561905Y-56200000D01*
X159600000Y-56085714D01*
X159676190Y-56009523D01*
X159752381Y-55971428D01*
X159904762Y-55933333D01*
X160019048Y-55933333D01*
X160171429Y-55971428D01*
X160247619Y-56009523D01*
X160323810Y-56085714D01*
X160361905Y-56200000D01*
X160361905Y-56390476D01*
X157557143Y-58209524D02*
X157557143Y-57600000D01*
X157861905Y-57904762D02*
X157252381Y-57904762D01*
X157138095Y-57257143D02*
X157100000Y-57219048D01*
X157061905Y-57142857D01*
X157061905Y-56952381D01*
X157100000Y-56876191D01*
X157138095Y-56838095D01*
X157214286Y-56800000D01*
X157290476Y-56800000D01*
X157404762Y-56838095D01*
X157861905Y-57295238D01*
X157861905Y-56800000D01*
X157328571Y-56114286D02*
X157861905Y-56114286D01*
X157023810Y-56304762D02*
X157595238Y-56495238D01*
X157595238Y-56000000D01*
X157061905Y-55809524D02*
X157861905Y-55542857D01*
X157061905Y-55276190D01*
X157785714Y-54552381D02*
X157823810Y-54590476D01*
X157861905Y-54704762D01*
X157861905Y-54780952D01*
X157823810Y-54895238D01*
X157747619Y-54971429D01*
X157671429Y-55009524D01*
X157519048Y-55047619D01*
X157404762Y-55047619D01*
X157252381Y-55009524D01*
X157176190Y-54971429D01*
X157100000Y-54895238D01*
X157061905Y-54780952D01*
X157061905Y-54704762D01*
X157100000Y-54590476D01*
X157138095Y-54552381D01*
X157861905Y-54209524D02*
X157061905Y-54209524D01*
X157061905Y-54019048D01*
X157100000Y-53904762D01*
X157176190Y-53828571D01*
X157252381Y-53790476D01*
X157404762Y-53752381D01*
X157519048Y-53752381D01*
X157671429Y-53790476D01*
X157747619Y-53828571D01*
X157823810Y-53904762D01*
X157861905Y-54019048D01*
X157861905Y-54209524D01*
X153490000Y-56609523D02*
X153451905Y-56685714D01*
X153451905Y-56799999D01*
X153490000Y-56914285D01*
X153566190Y-56990476D01*
X153642381Y-57028571D01*
X153794762Y-57066666D01*
X153909048Y-57066666D01*
X154061429Y-57028571D01*
X154137619Y-56990476D01*
X154213810Y-56914285D01*
X154251905Y-56799999D01*
X154251905Y-56723809D01*
X154213810Y-56609523D01*
X154175714Y-56571428D01*
X153909048Y-56571428D01*
X153909048Y-56723809D01*
X154251905Y-56228571D02*
X153451905Y-56228571D01*
X154251905Y-55771428D01*
X153451905Y-55771428D01*
X154251905Y-55390476D02*
X153451905Y-55390476D01*
X153451905Y-55200000D01*
X153490000Y-55085714D01*
X153566190Y-55009523D01*
X153642381Y-54971428D01*
X153794762Y-54933333D01*
X153909048Y-54933333D01*
X154061429Y-54971428D01*
X154137619Y-55009523D01*
X154213810Y-55085714D01*
X154251905Y-55200000D01*
X154251905Y-55390476D01*
X155471905Y-57904762D02*
X154671905Y-57904762D01*
X154671905Y-57714286D01*
X154710000Y-57600000D01*
X154786190Y-57523809D01*
X154862381Y-57485714D01*
X155014762Y-57447619D01*
X155129048Y-57447619D01*
X155281429Y-57485714D01*
X155357619Y-57523809D01*
X155433810Y-57600000D01*
X155471905Y-57714286D01*
X155471905Y-57904762D01*
X155471905Y-56647619D02*
X155090952Y-56914286D01*
X155471905Y-57104762D02*
X154671905Y-57104762D01*
X154671905Y-56800000D01*
X154710000Y-56723809D01*
X154748095Y-56685714D01*
X154824286Y-56647619D01*
X154938571Y-56647619D01*
X155014762Y-56685714D01*
X155052857Y-56723809D01*
X155090952Y-56800000D01*
X155090952Y-57104762D01*
X155471905Y-56304762D02*
X154671905Y-56304762D01*
X154671905Y-56038096D02*
X155471905Y-55771429D01*
X154671905Y-55504762D01*
X155052857Y-55238096D02*
X155052857Y-54971429D01*
X155471905Y-54857143D02*
X155471905Y-55238096D01*
X154671905Y-55238096D01*
X154671905Y-54857143D01*
X155471905Y-54057143D02*
X155090952Y-54323810D01*
X155471905Y-54514286D02*
X154671905Y-54514286D01*
X154671905Y-54209524D01*
X154710000Y-54133333D01*
X154748095Y-54095238D01*
X154824286Y-54057143D01*
X154938571Y-54057143D01*
X155014762Y-54095238D01*
X155052857Y-54133333D01*
X155090952Y-54209524D01*
X155090952Y-54514286D01*
X182200000Y-96361905D02*
X182200000Y-95561905D01*
X182580952Y-96361905D02*
X182580952Y-95561905D01*
X183038095Y-96361905D01*
X183038095Y-95561905D01*
X183838095Y-96361905D02*
X183380952Y-96361905D01*
X183609523Y-96361905D02*
X183609523Y-95561905D01*
X183533333Y-95676190D01*
X183457142Y-95752381D01*
X183380952Y-95790476D01*
X181171429Y-91057143D02*
X181780953Y-91057143D01*
X182542858Y-90561905D02*
X182161905Y-90561905D01*
X182123810Y-90942857D01*
X182161905Y-90904762D01*
X182238096Y-90866667D01*
X182428572Y-90866667D01*
X182504762Y-90904762D01*
X182542858Y-90942857D01*
X182580953Y-91019048D01*
X182580953Y-91209524D01*
X182542858Y-91285714D01*
X182504762Y-91323810D01*
X182428572Y-91361905D01*
X182238096Y-91361905D01*
X182161905Y-91323810D01*
X182123810Y-91285714D01*
X182809524Y-90561905D02*
X183076191Y-91361905D01*
X183342858Y-90561905D01*
X184066667Y-91285714D02*
X184028572Y-91323810D01*
X183914286Y-91361905D01*
X183838096Y-91361905D01*
X183723810Y-91323810D01*
X183647619Y-91247619D01*
X183609524Y-91171429D01*
X183571429Y-91019048D01*
X183571429Y-90904762D01*
X183609524Y-90752381D01*
X183647619Y-90676190D01*
X183723810Y-90600000D01*
X183838096Y-90561905D01*
X183914286Y-90561905D01*
X184028572Y-90600000D01*
X184066667Y-90638095D01*
X184409524Y-91361905D02*
X184409524Y-90561905D01*
X184600000Y-90561905D01*
X184714286Y-90600000D01*
X184790477Y-90676190D01*
X184828572Y-90752381D01*
X184866667Y-90904762D01*
X184866667Y-91019048D01*
X184828572Y-91171429D01*
X184790477Y-91247619D01*
X184714286Y-91323810D01*
X184600000Y-91361905D01*
X184409524Y-91361905D01*
X182200000Y-86361905D02*
X182200000Y-85561905D01*
X182580952Y-86361905D02*
X182580952Y-85561905D01*
X183038095Y-86361905D01*
X183038095Y-85561905D01*
X183380952Y-85638095D02*
X183419047Y-85600000D01*
X183495238Y-85561905D01*
X183685714Y-85561905D01*
X183761904Y-85600000D01*
X183800000Y-85638095D01*
X183838095Y-85714286D01*
X183838095Y-85790476D01*
X183800000Y-85904762D01*
X183342857Y-86361905D01*
X183838095Y-86361905D01*
X181171429Y-81057143D02*
X181780953Y-81057143D01*
X181476191Y-81361905D02*
X181476191Y-80752381D01*
X182542858Y-80561905D02*
X182161905Y-80561905D01*
X182123810Y-80942857D01*
X182161905Y-80904762D01*
X182238096Y-80866667D01*
X182428572Y-80866667D01*
X182504762Y-80904762D01*
X182542858Y-80942857D01*
X182580953Y-81019048D01*
X182580953Y-81209524D01*
X182542858Y-81285714D01*
X182504762Y-81323810D01*
X182428572Y-81361905D01*
X182238096Y-81361905D01*
X182161905Y-81323810D01*
X182123810Y-81285714D01*
X182809524Y-80561905D02*
X183076191Y-81361905D01*
X183342858Y-80561905D01*
X184066667Y-81285714D02*
X184028572Y-81323810D01*
X183914286Y-81361905D01*
X183838096Y-81361905D01*
X183723810Y-81323810D01*
X183647619Y-81247619D01*
X183609524Y-81171429D01*
X183571429Y-81019048D01*
X183571429Y-80904762D01*
X183609524Y-80752381D01*
X183647619Y-80676190D01*
X183723810Y-80600000D01*
X183838096Y-80561905D01*
X183914286Y-80561905D01*
X184028572Y-80600000D01*
X184066667Y-80638095D01*
X184409524Y-81361905D02*
X184409524Y-80561905D01*
X184600000Y-80561905D01*
X184714286Y-80600000D01*
X184790477Y-80676190D01*
X184828572Y-80752381D01*
X184866667Y-80904762D01*
X184866667Y-81019048D01*
X184828572Y-81171429D01*
X184790477Y-81247619D01*
X184714286Y-81323810D01*
X184600000Y-81361905D01*
X184409524Y-81361905D01*
X182200000Y-76361905D02*
X182200000Y-75561905D01*
X182580952Y-76361905D02*
X182580952Y-75561905D01*
X183038095Y-76361905D01*
X183038095Y-75561905D01*
X183342857Y-75561905D02*
X183838095Y-75561905D01*
X183571428Y-75866667D01*
X183685714Y-75866667D01*
X183761904Y-75904762D01*
X183800000Y-75942857D01*
X183838095Y-76019048D01*
X183838095Y-76209524D01*
X183800000Y-76285714D01*
X183761904Y-76323810D01*
X183685714Y-76361905D01*
X183457142Y-76361905D01*
X183380952Y-76323810D01*
X183342857Y-76285714D01*
X181171429Y-71057143D02*
X181780953Y-71057143D01*
X181476191Y-71361905D02*
X181476191Y-70752381D01*
X182542858Y-70561905D02*
X182161905Y-70561905D01*
X182123810Y-70942857D01*
X182161905Y-70904762D01*
X182238096Y-70866667D01*
X182428572Y-70866667D01*
X182504762Y-70904762D01*
X182542858Y-70942857D01*
X182580953Y-71019048D01*
X182580953Y-71209524D01*
X182542858Y-71285714D01*
X182504762Y-71323810D01*
X182428572Y-71361905D01*
X182238096Y-71361905D01*
X182161905Y-71323810D01*
X182123810Y-71285714D01*
X182809524Y-70561905D02*
X183076191Y-71361905D01*
X183342858Y-70561905D01*
X184066667Y-71285714D02*
X184028572Y-71323810D01*
X183914286Y-71361905D01*
X183838096Y-71361905D01*
X183723810Y-71323810D01*
X183647619Y-71247619D01*
X183609524Y-71171429D01*
X183571429Y-71019048D01*
X183571429Y-70904762D01*
X183609524Y-70752381D01*
X183647619Y-70676190D01*
X183723810Y-70600000D01*
X183838096Y-70561905D01*
X183914286Y-70561905D01*
X184028572Y-70600000D01*
X184066667Y-70638095D01*
X184409524Y-71361905D02*
X184409524Y-70561905D01*
X184600000Y-70561905D01*
X184714286Y-70600000D01*
X184790477Y-70676190D01*
X184828572Y-70752381D01*
X184866667Y-70904762D01*
X184866667Y-71019048D01*
X184828572Y-71171429D01*
X184790477Y-71247619D01*
X184714286Y-71323810D01*
X184600000Y-71361905D01*
X184409524Y-71361905D01*
X182200000Y-66361905D02*
X182200000Y-65561905D01*
X182580952Y-66361905D02*
X182580952Y-65561905D01*
X183038095Y-66361905D01*
X183038095Y-65561905D01*
X183761904Y-65828571D02*
X183761904Y-66361905D01*
X183571428Y-65523810D02*
X183380952Y-66095238D01*
X183876190Y-66095238D01*
X181171429Y-61057143D02*
X181780953Y-61057143D01*
X181476191Y-61361905D02*
X181476191Y-60752381D01*
X182542858Y-60561905D02*
X182161905Y-60561905D01*
X182123810Y-60942857D01*
X182161905Y-60904762D01*
X182238096Y-60866667D01*
X182428572Y-60866667D01*
X182504762Y-60904762D01*
X182542858Y-60942857D01*
X182580953Y-61019048D01*
X182580953Y-61209524D01*
X182542858Y-61285714D01*
X182504762Y-61323810D01*
X182428572Y-61361905D01*
X182238096Y-61361905D01*
X182161905Y-61323810D01*
X182123810Y-61285714D01*
X182809524Y-60561905D02*
X183076191Y-61361905D01*
X183342858Y-60561905D01*
X184066667Y-61285714D02*
X184028572Y-61323810D01*
X183914286Y-61361905D01*
X183838096Y-61361905D01*
X183723810Y-61323810D01*
X183647619Y-61247619D01*
X183609524Y-61171429D01*
X183571429Y-61019048D01*
X183571429Y-60904762D01*
X183609524Y-60752381D01*
X183647619Y-60676190D01*
X183723810Y-60600000D01*
X183838096Y-60561905D01*
X183914286Y-60561905D01*
X184028572Y-60600000D01*
X184066667Y-60638095D01*
X184409524Y-61361905D02*
X184409524Y-60561905D01*
X184600000Y-60561905D01*
X184714286Y-60600000D01*
X184790477Y-60676190D01*
X184828572Y-60752381D01*
X184866667Y-60904762D01*
X184866667Y-61019048D01*
X184828572Y-61171429D01*
X184790477Y-61247619D01*
X184714286Y-61323810D01*
X184600000Y-61361905D01*
X184409524Y-61361905D01*
X178938095Y-112819048D02*
X178938095Y-112971429D01*
X178900000Y-113047620D01*
X178823810Y-113123810D01*
X178671429Y-113161905D01*
X178404762Y-113161905D01*
X178252381Y-113123810D01*
X178176190Y-113047620D01*
X178138095Y-112971429D01*
X178138095Y-112819048D01*
X178176190Y-112742858D01*
X178252381Y-112666667D01*
X178404762Y-112628572D01*
X178671429Y-112628572D01*
X178823810Y-112666667D01*
X178900000Y-112742858D01*
X178938095Y-112819048D01*
X178938095Y-113504762D02*
X178290476Y-113504762D01*
X178214286Y-113542857D01*
X178176190Y-113580953D01*
X178138095Y-113657143D01*
X178138095Y-113809524D01*
X178176190Y-113885715D01*
X178214286Y-113923810D01*
X178290476Y-113961905D01*
X178938095Y-113961905D01*
X178938095Y-114228571D02*
X178938095Y-114685714D01*
X178138095Y-114457143D02*
X178938095Y-114457143D01*
X178671429Y-115295238D02*
X178138095Y-115295238D01*
X178976190Y-115104762D02*
X178404762Y-114914286D01*
X178404762Y-115409524D01*
X173938095Y-112819048D02*
X173938095Y-112971429D01*
X173900000Y-113047620D01*
X173823810Y-113123810D01*
X173671429Y-113161905D01*
X173404762Y-113161905D01*
X173252381Y-113123810D01*
X173176190Y-113047620D01*
X173138095Y-112971429D01*
X173138095Y-112819048D01*
X173176190Y-112742858D01*
X173252381Y-112666667D01*
X173404762Y-112628572D01*
X173671429Y-112628572D01*
X173823810Y-112666667D01*
X173900000Y-112742858D01*
X173938095Y-112819048D01*
X173938095Y-113504762D02*
X173290476Y-113504762D01*
X173214286Y-113542857D01*
X173176190Y-113580953D01*
X173138095Y-113657143D01*
X173138095Y-113809524D01*
X173176190Y-113885715D01*
X173214286Y-113923810D01*
X173290476Y-113961905D01*
X173938095Y-113961905D01*
X173938095Y-114228571D02*
X173938095Y-114685714D01*
X173138095Y-114457143D02*
X173938095Y-114457143D01*
X173938095Y-114876191D02*
X173938095Y-115371429D01*
X173633333Y-115104762D01*
X173633333Y-115219048D01*
X173595238Y-115295238D01*
X173557143Y-115333334D01*
X173480952Y-115371429D01*
X173290476Y-115371429D01*
X173214286Y-115333334D01*
X173176190Y-115295238D01*
X173138095Y-115219048D01*
X173138095Y-114990476D01*
X173176190Y-114914286D01*
X173214286Y-114876191D01*
X169438095Y-112819048D02*
X169438095Y-112971429D01*
X169400000Y-113047620D01*
X169323810Y-113123810D01*
X169171429Y-113161905D01*
X168904762Y-113161905D01*
X168752381Y-113123810D01*
X168676190Y-113047620D01*
X168638095Y-112971429D01*
X168638095Y-112819048D01*
X168676190Y-112742858D01*
X168752381Y-112666667D01*
X168904762Y-112628572D01*
X169171429Y-112628572D01*
X169323810Y-112666667D01*
X169400000Y-112742858D01*
X169438095Y-112819048D01*
X169438095Y-113504762D02*
X168790476Y-113504762D01*
X168714286Y-113542857D01*
X168676190Y-113580953D01*
X168638095Y-113657143D01*
X168638095Y-113809524D01*
X168676190Y-113885715D01*
X168714286Y-113923810D01*
X168790476Y-113961905D01*
X169438095Y-113961905D01*
X169438095Y-114228571D02*
X169438095Y-114685714D01*
X168638095Y-114457143D02*
X169438095Y-114457143D01*
X169361905Y-114914286D02*
X169400000Y-114952381D01*
X169438095Y-115028572D01*
X169438095Y-115219048D01*
X169400000Y-115295238D01*
X169361905Y-115333334D01*
X169285714Y-115371429D01*
X169209524Y-115371429D01*
X169095238Y-115333334D01*
X168638095Y-114876191D01*
X168638095Y-115371429D01*
X155510000Y-113390477D02*
X155548095Y-113314286D01*
X155548095Y-113200001D01*
X155510000Y-113085715D01*
X155433810Y-113009524D01*
X155357619Y-112971429D01*
X155205238Y-112933334D01*
X155090952Y-112933334D01*
X154938571Y-112971429D01*
X154862381Y-113009524D01*
X154786190Y-113085715D01*
X154748095Y-113200001D01*
X154748095Y-113276191D01*
X154786190Y-113390477D01*
X154824286Y-113428572D01*
X155090952Y-113428572D01*
X155090952Y-113276191D01*
X154748095Y-113771429D02*
X155548095Y-113771429D01*
X154748095Y-114228572D01*
X155548095Y-114228572D01*
X154748095Y-114609524D02*
X155548095Y-114609524D01*
X155548095Y-114800000D01*
X155510000Y-114914286D01*
X155433810Y-114990477D01*
X155357619Y-115028572D01*
X155205238Y-115066667D01*
X155090952Y-115066667D01*
X154938571Y-115028572D01*
X154862381Y-114990477D01*
X154786190Y-114914286D01*
X154748095Y-114800000D01*
X154748095Y-114609524D01*
X153528095Y-112095238D02*
X154328095Y-112095238D01*
X154328095Y-112285714D01*
X154290000Y-112400000D01*
X154213810Y-112476191D01*
X154137619Y-112514286D01*
X153985238Y-112552381D01*
X153870952Y-112552381D01*
X153718571Y-112514286D01*
X153642381Y-112476191D01*
X153566190Y-112400000D01*
X153528095Y-112285714D01*
X153528095Y-112095238D01*
X153528095Y-113352381D02*
X153909048Y-113085714D01*
X153528095Y-112895238D02*
X154328095Y-112895238D01*
X154328095Y-113200000D01*
X154290000Y-113276191D01*
X154251905Y-113314286D01*
X154175714Y-113352381D01*
X154061429Y-113352381D01*
X153985238Y-113314286D01*
X153947143Y-113276191D01*
X153909048Y-113200000D01*
X153909048Y-112895238D01*
X153528095Y-113695238D02*
X154328095Y-113695238D01*
X154328095Y-113961904D02*
X153528095Y-114228571D01*
X154328095Y-114495238D01*
X153947143Y-114761904D02*
X153947143Y-115028571D01*
X153528095Y-115142857D02*
X153528095Y-114761904D01*
X154328095Y-114761904D01*
X154328095Y-115142857D01*
X153528095Y-115942857D02*
X153909048Y-115676190D01*
X153528095Y-115485714D02*
X154328095Y-115485714D01*
X154328095Y-115790476D01*
X154290000Y-115866667D01*
X154251905Y-115904762D01*
X154175714Y-115942857D01*
X154061429Y-115942857D01*
X153985238Y-115904762D01*
X153947143Y-115866667D01*
X153909048Y-115790476D01*
X153909048Y-115485714D01*
X151442857Y-112290476D02*
X151442857Y-112900000D01*
X151138095Y-112595238D02*
X151747619Y-112595238D01*
X151861905Y-113242857D02*
X151900000Y-113280952D01*
X151938095Y-113357143D01*
X151938095Y-113547619D01*
X151900000Y-113623809D01*
X151861905Y-113661905D01*
X151785714Y-113700000D01*
X151709524Y-113700000D01*
X151595238Y-113661905D01*
X151138095Y-113204762D01*
X151138095Y-113700000D01*
X151671429Y-114385714D02*
X151138095Y-114385714D01*
X151976190Y-114195238D02*
X151404762Y-114004762D01*
X151404762Y-114500000D01*
X151938095Y-114690476D02*
X151138095Y-114957143D01*
X151938095Y-115223810D01*
X151214286Y-115947619D02*
X151176190Y-115909524D01*
X151138095Y-115795238D01*
X151138095Y-115719048D01*
X151176190Y-115604762D01*
X151252381Y-115528571D01*
X151328571Y-115490476D01*
X151480952Y-115452381D01*
X151595238Y-115452381D01*
X151747619Y-115490476D01*
X151823810Y-115528571D01*
X151900000Y-115604762D01*
X151938095Y-115719048D01*
X151938095Y-115795238D01*
X151900000Y-115909524D01*
X151861905Y-115947619D01*
X151138095Y-116290476D02*
X151938095Y-116290476D01*
X151938095Y-116480952D01*
X151900000Y-116595238D01*
X151823810Y-116671429D01*
X151747619Y-116709524D01*
X151595238Y-116747619D01*
X151480952Y-116747619D01*
X151328571Y-116709524D01*
X151252381Y-116671429D01*
X151176190Y-116595238D01*
X151138095Y-116480952D01*
X151138095Y-116290476D01*
X149400000Y-112890477D02*
X149438095Y-112814286D01*
X149438095Y-112700001D01*
X149400000Y-112585715D01*
X149323810Y-112509524D01*
X149247619Y-112471429D01*
X149095238Y-112433334D01*
X148980952Y-112433334D01*
X148828571Y-112471429D01*
X148752381Y-112509524D01*
X148676190Y-112585715D01*
X148638095Y-112700001D01*
X148638095Y-112776191D01*
X148676190Y-112890477D01*
X148714286Y-112928572D01*
X148980952Y-112928572D01*
X148980952Y-112776191D01*
X148638095Y-113271429D02*
X149438095Y-113271429D01*
X148638095Y-113728572D01*
X149438095Y-113728572D01*
X148638095Y-114109524D02*
X149438095Y-114109524D01*
X149438095Y-114300000D01*
X149400000Y-114414286D01*
X149323810Y-114490477D01*
X149247619Y-114528572D01*
X149095238Y-114566667D01*
X148980952Y-114566667D01*
X148828571Y-114528572D01*
X148752381Y-114490477D01*
X148676190Y-114414286D01*
X148638095Y-114300000D01*
X148638095Y-114109524D01*
X146176190Y-112528572D02*
X146138095Y-112642858D01*
X146138095Y-112833334D01*
X146176190Y-112909524D01*
X146214286Y-112947620D01*
X146290476Y-112985715D01*
X146366667Y-112985715D01*
X146442857Y-112947620D01*
X146480952Y-112909524D01*
X146519048Y-112833334D01*
X146557143Y-112680953D01*
X146595238Y-112604762D01*
X146633333Y-112566667D01*
X146709524Y-112528572D01*
X146785714Y-112528572D01*
X146861905Y-112566667D01*
X146900000Y-112604762D01*
X146938095Y-112680953D01*
X146938095Y-112871429D01*
X146900000Y-112985715D01*
X146138095Y-113328572D02*
X146938095Y-113328572D01*
X146938095Y-113519048D01*
X146900000Y-113633334D01*
X146823810Y-113709525D01*
X146747619Y-113747620D01*
X146595238Y-113785715D01*
X146480952Y-113785715D01*
X146328571Y-113747620D01*
X146252381Y-113709525D01*
X146176190Y-113633334D01*
X146138095Y-113519048D01*
X146138095Y-113328572D01*
X146366667Y-114090477D02*
X146366667Y-114471429D01*
X146138095Y-114014286D02*
X146938095Y-114280953D01*
X146138095Y-114547620D01*
X143676190Y-112547619D02*
X143638095Y-112661905D01*
X143638095Y-112852381D01*
X143676190Y-112928571D01*
X143714286Y-112966667D01*
X143790476Y-113004762D01*
X143866667Y-113004762D01*
X143942857Y-112966667D01*
X143980952Y-112928571D01*
X144019048Y-112852381D01*
X144057143Y-112700000D01*
X144095238Y-112623809D01*
X144133333Y-112585714D01*
X144209524Y-112547619D01*
X144285714Y-112547619D01*
X144361905Y-112585714D01*
X144400000Y-112623809D01*
X144438095Y-112700000D01*
X144438095Y-112890476D01*
X144400000Y-113004762D01*
X143714286Y-113804762D02*
X143676190Y-113766667D01*
X143638095Y-113652381D01*
X143638095Y-113576191D01*
X143676190Y-113461905D01*
X143752381Y-113385714D01*
X143828571Y-113347619D01*
X143980952Y-113309524D01*
X144095238Y-113309524D01*
X144247619Y-113347619D01*
X144323810Y-113385714D01*
X144400000Y-113461905D01*
X144438095Y-113576191D01*
X144438095Y-113652381D01*
X144400000Y-113766667D01*
X144361905Y-113804762D01*
X143638095Y-114528572D02*
X143638095Y-114147619D01*
X144438095Y-114147619D01*
X141442857Y-112171429D02*
X141442857Y-112780953D01*
X141138095Y-112476191D02*
X141747619Y-112476191D01*
X141938095Y-113542858D02*
X141938095Y-113161905D01*
X141557143Y-113123810D01*
X141595238Y-113161905D01*
X141633333Y-113238096D01*
X141633333Y-113428572D01*
X141595238Y-113504762D01*
X141557143Y-113542858D01*
X141480952Y-113580953D01*
X141290476Y-113580953D01*
X141214286Y-113542858D01*
X141176190Y-113504762D01*
X141138095Y-113428572D01*
X141138095Y-113238096D01*
X141176190Y-113161905D01*
X141214286Y-113123810D01*
X141938095Y-113809524D02*
X141138095Y-114076191D01*
X141938095Y-114342858D01*
X141214286Y-115066667D02*
X141176190Y-115028572D01*
X141138095Y-114914286D01*
X141138095Y-114838096D01*
X141176190Y-114723810D01*
X141252381Y-114647619D01*
X141328571Y-114609524D01*
X141480952Y-114571429D01*
X141595238Y-114571429D01*
X141747619Y-114609524D01*
X141823810Y-114647619D01*
X141900000Y-114723810D01*
X141938095Y-114838096D01*
X141938095Y-114914286D01*
X141900000Y-115028572D01*
X141861905Y-115066667D01*
X141138095Y-115409524D02*
X141938095Y-115409524D01*
X141938095Y-115600000D01*
X141900000Y-115714286D01*
X141823810Y-115790477D01*
X141747619Y-115828572D01*
X141595238Y-115866667D01*
X141480952Y-115866667D01*
X141328571Y-115828572D01*
X141252381Y-115790477D01*
X141176190Y-115714286D01*
X141138095Y-115600000D01*
X141138095Y-115409524D01*
X129138095Y-112195238D02*
X129938095Y-112195238D01*
X129366667Y-112461905D01*
X129938095Y-112728572D01*
X129138095Y-112728572D01*
X129938095Y-113261905D02*
X129938095Y-113414286D01*
X129900000Y-113490477D01*
X129823810Y-113566667D01*
X129671429Y-113604762D01*
X129404762Y-113604762D01*
X129252381Y-113566667D01*
X129176190Y-113490477D01*
X129138095Y-113414286D01*
X129138095Y-113261905D01*
X129176190Y-113185715D01*
X129252381Y-113109524D01*
X129404762Y-113071429D01*
X129671429Y-113071429D01*
X129823810Y-113109524D01*
X129900000Y-113185715D01*
X129938095Y-113261905D01*
X129938095Y-113833333D02*
X129938095Y-114290476D01*
X129138095Y-114061905D02*
X129938095Y-114061905D01*
X129938095Y-114709524D02*
X129938095Y-114861905D01*
X129900000Y-114938096D01*
X129823810Y-115014286D01*
X129671429Y-115052381D01*
X129404762Y-115052381D01*
X129252381Y-115014286D01*
X129176190Y-114938096D01*
X129138095Y-114861905D01*
X129138095Y-114709524D01*
X129176190Y-114633334D01*
X129252381Y-114557143D01*
X129404762Y-114519048D01*
X129671429Y-114519048D01*
X129823810Y-114557143D01*
X129900000Y-114633334D01*
X129938095Y-114709524D01*
X129138095Y-115852381D02*
X129519048Y-115585714D01*
X129138095Y-115395238D02*
X129938095Y-115395238D01*
X129938095Y-115700000D01*
X129900000Y-115776191D01*
X129861905Y-115814286D01*
X129785714Y-115852381D01*
X129671429Y-115852381D01*
X129595238Y-115814286D01*
X129557143Y-115776191D01*
X129519048Y-115700000D01*
X129519048Y-115395238D01*
X129442857Y-116195238D02*
X129442857Y-116804762D01*
X124138095Y-112195238D02*
X124938095Y-112195238D01*
X124366667Y-112461905D01*
X124938095Y-112728572D01*
X124138095Y-112728572D01*
X124938095Y-113261905D02*
X124938095Y-113414286D01*
X124900000Y-113490477D01*
X124823810Y-113566667D01*
X124671429Y-113604762D01*
X124404762Y-113604762D01*
X124252381Y-113566667D01*
X124176190Y-113490477D01*
X124138095Y-113414286D01*
X124138095Y-113261905D01*
X124176190Y-113185715D01*
X124252381Y-113109524D01*
X124404762Y-113071429D01*
X124671429Y-113071429D01*
X124823810Y-113109524D01*
X124900000Y-113185715D01*
X124938095Y-113261905D01*
X124938095Y-113833333D02*
X124938095Y-114290476D01*
X124138095Y-114061905D02*
X124938095Y-114061905D01*
X124938095Y-114709524D02*
X124938095Y-114861905D01*
X124900000Y-114938096D01*
X124823810Y-115014286D01*
X124671429Y-115052381D01*
X124404762Y-115052381D01*
X124252381Y-115014286D01*
X124176190Y-114938096D01*
X124138095Y-114861905D01*
X124138095Y-114709524D01*
X124176190Y-114633334D01*
X124252381Y-114557143D01*
X124404762Y-114519048D01*
X124671429Y-114519048D01*
X124823810Y-114557143D01*
X124900000Y-114633334D01*
X124938095Y-114709524D01*
X124138095Y-115852381D02*
X124519048Y-115585714D01*
X124138095Y-115395238D02*
X124938095Y-115395238D01*
X124938095Y-115700000D01*
X124900000Y-115776191D01*
X124861905Y-115814286D01*
X124785714Y-115852381D01*
X124671429Y-115852381D01*
X124595238Y-115814286D01*
X124557143Y-115776191D01*
X124519048Y-115700000D01*
X124519048Y-115395238D01*
X124442857Y-116195238D02*
X124442857Y-116804762D01*
X124138095Y-116500000D02*
X124747619Y-116500000D01*
D13*
X137300000Y-62600000D02*
X133700000Y-62600000D01*
X133700000Y-62800000D02*
X137300000Y-62800000D01*
X137300000Y-63000000D02*
X133700000Y-63000000D01*
X137300000Y-63200000D02*
X133700000Y-63200000D01*
X133700000Y-63400000D02*
X137300000Y-63400000D01*
X133700000Y-68800000D02*
X133700000Y-61200000D01*
X133700000Y-61200000D02*
X137300000Y-61200000D01*
X137300000Y-61200000D02*
X137300000Y-68800000D01*
X137300000Y-68800000D02*
X133700000Y-68800000D01*
X135500000Y-59000000D02*
X135500000Y-61200000D01*
X135500000Y-71000000D02*
X135500000Y-68800000D01*
D14*
X163944000Y-59290200D02*
X168516000Y-59290200D01*
X163944000Y-58782200D02*
X168516000Y-58782200D01*
X163436000Y-58782200D02*
X153784000Y-58782200D01*
X163436000Y-59290200D02*
X153784000Y-59290200D01*
X153784000Y-59290200D02*
X153784000Y-58401200D01*
X168516000Y-59290200D02*
X168516000Y-58401200D01*
X163944000Y-59290200D02*
X163944000Y-58401200D01*
X163436000Y-59290200D02*
X163436000Y-58401200D01*
X153530000Y-58401200D02*
X168770000Y-58401200D01*
X159372000Y-64751200D02*
X165468000Y-64751200D01*
X157848000Y-64751200D02*
X153530000Y-64751200D01*
X165722000Y-64497200D02*
X166738000Y-64497200D01*
X165722000Y-64497200D02*
X165468000Y-64751200D01*
X166738000Y-64497200D02*
X166992000Y-64751200D01*
X166992000Y-64751200D02*
X168770000Y-64751200D01*
X159118000Y-64497200D02*
X159372000Y-64751200D01*
X158102000Y-64497200D02*
X157848000Y-64751200D01*
X158102000Y-64497200D02*
X159118000Y-64497200D01*
X168770000Y-58401200D02*
X168770000Y-64751200D01*
X153530000Y-64751200D02*
X153530000Y-58401200D01*
X144706000Y-110786000D02*
X140134000Y-110786000D01*
X144706000Y-111294000D02*
X140134000Y-111294000D01*
X145214000Y-111294000D02*
X154866000Y-111294000D01*
X145214000Y-110786000D02*
X154866000Y-110786000D01*
X154866000Y-110786000D02*
X154866000Y-111675000D01*
X140134000Y-110786000D02*
X140134000Y-111675000D01*
X144706000Y-110786000D02*
X144706000Y-111675000D01*
X145214000Y-110786000D02*
X145214000Y-111675000D01*
X155120000Y-111675000D02*
X139880000Y-111675000D01*
X149278000Y-105325000D02*
X143182000Y-105325000D01*
X150802000Y-105325000D02*
X155120000Y-105325000D01*
X142928000Y-105579000D02*
X141912000Y-105579000D01*
X142928000Y-105579000D02*
X143182000Y-105325000D01*
X141912000Y-105579000D02*
X141658000Y-105325000D01*
X141658000Y-105325000D02*
X139880000Y-105325000D01*
X149532000Y-105579000D02*
X149278000Y-105325000D01*
X150548000Y-105579000D02*
X150802000Y-105325000D01*
X150548000Y-105579000D02*
X149532000Y-105579000D01*
X139880000Y-111675000D02*
X139880000Y-105325000D01*
X155120000Y-105325000D02*
X155120000Y-111675000D01*
D15*
X180000000Y-107100000D02*
G75*
G03X180000000Y-107100000I-2000000J0D01*
G01*
X175500000Y-111100000D02*
X175500000Y-111600000D01*
X170500000Y-111100000D02*
X170500000Y-111600000D01*
X175000000Y-107100000D02*
G75*
G03X175000000Y-107100000I-2000000J0D01*
G01*
X170000000Y-107100000D02*
G75*
G03X170000000Y-107100000I-2000000J0D01*
G01*
X165500000Y-109600000D02*
X180500000Y-109600000D01*
X165500000Y-104700000D02*
X180500000Y-104700000D01*
X165500000Y-111100000D02*
X180500000Y-111100000D01*
X165500000Y-111600000D02*
X180500000Y-111600000D01*
X180500000Y-111600000D02*
X180500000Y-101800000D01*
X180500000Y-101800000D02*
X165500000Y-101800000D01*
X165500000Y-101800000D02*
X165500000Y-111600000D01*
X127000000Y-111100000D02*
X127000000Y-111600000D01*
X131500000Y-107100000D02*
G75*
G03X131500000Y-107100000I-2000000J0D01*
G01*
X126500000Y-107100000D02*
G75*
G03X126500000Y-107100000I-2000000J0D01*
G01*
X122000000Y-109600000D02*
X132000000Y-109600000D01*
X122000000Y-104700000D02*
X132000000Y-104700000D01*
X122000000Y-111100000D02*
X132000000Y-111100000D01*
X122000000Y-111600000D02*
X132000000Y-111600000D01*
X132000000Y-111600000D02*
X132000000Y-101800000D01*
X132000000Y-101800000D02*
X122000000Y-101800000D01*
X122000000Y-101800000D02*
X122000000Y-111600000D01*
X178100000Y-61000000D02*
G75*
G03X178100000Y-61000000I-2000000J0D01*
G01*
X180100000Y-63500000D02*
X180600000Y-63500000D01*
X180100000Y-68500000D02*
X180600000Y-68500000D01*
X178100000Y-66000000D02*
G75*
G03X178100000Y-66000000I-2000000J0D01*
G01*
X178100000Y-71000000D02*
G75*
G03X178100000Y-71000000I-2000000J0D01*
G01*
X180100000Y-73500000D02*
X180600000Y-73500000D01*
X180100000Y-78500000D02*
X180600000Y-78500000D01*
X178100000Y-76000000D02*
G75*
G03X178100000Y-76000000I-2000000J0D01*
G01*
X180100000Y-83500000D02*
X180600000Y-83500000D01*
X178100000Y-81000000D02*
G75*
G03X178100000Y-81000000I-2000000J0D01*
G01*
X178100000Y-86000000D02*
G75*
G03X178100000Y-86000000I-2000000J0D01*
G01*
X180100000Y-88500000D02*
X180600000Y-88500000D01*
X180100000Y-93500000D02*
X180600000Y-93500000D01*
X178100000Y-91000000D02*
G75*
G03X178100000Y-91000000I-2000000J0D01*
G01*
X178100000Y-96000000D02*
G75*
G03X178100000Y-96000000I-2000000J0D01*
G01*
X178600000Y-98500000D02*
X178600000Y-58500000D01*
X173700000Y-98500000D02*
X173700000Y-58500000D01*
X180100000Y-98500000D02*
X180100000Y-58500000D01*
X180600000Y-98500000D02*
X180600000Y-58500000D01*
X180600000Y-58500000D02*
X170800000Y-58500000D01*
X170800000Y-58500000D02*
X170800000Y-98500000D01*
X170800000Y-98500000D02*
X180600000Y-98500000D01*
X127474472Y-67736000D02*
G75*
G03X127474472Y-67736000I-2514472J0D01*
G01*
X122420000Y-80817000D02*
X122420000Y-82595000D01*
X124960000Y-80817000D02*
X124960000Y-82595000D01*
X127500000Y-80817000D02*
X127500000Y-82595000D01*
X130294000Y-72308000D02*
X130294000Y-64307000D01*
X130294000Y-64307000D02*
X119626000Y-64307000D01*
X119626000Y-64307000D02*
X119626000Y-72308000D01*
X130294000Y-80817000D02*
X130294000Y-72308000D01*
X130294000Y-72308000D02*
X119626000Y-72308000D01*
X119626000Y-72308000D02*
X119626000Y-80817000D01*
X124960000Y-80817000D02*
X119626000Y-80817000D01*
X124960000Y-80817000D02*
X130294000Y-80817000D01*
X150377000Y-82190500D02*
X150377000Y-77110500D01*
X150377000Y-77110500D02*
X152917000Y-77110500D01*
X152917000Y-77110500D02*
X152917000Y-82190500D01*
X152917000Y-82190500D02*
X150377000Y-82190500D01*
X151647000Y-82190500D02*
X151647000Y-83460500D01*
X151647000Y-77110500D02*
X151647000Y-75840500D01*
X146877000Y-82190500D02*
X146877000Y-77110500D01*
X146877000Y-77110500D02*
X149417000Y-77110500D01*
X149417000Y-77110500D02*
X149417000Y-82190500D01*
X149417000Y-82190500D02*
X146877000Y-82190500D01*
X148147000Y-82190500D02*
X148147000Y-83460500D01*
X148147000Y-77110500D02*
X148147000Y-75840500D01*
X143377000Y-82190500D02*
X143377000Y-77110500D01*
X143377000Y-77110500D02*
X145917000Y-77110500D01*
X145917000Y-77110500D02*
X145917000Y-82190500D01*
X145917000Y-82190500D02*
X143377000Y-82190500D01*
X144647000Y-82190500D02*
X144647000Y-83460500D01*
X144647000Y-77110500D02*
X144647000Y-75840500D01*
X139877000Y-82190500D02*
X139877000Y-77110500D01*
X139877000Y-77110500D02*
X142417000Y-77110500D01*
X142417000Y-77110500D02*
X142417000Y-82190500D01*
X142417000Y-82190500D02*
X139877000Y-82190500D01*
X141147000Y-82190500D02*
X141147000Y-83460500D01*
X141147000Y-77110500D02*
X141147000Y-75840500D01*
X136377000Y-82190500D02*
X136377000Y-77110500D01*
X136377000Y-77110500D02*
X138917000Y-77110500D01*
X138917000Y-77110500D02*
X138917000Y-82190500D01*
X138917000Y-82190500D02*
X136377000Y-82190500D01*
X137647000Y-82190500D02*
X137647000Y-83460500D01*
X137647000Y-77110500D02*
X137647000Y-75840500D01*
X132877000Y-82190500D02*
X132877000Y-77110500D01*
X132877000Y-77110500D02*
X135417000Y-77110500D01*
X135417000Y-77110500D02*
X135417000Y-82190500D01*
X135417000Y-82190500D02*
X132877000Y-82190500D01*
X134147000Y-82190500D02*
X134147000Y-83460500D01*
X134147000Y-77110500D02*
X134147000Y-75840500D01*
X163960000Y-72270000D02*
X158880000Y-72270000D01*
X158880000Y-72270000D02*
X158880000Y-69730000D01*
X158880000Y-69730000D02*
X163960000Y-69730000D01*
X163960000Y-69730000D02*
X163960000Y-72270000D01*
X163960000Y-71000000D02*
X165230000Y-71000000D01*
X158880000Y-71000000D02*
X157610000Y-71000000D01*
X163960000Y-75770000D02*
X158880000Y-75770000D01*
X158880000Y-75770000D02*
X158880000Y-73230000D01*
X158880000Y-73230000D02*
X163960000Y-73230000D01*
X163960000Y-73230000D02*
X163960000Y-75770000D01*
X163960000Y-74500000D02*
X165230000Y-74500000D01*
X158880000Y-74500000D02*
X157610000Y-74500000D01*
X163836000Y-79507600D02*
X158756000Y-79507600D01*
X158756000Y-79507600D02*
X158756000Y-76967600D01*
X158756000Y-76967600D02*
X163836000Y-76967600D01*
X163836000Y-76967600D02*
X163836000Y-79507600D01*
X163836000Y-78237600D02*
X165106000Y-78237600D01*
X158756000Y-78237600D02*
X157486000Y-78237600D01*
X163836000Y-83007600D02*
X158756000Y-83007600D01*
X158756000Y-83007600D02*
X158756000Y-80467600D01*
X158756000Y-80467600D02*
X163836000Y-80467600D01*
X163836000Y-80467600D02*
X163836000Y-83007600D01*
X163836000Y-81737600D02*
X165106000Y-81737600D01*
X158756000Y-81737600D02*
X157486000Y-81737600D01*
X163836000Y-86508000D02*
X158756000Y-86508000D01*
X158756000Y-86508000D02*
X158756000Y-83968000D01*
X158756000Y-83968000D02*
X163836000Y-83968000D01*
X163836000Y-83968000D02*
X163836000Y-86508000D01*
X163836000Y-85238000D02*
X165106000Y-85238000D01*
X158756000Y-85238000D02*
X157486000Y-85238000D01*
D14*
X148951040Y-64560760D02*
X147548960Y-64560760D01*
X148951040Y-64761420D02*
X147548960Y-64761420D01*
X148951040Y-65160200D02*
X147548960Y-65160200D01*
X148951040Y-64959540D02*
X147548960Y-64959540D01*
X148951040Y-64159440D02*
X147548960Y-64159440D01*
X148951040Y-64360100D02*
X147548960Y-64360100D01*
X148951040Y-63961320D02*
X147548960Y-63961320D01*
X148951040Y-63760660D02*
X147548960Y-63760660D01*
X148951040Y-65360860D02*
X148951040Y-61759140D01*
X148951040Y-61759140D02*
X147548960Y-61759140D01*
X147548960Y-61759140D02*
X147548960Y-65360860D01*
X147548960Y-65360860D02*
X148951040Y-65360860D01*
D16*
X150248980Y-68561260D02*
X146251020Y-68561260D01*
X146251020Y-68561260D02*
X146251020Y-58558740D01*
X146251020Y-58558740D02*
X150248980Y-58558740D01*
X150248980Y-58558740D02*
X150248980Y-68561260D01*
D14*
X146451040Y-64560760D02*
X145048960Y-64560760D01*
X146451040Y-64761420D02*
X145048960Y-64761420D01*
X146451040Y-65160200D02*
X145048960Y-65160200D01*
X146451040Y-64959540D02*
X145048960Y-64959540D01*
X146451040Y-64159440D02*
X145048960Y-64159440D01*
X146451040Y-64360100D02*
X145048960Y-64360100D01*
X146451040Y-63961320D02*
X145048960Y-63961320D01*
X146451040Y-63760660D02*
X145048960Y-63760660D01*
X146451040Y-65360860D02*
X146451040Y-61759140D01*
X146451040Y-61759140D02*
X145048960Y-61759140D01*
X145048960Y-61759140D02*
X145048960Y-65360860D01*
X145048960Y-65360860D02*
X146451040Y-65360860D01*
D16*
X147748980Y-68561260D02*
X143751020Y-68561260D01*
X143751020Y-68561260D02*
X143751020Y-58558740D01*
X143751020Y-58558740D02*
X147748980Y-58558740D01*
X147748980Y-58558740D02*
X147748980Y-68561260D01*
D14*
X143951040Y-64560760D02*
X142548960Y-64560760D01*
X143951040Y-64761420D02*
X142548960Y-64761420D01*
X143951040Y-65160200D02*
X142548960Y-65160200D01*
X143951040Y-64959540D02*
X142548960Y-64959540D01*
X143951040Y-64159440D02*
X142548960Y-64159440D01*
X143951040Y-64360100D02*
X142548960Y-64360100D01*
X143951040Y-63961320D02*
X142548960Y-63961320D01*
X143951040Y-63760660D02*
X142548960Y-63760660D01*
X143951040Y-65360860D02*
X143951040Y-61759140D01*
X143951040Y-61759140D02*
X142548960Y-61759140D01*
X142548960Y-61759140D02*
X142548960Y-65360860D01*
X142548960Y-65360860D02*
X143951040Y-65360860D01*
D16*
X145248980Y-68561260D02*
X141251020Y-68561260D01*
X141251020Y-68561260D02*
X141251020Y-58558740D01*
X141251020Y-58558740D02*
X145248980Y-58558740D01*
X145248980Y-58558740D02*
X145248980Y-68561260D01*
X130990000Y-92420000D02*
X130990000Y-94960000D01*
X152326000Y-96992000D02*
X129974000Y-96992000D01*
X129974000Y-90388000D02*
X152326000Y-90388000D01*
X130990000Y-94960000D02*
X129974000Y-94960000D01*
X130990000Y-92420000D02*
X129974000Y-92420000D01*
X152326000Y-90388000D02*
X152326000Y-96992000D01*
X129974000Y-96992000D02*
X129974000Y-90388000D01*
D15*
X164335000Y-91635000D02*
X163065000Y-91635000D01*
X164335000Y-98985000D02*
X163065000Y-98985000D01*
X157205000Y-98985000D02*
X158475000Y-98985000D01*
X157205000Y-91635000D02*
X158475000Y-91635000D01*
X164335000Y-91635000D02*
X164335000Y-98985000D01*
X157205000Y-91635000D02*
X157205000Y-98985000D01*
X163065000Y-91635000D02*
X163065000Y-90700000D01*
D12*
X132861905Y-63090476D02*
X132061905Y-63090476D01*
X132061905Y-62900000D01*
X132100000Y-62785714D01*
X132176190Y-62709523D01*
X132252381Y-62671428D01*
X132404762Y-62633333D01*
X132519048Y-62633333D01*
X132671429Y-62671428D01*
X132747619Y-62709523D01*
X132823810Y-62785714D01*
X132861905Y-62900000D01*
X132861905Y-63090476D01*
X132861905Y-61871428D02*
X132861905Y-62328571D01*
X132861905Y-62100000D02*
X132061905Y-62100000D01*
X132176190Y-62176190D01*
X132252381Y-62252381D01*
X132290476Y-62328571D01*
D15*
X135861905Y-67714286D02*
X135861905Y-68171429D01*
X135861905Y-67942858D02*
X135061905Y-67942858D01*
X135176190Y-68019048D01*
X135252381Y-68095239D01*
X135290476Y-68171429D01*
X135861905Y-67371429D02*
X135061905Y-67371429D01*
X135861905Y-66914286D01*
X135061905Y-66914286D01*
X135328571Y-66190477D02*
X135861905Y-66190477D01*
X135023810Y-66380953D02*
X135595238Y-66571429D01*
X135595238Y-66076191D01*
X135061905Y-65619048D02*
X135061905Y-65542857D01*
X135100000Y-65466667D01*
X135138095Y-65428572D01*
X135214286Y-65390476D01*
X135366667Y-65352381D01*
X135557143Y-65352381D01*
X135709524Y-65390476D01*
X135785714Y-65428572D01*
X135823810Y-65466667D01*
X135861905Y-65542857D01*
X135861905Y-65619048D01*
X135823810Y-65695238D01*
X135785714Y-65733334D01*
X135709524Y-65771429D01*
X135557143Y-65809524D01*
X135366667Y-65809524D01*
X135214286Y-65771429D01*
X135138095Y-65733334D01*
X135100000Y-65695238D01*
X135061905Y-65619048D01*
X135061905Y-64857143D02*
X135061905Y-64780952D01*
X135100000Y-64704762D01*
X135138095Y-64666667D01*
X135214286Y-64628571D01*
X135366667Y-64590476D01*
X135557143Y-64590476D01*
X135709524Y-64628571D01*
X135785714Y-64666667D01*
X135823810Y-64704762D01*
X135861905Y-64780952D01*
X135861905Y-64857143D01*
X135823810Y-64933333D01*
X135785714Y-64971429D01*
X135709524Y-65009524D01*
X135557143Y-65047619D01*
X135366667Y-65047619D01*
X135214286Y-65009524D01*
X135138095Y-64971429D01*
X135100000Y-64933333D01*
X135061905Y-64857143D01*
X135861905Y-63828571D02*
X135861905Y-64285714D01*
X135861905Y-64057143D02*
X135061905Y-64057143D01*
X135176190Y-64133333D01*
X135252381Y-64209524D01*
X135290476Y-64285714D01*
X160261905Y-66452381D02*
X160261905Y-65452381D01*
X160642858Y-65452381D01*
X160738096Y-65500000D01*
X160785715Y-65547619D01*
X160833334Y-65642857D01*
X160833334Y-65785714D01*
X160785715Y-65880952D01*
X160738096Y-65928571D01*
X160642858Y-65976190D01*
X160261905Y-65976190D01*
X161785715Y-66452381D02*
X161214286Y-66452381D01*
X161500000Y-66452381D02*
X161500000Y-65452381D01*
X161404762Y-65595238D01*
X161309524Y-65690476D01*
X161214286Y-65738095D01*
D12*
X158780952Y-63785714D02*
X158742857Y-63823810D01*
X158628571Y-63861905D01*
X158552381Y-63861905D01*
X158438095Y-63823810D01*
X158361904Y-63747619D01*
X158323809Y-63671429D01*
X158285714Y-63519048D01*
X158285714Y-63404762D01*
X158323809Y-63252381D01*
X158361904Y-63176190D01*
X158438095Y-63100000D01*
X158552381Y-63061905D01*
X158628571Y-63061905D01*
X158742857Y-63100000D01*
X158780952Y-63138095D01*
X159276190Y-63061905D02*
X159428571Y-63061905D01*
X159504762Y-63100000D01*
X159580952Y-63176190D01*
X159619047Y-63328571D01*
X159619047Y-63595238D01*
X159580952Y-63747619D01*
X159504762Y-63823810D01*
X159428571Y-63861905D01*
X159276190Y-63861905D01*
X159200000Y-63823810D01*
X159123809Y-63747619D01*
X159085714Y-63595238D01*
X159085714Y-63328571D01*
X159123809Y-63176190D01*
X159200000Y-63100000D01*
X159276190Y-63061905D01*
X159961904Y-63861905D02*
X159961904Y-63061905D01*
X160419047Y-63861905D01*
X160419047Y-63061905D01*
X160799999Y-63861905D02*
X160799999Y-63061905D01*
X161257142Y-63861905D01*
X161257142Y-63061905D01*
X161447618Y-63938095D02*
X162057142Y-63938095D01*
X162399999Y-63061905D02*
X162476190Y-63061905D01*
X162552380Y-63100000D01*
X162590475Y-63138095D01*
X162628571Y-63214286D01*
X162666666Y-63366667D01*
X162666666Y-63557143D01*
X162628571Y-63709524D01*
X162590475Y-63785714D01*
X162552380Y-63823810D01*
X162476190Y-63861905D01*
X162399999Y-63861905D01*
X162323809Y-63823810D01*
X162285713Y-63785714D01*
X162247618Y-63709524D01*
X162209523Y-63557143D01*
X162209523Y-63366667D01*
X162247618Y-63214286D01*
X162285713Y-63138095D01*
X162323809Y-63100000D01*
X162399999Y-63061905D01*
X163428571Y-63861905D02*
X162971428Y-63861905D01*
X163199999Y-63861905D02*
X163199999Y-63061905D01*
X163123809Y-63176190D01*
X163047618Y-63252381D01*
X162971428Y-63290476D01*
X163695238Y-63061905D02*
X164228571Y-63861905D01*
X164228571Y-63061905D02*
X163695238Y-63861905D01*
X164685714Y-63061905D02*
X164761905Y-63061905D01*
X164838095Y-63100000D01*
X164876190Y-63138095D01*
X164914286Y-63214286D01*
X164952381Y-63366667D01*
X164952381Y-63557143D01*
X164914286Y-63709524D01*
X164876190Y-63785714D01*
X164838095Y-63823810D01*
X164761905Y-63861905D01*
X164685714Y-63861905D01*
X164609524Y-63823810D01*
X164571428Y-63785714D01*
X164533333Y-63709524D01*
X164495238Y-63557143D01*
X164495238Y-63366667D01*
X164533333Y-63214286D01*
X164571428Y-63138095D01*
X164609524Y-63100000D01*
X164685714Y-63061905D01*
X165638095Y-63061905D02*
X165485714Y-63061905D01*
X165409524Y-63100000D01*
X165371429Y-63138095D01*
X165295238Y-63252381D01*
X165257143Y-63404762D01*
X165257143Y-63709524D01*
X165295238Y-63785714D01*
X165333333Y-63823810D01*
X165409524Y-63861905D01*
X165561905Y-63861905D01*
X165638095Y-63823810D01*
X165676191Y-63785714D01*
X165714286Y-63709524D01*
X165714286Y-63519048D01*
X165676191Y-63442857D01*
X165638095Y-63404762D01*
X165561905Y-63366667D01*
X165409524Y-63366667D01*
X165333333Y-63404762D01*
X165295238Y-63442857D01*
X165257143Y-63519048D01*
D15*
X146261905Y-104452381D02*
X146261905Y-103452381D01*
X146642858Y-103452381D01*
X146738096Y-103500000D01*
X146785715Y-103547619D01*
X146833334Y-103642857D01*
X146833334Y-103785714D01*
X146785715Y-103880952D01*
X146738096Y-103928571D01*
X146642858Y-103976190D01*
X146261905Y-103976190D01*
X147214286Y-103547619D02*
X147261905Y-103500000D01*
X147357143Y-103452381D01*
X147595239Y-103452381D01*
X147690477Y-103500000D01*
X147738096Y-103547619D01*
X147785715Y-103642857D01*
X147785715Y-103738095D01*
X147738096Y-103880952D01*
X147166667Y-104452381D01*
X147785715Y-104452381D01*
X143476191Y-106857143D02*
X143428572Y-106904762D01*
X143285715Y-106952381D01*
X143190477Y-106952381D01*
X143047619Y-106904762D01*
X142952381Y-106809524D01*
X142904762Y-106714286D01*
X142857143Y-106523810D01*
X142857143Y-106380952D01*
X142904762Y-106190476D01*
X142952381Y-106095238D01*
X143047619Y-106000000D01*
X143190477Y-105952381D01*
X143285715Y-105952381D01*
X143428572Y-106000000D01*
X143476191Y-106047619D01*
X144095238Y-105952381D02*
X144285715Y-105952381D01*
X144380953Y-106000000D01*
X144476191Y-106095238D01*
X144523810Y-106285714D01*
X144523810Y-106619048D01*
X144476191Y-106809524D01*
X144380953Y-106904762D01*
X144285715Y-106952381D01*
X144095238Y-106952381D01*
X144000000Y-106904762D01*
X143904762Y-106809524D01*
X143857143Y-106619048D01*
X143857143Y-106285714D01*
X143904762Y-106095238D01*
X144000000Y-106000000D01*
X144095238Y-105952381D01*
X144952381Y-106952381D02*
X144952381Y-105952381D01*
X145523810Y-106952381D01*
X145523810Y-105952381D01*
X146000000Y-106952381D02*
X146000000Y-105952381D01*
X146571429Y-106952381D01*
X146571429Y-105952381D01*
X146809524Y-107047619D02*
X147571429Y-107047619D01*
X148000000Y-105952381D02*
X148095239Y-105952381D01*
X148190477Y-106000000D01*
X148238096Y-106047619D01*
X148285715Y-106142857D01*
X148333334Y-106333333D01*
X148333334Y-106571429D01*
X148285715Y-106761905D01*
X148238096Y-106857143D01*
X148190477Y-106904762D01*
X148095239Y-106952381D01*
X148000000Y-106952381D01*
X147904762Y-106904762D01*
X147857143Y-106857143D01*
X147809524Y-106761905D01*
X147761905Y-106571429D01*
X147761905Y-106333333D01*
X147809524Y-106142857D01*
X147857143Y-106047619D01*
X147904762Y-106000000D01*
X148000000Y-105952381D01*
X149285715Y-106952381D02*
X148714286Y-106952381D01*
X149000000Y-106952381D02*
X149000000Y-105952381D01*
X148904762Y-106095238D01*
X148809524Y-106190476D01*
X148714286Y-106238095D01*
X149619048Y-105952381D02*
X150285715Y-106952381D01*
X150285715Y-105952381D02*
X149619048Y-106952381D01*
X150857143Y-105952381D02*
X150952382Y-105952381D01*
X151047620Y-106000000D01*
X151095239Y-106047619D01*
X151142858Y-106142857D01*
X151190477Y-106333333D01*
X151190477Y-106571429D01*
X151142858Y-106761905D01*
X151095239Y-106857143D01*
X151047620Y-106904762D01*
X150952382Y-106952381D01*
X150857143Y-106952381D01*
X150761905Y-106904762D01*
X150714286Y-106857143D01*
X150666667Y-106761905D01*
X150619048Y-106571429D01*
X150619048Y-106333333D01*
X150666667Y-106142857D01*
X150714286Y-106047619D01*
X150761905Y-106000000D01*
X150857143Y-105952381D01*
X152047620Y-105952381D02*
X151857143Y-105952381D01*
X151761905Y-106000000D01*
X151714286Y-106047619D01*
X151619048Y-106190476D01*
X151571429Y-106380952D01*
X151571429Y-106761905D01*
X151619048Y-106857143D01*
X151666667Y-106904762D01*
X151761905Y-106952381D01*
X151952382Y-106952381D01*
X152047620Y-106904762D01*
X152095239Y-106857143D01*
X152142858Y-106761905D01*
X152142858Y-106523810D01*
X152095239Y-106428571D01*
X152047620Y-106380952D01*
X151952382Y-106333333D01*
X151761905Y-106333333D01*
X151666667Y-106380952D01*
X151619048Y-106428571D01*
X151571429Y-106523810D01*
X172261905Y-101452381D02*
X172261905Y-100452381D01*
X172642858Y-100452381D01*
X172738096Y-100500000D01*
X172785715Y-100547619D01*
X172833334Y-100642857D01*
X172833334Y-100785714D01*
X172785715Y-100880952D01*
X172738096Y-100928571D01*
X172642858Y-100976190D01*
X172261905Y-100976190D01*
X173166667Y-100452381D02*
X173785715Y-100452381D01*
X173452381Y-100833333D01*
X173595239Y-100833333D01*
X173690477Y-100880952D01*
X173738096Y-100928571D01*
X173785715Y-101023810D01*
X173785715Y-101261905D01*
X173738096Y-101357143D01*
X173690477Y-101404762D01*
X173595239Y-101452381D01*
X173309524Y-101452381D01*
X173214286Y-101404762D01*
X173166667Y-101357143D01*
X168976191Y-103357143D02*
X168928572Y-103404762D01*
X168785715Y-103452381D01*
X168690477Y-103452381D01*
X168547619Y-103404762D01*
X168452381Y-103309524D01*
X168404762Y-103214286D01*
X168357143Y-103023810D01*
X168357143Y-102880952D01*
X168404762Y-102690476D01*
X168452381Y-102595238D01*
X168547619Y-102500000D01*
X168690477Y-102452381D01*
X168785715Y-102452381D01*
X168928572Y-102500000D01*
X168976191Y-102547619D01*
X169595238Y-102452381D02*
X169785715Y-102452381D01*
X169880953Y-102500000D01*
X169976191Y-102595238D01*
X170023810Y-102785714D01*
X170023810Y-103119048D01*
X169976191Y-103309524D01*
X169880953Y-103404762D01*
X169785715Y-103452381D01*
X169595238Y-103452381D01*
X169500000Y-103404762D01*
X169404762Y-103309524D01*
X169357143Y-103119048D01*
X169357143Y-102785714D01*
X169404762Y-102595238D01*
X169500000Y-102500000D01*
X169595238Y-102452381D01*
X170452381Y-103452381D02*
X170452381Y-102452381D01*
X171023810Y-103452381D01*
X171023810Y-102452381D01*
X171500000Y-103452381D02*
X171500000Y-102452381D01*
X172071429Y-103452381D01*
X172071429Y-102452381D01*
X172309524Y-103547619D02*
X173071429Y-103547619D01*
X173500000Y-102452381D02*
X173595239Y-102452381D01*
X173690477Y-102500000D01*
X173738096Y-102547619D01*
X173785715Y-102642857D01*
X173833334Y-102833333D01*
X173833334Y-103071429D01*
X173785715Y-103261905D01*
X173738096Y-103357143D01*
X173690477Y-103404762D01*
X173595239Y-103452381D01*
X173500000Y-103452381D01*
X173404762Y-103404762D01*
X173357143Y-103357143D01*
X173309524Y-103261905D01*
X173261905Y-103071429D01*
X173261905Y-102833333D01*
X173309524Y-102642857D01*
X173357143Y-102547619D01*
X173404762Y-102500000D01*
X173500000Y-102452381D01*
X174785715Y-103452381D02*
X174214286Y-103452381D01*
X174500000Y-103452381D02*
X174500000Y-102452381D01*
X174404762Y-102595238D01*
X174309524Y-102690476D01*
X174214286Y-102738095D01*
X175119048Y-102452381D02*
X175785715Y-103452381D01*
X175785715Y-102452381D02*
X175119048Y-103452381D01*
X176357143Y-102452381D02*
X176452382Y-102452381D01*
X176547620Y-102500000D01*
X176595239Y-102547619D01*
X176642858Y-102642857D01*
X176690477Y-102833333D01*
X176690477Y-103071429D01*
X176642858Y-103261905D01*
X176595239Y-103357143D01*
X176547620Y-103404762D01*
X176452382Y-103452381D01*
X176357143Y-103452381D01*
X176261905Y-103404762D01*
X176214286Y-103357143D01*
X176166667Y-103261905D01*
X176119048Y-103071429D01*
X176119048Y-102833333D01*
X176166667Y-102642857D01*
X176214286Y-102547619D01*
X176261905Y-102500000D01*
X176357143Y-102452381D01*
X177023810Y-102452381D02*
X177642858Y-102452381D01*
X177309524Y-102833333D01*
X177452382Y-102833333D01*
X177547620Y-102880952D01*
X177595239Y-102928571D01*
X177642858Y-103023810D01*
X177642858Y-103261905D01*
X177595239Y-103357143D01*
X177547620Y-103404762D01*
X177452382Y-103452381D01*
X177166667Y-103452381D01*
X177071429Y-103404762D01*
X177023810Y-103357143D01*
X126261905Y-100952381D02*
X126261905Y-99952381D01*
X126642858Y-99952381D01*
X126738096Y-100000000D01*
X126785715Y-100047619D01*
X126833334Y-100142857D01*
X126833334Y-100285714D01*
X126785715Y-100380952D01*
X126738096Y-100428571D01*
X126642858Y-100476190D01*
X126261905Y-100476190D01*
X127690477Y-100285714D02*
X127690477Y-100952381D01*
X127452381Y-99904762D02*
X127214286Y-100619048D01*
X127833334Y-100619048D01*
X122976191Y-103857143D02*
X122928572Y-103904762D01*
X122785715Y-103952381D01*
X122690477Y-103952381D01*
X122547619Y-103904762D01*
X122452381Y-103809524D01*
X122404762Y-103714286D01*
X122357143Y-103523810D01*
X122357143Y-103380952D01*
X122404762Y-103190476D01*
X122452381Y-103095238D01*
X122547619Y-103000000D01*
X122690477Y-102952381D01*
X122785715Y-102952381D01*
X122928572Y-103000000D01*
X122976191Y-103047619D01*
X123595238Y-102952381D02*
X123785715Y-102952381D01*
X123880953Y-103000000D01*
X123976191Y-103095238D01*
X124023810Y-103285714D01*
X124023810Y-103619048D01*
X123976191Y-103809524D01*
X123880953Y-103904762D01*
X123785715Y-103952381D01*
X123595238Y-103952381D01*
X123500000Y-103904762D01*
X123404762Y-103809524D01*
X123357143Y-103619048D01*
X123357143Y-103285714D01*
X123404762Y-103095238D01*
X123500000Y-103000000D01*
X123595238Y-102952381D01*
X124452381Y-103952381D02*
X124452381Y-102952381D01*
X125023810Y-103952381D01*
X125023810Y-102952381D01*
X125500000Y-103952381D02*
X125500000Y-102952381D01*
X126071429Y-103952381D01*
X126071429Y-102952381D01*
X126309524Y-104047619D02*
X127071429Y-104047619D01*
X127500000Y-102952381D02*
X127595239Y-102952381D01*
X127690477Y-103000000D01*
X127738096Y-103047619D01*
X127785715Y-103142857D01*
X127833334Y-103333333D01*
X127833334Y-103571429D01*
X127785715Y-103761905D01*
X127738096Y-103857143D01*
X127690477Y-103904762D01*
X127595239Y-103952381D01*
X127500000Y-103952381D01*
X127404762Y-103904762D01*
X127357143Y-103857143D01*
X127309524Y-103761905D01*
X127261905Y-103571429D01*
X127261905Y-103333333D01*
X127309524Y-103142857D01*
X127357143Y-103047619D01*
X127404762Y-103000000D01*
X127500000Y-102952381D01*
X128785715Y-103952381D02*
X128214286Y-103952381D01*
X128500000Y-103952381D02*
X128500000Y-102952381D01*
X128404762Y-103095238D01*
X128309524Y-103190476D01*
X128214286Y-103238095D01*
X129119048Y-102952381D02*
X129785715Y-103952381D01*
X129785715Y-102952381D02*
X129119048Y-103952381D01*
X130357143Y-102952381D02*
X130452382Y-102952381D01*
X130547620Y-103000000D01*
X130595239Y-103047619D01*
X130642858Y-103142857D01*
X130690477Y-103333333D01*
X130690477Y-103571429D01*
X130642858Y-103761905D01*
X130595239Y-103857143D01*
X130547620Y-103904762D01*
X130452382Y-103952381D01*
X130357143Y-103952381D01*
X130261905Y-103904762D01*
X130214286Y-103857143D01*
X130166667Y-103761905D01*
X130119048Y-103571429D01*
X130119048Y-103333333D01*
X130166667Y-103142857D01*
X130214286Y-103047619D01*
X130261905Y-103000000D01*
X130357143Y-102952381D01*
X131071429Y-103047619D02*
X131119048Y-103000000D01*
X131214286Y-102952381D01*
X131452382Y-102952381D01*
X131547620Y-103000000D01*
X131595239Y-103047619D01*
X131642858Y-103142857D01*
X131642858Y-103238095D01*
X131595239Y-103380952D01*
X131023810Y-103952381D01*
X131642858Y-103952381D01*
X169952381Y-90238095D02*
X168952381Y-90238095D01*
X168952381Y-89857142D01*
X169000000Y-89761904D01*
X169047619Y-89714285D01*
X169142857Y-89666666D01*
X169285714Y-89666666D01*
X169380952Y-89714285D01*
X169428571Y-89761904D01*
X169476190Y-89857142D01*
X169476190Y-90238095D01*
X168952381Y-88761904D02*
X168952381Y-89238095D01*
X169428571Y-89285714D01*
X169380952Y-89238095D01*
X169333333Y-89142857D01*
X169333333Y-88904761D01*
X169380952Y-88809523D01*
X169428571Y-88761904D01*
X169523810Y-88714285D01*
X169761905Y-88714285D01*
X169857143Y-88761904D01*
X169904762Y-88809523D01*
X169952381Y-88904761D01*
X169952381Y-89142857D01*
X169904762Y-89238095D01*
X169857143Y-89285714D01*
X172857143Y-83023809D02*
X172904762Y-83071428D01*
X172952381Y-83214285D01*
X172952381Y-83309523D01*
X172904762Y-83452381D01*
X172809524Y-83547619D01*
X172714286Y-83595238D01*
X172523810Y-83642857D01*
X172380952Y-83642857D01*
X172190476Y-83595238D01*
X172095238Y-83547619D01*
X172000000Y-83452381D01*
X171952381Y-83309523D01*
X171952381Y-83214285D01*
X172000000Y-83071428D01*
X172047619Y-83023809D01*
X171952381Y-82404762D02*
X171952381Y-82214285D01*
X172000000Y-82119047D01*
X172095238Y-82023809D01*
X172285714Y-81976190D01*
X172619048Y-81976190D01*
X172809524Y-82023809D01*
X172904762Y-82119047D01*
X172952381Y-82214285D01*
X172952381Y-82404762D01*
X172904762Y-82500000D01*
X172809524Y-82595238D01*
X172619048Y-82642857D01*
X172285714Y-82642857D01*
X172095238Y-82595238D01*
X172000000Y-82500000D01*
X171952381Y-82404762D01*
X172952381Y-81547619D02*
X171952381Y-81547619D01*
X172952381Y-80976190D01*
X171952381Y-80976190D01*
X172952381Y-80500000D02*
X171952381Y-80500000D01*
X172952381Y-79928571D01*
X171952381Y-79928571D01*
X173047619Y-79690476D02*
X173047619Y-78928571D01*
X171952381Y-78500000D02*
X171952381Y-78404761D01*
X172000000Y-78309523D01*
X172047619Y-78261904D01*
X172142857Y-78214285D01*
X172333333Y-78166666D01*
X172571429Y-78166666D01*
X172761905Y-78214285D01*
X172857143Y-78261904D01*
X172904762Y-78309523D01*
X172952381Y-78404761D01*
X172952381Y-78500000D01*
X172904762Y-78595238D01*
X172857143Y-78642857D01*
X172761905Y-78690476D01*
X172571429Y-78738095D01*
X172333333Y-78738095D01*
X172142857Y-78690476D01*
X172047619Y-78642857D01*
X172000000Y-78595238D01*
X171952381Y-78500000D01*
X172952381Y-77214285D02*
X172952381Y-77785714D01*
X172952381Y-77500000D02*
X171952381Y-77500000D01*
X172095238Y-77595238D01*
X172190476Y-77690476D01*
X172238095Y-77785714D01*
X171952381Y-76880952D02*
X172952381Y-76214285D01*
X171952381Y-76214285D02*
X172952381Y-76880952D01*
X171952381Y-75642857D02*
X171952381Y-75547618D01*
X172000000Y-75452380D01*
X172047619Y-75404761D01*
X172142857Y-75357142D01*
X172333333Y-75309523D01*
X172571429Y-75309523D01*
X172761905Y-75357142D01*
X172857143Y-75404761D01*
X172904762Y-75452380D01*
X172952381Y-75547618D01*
X172952381Y-75642857D01*
X172904762Y-75738095D01*
X172857143Y-75785714D01*
X172761905Y-75833333D01*
X172571429Y-75880952D01*
X172333333Y-75880952D01*
X172142857Y-75833333D01*
X172047619Y-75785714D01*
X172000000Y-75738095D01*
X171952381Y-75642857D01*
X172380952Y-74738095D02*
X172333333Y-74833333D01*
X172285714Y-74880952D01*
X172190476Y-74928571D01*
X172142857Y-74928571D01*
X172047619Y-74880952D01*
X172000000Y-74833333D01*
X171952381Y-74738095D01*
X171952381Y-74547618D01*
X172000000Y-74452380D01*
X172047619Y-74404761D01*
X172142857Y-74357142D01*
X172190476Y-74357142D01*
X172285714Y-74404761D01*
X172333333Y-74452380D01*
X172380952Y-74547618D01*
X172380952Y-74738095D01*
X172428571Y-74833333D01*
X172476190Y-74880952D01*
X172571429Y-74928571D01*
X172761905Y-74928571D01*
X172857143Y-74880952D01*
X172904762Y-74833333D01*
X172952381Y-74738095D01*
X172952381Y-74547618D01*
X172904762Y-74452380D01*
X172857143Y-74404761D01*
X172761905Y-74357142D01*
X172571429Y-74357142D01*
X172476190Y-74404761D01*
X172428571Y-74452380D01*
X172380952Y-74547618D01*
X124864762Y-62746419D02*
X124769524Y-62698800D01*
X124674286Y-62603562D01*
X124531429Y-62460705D01*
X124436190Y-62413086D01*
X124340952Y-62413086D01*
X124388571Y-62651181D02*
X124293333Y-62603562D01*
X124198095Y-62508324D01*
X124150476Y-62317848D01*
X124150476Y-61984514D01*
X124198095Y-61794038D01*
X124293333Y-61698800D01*
X124388571Y-61651181D01*
X124579048Y-61651181D01*
X124674286Y-61698800D01*
X124769524Y-61794038D01*
X124817143Y-61984514D01*
X124817143Y-62317848D01*
X124769524Y-62508324D01*
X124674286Y-62603562D01*
X124579048Y-62651181D01*
X124388571Y-62651181D01*
X125769524Y-62651181D02*
X125198095Y-62651181D01*
X125483809Y-62651181D02*
X125483809Y-61651181D01*
X125388571Y-61794038D01*
X125293333Y-61889276D01*
X125198095Y-61936895D01*
X121779328Y-76952381D02*
X121779328Y-75952381D01*
X122826947Y-76952381D02*
X122493613Y-76476190D01*
X122255518Y-76952381D02*
X122255518Y-75952381D01*
X122636471Y-75952381D01*
X122731709Y-76000000D01*
X122779328Y-76047619D01*
X122826947Y-76142857D01*
X122826947Y-76285714D01*
X122779328Y-76380952D01*
X122731709Y-76428571D01*
X122636471Y-76476190D01*
X122255518Y-76476190D01*
X123588852Y-76428571D02*
X123255518Y-76428571D01*
X123255518Y-76952381D02*
X123255518Y-75952381D01*
X123731709Y-75952381D01*
X124588852Y-75952381D02*
X124112661Y-75952381D01*
X124065042Y-76428571D01*
X124112661Y-76380952D01*
X124207899Y-76333333D01*
X124445995Y-76333333D01*
X124541233Y-76380952D01*
X124588852Y-76428571D01*
X124636471Y-76523810D01*
X124636471Y-76761905D01*
X124588852Y-76857143D01*
X124541233Y-76904762D01*
X124445995Y-76952381D01*
X124207899Y-76952381D01*
X124112661Y-76904762D01*
X124065042Y-76857143D01*
X125493614Y-76285714D02*
X125493614Y-76952381D01*
X125255518Y-75904762D02*
X125017423Y-76619048D01*
X125636471Y-76619048D01*
X126207899Y-75952381D02*
X126303138Y-75952381D01*
X126398376Y-76000000D01*
X126445995Y-76047619D01*
X126493614Y-76142857D01*
X126541233Y-76333333D01*
X126541233Y-76571429D01*
X126493614Y-76761905D01*
X126445995Y-76857143D01*
X126398376Y-76904762D01*
X126303138Y-76952381D01*
X126207899Y-76952381D01*
X126112661Y-76904762D01*
X126065042Y-76857143D01*
X126017423Y-76761905D01*
X125969804Y-76571429D01*
X125969804Y-76333333D01*
X126017423Y-76142857D01*
X126065042Y-76047619D01*
X126112661Y-76000000D01*
X126207899Y-75952381D01*
X126969804Y-76952381D02*
X126969804Y-75952381D01*
X127541233Y-76952381D01*
X127541233Y-75952381D01*
X152361905Y-72633333D02*
X151980952Y-72900000D01*
X152361905Y-73090476D02*
X151561905Y-73090476D01*
X151561905Y-72785714D01*
X151600000Y-72709523D01*
X151638095Y-72671428D01*
X151714286Y-72633333D01*
X151828571Y-72633333D01*
X151904762Y-72671428D01*
X151942857Y-72709523D01*
X151980952Y-72785714D01*
X151980952Y-73090476D01*
X152361905Y-71871428D02*
X152361905Y-72328571D01*
X152361905Y-72100000D02*
X151561905Y-72100000D01*
X151676190Y-72176190D01*
X151752381Y-72252381D01*
X151790476Y-72328571D01*
X151952381Y-79864785D02*
X151952381Y-80436214D01*
X151952381Y-80150500D02*
X150952381Y-80150500D01*
X151095238Y-80245738D01*
X151190476Y-80340976D01*
X151238095Y-80436214D01*
X151952381Y-79436214D02*
X150952381Y-79436214D01*
X151952381Y-78864785D02*
X151380952Y-79293357D01*
X150952381Y-78864785D02*
X151523810Y-79436214D01*
X148861905Y-72633333D02*
X148480952Y-72900000D01*
X148861905Y-73090476D02*
X148061905Y-73090476D01*
X148061905Y-72785714D01*
X148100000Y-72709523D01*
X148138095Y-72671428D01*
X148214286Y-72633333D01*
X148328571Y-72633333D01*
X148404762Y-72671428D01*
X148442857Y-72709523D01*
X148480952Y-72785714D01*
X148480952Y-73090476D01*
X148138095Y-72328571D02*
X148100000Y-72290476D01*
X148061905Y-72214285D01*
X148061905Y-72023809D01*
X148100000Y-71947619D01*
X148138095Y-71909523D01*
X148214286Y-71871428D01*
X148290476Y-71871428D01*
X148404762Y-71909523D01*
X148861905Y-72366666D01*
X148861905Y-71871428D01*
X148952381Y-79714285D02*
X148952381Y-80285714D01*
X148952381Y-80000000D02*
X147952381Y-80000000D01*
X148095238Y-80095238D01*
X148190476Y-80190476D01*
X148238095Y-80285714D01*
X148952381Y-79285714D02*
X147952381Y-79285714D01*
X148952381Y-78714285D02*
X148380952Y-79142857D01*
X147952381Y-78714285D02*
X148523810Y-79285714D01*
X145361905Y-72633333D02*
X144980952Y-72900000D01*
X145361905Y-73090476D02*
X144561905Y-73090476D01*
X144561905Y-72785714D01*
X144600000Y-72709523D01*
X144638095Y-72671428D01*
X144714286Y-72633333D01*
X144828571Y-72633333D01*
X144904762Y-72671428D01*
X144942857Y-72709523D01*
X144980952Y-72785714D01*
X144980952Y-73090476D01*
X144561905Y-72366666D02*
X144561905Y-71871428D01*
X144866667Y-72138095D01*
X144866667Y-72023809D01*
X144904762Y-71947619D01*
X144942857Y-71909523D01*
X145019048Y-71871428D01*
X145209524Y-71871428D01*
X145285714Y-71909523D01*
X145323810Y-71947619D01*
X145361905Y-72023809D01*
X145361905Y-72252381D01*
X145323810Y-72328571D01*
X145285714Y-72366666D01*
X144952381Y-79864785D02*
X144952381Y-80436214D01*
X144952381Y-80150500D02*
X143952381Y-80150500D01*
X144095238Y-80245738D01*
X144190476Y-80340976D01*
X144238095Y-80436214D01*
X144952381Y-79436214D02*
X143952381Y-79436214D01*
X144952381Y-78864785D02*
X144380952Y-79293357D01*
X143952381Y-78864785D02*
X144523810Y-79436214D01*
X141952381Y-72633333D02*
X141476190Y-72900000D01*
X141952381Y-73090476D02*
X140952381Y-73090476D01*
X140952381Y-72785714D01*
X141000000Y-72709523D01*
X141047619Y-72671428D01*
X141142857Y-72633333D01*
X141285714Y-72633333D01*
X141380952Y-72671428D01*
X141428571Y-72709523D01*
X141476190Y-72785714D01*
X141476190Y-73090476D01*
X141285714Y-71947619D02*
X141952381Y-71947619D01*
X140904762Y-72138095D02*
X141619048Y-72328571D01*
X141619048Y-71833333D01*
X141452381Y-80190476D02*
X141452381Y-80761905D01*
X141452381Y-80476191D02*
X140452381Y-80476191D01*
X140595238Y-80571429D01*
X140690476Y-80666667D01*
X140738095Y-80761905D01*
X140452381Y-79571429D02*
X140452381Y-79476190D01*
X140500000Y-79380952D01*
X140547619Y-79333333D01*
X140642857Y-79285714D01*
X140833333Y-79238095D01*
X141071429Y-79238095D01*
X141261905Y-79285714D01*
X141357143Y-79333333D01*
X141404762Y-79380952D01*
X141452381Y-79476190D01*
X141452381Y-79571429D01*
X141404762Y-79666667D01*
X141357143Y-79714286D01*
X141261905Y-79761905D01*
X141071429Y-79809524D01*
X140833333Y-79809524D01*
X140642857Y-79761905D01*
X140547619Y-79714286D01*
X140500000Y-79666667D01*
X140452381Y-79571429D01*
X141452381Y-78809524D02*
X140452381Y-78809524D01*
X141452381Y-78238095D02*
X140880952Y-78666667D01*
X140452381Y-78238095D02*
X141023810Y-78809524D01*
X138361905Y-72633333D02*
X137980952Y-72900000D01*
X138361905Y-73090476D02*
X137561905Y-73090476D01*
X137561905Y-72785714D01*
X137600000Y-72709523D01*
X137638095Y-72671428D01*
X137714286Y-72633333D01*
X137828571Y-72633333D01*
X137904762Y-72671428D01*
X137942857Y-72709523D01*
X137980952Y-72785714D01*
X137980952Y-73090476D01*
X137561905Y-71909523D02*
X137561905Y-72290476D01*
X137942857Y-72328571D01*
X137904762Y-72290476D01*
X137866667Y-72214285D01*
X137866667Y-72023809D01*
X137904762Y-71947619D01*
X137942857Y-71909523D01*
X138019048Y-71871428D01*
X138209524Y-71871428D01*
X138285714Y-71909523D01*
X138323810Y-71947619D01*
X138361905Y-72023809D01*
X138361905Y-72214285D01*
X138323810Y-72290476D01*
X138285714Y-72328571D01*
X137952381Y-80190476D02*
X137952381Y-80761905D01*
X137952381Y-80476191D02*
X136952381Y-80476191D01*
X137095238Y-80571429D01*
X137190476Y-80666667D01*
X137238095Y-80761905D01*
X136952381Y-79571429D02*
X136952381Y-79476190D01*
X137000000Y-79380952D01*
X137047619Y-79333333D01*
X137142857Y-79285714D01*
X137333333Y-79238095D01*
X137571429Y-79238095D01*
X137761905Y-79285714D01*
X137857143Y-79333333D01*
X137904762Y-79380952D01*
X137952381Y-79476190D01*
X137952381Y-79571429D01*
X137904762Y-79666667D01*
X137857143Y-79714286D01*
X137761905Y-79761905D01*
X137571429Y-79809524D01*
X137333333Y-79809524D01*
X137142857Y-79761905D01*
X137047619Y-79714286D01*
X137000000Y-79666667D01*
X136952381Y-79571429D01*
X137952381Y-78809524D02*
X136952381Y-78809524D01*
X137952381Y-78238095D02*
X137380952Y-78666667D01*
X136952381Y-78238095D02*
X137523810Y-78809524D01*
X133861905Y-72633333D02*
X133480952Y-72900000D01*
X133861905Y-73090476D02*
X133061905Y-73090476D01*
X133061905Y-72785714D01*
X133100000Y-72709523D01*
X133138095Y-72671428D01*
X133214286Y-72633333D01*
X133328571Y-72633333D01*
X133404762Y-72671428D01*
X133442857Y-72709523D01*
X133480952Y-72785714D01*
X133480952Y-73090476D01*
X133061905Y-71947619D02*
X133061905Y-72100000D01*
X133100000Y-72176190D01*
X133138095Y-72214285D01*
X133252381Y-72290476D01*
X133404762Y-72328571D01*
X133709524Y-72328571D01*
X133785714Y-72290476D01*
X133823810Y-72252381D01*
X133861905Y-72176190D01*
X133861905Y-72023809D01*
X133823810Y-71947619D01*
X133785714Y-71909523D01*
X133709524Y-71871428D01*
X133519048Y-71871428D01*
X133442857Y-71909523D01*
X133404762Y-71947619D01*
X133366667Y-72023809D01*
X133366667Y-72176190D01*
X133404762Y-72252381D01*
X133442857Y-72290476D01*
X133519048Y-72328571D01*
X133785714Y-80261904D02*
X134452381Y-80261904D01*
X133404762Y-80500000D02*
X134119048Y-80738095D01*
X134119048Y-80119047D01*
X133452381Y-79833333D02*
X133452381Y-79166666D01*
X134452381Y-79595238D01*
X133452381Y-78595238D02*
X133452381Y-78499999D01*
X133500000Y-78404761D01*
X133547619Y-78357142D01*
X133642857Y-78309523D01*
X133833333Y-78261904D01*
X134071429Y-78261904D01*
X134261905Y-78309523D01*
X134357143Y-78357142D01*
X134404762Y-78404761D01*
X134452381Y-78499999D01*
X134452381Y-78595238D01*
X134404762Y-78690476D01*
X134357143Y-78738095D01*
X134261905Y-78785714D01*
X134071429Y-78833333D01*
X133833333Y-78833333D01*
X133642857Y-78785714D01*
X133547619Y-78738095D01*
X133500000Y-78690476D01*
X133452381Y-78595238D01*
X168866667Y-71361905D02*
X168600000Y-70980952D01*
X168409524Y-71361905D02*
X168409524Y-70561905D01*
X168714286Y-70561905D01*
X168790477Y-70600000D01*
X168828572Y-70638095D01*
X168866667Y-70714286D01*
X168866667Y-70828571D01*
X168828572Y-70904762D01*
X168790477Y-70942857D01*
X168714286Y-70980952D01*
X168409524Y-70980952D01*
X169133334Y-70561905D02*
X169666667Y-70561905D01*
X169323810Y-71361905D01*
X160809524Y-71452381D02*
X160238095Y-71452381D01*
X160523809Y-71452381D02*
X160523809Y-70452381D01*
X160428571Y-70595238D01*
X160333333Y-70690476D01*
X160238095Y-70738095D01*
X161428571Y-70452381D02*
X161523810Y-70452381D01*
X161619048Y-70500000D01*
X161666667Y-70547619D01*
X161714286Y-70642857D01*
X161761905Y-70833333D01*
X161761905Y-71071429D01*
X161714286Y-71261905D01*
X161666667Y-71357143D01*
X161619048Y-71404762D01*
X161523810Y-71452381D01*
X161428571Y-71452381D01*
X161333333Y-71404762D01*
X161285714Y-71357143D01*
X161238095Y-71261905D01*
X161190476Y-71071429D01*
X161190476Y-70833333D01*
X161238095Y-70642857D01*
X161285714Y-70547619D01*
X161333333Y-70500000D01*
X161428571Y-70452381D01*
X162190476Y-71452381D02*
X162190476Y-70452381D01*
X162761905Y-71452381D02*
X162333333Y-70880952D01*
X162761905Y-70452381D02*
X162190476Y-71023810D01*
X168866667Y-74861905D02*
X168600000Y-74480952D01*
X168409524Y-74861905D02*
X168409524Y-74061905D01*
X168714286Y-74061905D01*
X168790477Y-74100000D01*
X168828572Y-74138095D01*
X168866667Y-74214286D01*
X168866667Y-74328571D01*
X168828572Y-74404762D01*
X168790477Y-74442857D01*
X168714286Y-74480952D01*
X168409524Y-74480952D01*
X169323810Y-74404762D02*
X169247619Y-74366667D01*
X169209524Y-74328571D01*
X169171429Y-74252381D01*
X169171429Y-74214286D01*
X169209524Y-74138095D01*
X169247619Y-74100000D01*
X169323810Y-74061905D01*
X169476191Y-74061905D01*
X169552381Y-74100000D01*
X169590477Y-74138095D01*
X169628572Y-74214286D01*
X169628572Y-74252381D01*
X169590477Y-74328571D01*
X169552381Y-74366667D01*
X169476191Y-74404762D01*
X169323810Y-74404762D01*
X169247619Y-74442857D01*
X169209524Y-74480952D01*
X169171429Y-74557143D01*
X169171429Y-74709524D01*
X169209524Y-74785714D01*
X169247619Y-74823810D01*
X169323810Y-74861905D01*
X169476191Y-74861905D01*
X169552381Y-74823810D01*
X169590477Y-74785714D01*
X169628572Y-74709524D01*
X169628572Y-74557143D01*
X169590477Y-74480952D01*
X169552381Y-74442857D01*
X169476191Y-74404762D01*
X161205715Y-74952381D02*
X160634286Y-74952381D01*
X160920000Y-74952381D02*
X160920000Y-73952381D01*
X160824762Y-74095238D01*
X160729524Y-74190476D01*
X160634286Y-74238095D01*
X161634286Y-74952381D02*
X161634286Y-73952381D01*
X162205715Y-74952381D02*
X161777143Y-74380952D01*
X162205715Y-73952381D02*
X161634286Y-74523810D01*
X168866667Y-78861905D02*
X168600000Y-78480952D01*
X168409524Y-78861905D02*
X168409524Y-78061905D01*
X168714286Y-78061905D01*
X168790477Y-78100000D01*
X168828572Y-78138095D01*
X168866667Y-78214286D01*
X168866667Y-78328571D01*
X168828572Y-78404762D01*
X168790477Y-78442857D01*
X168714286Y-78480952D01*
X168409524Y-78480952D01*
X169247619Y-78861905D02*
X169400000Y-78861905D01*
X169476191Y-78823810D01*
X169514286Y-78785714D01*
X169590477Y-78671429D01*
X169628572Y-78519048D01*
X169628572Y-78214286D01*
X169590477Y-78138095D01*
X169552381Y-78100000D01*
X169476191Y-78061905D01*
X169323810Y-78061905D01*
X169247619Y-78100000D01*
X169209524Y-78138095D01*
X169171429Y-78214286D01*
X169171429Y-78404762D01*
X169209524Y-78480952D01*
X169247619Y-78519048D01*
X169323810Y-78557143D01*
X169476191Y-78557143D01*
X169552381Y-78519048D01*
X169590477Y-78480952D01*
X169628572Y-78404762D01*
X161285715Y-78452381D02*
X160714286Y-78452381D01*
X161000000Y-78452381D02*
X161000000Y-77452381D01*
X160904762Y-77595238D01*
X160809524Y-77690476D01*
X160714286Y-77738095D01*
X161714286Y-78452381D02*
X161714286Y-77452381D01*
X162285715Y-78452381D02*
X161857143Y-77880952D01*
X162285715Y-77452381D02*
X161714286Y-78023810D01*
X168485714Y-82361905D02*
X168219047Y-81980952D01*
X168028571Y-82361905D02*
X168028571Y-81561905D01*
X168333333Y-81561905D01*
X168409524Y-81600000D01*
X168447619Y-81638095D01*
X168485714Y-81714286D01*
X168485714Y-81828571D01*
X168447619Y-81904762D01*
X168409524Y-81942857D01*
X168333333Y-81980952D01*
X168028571Y-81980952D01*
X169247619Y-82361905D02*
X168790476Y-82361905D01*
X169019047Y-82361905D02*
X169019047Y-81561905D01*
X168942857Y-81676190D01*
X168866666Y-81752381D01*
X168790476Y-81790476D01*
X169742857Y-81561905D02*
X169819048Y-81561905D01*
X169895238Y-81600000D01*
X169933333Y-81638095D01*
X169971429Y-81714286D01*
X170009524Y-81866667D01*
X170009524Y-82057143D01*
X169971429Y-82209524D01*
X169933333Y-82285714D01*
X169895238Y-82323810D01*
X169819048Y-82361905D01*
X169742857Y-82361905D01*
X169666667Y-82323810D01*
X169628571Y-82285714D01*
X169590476Y-82209524D01*
X169552381Y-82057143D01*
X169552381Y-81866667D01*
X169590476Y-81714286D01*
X169628571Y-81638095D01*
X169666667Y-81600000D01*
X169742857Y-81561905D01*
X161081715Y-81952381D02*
X160510286Y-81952381D01*
X160796000Y-81952381D02*
X160796000Y-80952381D01*
X160700762Y-81095238D01*
X160605524Y-81190476D01*
X160510286Y-81238095D01*
X161510286Y-81952381D02*
X161510286Y-80952381D01*
X162081715Y-81952381D02*
X161653143Y-81380952D01*
X162081715Y-80952381D02*
X161510286Y-81523810D01*
X168485714Y-85861905D02*
X168219047Y-85480952D01*
X168028571Y-85861905D02*
X168028571Y-85061905D01*
X168333333Y-85061905D01*
X168409524Y-85100000D01*
X168447619Y-85138095D01*
X168485714Y-85214286D01*
X168485714Y-85328571D01*
X168447619Y-85404762D01*
X168409524Y-85442857D01*
X168333333Y-85480952D01*
X168028571Y-85480952D01*
X169247619Y-85861905D02*
X168790476Y-85861905D01*
X169019047Y-85861905D02*
X169019047Y-85061905D01*
X168942857Y-85176190D01*
X168866666Y-85252381D01*
X168790476Y-85290476D01*
X170009524Y-85861905D02*
X169552381Y-85861905D01*
X169780952Y-85861905D02*
X169780952Y-85061905D01*
X169704762Y-85176190D01*
X169628571Y-85252381D01*
X169552381Y-85290476D01*
X161081715Y-85452381D02*
X160510286Y-85452381D01*
X160796000Y-85452381D02*
X160796000Y-84452381D01*
X160700762Y-84595238D01*
X160605524Y-84690476D01*
X160510286Y-84738095D01*
X161510286Y-85452381D02*
X161510286Y-84452381D01*
X162081715Y-85452381D02*
X161653143Y-84880952D01*
X162081715Y-84452381D02*
X161510286Y-85023810D01*
X146916667Y-70314762D02*
X147059524Y-70362381D01*
X147297620Y-70362381D01*
X147392858Y-70314762D01*
X147440477Y-70267143D01*
X147488096Y-70171905D01*
X147488096Y-70076667D01*
X147440477Y-69981429D01*
X147392858Y-69933810D01*
X147297620Y-69886190D01*
X147107143Y-69838571D01*
X147011905Y-69790952D01*
X146964286Y-69743333D01*
X146916667Y-69648095D01*
X146916667Y-69552857D01*
X146964286Y-69457619D01*
X147011905Y-69410000D01*
X147107143Y-69362381D01*
X147345239Y-69362381D01*
X147488096Y-69410000D01*
X147821429Y-69362381D02*
X148059524Y-70362381D01*
X148250001Y-69648095D01*
X148440477Y-70362381D01*
X148678572Y-69362381D01*
X149583334Y-70362381D02*
X149011905Y-70362381D01*
X149297619Y-70362381D02*
X149297619Y-69362381D01*
X149202381Y-69505238D01*
X149107143Y-69600476D01*
X149011905Y-69648095D01*
D10*
X146284373Y-64683910D02*
X146398659Y-64722005D01*
X146589135Y-64722005D01*
X146665325Y-64683910D01*
X146703421Y-64645814D01*
X146741516Y-64569624D01*
X146741516Y-64493433D01*
X146703421Y-64417243D01*
X146665325Y-64379148D01*
X146589135Y-64341052D01*
X146436754Y-64302957D01*
X146360563Y-64264862D01*
X146322468Y-64226767D01*
X146284373Y-64150576D01*
X146284373Y-64074386D01*
X146322468Y-63998195D01*
X146360563Y-63960100D01*
X146436754Y-63922005D01*
X146627230Y-63922005D01*
X146741516Y-63960100D01*
X147008183Y-63922005D02*
X147198659Y-64722005D01*
X147351040Y-64150576D01*
X147503421Y-64722005D01*
X147693897Y-63922005D01*
X147808183Y-64798195D02*
X148417707Y-64798195D01*
X148608183Y-64722005D02*
X148608183Y-63922005D01*
X148798659Y-63922005D01*
X148912945Y-63960100D01*
X148989136Y-64036290D01*
X149027231Y-64112481D01*
X149065326Y-64264862D01*
X149065326Y-64379148D01*
X149027231Y-64531529D01*
X148989136Y-64607719D01*
X148912945Y-64683910D01*
X148798659Y-64722005D01*
X148608183Y-64722005D01*
X149408183Y-64722005D02*
X149408183Y-63922005D01*
X149789135Y-64722005D02*
X149789135Y-63922005D01*
X150093897Y-63922005D01*
X150170088Y-63960100D01*
X150208183Y-63998195D01*
X150246278Y-64074386D01*
X150246278Y-64188671D01*
X150208183Y-64264862D01*
X150170088Y-64302957D01*
X150093897Y-64341052D01*
X149789135Y-64341052D01*
X150398659Y-64798195D02*
X151008183Y-64798195D01*
X151617707Y-64722005D02*
X151160564Y-64722005D01*
X151389135Y-64722005D02*
X151389135Y-63922005D01*
X151312945Y-64036290D01*
X151236754Y-64112481D01*
X151160564Y-64150576D01*
D15*
X144416667Y-70314762D02*
X144559524Y-70362381D01*
X144797620Y-70362381D01*
X144892858Y-70314762D01*
X144940477Y-70267143D01*
X144988096Y-70171905D01*
X144988096Y-70076667D01*
X144940477Y-69981429D01*
X144892858Y-69933810D01*
X144797620Y-69886190D01*
X144607143Y-69838571D01*
X144511905Y-69790952D01*
X144464286Y-69743333D01*
X144416667Y-69648095D01*
X144416667Y-69552857D01*
X144464286Y-69457619D01*
X144511905Y-69410000D01*
X144607143Y-69362381D01*
X144845239Y-69362381D01*
X144988096Y-69410000D01*
X145321429Y-69362381D02*
X145559524Y-70362381D01*
X145750001Y-69648095D01*
X145940477Y-70362381D01*
X146178572Y-69362381D01*
X146511905Y-69457619D02*
X146559524Y-69410000D01*
X146654762Y-69362381D01*
X146892858Y-69362381D01*
X146988096Y-69410000D01*
X147035715Y-69457619D01*
X147083334Y-69552857D01*
X147083334Y-69648095D01*
X147035715Y-69790952D01*
X146464286Y-70362381D01*
X147083334Y-70362381D01*
D10*
X143305333Y-64749910D02*
X143419619Y-64788005D01*
X143610095Y-64788005D01*
X143686285Y-64749910D01*
X143724381Y-64711814D01*
X143762476Y-64635624D01*
X143762476Y-64559433D01*
X143724381Y-64483243D01*
X143686285Y-64445148D01*
X143610095Y-64407052D01*
X143457714Y-64368957D01*
X143381523Y-64330862D01*
X143343428Y-64292767D01*
X143305333Y-64216576D01*
X143305333Y-64140386D01*
X143343428Y-64064195D01*
X143381523Y-64026100D01*
X143457714Y-63988005D01*
X143648190Y-63988005D01*
X143762476Y-64026100D01*
X144029143Y-63988005D02*
X144219619Y-64788005D01*
X144372000Y-64216576D01*
X144524381Y-64788005D01*
X144714857Y-63988005D01*
X144829143Y-64864195D02*
X145438667Y-64864195D01*
X145629143Y-64788005D02*
X145629143Y-63988005D01*
X145819619Y-63988005D01*
X145933905Y-64026100D01*
X146010096Y-64102290D01*
X146048191Y-64178481D01*
X146086286Y-64330862D01*
X146086286Y-64445148D01*
X146048191Y-64597529D01*
X146010096Y-64673719D01*
X145933905Y-64749910D01*
X145819619Y-64788005D01*
X145629143Y-64788005D01*
X146429143Y-64788005D02*
X146429143Y-63988005D01*
X146810095Y-64788005D02*
X146810095Y-63988005D01*
X147114857Y-63988005D01*
X147191048Y-64026100D01*
X147229143Y-64064195D01*
X147267238Y-64140386D01*
X147267238Y-64254671D01*
X147229143Y-64330862D01*
X147191048Y-64368957D01*
X147114857Y-64407052D01*
X146810095Y-64407052D01*
X147419619Y-64864195D02*
X148029143Y-64864195D01*
X148638667Y-64788005D02*
X148181524Y-64788005D01*
X148410095Y-64788005D02*
X148410095Y-63988005D01*
X148333905Y-64102290D01*
X148257714Y-64178481D01*
X148181524Y-64216576D01*
D15*
X141916667Y-70314762D02*
X142059524Y-70362381D01*
X142297620Y-70362381D01*
X142392858Y-70314762D01*
X142440477Y-70267143D01*
X142488096Y-70171905D01*
X142488096Y-70076667D01*
X142440477Y-69981429D01*
X142392858Y-69933810D01*
X142297620Y-69886190D01*
X142107143Y-69838571D01*
X142011905Y-69790952D01*
X141964286Y-69743333D01*
X141916667Y-69648095D01*
X141916667Y-69552857D01*
X141964286Y-69457619D01*
X142011905Y-69410000D01*
X142107143Y-69362381D01*
X142345239Y-69362381D01*
X142488096Y-69410000D01*
X142821429Y-69362381D02*
X143059524Y-70362381D01*
X143250001Y-69648095D01*
X143440477Y-70362381D01*
X143678572Y-69362381D01*
X143964286Y-69362381D02*
X144583334Y-69362381D01*
X144250000Y-69743333D01*
X144392858Y-69743333D01*
X144488096Y-69790952D01*
X144535715Y-69838571D01*
X144583334Y-69933810D01*
X144583334Y-70171905D01*
X144535715Y-70267143D01*
X144488096Y-70314762D01*
X144392858Y-70362381D01*
X144107143Y-70362381D01*
X144011905Y-70314762D01*
X143964286Y-70267143D01*
D10*
X140305333Y-64749910D02*
X140419619Y-64788005D01*
X140610095Y-64788005D01*
X140686285Y-64749910D01*
X140724381Y-64711814D01*
X140762476Y-64635624D01*
X140762476Y-64559433D01*
X140724381Y-64483243D01*
X140686285Y-64445148D01*
X140610095Y-64407052D01*
X140457714Y-64368957D01*
X140381523Y-64330862D01*
X140343428Y-64292767D01*
X140305333Y-64216576D01*
X140305333Y-64140386D01*
X140343428Y-64064195D01*
X140381523Y-64026100D01*
X140457714Y-63988005D01*
X140648190Y-63988005D01*
X140762476Y-64026100D01*
X141029143Y-63988005D02*
X141219619Y-64788005D01*
X141372000Y-64216576D01*
X141524381Y-64788005D01*
X141714857Y-63988005D01*
X141829143Y-64864195D02*
X142438667Y-64864195D01*
X142629143Y-64788005D02*
X142629143Y-63988005D01*
X142819619Y-63988005D01*
X142933905Y-64026100D01*
X143010096Y-64102290D01*
X143048191Y-64178481D01*
X143086286Y-64330862D01*
X143086286Y-64445148D01*
X143048191Y-64597529D01*
X143010096Y-64673719D01*
X142933905Y-64749910D01*
X142819619Y-64788005D01*
X142629143Y-64788005D01*
X143429143Y-64788005D02*
X143429143Y-63988005D01*
X143810095Y-64788005D02*
X143810095Y-63988005D01*
X144114857Y-63988005D01*
X144191048Y-64026100D01*
X144229143Y-64064195D01*
X144267238Y-64140386D01*
X144267238Y-64254671D01*
X144229143Y-64330862D01*
X144191048Y-64368957D01*
X144114857Y-64407052D01*
X143810095Y-64407052D01*
X144419619Y-64864195D02*
X145029143Y-64864195D01*
X145638667Y-64788005D02*
X145181524Y-64788005D01*
X145410095Y-64788005D02*
X145410095Y-63988005D01*
X145333905Y-64102290D01*
X145257714Y-64178481D01*
X145181524Y-64216576D01*
D17*
X127629143Y-92665429D02*
X127629143Y-93899143D01*
X127683571Y-94044286D01*
X127738000Y-94116857D01*
X127846857Y-94189429D01*
X128064571Y-94189429D01*
X128173429Y-94116857D01*
X128227857Y-94044286D01*
X128282286Y-93899143D01*
X128282286Y-92665429D01*
X129425286Y-94189429D02*
X128772143Y-94189429D01*
X129098715Y-94189429D02*
X129098715Y-92665429D01*
X128989858Y-92883143D01*
X128881000Y-93028286D01*
X128772143Y-93100857D01*
D18*
D17*
X137962144Y-94189429D02*
X137962144Y-92665429D01*
X138397572Y-92665429D01*
X138506430Y-92738000D01*
X138560858Y-92810571D01*
X138615287Y-92955714D01*
X138615287Y-93173429D01*
X138560858Y-93318571D01*
X138506430Y-93391143D01*
X138397572Y-93463714D01*
X137962144Y-93463714D01*
X139758287Y-94044286D02*
X139703858Y-94116857D01*
X139540572Y-94189429D01*
X139431715Y-94189429D01*
X139268430Y-94116857D01*
X139159572Y-93971714D01*
X139105144Y-93826571D01*
X139050715Y-93536286D01*
X139050715Y-93318571D01*
X139105144Y-93028286D01*
X139159572Y-92883143D01*
X139268430Y-92738000D01*
X139431715Y-92665429D01*
X139540572Y-92665429D01*
X139703858Y-92738000D01*
X139758287Y-92810571D01*
X140629144Y-93391143D02*
X140248144Y-93391143D01*
X140248144Y-94189429D02*
X140248144Y-92665429D01*
X140792430Y-92665429D01*
X141391144Y-93318571D02*
X141282286Y-93246000D01*
X141227858Y-93173429D01*
X141173429Y-93028286D01*
X141173429Y-92955714D01*
X141227858Y-92810571D01*
X141282286Y-92738000D01*
X141391144Y-92665429D01*
X141608858Y-92665429D01*
X141717715Y-92738000D01*
X141772144Y-92810571D01*
X141826572Y-92955714D01*
X141826572Y-93028286D01*
X141772144Y-93173429D01*
X141717715Y-93246000D01*
X141608858Y-93318571D01*
X141391144Y-93318571D01*
X141282286Y-93391143D01*
X141227858Y-93463714D01*
X141173429Y-93608857D01*
X141173429Y-93899143D01*
X141227858Y-94044286D01*
X141282286Y-94116857D01*
X141391144Y-94189429D01*
X141608858Y-94189429D01*
X141717715Y-94116857D01*
X141772144Y-94044286D01*
X141826572Y-93899143D01*
X141826572Y-93608857D01*
X141772144Y-93463714D01*
X141717715Y-93391143D01*
X141608858Y-93318571D01*
X142860715Y-92665429D02*
X142316429Y-92665429D01*
X142262000Y-93391143D01*
X142316429Y-93318571D01*
X142425286Y-93246000D01*
X142697429Y-93246000D01*
X142806286Y-93318571D01*
X142860715Y-93391143D01*
X142915143Y-93536286D01*
X142915143Y-93899143D01*
X142860715Y-94044286D01*
X142806286Y-94116857D01*
X142697429Y-94189429D01*
X142425286Y-94189429D01*
X142316429Y-94116857D01*
X142262000Y-94044286D01*
X143296143Y-92665429D02*
X144058143Y-92665429D01*
X143568286Y-94189429D01*
X144983428Y-93173429D02*
X144983428Y-94189429D01*
X144711285Y-92592857D02*
X144439142Y-93681429D01*
X145146714Y-93681429D01*
D18*
D15*
X165452381Y-96261905D02*
X166261905Y-96261905D01*
X166357143Y-96214286D01*
X166404762Y-96166667D01*
X166452381Y-96071429D01*
X166452381Y-95880952D01*
X166404762Y-95785714D01*
X166357143Y-95738095D01*
X166261905Y-95690476D01*
X165452381Y-95690476D01*
X165547619Y-95261905D02*
X165500000Y-95214286D01*
X165452381Y-95119048D01*
X165452381Y-94880952D01*
X165500000Y-94785714D01*
X165547619Y-94738095D01*
X165642857Y-94690476D01*
X165738095Y-94690476D01*
X165880952Y-94738095D01*
X166452381Y-95309524D01*
X166452381Y-94690476D01*
X161952381Y-97190476D02*
X160952381Y-97190476D01*
X160952381Y-96809523D01*
X161000000Y-96714285D01*
X161047619Y-96666666D01*
X161142857Y-96619047D01*
X161285714Y-96619047D01*
X161380952Y-96666666D01*
X161428571Y-96714285D01*
X161476190Y-96809523D01*
X161476190Y-97190476D01*
X161857143Y-95619047D02*
X161904762Y-95666666D01*
X161952381Y-95809523D01*
X161952381Y-95904761D01*
X161904762Y-96047619D01*
X161809524Y-96142857D01*
X161714286Y-96190476D01*
X161523810Y-96238095D01*
X161380952Y-96238095D01*
X161190476Y-96190476D01*
X161095238Y-96142857D01*
X161000000Y-96047619D01*
X160952381Y-95904761D01*
X160952381Y-95809523D01*
X161000000Y-95666666D01*
X161047619Y-95619047D01*
X161380952Y-95047619D02*
X161333333Y-95142857D01*
X161285714Y-95190476D01*
X161190476Y-95238095D01*
X161142857Y-95238095D01*
X161047619Y-95190476D01*
X161000000Y-95142857D01*
X160952381Y-95047619D01*
X160952381Y-94857142D01*
X161000000Y-94761904D01*
X161047619Y-94714285D01*
X161142857Y-94666666D01*
X161190476Y-94666666D01*
X161285714Y-94714285D01*
X161333333Y-94761904D01*
X161380952Y-94857142D01*
X161380952Y-95047619D01*
X161428571Y-95142857D01*
X161476190Y-95190476D01*
X161571429Y-95238095D01*
X161761905Y-95238095D01*
X161857143Y-95190476D01*
X161904762Y-95142857D01*
X161952381Y-95047619D01*
X161952381Y-94857142D01*
X161904762Y-94761904D01*
X161857143Y-94714285D01*
X161761905Y-94666666D01*
X161571429Y-94666666D01*
X161476190Y-94714285D01*
X161428571Y-94761904D01*
X161380952Y-94857142D01*
X161952381Y-93714285D02*
X161952381Y-94285714D01*
X161952381Y-94000000D02*
X160952381Y-94000000D01*
X161095238Y-94095238D01*
X161190476Y-94190476D01*
X161238095Y-94285714D01*
X160952381Y-93380952D02*
X160952381Y-92714285D01*
X161952381Y-93142857D01*
M02*
