G04 #@! TF.GenerationSoftware,KiCad,Pcbnew,(5.0.1)-3*
G04 #@! TF.CreationDate,2019-04-12T12:39:31-05:00*
G04 #@! TF.ProjectId,Arduino_As_Uno,41726475696E6F5F41735F556E6F2E6B,rev?*
G04 #@! TF.SameCoordinates,Original*
G04 #@! TF.FileFunction,Copper,L1,Top,Signal*
G04 #@! TF.FilePolarity,Positive*
%FSLAX46Y46*%
G04 Gerber Fmt 4.6, Leading zero omitted, Abs format (unit mm)*
G04 Created by KiCad (PCBNEW (5.0.1)-3) date 12/04/2019 12:39:31*
%MOMM*%
%LPD*%
G01*
G04 APERTURE LIST*
G04 #@! TA.AperFunction,ComponentPad*
%ADD10C,4.064000*%
G04 #@! TD*
G04 #@! TA.AperFunction,ComponentPad*
%ADD11C,2.500000*%
G04 #@! TD*
G04 #@! TA.AperFunction,ComponentPad*
%ADD12R,1.524000X2.199640*%
G04 #@! TD*
G04 #@! TA.AperFunction,ComponentPad*
%ADD13O,1.524000X2.199640*%
G04 #@! TD*
G04 #@! TA.AperFunction,ComponentPad*
%ADD14R,2.199640X1.524000*%
G04 #@! TD*
G04 #@! TA.AperFunction,ComponentPad*
%ADD15O,2.199640X1.524000*%
G04 #@! TD*
G04 #@! TA.AperFunction,ViaPad*
%ADD16C,0.600000*%
G04 #@! TD*
G04 #@! TA.AperFunction,Conductor*
%ADD17C,0.700000*%
G04 #@! TD*
G04 #@! TA.AperFunction,Conductor*
%ADD18C,0.254000*%
G04 #@! TD*
G04 APERTURE END LIST*
D10*
G04 #@! TO.P,P8,1*
G04 #@! TO.N,N/C*
X177038000Y-90805000D03*
G04 #@! TD*
G04 #@! TO.P,P6,1*
G04 #@! TO.N,N/C*
X177038000Y-118745000D03*
G04 #@! TD*
D11*
G04 #@! TO.P,P10,7*
G04 #@! TO.N,/AREF*
X165876000Y-132461000D03*
G04 #@! TO.P,P10,6*
G04 #@! TO.N,/A1*
X160876000Y-132461000D03*
G04 #@! TO.P,P10,5*
G04 #@! TO.N,/A0*
X155876000Y-132461000D03*
G04 #@! TO.P,P10,4*
G04 #@! TO.N,/4*
X150876000Y-132461000D03*
G04 #@! TO.P,P10,3*
G04 #@! TO.N,/5(\002A\002A)*
X145876000Y-132461000D03*
G04 #@! TO.P,P10,1*
G04 #@! TO.N,/7*
X135876000Y-132461000D03*
G04 #@! TO.P,P10,2*
G04 #@! TO.N,/6(\002A\002A)*
X140876000Y-132461000D03*
G04 #@! TD*
D10*
G04 #@! TO.P,P5,1*
G04 #@! TO.N,N/C*
X124968000Y-123825000D03*
G04 #@! TD*
G04 #@! TO.P,P7,1*
G04 #@! TO.N,N/C*
X126238000Y-75565000D03*
G04 #@! TD*
D11*
G04 #@! TO.P,P9,4*
G04 #@! TO.N,GND*
X171831000Y-97275000D03*
G04 #@! TO.P,P9,3*
G04 #@! TO.N,/(SCL)*
X171831000Y-102275000D03*
G04 #@! TO.P,P9,1*
G04 #@! TO.N,+5V*
X171831000Y-112275000D03*
G04 #@! TO.P,P9,2*
G04 #@! TO.N,/(SDA)*
X171831000Y-107275000D03*
G04 #@! TD*
G04 #@! TO.P,P11,1*
G04 #@! TO.N,+5V*
X126024000Y-132461000D03*
G04 #@! TO.P,P11,2*
G04 #@! TO.N,GND*
X131024000Y-132461000D03*
G04 #@! TD*
D12*
G04 #@! TO.P,P3,1*
G04 #@! TO.N,/(SCL)*
X129794000Y-75565000D03*
D13*
G04 #@! TO.P,P3,2*
G04 #@! TO.N,/(SDA)*
X132334000Y-75565000D03*
G04 #@! TO.P,P3,3*
G04 #@! TO.N,/AREF*
X134874000Y-75565000D03*
G04 #@! TO.P,P3,4*
G04 #@! TO.N,GND*
X137414000Y-75565000D03*
G04 #@! TO.P,P3,5*
G04 #@! TO.N,N/C*
X139954000Y-75565000D03*
G04 #@! TO.P,P3,6*
X142494000Y-75565000D03*
G04 #@! TO.P,P3,7*
X145034000Y-75565000D03*
G04 #@! TO.P,P3,8*
X147574000Y-75565000D03*
G04 #@! TO.P,P3,9*
X150114000Y-75565000D03*
G04 #@! TO.P,P3,10*
X152654000Y-75565000D03*
G04 #@! TD*
D12*
G04 #@! TO.P,P1,1*
G04 #@! TO.N,N/C*
X138938000Y-123825000D03*
D13*
G04 #@! TO.P,P1,2*
X141478000Y-123825000D03*
G04 #@! TO.P,P1,3*
X144018000Y-123825000D03*
G04 #@! TO.P,P1,4*
X146558000Y-123825000D03*
G04 #@! TO.P,P1,5*
G04 #@! TO.N,+5V*
X149098000Y-123825000D03*
G04 #@! TO.P,P1,6*
G04 #@! TO.N,GND*
X151638000Y-123825000D03*
G04 #@! TO.P,P1,7*
X154178000Y-123825000D03*
G04 #@! TO.P,P1,8*
G04 #@! TO.N,N/C*
X156718000Y-123825000D03*
G04 #@! TD*
D12*
G04 #@! TO.P,P2,1*
G04 #@! TO.N,/A0*
X161798000Y-123825000D03*
D13*
G04 #@! TO.P,P2,2*
G04 #@! TO.N,/A1*
X164338000Y-123825000D03*
G04 #@! TO.P,P2,3*
G04 #@! TO.N,N/C*
X166878000Y-123825000D03*
G04 #@! TO.P,P2,4*
X169418000Y-123825000D03*
G04 #@! TO.P,P2,5*
X171958000Y-123825000D03*
G04 #@! TO.P,P2,6*
X174498000Y-123825000D03*
G04 #@! TD*
D12*
G04 #@! TO.P,P4,1*
G04 #@! TO.N,/7*
X156718000Y-75565000D03*
D13*
G04 #@! TO.P,P4,2*
G04 #@! TO.N,/6(\002A\002A)*
X159258000Y-75565000D03*
G04 #@! TO.P,P4,3*
G04 #@! TO.N,/5(\002A\002A)*
X161798000Y-75565000D03*
G04 #@! TO.P,P4,4*
G04 #@! TO.N,/4*
X164338000Y-75565000D03*
G04 #@! TO.P,P4,5*
G04 #@! TO.N,N/C*
X166878000Y-75565000D03*
G04 #@! TO.P,P4,6*
X169418000Y-75565000D03*
G04 #@! TO.P,P4,7*
G04 #@! TO.N,/1(Tx)*
X171958000Y-75565000D03*
G04 #@! TO.P,P4,8*
G04 #@! TO.N,/0(Rx)*
X174498000Y-75565000D03*
G04 #@! TD*
D11*
G04 #@! TO.P,J1,3*
G04 #@! TO.N,GND*
X180768000Y-132461000D03*
G04 #@! TO.P,J1,1*
G04 #@! TO.N,/1(Tx)*
X170768000Y-132461000D03*
G04 #@! TO.P,J1,2*
G04 #@! TO.N,/0(Rx)*
X175768000Y-132461000D03*
G04 #@! TD*
D14*
G04 #@! TO.P,P12,1*
G04 #@! TO.N,+5V*
X135255000Y-98679000D03*
D15*
G04 #@! TO.P,P12,2*
G04 #@! TO.N,/(SDA)*
X135255000Y-101219000D03*
G04 #@! TO.P,P12,3*
G04 #@! TO.N,/(SCL)*
X135255000Y-103759000D03*
G04 #@! TO.P,P12,4*
G04 #@! TO.N,GND*
X135255000Y-106299000D03*
G04 #@! TD*
D16*
G04 #@! TO.N,/4*
X159437100Y-122458400D03*
G04 #@! TD*
D17*
G04 #@! TO.N,+5V*
X127893300Y-134330300D02*
X126024000Y-132461000D01*
X131800400Y-134330300D02*
X127893300Y-134330300D01*
X133196300Y-132934400D02*
X131800400Y-134330300D01*
X133196300Y-132511700D02*
X133196300Y-132934400D01*
X137088200Y-128619800D02*
X133196300Y-132511700D01*
X144303200Y-128619800D02*
X137088200Y-128619800D01*
X149098000Y-123825000D02*
X144303200Y-128619800D01*
G04 #@! TO.N,GND*
X137414000Y-104140000D02*
X135255000Y-106299000D01*
X137414000Y-75565000D02*
X137414000Y-104140000D01*
X149937700Y-122124700D02*
X135255000Y-122124700D01*
X151638000Y-123825000D02*
X149937700Y-122124700D01*
X135255000Y-106299000D02*
X135255000Y-122124700D01*
X135255000Y-128230000D02*
X131024000Y-132461000D01*
X135255000Y-122124700D02*
X135255000Y-128230000D01*
G04 #@! TO.N,/(SCL)*
X129794000Y-98298000D02*
X129794000Y-77364800D01*
X135255000Y-103759000D02*
X129794000Y-98298000D01*
X129794000Y-75565000D02*
X129794000Y-77364800D01*
G04 #@! TO.N,/(SDA)*
X132334000Y-98522200D02*
X132334000Y-75565000D01*
X135030800Y-101219000D02*
X132334000Y-98522200D01*
X135255000Y-101219000D02*
X135030800Y-101219000D01*
G04 #@! TO.N,/AREF*
X158444000Y-125029000D02*
X165876000Y-132461000D01*
X158444000Y-81283100D02*
X158444000Y-125029000D01*
X154426200Y-77265300D02*
X158444000Y-81283100D01*
X154426200Y-75014600D02*
X154426200Y-77265300D01*
X153225600Y-73814000D02*
X154426200Y-75014600D01*
X136625000Y-73814000D02*
X153225600Y-73814000D01*
X134874000Y-75565000D02*
X136625000Y-73814000D01*
G04 #@! TO.N,/4*
X159437100Y-80465900D02*
X159437100Y-122458400D01*
X164338000Y-75565000D02*
X159437100Y-80465900D01*
G04 #@! TO.N,/1(Tx)*
X160430100Y-87092900D02*
X171958000Y-75565000D01*
X160430100Y-125195000D02*
X160430100Y-87092900D01*
X162640900Y-127405800D02*
X160430100Y-125195000D01*
X165712800Y-127405800D02*
X162640900Y-127405800D01*
X170768000Y-132461000D02*
X165712800Y-127405800D01*
G04 #@! TO.N,/0(Rx)*
X174405600Y-77457300D02*
X174498000Y-77364900D01*
X174405600Y-120031800D02*
X174405600Y-77457300D01*
X175876000Y-121502200D02*
X174405600Y-120031800D01*
X175876000Y-132353000D02*
X175876000Y-121502200D01*
X175768000Y-132461000D02*
X175876000Y-132353000D01*
X174498000Y-75565000D02*
X174498000Y-77364900D01*
G04 #@! TD*
D18*
G04 #@! TO.N,GND*
G36*
X137541000Y-75438000D02*
X137561000Y-75438000D01*
X137561000Y-75692000D01*
X137541000Y-75692000D01*
X137541000Y-77134540D01*
X137757070Y-77257040D01*
X137831277Y-77242080D01*
X138312026Y-76980450D01*
X138656059Y-76554761D01*
X138672420Y-76499331D01*
X138946821Y-76910000D01*
X139408919Y-77218764D01*
X139954000Y-77327188D01*
X140499082Y-77218764D01*
X140961180Y-76910000D01*
X141224000Y-76516662D01*
X141486821Y-76910000D01*
X141948919Y-77218764D01*
X142494000Y-77327188D01*
X143039082Y-77218764D01*
X143501180Y-76910000D01*
X143764000Y-76516662D01*
X144026821Y-76910000D01*
X144488919Y-77218764D01*
X145034000Y-77327188D01*
X145579082Y-77218764D01*
X146041180Y-76910000D01*
X146304000Y-76516662D01*
X146566821Y-76910000D01*
X147028919Y-77218764D01*
X147574000Y-77327188D01*
X148119082Y-77218764D01*
X148581180Y-76910000D01*
X148844000Y-76516662D01*
X149106821Y-76910000D01*
X149568919Y-77218764D01*
X150114000Y-77327188D01*
X150659082Y-77218764D01*
X151121180Y-76910000D01*
X151384000Y-76516662D01*
X151646821Y-76910000D01*
X152108919Y-77218764D01*
X152654000Y-77327188D01*
X153199082Y-77218764D01*
X153441201Y-77056985D01*
X153441201Y-77168287D01*
X153421904Y-77265300D01*
X153498351Y-77649627D01*
X153661102Y-77893202D01*
X153661105Y-77893205D01*
X153716056Y-77975445D01*
X153798296Y-78030396D01*
X157459000Y-81691100D01*
X157459001Y-122302146D01*
X157263081Y-122171236D01*
X156718000Y-122062812D01*
X156172918Y-122171236D01*
X155710820Y-122480001D01*
X155436420Y-122890670D01*
X155420059Y-122835239D01*
X155076026Y-122409550D01*
X154595277Y-122147920D01*
X154521070Y-122132960D01*
X154305000Y-122255460D01*
X154305000Y-123698000D01*
X154325000Y-123698000D01*
X154325000Y-123952000D01*
X154305000Y-123952000D01*
X154305000Y-125394540D01*
X154521070Y-125517040D01*
X154595277Y-125502080D01*
X155076026Y-125240450D01*
X155420059Y-124814761D01*
X155436420Y-124759331D01*
X155710821Y-125170000D01*
X156172919Y-125478764D01*
X156718000Y-125587188D01*
X157263082Y-125478764D01*
X157497951Y-125321829D01*
X157516151Y-125413327D01*
X157678902Y-125656902D01*
X157678905Y-125656905D01*
X157733856Y-125739145D01*
X157816096Y-125794096D01*
X164025283Y-132003283D01*
X163991000Y-132086050D01*
X163991000Y-132835950D01*
X164277974Y-133528767D01*
X164808233Y-134059026D01*
X165501050Y-134346000D01*
X166250950Y-134346000D01*
X166943767Y-134059026D01*
X167474026Y-133528767D01*
X167761000Y-132835950D01*
X167761000Y-132086050D01*
X167474026Y-131393233D01*
X166943767Y-130862974D01*
X166250950Y-130576000D01*
X165501050Y-130576000D01*
X165418283Y-130610283D01*
X163198800Y-128390800D01*
X165304800Y-128390800D01*
X168917283Y-132003283D01*
X168883000Y-132086050D01*
X168883000Y-132835950D01*
X169169974Y-133528767D01*
X169700233Y-134059026D01*
X170393050Y-134346000D01*
X171142950Y-134346000D01*
X171835767Y-134059026D01*
X172366026Y-133528767D01*
X172653000Y-132835950D01*
X172653000Y-132086050D01*
X172366026Y-131393233D01*
X171835767Y-130862974D01*
X171142950Y-130576000D01*
X170393050Y-130576000D01*
X170310283Y-130610283D01*
X166477897Y-126777897D01*
X166422945Y-126695655D01*
X166097128Y-126477951D01*
X165809812Y-126420800D01*
X165809808Y-126420800D01*
X165712800Y-126401504D01*
X165615792Y-126420800D01*
X163048900Y-126420800D01*
X162200360Y-125572260D01*
X162560000Y-125572260D01*
X162807765Y-125522977D01*
X163017809Y-125382629D01*
X163158157Y-125172585D01*
X163198162Y-124971463D01*
X163330821Y-125170000D01*
X163792919Y-125478764D01*
X164338000Y-125587188D01*
X164883082Y-125478764D01*
X165345180Y-125170000D01*
X165608000Y-124776662D01*
X165870821Y-125170000D01*
X166332919Y-125478764D01*
X166878000Y-125587188D01*
X167423082Y-125478764D01*
X167885180Y-125170000D01*
X168148000Y-124776662D01*
X168410821Y-125170000D01*
X168872919Y-125478764D01*
X169418000Y-125587188D01*
X169963082Y-125478764D01*
X170425180Y-125170000D01*
X170688000Y-124776662D01*
X170950821Y-125170000D01*
X171412919Y-125478764D01*
X171958000Y-125587188D01*
X172503082Y-125478764D01*
X172965180Y-125170000D01*
X173228000Y-124776662D01*
X173490821Y-125170000D01*
X173952919Y-125478764D01*
X174498000Y-125587188D01*
X174891001Y-125509015D01*
X174891000Y-130783956D01*
X174700233Y-130862974D01*
X174169974Y-131393233D01*
X173883000Y-132086050D01*
X173883000Y-132835950D01*
X174169974Y-133528767D01*
X174700233Y-134059026D01*
X175393050Y-134346000D01*
X176142950Y-134346000D01*
X176835767Y-134059026D01*
X177100473Y-133794320D01*
X179614285Y-133794320D01*
X179743533Y-134087123D01*
X180443806Y-134355388D01*
X181193435Y-134335250D01*
X181792467Y-134087123D01*
X181921715Y-133794320D01*
X180768000Y-132640605D01*
X179614285Y-133794320D01*
X177100473Y-133794320D01*
X177366026Y-133528767D01*
X177653000Y-132835950D01*
X177653000Y-132136806D01*
X178873612Y-132136806D01*
X178893750Y-132886435D01*
X179141877Y-133485467D01*
X179434680Y-133614715D01*
X180588395Y-132461000D01*
X180947605Y-132461000D01*
X182101320Y-133614715D01*
X182394123Y-133485467D01*
X182662388Y-132785194D01*
X182642250Y-132035565D01*
X182394123Y-131436533D01*
X182101320Y-131307285D01*
X180947605Y-132461000D01*
X180588395Y-132461000D01*
X179434680Y-131307285D01*
X179141877Y-131436533D01*
X178873612Y-132136806D01*
X177653000Y-132136806D01*
X177653000Y-132086050D01*
X177366026Y-131393233D01*
X177100473Y-131127680D01*
X179614285Y-131127680D01*
X180768000Y-132281395D01*
X181921715Y-131127680D01*
X181792467Y-130834877D01*
X181092194Y-130566612D01*
X180342565Y-130586750D01*
X179743533Y-130834877D01*
X179614285Y-131127680D01*
X177100473Y-131127680D01*
X176861000Y-130888207D01*
X176861000Y-121599208D01*
X176880296Y-121502200D01*
X176862354Y-121412000D01*
X177568499Y-121412000D01*
X178548734Y-121005974D01*
X179122001Y-120432707D01*
X179122001Y-125025071D01*
X179108091Y-125095000D01*
X179147280Y-125292012D01*
X179163196Y-125372028D01*
X179320120Y-125606881D01*
X179379401Y-125646492D01*
X180042509Y-126309601D01*
X180082119Y-126368881D01*
X180141398Y-126408490D01*
X180141399Y-126408491D01*
X180316972Y-126525805D01*
X180594000Y-126580909D01*
X180663926Y-126567000D01*
X183347909Y-126567000D01*
X183694000Y-126913091D01*
X183694001Y-137246908D01*
X183093910Y-137847000D01*
X123484091Y-137847000D01*
X122376000Y-136738910D01*
X122376000Y-132086050D01*
X124139000Y-132086050D01*
X124139000Y-132835950D01*
X124425974Y-133528767D01*
X124956233Y-134059026D01*
X125649050Y-134346000D01*
X126398950Y-134346000D01*
X126481717Y-134311717D01*
X127128202Y-134958202D01*
X127183155Y-135040445D01*
X127508972Y-135258149D01*
X127796288Y-135315300D01*
X127796292Y-135315300D01*
X127893299Y-135334596D01*
X127990306Y-135315300D01*
X131703392Y-135315300D01*
X131800400Y-135334596D01*
X131897408Y-135315300D01*
X131897412Y-135315300D01*
X132184728Y-135258149D01*
X132510545Y-135040445D01*
X132565498Y-134958202D01*
X133824205Y-133699496D01*
X133906445Y-133644545D01*
X133961396Y-133562305D01*
X133961398Y-133562303D01*
X134124149Y-133318728D01*
X134145828Y-133209739D01*
X134277974Y-133528767D01*
X134808233Y-134059026D01*
X135501050Y-134346000D01*
X136250950Y-134346000D01*
X136943767Y-134059026D01*
X137474026Y-133528767D01*
X137761000Y-132835950D01*
X137761000Y-132086050D01*
X138991000Y-132086050D01*
X138991000Y-132835950D01*
X139277974Y-133528767D01*
X139808233Y-134059026D01*
X140501050Y-134346000D01*
X141250950Y-134346000D01*
X141943767Y-134059026D01*
X142474026Y-133528767D01*
X142761000Y-132835950D01*
X142761000Y-132086050D01*
X143991000Y-132086050D01*
X143991000Y-132835950D01*
X144277974Y-133528767D01*
X144808233Y-134059026D01*
X145501050Y-134346000D01*
X146250950Y-134346000D01*
X146943767Y-134059026D01*
X147474026Y-133528767D01*
X147761000Y-132835950D01*
X147761000Y-132086050D01*
X148991000Y-132086050D01*
X148991000Y-132835950D01*
X149277974Y-133528767D01*
X149808233Y-134059026D01*
X150501050Y-134346000D01*
X151250950Y-134346000D01*
X151943767Y-134059026D01*
X152474026Y-133528767D01*
X152761000Y-132835950D01*
X152761000Y-132086050D01*
X153991000Y-132086050D01*
X153991000Y-132835950D01*
X154277974Y-133528767D01*
X154808233Y-134059026D01*
X155501050Y-134346000D01*
X156250950Y-134346000D01*
X156943767Y-134059026D01*
X157474026Y-133528767D01*
X157761000Y-132835950D01*
X157761000Y-132086050D01*
X158991000Y-132086050D01*
X158991000Y-132835950D01*
X159277974Y-133528767D01*
X159808233Y-134059026D01*
X160501050Y-134346000D01*
X161250950Y-134346000D01*
X161943767Y-134059026D01*
X162474026Y-133528767D01*
X162761000Y-132835950D01*
X162761000Y-132086050D01*
X162474026Y-131393233D01*
X161943767Y-130862974D01*
X161250950Y-130576000D01*
X160501050Y-130576000D01*
X159808233Y-130862974D01*
X159277974Y-131393233D01*
X158991000Y-132086050D01*
X157761000Y-132086050D01*
X157474026Y-131393233D01*
X156943767Y-130862974D01*
X156250950Y-130576000D01*
X155501050Y-130576000D01*
X154808233Y-130862974D01*
X154277974Y-131393233D01*
X153991000Y-132086050D01*
X152761000Y-132086050D01*
X152474026Y-131393233D01*
X151943767Y-130862974D01*
X151250950Y-130576000D01*
X150501050Y-130576000D01*
X149808233Y-130862974D01*
X149277974Y-131393233D01*
X148991000Y-132086050D01*
X147761000Y-132086050D01*
X147474026Y-131393233D01*
X146943767Y-130862974D01*
X146250950Y-130576000D01*
X145501050Y-130576000D01*
X144808233Y-130862974D01*
X144277974Y-131393233D01*
X143991000Y-132086050D01*
X142761000Y-132086050D01*
X142474026Y-131393233D01*
X141943767Y-130862974D01*
X141250950Y-130576000D01*
X140501050Y-130576000D01*
X139808233Y-130862974D01*
X139277974Y-131393233D01*
X138991000Y-132086050D01*
X137761000Y-132086050D01*
X137474026Y-131393233D01*
X136943767Y-130862974D01*
X136444733Y-130656268D01*
X137496201Y-129604800D01*
X144206192Y-129604800D01*
X144303200Y-129624096D01*
X144400208Y-129604800D01*
X144400212Y-129604800D01*
X144687528Y-129547649D01*
X145013345Y-129329945D01*
X145068298Y-129247702D01*
X148790065Y-125525935D01*
X149098000Y-125587188D01*
X149643082Y-125478764D01*
X150105180Y-125170000D01*
X150379580Y-124759331D01*
X150395941Y-124814761D01*
X150739974Y-125240450D01*
X151220723Y-125502080D01*
X151294930Y-125517040D01*
X151511000Y-125394540D01*
X151511000Y-123952000D01*
X151765000Y-123952000D01*
X151765000Y-125394540D01*
X151981070Y-125517040D01*
X152055277Y-125502080D01*
X152536026Y-125240450D01*
X152880059Y-124814761D01*
X152908000Y-124720097D01*
X152935941Y-124814761D01*
X153279974Y-125240450D01*
X153760723Y-125502080D01*
X153834930Y-125517040D01*
X154051000Y-125394540D01*
X154051000Y-123952000D01*
X151765000Y-123952000D01*
X151511000Y-123952000D01*
X151491000Y-123952000D01*
X151491000Y-123698000D01*
X151511000Y-123698000D01*
X151511000Y-122255460D01*
X151765000Y-122255460D01*
X151765000Y-123698000D01*
X154051000Y-123698000D01*
X154051000Y-122255460D01*
X153834930Y-122132960D01*
X153760723Y-122147920D01*
X153279974Y-122409550D01*
X152935941Y-122835239D01*
X152908000Y-122929903D01*
X152880059Y-122835239D01*
X152536026Y-122409550D01*
X152055277Y-122147920D01*
X151981070Y-122132960D01*
X151765000Y-122255460D01*
X151511000Y-122255460D01*
X151294930Y-122132960D01*
X151220723Y-122147920D01*
X150739974Y-122409550D01*
X150395941Y-122835239D01*
X150379580Y-122890669D01*
X150105179Y-122480000D01*
X149643081Y-122171236D01*
X149098000Y-122062812D01*
X148552918Y-122171236D01*
X148090820Y-122480001D01*
X147828000Y-122873339D01*
X147565179Y-122480000D01*
X147103081Y-122171236D01*
X146558000Y-122062812D01*
X146012918Y-122171236D01*
X145550820Y-122480001D01*
X145288000Y-122873339D01*
X145025179Y-122480000D01*
X144563081Y-122171236D01*
X144018000Y-122062812D01*
X143472918Y-122171236D01*
X143010820Y-122480001D01*
X142748000Y-122873339D01*
X142485179Y-122480000D01*
X142023081Y-122171236D01*
X141478000Y-122062812D01*
X140932918Y-122171236D01*
X140470820Y-122480001D01*
X140338162Y-122678537D01*
X140298157Y-122477415D01*
X140157809Y-122267371D01*
X139947765Y-122127023D01*
X139700000Y-122077740D01*
X138176000Y-122077740D01*
X137928235Y-122127023D01*
X137718191Y-122267371D01*
X137577843Y-122477415D01*
X137528560Y-122725180D01*
X137528560Y-124924820D01*
X137577843Y-125172585D01*
X137718191Y-125382629D01*
X137928235Y-125522977D01*
X138176000Y-125572260D01*
X139700000Y-125572260D01*
X139947765Y-125522977D01*
X140157809Y-125382629D01*
X140298157Y-125172585D01*
X140338162Y-124971463D01*
X140470821Y-125170000D01*
X140932919Y-125478764D01*
X141478000Y-125587188D01*
X142023082Y-125478764D01*
X142485180Y-125170000D01*
X142748000Y-124776662D01*
X143010821Y-125170000D01*
X143472919Y-125478764D01*
X144018000Y-125587188D01*
X144563082Y-125478764D01*
X145025180Y-125170000D01*
X145288000Y-124776662D01*
X145550821Y-125170000D01*
X146012919Y-125478764D01*
X146044879Y-125485121D01*
X143895200Y-127634800D01*
X137185208Y-127634800D01*
X137088200Y-127615504D01*
X136991192Y-127634800D01*
X136991188Y-127634800D01*
X136703872Y-127691951D01*
X136460297Y-127854702D01*
X136460295Y-127854704D01*
X136378055Y-127909655D01*
X136323104Y-127991895D01*
X132717003Y-131597997D01*
X132650123Y-131436533D01*
X132357320Y-131307285D01*
X131203605Y-132461000D01*
X131217748Y-132475143D01*
X131038143Y-132654748D01*
X131024000Y-132640605D01*
X131009858Y-132654748D01*
X130830253Y-132475143D01*
X130844395Y-132461000D01*
X129690680Y-131307285D01*
X129397877Y-131436533D01*
X129129612Y-132136806D01*
X129149750Y-132886435D01*
X129339818Y-133345300D01*
X128301300Y-133345300D01*
X127874717Y-132918717D01*
X127909000Y-132835950D01*
X127909000Y-132086050D01*
X127622026Y-131393233D01*
X127356473Y-131127680D01*
X129870285Y-131127680D01*
X131024000Y-132281395D01*
X132177715Y-131127680D01*
X132048467Y-130834877D01*
X131348194Y-130566612D01*
X130598565Y-130586750D01*
X129999533Y-130834877D01*
X129870285Y-131127680D01*
X127356473Y-131127680D01*
X127091767Y-130862974D01*
X126398950Y-130576000D01*
X125649050Y-130576000D01*
X124956233Y-130862974D01*
X124425974Y-131393233D01*
X124139000Y-132086050D01*
X122376000Y-132086050D01*
X122376000Y-124536565D01*
X122707026Y-125335734D01*
X123457266Y-126085974D01*
X124437501Y-126492000D01*
X125498499Y-126492000D01*
X126478734Y-126085974D01*
X127228974Y-125335734D01*
X127635000Y-124355499D01*
X127635000Y-123294501D01*
X127228974Y-122314266D01*
X126478734Y-121564026D01*
X126292776Y-121487000D01*
X127946076Y-121487000D01*
X128016000Y-121500909D01*
X128085924Y-121487000D01*
X128085926Y-121487000D01*
X128293028Y-121445805D01*
X128527881Y-121288881D01*
X128567494Y-121229596D01*
X129484599Y-120312492D01*
X129543881Y-120272881D01*
X129700805Y-120038028D01*
X129742000Y-119830926D01*
X129742000Y-119830925D01*
X129755909Y-119761000D01*
X129742000Y-119691076D01*
X129742000Y-106642070D01*
X133562960Y-106642070D01*
X133577920Y-106716277D01*
X133839550Y-107197026D01*
X134265239Y-107541059D01*
X134790180Y-107696000D01*
X135128000Y-107696000D01*
X135128000Y-106426000D01*
X135382000Y-106426000D01*
X135382000Y-107696000D01*
X135719820Y-107696000D01*
X136244761Y-107541059D01*
X136670450Y-107197026D01*
X136932080Y-106716277D01*
X136947040Y-106642070D01*
X136824540Y-106426000D01*
X135382000Y-106426000D01*
X135128000Y-106426000D01*
X133685460Y-106426000D01*
X133562960Y-106642070D01*
X129742000Y-106642070D01*
X129742000Y-99639000D01*
X133554064Y-103451064D01*
X133492812Y-103759000D01*
X133601236Y-104304082D01*
X133910000Y-104766180D01*
X134320669Y-105040580D01*
X134265239Y-105056941D01*
X133839550Y-105400974D01*
X133577920Y-105881723D01*
X133562960Y-105955930D01*
X133685460Y-106172000D01*
X135128000Y-106172000D01*
X135128000Y-106152000D01*
X135382000Y-106152000D01*
X135382000Y-106172000D01*
X136824540Y-106172000D01*
X136947040Y-105955930D01*
X136932080Y-105881723D01*
X136670450Y-105400974D01*
X136244761Y-105056941D01*
X136189331Y-105040580D01*
X136600000Y-104766180D01*
X136908764Y-104304082D01*
X137017188Y-103759000D01*
X136908764Y-103213918D01*
X136600000Y-102751820D01*
X136206662Y-102489000D01*
X136600000Y-102226180D01*
X136908764Y-101764082D01*
X137017188Y-101219000D01*
X136908764Y-100673918D01*
X136600000Y-100211820D01*
X136401463Y-100079162D01*
X136602585Y-100039157D01*
X136812629Y-99898809D01*
X136952977Y-99688765D01*
X137002260Y-99441000D01*
X137002260Y-97917000D01*
X136952977Y-97669235D01*
X136812629Y-97459191D01*
X136602585Y-97318843D01*
X136354820Y-97269560D01*
X134155180Y-97269560D01*
X133907415Y-97318843D01*
X133697371Y-97459191D01*
X133557023Y-97669235D01*
X133507740Y-97917000D01*
X133507740Y-98302940D01*
X133319000Y-98114200D01*
X133319000Y-76924820D01*
X133341180Y-76910000D01*
X133604000Y-76516662D01*
X133866821Y-76910000D01*
X134328919Y-77218764D01*
X134874000Y-77327188D01*
X135419082Y-77218764D01*
X135881180Y-76910000D01*
X136155580Y-76499331D01*
X136171941Y-76554761D01*
X136515974Y-76980450D01*
X136996723Y-77242080D01*
X137070930Y-77257040D01*
X137287000Y-77134540D01*
X137287000Y-75692000D01*
X137267000Y-75692000D01*
X137267000Y-75438000D01*
X137287000Y-75438000D01*
X137287000Y-75418000D01*
X137541000Y-75418000D01*
X137541000Y-75438000D01*
X137541000Y-75438000D01*
G37*
X137541000Y-75438000D02*
X137561000Y-75438000D01*
X137561000Y-75692000D01*
X137541000Y-75692000D01*
X137541000Y-77134540D01*
X137757070Y-77257040D01*
X137831277Y-77242080D01*
X138312026Y-76980450D01*
X138656059Y-76554761D01*
X138672420Y-76499331D01*
X138946821Y-76910000D01*
X139408919Y-77218764D01*
X139954000Y-77327188D01*
X140499082Y-77218764D01*
X140961180Y-76910000D01*
X141224000Y-76516662D01*
X141486821Y-76910000D01*
X141948919Y-77218764D01*
X142494000Y-77327188D01*
X143039082Y-77218764D01*
X143501180Y-76910000D01*
X143764000Y-76516662D01*
X144026821Y-76910000D01*
X144488919Y-77218764D01*
X145034000Y-77327188D01*
X145579082Y-77218764D01*
X146041180Y-76910000D01*
X146304000Y-76516662D01*
X146566821Y-76910000D01*
X147028919Y-77218764D01*
X147574000Y-77327188D01*
X148119082Y-77218764D01*
X148581180Y-76910000D01*
X148844000Y-76516662D01*
X149106821Y-76910000D01*
X149568919Y-77218764D01*
X150114000Y-77327188D01*
X150659082Y-77218764D01*
X151121180Y-76910000D01*
X151384000Y-76516662D01*
X151646821Y-76910000D01*
X152108919Y-77218764D01*
X152654000Y-77327188D01*
X153199082Y-77218764D01*
X153441201Y-77056985D01*
X153441201Y-77168287D01*
X153421904Y-77265300D01*
X153498351Y-77649627D01*
X153661102Y-77893202D01*
X153661105Y-77893205D01*
X153716056Y-77975445D01*
X153798296Y-78030396D01*
X157459000Y-81691100D01*
X157459001Y-122302146D01*
X157263081Y-122171236D01*
X156718000Y-122062812D01*
X156172918Y-122171236D01*
X155710820Y-122480001D01*
X155436420Y-122890670D01*
X155420059Y-122835239D01*
X155076026Y-122409550D01*
X154595277Y-122147920D01*
X154521070Y-122132960D01*
X154305000Y-122255460D01*
X154305000Y-123698000D01*
X154325000Y-123698000D01*
X154325000Y-123952000D01*
X154305000Y-123952000D01*
X154305000Y-125394540D01*
X154521070Y-125517040D01*
X154595277Y-125502080D01*
X155076026Y-125240450D01*
X155420059Y-124814761D01*
X155436420Y-124759331D01*
X155710821Y-125170000D01*
X156172919Y-125478764D01*
X156718000Y-125587188D01*
X157263082Y-125478764D01*
X157497951Y-125321829D01*
X157516151Y-125413327D01*
X157678902Y-125656902D01*
X157678905Y-125656905D01*
X157733856Y-125739145D01*
X157816096Y-125794096D01*
X164025283Y-132003283D01*
X163991000Y-132086050D01*
X163991000Y-132835950D01*
X164277974Y-133528767D01*
X164808233Y-134059026D01*
X165501050Y-134346000D01*
X166250950Y-134346000D01*
X166943767Y-134059026D01*
X167474026Y-133528767D01*
X167761000Y-132835950D01*
X167761000Y-132086050D01*
X167474026Y-131393233D01*
X166943767Y-130862974D01*
X166250950Y-130576000D01*
X165501050Y-130576000D01*
X165418283Y-130610283D01*
X163198800Y-128390800D01*
X165304800Y-128390800D01*
X168917283Y-132003283D01*
X168883000Y-132086050D01*
X168883000Y-132835950D01*
X169169974Y-133528767D01*
X169700233Y-134059026D01*
X170393050Y-134346000D01*
X171142950Y-134346000D01*
X171835767Y-134059026D01*
X172366026Y-133528767D01*
X172653000Y-132835950D01*
X172653000Y-132086050D01*
X172366026Y-131393233D01*
X171835767Y-130862974D01*
X171142950Y-130576000D01*
X170393050Y-130576000D01*
X170310283Y-130610283D01*
X166477897Y-126777897D01*
X166422945Y-126695655D01*
X166097128Y-126477951D01*
X165809812Y-126420800D01*
X165809808Y-126420800D01*
X165712800Y-126401504D01*
X165615792Y-126420800D01*
X163048900Y-126420800D01*
X162200360Y-125572260D01*
X162560000Y-125572260D01*
X162807765Y-125522977D01*
X163017809Y-125382629D01*
X163158157Y-125172585D01*
X163198162Y-124971463D01*
X163330821Y-125170000D01*
X163792919Y-125478764D01*
X164338000Y-125587188D01*
X164883082Y-125478764D01*
X165345180Y-125170000D01*
X165608000Y-124776662D01*
X165870821Y-125170000D01*
X166332919Y-125478764D01*
X166878000Y-125587188D01*
X167423082Y-125478764D01*
X167885180Y-125170000D01*
X168148000Y-124776662D01*
X168410821Y-125170000D01*
X168872919Y-125478764D01*
X169418000Y-125587188D01*
X169963082Y-125478764D01*
X170425180Y-125170000D01*
X170688000Y-124776662D01*
X170950821Y-125170000D01*
X171412919Y-125478764D01*
X171958000Y-125587188D01*
X172503082Y-125478764D01*
X172965180Y-125170000D01*
X173228000Y-124776662D01*
X173490821Y-125170000D01*
X173952919Y-125478764D01*
X174498000Y-125587188D01*
X174891001Y-125509015D01*
X174891000Y-130783956D01*
X174700233Y-130862974D01*
X174169974Y-131393233D01*
X173883000Y-132086050D01*
X173883000Y-132835950D01*
X174169974Y-133528767D01*
X174700233Y-134059026D01*
X175393050Y-134346000D01*
X176142950Y-134346000D01*
X176835767Y-134059026D01*
X177100473Y-133794320D01*
X179614285Y-133794320D01*
X179743533Y-134087123D01*
X180443806Y-134355388D01*
X181193435Y-134335250D01*
X181792467Y-134087123D01*
X181921715Y-133794320D01*
X180768000Y-132640605D01*
X179614285Y-133794320D01*
X177100473Y-133794320D01*
X177366026Y-133528767D01*
X177653000Y-132835950D01*
X177653000Y-132136806D01*
X178873612Y-132136806D01*
X178893750Y-132886435D01*
X179141877Y-133485467D01*
X179434680Y-133614715D01*
X180588395Y-132461000D01*
X180947605Y-132461000D01*
X182101320Y-133614715D01*
X182394123Y-133485467D01*
X182662388Y-132785194D01*
X182642250Y-132035565D01*
X182394123Y-131436533D01*
X182101320Y-131307285D01*
X180947605Y-132461000D01*
X180588395Y-132461000D01*
X179434680Y-131307285D01*
X179141877Y-131436533D01*
X178873612Y-132136806D01*
X177653000Y-132136806D01*
X177653000Y-132086050D01*
X177366026Y-131393233D01*
X177100473Y-131127680D01*
X179614285Y-131127680D01*
X180768000Y-132281395D01*
X181921715Y-131127680D01*
X181792467Y-130834877D01*
X181092194Y-130566612D01*
X180342565Y-130586750D01*
X179743533Y-130834877D01*
X179614285Y-131127680D01*
X177100473Y-131127680D01*
X176861000Y-130888207D01*
X176861000Y-121599208D01*
X176880296Y-121502200D01*
X176862354Y-121412000D01*
X177568499Y-121412000D01*
X178548734Y-121005974D01*
X179122001Y-120432707D01*
X179122001Y-125025071D01*
X179108091Y-125095000D01*
X179147280Y-125292012D01*
X179163196Y-125372028D01*
X179320120Y-125606881D01*
X179379401Y-125646492D01*
X180042509Y-126309601D01*
X180082119Y-126368881D01*
X180141398Y-126408490D01*
X180141399Y-126408491D01*
X180316972Y-126525805D01*
X180594000Y-126580909D01*
X180663926Y-126567000D01*
X183347909Y-126567000D01*
X183694000Y-126913091D01*
X183694001Y-137246908D01*
X183093910Y-137847000D01*
X123484091Y-137847000D01*
X122376000Y-136738910D01*
X122376000Y-132086050D01*
X124139000Y-132086050D01*
X124139000Y-132835950D01*
X124425974Y-133528767D01*
X124956233Y-134059026D01*
X125649050Y-134346000D01*
X126398950Y-134346000D01*
X126481717Y-134311717D01*
X127128202Y-134958202D01*
X127183155Y-135040445D01*
X127508972Y-135258149D01*
X127796288Y-135315300D01*
X127796292Y-135315300D01*
X127893299Y-135334596D01*
X127990306Y-135315300D01*
X131703392Y-135315300D01*
X131800400Y-135334596D01*
X131897408Y-135315300D01*
X131897412Y-135315300D01*
X132184728Y-135258149D01*
X132510545Y-135040445D01*
X132565498Y-134958202D01*
X133824205Y-133699496D01*
X133906445Y-133644545D01*
X133961396Y-133562305D01*
X133961398Y-133562303D01*
X134124149Y-133318728D01*
X134145828Y-133209739D01*
X134277974Y-133528767D01*
X134808233Y-134059026D01*
X135501050Y-134346000D01*
X136250950Y-134346000D01*
X136943767Y-134059026D01*
X137474026Y-133528767D01*
X137761000Y-132835950D01*
X137761000Y-132086050D01*
X138991000Y-132086050D01*
X138991000Y-132835950D01*
X139277974Y-133528767D01*
X139808233Y-134059026D01*
X140501050Y-134346000D01*
X141250950Y-134346000D01*
X141943767Y-134059026D01*
X142474026Y-133528767D01*
X142761000Y-132835950D01*
X142761000Y-132086050D01*
X143991000Y-132086050D01*
X143991000Y-132835950D01*
X144277974Y-133528767D01*
X144808233Y-134059026D01*
X145501050Y-134346000D01*
X146250950Y-134346000D01*
X146943767Y-134059026D01*
X147474026Y-133528767D01*
X147761000Y-132835950D01*
X147761000Y-132086050D01*
X148991000Y-132086050D01*
X148991000Y-132835950D01*
X149277974Y-133528767D01*
X149808233Y-134059026D01*
X150501050Y-134346000D01*
X151250950Y-134346000D01*
X151943767Y-134059026D01*
X152474026Y-133528767D01*
X152761000Y-132835950D01*
X152761000Y-132086050D01*
X153991000Y-132086050D01*
X153991000Y-132835950D01*
X154277974Y-133528767D01*
X154808233Y-134059026D01*
X155501050Y-134346000D01*
X156250950Y-134346000D01*
X156943767Y-134059026D01*
X157474026Y-133528767D01*
X157761000Y-132835950D01*
X157761000Y-132086050D01*
X158991000Y-132086050D01*
X158991000Y-132835950D01*
X159277974Y-133528767D01*
X159808233Y-134059026D01*
X160501050Y-134346000D01*
X161250950Y-134346000D01*
X161943767Y-134059026D01*
X162474026Y-133528767D01*
X162761000Y-132835950D01*
X162761000Y-132086050D01*
X162474026Y-131393233D01*
X161943767Y-130862974D01*
X161250950Y-130576000D01*
X160501050Y-130576000D01*
X159808233Y-130862974D01*
X159277974Y-131393233D01*
X158991000Y-132086050D01*
X157761000Y-132086050D01*
X157474026Y-131393233D01*
X156943767Y-130862974D01*
X156250950Y-130576000D01*
X155501050Y-130576000D01*
X154808233Y-130862974D01*
X154277974Y-131393233D01*
X153991000Y-132086050D01*
X152761000Y-132086050D01*
X152474026Y-131393233D01*
X151943767Y-130862974D01*
X151250950Y-130576000D01*
X150501050Y-130576000D01*
X149808233Y-130862974D01*
X149277974Y-131393233D01*
X148991000Y-132086050D01*
X147761000Y-132086050D01*
X147474026Y-131393233D01*
X146943767Y-130862974D01*
X146250950Y-130576000D01*
X145501050Y-130576000D01*
X144808233Y-130862974D01*
X144277974Y-131393233D01*
X143991000Y-132086050D01*
X142761000Y-132086050D01*
X142474026Y-131393233D01*
X141943767Y-130862974D01*
X141250950Y-130576000D01*
X140501050Y-130576000D01*
X139808233Y-130862974D01*
X139277974Y-131393233D01*
X138991000Y-132086050D01*
X137761000Y-132086050D01*
X137474026Y-131393233D01*
X136943767Y-130862974D01*
X136444733Y-130656268D01*
X137496201Y-129604800D01*
X144206192Y-129604800D01*
X144303200Y-129624096D01*
X144400208Y-129604800D01*
X144400212Y-129604800D01*
X144687528Y-129547649D01*
X145013345Y-129329945D01*
X145068298Y-129247702D01*
X148790065Y-125525935D01*
X149098000Y-125587188D01*
X149643082Y-125478764D01*
X150105180Y-125170000D01*
X150379580Y-124759331D01*
X150395941Y-124814761D01*
X150739974Y-125240450D01*
X151220723Y-125502080D01*
X151294930Y-125517040D01*
X151511000Y-125394540D01*
X151511000Y-123952000D01*
X151765000Y-123952000D01*
X151765000Y-125394540D01*
X151981070Y-125517040D01*
X152055277Y-125502080D01*
X152536026Y-125240450D01*
X152880059Y-124814761D01*
X152908000Y-124720097D01*
X152935941Y-124814761D01*
X153279974Y-125240450D01*
X153760723Y-125502080D01*
X153834930Y-125517040D01*
X154051000Y-125394540D01*
X154051000Y-123952000D01*
X151765000Y-123952000D01*
X151511000Y-123952000D01*
X151491000Y-123952000D01*
X151491000Y-123698000D01*
X151511000Y-123698000D01*
X151511000Y-122255460D01*
X151765000Y-122255460D01*
X151765000Y-123698000D01*
X154051000Y-123698000D01*
X154051000Y-122255460D01*
X153834930Y-122132960D01*
X153760723Y-122147920D01*
X153279974Y-122409550D01*
X152935941Y-122835239D01*
X152908000Y-122929903D01*
X152880059Y-122835239D01*
X152536026Y-122409550D01*
X152055277Y-122147920D01*
X151981070Y-122132960D01*
X151765000Y-122255460D01*
X151511000Y-122255460D01*
X151294930Y-122132960D01*
X151220723Y-122147920D01*
X150739974Y-122409550D01*
X150395941Y-122835239D01*
X150379580Y-122890669D01*
X150105179Y-122480000D01*
X149643081Y-122171236D01*
X149098000Y-122062812D01*
X148552918Y-122171236D01*
X148090820Y-122480001D01*
X147828000Y-122873339D01*
X147565179Y-122480000D01*
X147103081Y-122171236D01*
X146558000Y-122062812D01*
X146012918Y-122171236D01*
X145550820Y-122480001D01*
X145288000Y-122873339D01*
X145025179Y-122480000D01*
X144563081Y-122171236D01*
X144018000Y-122062812D01*
X143472918Y-122171236D01*
X143010820Y-122480001D01*
X142748000Y-122873339D01*
X142485179Y-122480000D01*
X142023081Y-122171236D01*
X141478000Y-122062812D01*
X140932918Y-122171236D01*
X140470820Y-122480001D01*
X140338162Y-122678537D01*
X140298157Y-122477415D01*
X140157809Y-122267371D01*
X139947765Y-122127023D01*
X139700000Y-122077740D01*
X138176000Y-122077740D01*
X137928235Y-122127023D01*
X137718191Y-122267371D01*
X137577843Y-122477415D01*
X137528560Y-122725180D01*
X137528560Y-124924820D01*
X137577843Y-125172585D01*
X137718191Y-125382629D01*
X137928235Y-125522977D01*
X138176000Y-125572260D01*
X139700000Y-125572260D01*
X139947765Y-125522977D01*
X140157809Y-125382629D01*
X140298157Y-125172585D01*
X140338162Y-124971463D01*
X140470821Y-125170000D01*
X140932919Y-125478764D01*
X141478000Y-125587188D01*
X142023082Y-125478764D01*
X142485180Y-125170000D01*
X142748000Y-124776662D01*
X143010821Y-125170000D01*
X143472919Y-125478764D01*
X144018000Y-125587188D01*
X144563082Y-125478764D01*
X145025180Y-125170000D01*
X145288000Y-124776662D01*
X145550821Y-125170000D01*
X146012919Y-125478764D01*
X146044879Y-125485121D01*
X143895200Y-127634800D01*
X137185208Y-127634800D01*
X137088200Y-127615504D01*
X136991192Y-127634800D01*
X136991188Y-127634800D01*
X136703872Y-127691951D01*
X136460297Y-127854702D01*
X136460295Y-127854704D01*
X136378055Y-127909655D01*
X136323104Y-127991895D01*
X132717003Y-131597997D01*
X132650123Y-131436533D01*
X132357320Y-131307285D01*
X131203605Y-132461000D01*
X131217748Y-132475143D01*
X131038143Y-132654748D01*
X131024000Y-132640605D01*
X131009858Y-132654748D01*
X130830253Y-132475143D01*
X130844395Y-132461000D01*
X129690680Y-131307285D01*
X129397877Y-131436533D01*
X129129612Y-132136806D01*
X129149750Y-132886435D01*
X129339818Y-133345300D01*
X128301300Y-133345300D01*
X127874717Y-132918717D01*
X127909000Y-132835950D01*
X127909000Y-132086050D01*
X127622026Y-131393233D01*
X127356473Y-131127680D01*
X129870285Y-131127680D01*
X131024000Y-132281395D01*
X132177715Y-131127680D01*
X132048467Y-130834877D01*
X131348194Y-130566612D01*
X130598565Y-130586750D01*
X129999533Y-130834877D01*
X129870285Y-131127680D01*
X127356473Y-131127680D01*
X127091767Y-130862974D01*
X126398950Y-130576000D01*
X125649050Y-130576000D01*
X124956233Y-130862974D01*
X124425974Y-131393233D01*
X124139000Y-132086050D01*
X122376000Y-132086050D01*
X122376000Y-124536565D01*
X122707026Y-125335734D01*
X123457266Y-126085974D01*
X124437501Y-126492000D01*
X125498499Y-126492000D01*
X126478734Y-126085974D01*
X127228974Y-125335734D01*
X127635000Y-124355499D01*
X127635000Y-123294501D01*
X127228974Y-122314266D01*
X126478734Y-121564026D01*
X126292776Y-121487000D01*
X127946076Y-121487000D01*
X128016000Y-121500909D01*
X128085924Y-121487000D01*
X128085926Y-121487000D01*
X128293028Y-121445805D01*
X128527881Y-121288881D01*
X128567494Y-121229596D01*
X129484599Y-120312492D01*
X129543881Y-120272881D01*
X129700805Y-120038028D01*
X129742000Y-119830926D01*
X129742000Y-119830925D01*
X129755909Y-119761000D01*
X129742000Y-119691076D01*
X129742000Y-106642070D01*
X133562960Y-106642070D01*
X133577920Y-106716277D01*
X133839550Y-107197026D01*
X134265239Y-107541059D01*
X134790180Y-107696000D01*
X135128000Y-107696000D01*
X135128000Y-106426000D01*
X135382000Y-106426000D01*
X135382000Y-107696000D01*
X135719820Y-107696000D01*
X136244761Y-107541059D01*
X136670450Y-107197026D01*
X136932080Y-106716277D01*
X136947040Y-106642070D01*
X136824540Y-106426000D01*
X135382000Y-106426000D01*
X135128000Y-106426000D01*
X133685460Y-106426000D01*
X133562960Y-106642070D01*
X129742000Y-106642070D01*
X129742000Y-99639000D01*
X133554064Y-103451064D01*
X133492812Y-103759000D01*
X133601236Y-104304082D01*
X133910000Y-104766180D01*
X134320669Y-105040580D01*
X134265239Y-105056941D01*
X133839550Y-105400974D01*
X133577920Y-105881723D01*
X133562960Y-105955930D01*
X133685460Y-106172000D01*
X135128000Y-106172000D01*
X135128000Y-106152000D01*
X135382000Y-106152000D01*
X135382000Y-106172000D01*
X136824540Y-106172000D01*
X136947040Y-105955930D01*
X136932080Y-105881723D01*
X136670450Y-105400974D01*
X136244761Y-105056941D01*
X136189331Y-105040580D01*
X136600000Y-104766180D01*
X136908764Y-104304082D01*
X137017188Y-103759000D01*
X136908764Y-103213918D01*
X136600000Y-102751820D01*
X136206662Y-102489000D01*
X136600000Y-102226180D01*
X136908764Y-101764082D01*
X137017188Y-101219000D01*
X136908764Y-100673918D01*
X136600000Y-100211820D01*
X136401463Y-100079162D01*
X136602585Y-100039157D01*
X136812629Y-99898809D01*
X136952977Y-99688765D01*
X137002260Y-99441000D01*
X137002260Y-97917000D01*
X136952977Y-97669235D01*
X136812629Y-97459191D01*
X136602585Y-97318843D01*
X136354820Y-97269560D01*
X134155180Y-97269560D01*
X133907415Y-97318843D01*
X133697371Y-97459191D01*
X133557023Y-97669235D01*
X133507740Y-97917000D01*
X133507740Y-98302940D01*
X133319000Y-98114200D01*
X133319000Y-76924820D01*
X133341180Y-76910000D01*
X133604000Y-76516662D01*
X133866821Y-76910000D01*
X134328919Y-77218764D01*
X134874000Y-77327188D01*
X135419082Y-77218764D01*
X135881180Y-76910000D01*
X136155580Y-76499331D01*
X136171941Y-76554761D01*
X136515974Y-76980450D01*
X136996723Y-77242080D01*
X137070930Y-77257040D01*
X137287000Y-77134540D01*
X137287000Y-75692000D01*
X137267000Y-75692000D01*
X137267000Y-75438000D01*
X137287000Y-75438000D01*
X137287000Y-75418000D01*
X137541000Y-75418000D01*
X137541000Y-75438000D01*
G36*
X173490821Y-76910000D02*
X173513001Y-76924820D01*
X173513001Y-77020218D01*
X173477751Y-77072973D01*
X173401304Y-77457300D01*
X173420601Y-77554313D01*
X173420601Y-96234411D01*
X173164320Y-96121285D01*
X172010605Y-97275000D01*
X173164320Y-98428715D01*
X173420601Y-98315589D01*
X173420600Y-101198807D01*
X172898767Y-100676974D01*
X172205950Y-100390000D01*
X171456050Y-100390000D01*
X170763233Y-100676974D01*
X170232974Y-101207233D01*
X169946000Y-101900050D01*
X169946000Y-102649950D01*
X170232974Y-103342767D01*
X170763233Y-103873026D01*
X171456050Y-104160000D01*
X172205950Y-104160000D01*
X172898767Y-103873026D01*
X173420600Y-103351193D01*
X173420600Y-106198807D01*
X172898767Y-105676974D01*
X172205950Y-105390000D01*
X171456050Y-105390000D01*
X170763233Y-105676974D01*
X170232974Y-106207233D01*
X169946000Y-106900050D01*
X169946000Y-107649950D01*
X170232974Y-108342767D01*
X170763233Y-108873026D01*
X171456050Y-109160000D01*
X172205950Y-109160000D01*
X172898767Y-108873026D01*
X173420600Y-108351193D01*
X173420600Y-111198807D01*
X172898767Y-110676974D01*
X172205950Y-110390000D01*
X171456050Y-110390000D01*
X170763233Y-110676974D01*
X170232974Y-111207233D01*
X169946000Y-111900050D01*
X169946000Y-112649950D01*
X170232974Y-113342767D01*
X170763233Y-113873026D01*
X171456050Y-114160000D01*
X172205950Y-114160000D01*
X172898767Y-113873026D01*
X173420600Y-113351193D01*
X173420600Y-119934792D01*
X173401304Y-120031800D01*
X173420600Y-120128808D01*
X173420600Y-120128811D01*
X173459505Y-120324400D01*
X173477751Y-120416127D01*
X173583473Y-120574351D01*
X173695455Y-120741945D01*
X173777698Y-120796898D01*
X174891001Y-121910202D01*
X174891001Y-122140985D01*
X174498000Y-122062812D01*
X173952918Y-122171236D01*
X173490820Y-122480001D01*
X173228000Y-122873339D01*
X172965179Y-122480000D01*
X172503081Y-122171236D01*
X171958000Y-122062812D01*
X171412918Y-122171236D01*
X170950820Y-122480001D01*
X170688000Y-122873339D01*
X170425179Y-122480000D01*
X169963081Y-122171236D01*
X169418000Y-122062812D01*
X168872918Y-122171236D01*
X168410820Y-122480001D01*
X168148000Y-122873339D01*
X167885179Y-122480000D01*
X167423081Y-122171236D01*
X166878000Y-122062812D01*
X166332918Y-122171236D01*
X165870820Y-122480001D01*
X165608000Y-122873339D01*
X165345179Y-122480000D01*
X164883081Y-122171236D01*
X164338000Y-122062812D01*
X163792918Y-122171236D01*
X163330820Y-122480001D01*
X163198162Y-122678537D01*
X163158157Y-122477415D01*
X163017809Y-122267371D01*
X162807765Y-122127023D01*
X162560000Y-122077740D01*
X161415100Y-122077740D01*
X161415100Y-98608320D01*
X170677285Y-98608320D01*
X170806533Y-98901123D01*
X171506806Y-99169388D01*
X172256435Y-99149250D01*
X172855467Y-98901123D01*
X172984715Y-98608320D01*
X171831000Y-97454605D01*
X170677285Y-98608320D01*
X161415100Y-98608320D01*
X161415100Y-96950806D01*
X169936612Y-96950806D01*
X169956750Y-97700435D01*
X170204877Y-98299467D01*
X170497680Y-98428715D01*
X171651395Y-97275000D01*
X170497680Y-96121285D01*
X170204877Y-96250533D01*
X169936612Y-96950806D01*
X161415100Y-96950806D01*
X161415100Y-95941680D01*
X170677285Y-95941680D01*
X171831000Y-97095395D01*
X172984715Y-95941680D01*
X172855467Y-95648877D01*
X172155194Y-95380612D01*
X171405565Y-95400750D01*
X170806533Y-95648877D01*
X170677285Y-95941680D01*
X161415100Y-95941680D01*
X161415100Y-87500900D01*
X171650065Y-77265936D01*
X171958000Y-77327188D01*
X172503082Y-77218764D01*
X172965180Y-76910000D01*
X173228000Y-76516662D01*
X173490821Y-76910000D01*
X173490821Y-76910000D01*
G37*
X173490821Y-76910000D02*
X173513001Y-76924820D01*
X173513001Y-77020218D01*
X173477751Y-77072973D01*
X173401304Y-77457300D01*
X173420601Y-77554313D01*
X173420601Y-96234411D01*
X173164320Y-96121285D01*
X172010605Y-97275000D01*
X173164320Y-98428715D01*
X173420601Y-98315589D01*
X173420600Y-101198807D01*
X172898767Y-100676974D01*
X172205950Y-100390000D01*
X171456050Y-100390000D01*
X170763233Y-100676974D01*
X170232974Y-101207233D01*
X169946000Y-101900050D01*
X169946000Y-102649950D01*
X170232974Y-103342767D01*
X170763233Y-103873026D01*
X171456050Y-104160000D01*
X172205950Y-104160000D01*
X172898767Y-103873026D01*
X173420600Y-103351193D01*
X173420600Y-106198807D01*
X172898767Y-105676974D01*
X172205950Y-105390000D01*
X171456050Y-105390000D01*
X170763233Y-105676974D01*
X170232974Y-106207233D01*
X169946000Y-106900050D01*
X169946000Y-107649950D01*
X170232974Y-108342767D01*
X170763233Y-108873026D01*
X171456050Y-109160000D01*
X172205950Y-109160000D01*
X172898767Y-108873026D01*
X173420600Y-108351193D01*
X173420600Y-111198807D01*
X172898767Y-110676974D01*
X172205950Y-110390000D01*
X171456050Y-110390000D01*
X170763233Y-110676974D01*
X170232974Y-111207233D01*
X169946000Y-111900050D01*
X169946000Y-112649950D01*
X170232974Y-113342767D01*
X170763233Y-113873026D01*
X171456050Y-114160000D01*
X172205950Y-114160000D01*
X172898767Y-113873026D01*
X173420600Y-113351193D01*
X173420600Y-119934792D01*
X173401304Y-120031800D01*
X173420600Y-120128808D01*
X173420600Y-120128811D01*
X173459505Y-120324400D01*
X173477751Y-120416127D01*
X173583473Y-120574351D01*
X173695455Y-120741945D01*
X173777698Y-120796898D01*
X174891001Y-121910202D01*
X174891001Y-122140985D01*
X174498000Y-122062812D01*
X173952918Y-122171236D01*
X173490820Y-122480001D01*
X173228000Y-122873339D01*
X172965179Y-122480000D01*
X172503081Y-122171236D01*
X171958000Y-122062812D01*
X171412918Y-122171236D01*
X170950820Y-122480001D01*
X170688000Y-122873339D01*
X170425179Y-122480000D01*
X169963081Y-122171236D01*
X169418000Y-122062812D01*
X168872918Y-122171236D01*
X168410820Y-122480001D01*
X168148000Y-122873339D01*
X167885179Y-122480000D01*
X167423081Y-122171236D01*
X166878000Y-122062812D01*
X166332918Y-122171236D01*
X165870820Y-122480001D01*
X165608000Y-122873339D01*
X165345179Y-122480000D01*
X164883081Y-122171236D01*
X164338000Y-122062812D01*
X163792918Y-122171236D01*
X163330820Y-122480001D01*
X163198162Y-122678537D01*
X163158157Y-122477415D01*
X163017809Y-122267371D01*
X162807765Y-122127023D01*
X162560000Y-122077740D01*
X161415100Y-122077740D01*
X161415100Y-98608320D01*
X170677285Y-98608320D01*
X170806533Y-98901123D01*
X171506806Y-99169388D01*
X172256435Y-99149250D01*
X172855467Y-98901123D01*
X172984715Y-98608320D01*
X171831000Y-97454605D01*
X170677285Y-98608320D01*
X161415100Y-98608320D01*
X161415100Y-96950806D01*
X169936612Y-96950806D01*
X169956750Y-97700435D01*
X170204877Y-98299467D01*
X170497680Y-98428715D01*
X171651395Y-97275000D01*
X170497680Y-96121285D01*
X170204877Y-96250533D01*
X169936612Y-96950806D01*
X161415100Y-96950806D01*
X161415100Y-95941680D01*
X170677285Y-95941680D01*
X171831000Y-97095395D01*
X172984715Y-95941680D01*
X172855467Y-95648877D01*
X172155194Y-95380612D01*
X171405565Y-95400750D01*
X170806533Y-95648877D01*
X170677285Y-95941680D01*
X161415100Y-95941680D01*
X161415100Y-87500900D01*
X171650065Y-77265936D01*
X171958000Y-77327188D01*
X172503082Y-77218764D01*
X172965180Y-76910000D01*
X173228000Y-76516662D01*
X173490821Y-76910000D01*
G04 #@! TD*
M02*
