M48
;DRILL file {KiCad (5.0.1)-3} date 12/04/2019 12:39:01
;FORMAT={-:-/ absolute / metric / decimal}
FMAT,2
METRIC,TZ
T1C0.400
T2C1.001
T3C1.300
T4C3.048
%
G90
G05
M71
T1
X159.437Y-122.458
T2
X138.938Y-123.825
X141.478Y-123.825
X144.018Y-123.825
X146.558Y-123.825
X149.098Y-123.825
X151.638Y-123.825
X154.178Y-123.825
X156.718Y-123.825
X161.798Y-123.825
X164.338Y-123.825
X166.878Y-123.825
X169.418Y-123.825
X171.958Y-123.825
X174.498Y-123.825
X135.255Y-98.679
X135.255Y-101.219
X135.255Y-103.759
X135.255Y-106.299
X156.718Y-75.565
X159.258Y-75.565
X161.798Y-75.565
X164.338Y-75.565
X166.878Y-75.565
X169.418Y-75.565
X171.958Y-75.565
X174.498Y-75.565
X129.794Y-75.565
X132.334Y-75.565
X134.874Y-75.565
X137.414Y-75.565
X139.954Y-75.565
X142.494Y-75.565
X145.034Y-75.565
X147.574Y-75.565
X150.114Y-75.565
X152.654Y-75.565
T3
X126.024Y-132.461
X131.024Y-132.461
X170.768Y-132.461
X175.768Y-132.461
X180.768Y-132.461
X135.876Y-132.461
X140.876Y-132.461
X145.876Y-132.461
X150.876Y-132.461
X155.876Y-132.461
X160.876Y-132.461
X165.876Y-132.461
X171.831Y-97.275
X171.831Y-102.275
X171.831Y-107.275
X171.831Y-112.275
T4
X126.238Y-75.565
X124.968Y-123.825
X177.038Y-118.745
X177.038Y-90.805
T0
M30
