G04 #@! TF.GenerationSoftware,KiCad,Pcbnew,(5.0.1)-3*
G04 #@! TF.CreationDate,2019-04-12T12:39:32-05:00*
G04 #@! TF.ProjectId,Arduino_As_Uno,41726475696E6F5F41735F556E6F2E6B,rev?*
G04 #@! TF.SameCoordinates,Original*
G04 #@! TF.FileFunction,Profile,NP*
%FSLAX46Y46*%
G04 Gerber Fmt 4.6, Leading zero omitted, Abs format (unit mm)*
G04 Created by KiCad (PCBNEW (5.0.1)-3) date 12/04/2019 12:39:32*
%MOMM*%
%LPD*%
G01*
G04 APERTURE LIST*
%ADD10C,0.150000*%
G04 APERTURE END LIST*
D10*
X179832000Y-88011000D02*
X179832000Y-125095000D01*
X178943000Y-87122000D02*
X179832000Y-88011000D01*
X177419000Y-87122000D02*
X178943000Y-87122000D01*
X176530000Y-86233000D02*
X177419000Y-87122000D01*
X176530000Y-74041000D02*
X176530000Y-86233000D01*
X128016000Y-120777000D02*
X123190000Y-120777000D01*
X129032000Y-119761000D02*
X128016000Y-120777000D01*
X129032000Y-79375000D02*
X129032000Y-119761000D01*
X128270000Y-78613000D02*
X129032000Y-79375000D01*
X123444000Y-77343000D02*
X123444000Y-74041000D01*
X124714000Y-78613000D02*
X123444000Y-77343000D01*
X128270000Y-78613000D02*
X124714000Y-78613000D01*
X180594000Y-125857000D02*
X179832000Y-125095000D01*
X183642000Y-125857000D02*
X180594000Y-125857000D01*
X183388000Y-138557000D02*
X175768000Y-138557000D01*
X184404000Y-137541000D02*
X183388000Y-138557000D01*
X184404000Y-126619000D02*
X184404000Y-137541000D01*
X183642000Y-125857000D02*
X184404000Y-126619000D01*
X175514000Y-73025000D02*
X176530000Y-74041000D01*
X175768000Y-138557000D02*
X123190000Y-138557000D01*
X123190000Y-138557000D02*
X121666000Y-137033000D01*
X124460000Y-73025000D02*
X175514000Y-73025000D01*
X123444000Y-74041000D02*
X124460000Y-73025000D01*
X121666000Y-137033000D02*
X121666000Y-122301000D01*
X121666000Y-122301000D02*
X123190000Y-120777000D01*
M02*
