G04 #@! TF.GenerationSoftware,KiCad,Pcbnew,(5.0.1)-3*
G04 #@! TF.CreationDate,2019-04-12T12:39:31-05:00*
G04 #@! TF.ProjectId,Arduino_As_Uno,41726475696E6F5F41735F556E6F2E6B,rev?*
G04 #@! TF.SameCoordinates,Original*
G04 #@! TF.FileFunction,Copper,L2,Bot,Signal*
G04 #@! TF.FilePolarity,Positive*
%FSLAX46Y46*%
G04 Gerber Fmt 4.6, Leading zero omitted, Abs format (unit mm)*
G04 Created by KiCad (PCBNEW (5.0.1)-3) date 12/04/2019 12:39:31*
%MOMM*%
%LPD*%
G01*
G04 APERTURE LIST*
G04 #@! TA.AperFunction,ComponentPad*
%ADD10C,4.064000*%
G04 #@! TD*
G04 #@! TA.AperFunction,ComponentPad*
%ADD11C,2.500000*%
G04 #@! TD*
G04 #@! TA.AperFunction,ComponentPad*
%ADD12R,1.524000X2.199640*%
G04 #@! TD*
G04 #@! TA.AperFunction,ComponentPad*
%ADD13O,1.524000X2.199640*%
G04 #@! TD*
G04 #@! TA.AperFunction,ComponentPad*
%ADD14R,2.199640X1.524000*%
G04 #@! TD*
G04 #@! TA.AperFunction,ComponentPad*
%ADD15O,2.199640X1.524000*%
G04 #@! TD*
G04 #@! TA.AperFunction,ViaPad*
%ADD16C,0.600000*%
G04 #@! TD*
G04 #@! TA.AperFunction,Conductor*
%ADD17C,0.700000*%
G04 #@! TD*
G04 #@! TA.AperFunction,Conductor*
%ADD18C,0.254000*%
G04 #@! TD*
G04 APERTURE END LIST*
D10*
G04 #@! TO.P,P8,1*
G04 #@! TO.N,N/C*
X177038000Y-90805000D03*
G04 #@! TD*
G04 #@! TO.P,P6,1*
G04 #@! TO.N,N/C*
X177038000Y-118745000D03*
G04 #@! TD*
D11*
G04 #@! TO.P,P10,7*
G04 #@! TO.N,/AREF*
X165876000Y-132461000D03*
G04 #@! TO.P,P10,6*
G04 #@! TO.N,/A1*
X160876000Y-132461000D03*
G04 #@! TO.P,P10,5*
G04 #@! TO.N,/A0*
X155876000Y-132461000D03*
G04 #@! TO.P,P10,4*
G04 #@! TO.N,/4*
X150876000Y-132461000D03*
G04 #@! TO.P,P10,3*
G04 #@! TO.N,/5(\002A\002A)*
X145876000Y-132461000D03*
G04 #@! TO.P,P10,1*
G04 #@! TO.N,/7*
X135876000Y-132461000D03*
G04 #@! TO.P,P10,2*
G04 #@! TO.N,/6(\002A\002A)*
X140876000Y-132461000D03*
G04 #@! TD*
D10*
G04 #@! TO.P,P5,1*
G04 #@! TO.N,N/C*
X124968000Y-123825000D03*
G04 #@! TD*
G04 #@! TO.P,P7,1*
G04 #@! TO.N,N/C*
X126238000Y-75565000D03*
G04 #@! TD*
D11*
G04 #@! TO.P,P9,4*
G04 #@! TO.N,GND*
X171831000Y-97275000D03*
G04 #@! TO.P,P9,3*
G04 #@! TO.N,/(SCL)*
X171831000Y-102275000D03*
G04 #@! TO.P,P9,1*
G04 #@! TO.N,+5V*
X171831000Y-112275000D03*
G04 #@! TO.P,P9,2*
G04 #@! TO.N,/(SDA)*
X171831000Y-107275000D03*
G04 #@! TD*
G04 #@! TO.P,P11,1*
G04 #@! TO.N,+5V*
X126024000Y-132461000D03*
G04 #@! TO.P,P11,2*
G04 #@! TO.N,GND*
X131024000Y-132461000D03*
G04 #@! TD*
D12*
G04 #@! TO.P,P3,1*
G04 #@! TO.N,/(SCL)*
X129794000Y-75565000D03*
D13*
G04 #@! TO.P,P3,2*
G04 #@! TO.N,/(SDA)*
X132334000Y-75565000D03*
G04 #@! TO.P,P3,3*
G04 #@! TO.N,/AREF*
X134874000Y-75565000D03*
G04 #@! TO.P,P3,4*
G04 #@! TO.N,GND*
X137414000Y-75565000D03*
G04 #@! TO.P,P3,5*
G04 #@! TO.N,N/C*
X139954000Y-75565000D03*
G04 #@! TO.P,P3,6*
X142494000Y-75565000D03*
G04 #@! TO.P,P3,7*
X145034000Y-75565000D03*
G04 #@! TO.P,P3,8*
X147574000Y-75565000D03*
G04 #@! TO.P,P3,9*
X150114000Y-75565000D03*
G04 #@! TO.P,P3,10*
X152654000Y-75565000D03*
G04 #@! TD*
D12*
G04 #@! TO.P,P1,1*
G04 #@! TO.N,N/C*
X138938000Y-123825000D03*
D13*
G04 #@! TO.P,P1,2*
X141478000Y-123825000D03*
G04 #@! TO.P,P1,3*
X144018000Y-123825000D03*
G04 #@! TO.P,P1,4*
X146558000Y-123825000D03*
G04 #@! TO.P,P1,5*
G04 #@! TO.N,+5V*
X149098000Y-123825000D03*
G04 #@! TO.P,P1,6*
G04 #@! TO.N,GND*
X151638000Y-123825000D03*
G04 #@! TO.P,P1,7*
X154178000Y-123825000D03*
G04 #@! TO.P,P1,8*
G04 #@! TO.N,N/C*
X156718000Y-123825000D03*
G04 #@! TD*
D12*
G04 #@! TO.P,P2,1*
G04 #@! TO.N,/A0*
X161798000Y-123825000D03*
D13*
G04 #@! TO.P,P2,2*
G04 #@! TO.N,/A1*
X164338000Y-123825000D03*
G04 #@! TO.P,P2,3*
G04 #@! TO.N,N/C*
X166878000Y-123825000D03*
G04 #@! TO.P,P2,4*
X169418000Y-123825000D03*
G04 #@! TO.P,P2,5*
X171958000Y-123825000D03*
G04 #@! TO.P,P2,6*
X174498000Y-123825000D03*
G04 #@! TD*
D12*
G04 #@! TO.P,P4,1*
G04 #@! TO.N,/7*
X156718000Y-75565000D03*
D13*
G04 #@! TO.P,P4,2*
G04 #@! TO.N,/6(\002A\002A)*
X159258000Y-75565000D03*
G04 #@! TO.P,P4,3*
G04 #@! TO.N,/5(\002A\002A)*
X161798000Y-75565000D03*
G04 #@! TO.P,P4,4*
G04 #@! TO.N,/4*
X164338000Y-75565000D03*
G04 #@! TO.P,P4,5*
G04 #@! TO.N,N/C*
X166878000Y-75565000D03*
G04 #@! TO.P,P4,6*
X169418000Y-75565000D03*
G04 #@! TO.P,P4,7*
G04 #@! TO.N,/1(Tx)*
X171958000Y-75565000D03*
G04 #@! TO.P,P4,8*
G04 #@! TO.N,/0(Rx)*
X174498000Y-75565000D03*
G04 #@! TD*
D11*
G04 #@! TO.P,J1,3*
G04 #@! TO.N,GND*
X180768000Y-132461000D03*
G04 #@! TO.P,J1,1*
G04 #@! TO.N,/1(Tx)*
X170768000Y-132461000D03*
G04 #@! TO.P,J1,2*
G04 #@! TO.N,/0(Rx)*
X175768000Y-132461000D03*
G04 #@! TD*
D14*
G04 #@! TO.P,P12,1*
G04 #@! TO.N,+5V*
X135255000Y-98679000D03*
D15*
G04 #@! TO.P,P12,2*
G04 #@! TO.N,/(SDA)*
X135255000Y-101219000D03*
G04 #@! TO.P,P12,3*
G04 #@! TO.N,/(SCL)*
X135255000Y-103759000D03*
G04 #@! TO.P,P12,4*
G04 #@! TO.N,GND*
X135255000Y-106299000D03*
G04 #@! TD*
D16*
G04 #@! TO.N,/4*
X159437100Y-122458400D03*
G04 #@! TD*
D17*
G04 #@! TO.N,+5V*
X149098000Y-123825000D02*
X149098000Y-122312500D01*
X148805300Y-122124700D02*
X149098000Y-122124700D01*
X133554700Y-106874100D02*
X148805300Y-122124700D01*
X133554700Y-100379300D02*
X133554700Y-106874100D01*
X135255000Y-98679000D02*
X133554700Y-100379300D01*
X149098000Y-122312500D02*
X149098000Y-122124700D01*
X158947700Y-112275000D02*
X171831000Y-112275000D01*
X149098000Y-122124700D02*
X158947700Y-112275000D01*
G04 #@! TO.N,GND*
X151638000Y-123825000D02*
X153100000Y-123825000D01*
X154178000Y-123825000D02*
X153100000Y-123825000D01*
X156911100Y-121091900D02*
X154178000Y-123825000D01*
X174376300Y-121091900D02*
X156911100Y-121091900D01*
X180768000Y-127483600D02*
X174376300Y-121091900D01*
X180768000Y-132461000D02*
X180768000Y-127483600D01*
X174659600Y-100103600D02*
X171831000Y-97275000D01*
X174659600Y-109026200D02*
X174659600Y-100103600D01*
X174376300Y-109309500D02*
X174659600Y-109026200D01*
X174376300Y-121091900D02*
X174376300Y-109309500D01*
G04 #@! TO.N,/(SCL)*
X136739000Y-102275000D02*
X171831000Y-102275000D01*
X135255000Y-103759000D02*
X136739000Y-102275000D01*
G04 #@! TO.N,/(SDA)*
X173709200Y-105396800D02*
X171831000Y-107275000D01*
X173709200Y-101532100D02*
X173709200Y-105396800D01*
X172593100Y-100416000D02*
X173709200Y-101532100D01*
X137857900Y-100416000D02*
X172593100Y-100416000D01*
X137054900Y-101219000D02*
X137857900Y-100416000D01*
X135255000Y-101219000D02*
X137054900Y-101219000D01*
G04 #@! TO.N,/7*
X130686300Y-127271300D02*
X135876000Y-132461000D01*
X130686300Y-97810400D02*
X130686300Y-127271300D01*
X136559600Y-91937100D02*
X130686300Y-97810400D01*
X138883900Y-91937100D02*
X136559600Y-91937100D01*
X155256000Y-75565000D02*
X138883900Y-91937100D01*
X156718000Y-75565000D02*
X155256000Y-75565000D01*
G04 #@! TO.N,/6(\002A\002A)*
X131653800Y-123238800D02*
X140876000Y-132461000D01*
X131653800Y-98216900D02*
X131653800Y-123238800D01*
X135580000Y-94290700D02*
X131653800Y-98216900D01*
X140756600Y-94290700D02*
X135580000Y-94290700D01*
X159258000Y-75789300D02*
X140756600Y-94290700D01*
X159258000Y-75565000D02*
X159258000Y-75789300D01*
G04 #@! TO.N,/5(\002A\002A)*
X140046400Y-97316600D02*
X161798000Y-75565000D01*
X133898200Y-97316600D02*
X140046400Y-97316600D01*
X132604200Y-98610600D02*
X133898200Y-97316600D01*
X132604200Y-120206000D02*
X132604200Y-98610600D01*
X144859200Y-132461000D02*
X132604200Y-120206000D01*
X145876000Y-132461000D02*
X144859200Y-132461000D01*
G04 #@! TO.N,/4*
X159385600Y-123951400D02*
X150876000Y-132461000D01*
X159385600Y-122509900D02*
X159385600Y-123951400D01*
X159437100Y-122458400D02*
X159385600Y-122509900D01*
G04 #@! TO.N,/A0*
X160336000Y-128001000D02*
X155876000Y-132461000D01*
X160336000Y-123825000D02*
X160336000Y-128001000D01*
X161798000Y-123825000D02*
X160336000Y-123825000D01*
G04 #@! TO.N,/A1*
X164338000Y-128999000D02*
X160876000Y-132461000D01*
X164338000Y-123825000D02*
X164338000Y-128999000D01*
G04 #@! TD*
D18*
G04 #@! TO.N,GND*
G36*
X175820001Y-86163071D02*
X175806091Y-86233000D01*
X175838930Y-86398091D01*
X175861196Y-86510028D01*
X176018120Y-86744881D01*
X176077401Y-86784492D01*
X176867510Y-87574601D01*
X176907119Y-87633881D01*
X176966398Y-87673490D01*
X176966399Y-87673491D01*
X177141971Y-87790805D01*
X177419000Y-87845909D01*
X177488926Y-87832000D01*
X178648909Y-87832000D01*
X179122000Y-88305091D01*
X179122000Y-89117292D01*
X178548734Y-88544026D01*
X177568499Y-88138000D01*
X176507501Y-88138000D01*
X175527266Y-88544026D01*
X174777026Y-89294266D01*
X174371000Y-90274501D01*
X174371000Y-91335499D01*
X174777026Y-92315734D01*
X175527266Y-93065974D01*
X176507501Y-93472000D01*
X177568499Y-93472000D01*
X178548734Y-93065974D01*
X179122000Y-92492708D01*
X179122001Y-117057293D01*
X178548734Y-116484026D01*
X177568499Y-116078000D01*
X176507501Y-116078000D01*
X175527266Y-116484026D01*
X174777026Y-117234266D01*
X174371000Y-118214501D01*
X174371000Y-119275499D01*
X174777026Y-120255734D01*
X175527266Y-121005974D01*
X176507501Y-121412000D01*
X177568499Y-121412000D01*
X178548734Y-121005974D01*
X179122001Y-120432707D01*
X179122001Y-125025071D01*
X179108091Y-125095000D01*
X179149965Y-125305510D01*
X179163196Y-125372028D01*
X179320120Y-125606881D01*
X179379401Y-125646492D01*
X180042509Y-126309601D01*
X180082119Y-126368881D01*
X180141398Y-126408490D01*
X180141399Y-126408491D01*
X180316972Y-126525805D01*
X180594000Y-126580909D01*
X180663926Y-126567000D01*
X183347909Y-126567000D01*
X183694000Y-126913091D01*
X183694001Y-137246908D01*
X183093910Y-137847000D01*
X123484091Y-137847000D01*
X122376000Y-136738910D01*
X122376000Y-132086050D01*
X124139000Y-132086050D01*
X124139000Y-132835950D01*
X124425974Y-133528767D01*
X124956233Y-134059026D01*
X125649050Y-134346000D01*
X126398950Y-134346000D01*
X127091767Y-134059026D01*
X127356473Y-133794320D01*
X129870285Y-133794320D01*
X129999533Y-134087123D01*
X130699806Y-134355388D01*
X131449435Y-134335250D01*
X132048467Y-134087123D01*
X132177715Y-133794320D01*
X131024000Y-132640605D01*
X129870285Y-133794320D01*
X127356473Y-133794320D01*
X127622026Y-133528767D01*
X127909000Y-132835950D01*
X127909000Y-132136806D01*
X129129612Y-132136806D01*
X129149750Y-132886435D01*
X129397877Y-133485467D01*
X129690680Y-133614715D01*
X130844395Y-132461000D01*
X131203605Y-132461000D01*
X132357320Y-133614715D01*
X132650123Y-133485467D01*
X132918388Y-132785194D01*
X132898250Y-132035565D01*
X132650123Y-131436533D01*
X132357320Y-131307285D01*
X131203605Y-132461000D01*
X130844395Y-132461000D01*
X129690680Y-131307285D01*
X129397877Y-131436533D01*
X129129612Y-132136806D01*
X127909000Y-132136806D01*
X127909000Y-132086050D01*
X127622026Y-131393233D01*
X127356473Y-131127680D01*
X129870285Y-131127680D01*
X131024000Y-132281395D01*
X132177715Y-131127680D01*
X132048467Y-130834877D01*
X131348194Y-130566612D01*
X130598565Y-130586750D01*
X129999533Y-130834877D01*
X129870285Y-131127680D01*
X127356473Y-131127680D01*
X127091767Y-130862974D01*
X126398950Y-130576000D01*
X125649050Y-130576000D01*
X124956233Y-130862974D01*
X124425974Y-131393233D01*
X124139000Y-132086050D01*
X122376000Y-132086050D01*
X122376000Y-124536565D01*
X122707026Y-125335734D01*
X123457266Y-126085974D01*
X124437501Y-126492000D01*
X125498499Y-126492000D01*
X126478734Y-126085974D01*
X127228974Y-125335734D01*
X127635000Y-124355499D01*
X127635000Y-123294501D01*
X127228974Y-122314266D01*
X126478734Y-121564026D01*
X126292776Y-121487000D01*
X127946076Y-121487000D01*
X128016000Y-121500909D01*
X128085924Y-121487000D01*
X128085926Y-121487000D01*
X128293028Y-121445805D01*
X128527881Y-121288881D01*
X128567494Y-121229596D01*
X129484599Y-120312492D01*
X129543881Y-120272881D01*
X129700805Y-120038028D01*
X129701301Y-120035536D01*
X129701301Y-127174287D01*
X129682004Y-127271300D01*
X129758451Y-127655627D01*
X129921202Y-127899202D01*
X129921205Y-127899205D01*
X129976156Y-127981445D01*
X130058396Y-128036396D01*
X134025283Y-132003283D01*
X133991000Y-132086050D01*
X133991000Y-132835950D01*
X134277974Y-133528767D01*
X134808233Y-134059026D01*
X135501050Y-134346000D01*
X136250950Y-134346000D01*
X136943767Y-134059026D01*
X137474026Y-133528767D01*
X137761000Y-132835950D01*
X137761000Y-132086050D01*
X137474026Y-131393233D01*
X136943767Y-130862974D01*
X136250950Y-130576000D01*
X135501050Y-130576000D01*
X135418283Y-130610283D01*
X131671300Y-126863300D01*
X131671300Y-124649300D01*
X139025283Y-132003283D01*
X138991000Y-132086050D01*
X138991000Y-132835950D01*
X139277974Y-133528767D01*
X139808233Y-134059026D01*
X140501050Y-134346000D01*
X141250950Y-134346000D01*
X141943767Y-134059026D01*
X142474026Y-133528767D01*
X142761000Y-132835950D01*
X142761000Y-132086050D01*
X142527478Y-131522278D01*
X144094102Y-133088902D01*
X144098507Y-133095494D01*
X144277974Y-133528767D01*
X144808233Y-134059026D01*
X145501050Y-134346000D01*
X146250950Y-134346000D01*
X146943767Y-134059026D01*
X147474026Y-133528767D01*
X147761000Y-132835950D01*
X147761000Y-132086050D01*
X148991000Y-132086050D01*
X148991000Y-132835950D01*
X149277974Y-133528767D01*
X149808233Y-134059026D01*
X150501050Y-134346000D01*
X151250950Y-134346000D01*
X151943767Y-134059026D01*
X152474026Y-133528767D01*
X152761000Y-132835950D01*
X152761000Y-132086050D01*
X152726717Y-132003283D01*
X159351000Y-125379001D01*
X159351001Y-127592999D01*
X156333717Y-130610283D01*
X156250950Y-130576000D01*
X155501050Y-130576000D01*
X154808233Y-130862974D01*
X154277974Y-131393233D01*
X153991000Y-132086050D01*
X153991000Y-132835950D01*
X154277974Y-133528767D01*
X154808233Y-134059026D01*
X155501050Y-134346000D01*
X156250950Y-134346000D01*
X156943767Y-134059026D01*
X157474026Y-133528767D01*
X157761000Y-132835950D01*
X157761000Y-132086050D01*
X157726717Y-132003283D01*
X160963902Y-128766098D01*
X161046145Y-128711145D01*
X161263849Y-128385328D01*
X161321000Y-128098012D01*
X161321000Y-128098008D01*
X161340296Y-128001001D01*
X161321000Y-127903994D01*
X161321000Y-125572260D01*
X162560000Y-125572260D01*
X162807765Y-125522977D01*
X163017809Y-125382629D01*
X163158157Y-125172585D01*
X163198162Y-124971463D01*
X163330821Y-125170000D01*
X163353000Y-125184820D01*
X163353001Y-128590999D01*
X161333717Y-130610283D01*
X161250950Y-130576000D01*
X160501050Y-130576000D01*
X159808233Y-130862974D01*
X159277974Y-131393233D01*
X158991000Y-132086050D01*
X158991000Y-132835950D01*
X159277974Y-133528767D01*
X159808233Y-134059026D01*
X160501050Y-134346000D01*
X161250950Y-134346000D01*
X161943767Y-134059026D01*
X162474026Y-133528767D01*
X162761000Y-132835950D01*
X162761000Y-132086050D01*
X163991000Y-132086050D01*
X163991000Y-132835950D01*
X164277974Y-133528767D01*
X164808233Y-134059026D01*
X165501050Y-134346000D01*
X166250950Y-134346000D01*
X166943767Y-134059026D01*
X167474026Y-133528767D01*
X167761000Y-132835950D01*
X167761000Y-132086050D01*
X168883000Y-132086050D01*
X168883000Y-132835950D01*
X169169974Y-133528767D01*
X169700233Y-134059026D01*
X170393050Y-134346000D01*
X171142950Y-134346000D01*
X171835767Y-134059026D01*
X172366026Y-133528767D01*
X172653000Y-132835950D01*
X172653000Y-132086050D01*
X173883000Y-132086050D01*
X173883000Y-132835950D01*
X174169974Y-133528767D01*
X174700233Y-134059026D01*
X175393050Y-134346000D01*
X176142950Y-134346000D01*
X176835767Y-134059026D01*
X177100473Y-133794320D01*
X179614285Y-133794320D01*
X179743533Y-134087123D01*
X180443806Y-134355388D01*
X181193435Y-134335250D01*
X181792467Y-134087123D01*
X181921715Y-133794320D01*
X180768000Y-132640605D01*
X179614285Y-133794320D01*
X177100473Y-133794320D01*
X177366026Y-133528767D01*
X177653000Y-132835950D01*
X177653000Y-132136806D01*
X178873612Y-132136806D01*
X178893750Y-132886435D01*
X179141877Y-133485467D01*
X179434680Y-133614715D01*
X180588395Y-132461000D01*
X180947605Y-132461000D01*
X182101320Y-133614715D01*
X182394123Y-133485467D01*
X182662388Y-132785194D01*
X182642250Y-132035565D01*
X182394123Y-131436533D01*
X182101320Y-131307285D01*
X180947605Y-132461000D01*
X180588395Y-132461000D01*
X179434680Y-131307285D01*
X179141877Y-131436533D01*
X178873612Y-132136806D01*
X177653000Y-132136806D01*
X177653000Y-132086050D01*
X177366026Y-131393233D01*
X177100473Y-131127680D01*
X179614285Y-131127680D01*
X180768000Y-132281395D01*
X181921715Y-131127680D01*
X181792467Y-130834877D01*
X181092194Y-130566612D01*
X180342565Y-130586750D01*
X179743533Y-130834877D01*
X179614285Y-131127680D01*
X177100473Y-131127680D01*
X176835767Y-130862974D01*
X176142950Y-130576000D01*
X175393050Y-130576000D01*
X174700233Y-130862974D01*
X174169974Y-131393233D01*
X173883000Y-132086050D01*
X172653000Y-132086050D01*
X172366026Y-131393233D01*
X171835767Y-130862974D01*
X171142950Y-130576000D01*
X170393050Y-130576000D01*
X169700233Y-130862974D01*
X169169974Y-131393233D01*
X168883000Y-132086050D01*
X167761000Y-132086050D01*
X167474026Y-131393233D01*
X166943767Y-130862974D01*
X166250950Y-130576000D01*
X165501050Y-130576000D01*
X164808233Y-130862974D01*
X164277974Y-131393233D01*
X163991000Y-132086050D01*
X162761000Y-132086050D01*
X162726717Y-132003283D01*
X164965902Y-129764098D01*
X165048145Y-129709145D01*
X165265849Y-129383328D01*
X165323000Y-129096012D01*
X165323000Y-129096009D01*
X165342296Y-128999001D01*
X165323000Y-128901993D01*
X165323000Y-125184820D01*
X165345180Y-125170000D01*
X165608000Y-124776662D01*
X165870821Y-125170000D01*
X166332919Y-125478764D01*
X166878000Y-125587188D01*
X167423082Y-125478764D01*
X167885180Y-125170000D01*
X168148000Y-124776662D01*
X168410821Y-125170000D01*
X168872919Y-125478764D01*
X169418000Y-125587188D01*
X169963082Y-125478764D01*
X170425180Y-125170000D01*
X170688000Y-124776662D01*
X170950821Y-125170000D01*
X171412919Y-125478764D01*
X171958000Y-125587188D01*
X172503082Y-125478764D01*
X172965180Y-125170000D01*
X173228000Y-124776662D01*
X173490821Y-125170000D01*
X173952919Y-125478764D01*
X174498000Y-125587188D01*
X175043082Y-125478764D01*
X175505180Y-125170000D01*
X175813944Y-124707902D01*
X175895000Y-124300407D01*
X175895000Y-123349592D01*
X175813944Y-122942098D01*
X175505179Y-122480000D01*
X175043081Y-122171236D01*
X174498000Y-122062812D01*
X173952918Y-122171236D01*
X173490820Y-122480001D01*
X173228000Y-122873339D01*
X172965179Y-122480000D01*
X172503081Y-122171236D01*
X171958000Y-122062812D01*
X171412918Y-122171236D01*
X170950820Y-122480001D01*
X170688000Y-122873339D01*
X170425179Y-122480000D01*
X169963081Y-122171236D01*
X169418000Y-122062812D01*
X168872918Y-122171236D01*
X168410820Y-122480001D01*
X168148000Y-122873339D01*
X167885179Y-122480000D01*
X167423081Y-122171236D01*
X166878000Y-122062812D01*
X166332918Y-122171236D01*
X165870820Y-122480001D01*
X165608000Y-122873339D01*
X165345179Y-122480000D01*
X164883081Y-122171236D01*
X164338000Y-122062812D01*
X163792918Y-122171236D01*
X163330820Y-122480001D01*
X163198162Y-122678537D01*
X163158157Y-122477415D01*
X163017809Y-122267371D01*
X162807765Y-122127023D01*
X162560000Y-122077740D01*
X161036000Y-122077740D01*
X160788235Y-122127023D01*
X160578191Y-122267371D01*
X160437843Y-122477415D01*
X160388560Y-122725180D01*
X160388560Y-122831158D01*
X160370600Y-122827585D01*
X160370600Y-122814317D01*
X160441396Y-122458400D01*
X160364949Y-122074073D01*
X160147245Y-121748255D01*
X159821427Y-121530551D01*
X159437100Y-121454104D01*
X159052773Y-121530551D01*
X158809198Y-121693302D01*
X158757698Y-121744802D01*
X158675455Y-121799755D01*
X158620502Y-121881998D01*
X158525638Y-122023972D01*
X158457751Y-122125573D01*
X158400600Y-122412889D01*
X158400600Y-122412892D01*
X158381304Y-122509900D01*
X158400600Y-122606909D01*
X158400601Y-123543398D01*
X158115000Y-123828999D01*
X158115000Y-123349592D01*
X158033944Y-122942098D01*
X157725179Y-122480000D01*
X157263081Y-122171236D01*
X156718000Y-122062812D01*
X156172918Y-122171236D01*
X155710820Y-122480001D01*
X155436420Y-122890670D01*
X155420059Y-122835239D01*
X155076026Y-122409550D01*
X154595277Y-122147920D01*
X154521070Y-122132960D01*
X154305000Y-122255460D01*
X154305000Y-123698000D01*
X154325000Y-123698000D01*
X154325000Y-123952000D01*
X154305000Y-123952000D01*
X154305000Y-125394540D01*
X154521070Y-125517040D01*
X154595277Y-125502080D01*
X155076026Y-125240450D01*
X155420059Y-124814761D01*
X155436420Y-124759331D01*
X155710821Y-125170000D01*
X156172919Y-125478764D01*
X156416737Y-125527263D01*
X151333717Y-130610283D01*
X151250950Y-130576000D01*
X150501050Y-130576000D01*
X149808233Y-130862974D01*
X149277974Y-131393233D01*
X148991000Y-132086050D01*
X147761000Y-132086050D01*
X147474026Y-131393233D01*
X146943767Y-130862974D01*
X146250950Y-130576000D01*
X145501050Y-130576000D01*
X144808233Y-130862974D01*
X144731204Y-130940004D01*
X139363460Y-125572260D01*
X139700000Y-125572260D01*
X139947765Y-125522977D01*
X140157809Y-125382629D01*
X140298157Y-125172585D01*
X140338162Y-124971463D01*
X140470821Y-125170000D01*
X140932919Y-125478764D01*
X141478000Y-125587188D01*
X142023082Y-125478764D01*
X142485180Y-125170000D01*
X142748000Y-124776662D01*
X143010821Y-125170000D01*
X143472919Y-125478764D01*
X144018000Y-125587188D01*
X144563082Y-125478764D01*
X145025180Y-125170000D01*
X145288000Y-124776662D01*
X145550821Y-125170000D01*
X146012919Y-125478764D01*
X146558000Y-125587188D01*
X147103082Y-125478764D01*
X147565180Y-125170000D01*
X147828000Y-124776662D01*
X148090821Y-125170000D01*
X148552919Y-125478764D01*
X149098000Y-125587188D01*
X149643082Y-125478764D01*
X150105180Y-125170000D01*
X150379580Y-124759331D01*
X150395941Y-124814761D01*
X150739974Y-125240450D01*
X151220723Y-125502080D01*
X151294930Y-125517040D01*
X151511000Y-125394540D01*
X151511000Y-123952000D01*
X151765000Y-123952000D01*
X151765000Y-125394540D01*
X151981070Y-125517040D01*
X152055277Y-125502080D01*
X152536026Y-125240450D01*
X152880059Y-124814761D01*
X152908000Y-124720097D01*
X152935941Y-124814761D01*
X153279974Y-125240450D01*
X153760723Y-125502080D01*
X153834930Y-125517040D01*
X154051000Y-125394540D01*
X154051000Y-123952000D01*
X151765000Y-123952000D01*
X151511000Y-123952000D01*
X151491000Y-123952000D01*
X151491000Y-123698000D01*
X151511000Y-123698000D01*
X151511000Y-122255460D01*
X151765000Y-122255460D01*
X151765000Y-123698000D01*
X154051000Y-123698000D01*
X154051000Y-122255460D01*
X153834930Y-122132960D01*
X153760723Y-122147920D01*
X153279974Y-122409550D01*
X152935941Y-122835239D01*
X152908000Y-122929903D01*
X152880059Y-122835239D01*
X152536026Y-122409550D01*
X152055277Y-122147920D01*
X151981070Y-122132960D01*
X151765000Y-122255460D01*
X151511000Y-122255460D01*
X151294930Y-122132960D01*
X151220723Y-122147920D01*
X150739974Y-122409550D01*
X150395941Y-122835239D01*
X150379580Y-122890669D01*
X150117404Y-122498296D01*
X159355700Y-113260000D01*
X170198691Y-113260000D01*
X170232974Y-113342767D01*
X170763233Y-113873026D01*
X171456050Y-114160000D01*
X172205950Y-114160000D01*
X172898767Y-113873026D01*
X173429026Y-113342767D01*
X173716000Y-112649950D01*
X173716000Y-111900050D01*
X173429026Y-111207233D01*
X172898767Y-110676974D01*
X172205950Y-110390000D01*
X171456050Y-110390000D01*
X170763233Y-110676974D01*
X170232974Y-111207233D01*
X170198691Y-111290000D01*
X159044707Y-111290000D01*
X158947699Y-111270704D01*
X158850691Y-111290000D01*
X158850688Y-111290000D01*
X158563372Y-111347151D01*
X158237555Y-111564855D01*
X158182602Y-111647098D01*
X148951650Y-120878050D01*
X135758255Y-107684655D01*
X136244761Y-107541059D01*
X136670450Y-107197026D01*
X136932080Y-106716277D01*
X136947040Y-106642070D01*
X136824540Y-106426000D01*
X135382000Y-106426000D01*
X135382000Y-106446000D01*
X135128000Y-106446000D01*
X135128000Y-106426000D01*
X135108000Y-106426000D01*
X135108000Y-106172000D01*
X135128000Y-106172000D01*
X135128000Y-106152000D01*
X135382000Y-106152000D01*
X135382000Y-106172000D01*
X136824540Y-106172000D01*
X136947040Y-105955930D01*
X136932080Y-105881723D01*
X136670450Y-105400974D01*
X136244761Y-105056941D01*
X136189331Y-105040580D01*
X136600000Y-104766180D01*
X136908764Y-104304082D01*
X137017188Y-103759000D01*
X136955936Y-103451065D01*
X137147001Y-103260000D01*
X170198691Y-103260000D01*
X170232974Y-103342767D01*
X170763233Y-103873026D01*
X171456050Y-104160000D01*
X172205950Y-104160000D01*
X172724201Y-103945334D01*
X172724201Y-104988798D01*
X172288716Y-105424283D01*
X172205950Y-105390000D01*
X171456050Y-105390000D01*
X170763233Y-105676974D01*
X170232974Y-106207233D01*
X169946000Y-106900050D01*
X169946000Y-107649950D01*
X170232974Y-108342767D01*
X170763233Y-108873026D01*
X171456050Y-109160000D01*
X172205950Y-109160000D01*
X172898767Y-108873026D01*
X173429026Y-108342767D01*
X173716000Y-107649950D01*
X173716000Y-106900050D01*
X173681717Y-106817284D01*
X174337105Y-106161896D01*
X174419345Y-106106945D01*
X174474296Y-106024705D01*
X174474298Y-106024703D01*
X174637049Y-105781128D01*
X174694200Y-105493812D01*
X174694200Y-105493808D01*
X174713496Y-105396800D01*
X174694200Y-105299792D01*
X174694200Y-101629108D01*
X174713496Y-101532100D01*
X174694200Y-101435092D01*
X174694200Y-101435088D01*
X174637049Y-101147772D01*
X174567646Y-101043903D01*
X174474298Y-100904197D01*
X174474296Y-100904195D01*
X174419345Y-100821955D01*
X174337105Y-100767004D01*
X173358198Y-99788098D01*
X173303245Y-99705855D01*
X172977428Y-99488151D01*
X172690112Y-99431000D01*
X172690108Y-99431000D01*
X172593100Y-99411704D01*
X172496092Y-99431000D01*
X137954906Y-99431000D01*
X137857899Y-99411704D01*
X137760892Y-99431000D01*
X137760888Y-99431000D01*
X137473572Y-99488151D01*
X137147755Y-99705855D01*
X137092802Y-99788098D01*
X136646900Y-100234000D01*
X136614820Y-100234000D01*
X136600000Y-100211820D01*
X136401463Y-100079162D01*
X136602585Y-100039157D01*
X136812629Y-99898809D01*
X136952977Y-99688765D01*
X137002260Y-99441000D01*
X137002260Y-98608320D01*
X170677285Y-98608320D01*
X170806533Y-98901123D01*
X171506806Y-99169388D01*
X172256435Y-99149250D01*
X172855467Y-98901123D01*
X172984715Y-98608320D01*
X171831000Y-97454605D01*
X170677285Y-98608320D01*
X137002260Y-98608320D01*
X137002260Y-98301600D01*
X139949392Y-98301600D01*
X140046400Y-98320896D01*
X140143408Y-98301600D01*
X140143412Y-98301600D01*
X140430728Y-98244449D01*
X140756545Y-98026745D01*
X140811498Y-97944502D01*
X141805194Y-96950806D01*
X169936612Y-96950806D01*
X169956750Y-97700435D01*
X170204877Y-98299467D01*
X170497680Y-98428715D01*
X171651395Y-97275000D01*
X172010605Y-97275000D01*
X173164320Y-98428715D01*
X173457123Y-98299467D01*
X173725388Y-97599194D01*
X173705250Y-96849565D01*
X173457123Y-96250533D01*
X173164320Y-96121285D01*
X172010605Y-97275000D01*
X171651395Y-97275000D01*
X170497680Y-96121285D01*
X170204877Y-96250533D01*
X169936612Y-96950806D01*
X141805194Y-96950806D01*
X142814320Y-95941680D01*
X170677285Y-95941680D01*
X171831000Y-97095395D01*
X172984715Y-95941680D01*
X172855467Y-95648877D01*
X172155194Y-95380612D01*
X171405565Y-95400750D01*
X170806533Y-95648877D01*
X170677285Y-95941680D01*
X142814320Y-95941680D01*
X161490065Y-77265936D01*
X161798000Y-77327188D01*
X162343082Y-77218764D01*
X162805180Y-76910000D01*
X163068000Y-76516662D01*
X163330821Y-76910000D01*
X163792919Y-77218764D01*
X164338000Y-77327188D01*
X164883082Y-77218764D01*
X165345180Y-76910000D01*
X165608000Y-76516662D01*
X165870821Y-76910000D01*
X166332919Y-77218764D01*
X166878000Y-77327188D01*
X167423082Y-77218764D01*
X167885180Y-76910000D01*
X168148000Y-76516662D01*
X168410821Y-76910000D01*
X168872919Y-77218764D01*
X169418000Y-77327188D01*
X169963082Y-77218764D01*
X170425180Y-76910000D01*
X170688000Y-76516662D01*
X170950821Y-76910000D01*
X171412919Y-77218764D01*
X171958000Y-77327188D01*
X172503082Y-77218764D01*
X172965180Y-76910000D01*
X173228000Y-76516662D01*
X173490821Y-76910000D01*
X173952919Y-77218764D01*
X174498000Y-77327188D01*
X175043082Y-77218764D01*
X175505180Y-76910000D01*
X175813944Y-76447902D01*
X175820000Y-76417456D01*
X175820001Y-86163071D01*
X175820001Y-86163071D01*
G37*
X175820001Y-86163071D02*
X175806091Y-86233000D01*
X175838930Y-86398091D01*
X175861196Y-86510028D01*
X176018120Y-86744881D01*
X176077401Y-86784492D01*
X176867510Y-87574601D01*
X176907119Y-87633881D01*
X176966398Y-87673490D01*
X176966399Y-87673491D01*
X177141971Y-87790805D01*
X177419000Y-87845909D01*
X177488926Y-87832000D01*
X178648909Y-87832000D01*
X179122000Y-88305091D01*
X179122000Y-89117292D01*
X178548734Y-88544026D01*
X177568499Y-88138000D01*
X176507501Y-88138000D01*
X175527266Y-88544026D01*
X174777026Y-89294266D01*
X174371000Y-90274501D01*
X174371000Y-91335499D01*
X174777026Y-92315734D01*
X175527266Y-93065974D01*
X176507501Y-93472000D01*
X177568499Y-93472000D01*
X178548734Y-93065974D01*
X179122000Y-92492708D01*
X179122001Y-117057293D01*
X178548734Y-116484026D01*
X177568499Y-116078000D01*
X176507501Y-116078000D01*
X175527266Y-116484026D01*
X174777026Y-117234266D01*
X174371000Y-118214501D01*
X174371000Y-119275499D01*
X174777026Y-120255734D01*
X175527266Y-121005974D01*
X176507501Y-121412000D01*
X177568499Y-121412000D01*
X178548734Y-121005974D01*
X179122001Y-120432707D01*
X179122001Y-125025071D01*
X179108091Y-125095000D01*
X179149965Y-125305510D01*
X179163196Y-125372028D01*
X179320120Y-125606881D01*
X179379401Y-125646492D01*
X180042509Y-126309601D01*
X180082119Y-126368881D01*
X180141398Y-126408490D01*
X180141399Y-126408491D01*
X180316972Y-126525805D01*
X180594000Y-126580909D01*
X180663926Y-126567000D01*
X183347909Y-126567000D01*
X183694000Y-126913091D01*
X183694001Y-137246908D01*
X183093910Y-137847000D01*
X123484091Y-137847000D01*
X122376000Y-136738910D01*
X122376000Y-132086050D01*
X124139000Y-132086050D01*
X124139000Y-132835950D01*
X124425974Y-133528767D01*
X124956233Y-134059026D01*
X125649050Y-134346000D01*
X126398950Y-134346000D01*
X127091767Y-134059026D01*
X127356473Y-133794320D01*
X129870285Y-133794320D01*
X129999533Y-134087123D01*
X130699806Y-134355388D01*
X131449435Y-134335250D01*
X132048467Y-134087123D01*
X132177715Y-133794320D01*
X131024000Y-132640605D01*
X129870285Y-133794320D01*
X127356473Y-133794320D01*
X127622026Y-133528767D01*
X127909000Y-132835950D01*
X127909000Y-132136806D01*
X129129612Y-132136806D01*
X129149750Y-132886435D01*
X129397877Y-133485467D01*
X129690680Y-133614715D01*
X130844395Y-132461000D01*
X131203605Y-132461000D01*
X132357320Y-133614715D01*
X132650123Y-133485467D01*
X132918388Y-132785194D01*
X132898250Y-132035565D01*
X132650123Y-131436533D01*
X132357320Y-131307285D01*
X131203605Y-132461000D01*
X130844395Y-132461000D01*
X129690680Y-131307285D01*
X129397877Y-131436533D01*
X129129612Y-132136806D01*
X127909000Y-132136806D01*
X127909000Y-132086050D01*
X127622026Y-131393233D01*
X127356473Y-131127680D01*
X129870285Y-131127680D01*
X131024000Y-132281395D01*
X132177715Y-131127680D01*
X132048467Y-130834877D01*
X131348194Y-130566612D01*
X130598565Y-130586750D01*
X129999533Y-130834877D01*
X129870285Y-131127680D01*
X127356473Y-131127680D01*
X127091767Y-130862974D01*
X126398950Y-130576000D01*
X125649050Y-130576000D01*
X124956233Y-130862974D01*
X124425974Y-131393233D01*
X124139000Y-132086050D01*
X122376000Y-132086050D01*
X122376000Y-124536565D01*
X122707026Y-125335734D01*
X123457266Y-126085974D01*
X124437501Y-126492000D01*
X125498499Y-126492000D01*
X126478734Y-126085974D01*
X127228974Y-125335734D01*
X127635000Y-124355499D01*
X127635000Y-123294501D01*
X127228974Y-122314266D01*
X126478734Y-121564026D01*
X126292776Y-121487000D01*
X127946076Y-121487000D01*
X128016000Y-121500909D01*
X128085924Y-121487000D01*
X128085926Y-121487000D01*
X128293028Y-121445805D01*
X128527881Y-121288881D01*
X128567494Y-121229596D01*
X129484599Y-120312492D01*
X129543881Y-120272881D01*
X129700805Y-120038028D01*
X129701301Y-120035536D01*
X129701301Y-127174287D01*
X129682004Y-127271300D01*
X129758451Y-127655627D01*
X129921202Y-127899202D01*
X129921205Y-127899205D01*
X129976156Y-127981445D01*
X130058396Y-128036396D01*
X134025283Y-132003283D01*
X133991000Y-132086050D01*
X133991000Y-132835950D01*
X134277974Y-133528767D01*
X134808233Y-134059026D01*
X135501050Y-134346000D01*
X136250950Y-134346000D01*
X136943767Y-134059026D01*
X137474026Y-133528767D01*
X137761000Y-132835950D01*
X137761000Y-132086050D01*
X137474026Y-131393233D01*
X136943767Y-130862974D01*
X136250950Y-130576000D01*
X135501050Y-130576000D01*
X135418283Y-130610283D01*
X131671300Y-126863300D01*
X131671300Y-124649300D01*
X139025283Y-132003283D01*
X138991000Y-132086050D01*
X138991000Y-132835950D01*
X139277974Y-133528767D01*
X139808233Y-134059026D01*
X140501050Y-134346000D01*
X141250950Y-134346000D01*
X141943767Y-134059026D01*
X142474026Y-133528767D01*
X142761000Y-132835950D01*
X142761000Y-132086050D01*
X142527478Y-131522278D01*
X144094102Y-133088902D01*
X144098507Y-133095494D01*
X144277974Y-133528767D01*
X144808233Y-134059026D01*
X145501050Y-134346000D01*
X146250950Y-134346000D01*
X146943767Y-134059026D01*
X147474026Y-133528767D01*
X147761000Y-132835950D01*
X147761000Y-132086050D01*
X148991000Y-132086050D01*
X148991000Y-132835950D01*
X149277974Y-133528767D01*
X149808233Y-134059026D01*
X150501050Y-134346000D01*
X151250950Y-134346000D01*
X151943767Y-134059026D01*
X152474026Y-133528767D01*
X152761000Y-132835950D01*
X152761000Y-132086050D01*
X152726717Y-132003283D01*
X159351000Y-125379001D01*
X159351001Y-127592999D01*
X156333717Y-130610283D01*
X156250950Y-130576000D01*
X155501050Y-130576000D01*
X154808233Y-130862974D01*
X154277974Y-131393233D01*
X153991000Y-132086050D01*
X153991000Y-132835950D01*
X154277974Y-133528767D01*
X154808233Y-134059026D01*
X155501050Y-134346000D01*
X156250950Y-134346000D01*
X156943767Y-134059026D01*
X157474026Y-133528767D01*
X157761000Y-132835950D01*
X157761000Y-132086050D01*
X157726717Y-132003283D01*
X160963902Y-128766098D01*
X161046145Y-128711145D01*
X161263849Y-128385328D01*
X161321000Y-128098012D01*
X161321000Y-128098008D01*
X161340296Y-128001001D01*
X161321000Y-127903994D01*
X161321000Y-125572260D01*
X162560000Y-125572260D01*
X162807765Y-125522977D01*
X163017809Y-125382629D01*
X163158157Y-125172585D01*
X163198162Y-124971463D01*
X163330821Y-125170000D01*
X163353000Y-125184820D01*
X163353001Y-128590999D01*
X161333717Y-130610283D01*
X161250950Y-130576000D01*
X160501050Y-130576000D01*
X159808233Y-130862974D01*
X159277974Y-131393233D01*
X158991000Y-132086050D01*
X158991000Y-132835950D01*
X159277974Y-133528767D01*
X159808233Y-134059026D01*
X160501050Y-134346000D01*
X161250950Y-134346000D01*
X161943767Y-134059026D01*
X162474026Y-133528767D01*
X162761000Y-132835950D01*
X162761000Y-132086050D01*
X163991000Y-132086050D01*
X163991000Y-132835950D01*
X164277974Y-133528767D01*
X164808233Y-134059026D01*
X165501050Y-134346000D01*
X166250950Y-134346000D01*
X166943767Y-134059026D01*
X167474026Y-133528767D01*
X167761000Y-132835950D01*
X167761000Y-132086050D01*
X168883000Y-132086050D01*
X168883000Y-132835950D01*
X169169974Y-133528767D01*
X169700233Y-134059026D01*
X170393050Y-134346000D01*
X171142950Y-134346000D01*
X171835767Y-134059026D01*
X172366026Y-133528767D01*
X172653000Y-132835950D01*
X172653000Y-132086050D01*
X173883000Y-132086050D01*
X173883000Y-132835950D01*
X174169974Y-133528767D01*
X174700233Y-134059026D01*
X175393050Y-134346000D01*
X176142950Y-134346000D01*
X176835767Y-134059026D01*
X177100473Y-133794320D01*
X179614285Y-133794320D01*
X179743533Y-134087123D01*
X180443806Y-134355388D01*
X181193435Y-134335250D01*
X181792467Y-134087123D01*
X181921715Y-133794320D01*
X180768000Y-132640605D01*
X179614285Y-133794320D01*
X177100473Y-133794320D01*
X177366026Y-133528767D01*
X177653000Y-132835950D01*
X177653000Y-132136806D01*
X178873612Y-132136806D01*
X178893750Y-132886435D01*
X179141877Y-133485467D01*
X179434680Y-133614715D01*
X180588395Y-132461000D01*
X180947605Y-132461000D01*
X182101320Y-133614715D01*
X182394123Y-133485467D01*
X182662388Y-132785194D01*
X182642250Y-132035565D01*
X182394123Y-131436533D01*
X182101320Y-131307285D01*
X180947605Y-132461000D01*
X180588395Y-132461000D01*
X179434680Y-131307285D01*
X179141877Y-131436533D01*
X178873612Y-132136806D01*
X177653000Y-132136806D01*
X177653000Y-132086050D01*
X177366026Y-131393233D01*
X177100473Y-131127680D01*
X179614285Y-131127680D01*
X180768000Y-132281395D01*
X181921715Y-131127680D01*
X181792467Y-130834877D01*
X181092194Y-130566612D01*
X180342565Y-130586750D01*
X179743533Y-130834877D01*
X179614285Y-131127680D01*
X177100473Y-131127680D01*
X176835767Y-130862974D01*
X176142950Y-130576000D01*
X175393050Y-130576000D01*
X174700233Y-130862974D01*
X174169974Y-131393233D01*
X173883000Y-132086050D01*
X172653000Y-132086050D01*
X172366026Y-131393233D01*
X171835767Y-130862974D01*
X171142950Y-130576000D01*
X170393050Y-130576000D01*
X169700233Y-130862974D01*
X169169974Y-131393233D01*
X168883000Y-132086050D01*
X167761000Y-132086050D01*
X167474026Y-131393233D01*
X166943767Y-130862974D01*
X166250950Y-130576000D01*
X165501050Y-130576000D01*
X164808233Y-130862974D01*
X164277974Y-131393233D01*
X163991000Y-132086050D01*
X162761000Y-132086050D01*
X162726717Y-132003283D01*
X164965902Y-129764098D01*
X165048145Y-129709145D01*
X165265849Y-129383328D01*
X165323000Y-129096012D01*
X165323000Y-129096009D01*
X165342296Y-128999001D01*
X165323000Y-128901993D01*
X165323000Y-125184820D01*
X165345180Y-125170000D01*
X165608000Y-124776662D01*
X165870821Y-125170000D01*
X166332919Y-125478764D01*
X166878000Y-125587188D01*
X167423082Y-125478764D01*
X167885180Y-125170000D01*
X168148000Y-124776662D01*
X168410821Y-125170000D01*
X168872919Y-125478764D01*
X169418000Y-125587188D01*
X169963082Y-125478764D01*
X170425180Y-125170000D01*
X170688000Y-124776662D01*
X170950821Y-125170000D01*
X171412919Y-125478764D01*
X171958000Y-125587188D01*
X172503082Y-125478764D01*
X172965180Y-125170000D01*
X173228000Y-124776662D01*
X173490821Y-125170000D01*
X173952919Y-125478764D01*
X174498000Y-125587188D01*
X175043082Y-125478764D01*
X175505180Y-125170000D01*
X175813944Y-124707902D01*
X175895000Y-124300407D01*
X175895000Y-123349592D01*
X175813944Y-122942098D01*
X175505179Y-122480000D01*
X175043081Y-122171236D01*
X174498000Y-122062812D01*
X173952918Y-122171236D01*
X173490820Y-122480001D01*
X173228000Y-122873339D01*
X172965179Y-122480000D01*
X172503081Y-122171236D01*
X171958000Y-122062812D01*
X171412918Y-122171236D01*
X170950820Y-122480001D01*
X170688000Y-122873339D01*
X170425179Y-122480000D01*
X169963081Y-122171236D01*
X169418000Y-122062812D01*
X168872918Y-122171236D01*
X168410820Y-122480001D01*
X168148000Y-122873339D01*
X167885179Y-122480000D01*
X167423081Y-122171236D01*
X166878000Y-122062812D01*
X166332918Y-122171236D01*
X165870820Y-122480001D01*
X165608000Y-122873339D01*
X165345179Y-122480000D01*
X164883081Y-122171236D01*
X164338000Y-122062812D01*
X163792918Y-122171236D01*
X163330820Y-122480001D01*
X163198162Y-122678537D01*
X163158157Y-122477415D01*
X163017809Y-122267371D01*
X162807765Y-122127023D01*
X162560000Y-122077740D01*
X161036000Y-122077740D01*
X160788235Y-122127023D01*
X160578191Y-122267371D01*
X160437843Y-122477415D01*
X160388560Y-122725180D01*
X160388560Y-122831158D01*
X160370600Y-122827585D01*
X160370600Y-122814317D01*
X160441396Y-122458400D01*
X160364949Y-122074073D01*
X160147245Y-121748255D01*
X159821427Y-121530551D01*
X159437100Y-121454104D01*
X159052773Y-121530551D01*
X158809198Y-121693302D01*
X158757698Y-121744802D01*
X158675455Y-121799755D01*
X158620502Y-121881998D01*
X158525638Y-122023972D01*
X158457751Y-122125573D01*
X158400600Y-122412889D01*
X158400600Y-122412892D01*
X158381304Y-122509900D01*
X158400600Y-122606909D01*
X158400601Y-123543398D01*
X158115000Y-123828999D01*
X158115000Y-123349592D01*
X158033944Y-122942098D01*
X157725179Y-122480000D01*
X157263081Y-122171236D01*
X156718000Y-122062812D01*
X156172918Y-122171236D01*
X155710820Y-122480001D01*
X155436420Y-122890670D01*
X155420059Y-122835239D01*
X155076026Y-122409550D01*
X154595277Y-122147920D01*
X154521070Y-122132960D01*
X154305000Y-122255460D01*
X154305000Y-123698000D01*
X154325000Y-123698000D01*
X154325000Y-123952000D01*
X154305000Y-123952000D01*
X154305000Y-125394540D01*
X154521070Y-125517040D01*
X154595277Y-125502080D01*
X155076026Y-125240450D01*
X155420059Y-124814761D01*
X155436420Y-124759331D01*
X155710821Y-125170000D01*
X156172919Y-125478764D01*
X156416737Y-125527263D01*
X151333717Y-130610283D01*
X151250950Y-130576000D01*
X150501050Y-130576000D01*
X149808233Y-130862974D01*
X149277974Y-131393233D01*
X148991000Y-132086050D01*
X147761000Y-132086050D01*
X147474026Y-131393233D01*
X146943767Y-130862974D01*
X146250950Y-130576000D01*
X145501050Y-130576000D01*
X144808233Y-130862974D01*
X144731204Y-130940004D01*
X139363460Y-125572260D01*
X139700000Y-125572260D01*
X139947765Y-125522977D01*
X140157809Y-125382629D01*
X140298157Y-125172585D01*
X140338162Y-124971463D01*
X140470821Y-125170000D01*
X140932919Y-125478764D01*
X141478000Y-125587188D01*
X142023082Y-125478764D01*
X142485180Y-125170000D01*
X142748000Y-124776662D01*
X143010821Y-125170000D01*
X143472919Y-125478764D01*
X144018000Y-125587188D01*
X144563082Y-125478764D01*
X145025180Y-125170000D01*
X145288000Y-124776662D01*
X145550821Y-125170000D01*
X146012919Y-125478764D01*
X146558000Y-125587188D01*
X147103082Y-125478764D01*
X147565180Y-125170000D01*
X147828000Y-124776662D01*
X148090821Y-125170000D01*
X148552919Y-125478764D01*
X149098000Y-125587188D01*
X149643082Y-125478764D01*
X150105180Y-125170000D01*
X150379580Y-124759331D01*
X150395941Y-124814761D01*
X150739974Y-125240450D01*
X151220723Y-125502080D01*
X151294930Y-125517040D01*
X151511000Y-125394540D01*
X151511000Y-123952000D01*
X151765000Y-123952000D01*
X151765000Y-125394540D01*
X151981070Y-125517040D01*
X152055277Y-125502080D01*
X152536026Y-125240450D01*
X152880059Y-124814761D01*
X152908000Y-124720097D01*
X152935941Y-124814761D01*
X153279974Y-125240450D01*
X153760723Y-125502080D01*
X153834930Y-125517040D01*
X154051000Y-125394540D01*
X154051000Y-123952000D01*
X151765000Y-123952000D01*
X151511000Y-123952000D01*
X151491000Y-123952000D01*
X151491000Y-123698000D01*
X151511000Y-123698000D01*
X151511000Y-122255460D01*
X151765000Y-122255460D01*
X151765000Y-123698000D01*
X154051000Y-123698000D01*
X154051000Y-122255460D01*
X153834930Y-122132960D01*
X153760723Y-122147920D01*
X153279974Y-122409550D01*
X152935941Y-122835239D01*
X152908000Y-122929903D01*
X152880059Y-122835239D01*
X152536026Y-122409550D01*
X152055277Y-122147920D01*
X151981070Y-122132960D01*
X151765000Y-122255460D01*
X151511000Y-122255460D01*
X151294930Y-122132960D01*
X151220723Y-122147920D01*
X150739974Y-122409550D01*
X150395941Y-122835239D01*
X150379580Y-122890669D01*
X150117404Y-122498296D01*
X159355700Y-113260000D01*
X170198691Y-113260000D01*
X170232974Y-113342767D01*
X170763233Y-113873026D01*
X171456050Y-114160000D01*
X172205950Y-114160000D01*
X172898767Y-113873026D01*
X173429026Y-113342767D01*
X173716000Y-112649950D01*
X173716000Y-111900050D01*
X173429026Y-111207233D01*
X172898767Y-110676974D01*
X172205950Y-110390000D01*
X171456050Y-110390000D01*
X170763233Y-110676974D01*
X170232974Y-111207233D01*
X170198691Y-111290000D01*
X159044707Y-111290000D01*
X158947699Y-111270704D01*
X158850691Y-111290000D01*
X158850688Y-111290000D01*
X158563372Y-111347151D01*
X158237555Y-111564855D01*
X158182602Y-111647098D01*
X148951650Y-120878050D01*
X135758255Y-107684655D01*
X136244761Y-107541059D01*
X136670450Y-107197026D01*
X136932080Y-106716277D01*
X136947040Y-106642070D01*
X136824540Y-106426000D01*
X135382000Y-106426000D01*
X135382000Y-106446000D01*
X135128000Y-106446000D01*
X135128000Y-106426000D01*
X135108000Y-106426000D01*
X135108000Y-106172000D01*
X135128000Y-106172000D01*
X135128000Y-106152000D01*
X135382000Y-106152000D01*
X135382000Y-106172000D01*
X136824540Y-106172000D01*
X136947040Y-105955930D01*
X136932080Y-105881723D01*
X136670450Y-105400974D01*
X136244761Y-105056941D01*
X136189331Y-105040580D01*
X136600000Y-104766180D01*
X136908764Y-104304082D01*
X137017188Y-103759000D01*
X136955936Y-103451065D01*
X137147001Y-103260000D01*
X170198691Y-103260000D01*
X170232974Y-103342767D01*
X170763233Y-103873026D01*
X171456050Y-104160000D01*
X172205950Y-104160000D01*
X172724201Y-103945334D01*
X172724201Y-104988798D01*
X172288716Y-105424283D01*
X172205950Y-105390000D01*
X171456050Y-105390000D01*
X170763233Y-105676974D01*
X170232974Y-106207233D01*
X169946000Y-106900050D01*
X169946000Y-107649950D01*
X170232974Y-108342767D01*
X170763233Y-108873026D01*
X171456050Y-109160000D01*
X172205950Y-109160000D01*
X172898767Y-108873026D01*
X173429026Y-108342767D01*
X173716000Y-107649950D01*
X173716000Y-106900050D01*
X173681717Y-106817284D01*
X174337105Y-106161896D01*
X174419345Y-106106945D01*
X174474296Y-106024705D01*
X174474298Y-106024703D01*
X174637049Y-105781128D01*
X174694200Y-105493812D01*
X174694200Y-105493808D01*
X174713496Y-105396800D01*
X174694200Y-105299792D01*
X174694200Y-101629108D01*
X174713496Y-101532100D01*
X174694200Y-101435092D01*
X174694200Y-101435088D01*
X174637049Y-101147772D01*
X174567646Y-101043903D01*
X174474298Y-100904197D01*
X174474296Y-100904195D01*
X174419345Y-100821955D01*
X174337105Y-100767004D01*
X173358198Y-99788098D01*
X173303245Y-99705855D01*
X172977428Y-99488151D01*
X172690112Y-99431000D01*
X172690108Y-99431000D01*
X172593100Y-99411704D01*
X172496092Y-99431000D01*
X137954906Y-99431000D01*
X137857899Y-99411704D01*
X137760892Y-99431000D01*
X137760888Y-99431000D01*
X137473572Y-99488151D01*
X137147755Y-99705855D01*
X137092802Y-99788098D01*
X136646900Y-100234000D01*
X136614820Y-100234000D01*
X136600000Y-100211820D01*
X136401463Y-100079162D01*
X136602585Y-100039157D01*
X136812629Y-99898809D01*
X136952977Y-99688765D01*
X137002260Y-99441000D01*
X137002260Y-98608320D01*
X170677285Y-98608320D01*
X170806533Y-98901123D01*
X171506806Y-99169388D01*
X172256435Y-99149250D01*
X172855467Y-98901123D01*
X172984715Y-98608320D01*
X171831000Y-97454605D01*
X170677285Y-98608320D01*
X137002260Y-98608320D01*
X137002260Y-98301600D01*
X139949392Y-98301600D01*
X140046400Y-98320896D01*
X140143408Y-98301600D01*
X140143412Y-98301600D01*
X140430728Y-98244449D01*
X140756545Y-98026745D01*
X140811498Y-97944502D01*
X141805194Y-96950806D01*
X169936612Y-96950806D01*
X169956750Y-97700435D01*
X170204877Y-98299467D01*
X170497680Y-98428715D01*
X171651395Y-97275000D01*
X172010605Y-97275000D01*
X173164320Y-98428715D01*
X173457123Y-98299467D01*
X173725388Y-97599194D01*
X173705250Y-96849565D01*
X173457123Y-96250533D01*
X173164320Y-96121285D01*
X172010605Y-97275000D01*
X171651395Y-97275000D01*
X170497680Y-96121285D01*
X170204877Y-96250533D01*
X169936612Y-96950806D01*
X141805194Y-96950806D01*
X142814320Y-95941680D01*
X170677285Y-95941680D01*
X171831000Y-97095395D01*
X172984715Y-95941680D01*
X172855467Y-95648877D01*
X172155194Y-95380612D01*
X171405565Y-95400750D01*
X170806533Y-95648877D01*
X170677285Y-95941680D01*
X142814320Y-95941680D01*
X161490065Y-77265936D01*
X161798000Y-77327188D01*
X162343082Y-77218764D01*
X162805180Y-76910000D01*
X163068000Y-76516662D01*
X163330821Y-76910000D01*
X163792919Y-77218764D01*
X164338000Y-77327188D01*
X164883082Y-77218764D01*
X165345180Y-76910000D01*
X165608000Y-76516662D01*
X165870821Y-76910000D01*
X166332919Y-77218764D01*
X166878000Y-77327188D01*
X167423082Y-77218764D01*
X167885180Y-76910000D01*
X168148000Y-76516662D01*
X168410821Y-76910000D01*
X168872919Y-77218764D01*
X169418000Y-77327188D01*
X169963082Y-77218764D01*
X170425180Y-76910000D01*
X170688000Y-76516662D01*
X170950821Y-76910000D01*
X171412919Y-77218764D01*
X171958000Y-77327188D01*
X172503082Y-77218764D01*
X172965180Y-76910000D01*
X173228000Y-76516662D01*
X173490821Y-76910000D01*
X173952919Y-77218764D01*
X174498000Y-77327188D01*
X175043082Y-77218764D01*
X175505180Y-76910000D01*
X175813944Y-76447902D01*
X175820000Y-76417456D01*
X175820001Y-86163071D01*
G36*
X175820000Y-74335091D02*
X175820000Y-74712544D01*
X175813944Y-74682098D01*
X175505179Y-74220000D01*
X175043081Y-73911236D01*
X174498000Y-73802812D01*
X173952918Y-73911236D01*
X173490820Y-74220001D01*
X173228000Y-74613339D01*
X172965179Y-74220000D01*
X172503081Y-73911236D01*
X171958000Y-73802812D01*
X171412918Y-73911236D01*
X170950820Y-74220001D01*
X170688000Y-74613339D01*
X170425179Y-74220000D01*
X169963081Y-73911236D01*
X169418000Y-73802812D01*
X168872918Y-73911236D01*
X168410820Y-74220001D01*
X168148000Y-74613339D01*
X167885179Y-74220000D01*
X167423081Y-73911236D01*
X166878000Y-73802812D01*
X166332918Y-73911236D01*
X165870820Y-74220001D01*
X165608000Y-74613339D01*
X165345179Y-74220000D01*
X164883081Y-73911236D01*
X164338000Y-73802812D01*
X163792918Y-73911236D01*
X163330820Y-74220001D01*
X163068000Y-74613339D01*
X162805179Y-74220000D01*
X162343081Y-73911236D01*
X161798000Y-73802812D01*
X161252918Y-73911236D01*
X160790820Y-74220001D01*
X160528000Y-74613339D01*
X160265179Y-74220000D01*
X159803081Y-73911236D01*
X159258000Y-73802812D01*
X158712918Y-73911236D01*
X158250820Y-74220001D01*
X158118162Y-74418537D01*
X158078157Y-74217415D01*
X157937809Y-74007371D01*
X157727765Y-73867023D01*
X157480000Y-73817740D01*
X155956000Y-73817740D01*
X155708235Y-73867023D01*
X155498191Y-74007371D01*
X155357843Y-74217415D01*
X155308560Y-74465180D01*
X155308560Y-74571159D01*
X155256000Y-74560704D01*
X155158992Y-74580000D01*
X155158988Y-74580000D01*
X154871672Y-74637151D01*
X154628097Y-74799902D01*
X154628095Y-74799904D01*
X154545855Y-74854855D01*
X154490904Y-74937095D01*
X154051000Y-75376999D01*
X154051000Y-75089592D01*
X153969944Y-74682098D01*
X153661179Y-74220000D01*
X153199081Y-73911236D01*
X152654000Y-73802812D01*
X152108918Y-73911236D01*
X151646820Y-74220001D01*
X151384000Y-74613339D01*
X151121179Y-74220000D01*
X150659081Y-73911236D01*
X150114000Y-73802812D01*
X149568918Y-73911236D01*
X149106820Y-74220001D01*
X148844000Y-74613339D01*
X148581179Y-74220000D01*
X148119081Y-73911236D01*
X147574000Y-73802812D01*
X147028918Y-73911236D01*
X146566820Y-74220001D01*
X146304000Y-74613339D01*
X146041179Y-74220000D01*
X145579081Y-73911236D01*
X145034000Y-73802812D01*
X144488918Y-73911236D01*
X144026820Y-74220001D01*
X143764000Y-74613339D01*
X143501179Y-74220000D01*
X143039081Y-73911236D01*
X142494000Y-73802812D01*
X141948918Y-73911236D01*
X141486820Y-74220001D01*
X141224000Y-74613339D01*
X140961179Y-74220000D01*
X140499081Y-73911236D01*
X139954000Y-73802812D01*
X139408918Y-73911236D01*
X138946820Y-74220001D01*
X138672420Y-74630670D01*
X138656059Y-74575239D01*
X138312026Y-74149550D01*
X137831277Y-73887920D01*
X137757070Y-73872960D01*
X137541000Y-73995460D01*
X137541000Y-75438000D01*
X137561000Y-75438000D01*
X137561000Y-75692000D01*
X137541000Y-75692000D01*
X137541000Y-77134540D01*
X137757070Y-77257040D01*
X137831277Y-77242080D01*
X138312026Y-76980450D01*
X138656059Y-76554761D01*
X138672420Y-76499331D01*
X138946821Y-76910000D01*
X139408919Y-77218764D01*
X139954000Y-77327188D01*
X140499082Y-77218764D01*
X140961180Y-76910000D01*
X141224000Y-76516662D01*
X141486821Y-76910000D01*
X141948919Y-77218764D01*
X142494000Y-77327188D01*
X143039082Y-77218764D01*
X143501180Y-76910000D01*
X143764000Y-76516662D01*
X144026821Y-76910000D01*
X144488919Y-77218764D01*
X145034000Y-77327188D01*
X145579082Y-77218764D01*
X146041180Y-76910000D01*
X146304000Y-76516662D01*
X146566821Y-76910000D01*
X147028919Y-77218764D01*
X147574000Y-77327188D01*
X148119082Y-77218764D01*
X148581180Y-76910000D01*
X148844000Y-76516662D01*
X149106821Y-76910000D01*
X149568919Y-77218764D01*
X150114000Y-77327188D01*
X150659082Y-77218764D01*
X151121180Y-76910000D01*
X151384000Y-76516662D01*
X151646821Y-76910000D01*
X152108919Y-77218764D01*
X152192592Y-77235408D01*
X138475900Y-90952100D01*
X136656612Y-90952100D01*
X136559600Y-90932803D01*
X136462588Y-90952100D01*
X136175272Y-91009251D01*
X135849455Y-91226955D01*
X135794502Y-91309198D01*
X130058398Y-97045302D01*
X129976155Y-97100255D01*
X129758451Y-97426073D01*
X129742000Y-97508777D01*
X129742000Y-79444926D01*
X129755909Y-79375000D01*
X129737372Y-79281805D01*
X129700805Y-79097972D01*
X129679175Y-79065600D01*
X129583491Y-78922399D01*
X129583488Y-78922396D01*
X129543880Y-78863119D01*
X129484603Y-78823511D01*
X128821494Y-78160403D01*
X128781881Y-78101119D01*
X128547028Y-77944195D01*
X128339926Y-77903000D01*
X128339924Y-77903000D01*
X128270000Y-77889091D01*
X128200076Y-77903000D01*
X127562776Y-77903000D01*
X127748734Y-77825974D01*
X128498974Y-77075734D01*
X128515767Y-77035192D01*
X128574191Y-77122629D01*
X128784235Y-77262977D01*
X129032000Y-77312260D01*
X130556000Y-77312260D01*
X130803765Y-77262977D01*
X131013809Y-77122629D01*
X131154157Y-76912585D01*
X131194162Y-76711463D01*
X131326821Y-76910000D01*
X131788919Y-77218764D01*
X132334000Y-77327188D01*
X132879082Y-77218764D01*
X133341180Y-76910000D01*
X133604000Y-76516662D01*
X133866821Y-76910000D01*
X134328919Y-77218764D01*
X134874000Y-77327188D01*
X135419082Y-77218764D01*
X135881180Y-76910000D01*
X136155580Y-76499331D01*
X136171941Y-76554761D01*
X136515974Y-76980450D01*
X136996723Y-77242080D01*
X137070930Y-77257040D01*
X137287000Y-77134540D01*
X137287000Y-75692000D01*
X137267000Y-75692000D01*
X137267000Y-75438000D01*
X137287000Y-75438000D01*
X137287000Y-73995460D01*
X137070930Y-73872960D01*
X136996723Y-73887920D01*
X136515974Y-74149550D01*
X136171941Y-74575239D01*
X136155580Y-74630669D01*
X135881179Y-74220000D01*
X135419081Y-73911236D01*
X134874000Y-73802812D01*
X134328918Y-73911236D01*
X133866820Y-74220001D01*
X133604000Y-74613339D01*
X133341179Y-74220000D01*
X132879081Y-73911236D01*
X132334000Y-73802812D01*
X131788918Y-73911236D01*
X131326820Y-74220001D01*
X131194162Y-74418537D01*
X131154157Y-74217415D01*
X131013809Y-74007371D01*
X130803765Y-73867023D01*
X130556000Y-73817740D01*
X129032000Y-73817740D01*
X128784235Y-73867023D01*
X128574191Y-74007371D01*
X128515767Y-74094808D01*
X128498974Y-74054266D01*
X128179708Y-73735000D01*
X175219910Y-73735000D01*
X175820000Y-74335091D01*
X175820000Y-74335091D01*
G37*
X175820000Y-74335091D02*
X175820000Y-74712544D01*
X175813944Y-74682098D01*
X175505179Y-74220000D01*
X175043081Y-73911236D01*
X174498000Y-73802812D01*
X173952918Y-73911236D01*
X173490820Y-74220001D01*
X173228000Y-74613339D01*
X172965179Y-74220000D01*
X172503081Y-73911236D01*
X171958000Y-73802812D01*
X171412918Y-73911236D01*
X170950820Y-74220001D01*
X170688000Y-74613339D01*
X170425179Y-74220000D01*
X169963081Y-73911236D01*
X169418000Y-73802812D01*
X168872918Y-73911236D01*
X168410820Y-74220001D01*
X168148000Y-74613339D01*
X167885179Y-74220000D01*
X167423081Y-73911236D01*
X166878000Y-73802812D01*
X166332918Y-73911236D01*
X165870820Y-74220001D01*
X165608000Y-74613339D01*
X165345179Y-74220000D01*
X164883081Y-73911236D01*
X164338000Y-73802812D01*
X163792918Y-73911236D01*
X163330820Y-74220001D01*
X163068000Y-74613339D01*
X162805179Y-74220000D01*
X162343081Y-73911236D01*
X161798000Y-73802812D01*
X161252918Y-73911236D01*
X160790820Y-74220001D01*
X160528000Y-74613339D01*
X160265179Y-74220000D01*
X159803081Y-73911236D01*
X159258000Y-73802812D01*
X158712918Y-73911236D01*
X158250820Y-74220001D01*
X158118162Y-74418537D01*
X158078157Y-74217415D01*
X157937809Y-74007371D01*
X157727765Y-73867023D01*
X157480000Y-73817740D01*
X155956000Y-73817740D01*
X155708235Y-73867023D01*
X155498191Y-74007371D01*
X155357843Y-74217415D01*
X155308560Y-74465180D01*
X155308560Y-74571159D01*
X155256000Y-74560704D01*
X155158992Y-74580000D01*
X155158988Y-74580000D01*
X154871672Y-74637151D01*
X154628097Y-74799902D01*
X154628095Y-74799904D01*
X154545855Y-74854855D01*
X154490904Y-74937095D01*
X154051000Y-75376999D01*
X154051000Y-75089592D01*
X153969944Y-74682098D01*
X153661179Y-74220000D01*
X153199081Y-73911236D01*
X152654000Y-73802812D01*
X152108918Y-73911236D01*
X151646820Y-74220001D01*
X151384000Y-74613339D01*
X151121179Y-74220000D01*
X150659081Y-73911236D01*
X150114000Y-73802812D01*
X149568918Y-73911236D01*
X149106820Y-74220001D01*
X148844000Y-74613339D01*
X148581179Y-74220000D01*
X148119081Y-73911236D01*
X147574000Y-73802812D01*
X147028918Y-73911236D01*
X146566820Y-74220001D01*
X146304000Y-74613339D01*
X146041179Y-74220000D01*
X145579081Y-73911236D01*
X145034000Y-73802812D01*
X144488918Y-73911236D01*
X144026820Y-74220001D01*
X143764000Y-74613339D01*
X143501179Y-74220000D01*
X143039081Y-73911236D01*
X142494000Y-73802812D01*
X141948918Y-73911236D01*
X141486820Y-74220001D01*
X141224000Y-74613339D01*
X140961179Y-74220000D01*
X140499081Y-73911236D01*
X139954000Y-73802812D01*
X139408918Y-73911236D01*
X138946820Y-74220001D01*
X138672420Y-74630670D01*
X138656059Y-74575239D01*
X138312026Y-74149550D01*
X137831277Y-73887920D01*
X137757070Y-73872960D01*
X137541000Y-73995460D01*
X137541000Y-75438000D01*
X137561000Y-75438000D01*
X137561000Y-75692000D01*
X137541000Y-75692000D01*
X137541000Y-77134540D01*
X137757070Y-77257040D01*
X137831277Y-77242080D01*
X138312026Y-76980450D01*
X138656059Y-76554761D01*
X138672420Y-76499331D01*
X138946821Y-76910000D01*
X139408919Y-77218764D01*
X139954000Y-77327188D01*
X140499082Y-77218764D01*
X140961180Y-76910000D01*
X141224000Y-76516662D01*
X141486821Y-76910000D01*
X141948919Y-77218764D01*
X142494000Y-77327188D01*
X143039082Y-77218764D01*
X143501180Y-76910000D01*
X143764000Y-76516662D01*
X144026821Y-76910000D01*
X144488919Y-77218764D01*
X145034000Y-77327188D01*
X145579082Y-77218764D01*
X146041180Y-76910000D01*
X146304000Y-76516662D01*
X146566821Y-76910000D01*
X147028919Y-77218764D01*
X147574000Y-77327188D01*
X148119082Y-77218764D01*
X148581180Y-76910000D01*
X148844000Y-76516662D01*
X149106821Y-76910000D01*
X149568919Y-77218764D01*
X150114000Y-77327188D01*
X150659082Y-77218764D01*
X151121180Y-76910000D01*
X151384000Y-76516662D01*
X151646821Y-76910000D01*
X152108919Y-77218764D01*
X152192592Y-77235408D01*
X138475900Y-90952100D01*
X136656612Y-90952100D01*
X136559600Y-90932803D01*
X136462588Y-90952100D01*
X136175272Y-91009251D01*
X135849455Y-91226955D01*
X135794502Y-91309198D01*
X130058398Y-97045302D01*
X129976155Y-97100255D01*
X129758451Y-97426073D01*
X129742000Y-97508777D01*
X129742000Y-79444926D01*
X129755909Y-79375000D01*
X129737372Y-79281805D01*
X129700805Y-79097972D01*
X129679175Y-79065600D01*
X129583491Y-78922399D01*
X129583488Y-78922396D01*
X129543880Y-78863119D01*
X129484603Y-78823511D01*
X128821494Y-78160403D01*
X128781881Y-78101119D01*
X128547028Y-77944195D01*
X128339926Y-77903000D01*
X128339924Y-77903000D01*
X128270000Y-77889091D01*
X128200076Y-77903000D01*
X127562776Y-77903000D01*
X127748734Y-77825974D01*
X128498974Y-77075734D01*
X128515767Y-77035192D01*
X128574191Y-77122629D01*
X128784235Y-77262977D01*
X129032000Y-77312260D01*
X130556000Y-77312260D01*
X130803765Y-77262977D01*
X131013809Y-77122629D01*
X131154157Y-76912585D01*
X131194162Y-76711463D01*
X131326821Y-76910000D01*
X131788919Y-77218764D01*
X132334000Y-77327188D01*
X132879082Y-77218764D01*
X133341180Y-76910000D01*
X133604000Y-76516662D01*
X133866821Y-76910000D01*
X134328919Y-77218764D01*
X134874000Y-77327188D01*
X135419082Y-77218764D01*
X135881180Y-76910000D01*
X136155580Y-76499331D01*
X136171941Y-76554761D01*
X136515974Y-76980450D01*
X136996723Y-77242080D01*
X137070930Y-77257040D01*
X137287000Y-77134540D01*
X137287000Y-75692000D01*
X137267000Y-75692000D01*
X137267000Y-75438000D01*
X137287000Y-75438000D01*
X137287000Y-73995460D01*
X137070930Y-73872960D01*
X136996723Y-73887920D01*
X136515974Y-74149550D01*
X136171941Y-74575239D01*
X136155580Y-74630669D01*
X135881179Y-74220000D01*
X135419081Y-73911236D01*
X134874000Y-73802812D01*
X134328918Y-73911236D01*
X133866820Y-74220001D01*
X133604000Y-74613339D01*
X133341179Y-74220000D01*
X132879081Y-73911236D01*
X132334000Y-73802812D01*
X131788918Y-73911236D01*
X131326820Y-74220001D01*
X131194162Y-74418537D01*
X131154157Y-74217415D01*
X131013809Y-74007371D01*
X130803765Y-73867023D01*
X130556000Y-73817740D01*
X129032000Y-73817740D01*
X128784235Y-73867023D01*
X128574191Y-74007371D01*
X128515767Y-74094808D01*
X128498974Y-74054266D01*
X128179708Y-73735000D01*
X175219910Y-73735000D01*
X175820000Y-74335091D01*
G04 #@! TD*
M02*
