G04 #@! TF.GenerationSoftware,KiCad,Pcbnew,(5.0.1)-3*
G04 #@! TF.CreationDate,2019-04-12T12:39:31-05:00*
G04 #@! TF.ProjectId,Arduino_As_Uno,41726475696E6F5F41735F556E6F2E6B,rev?*
G04 #@! TF.SameCoordinates,Original*
G04 #@! TF.FileFunction,Legend,Top*
G04 #@! TF.FilePolarity,Positive*
%FSLAX46Y46*%
G04 Gerber Fmt 4.6, Leading zero omitted, Abs format (unit mm)*
G04 Created by KiCad (PCBNEW (5.0.1)-3) date 12/04/2019 12:39:31*
%MOMM*%
%LPD*%
G01*
G04 APERTURE LIST*
%ADD10C,0.150000*%
%ADD11C,0.300000*%
%ADD12C,0.200000*%
%ADD13C,0.381000*%
%ADD14C,0.304800*%
%ADD15C,0.100000*%
%ADD16C,0.125000*%
G04 APERTURE END LIST*
D10*
X145796000Y-97282000D02*
X136906000Y-97282000D01*
X145796000Y-107696000D02*
X145796000Y-97282000D01*
X136906000Y-107696000D02*
X145796000Y-107696000D01*
X136906000Y-97282000D02*
X136906000Y-107696000D01*
X145612820Y-102616000D02*
G75*
G03X145612820Y-102616000I-4134820J0D01*
G01*
D11*
X133384857Y-103301714D02*
X132813428Y-103701714D01*
X133384857Y-103987428D02*
X132184857Y-103987428D01*
X132184857Y-103530285D01*
X132242000Y-103416000D01*
X132299142Y-103358857D01*
X132413428Y-103301714D01*
X132584857Y-103301714D01*
X132699142Y-103358857D01*
X132756285Y-103416000D01*
X132813428Y-103530285D01*
X132813428Y-103987428D01*
X132184857Y-102958857D02*
X132184857Y-102273142D01*
X133384857Y-102616000D02*
X132184857Y-102616000D01*
X133270571Y-101187428D02*
X133327714Y-101244571D01*
X133384857Y-101416000D01*
X133384857Y-101530285D01*
X133327714Y-101701714D01*
X133213428Y-101816000D01*
X133099142Y-101873142D01*
X132870571Y-101930285D01*
X132699142Y-101930285D01*
X132470571Y-101873142D01*
X132356285Y-101816000D01*
X132242000Y-101701714D01*
X132184857Y-101530285D01*
X132184857Y-101416000D01*
X132242000Y-101244571D01*
X132299142Y-101187428D01*
D12*
X173712476Y-126769761D02*
X173855333Y-126817380D01*
X174093428Y-126817380D01*
X174188666Y-126769761D01*
X174236285Y-126722142D01*
X174283904Y-126626904D01*
X174283904Y-126531666D01*
X174236285Y-126436428D01*
X174188666Y-126388809D01*
X174093428Y-126341190D01*
X173902952Y-126293571D01*
X173807714Y-126245952D01*
X173760095Y-126198333D01*
X173712476Y-126103095D01*
X173712476Y-126007857D01*
X173760095Y-125912619D01*
X173807714Y-125865000D01*
X173902952Y-125817380D01*
X174141047Y-125817380D01*
X174283904Y-125865000D01*
X174712476Y-126293571D02*
X175045809Y-126293571D01*
X175188666Y-126817380D02*
X174712476Y-126817380D01*
X174712476Y-125817380D01*
X175188666Y-125817380D01*
X176188666Y-126817380D02*
X175855333Y-126341190D01*
X175617238Y-126817380D02*
X175617238Y-125817380D01*
X175998190Y-125817380D01*
X176093428Y-125865000D01*
X176141047Y-125912619D01*
X176188666Y-126007857D01*
X176188666Y-126150714D01*
X176141047Y-126245952D01*
X176093428Y-126293571D01*
X175998190Y-126341190D01*
X175617238Y-126341190D01*
X176617238Y-126817380D02*
X176617238Y-125817380D01*
X177045809Y-126531666D02*
X177522000Y-126531666D01*
X176950571Y-126817380D02*
X177283904Y-125817380D01*
X177617238Y-126817380D01*
X178426761Y-126817380D02*
X177950571Y-126817380D01*
X177950571Y-125817380D01*
X145042666Y-126817380D02*
X145042666Y-125817380D01*
X146233142Y-125769761D02*
X145376000Y-127055476D01*
X146756952Y-125817380D02*
X146947428Y-125817380D01*
X147042666Y-125865000D01*
X147137904Y-125960238D01*
X147185523Y-126150714D01*
X147185523Y-126484047D01*
X147137904Y-126674523D01*
X147042666Y-126769761D01*
X146947428Y-126817380D01*
X146756952Y-126817380D01*
X146661714Y-126769761D01*
X146566476Y-126674523D01*
X146518857Y-126484047D01*
X146518857Y-126150714D01*
X146566476Y-125960238D01*
X146661714Y-125865000D01*
X146756952Y-125817380D01*
X147614095Y-126436428D02*
X148376000Y-126436428D01*
X148709333Y-126436428D02*
X148756952Y-126388809D01*
X148852190Y-126341190D01*
X149042666Y-126436428D01*
X149137904Y-126388809D01*
X149185523Y-126341190D01*
X149566476Y-126436428D02*
X150328380Y-126436428D01*
X151518857Y-126531666D02*
X151995047Y-126531666D01*
X151423619Y-126817380D02*
X151756952Y-125817380D01*
X152090285Y-126817380D01*
X152423619Y-126817380D02*
X152423619Y-125817380D01*
X152995047Y-126817380D01*
X152995047Y-125817380D01*
X153423619Y-126531666D02*
X153899809Y-126531666D01*
X153328380Y-126817380D02*
X153661714Y-125817380D01*
X153995047Y-126817380D01*
X154804571Y-126817380D02*
X154328380Y-126817380D01*
X154328380Y-125817380D01*
X155328380Y-125817380D02*
X155518857Y-125817380D01*
X155614095Y-125865000D01*
X155709333Y-125960238D01*
X155756952Y-126150714D01*
X155756952Y-126484047D01*
X155709333Y-126674523D01*
X155614095Y-126769761D01*
X155518857Y-126817380D01*
X155328380Y-126817380D01*
X155233142Y-126769761D01*
X155137904Y-126674523D01*
X155090285Y-126484047D01*
X155090285Y-126150714D01*
X155137904Y-125960238D01*
X155233142Y-125865000D01*
X155328380Y-125817380D01*
X156709333Y-125865000D02*
X156614095Y-125817380D01*
X156471238Y-125817380D01*
X156328380Y-125865000D01*
X156233142Y-125960238D01*
X156185523Y-126055476D01*
X156137904Y-126245952D01*
X156137904Y-126388809D01*
X156185523Y-126579285D01*
X156233142Y-126674523D01*
X156328380Y-126769761D01*
X156471238Y-126817380D01*
X156566476Y-126817380D01*
X156709333Y-126769761D01*
X156756952Y-126722142D01*
X156756952Y-126388809D01*
X156566476Y-126388809D01*
D10*
X125798571Y-126763428D02*
X125798571Y-126163428D01*
X126027142Y-126163428D01*
X126084285Y-126192000D01*
X126112857Y-126220571D01*
X126141428Y-126277714D01*
X126141428Y-126363428D01*
X126112857Y-126420571D01*
X126084285Y-126449142D01*
X126027142Y-126477714D01*
X125798571Y-126477714D01*
X126512857Y-126163428D02*
X126627142Y-126163428D01*
X126684285Y-126192000D01*
X126741428Y-126249142D01*
X126770000Y-126363428D01*
X126770000Y-126563428D01*
X126741428Y-126677714D01*
X126684285Y-126734857D01*
X126627142Y-126763428D01*
X126512857Y-126763428D01*
X126455714Y-126734857D01*
X126398571Y-126677714D01*
X126370000Y-126563428D01*
X126370000Y-126363428D01*
X126398571Y-126249142D01*
X126455714Y-126192000D01*
X126512857Y-126163428D01*
X126970000Y-126163428D02*
X127112857Y-126763428D01*
X127227142Y-126334857D01*
X127341428Y-126763428D01*
X127484285Y-126163428D01*
X127712857Y-126449142D02*
X127912857Y-126449142D01*
X127998571Y-126763428D02*
X127712857Y-126763428D01*
X127712857Y-126163428D01*
X127998571Y-126163428D01*
X128598571Y-126763428D02*
X128398571Y-126477714D01*
X128255714Y-126763428D02*
X128255714Y-126163428D01*
X128484285Y-126163428D01*
X128541428Y-126192000D01*
X128570000Y-126220571D01*
X128598571Y-126277714D01*
X128598571Y-126363428D01*
X128570000Y-126420571D01*
X128541428Y-126449142D01*
X128484285Y-126477714D01*
X128255714Y-126477714D01*
X129427142Y-126163428D02*
X129541428Y-126163428D01*
X129598571Y-126192000D01*
X129655714Y-126249142D01*
X129684285Y-126363428D01*
X129684285Y-126563428D01*
X129655714Y-126677714D01*
X129598571Y-126734857D01*
X129541428Y-126763428D01*
X129427142Y-126763428D01*
X129370000Y-126734857D01*
X129312857Y-126677714D01*
X129284285Y-126563428D01*
X129284285Y-126363428D01*
X129312857Y-126249142D01*
X129370000Y-126192000D01*
X129427142Y-126163428D01*
X129941428Y-126163428D02*
X129941428Y-126649142D01*
X129970000Y-126706285D01*
X129998571Y-126734857D01*
X130055714Y-126763428D01*
X130170000Y-126763428D01*
X130227142Y-126734857D01*
X130255714Y-126706285D01*
X130284285Y-126649142D01*
X130284285Y-126163428D01*
X130484285Y-126163428D02*
X130827142Y-126163428D01*
X130655714Y-126763428D02*
X130655714Y-126163428D01*
D11*
X165896857Y-105819428D02*
X164696857Y-105819428D01*
X164811142Y-105305142D02*
X164754000Y-105248000D01*
X164696857Y-105133714D01*
X164696857Y-104848000D01*
X164754000Y-104733714D01*
X164811142Y-104676571D01*
X164925428Y-104619428D01*
X165039714Y-104619428D01*
X165211142Y-104676571D01*
X165896857Y-105362285D01*
X165896857Y-104619428D01*
X165782571Y-103419428D02*
X165839714Y-103476571D01*
X165896857Y-103648000D01*
X165896857Y-103762285D01*
X165839714Y-103933714D01*
X165725428Y-104048000D01*
X165611142Y-104105142D01*
X165382571Y-104162285D01*
X165211142Y-104162285D01*
X164982571Y-104105142D01*
X164868285Y-104048000D01*
X164754000Y-103933714D01*
X164696857Y-103762285D01*
X164696857Y-103648000D01*
X164754000Y-103476571D01*
X164811142Y-103419428D01*
D12*
X170389619Y-137610904D02*
X170846761Y-137610904D01*
X170618190Y-138410904D02*
X170618190Y-137610904D01*
X171037238Y-138410904D02*
X171456285Y-137877571D01*
X171037238Y-137877571D02*
X171456285Y-138410904D01*
X180238476Y-137649000D02*
X180162285Y-137610904D01*
X180048000Y-137610904D01*
X179933714Y-137649000D01*
X179857523Y-137725190D01*
X179819428Y-137801380D01*
X179781333Y-137953761D01*
X179781333Y-138068047D01*
X179819428Y-138220428D01*
X179857523Y-138296619D01*
X179933714Y-138372809D01*
X180048000Y-138410904D01*
X180124190Y-138410904D01*
X180238476Y-138372809D01*
X180276571Y-138334714D01*
X180276571Y-138068047D01*
X180124190Y-138068047D01*
X180619428Y-138410904D02*
X180619428Y-137610904D01*
X181076571Y-138410904D01*
X181076571Y-137610904D01*
X181457523Y-138410904D02*
X181457523Y-137610904D01*
X181648000Y-137610904D01*
X181762285Y-137649000D01*
X181838476Y-137725190D01*
X181876571Y-137801380D01*
X181914666Y-137953761D01*
X181914666Y-138068047D01*
X181876571Y-138220428D01*
X181838476Y-138296619D01*
X181762285Y-138372809D01*
X181648000Y-138410904D01*
X181457523Y-138410904D01*
X175945809Y-138410904D02*
X175679142Y-138029952D01*
X175488666Y-138410904D02*
X175488666Y-137610904D01*
X175793428Y-137610904D01*
X175869619Y-137649000D01*
X175907714Y-137687095D01*
X175945809Y-137763285D01*
X175945809Y-137877571D01*
X175907714Y-137953761D01*
X175869619Y-137991857D01*
X175793428Y-138029952D01*
X175488666Y-138029952D01*
X176212476Y-138410904D02*
X176631523Y-137877571D01*
X176212476Y-137877571D02*
X176631523Y-138410904D01*
X174309904Y-81424523D02*
X174309904Y-81348333D01*
X174348000Y-81272142D01*
X174386095Y-81234047D01*
X174462285Y-81195952D01*
X174614666Y-81157857D01*
X174805142Y-81157857D01*
X174957523Y-81195952D01*
X175033714Y-81234047D01*
X175071809Y-81272142D01*
X175109904Y-81348333D01*
X175109904Y-81424523D01*
X175071809Y-81500714D01*
X175033714Y-81538809D01*
X174957523Y-81576904D01*
X174805142Y-81615000D01*
X174614666Y-81615000D01*
X174462285Y-81576904D01*
X174386095Y-81538809D01*
X174348000Y-81500714D01*
X174309904Y-81424523D01*
X174805142Y-80815000D02*
X174805142Y-80205476D01*
X174576571Y-79824523D02*
X174805142Y-79215000D01*
X175033714Y-79824523D01*
X175109904Y-78376904D02*
X174728952Y-78643571D01*
X175109904Y-78834047D02*
X174309904Y-78834047D01*
X174309904Y-78529285D01*
X174348000Y-78453095D01*
X174386095Y-78415000D01*
X174462285Y-78376904D01*
X174576571Y-78376904D01*
X174652761Y-78415000D01*
X174690857Y-78453095D01*
X174728952Y-78529285D01*
X174728952Y-78834047D01*
X174309904Y-78110238D02*
X175109904Y-77576904D01*
X174309904Y-77576904D02*
X175109904Y-78110238D01*
X172609904Y-80812619D02*
X172609904Y-81269761D01*
X172609904Y-81041190D02*
X171809904Y-81041190D01*
X171924190Y-81117380D01*
X172000380Y-81193571D01*
X172038476Y-81269761D01*
X172076571Y-79860238D02*
X172305142Y-80469761D01*
X172533714Y-79860238D01*
X172305142Y-79479285D02*
X172305142Y-78869761D01*
X171809904Y-78603095D02*
X171809904Y-78145952D01*
X172609904Y-78374523D02*
X171809904Y-78374523D01*
X171809904Y-77955476D02*
X172609904Y-77422142D01*
X171809904Y-77422142D02*
X172609904Y-77955476D01*
X169136095Y-77843571D02*
X169098000Y-77805476D01*
X169059904Y-77729285D01*
X169059904Y-77538809D01*
X169098000Y-77462619D01*
X169136095Y-77424523D01*
X169212285Y-77386428D01*
X169288476Y-77386428D01*
X169402761Y-77424523D01*
X169859904Y-77881666D01*
X169859904Y-77386428D01*
X166559904Y-77881666D02*
X166559904Y-77386428D01*
X166864666Y-77653095D01*
X166864666Y-77538809D01*
X166902761Y-77462619D01*
X166940857Y-77424523D01*
X167017047Y-77386428D01*
X167207523Y-77386428D01*
X167283714Y-77424523D01*
X167321809Y-77462619D01*
X167359904Y-77538809D01*
X167359904Y-77767380D01*
X167321809Y-77843571D01*
X167283714Y-77881666D01*
X164326571Y-77462619D02*
X164859904Y-77462619D01*
X164021809Y-77653095D02*
X164593238Y-77843571D01*
X164593238Y-77348333D01*
X161309904Y-77424523D02*
X161309904Y-77805476D01*
X161690857Y-77843571D01*
X161652761Y-77805476D01*
X161614666Y-77729285D01*
X161614666Y-77538809D01*
X161652761Y-77462619D01*
X161690857Y-77424523D01*
X161767047Y-77386428D01*
X161957523Y-77386428D01*
X162033714Y-77424523D01*
X162071809Y-77462619D01*
X162109904Y-77538809D01*
X162109904Y-77729285D01*
X162071809Y-77805476D01*
X162033714Y-77843571D01*
X158809904Y-77462619D02*
X158809904Y-77615000D01*
X158848000Y-77691190D01*
X158886095Y-77729285D01*
X159000380Y-77805476D01*
X159152761Y-77843571D01*
X159457523Y-77843571D01*
X159533714Y-77805476D01*
X159571809Y-77767380D01*
X159609904Y-77691190D01*
X159609904Y-77538809D01*
X159571809Y-77462619D01*
X159533714Y-77424523D01*
X159457523Y-77386428D01*
X159267047Y-77386428D01*
X159190857Y-77424523D01*
X159152761Y-77462619D01*
X159114666Y-77538809D01*
X159114666Y-77691190D01*
X159152761Y-77767380D01*
X159190857Y-77805476D01*
X159267047Y-77843571D01*
X156309904Y-77881666D02*
X156309904Y-77348333D01*
X157109904Y-77691190D01*
X152652761Y-77691190D02*
X152614666Y-77767380D01*
X152576571Y-77805476D01*
X152500380Y-77843571D01*
X152462285Y-77843571D01*
X152386095Y-77805476D01*
X152348000Y-77767380D01*
X152309904Y-77691190D01*
X152309904Y-77538809D01*
X152348000Y-77462619D01*
X152386095Y-77424523D01*
X152462285Y-77386428D01*
X152500380Y-77386428D01*
X152576571Y-77424523D01*
X152614666Y-77462619D01*
X152652761Y-77538809D01*
X152652761Y-77691190D01*
X152690857Y-77767380D01*
X152728952Y-77805476D01*
X152805142Y-77843571D01*
X152957523Y-77843571D01*
X153033714Y-77805476D01*
X153071809Y-77767380D01*
X153109904Y-77691190D01*
X153109904Y-77538809D01*
X153071809Y-77462619D01*
X153033714Y-77424523D01*
X152957523Y-77386428D01*
X152805142Y-77386428D01*
X152728952Y-77424523D01*
X152690857Y-77462619D01*
X152652761Y-77538809D01*
X150609904Y-77767380D02*
X150609904Y-77615000D01*
X150571809Y-77538809D01*
X150533714Y-77500714D01*
X150419428Y-77424523D01*
X150267047Y-77386428D01*
X149962285Y-77386428D01*
X149886095Y-77424523D01*
X149848000Y-77462619D01*
X149809904Y-77538809D01*
X149809904Y-77691190D01*
X149848000Y-77767380D01*
X149886095Y-77805476D01*
X149962285Y-77843571D01*
X150152761Y-77843571D01*
X150228952Y-77805476D01*
X150267047Y-77767380D01*
X150305142Y-77691190D01*
X150305142Y-77538809D01*
X150267047Y-77462619D01*
X150228952Y-77424523D01*
X150152761Y-77386428D01*
X148109904Y-78267380D02*
X148109904Y-78724523D01*
X148109904Y-78495952D02*
X147309904Y-78495952D01*
X147424190Y-78572142D01*
X147500380Y-78648333D01*
X147538476Y-78724523D01*
X147309904Y-77772142D02*
X147309904Y-77695952D01*
X147348000Y-77619761D01*
X147386095Y-77581666D01*
X147462285Y-77543571D01*
X147614666Y-77505476D01*
X147805142Y-77505476D01*
X147957523Y-77543571D01*
X148033714Y-77581666D01*
X148071809Y-77619761D01*
X148109904Y-77695952D01*
X148109904Y-77772142D01*
X148071809Y-77848333D01*
X148033714Y-77886428D01*
X147957523Y-77924523D01*
X147805142Y-77962619D01*
X147614666Y-77962619D01*
X147462285Y-77924523D01*
X147386095Y-77886428D01*
X147348000Y-77848333D01*
X147309904Y-77772142D01*
X145609904Y-78267380D02*
X145609904Y-78724523D01*
X145609904Y-78495952D02*
X144809904Y-78495952D01*
X144924190Y-78572142D01*
X145000380Y-78648333D01*
X145038476Y-78724523D01*
X145609904Y-77505476D02*
X145609904Y-77962619D01*
X145609904Y-77734047D02*
X144809904Y-77734047D01*
X144924190Y-77810238D01*
X145000380Y-77886428D01*
X145038476Y-77962619D01*
X142859904Y-78267380D02*
X142859904Y-78724523D01*
X142859904Y-78495952D02*
X142059904Y-78495952D01*
X142174190Y-78572142D01*
X142250380Y-78648333D01*
X142288476Y-78724523D01*
X142136095Y-77962619D02*
X142098000Y-77924523D01*
X142059904Y-77848333D01*
X142059904Y-77657857D01*
X142098000Y-77581666D01*
X142136095Y-77543571D01*
X142212285Y-77505476D01*
X142288476Y-77505476D01*
X142402761Y-77543571D01*
X142859904Y-78000714D01*
X142859904Y-77505476D01*
X140359904Y-78267380D02*
X140359904Y-78724523D01*
X140359904Y-78495952D02*
X139559904Y-78495952D01*
X139674190Y-78572142D01*
X139750380Y-78648333D01*
X139788476Y-78724523D01*
X139559904Y-78000714D02*
X139559904Y-77505476D01*
X139864666Y-77772142D01*
X139864666Y-77657857D01*
X139902761Y-77581666D01*
X139940857Y-77543571D01*
X140017047Y-77505476D01*
X140207523Y-77505476D01*
X140283714Y-77543571D01*
X140321809Y-77581666D01*
X140359904Y-77657857D01*
X140359904Y-77886428D01*
X140321809Y-77962619D01*
X140283714Y-78000714D01*
X137098000Y-79224523D02*
X137059904Y-79300714D01*
X137059904Y-79415000D01*
X137098000Y-79529285D01*
X137174190Y-79605476D01*
X137250380Y-79643571D01*
X137402761Y-79681666D01*
X137517047Y-79681666D01*
X137669428Y-79643571D01*
X137745619Y-79605476D01*
X137821809Y-79529285D01*
X137859904Y-79415000D01*
X137859904Y-79338809D01*
X137821809Y-79224523D01*
X137783714Y-79186428D01*
X137517047Y-79186428D01*
X137517047Y-79338809D01*
X137859904Y-78843571D02*
X137059904Y-78843571D01*
X137859904Y-78386428D01*
X137059904Y-78386428D01*
X137859904Y-78005476D02*
X137059904Y-78005476D01*
X137059904Y-77815000D01*
X137098000Y-77700714D01*
X137174190Y-77624523D01*
X137250380Y-77586428D01*
X137402761Y-77548333D01*
X137517047Y-77548333D01*
X137669428Y-77586428D01*
X137745619Y-77624523D01*
X137821809Y-77700714D01*
X137859904Y-77815000D01*
X137859904Y-78005476D01*
X135131333Y-80160238D02*
X135131333Y-79779285D01*
X135359904Y-80236428D02*
X134559904Y-79969761D01*
X135359904Y-79703095D01*
X135359904Y-78979285D02*
X134978952Y-79245952D01*
X135359904Y-79436428D02*
X134559904Y-79436428D01*
X134559904Y-79131666D01*
X134598000Y-79055476D01*
X134636095Y-79017380D01*
X134712285Y-78979285D01*
X134826571Y-78979285D01*
X134902761Y-79017380D01*
X134940857Y-79055476D01*
X134978952Y-79131666D01*
X134978952Y-79436428D01*
X134940857Y-78636428D02*
X134940857Y-78369761D01*
X135359904Y-78255476D02*
X135359904Y-78636428D01*
X134559904Y-78636428D01*
X134559904Y-78255476D01*
X134940857Y-77645952D02*
X134940857Y-77912619D01*
X135359904Y-77912619D02*
X134559904Y-77912619D01*
X134559904Y-77531666D01*
X132821809Y-79586428D02*
X132859904Y-79472142D01*
X132859904Y-79281666D01*
X132821809Y-79205476D01*
X132783714Y-79167380D01*
X132707523Y-79129285D01*
X132631333Y-79129285D01*
X132555142Y-79167380D01*
X132517047Y-79205476D01*
X132478952Y-79281666D01*
X132440857Y-79434047D01*
X132402761Y-79510238D01*
X132364666Y-79548333D01*
X132288476Y-79586428D01*
X132212285Y-79586428D01*
X132136095Y-79548333D01*
X132098000Y-79510238D01*
X132059904Y-79434047D01*
X132059904Y-79243571D01*
X132098000Y-79129285D01*
X132859904Y-78786428D02*
X132059904Y-78786428D01*
X132059904Y-78595952D01*
X132098000Y-78481666D01*
X132174190Y-78405476D01*
X132250380Y-78367380D01*
X132402761Y-78329285D01*
X132517047Y-78329285D01*
X132669428Y-78367380D01*
X132745619Y-78405476D01*
X132821809Y-78481666D01*
X132859904Y-78595952D01*
X132859904Y-78786428D01*
X132631333Y-78024523D02*
X132631333Y-77643571D01*
X132859904Y-78100714D02*
X132059904Y-77834047D01*
X132859904Y-77567380D01*
X130071809Y-79567380D02*
X130109904Y-79453095D01*
X130109904Y-79262619D01*
X130071809Y-79186428D01*
X130033714Y-79148333D01*
X129957523Y-79110238D01*
X129881333Y-79110238D01*
X129805142Y-79148333D01*
X129767047Y-79186428D01*
X129728952Y-79262619D01*
X129690857Y-79415000D01*
X129652761Y-79491190D01*
X129614666Y-79529285D01*
X129538476Y-79567380D01*
X129462285Y-79567380D01*
X129386095Y-79529285D01*
X129348000Y-79491190D01*
X129309904Y-79415000D01*
X129309904Y-79224523D01*
X129348000Y-79110238D01*
X130033714Y-78310238D02*
X130071809Y-78348333D01*
X130109904Y-78462619D01*
X130109904Y-78538809D01*
X130071809Y-78653095D01*
X129995619Y-78729285D01*
X129919428Y-78767380D01*
X129767047Y-78805476D01*
X129652761Y-78805476D01*
X129500380Y-78767380D01*
X129424190Y-78729285D01*
X129348000Y-78653095D01*
X129309904Y-78538809D01*
X129309904Y-78462619D01*
X129348000Y-78348333D01*
X129386095Y-78310238D01*
X130109904Y-77586428D02*
X130109904Y-77967380D01*
X129309904Y-77967380D01*
X174631333Y-122110428D02*
X174631333Y-121729476D01*
X174859904Y-122186619D02*
X174059904Y-121919952D01*
X174859904Y-121653285D01*
X174059904Y-121005666D02*
X174059904Y-121386619D01*
X174440857Y-121424714D01*
X174402761Y-121386619D01*
X174364666Y-121310428D01*
X174364666Y-121119952D01*
X174402761Y-121043761D01*
X174440857Y-121005666D01*
X174517047Y-120967571D01*
X174707523Y-120967571D01*
X174783714Y-121005666D01*
X174821809Y-121043761D01*
X174859904Y-121119952D01*
X174859904Y-121310428D01*
X174821809Y-121386619D01*
X174783714Y-121424714D01*
X172091333Y-122110428D02*
X172091333Y-121729476D01*
X172319904Y-122186619D02*
X171519904Y-121919952D01*
X172319904Y-121653285D01*
X171786571Y-121043761D02*
X172319904Y-121043761D01*
X171481809Y-121234238D02*
X172053238Y-121424714D01*
X172053238Y-120929476D01*
X169551333Y-122110428D02*
X169551333Y-121729476D01*
X169779904Y-122186619D02*
X168979904Y-121919952D01*
X169779904Y-121653285D01*
X168979904Y-121462809D02*
X168979904Y-120967571D01*
X169284666Y-121234238D01*
X169284666Y-121119952D01*
X169322761Y-121043761D01*
X169360857Y-121005666D01*
X169437047Y-120967571D01*
X169627523Y-120967571D01*
X169703714Y-121005666D01*
X169741809Y-121043761D01*
X169779904Y-121119952D01*
X169779904Y-121348523D01*
X169741809Y-121424714D01*
X169703714Y-121462809D01*
X167138333Y-122110428D02*
X167138333Y-121729476D01*
X167366904Y-122186619D02*
X166566904Y-121919952D01*
X167366904Y-121653285D01*
X166643095Y-121424714D02*
X166605000Y-121386619D01*
X166566904Y-121310428D01*
X166566904Y-121119952D01*
X166605000Y-121043761D01*
X166643095Y-121005666D01*
X166719285Y-120967571D01*
X166795476Y-120967571D01*
X166909761Y-121005666D01*
X167366904Y-121462809D01*
X167366904Y-120967571D01*
X164344333Y-122110428D02*
X164344333Y-121729476D01*
X164572904Y-122186619D02*
X163772904Y-121919952D01*
X164572904Y-121653285D01*
X164572904Y-120967571D02*
X164572904Y-121424714D01*
X164572904Y-121196142D02*
X163772904Y-121196142D01*
X163887190Y-121272333D01*
X163963380Y-121348523D01*
X164001476Y-121424714D01*
X161931333Y-122110428D02*
X161931333Y-121729476D01*
X162159904Y-122186619D02*
X161359904Y-121919952D01*
X162159904Y-121653285D01*
X161359904Y-121234238D02*
X161359904Y-121158047D01*
X161398000Y-121081857D01*
X161436095Y-121043761D01*
X161512285Y-121005666D01*
X161664666Y-120967571D01*
X161855142Y-120967571D01*
X162007523Y-121005666D01*
X162083714Y-121043761D01*
X162121809Y-121081857D01*
X162159904Y-121158047D01*
X162159904Y-121234238D01*
X162121809Y-121310428D01*
X162083714Y-121348523D01*
X162007523Y-121386619D01*
X161855142Y-121424714D01*
X161664666Y-121424714D01*
X161512285Y-121386619D01*
X161436095Y-121348523D01*
X161398000Y-121310428D01*
X161359904Y-121234238D01*
X156279904Y-122104047D02*
X157079904Y-121837380D01*
X156279904Y-121570714D01*
X157079904Y-121304047D02*
X156546571Y-121304047D01*
X156279904Y-121304047D02*
X156318000Y-121342142D01*
X156356095Y-121304047D01*
X156318000Y-121265952D01*
X156279904Y-121304047D01*
X156356095Y-121304047D01*
X156546571Y-120923095D02*
X157079904Y-120923095D01*
X156622761Y-120923095D02*
X156584666Y-120885000D01*
X156546571Y-120808809D01*
X156546571Y-120694523D01*
X156584666Y-120618333D01*
X156660857Y-120580238D01*
X157079904Y-120580238D01*
X153778000Y-121640523D02*
X153739904Y-121716714D01*
X153739904Y-121831000D01*
X153778000Y-121945285D01*
X153854190Y-122021476D01*
X153930380Y-122059571D01*
X154082761Y-122097666D01*
X154197047Y-122097666D01*
X154349428Y-122059571D01*
X154425619Y-122021476D01*
X154501809Y-121945285D01*
X154539904Y-121831000D01*
X154539904Y-121754809D01*
X154501809Y-121640523D01*
X154463714Y-121602428D01*
X154197047Y-121602428D01*
X154197047Y-121754809D01*
X154539904Y-121259571D02*
X153739904Y-121259571D01*
X154539904Y-120802428D01*
X153739904Y-120802428D01*
X154539904Y-120421476D02*
X153739904Y-120421476D01*
X153739904Y-120231000D01*
X153778000Y-120116714D01*
X153854190Y-120040523D01*
X153930380Y-120002428D01*
X154082761Y-119964333D01*
X154197047Y-119964333D01*
X154349428Y-120002428D01*
X154425619Y-120040523D01*
X154501809Y-120116714D01*
X154539904Y-120231000D01*
X154539904Y-120421476D01*
X151238000Y-121640523D02*
X151199904Y-121716714D01*
X151199904Y-121831000D01*
X151238000Y-121945285D01*
X151314190Y-122021476D01*
X151390380Y-122059571D01*
X151542761Y-122097666D01*
X151657047Y-122097666D01*
X151809428Y-122059571D01*
X151885619Y-122021476D01*
X151961809Y-121945285D01*
X151999904Y-121831000D01*
X151999904Y-121754809D01*
X151961809Y-121640523D01*
X151923714Y-121602428D01*
X151657047Y-121602428D01*
X151657047Y-121754809D01*
X151999904Y-121259571D02*
X151199904Y-121259571D01*
X151999904Y-120802428D01*
X151199904Y-120802428D01*
X151999904Y-120421476D02*
X151199904Y-120421476D01*
X151199904Y-120231000D01*
X151238000Y-120116714D01*
X151314190Y-120040523D01*
X151390380Y-120002428D01*
X151542761Y-119964333D01*
X151657047Y-119964333D01*
X151809428Y-120002428D01*
X151885619Y-120040523D01*
X151961809Y-120116714D01*
X151999904Y-120231000D01*
X151999904Y-120421476D01*
X149155142Y-122059571D02*
X149155142Y-121450047D01*
X149459904Y-121754809D02*
X148850380Y-121754809D01*
X148659904Y-120688142D02*
X148659904Y-121069095D01*
X149040857Y-121107190D01*
X149002761Y-121069095D01*
X148964666Y-120992904D01*
X148964666Y-120802428D01*
X149002761Y-120726238D01*
X149040857Y-120688142D01*
X149117047Y-120650047D01*
X149307523Y-120650047D01*
X149383714Y-120688142D01*
X149421809Y-120726238D01*
X149459904Y-120802428D01*
X149459904Y-120992904D01*
X149421809Y-121069095D01*
X149383714Y-121107190D01*
X148659904Y-120421476D02*
X149459904Y-120154809D01*
X148659904Y-119888142D01*
X146119904Y-122211952D02*
X146119904Y-121716714D01*
X146424666Y-121983380D01*
X146424666Y-121869095D01*
X146462761Y-121792904D01*
X146500857Y-121754809D01*
X146577047Y-121716714D01*
X146767523Y-121716714D01*
X146843714Y-121754809D01*
X146881809Y-121792904D01*
X146919904Y-121869095D01*
X146919904Y-122097666D01*
X146881809Y-122173857D01*
X146843714Y-122211952D01*
X146843714Y-121373857D02*
X146881809Y-121335761D01*
X146919904Y-121373857D01*
X146881809Y-121411952D01*
X146843714Y-121373857D01*
X146919904Y-121373857D01*
X146119904Y-121069095D02*
X146119904Y-120573857D01*
X146424666Y-120840523D01*
X146424666Y-120726238D01*
X146462761Y-120650047D01*
X146500857Y-120611952D01*
X146577047Y-120573857D01*
X146767523Y-120573857D01*
X146843714Y-120611952D01*
X146881809Y-120650047D01*
X146919904Y-120726238D01*
X146919904Y-120954809D01*
X146881809Y-121031000D01*
X146843714Y-121069095D01*
X146119904Y-120345285D02*
X146919904Y-120078619D01*
X146119904Y-119811952D01*
X144125904Y-121684904D02*
X143744952Y-121951571D01*
X144125904Y-122142047D02*
X143325904Y-122142047D01*
X143325904Y-121837285D01*
X143364000Y-121761095D01*
X143402095Y-121723000D01*
X143478285Y-121684904D01*
X143592571Y-121684904D01*
X143668761Y-121723000D01*
X143706857Y-121761095D01*
X143744952Y-121837285D01*
X143744952Y-122142047D01*
X143706857Y-121342047D02*
X143706857Y-121075380D01*
X144125904Y-120961095D02*
X144125904Y-121342047D01*
X143325904Y-121342047D01*
X143325904Y-120961095D01*
X144087809Y-120656333D02*
X144125904Y-120542047D01*
X144125904Y-120351571D01*
X144087809Y-120275380D01*
X144049714Y-120237285D01*
X143973523Y-120199190D01*
X143897333Y-120199190D01*
X143821142Y-120237285D01*
X143783047Y-120275380D01*
X143744952Y-120351571D01*
X143706857Y-120503952D01*
X143668761Y-120580142D01*
X143630666Y-120618238D01*
X143554476Y-120656333D01*
X143478285Y-120656333D01*
X143402095Y-120618238D01*
X143364000Y-120580142D01*
X143325904Y-120503952D01*
X143325904Y-120313476D01*
X143364000Y-120199190D01*
X143706857Y-119856333D02*
X143706857Y-119589666D01*
X144125904Y-119475380D02*
X144125904Y-119856333D01*
X143325904Y-119856333D01*
X143325904Y-119475380D01*
X143325904Y-119246809D02*
X143325904Y-118789666D01*
X144125904Y-119018238D02*
X143325904Y-119018238D01*
X141839904Y-122173809D02*
X141039904Y-122173809D01*
X141039904Y-121640476D02*
X141039904Y-121488095D01*
X141078000Y-121411904D01*
X141154190Y-121335714D01*
X141306571Y-121297619D01*
X141573238Y-121297619D01*
X141725619Y-121335714D01*
X141801809Y-121411904D01*
X141839904Y-121488095D01*
X141839904Y-121640476D01*
X141801809Y-121716666D01*
X141725619Y-121792857D01*
X141573238Y-121830952D01*
X141306571Y-121830952D01*
X141154190Y-121792857D01*
X141078000Y-121716666D01*
X141039904Y-121640476D01*
X141839904Y-120497619D02*
X141458952Y-120764285D01*
X141839904Y-120954761D02*
X141039904Y-120954761D01*
X141039904Y-120650000D01*
X141078000Y-120573809D01*
X141116095Y-120535714D01*
X141192285Y-120497619D01*
X141306571Y-120497619D01*
X141382761Y-120535714D01*
X141420857Y-120573809D01*
X141458952Y-120650000D01*
X141458952Y-120954761D01*
X141420857Y-120154761D02*
X141420857Y-119888095D01*
X141839904Y-119773809D02*
X141839904Y-120154761D01*
X141039904Y-120154761D01*
X141039904Y-119773809D01*
X141420857Y-119164285D02*
X141420857Y-119430952D01*
X141839904Y-119430952D02*
X141039904Y-119430952D01*
X141039904Y-119050000D01*
X129951476Y-137546000D02*
X129875285Y-137507904D01*
X129761000Y-137507904D01*
X129646714Y-137546000D01*
X129570523Y-137622190D01*
X129532428Y-137698380D01*
X129494333Y-137850761D01*
X129494333Y-137965047D01*
X129532428Y-138117428D01*
X129570523Y-138193619D01*
X129646714Y-138269809D01*
X129761000Y-138307904D01*
X129837190Y-138307904D01*
X129951476Y-138269809D01*
X129989571Y-138231714D01*
X129989571Y-137965047D01*
X129837190Y-137965047D01*
X130332428Y-138307904D02*
X130332428Y-137507904D01*
X130789571Y-138307904D01*
X130789571Y-137507904D01*
X131170523Y-138307904D02*
X131170523Y-137507904D01*
X131361000Y-137507904D01*
X131475285Y-137546000D01*
X131551476Y-137622190D01*
X131589571Y-137698380D01*
X131627666Y-137850761D01*
X131627666Y-137965047D01*
X131589571Y-138117428D01*
X131551476Y-138193619D01*
X131475285Y-138269809D01*
X131361000Y-138307904D01*
X131170523Y-138307904D01*
X124532428Y-138003142D02*
X125141952Y-138003142D01*
X124837190Y-138307904D02*
X124837190Y-137698380D01*
X125903857Y-137507904D02*
X125522904Y-137507904D01*
X125484809Y-137888857D01*
X125522904Y-137850761D01*
X125599095Y-137812666D01*
X125789571Y-137812666D01*
X125865761Y-137850761D01*
X125903857Y-137888857D01*
X125941952Y-137965047D01*
X125941952Y-138155523D01*
X125903857Y-138231714D01*
X125865761Y-138269809D01*
X125789571Y-138307904D01*
X125599095Y-138307904D01*
X125522904Y-138269809D01*
X125484809Y-138231714D01*
X126170523Y-137507904D02*
X126437190Y-138307904D01*
X126703857Y-137507904D01*
X164566761Y-138182333D02*
X164947714Y-138182333D01*
X164490571Y-138410904D02*
X164757238Y-137610904D01*
X165023904Y-138410904D01*
X165747714Y-138410904D02*
X165481047Y-138029952D01*
X165290571Y-138410904D02*
X165290571Y-137610904D01*
X165595333Y-137610904D01*
X165671523Y-137649000D01*
X165709619Y-137687095D01*
X165747714Y-137763285D01*
X165747714Y-137877571D01*
X165709619Y-137953761D01*
X165671523Y-137991857D01*
X165595333Y-138029952D01*
X165290571Y-138029952D01*
X166090571Y-137991857D02*
X166357238Y-137991857D01*
X166471523Y-138410904D02*
X166090571Y-138410904D01*
X166090571Y-137610904D01*
X166471523Y-137610904D01*
X167081047Y-137991857D02*
X166814380Y-137991857D01*
X166814380Y-138410904D02*
X166814380Y-137610904D01*
X167195333Y-137610904D01*
X160464571Y-138182333D02*
X160845523Y-138182333D01*
X160388380Y-138410904D02*
X160655047Y-137610904D01*
X160921714Y-138410904D01*
X161607428Y-138410904D02*
X161150285Y-138410904D01*
X161378857Y-138410904D02*
X161378857Y-137610904D01*
X161302666Y-137725190D01*
X161226476Y-137801380D01*
X161150285Y-137839476D01*
X155638571Y-138182333D02*
X156019523Y-138182333D01*
X155562380Y-138410904D02*
X155829047Y-137610904D01*
X156095714Y-138410904D01*
X156514761Y-137610904D02*
X156590952Y-137610904D01*
X156667142Y-137649000D01*
X156705238Y-137687095D01*
X156743333Y-137763285D01*
X156781428Y-137915666D01*
X156781428Y-138106142D01*
X156743333Y-138258523D01*
X156705238Y-138334714D01*
X156667142Y-138372809D01*
X156590952Y-138410904D01*
X156514761Y-138410904D01*
X156438571Y-138372809D01*
X156400476Y-138334714D01*
X156362380Y-138258523D01*
X156324285Y-138106142D01*
X156324285Y-137915666D01*
X156362380Y-137763285D01*
X156400476Y-137687095D01*
X156438571Y-137649000D01*
X156514761Y-137610904D01*
X151282380Y-137877571D02*
X151282380Y-138410904D01*
X151091904Y-137572809D02*
X150901428Y-138144238D01*
X151396666Y-138144238D01*
X146208761Y-137610904D02*
X145827809Y-137610904D01*
X145789714Y-137991857D01*
X145827809Y-137953761D01*
X145904000Y-137915666D01*
X146094476Y-137915666D01*
X146170666Y-137953761D01*
X146208761Y-137991857D01*
X146246857Y-138068047D01*
X146246857Y-138258523D01*
X146208761Y-138334714D01*
X146170666Y-138372809D01*
X146094476Y-138410904D01*
X145904000Y-138410904D01*
X145827809Y-138372809D01*
X145789714Y-138334714D01*
X146475428Y-138106142D02*
X146513523Y-138068047D01*
X146589714Y-138029952D01*
X146742095Y-138106142D01*
X146818285Y-138068047D01*
X146856380Y-138029952D01*
X141090666Y-137610904D02*
X140938285Y-137610904D01*
X140862095Y-137649000D01*
X140824000Y-137687095D01*
X140747809Y-137801380D01*
X140709714Y-137953761D01*
X140709714Y-138258523D01*
X140747809Y-138334714D01*
X140785904Y-138372809D01*
X140862095Y-138410904D01*
X141014476Y-138410904D01*
X141090666Y-138372809D01*
X141128761Y-138334714D01*
X141166857Y-138258523D01*
X141166857Y-138068047D01*
X141128761Y-137991857D01*
X141090666Y-137953761D01*
X141014476Y-137915666D01*
X140862095Y-137915666D01*
X140785904Y-137953761D01*
X140747809Y-137991857D01*
X140709714Y-138068047D01*
X141395428Y-138106142D02*
X141433523Y-138068047D01*
X141509714Y-138029952D01*
X141662095Y-138106142D01*
X141738285Y-138068047D01*
X141776380Y-138029952D01*
X135877333Y-137610904D02*
X136410666Y-137610904D01*
X136067809Y-138410904D01*
X177400000Y-98399523D02*
X177361904Y-98475714D01*
X177361904Y-98590000D01*
X177400000Y-98704285D01*
X177476190Y-98780476D01*
X177552380Y-98818571D01*
X177704761Y-98856666D01*
X177819047Y-98856666D01*
X177971428Y-98818571D01*
X178047619Y-98780476D01*
X178123809Y-98704285D01*
X178161904Y-98590000D01*
X178161904Y-98513809D01*
X178123809Y-98399523D01*
X178085714Y-98361428D01*
X177819047Y-98361428D01*
X177819047Y-98513809D01*
X178161904Y-98018571D02*
X177361904Y-98018571D01*
X178161904Y-97561428D01*
X177361904Y-97561428D01*
X178161904Y-97180476D02*
X177361904Y-97180476D01*
X177361904Y-96990000D01*
X177400000Y-96875714D01*
X177476190Y-96799523D01*
X177552380Y-96761428D01*
X177704761Y-96723333D01*
X177819047Y-96723333D01*
X177971428Y-96761428D01*
X178047619Y-96799523D01*
X178123809Y-96875714D01*
X178161904Y-96990000D01*
X178161904Y-97180476D01*
X178123809Y-103187380D02*
X178161904Y-103073095D01*
X178161904Y-102882619D01*
X178123809Y-102806428D01*
X178085714Y-102768333D01*
X178009523Y-102730238D01*
X177933333Y-102730238D01*
X177857142Y-102768333D01*
X177819047Y-102806428D01*
X177780952Y-102882619D01*
X177742857Y-103035000D01*
X177704761Y-103111190D01*
X177666666Y-103149285D01*
X177590476Y-103187380D01*
X177514285Y-103187380D01*
X177438095Y-103149285D01*
X177400000Y-103111190D01*
X177361904Y-103035000D01*
X177361904Y-102844523D01*
X177400000Y-102730238D01*
X178085714Y-101930238D02*
X178123809Y-101968333D01*
X178161904Y-102082619D01*
X178161904Y-102158809D01*
X178123809Y-102273095D01*
X178047619Y-102349285D01*
X177971428Y-102387380D01*
X177819047Y-102425476D01*
X177704761Y-102425476D01*
X177552380Y-102387380D01*
X177476190Y-102349285D01*
X177400000Y-102273095D01*
X177361904Y-102158809D01*
X177361904Y-102082619D01*
X177400000Y-101968333D01*
X177438095Y-101930238D01*
X178161904Y-101206428D02*
X178161904Y-101587380D01*
X177361904Y-101587380D01*
X178123809Y-108286428D02*
X178161904Y-108172142D01*
X178161904Y-107981666D01*
X178123809Y-107905476D01*
X178085714Y-107867380D01*
X178009523Y-107829285D01*
X177933333Y-107829285D01*
X177857142Y-107867380D01*
X177819047Y-107905476D01*
X177780952Y-107981666D01*
X177742857Y-108134047D01*
X177704761Y-108210238D01*
X177666666Y-108248333D01*
X177590476Y-108286428D01*
X177514285Y-108286428D01*
X177438095Y-108248333D01*
X177400000Y-108210238D01*
X177361904Y-108134047D01*
X177361904Y-107943571D01*
X177400000Y-107829285D01*
X178161904Y-107486428D02*
X177361904Y-107486428D01*
X177361904Y-107295952D01*
X177400000Y-107181666D01*
X177476190Y-107105476D01*
X177552380Y-107067380D01*
X177704761Y-107029285D01*
X177819047Y-107029285D01*
X177971428Y-107067380D01*
X178047619Y-107105476D01*
X178123809Y-107181666D01*
X178161904Y-107295952D01*
X178161904Y-107486428D01*
X177933333Y-106724523D02*
X177933333Y-106343571D01*
X178161904Y-106800714D02*
X177361904Y-106534047D01*
X178161904Y-106267380D01*
X177857142Y-113423571D02*
X177857142Y-112814047D01*
X178161904Y-113118809D02*
X177552380Y-113118809D01*
X177361904Y-112052142D02*
X177361904Y-112433095D01*
X177742857Y-112471190D01*
X177704761Y-112433095D01*
X177666666Y-112356904D01*
X177666666Y-112166428D01*
X177704761Y-112090238D01*
X177742857Y-112052142D01*
X177819047Y-112014047D01*
X178009523Y-112014047D01*
X178085714Y-112052142D01*
X178123809Y-112090238D01*
X178161904Y-112166428D01*
X178161904Y-112356904D01*
X178123809Y-112433095D01*
X178085714Y-112471190D01*
X177361904Y-111785476D02*
X178161904Y-111518809D01*
X177361904Y-111252142D01*
D10*
G04 #@! TO.C,P8*
X179324000Y-90805000D02*
G75*
G03X179324000Y-90805000I-2286000J0D01*
G01*
G04 #@! TO.C,P6*
X179324000Y-118745000D02*
G75*
G03X179324000Y-118745000I-2286000J0D01*
G01*
D13*
G04 #@! TO.C,P10*
X163376000Y-136561000D02*
X163376000Y-137061000D01*
X167876000Y-132561000D02*
G75*
G03X167876000Y-132561000I-2000000J0D01*
G01*
X162876000Y-132561000D02*
G75*
G03X162876000Y-132561000I-2000000J0D01*
G01*
X158376000Y-136561000D02*
X158376000Y-137061000D01*
X153376000Y-136561000D02*
X153376000Y-137061000D01*
X157876000Y-132561000D02*
G75*
G03X157876000Y-132561000I-2000000J0D01*
G01*
X148376000Y-136561000D02*
X148376000Y-137061000D01*
X152876000Y-132561000D02*
G75*
G03X152876000Y-132561000I-2000000J0D01*
G01*
X147876000Y-132561000D02*
G75*
G03X147876000Y-132561000I-2000000J0D01*
G01*
X143376000Y-136561000D02*
X143376000Y-137061000D01*
X138376000Y-136561000D02*
X138376000Y-137061000D01*
X142876000Y-132561000D02*
G75*
G03X142876000Y-132561000I-2000000J0D01*
G01*
X137876000Y-132561000D02*
G75*
G03X137876000Y-132561000I-2000000J0D01*
G01*
X133376000Y-135061000D02*
X168376000Y-135061000D01*
X133376000Y-130161000D02*
X168376000Y-130161000D01*
X133376000Y-136561000D02*
X168376000Y-136561000D01*
X133376000Y-137061000D02*
X168376000Y-137061000D01*
X168376000Y-137061000D02*
X168376000Y-127261000D01*
X168376000Y-127261000D02*
X133376000Y-127261000D01*
X133376000Y-127261000D02*
X133376000Y-137061000D01*
D10*
G04 #@! TO.C,P5*
X127254000Y-123825000D02*
G75*
G03X127254000Y-123825000I-2286000J0D01*
G01*
G04 #@! TO.C,P7*
X128524000Y-75565000D02*
G75*
G03X128524000Y-75565000I-2286000J0D01*
G01*
D13*
G04 #@! TO.C,P9*
X175931000Y-99775000D02*
X176431000Y-99775000D01*
X173931000Y-97275000D02*
G75*
G03X173931000Y-97275000I-2000000J0D01*
G01*
X173931000Y-102275000D02*
G75*
G03X173931000Y-102275000I-2000000J0D01*
G01*
X175931000Y-104775000D02*
X176431000Y-104775000D01*
X175931000Y-109775000D02*
X176431000Y-109775000D01*
X173931000Y-107275000D02*
G75*
G03X173931000Y-107275000I-2000000J0D01*
G01*
X173931000Y-112275000D02*
G75*
G03X173931000Y-112275000I-2000000J0D01*
G01*
X174431000Y-114775000D02*
X174431000Y-94775000D01*
X169531000Y-114775000D02*
X169531000Y-94775000D01*
X175931000Y-114775000D02*
X175931000Y-94775000D01*
X176431000Y-114775000D02*
X176431000Y-94775000D01*
X176431000Y-94775000D02*
X166631000Y-94775000D01*
X166631000Y-94775000D02*
X166631000Y-114775000D01*
X166631000Y-114775000D02*
X176431000Y-114775000D01*
G04 #@! TO.C,P11*
X128524000Y-136561000D02*
X128524000Y-137061000D01*
X133024000Y-132561000D02*
G75*
G03X133024000Y-132561000I-2000000J0D01*
G01*
X128024000Y-132561000D02*
G75*
G03X128024000Y-132561000I-2000000J0D01*
G01*
X123524000Y-135061000D02*
X133524000Y-135061000D01*
X123524000Y-130161000D02*
X133524000Y-130161000D01*
X123524000Y-136561000D02*
X133524000Y-136561000D01*
X123524000Y-137061000D02*
X133524000Y-137061000D01*
X133524000Y-137061000D02*
X133524000Y-127261000D01*
X133524000Y-127261000D02*
X123524000Y-127261000D01*
X123524000Y-127261000D02*
X123524000Y-137061000D01*
G04 #@! TO.C,J1*
X182768000Y-132561000D02*
G75*
G03X182768000Y-132561000I-2000000J0D01*
G01*
X178268000Y-136561000D02*
X178268000Y-137061000D01*
X173268000Y-136561000D02*
X173268000Y-137061000D01*
X177768000Y-132561000D02*
G75*
G03X177768000Y-132561000I-2000000J0D01*
G01*
X172768000Y-132561000D02*
G75*
G03X172768000Y-132561000I-2000000J0D01*
G01*
X168268000Y-135061000D02*
X183268000Y-135061000D01*
X168268000Y-130161000D02*
X183268000Y-130161000D01*
X168268000Y-136561000D02*
X183268000Y-136561000D01*
X168268000Y-137061000D02*
X183268000Y-137061000D01*
X183268000Y-137061000D02*
X183268000Y-127261000D01*
X183268000Y-127261000D02*
X168268000Y-127261000D01*
X168268000Y-127261000D02*
X168268000Y-137061000D01*
D14*
G04 #@! TO.C,P12*
X136525000Y-99949000D02*
X133985000Y-99949000D01*
X133985000Y-107569000D02*
X133985000Y-97409000D01*
X136525000Y-97409000D02*
X136525000Y-107569000D01*
X133985000Y-97409000D02*
X136525000Y-97409000D01*
X136525000Y-107569000D02*
X133985000Y-107569000D01*
G04 #@! TO.C,P10*
D15*
X141886857Y-126845190D02*
X141886857Y-126345190D01*
X142077333Y-126345190D01*
X142124952Y-126369000D01*
X142148761Y-126392809D01*
X142172571Y-126440428D01*
X142172571Y-126511857D01*
X142148761Y-126559476D01*
X142124952Y-126583285D01*
X142077333Y-126607095D01*
X141886857Y-126607095D01*
X142648761Y-126845190D02*
X142363047Y-126845190D01*
X142505904Y-126845190D02*
X142505904Y-126345190D01*
X142458285Y-126416619D01*
X142410666Y-126464238D01*
X142363047Y-126488047D01*
X142958285Y-126345190D02*
X143005904Y-126345190D01*
X143053523Y-126369000D01*
X143077333Y-126392809D01*
X143101142Y-126440428D01*
X143124952Y-126535666D01*
X143124952Y-126654714D01*
X143101142Y-126749952D01*
X143077333Y-126797571D01*
X143053523Y-126821380D01*
X143005904Y-126845190D01*
X142958285Y-126845190D01*
X142910666Y-126821380D01*
X142886857Y-126797571D01*
X142863047Y-126749952D01*
X142839238Y-126654714D01*
X142839238Y-126535666D01*
X142863047Y-126440428D01*
X142886857Y-126392809D01*
X142910666Y-126369000D01*
X142958285Y-126345190D01*
X136926095Y-126797571D02*
X136902285Y-126821380D01*
X136830857Y-126845190D01*
X136783238Y-126845190D01*
X136711809Y-126821380D01*
X136664190Y-126773761D01*
X136640380Y-126726142D01*
X136616571Y-126630904D01*
X136616571Y-126559476D01*
X136640380Y-126464238D01*
X136664190Y-126416619D01*
X136711809Y-126369000D01*
X136783238Y-126345190D01*
X136830857Y-126345190D01*
X136902285Y-126369000D01*
X136926095Y-126392809D01*
X137235619Y-126345190D02*
X137330857Y-126345190D01*
X137378476Y-126369000D01*
X137426095Y-126416619D01*
X137449904Y-126511857D01*
X137449904Y-126678523D01*
X137426095Y-126773761D01*
X137378476Y-126821380D01*
X137330857Y-126845190D01*
X137235619Y-126845190D01*
X137188000Y-126821380D01*
X137140380Y-126773761D01*
X137116571Y-126678523D01*
X137116571Y-126511857D01*
X137140380Y-126416619D01*
X137188000Y-126369000D01*
X137235619Y-126345190D01*
X137664190Y-126845190D02*
X137664190Y-126345190D01*
X137949904Y-126845190D01*
X137949904Y-126345190D01*
X138188000Y-126845190D02*
X138188000Y-126345190D01*
X138473714Y-126845190D01*
X138473714Y-126345190D01*
X138592761Y-126892809D02*
X138973714Y-126892809D01*
X139188000Y-126345190D02*
X139235619Y-126345190D01*
X139283238Y-126369000D01*
X139307047Y-126392809D01*
X139330857Y-126440428D01*
X139354666Y-126535666D01*
X139354666Y-126654714D01*
X139330857Y-126749952D01*
X139307047Y-126797571D01*
X139283238Y-126821380D01*
X139235619Y-126845190D01*
X139188000Y-126845190D01*
X139140380Y-126821380D01*
X139116571Y-126797571D01*
X139092761Y-126749952D01*
X139068952Y-126654714D01*
X139068952Y-126535666D01*
X139092761Y-126440428D01*
X139116571Y-126392809D01*
X139140380Y-126369000D01*
X139188000Y-126345190D01*
X139830857Y-126845190D02*
X139545142Y-126845190D01*
X139688000Y-126845190D02*
X139688000Y-126345190D01*
X139640380Y-126416619D01*
X139592761Y-126464238D01*
X139545142Y-126488047D01*
X139997523Y-126345190D02*
X140330857Y-126845190D01*
X140330857Y-126345190D02*
X139997523Y-126845190D01*
X140616571Y-126345190D02*
X140664190Y-126345190D01*
X140711809Y-126369000D01*
X140735619Y-126392809D01*
X140759428Y-126440428D01*
X140783238Y-126535666D01*
X140783238Y-126654714D01*
X140759428Y-126749952D01*
X140735619Y-126797571D01*
X140711809Y-126821380D01*
X140664190Y-126845190D01*
X140616571Y-126845190D01*
X140568952Y-126821380D01*
X140545142Y-126797571D01*
X140521333Y-126749952D01*
X140497523Y-126654714D01*
X140497523Y-126535666D01*
X140521333Y-126440428D01*
X140545142Y-126392809D01*
X140568952Y-126369000D01*
X140616571Y-126345190D01*
X140949904Y-126345190D02*
X141283238Y-126345190D01*
X141068952Y-126845190D01*
G04 #@! TO.C,P9*
X169429952Y-94333190D02*
X169429952Y-93833190D01*
X169620428Y-93833190D01*
X169668047Y-93857000D01*
X169691857Y-93880809D01*
X169715666Y-93928428D01*
X169715666Y-93999857D01*
X169691857Y-94047476D01*
X169668047Y-94071285D01*
X169620428Y-94095095D01*
X169429952Y-94095095D01*
X169953761Y-94333190D02*
X170049000Y-94333190D01*
X170096619Y-94309380D01*
X170120428Y-94285571D01*
X170168047Y-94214142D01*
X170191857Y-94118904D01*
X170191857Y-93928428D01*
X170168047Y-93880809D01*
X170144238Y-93857000D01*
X170096619Y-93833190D01*
X170001380Y-93833190D01*
X169953761Y-93857000D01*
X169929952Y-93880809D01*
X169906142Y-93928428D01*
X169906142Y-94047476D01*
X169929952Y-94095095D01*
X169953761Y-94118904D01*
X170001380Y-94142714D01*
X170096619Y-94142714D01*
X170144238Y-94118904D01*
X170168047Y-94095095D01*
X170191857Y-94047476D01*
X171851095Y-94285571D02*
X171827285Y-94309380D01*
X171755857Y-94333190D01*
X171708238Y-94333190D01*
X171636809Y-94309380D01*
X171589190Y-94261761D01*
X171565380Y-94214142D01*
X171541571Y-94118904D01*
X171541571Y-94047476D01*
X171565380Y-93952238D01*
X171589190Y-93904619D01*
X171636809Y-93857000D01*
X171708238Y-93833190D01*
X171755857Y-93833190D01*
X171827285Y-93857000D01*
X171851095Y-93880809D01*
X172160619Y-93833190D02*
X172255857Y-93833190D01*
X172303476Y-93857000D01*
X172351095Y-93904619D01*
X172374904Y-93999857D01*
X172374904Y-94166523D01*
X172351095Y-94261761D01*
X172303476Y-94309380D01*
X172255857Y-94333190D01*
X172160619Y-94333190D01*
X172113000Y-94309380D01*
X172065380Y-94261761D01*
X172041571Y-94166523D01*
X172041571Y-93999857D01*
X172065380Y-93904619D01*
X172113000Y-93857000D01*
X172160619Y-93833190D01*
X172589190Y-94333190D02*
X172589190Y-93833190D01*
X172874904Y-94333190D01*
X172874904Y-93833190D01*
X173113000Y-94333190D02*
X173113000Y-93833190D01*
X173398714Y-94333190D01*
X173398714Y-93833190D01*
X173517761Y-94380809D02*
X173898714Y-94380809D01*
X174113000Y-93833190D02*
X174160619Y-93833190D01*
X174208238Y-93857000D01*
X174232047Y-93880809D01*
X174255857Y-93928428D01*
X174279666Y-94023666D01*
X174279666Y-94142714D01*
X174255857Y-94237952D01*
X174232047Y-94285571D01*
X174208238Y-94309380D01*
X174160619Y-94333190D01*
X174113000Y-94333190D01*
X174065380Y-94309380D01*
X174041571Y-94285571D01*
X174017761Y-94237952D01*
X173993952Y-94142714D01*
X173993952Y-94023666D01*
X174017761Y-93928428D01*
X174041571Y-93880809D01*
X174065380Y-93857000D01*
X174113000Y-93833190D01*
X174755857Y-94333190D02*
X174470142Y-94333190D01*
X174613000Y-94333190D02*
X174613000Y-93833190D01*
X174565380Y-93904619D01*
X174517761Y-93952238D01*
X174470142Y-93976047D01*
X174922523Y-93833190D02*
X175255857Y-94333190D01*
X175255857Y-93833190D02*
X174922523Y-94333190D01*
X175541571Y-93833190D02*
X175589190Y-93833190D01*
X175636809Y-93857000D01*
X175660619Y-93880809D01*
X175684428Y-93928428D01*
X175708238Y-94023666D01*
X175708238Y-94142714D01*
X175684428Y-94237952D01*
X175660619Y-94285571D01*
X175636809Y-94309380D01*
X175589190Y-94333190D01*
X175541571Y-94333190D01*
X175493952Y-94309380D01*
X175470142Y-94285571D01*
X175446333Y-94237952D01*
X175422523Y-94142714D01*
X175422523Y-94023666D01*
X175446333Y-93928428D01*
X175470142Y-93880809D01*
X175493952Y-93857000D01*
X175541571Y-93833190D01*
X176136809Y-93999857D02*
X176136809Y-94333190D01*
X176017761Y-93809380D02*
X175898714Y-94166523D01*
X176208238Y-94166523D01*
G04 #@! TO.C,P11*
X123162190Y-130782142D02*
X122662190Y-130782142D01*
X122662190Y-130591666D01*
X122686000Y-130544047D01*
X122709809Y-130520238D01*
X122757428Y-130496428D01*
X122828857Y-130496428D01*
X122876476Y-130520238D01*
X122900285Y-130544047D01*
X122924095Y-130591666D01*
X122924095Y-130782142D01*
X123162190Y-130020238D02*
X123162190Y-130305952D01*
X123162190Y-130163095D02*
X122662190Y-130163095D01*
X122733619Y-130210714D01*
X122781238Y-130258333D01*
X122805047Y-130305952D01*
X123162190Y-129544047D02*
X123162190Y-129829761D01*
X123162190Y-129686904D02*
X122662190Y-129686904D01*
X122733619Y-129734523D01*
X122781238Y-129782142D01*
X122805047Y-129829761D01*
X123114571Y-136250904D02*
X123138380Y-136274714D01*
X123162190Y-136346142D01*
X123162190Y-136393761D01*
X123138380Y-136465190D01*
X123090761Y-136512809D01*
X123043142Y-136536619D01*
X122947904Y-136560428D01*
X122876476Y-136560428D01*
X122781238Y-136536619D01*
X122733619Y-136512809D01*
X122686000Y-136465190D01*
X122662190Y-136393761D01*
X122662190Y-136346142D01*
X122686000Y-136274714D01*
X122709809Y-136250904D01*
X122662190Y-135941380D02*
X122662190Y-135846142D01*
X122686000Y-135798523D01*
X122733619Y-135750904D01*
X122828857Y-135727095D01*
X122995523Y-135727095D01*
X123090761Y-135750904D01*
X123138380Y-135798523D01*
X123162190Y-135846142D01*
X123162190Y-135941380D01*
X123138380Y-135989000D01*
X123090761Y-136036619D01*
X122995523Y-136060428D01*
X122828857Y-136060428D01*
X122733619Y-136036619D01*
X122686000Y-135989000D01*
X122662190Y-135941380D01*
X123162190Y-135512809D02*
X122662190Y-135512809D01*
X123162190Y-135227095D01*
X122662190Y-135227095D01*
X123162190Y-134989000D02*
X122662190Y-134989000D01*
X123162190Y-134703285D01*
X122662190Y-134703285D01*
X123209809Y-134584238D02*
X123209809Y-134203285D01*
X122662190Y-133989000D02*
X122662190Y-133941380D01*
X122686000Y-133893761D01*
X122709809Y-133869952D01*
X122757428Y-133846142D01*
X122852666Y-133822333D01*
X122971714Y-133822333D01*
X123066952Y-133846142D01*
X123114571Y-133869952D01*
X123138380Y-133893761D01*
X123162190Y-133941380D01*
X123162190Y-133989000D01*
X123138380Y-134036619D01*
X123114571Y-134060428D01*
X123066952Y-134084238D01*
X122971714Y-134108047D01*
X122852666Y-134108047D01*
X122757428Y-134084238D01*
X122709809Y-134060428D01*
X122686000Y-134036619D01*
X122662190Y-133989000D01*
X123162190Y-133346142D02*
X123162190Y-133631857D01*
X123162190Y-133489000D02*
X122662190Y-133489000D01*
X122733619Y-133536619D01*
X122781238Y-133584238D01*
X122805047Y-133631857D01*
X122662190Y-133179476D02*
X123162190Y-132846142D01*
X122662190Y-132846142D02*
X123162190Y-133179476D01*
X122662190Y-132560428D02*
X122662190Y-132512809D01*
X122686000Y-132465190D01*
X122709809Y-132441380D01*
X122757428Y-132417571D01*
X122852666Y-132393761D01*
X122971714Y-132393761D01*
X123066952Y-132417571D01*
X123114571Y-132441380D01*
X123138380Y-132465190D01*
X123162190Y-132512809D01*
X123162190Y-132560428D01*
X123138380Y-132608047D01*
X123114571Y-132631857D01*
X123066952Y-132655666D01*
X122971714Y-132679476D01*
X122852666Y-132679476D01*
X122757428Y-132655666D01*
X122709809Y-132631857D01*
X122686000Y-132608047D01*
X122662190Y-132560428D01*
X122709809Y-132203285D02*
X122686000Y-132179476D01*
X122662190Y-132131857D01*
X122662190Y-132012809D01*
X122686000Y-131965190D01*
X122709809Y-131941380D01*
X122757428Y-131917571D01*
X122805047Y-131917571D01*
X122876476Y-131941380D01*
X123162190Y-132227095D01*
X123162190Y-131917571D01*
G04 #@! TO.C,J1*
X183622190Y-128309666D02*
X183979333Y-128309666D01*
X184050761Y-128333476D01*
X184098380Y-128381095D01*
X184122190Y-128452523D01*
X184122190Y-128500142D01*
X184122190Y-127809666D02*
X184122190Y-128095380D01*
X184122190Y-127952523D02*
X183622190Y-127952523D01*
X183693619Y-128000142D01*
X183741238Y-128047761D01*
X183765047Y-128095380D01*
X184074571Y-133456904D02*
X184098380Y-133480714D01*
X184122190Y-133552142D01*
X184122190Y-133599761D01*
X184098380Y-133671190D01*
X184050761Y-133718809D01*
X184003142Y-133742619D01*
X183907904Y-133766428D01*
X183836476Y-133766428D01*
X183741238Y-133742619D01*
X183693619Y-133718809D01*
X183646000Y-133671190D01*
X183622190Y-133599761D01*
X183622190Y-133552142D01*
X183646000Y-133480714D01*
X183669809Y-133456904D01*
X183622190Y-133147380D02*
X183622190Y-133052142D01*
X183646000Y-133004523D01*
X183693619Y-132956904D01*
X183788857Y-132933095D01*
X183955523Y-132933095D01*
X184050761Y-132956904D01*
X184098380Y-133004523D01*
X184122190Y-133052142D01*
X184122190Y-133147380D01*
X184098380Y-133195000D01*
X184050761Y-133242619D01*
X183955523Y-133266428D01*
X183788857Y-133266428D01*
X183693619Y-133242619D01*
X183646000Y-133195000D01*
X183622190Y-133147380D01*
X184122190Y-132718809D02*
X183622190Y-132718809D01*
X184122190Y-132433095D01*
X183622190Y-132433095D01*
X184122190Y-132195000D02*
X183622190Y-132195000D01*
X184122190Y-131909285D01*
X183622190Y-131909285D01*
X184169809Y-131790238D02*
X184169809Y-131409285D01*
X183622190Y-131195000D02*
X183622190Y-131147380D01*
X183646000Y-131099761D01*
X183669809Y-131075952D01*
X183717428Y-131052142D01*
X183812666Y-131028333D01*
X183931714Y-131028333D01*
X184026952Y-131052142D01*
X184074571Y-131075952D01*
X184098380Y-131099761D01*
X184122190Y-131147380D01*
X184122190Y-131195000D01*
X184098380Y-131242619D01*
X184074571Y-131266428D01*
X184026952Y-131290238D01*
X183931714Y-131314047D01*
X183812666Y-131314047D01*
X183717428Y-131290238D01*
X183669809Y-131266428D01*
X183646000Y-131242619D01*
X183622190Y-131195000D01*
X184122190Y-130552142D02*
X184122190Y-130837857D01*
X184122190Y-130695000D02*
X183622190Y-130695000D01*
X183693619Y-130742619D01*
X183741238Y-130790238D01*
X183765047Y-130837857D01*
X183622190Y-130385476D02*
X184122190Y-130052142D01*
X183622190Y-130052142D02*
X184122190Y-130385476D01*
X183622190Y-129766428D02*
X183622190Y-129718809D01*
X183646000Y-129671190D01*
X183669809Y-129647380D01*
X183717428Y-129623571D01*
X183812666Y-129599761D01*
X183931714Y-129599761D01*
X184026952Y-129623571D01*
X184074571Y-129647380D01*
X184098380Y-129671190D01*
X184122190Y-129718809D01*
X184122190Y-129766428D01*
X184098380Y-129814047D01*
X184074571Y-129837857D01*
X184026952Y-129861666D01*
X183931714Y-129885476D01*
X183812666Y-129885476D01*
X183717428Y-129861666D01*
X183669809Y-129837857D01*
X183646000Y-129814047D01*
X183622190Y-129766428D01*
X183622190Y-129433095D02*
X183622190Y-129123571D01*
X183812666Y-129290238D01*
X183812666Y-129218809D01*
X183836476Y-129171190D01*
X183860285Y-129147380D01*
X183907904Y-129123571D01*
X184026952Y-129123571D01*
X184074571Y-129147380D01*
X184098380Y-129171190D01*
X184122190Y-129218809D01*
X184122190Y-129361666D01*
X184098380Y-129409285D01*
X184074571Y-129433095D01*
G04 #@! TO.C,P12*
D16*
X138656190Y-103223142D02*
X138156190Y-103223142D01*
X138156190Y-103032666D01*
X138180000Y-102985047D01*
X138203809Y-102961238D01*
X138251428Y-102937428D01*
X138322857Y-102937428D01*
X138370476Y-102961238D01*
X138394285Y-102985047D01*
X138418095Y-103032666D01*
X138418095Y-103223142D01*
X138656190Y-102461238D02*
X138656190Y-102746952D01*
X138656190Y-102604095D02*
X138156190Y-102604095D01*
X138227619Y-102651714D01*
X138275238Y-102699333D01*
X138299047Y-102746952D01*
X138203809Y-102270761D02*
X138180000Y-102246952D01*
X138156190Y-102199333D01*
X138156190Y-102080285D01*
X138180000Y-102032666D01*
X138203809Y-102008857D01*
X138251428Y-101985047D01*
X138299047Y-101985047D01*
X138370476Y-102008857D01*
X138656190Y-102294571D01*
X138656190Y-101985047D01*
G04 #@! TD*
M02*
