G04 #@! TF.GenerationSoftware,KiCad,Pcbnew,(5.0.1)-3*
G04 #@! TF.CreationDate,2019-04-12T12:39:32-05:00*
G04 #@! TF.ProjectId,Arduino_As_Uno,41726475696E6F5F41735F556E6F2E6B,rev?*
G04 #@! TF.SameCoordinates,Original*
G04 #@! TF.FileFunction,Soldermask,Top*
G04 #@! TF.FilePolarity,Negative*
%FSLAX46Y46*%
G04 Gerber Fmt 4.6, Leading zero omitted, Abs format (unit mm)*
G04 Created by KiCad (PCBNEW (5.0.1)-3) date 12/04/2019 12:39:32*
%MOMM*%
%LPD*%
G01*
G04 APERTURE LIST*
%ADD10C,0.100000*%
G04 APERTURE END LIST*
D10*
G36*
X156240612Y-131259037D02*
X156468096Y-131353264D01*
X156672831Y-131490064D01*
X156846936Y-131664169D01*
X156983736Y-131868904D01*
X157077963Y-132096388D01*
X157126000Y-132337885D01*
X157126000Y-132584115D01*
X157077963Y-132825612D01*
X156983736Y-133053096D01*
X156846936Y-133257831D01*
X156672831Y-133431936D01*
X156468096Y-133568736D01*
X156240612Y-133662963D01*
X155999115Y-133711000D01*
X155752885Y-133711000D01*
X155511388Y-133662963D01*
X155283904Y-133568736D01*
X155079169Y-133431936D01*
X154905064Y-133257831D01*
X154768264Y-133053096D01*
X154674037Y-132825612D01*
X154626000Y-132584115D01*
X154626000Y-132337885D01*
X154674037Y-132096388D01*
X154768264Y-131868904D01*
X154905064Y-131664169D01*
X155079169Y-131490064D01*
X155283904Y-131353264D01*
X155511388Y-131259037D01*
X155752885Y-131211000D01*
X155999115Y-131211000D01*
X156240612Y-131259037D01*
X156240612Y-131259037D01*
G37*
G36*
X181132612Y-131259037D02*
X181360096Y-131353264D01*
X181564831Y-131490064D01*
X181738936Y-131664169D01*
X181875736Y-131868904D01*
X181969963Y-132096388D01*
X182018000Y-132337885D01*
X182018000Y-132584115D01*
X181969963Y-132825612D01*
X181875736Y-133053096D01*
X181738936Y-133257831D01*
X181564831Y-133431936D01*
X181360096Y-133568736D01*
X181132612Y-133662963D01*
X180891115Y-133711000D01*
X180644885Y-133711000D01*
X180403388Y-133662963D01*
X180175904Y-133568736D01*
X179971169Y-133431936D01*
X179797064Y-133257831D01*
X179660264Y-133053096D01*
X179566037Y-132825612D01*
X179518000Y-132584115D01*
X179518000Y-132337885D01*
X179566037Y-132096388D01*
X179660264Y-131868904D01*
X179797064Y-131664169D01*
X179971169Y-131490064D01*
X180175904Y-131353264D01*
X180403388Y-131259037D01*
X180644885Y-131211000D01*
X180891115Y-131211000D01*
X181132612Y-131259037D01*
X181132612Y-131259037D01*
G37*
G36*
X176132612Y-131259037D02*
X176360096Y-131353264D01*
X176564831Y-131490064D01*
X176738936Y-131664169D01*
X176875736Y-131868904D01*
X176969963Y-132096388D01*
X177018000Y-132337885D01*
X177018000Y-132584115D01*
X176969963Y-132825612D01*
X176875736Y-133053096D01*
X176738936Y-133257831D01*
X176564831Y-133431936D01*
X176360096Y-133568736D01*
X176132612Y-133662963D01*
X175891115Y-133711000D01*
X175644885Y-133711000D01*
X175403388Y-133662963D01*
X175175904Y-133568736D01*
X174971169Y-133431936D01*
X174797064Y-133257831D01*
X174660264Y-133053096D01*
X174566037Y-132825612D01*
X174518000Y-132584115D01*
X174518000Y-132337885D01*
X174566037Y-132096388D01*
X174660264Y-131868904D01*
X174797064Y-131664169D01*
X174971169Y-131490064D01*
X175175904Y-131353264D01*
X175403388Y-131259037D01*
X175644885Y-131211000D01*
X175891115Y-131211000D01*
X176132612Y-131259037D01*
X176132612Y-131259037D01*
G37*
G36*
X171132612Y-131259037D02*
X171360096Y-131353264D01*
X171564831Y-131490064D01*
X171738936Y-131664169D01*
X171875736Y-131868904D01*
X171969963Y-132096388D01*
X172018000Y-132337885D01*
X172018000Y-132584115D01*
X171969963Y-132825612D01*
X171875736Y-133053096D01*
X171738936Y-133257831D01*
X171564831Y-133431936D01*
X171360096Y-133568736D01*
X171132612Y-133662963D01*
X170891115Y-133711000D01*
X170644885Y-133711000D01*
X170403388Y-133662963D01*
X170175904Y-133568736D01*
X169971169Y-133431936D01*
X169797064Y-133257831D01*
X169660264Y-133053096D01*
X169566037Y-132825612D01*
X169518000Y-132584115D01*
X169518000Y-132337885D01*
X169566037Y-132096388D01*
X169660264Y-131868904D01*
X169797064Y-131664169D01*
X169971169Y-131490064D01*
X170175904Y-131353264D01*
X170403388Y-131259037D01*
X170644885Y-131211000D01*
X170891115Y-131211000D01*
X171132612Y-131259037D01*
X171132612Y-131259037D01*
G37*
G36*
X131388612Y-131259037D02*
X131616096Y-131353264D01*
X131820831Y-131490064D01*
X131994936Y-131664169D01*
X132131736Y-131868904D01*
X132225963Y-132096388D01*
X132274000Y-132337885D01*
X132274000Y-132584115D01*
X132225963Y-132825612D01*
X132131736Y-133053096D01*
X131994936Y-133257831D01*
X131820831Y-133431936D01*
X131616096Y-133568736D01*
X131388612Y-133662963D01*
X131147115Y-133711000D01*
X130900885Y-133711000D01*
X130659388Y-133662963D01*
X130431904Y-133568736D01*
X130227169Y-133431936D01*
X130053064Y-133257831D01*
X129916264Y-133053096D01*
X129822037Y-132825612D01*
X129774000Y-132584115D01*
X129774000Y-132337885D01*
X129822037Y-132096388D01*
X129916264Y-131868904D01*
X130053064Y-131664169D01*
X130227169Y-131490064D01*
X130431904Y-131353264D01*
X130659388Y-131259037D01*
X130900885Y-131211000D01*
X131147115Y-131211000D01*
X131388612Y-131259037D01*
X131388612Y-131259037D01*
G37*
G36*
X126388612Y-131259037D02*
X126616096Y-131353264D01*
X126820831Y-131490064D01*
X126994936Y-131664169D01*
X127131736Y-131868904D01*
X127225963Y-132096388D01*
X127274000Y-132337885D01*
X127274000Y-132584115D01*
X127225963Y-132825612D01*
X127131736Y-133053096D01*
X126994936Y-133257831D01*
X126820831Y-133431936D01*
X126616096Y-133568736D01*
X126388612Y-133662963D01*
X126147115Y-133711000D01*
X125900885Y-133711000D01*
X125659388Y-133662963D01*
X125431904Y-133568736D01*
X125227169Y-133431936D01*
X125053064Y-133257831D01*
X124916264Y-133053096D01*
X124822037Y-132825612D01*
X124774000Y-132584115D01*
X124774000Y-132337885D01*
X124822037Y-132096388D01*
X124916264Y-131868904D01*
X125053064Y-131664169D01*
X125227169Y-131490064D01*
X125431904Y-131353264D01*
X125659388Y-131259037D01*
X125900885Y-131211000D01*
X126147115Y-131211000D01*
X126388612Y-131259037D01*
X126388612Y-131259037D01*
G37*
G36*
X141240612Y-131259037D02*
X141468096Y-131353264D01*
X141672831Y-131490064D01*
X141846936Y-131664169D01*
X141983736Y-131868904D01*
X142077963Y-132096388D01*
X142126000Y-132337885D01*
X142126000Y-132584115D01*
X142077963Y-132825612D01*
X141983736Y-133053096D01*
X141846936Y-133257831D01*
X141672831Y-133431936D01*
X141468096Y-133568736D01*
X141240612Y-133662963D01*
X140999115Y-133711000D01*
X140752885Y-133711000D01*
X140511388Y-133662963D01*
X140283904Y-133568736D01*
X140079169Y-133431936D01*
X139905064Y-133257831D01*
X139768264Y-133053096D01*
X139674037Y-132825612D01*
X139626000Y-132584115D01*
X139626000Y-132337885D01*
X139674037Y-132096388D01*
X139768264Y-131868904D01*
X139905064Y-131664169D01*
X140079169Y-131490064D01*
X140283904Y-131353264D01*
X140511388Y-131259037D01*
X140752885Y-131211000D01*
X140999115Y-131211000D01*
X141240612Y-131259037D01*
X141240612Y-131259037D01*
G37*
G36*
X146240612Y-131259037D02*
X146468096Y-131353264D01*
X146672831Y-131490064D01*
X146846936Y-131664169D01*
X146983736Y-131868904D01*
X147077963Y-132096388D01*
X147126000Y-132337885D01*
X147126000Y-132584115D01*
X147077963Y-132825612D01*
X146983736Y-133053096D01*
X146846936Y-133257831D01*
X146672831Y-133431936D01*
X146468096Y-133568736D01*
X146240612Y-133662963D01*
X145999115Y-133711000D01*
X145752885Y-133711000D01*
X145511388Y-133662963D01*
X145283904Y-133568736D01*
X145079169Y-133431936D01*
X144905064Y-133257831D01*
X144768264Y-133053096D01*
X144674037Y-132825612D01*
X144626000Y-132584115D01*
X144626000Y-132337885D01*
X144674037Y-132096388D01*
X144768264Y-131868904D01*
X144905064Y-131664169D01*
X145079169Y-131490064D01*
X145283904Y-131353264D01*
X145511388Y-131259037D01*
X145752885Y-131211000D01*
X145999115Y-131211000D01*
X146240612Y-131259037D01*
X146240612Y-131259037D01*
G37*
G36*
X151240612Y-131259037D02*
X151468096Y-131353264D01*
X151672831Y-131490064D01*
X151846936Y-131664169D01*
X151983736Y-131868904D01*
X152077963Y-132096388D01*
X152126000Y-132337885D01*
X152126000Y-132584115D01*
X152077963Y-132825612D01*
X151983736Y-133053096D01*
X151846936Y-133257831D01*
X151672831Y-133431936D01*
X151468096Y-133568736D01*
X151240612Y-133662963D01*
X150999115Y-133711000D01*
X150752885Y-133711000D01*
X150511388Y-133662963D01*
X150283904Y-133568736D01*
X150079169Y-133431936D01*
X149905064Y-133257831D01*
X149768264Y-133053096D01*
X149674037Y-132825612D01*
X149626000Y-132584115D01*
X149626000Y-132337885D01*
X149674037Y-132096388D01*
X149768264Y-131868904D01*
X149905064Y-131664169D01*
X150079169Y-131490064D01*
X150283904Y-131353264D01*
X150511388Y-131259037D01*
X150752885Y-131211000D01*
X150999115Y-131211000D01*
X151240612Y-131259037D01*
X151240612Y-131259037D01*
G37*
G36*
X166240612Y-131259037D02*
X166468096Y-131353264D01*
X166672831Y-131490064D01*
X166846936Y-131664169D01*
X166983736Y-131868904D01*
X167077963Y-132096388D01*
X167126000Y-132337885D01*
X167126000Y-132584115D01*
X167077963Y-132825612D01*
X166983736Y-133053096D01*
X166846936Y-133257831D01*
X166672831Y-133431936D01*
X166468096Y-133568736D01*
X166240612Y-133662963D01*
X165999115Y-133711000D01*
X165752885Y-133711000D01*
X165511388Y-133662963D01*
X165283904Y-133568736D01*
X165079169Y-133431936D01*
X164905064Y-133257831D01*
X164768264Y-133053096D01*
X164674037Y-132825612D01*
X164626000Y-132584115D01*
X164626000Y-132337885D01*
X164674037Y-132096388D01*
X164768264Y-131868904D01*
X164905064Y-131664169D01*
X165079169Y-131490064D01*
X165283904Y-131353264D01*
X165511388Y-131259037D01*
X165752885Y-131211000D01*
X165999115Y-131211000D01*
X166240612Y-131259037D01*
X166240612Y-131259037D01*
G37*
G36*
X161240612Y-131259037D02*
X161468096Y-131353264D01*
X161672831Y-131490064D01*
X161846936Y-131664169D01*
X161983736Y-131868904D01*
X162077963Y-132096388D01*
X162126000Y-132337885D01*
X162126000Y-132584115D01*
X162077963Y-132825612D01*
X161983736Y-133053096D01*
X161846936Y-133257831D01*
X161672831Y-133431936D01*
X161468096Y-133568736D01*
X161240612Y-133662963D01*
X160999115Y-133711000D01*
X160752885Y-133711000D01*
X160511388Y-133662963D01*
X160283904Y-133568736D01*
X160079169Y-133431936D01*
X159905064Y-133257831D01*
X159768264Y-133053096D01*
X159674037Y-132825612D01*
X159626000Y-132584115D01*
X159626000Y-132337885D01*
X159674037Y-132096388D01*
X159768264Y-131868904D01*
X159905064Y-131664169D01*
X160079169Y-131490064D01*
X160283904Y-131353264D01*
X160511388Y-131259037D01*
X160752885Y-131211000D01*
X160999115Y-131211000D01*
X161240612Y-131259037D01*
X161240612Y-131259037D01*
G37*
G36*
X136240612Y-131259037D02*
X136468096Y-131353264D01*
X136672831Y-131490064D01*
X136846936Y-131664169D01*
X136983736Y-131868904D01*
X137077963Y-132096388D01*
X137126000Y-132337885D01*
X137126000Y-132584115D01*
X137077963Y-132825612D01*
X136983736Y-133053096D01*
X136846936Y-133257831D01*
X136672831Y-133431936D01*
X136468096Y-133568736D01*
X136240612Y-133662963D01*
X135999115Y-133711000D01*
X135752885Y-133711000D01*
X135511388Y-133662963D01*
X135283904Y-133568736D01*
X135079169Y-133431936D01*
X134905064Y-133257831D01*
X134768264Y-133053096D01*
X134674037Y-132825612D01*
X134626000Y-132584115D01*
X134626000Y-132337885D01*
X134674037Y-132096388D01*
X134768264Y-131868904D01*
X134905064Y-131664169D01*
X135079169Y-131490064D01*
X135283904Y-131353264D01*
X135511388Y-131259037D01*
X135752885Y-131211000D01*
X135999115Y-131211000D01*
X136240612Y-131259037D01*
X136240612Y-131259037D01*
G37*
G36*
X125560712Y-121871088D02*
X125930510Y-122024263D01*
X125930513Y-122024265D01*
X126263325Y-122246643D01*
X126546357Y-122529675D01*
X126760749Y-122850535D01*
X126768737Y-122862490D01*
X126921912Y-123232288D01*
X127000000Y-123624864D01*
X127000000Y-124025136D01*
X126921912Y-124417712D01*
X126768737Y-124787510D01*
X126768735Y-124787513D01*
X126546357Y-125120325D01*
X126263325Y-125403357D01*
X125930513Y-125625735D01*
X125930510Y-125625737D01*
X125560712Y-125778912D01*
X125168136Y-125857000D01*
X124767864Y-125857000D01*
X124375288Y-125778912D01*
X124005490Y-125625737D01*
X124005487Y-125625735D01*
X123672675Y-125403357D01*
X123389643Y-125120325D01*
X123167265Y-124787513D01*
X123167263Y-124787510D01*
X123014088Y-124417712D01*
X122936000Y-124025136D01*
X122936000Y-123624864D01*
X123014088Y-123232288D01*
X123167263Y-122862490D01*
X123175251Y-122850535D01*
X123389643Y-122529675D01*
X123672675Y-122246643D01*
X124005487Y-122024265D01*
X124005490Y-122024263D01*
X124375288Y-121871088D01*
X124767864Y-121793000D01*
X125168136Y-121793000D01*
X125560712Y-121871088D01*
X125560712Y-121871088D01*
G37*
G36*
X151787377Y-122736206D02*
X151883135Y-122765254D01*
X151931015Y-122779778D01*
X151997202Y-122815156D01*
X152063391Y-122850535D01*
X152179422Y-122945758D01*
X152179423Y-122945760D01*
X152179425Y-122945761D01*
X152236556Y-123015376D01*
X152274645Y-123061788D01*
X152319594Y-123145881D01*
X152345402Y-123194164D01*
X152356966Y-123232287D01*
X152388974Y-123337802D01*
X152400000Y-123449754D01*
X152400000Y-124200246D01*
X152388974Y-124312198D01*
X152359926Y-124407956D01*
X152345402Y-124455836D01*
X152319594Y-124504119D01*
X152274645Y-124588212D01*
X152179422Y-124704242D01*
X152063392Y-124799465D01*
X151979299Y-124844414D01*
X151931016Y-124870222D01*
X151883136Y-124884746D01*
X151787378Y-124913794D01*
X151638000Y-124928506D01*
X151488623Y-124913794D01*
X151392865Y-124884746D01*
X151344985Y-124870222D01*
X151296702Y-124844414D01*
X151212609Y-124799465D01*
X151096579Y-124704242D01*
X151001356Y-124588212D01*
X150930599Y-124455835D01*
X150919035Y-124417713D01*
X150887026Y-124312199D01*
X150876000Y-124200247D01*
X150876000Y-123449754D01*
X150887026Y-123337805D01*
X150887026Y-123337803D01*
X150930598Y-123194166D01*
X150930598Y-123194165D01*
X150965977Y-123127977D01*
X151001355Y-123061789D01*
X151096578Y-122945758D01*
X151096580Y-122945757D01*
X151096581Y-122945755D01*
X151198041Y-122862490D01*
X151212608Y-122850535D01*
X151296701Y-122805586D01*
X151344984Y-122779778D01*
X151392864Y-122765254D01*
X151488622Y-122736206D01*
X151638000Y-122721494D01*
X151787377Y-122736206D01*
X151787377Y-122736206D01*
G37*
G36*
X174647377Y-122736206D02*
X174743135Y-122765254D01*
X174791015Y-122779778D01*
X174857202Y-122815156D01*
X174923391Y-122850535D01*
X175039422Y-122945758D01*
X175039423Y-122945760D01*
X175039425Y-122945761D01*
X175096556Y-123015376D01*
X175134645Y-123061788D01*
X175179594Y-123145881D01*
X175205402Y-123194164D01*
X175216966Y-123232287D01*
X175248974Y-123337802D01*
X175260000Y-123449754D01*
X175260000Y-124200246D01*
X175248974Y-124312198D01*
X175219926Y-124407956D01*
X175205402Y-124455836D01*
X175179594Y-124504119D01*
X175134645Y-124588212D01*
X175039422Y-124704242D01*
X174923392Y-124799465D01*
X174839299Y-124844414D01*
X174791016Y-124870222D01*
X174743136Y-124884746D01*
X174647378Y-124913794D01*
X174498000Y-124928506D01*
X174348623Y-124913794D01*
X174252865Y-124884746D01*
X174204985Y-124870222D01*
X174156702Y-124844414D01*
X174072609Y-124799465D01*
X173956579Y-124704242D01*
X173861356Y-124588212D01*
X173790599Y-124455835D01*
X173779035Y-124417713D01*
X173747026Y-124312199D01*
X173736000Y-124200247D01*
X173736000Y-123449754D01*
X173747026Y-123337805D01*
X173747026Y-123337803D01*
X173790598Y-123194166D01*
X173790598Y-123194165D01*
X173825977Y-123127977D01*
X173861355Y-123061789D01*
X173956578Y-122945758D01*
X173956580Y-122945757D01*
X173956581Y-122945755D01*
X174058041Y-122862490D01*
X174072608Y-122850535D01*
X174156701Y-122805586D01*
X174204984Y-122779778D01*
X174252864Y-122765254D01*
X174348622Y-122736206D01*
X174498000Y-122721494D01*
X174647377Y-122736206D01*
X174647377Y-122736206D01*
G37*
G36*
X169567377Y-122736206D02*
X169663135Y-122765254D01*
X169711015Y-122779778D01*
X169777202Y-122815156D01*
X169843391Y-122850535D01*
X169959422Y-122945758D01*
X169959423Y-122945760D01*
X169959425Y-122945761D01*
X170016556Y-123015376D01*
X170054645Y-123061788D01*
X170099594Y-123145881D01*
X170125402Y-123194164D01*
X170136966Y-123232287D01*
X170168974Y-123337802D01*
X170180000Y-123449754D01*
X170180000Y-124200246D01*
X170168974Y-124312198D01*
X170139926Y-124407956D01*
X170125402Y-124455836D01*
X170099594Y-124504119D01*
X170054645Y-124588212D01*
X169959422Y-124704242D01*
X169843392Y-124799465D01*
X169759299Y-124844414D01*
X169711016Y-124870222D01*
X169663136Y-124884746D01*
X169567378Y-124913794D01*
X169418000Y-124928506D01*
X169268623Y-124913794D01*
X169172865Y-124884746D01*
X169124985Y-124870222D01*
X169076702Y-124844414D01*
X168992609Y-124799465D01*
X168876579Y-124704242D01*
X168781356Y-124588212D01*
X168710599Y-124455835D01*
X168699035Y-124417713D01*
X168667026Y-124312199D01*
X168656000Y-124200247D01*
X168656000Y-123449754D01*
X168667026Y-123337805D01*
X168667026Y-123337803D01*
X168710598Y-123194166D01*
X168710598Y-123194165D01*
X168745977Y-123127977D01*
X168781355Y-123061789D01*
X168876578Y-122945758D01*
X168876580Y-122945757D01*
X168876581Y-122945755D01*
X168978041Y-122862490D01*
X168992608Y-122850535D01*
X169076701Y-122805586D01*
X169124984Y-122779778D01*
X169172864Y-122765254D01*
X169268622Y-122736206D01*
X169418000Y-122721494D01*
X169567377Y-122736206D01*
X169567377Y-122736206D01*
G37*
G36*
X172107377Y-122736206D02*
X172203135Y-122765254D01*
X172251015Y-122779778D01*
X172317202Y-122815156D01*
X172383391Y-122850535D01*
X172499422Y-122945758D01*
X172499423Y-122945760D01*
X172499425Y-122945761D01*
X172556556Y-123015376D01*
X172594645Y-123061788D01*
X172639594Y-123145881D01*
X172665402Y-123194164D01*
X172676966Y-123232287D01*
X172708974Y-123337802D01*
X172720000Y-123449754D01*
X172720000Y-124200246D01*
X172708974Y-124312198D01*
X172679926Y-124407956D01*
X172665402Y-124455836D01*
X172639594Y-124504119D01*
X172594645Y-124588212D01*
X172499422Y-124704242D01*
X172383392Y-124799465D01*
X172299299Y-124844414D01*
X172251016Y-124870222D01*
X172203136Y-124884746D01*
X172107378Y-124913794D01*
X171958000Y-124928506D01*
X171808623Y-124913794D01*
X171712865Y-124884746D01*
X171664985Y-124870222D01*
X171616702Y-124844414D01*
X171532609Y-124799465D01*
X171416579Y-124704242D01*
X171321356Y-124588212D01*
X171250599Y-124455835D01*
X171239035Y-124417713D01*
X171207026Y-124312199D01*
X171196000Y-124200247D01*
X171196000Y-123449754D01*
X171207026Y-123337805D01*
X171207026Y-123337803D01*
X171250598Y-123194166D01*
X171250598Y-123194165D01*
X171285977Y-123127977D01*
X171321355Y-123061789D01*
X171416578Y-122945758D01*
X171416580Y-122945757D01*
X171416581Y-122945755D01*
X171518041Y-122862490D01*
X171532608Y-122850535D01*
X171616701Y-122805586D01*
X171664984Y-122779778D01*
X171712864Y-122765254D01*
X171808622Y-122736206D01*
X171958000Y-122721494D01*
X172107377Y-122736206D01*
X172107377Y-122736206D01*
G37*
G36*
X144167377Y-122736206D02*
X144263135Y-122765254D01*
X144311015Y-122779778D01*
X144377202Y-122815156D01*
X144443391Y-122850535D01*
X144559422Y-122945758D01*
X144559423Y-122945760D01*
X144559425Y-122945761D01*
X144616556Y-123015376D01*
X144654645Y-123061788D01*
X144699594Y-123145881D01*
X144725402Y-123194164D01*
X144736966Y-123232287D01*
X144768974Y-123337802D01*
X144780000Y-123449754D01*
X144780000Y-124200246D01*
X144768974Y-124312198D01*
X144739926Y-124407956D01*
X144725402Y-124455836D01*
X144699594Y-124504119D01*
X144654645Y-124588212D01*
X144559422Y-124704242D01*
X144443392Y-124799465D01*
X144359299Y-124844414D01*
X144311016Y-124870222D01*
X144263136Y-124884746D01*
X144167378Y-124913794D01*
X144018000Y-124928506D01*
X143868623Y-124913794D01*
X143772865Y-124884746D01*
X143724985Y-124870222D01*
X143676702Y-124844414D01*
X143592609Y-124799465D01*
X143476579Y-124704242D01*
X143381356Y-124588212D01*
X143310599Y-124455835D01*
X143299035Y-124417713D01*
X143267026Y-124312199D01*
X143256000Y-124200247D01*
X143256000Y-123449754D01*
X143267026Y-123337805D01*
X143267026Y-123337803D01*
X143310598Y-123194166D01*
X143310598Y-123194165D01*
X143345977Y-123127977D01*
X143381355Y-123061789D01*
X143476578Y-122945758D01*
X143476580Y-122945757D01*
X143476581Y-122945755D01*
X143578041Y-122862490D01*
X143592608Y-122850535D01*
X143676701Y-122805586D01*
X143724984Y-122779778D01*
X143772864Y-122765254D01*
X143868622Y-122736206D01*
X144018000Y-122721494D01*
X144167377Y-122736206D01*
X144167377Y-122736206D01*
G37*
G36*
X146707377Y-122736206D02*
X146803135Y-122765254D01*
X146851015Y-122779778D01*
X146917202Y-122815156D01*
X146983391Y-122850535D01*
X147099422Y-122945758D01*
X147099423Y-122945760D01*
X147099425Y-122945761D01*
X147156556Y-123015376D01*
X147194645Y-123061788D01*
X147239594Y-123145881D01*
X147265402Y-123194164D01*
X147276966Y-123232287D01*
X147308974Y-123337802D01*
X147320000Y-123449754D01*
X147320000Y-124200246D01*
X147308974Y-124312198D01*
X147279926Y-124407956D01*
X147265402Y-124455836D01*
X147239594Y-124504119D01*
X147194645Y-124588212D01*
X147099422Y-124704242D01*
X146983392Y-124799465D01*
X146899299Y-124844414D01*
X146851016Y-124870222D01*
X146803136Y-124884746D01*
X146707378Y-124913794D01*
X146558000Y-124928506D01*
X146408623Y-124913794D01*
X146312865Y-124884746D01*
X146264985Y-124870222D01*
X146216702Y-124844414D01*
X146132609Y-124799465D01*
X146016579Y-124704242D01*
X145921356Y-124588212D01*
X145850599Y-124455835D01*
X145839035Y-124417713D01*
X145807026Y-124312199D01*
X145796000Y-124200247D01*
X145796000Y-123449754D01*
X145807026Y-123337805D01*
X145807026Y-123337803D01*
X145850598Y-123194166D01*
X145850598Y-123194165D01*
X145885977Y-123127977D01*
X145921355Y-123061789D01*
X146016578Y-122945758D01*
X146016580Y-122945757D01*
X146016581Y-122945755D01*
X146118041Y-122862490D01*
X146132608Y-122850535D01*
X146216701Y-122805586D01*
X146264984Y-122779778D01*
X146312864Y-122765254D01*
X146408622Y-122736206D01*
X146558000Y-122721494D01*
X146707377Y-122736206D01*
X146707377Y-122736206D01*
G37*
G36*
X149247377Y-122736206D02*
X149343135Y-122765254D01*
X149391015Y-122779778D01*
X149457202Y-122815156D01*
X149523391Y-122850535D01*
X149639422Y-122945758D01*
X149639423Y-122945760D01*
X149639425Y-122945761D01*
X149696556Y-123015376D01*
X149734645Y-123061788D01*
X149779594Y-123145881D01*
X149805402Y-123194164D01*
X149816966Y-123232287D01*
X149848974Y-123337802D01*
X149860000Y-123449754D01*
X149860000Y-124200246D01*
X149848974Y-124312198D01*
X149819926Y-124407956D01*
X149805402Y-124455836D01*
X149779594Y-124504119D01*
X149734645Y-124588212D01*
X149639422Y-124704242D01*
X149523392Y-124799465D01*
X149439299Y-124844414D01*
X149391016Y-124870222D01*
X149343136Y-124884746D01*
X149247378Y-124913794D01*
X149098000Y-124928506D01*
X148948623Y-124913794D01*
X148852865Y-124884746D01*
X148804985Y-124870222D01*
X148756702Y-124844414D01*
X148672609Y-124799465D01*
X148556579Y-124704242D01*
X148461356Y-124588212D01*
X148390599Y-124455835D01*
X148379035Y-124417713D01*
X148347026Y-124312199D01*
X148336000Y-124200247D01*
X148336000Y-123449754D01*
X148347026Y-123337805D01*
X148347026Y-123337803D01*
X148390598Y-123194166D01*
X148390598Y-123194165D01*
X148425977Y-123127977D01*
X148461355Y-123061789D01*
X148556578Y-122945758D01*
X148556580Y-122945757D01*
X148556581Y-122945755D01*
X148658041Y-122862490D01*
X148672608Y-122850535D01*
X148756701Y-122805586D01*
X148804984Y-122779778D01*
X148852864Y-122765254D01*
X148948622Y-122736206D01*
X149098000Y-122721494D01*
X149247377Y-122736206D01*
X149247377Y-122736206D01*
G37*
G36*
X154327377Y-122736206D02*
X154423135Y-122765254D01*
X154471015Y-122779778D01*
X154537202Y-122815156D01*
X154603391Y-122850535D01*
X154719422Y-122945758D01*
X154719423Y-122945760D01*
X154719425Y-122945761D01*
X154776556Y-123015376D01*
X154814645Y-123061788D01*
X154859594Y-123145881D01*
X154885402Y-123194164D01*
X154896966Y-123232287D01*
X154928974Y-123337802D01*
X154940000Y-123449754D01*
X154940000Y-124200246D01*
X154928974Y-124312198D01*
X154899926Y-124407956D01*
X154885402Y-124455836D01*
X154859594Y-124504119D01*
X154814645Y-124588212D01*
X154719422Y-124704242D01*
X154603392Y-124799465D01*
X154519299Y-124844414D01*
X154471016Y-124870222D01*
X154423136Y-124884746D01*
X154327378Y-124913794D01*
X154178000Y-124928506D01*
X154028623Y-124913794D01*
X153932865Y-124884746D01*
X153884985Y-124870222D01*
X153836702Y-124844414D01*
X153752609Y-124799465D01*
X153636579Y-124704242D01*
X153541356Y-124588212D01*
X153470599Y-124455835D01*
X153459035Y-124417713D01*
X153427026Y-124312199D01*
X153416000Y-124200247D01*
X153416000Y-123449754D01*
X153427026Y-123337805D01*
X153427026Y-123337803D01*
X153470598Y-123194166D01*
X153470598Y-123194165D01*
X153505977Y-123127977D01*
X153541355Y-123061789D01*
X153636578Y-122945758D01*
X153636580Y-122945757D01*
X153636581Y-122945755D01*
X153738041Y-122862490D01*
X153752608Y-122850535D01*
X153836701Y-122805586D01*
X153884984Y-122779778D01*
X153932864Y-122765254D01*
X154028622Y-122736206D01*
X154178000Y-122721494D01*
X154327377Y-122736206D01*
X154327377Y-122736206D01*
G37*
G36*
X156867377Y-122736206D02*
X156963135Y-122765254D01*
X157011015Y-122779778D01*
X157077202Y-122815156D01*
X157143391Y-122850535D01*
X157259422Y-122945758D01*
X157259423Y-122945760D01*
X157259425Y-122945761D01*
X157316556Y-123015376D01*
X157354645Y-123061788D01*
X157399594Y-123145881D01*
X157425402Y-123194164D01*
X157436966Y-123232287D01*
X157468974Y-123337802D01*
X157480000Y-123449754D01*
X157480000Y-124200246D01*
X157468974Y-124312198D01*
X157439926Y-124407956D01*
X157425402Y-124455836D01*
X157399594Y-124504119D01*
X157354645Y-124588212D01*
X157259422Y-124704242D01*
X157143392Y-124799465D01*
X157059299Y-124844414D01*
X157011016Y-124870222D01*
X156963136Y-124884746D01*
X156867378Y-124913794D01*
X156718000Y-124928506D01*
X156568623Y-124913794D01*
X156472865Y-124884746D01*
X156424985Y-124870222D01*
X156376702Y-124844414D01*
X156292609Y-124799465D01*
X156176579Y-124704242D01*
X156081356Y-124588212D01*
X156010599Y-124455835D01*
X155999035Y-124417713D01*
X155967026Y-124312199D01*
X155956000Y-124200247D01*
X155956000Y-123449754D01*
X155967026Y-123337805D01*
X155967026Y-123337803D01*
X156010598Y-123194166D01*
X156010598Y-123194165D01*
X156045977Y-123127977D01*
X156081355Y-123061789D01*
X156176578Y-122945758D01*
X156176580Y-122945757D01*
X156176581Y-122945755D01*
X156278041Y-122862490D01*
X156292608Y-122850535D01*
X156376701Y-122805586D01*
X156424984Y-122779778D01*
X156472864Y-122765254D01*
X156568622Y-122736206D01*
X156718000Y-122721494D01*
X156867377Y-122736206D01*
X156867377Y-122736206D01*
G37*
G36*
X141627377Y-122736206D02*
X141723135Y-122765254D01*
X141771015Y-122779778D01*
X141837202Y-122815156D01*
X141903391Y-122850535D01*
X142019422Y-122945758D01*
X142019423Y-122945760D01*
X142019425Y-122945761D01*
X142076556Y-123015376D01*
X142114645Y-123061788D01*
X142159594Y-123145881D01*
X142185402Y-123194164D01*
X142196966Y-123232287D01*
X142228974Y-123337802D01*
X142240000Y-123449754D01*
X142240000Y-124200246D01*
X142228974Y-124312198D01*
X142199926Y-124407956D01*
X142185402Y-124455836D01*
X142159594Y-124504119D01*
X142114645Y-124588212D01*
X142019422Y-124704242D01*
X141903392Y-124799465D01*
X141819299Y-124844414D01*
X141771016Y-124870222D01*
X141723136Y-124884746D01*
X141627378Y-124913794D01*
X141478000Y-124928506D01*
X141328623Y-124913794D01*
X141232865Y-124884746D01*
X141184985Y-124870222D01*
X141136702Y-124844414D01*
X141052609Y-124799465D01*
X140936579Y-124704242D01*
X140841356Y-124588212D01*
X140770599Y-124455835D01*
X140759035Y-124417713D01*
X140727026Y-124312199D01*
X140716000Y-124200247D01*
X140716000Y-123449754D01*
X140727026Y-123337805D01*
X140727026Y-123337803D01*
X140770598Y-123194166D01*
X140770598Y-123194165D01*
X140805977Y-123127977D01*
X140841355Y-123061789D01*
X140936578Y-122945758D01*
X140936580Y-122945757D01*
X140936581Y-122945755D01*
X141038041Y-122862490D01*
X141052608Y-122850535D01*
X141136701Y-122805586D01*
X141184984Y-122779778D01*
X141232864Y-122765254D01*
X141328622Y-122736206D01*
X141478000Y-122721494D01*
X141627377Y-122736206D01*
X141627377Y-122736206D01*
G37*
G36*
X167027377Y-122736206D02*
X167123135Y-122765254D01*
X167171015Y-122779778D01*
X167237202Y-122815156D01*
X167303391Y-122850535D01*
X167419422Y-122945758D01*
X167419423Y-122945760D01*
X167419425Y-122945761D01*
X167476556Y-123015376D01*
X167514645Y-123061788D01*
X167559594Y-123145881D01*
X167585402Y-123194164D01*
X167596966Y-123232287D01*
X167628974Y-123337802D01*
X167640000Y-123449754D01*
X167640000Y-124200246D01*
X167628974Y-124312198D01*
X167599926Y-124407956D01*
X167585402Y-124455836D01*
X167559594Y-124504119D01*
X167514645Y-124588212D01*
X167419422Y-124704242D01*
X167303392Y-124799465D01*
X167219299Y-124844414D01*
X167171016Y-124870222D01*
X167123136Y-124884746D01*
X167027378Y-124913794D01*
X166878000Y-124928506D01*
X166728623Y-124913794D01*
X166632865Y-124884746D01*
X166584985Y-124870222D01*
X166536702Y-124844414D01*
X166452609Y-124799465D01*
X166336579Y-124704242D01*
X166241356Y-124588212D01*
X166170599Y-124455835D01*
X166159035Y-124417713D01*
X166127026Y-124312199D01*
X166116000Y-124200247D01*
X166116000Y-123449754D01*
X166127026Y-123337805D01*
X166127026Y-123337803D01*
X166170598Y-123194166D01*
X166170598Y-123194165D01*
X166205977Y-123127977D01*
X166241355Y-123061789D01*
X166336578Y-122945758D01*
X166336580Y-122945757D01*
X166336581Y-122945755D01*
X166438041Y-122862490D01*
X166452608Y-122850535D01*
X166536701Y-122805586D01*
X166584984Y-122779778D01*
X166632864Y-122765254D01*
X166728622Y-122736206D01*
X166878000Y-122721494D01*
X167027377Y-122736206D01*
X167027377Y-122736206D01*
G37*
G36*
X164487377Y-122736206D02*
X164583135Y-122765254D01*
X164631015Y-122779778D01*
X164697202Y-122815156D01*
X164763391Y-122850535D01*
X164879422Y-122945758D01*
X164879423Y-122945760D01*
X164879425Y-122945761D01*
X164936556Y-123015376D01*
X164974645Y-123061788D01*
X165019594Y-123145881D01*
X165045402Y-123194164D01*
X165056966Y-123232287D01*
X165088974Y-123337802D01*
X165100000Y-123449754D01*
X165100000Y-124200246D01*
X165088974Y-124312198D01*
X165059926Y-124407956D01*
X165045402Y-124455836D01*
X165019594Y-124504119D01*
X164974645Y-124588212D01*
X164879422Y-124704242D01*
X164763392Y-124799465D01*
X164679299Y-124844414D01*
X164631016Y-124870222D01*
X164583136Y-124884746D01*
X164487378Y-124913794D01*
X164338000Y-124928506D01*
X164188623Y-124913794D01*
X164092865Y-124884746D01*
X164044985Y-124870222D01*
X163996702Y-124844414D01*
X163912609Y-124799465D01*
X163796579Y-124704242D01*
X163701356Y-124588212D01*
X163630599Y-124455835D01*
X163619035Y-124417713D01*
X163587026Y-124312199D01*
X163576000Y-124200247D01*
X163576000Y-123449754D01*
X163587026Y-123337805D01*
X163587026Y-123337803D01*
X163630598Y-123194166D01*
X163630598Y-123194165D01*
X163665977Y-123127977D01*
X163701355Y-123061789D01*
X163796578Y-122945758D01*
X163796580Y-122945757D01*
X163796581Y-122945755D01*
X163898041Y-122862490D01*
X163912608Y-122850535D01*
X163996701Y-122805586D01*
X164044984Y-122779778D01*
X164092864Y-122765254D01*
X164188622Y-122736206D01*
X164338000Y-122721494D01*
X164487377Y-122736206D01*
X164487377Y-122736206D01*
G37*
G36*
X139700000Y-124924820D02*
X138176000Y-124924820D01*
X138176000Y-122725180D01*
X139700000Y-122725180D01*
X139700000Y-124924820D01*
X139700000Y-124924820D01*
G37*
G36*
X162560000Y-124924820D02*
X161036000Y-124924820D01*
X161036000Y-122725180D01*
X162560000Y-122725180D01*
X162560000Y-124924820D01*
X162560000Y-124924820D01*
G37*
G36*
X177630712Y-116791088D02*
X178000510Y-116944263D01*
X178000513Y-116944265D01*
X178333325Y-117166643D01*
X178616357Y-117449675D01*
X178838735Y-117782487D01*
X178838737Y-117782490D01*
X178991912Y-118152288D01*
X179070000Y-118544864D01*
X179070000Y-118945136D01*
X178991912Y-119337712D01*
X178838737Y-119707510D01*
X178838735Y-119707513D01*
X178616357Y-120040325D01*
X178333325Y-120323357D01*
X178000513Y-120545735D01*
X178000510Y-120545737D01*
X177630712Y-120698912D01*
X177238136Y-120777000D01*
X176837864Y-120777000D01*
X176445288Y-120698912D01*
X176075490Y-120545737D01*
X176075487Y-120545735D01*
X175742675Y-120323357D01*
X175459643Y-120040325D01*
X175237265Y-119707513D01*
X175237263Y-119707510D01*
X175084088Y-119337712D01*
X175006000Y-118945136D01*
X175006000Y-118544864D01*
X175084088Y-118152288D01*
X175237263Y-117782490D01*
X175237265Y-117782487D01*
X175459643Y-117449675D01*
X175742675Y-117166643D01*
X176075487Y-116944265D01*
X176075490Y-116944263D01*
X176445288Y-116791088D01*
X176837864Y-116713000D01*
X177238136Y-116713000D01*
X177630712Y-116791088D01*
X177630712Y-116791088D01*
G37*
G36*
X172195612Y-111073037D02*
X172423096Y-111167264D01*
X172627831Y-111304064D01*
X172801936Y-111478169D01*
X172938736Y-111682904D01*
X173032963Y-111910388D01*
X173081000Y-112151885D01*
X173081000Y-112398115D01*
X173032963Y-112639612D01*
X172938736Y-112867096D01*
X172801936Y-113071831D01*
X172627831Y-113245936D01*
X172423096Y-113382736D01*
X172195612Y-113476963D01*
X171954115Y-113525000D01*
X171707885Y-113525000D01*
X171466388Y-113476963D01*
X171238904Y-113382736D01*
X171034169Y-113245936D01*
X170860064Y-113071831D01*
X170723264Y-112867096D01*
X170629037Y-112639612D01*
X170581000Y-112398115D01*
X170581000Y-112151885D01*
X170629037Y-111910388D01*
X170723264Y-111682904D01*
X170860064Y-111478169D01*
X171034169Y-111304064D01*
X171238904Y-111167264D01*
X171466388Y-111073037D01*
X171707885Y-111025000D01*
X171954115Y-111025000D01*
X172195612Y-111073037D01*
X172195612Y-111073037D01*
G37*
G36*
X172195612Y-106073037D02*
X172423096Y-106167264D01*
X172627831Y-106304064D01*
X172801936Y-106478169D01*
X172938736Y-106682904D01*
X173032963Y-106910388D01*
X173081000Y-107151885D01*
X173081000Y-107398115D01*
X173032963Y-107639612D01*
X172938736Y-107867096D01*
X172801936Y-108071831D01*
X172627831Y-108245936D01*
X172423096Y-108382736D01*
X172195612Y-108476963D01*
X171954115Y-108525000D01*
X171707885Y-108525000D01*
X171466388Y-108476963D01*
X171238904Y-108382736D01*
X171034169Y-108245936D01*
X170860064Y-108071831D01*
X170723264Y-107867096D01*
X170629037Y-107639612D01*
X170581000Y-107398115D01*
X170581000Y-107151885D01*
X170629037Y-106910388D01*
X170723264Y-106682904D01*
X170860064Y-106478169D01*
X171034169Y-106304064D01*
X171238904Y-106167264D01*
X171466388Y-106073037D01*
X171707885Y-106025000D01*
X171954115Y-106025000D01*
X172195612Y-106073037D01*
X172195612Y-106073037D01*
G37*
G36*
X135667563Y-105540675D02*
X135742198Y-105548026D01*
X135837956Y-105577074D01*
X135885836Y-105591598D01*
X135934119Y-105617406D01*
X136018212Y-105662355D01*
X136134242Y-105757578D01*
X136229465Y-105873608D01*
X136274414Y-105957701D01*
X136300222Y-106005984D01*
X136300222Y-106005985D01*
X136343794Y-106149622D01*
X136358506Y-106299000D01*
X136343794Y-106448378D01*
X136334757Y-106478169D01*
X136300222Y-106592016D01*
X136274414Y-106640299D01*
X136229465Y-106724392D01*
X136134242Y-106840422D01*
X136018212Y-106935645D01*
X135934119Y-106980594D01*
X135885836Y-107006402D01*
X135837956Y-107020926D01*
X135742198Y-107049974D01*
X135667563Y-107057325D01*
X135630247Y-107061000D01*
X134879753Y-107061000D01*
X134842437Y-107057325D01*
X134767802Y-107049974D01*
X134672044Y-107020926D01*
X134624164Y-107006402D01*
X134575881Y-106980594D01*
X134491788Y-106935645D01*
X134375758Y-106840422D01*
X134280535Y-106724392D01*
X134235586Y-106640299D01*
X134209778Y-106592016D01*
X134175243Y-106478169D01*
X134166206Y-106448378D01*
X134151494Y-106299000D01*
X134166206Y-106149622D01*
X134209778Y-106005985D01*
X134209778Y-106005984D01*
X134235586Y-105957701D01*
X134280535Y-105873608D01*
X134375758Y-105757578D01*
X134491788Y-105662355D01*
X134575881Y-105617406D01*
X134624164Y-105591598D01*
X134672044Y-105577074D01*
X134767802Y-105548026D01*
X134842437Y-105540675D01*
X134879753Y-105537000D01*
X135630247Y-105537000D01*
X135667563Y-105540675D01*
X135667563Y-105540675D01*
G37*
G36*
X135667563Y-103000675D02*
X135742198Y-103008026D01*
X135837956Y-103037074D01*
X135885836Y-103051598D01*
X135923683Y-103071828D01*
X136018212Y-103122355D01*
X136134242Y-103217578D01*
X136229465Y-103333608D01*
X136255724Y-103382735D01*
X136300222Y-103465984D01*
X136300222Y-103465985D01*
X136343794Y-103609622D01*
X136358506Y-103759000D01*
X136343794Y-103908378D01*
X136314746Y-104004136D01*
X136300222Y-104052016D01*
X136274414Y-104100299D01*
X136229465Y-104184392D01*
X136134242Y-104300422D01*
X136018212Y-104395645D01*
X135934119Y-104440594D01*
X135885836Y-104466402D01*
X135837956Y-104480926D01*
X135742198Y-104509974D01*
X135667563Y-104517325D01*
X135630247Y-104521000D01*
X134879753Y-104521000D01*
X134842437Y-104517325D01*
X134767802Y-104509974D01*
X134672044Y-104480926D01*
X134624164Y-104466402D01*
X134575881Y-104440594D01*
X134491788Y-104395645D01*
X134375758Y-104300422D01*
X134280535Y-104184392D01*
X134235586Y-104100299D01*
X134209778Y-104052016D01*
X134195254Y-104004136D01*
X134166206Y-103908378D01*
X134151494Y-103759000D01*
X134166206Y-103609622D01*
X134209778Y-103465985D01*
X134209778Y-103465984D01*
X134254276Y-103382735D01*
X134280535Y-103333608D01*
X134375758Y-103217578D01*
X134491788Y-103122355D01*
X134586317Y-103071828D01*
X134624164Y-103051598D01*
X134672044Y-103037074D01*
X134767802Y-103008026D01*
X134842437Y-103000675D01*
X134879753Y-102997000D01*
X135630247Y-102997000D01*
X135667563Y-103000675D01*
X135667563Y-103000675D01*
G37*
G36*
X172195612Y-101073037D02*
X172423096Y-101167264D01*
X172627831Y-101304064D01*
X172801936Y-101478169D01*
X172938736Y-101682904D01*
X173032963Y-101910388D01*
X173081000Y-102151885D01*
X173081000Y-102398115D01*
X173032963Y-102639612D01*
X172938736Y-102867096D01*
X172801936Y-103071831D01*
X172627831Y-103245936D01*
X172423096Y-103382736D01*
X172195612Y-103476963D01*
X171954115Y-103525000D01*
X171707885Y-103525000D01*
X171466388Y-103476963D01*
X171238904Y-103382736D01*
X171034169Y-103245936D01*
X170860064Y-103071831D01*
X170723264Y-102867096D01*
X170629037Y-102639612D01*
X170581000Y-102398115D01*
X170581000Y-102151885D01*
X170629037Y-101910388D01*
X170723264Y-101682904D01*
X170860064Y-101478169D01*
X171034169Y-101304064D01*
X171238904Y-101167264D01*
X171466388Y-101073037D01*
X171707885Y-101025000D01*
X171954115Y-101025000D01*
X172195612Y-101073037D01*
X172195612Y-101073037D01*
G37*
G36*
X135667563Y-100460675D02*
X135742198Y-100468026D01*
X135837956Y-100497074D01*
X135885836Y-100511598D01*
X135934119Y-100537406D01*
X136018212Y-100582355D01*
X136134242Y-100677578D01*
X136229465Y-100793608D01*
X136274414Y-100877701D01*
X136300222Y-100925984D01*
X136300222Y-100925985D01*
X136343794Y-101069622D01*
X136358506Y-101219000D01*
X136343794Y-101368378D01*
X136314746Y-101464136D01*
X136300222Y-101512016D01*
X136274414Y-101560299D01*
X136229465Y-101644392D01*
X136134242Y-101760422D01*
X136018212Y-101855645D01*
X135934119Y-101900594D01*
X135885836Y-101926402D01*
X135837956Y-101940926D01*
X135742198Y-101969974D01*
X135667563Y-101977325D01*
X135630247Y-101981000D01*
X134879753Y-101981000D01*
X134842437Y-101977325D01*
X134767802Y-101969974D01*
X134672044Y-101940926D01*
X134624164Y-101926402D01*
X134575881Y-101900594D01*
X134491788Y-101855645D01*
X134375758Y-101760422D01*
X134280535Y-101644392D01*
X134235586Y-101560299D01*
X134209778Y-101512016D01*
X134195254Y-101464136D01*
X134166206Y-101368378D01*
X134151494Y-101219000D01*
X134166206Y-101069622D01*
X134209778Y-100925985D01*
X134209778Y-100925984D01*
X134235586Y-100877701D01*
X134280535Y-100793608D01*
X134375758Y-100677578D01*
X134491788Y-100582355D01*
X134575881Y-100537406D01*
X134624164Y-100511598D01*
X134672044Y-100497074D01*
X134767802Y-100468026D01*
X134842437Y-100460675D01*
X134879753Y-100457000D01*
X135630247Y-100457000D01*
X135667563Y-100460675D01*
X135667563Y-100460675D01*
G37*
G36*
X136354820Y-99441000D02*
X134155180Y-99441000D01*
X134155180Y-97917000D01*
X136354820Y-97917000D01*
X136354820Y-99441000D01*
X136354820Y-99441000D01*
G37*
G36*
X172195612Y-96073037D02*
X172423096Y-96167264D01*
X172627831Y-96304064D01*
X172801936Y-96478169D01*
X172938736Y-96682904D01*
X173032963Y-96910388D01*
X173081000Y-97151885D01*
X173081000Y-97398115D01*
X173032963Y-97639612D01*
X172938736Y-97867096D01*
X172801936Y-98071831D01*
X172627831Y-98245936D01*
X172423096Y-98382736D01*
X172195612Y-98476963D01*
X171954115Y-98525000D01*
X171707885Y-98525000D01*
X171466388Y-98476963D01*
X171238904Y-98382736D01*
X171034169Y-98245936D01*
X170860064Y-98071831D01*
X170723264Y-97867096D01*
X170629037Y-97639612D01*
X170581000Y-97398115D01*
X170581000Y-97151885D01*
X170629037Y-96910388D01*
X170723264Y-96682904D01*
X170860064Y-96478169D01*
X171034169Y-96304064D01*
X171238904Y-96167264D01*
X171466388Y-96073037D01*
X171707885Y-96025000D01*
X171954115Y-96025000D01*
X172195612Y-96073037D01*
X172195612Y-96073037D01*
G37*
G36*
X177630712Y-88851088D02*
X178000510Y-89004263D01*
X178000513Y-89004265D01*
X178333325Y-89226643D01*
X178616357Y-89509675D01*
X178838735Y-89842487D01*
X178838737Y-89842490D01*
X178991912Y-90212288D01*
X179070000Y-90604864D01*
X179070000Y-91005136D01*
X178991912Y-91397712D01*
X178838737Y-91767510D01*
X178838735Y-91767513D01*
X178616357Y-92100325D01*
X178333325Y-92383357D01*
X178000513Y-92605735D01*
X178000510Y-92605737D01*
X177630712Y-92758912D01*
X177238136Y-92837000D01*
X176837864Y-92837000D01*
X176445288Y-92758912D01*
X176075490Y-92605737D01*
X176075487Y-92605735D01*
X175742675Y-92383357D01*
X175459643Y-92100325D01*
X175237265Y-91767513D01*
X175237263Y-91767510D01*
X175084088Y-91397712D01*
X175006000Y-91005136D01*
X175006000Y-90604864D01*
X175084088Y-90212288D01*
X175237263Y-89842490D01*
X175237265Y-89842487D01*
X175459643Y-89509675D01*
X175742675Y-89226643D01*
X176075487Y-89004265D01*
X176075490Y-89004263D01*
X176445288Y-88851088D01*
X176837864Y-88773000D01*
X177238136Y-88773000D01*
X177630712Y-88851088D01*
X177630712Y-88851088D01*
G37*
G36*
X126830712Y-73611088D02*
X127200510Y-73764263D01*
X127200513Y-73764265D01*
X127533325Y-73986643D01*
X127816357Y-74269675D01*
X128030749Y-74590535D01*
X128038737Y-74602490D01*
X128191912Y-74972288D01*
X128270000Y-75364864D01*
X128270000Y-75765136D01*
X128191912Y-76157712D01*
X128038737Y-76527510D01*
X128038735Y-76527513D01*
X127816357Y-76860325D01*
X127533325Y-77143357D01*
X127200513Y-77365735D01*
X127200510Y-77365737D01*
X126830712Y-77518912D01*
X126438136Y-77597000D01*
X126037864Y-77597000D01*
X125645288Y-77518912D01*
X125275490Y-77365737D01*
X125275487Y-77365735D01*
X124942675Y-77143357D01*
X124659643Y-76860325D01*
X124437265Y-76527513D01*
X124437263Y-76527510D01*
X124284088Y-76157712D01*
X124206000Y-75765136D01*
X124206000Y-75364864D01*
X124284088Y-74972288D01*
X124437263Y-74602490D01*
X124445251Y-74590535D01*
X124659643Y-74269675D01*
X124942675Y-73986643D01*
X125275487Y-73764265D01*
X125275490Y-73764263D01*
X125645288Y-73611088D01*
X126037864Y-73533000D01*
X126438136Y-73533000D01*
X126830712Y-73611088D01*
X126830712Y-73611088D01*
G37*
G36*
X152803377Y-74476206D02*
X152899135Y-74505254D01*
X152947015Y-74519778D01*
X153013202Y-74555156D01*
X153079391Y-74590535D01*
X153195422Y-74685758D01*
X153195423Y-74685760D01*
X153195425Y-74685761D01*
X153252556Y-74755376D01*
X153290645Y-74801788D01*
X153335594Y-74885881D01*
X153361402Y-74934164D01*
X153372966Y-74972287D01*
X153404974Y-75077802D01*
X153416000Y-75189754D01*
X153416000Y-75940246D01*
X153404974Y-76052198D01*
X153375926Y-76147956D01*
X153361402Y-76195836D01*
X153335594Y-76244119D01*
X153290645Y-76328212D01*
X153195422Y-76444242D01*
X153079392Y-76539465D01*
X152995299Y-76584414D01*
X152947016Y-76610222D01*
X152899136Y-76624746D01*
X152803378Y-76653794D01*
X152654000Y-76668506D01*
X152504623Y-76653794D01*
X152408865Y-76624746D01*
X152360985Y-76610222D01*
X152312702Y-76584414D01*
X152228609Y-76539465D01*
X152112579Y-76444242D01*
X152017356Y-76328212D01*
X151946599Y-76195835D01*
X151935035Y-76157713D01*
X151903026Y-76052199D01*
X151892000Y-75940247D01*
X151892000Y-75189754D01*
X151903026Y-75077805D01*
X151903026Y-75077803D01*
X151946598Y-74934166D01*
X151946598Y-74934165D01*
X151981977Y-74867977D01*
X152017355Y-74801789D01*
X152112578Y-74685758D01*
X152112580Y-74685757D01*
X152112581Y-74685755D01*
X152214041Y-74602490D01*
X152228608Y-74590535D01*
X152312701Y-74545586D01*
X152360984Y-74519778D01*
X152408864Y-74505254D01*
X152504622Y-74476206D01*
X152654000Y-74461494D01*
X152803377Y-74476206D01*
X152803377Y-74476206D01*
G37*
G36*
X150263377Y-74476206D02*
X150359135Y-74505254D01*
X150407015Y-74519778D01*
X150473202Y-74555156D01*
X150539391Y-74590535D01*
X150655422Y-74685758D01*
X150655423Y-74685760D01*
X150655425Y-74685761D01*
X150712556Y-74755376D01*
X150750645Y-74801788D01*
X150795594Y-74885881D01*
X150821402Y-74934164D01*
X150832966Y-74972287D01*
X150864974Y-75077802D01*
X150876000Y-75189754D01*
X150876000Y-75940246D01*
X150864974Y-76052198D01*
X150835926Y-76147956D01*
X150821402Y-76195836D01*
X150795594Y-76244119D01*
X150750645Y-76328212D01*
X150655422Y-76444242D01*
X150539392Y-76539465D01*
X150455299Y-76584414D01*
X150407016Y-76610222D01*
X150359136Y-76624746D01*
X150263378Y-76653794D01*
X150114000Y-76668506D01*
X149964623Y-76653794D01*
X149868865Y-76624746D01*
X149820985Y-76610222D01*
X149772702Y-76584414D01*
X149688609Y-76539465D01*
X149572579Y-76444242D01*
X149477356Y-76328212D01*
X149406599Y-76195835D01*
X149395035Y-76157713D01*
X149363026Y-76052199D01*
X149352000Y-75940247D01*
X149352000Y-75189754D01*
X149363026Y-75077805D01*
X149363026Y-75077803D01*
X149406598Y-74934166D01*
X149406598Y-74934165D01*
X149441977Y-74867977D01*
X149477355Y-74801789D01*
X149572578Y-74685758D01*
X149572580Y-74685757D01*
X149572581Y-74685755D01*
X149674041Y-74602490D01*
X149688608Y-74590535D01*
X149772701Y-74545586D01*
X149820984Y-74519778D01*
X149868864Y-74505254D01*
X149964622Y-74476206D01*
X150114000Y-74461494D01*
X150263377Y-74476206D01*
X150263377Y-74476206D01*
G37*
G36*
X142643377Y-74476206D02*
X142739135Y-74505254D01*
X142787015Y-74519778D01*
X142853202Y-74555156D01*
X142919391Y-74590535D01*
X143035422Y-74685758D01*
X143035423Y-74685760D01*
X143035425Y-74685761D01*
X143092556Y-74755376D01*
X143130645Y-74801788D01*
X143175594Y-74885881D01*
X143201402Y-74934164D01*
X143212966Y-74972287D01*
X143244974Y-75077802D01*
X143256000Y-75189754D01*
X143256000Y-75940246D01*
X143244974Y-76052198D01*
X143215926Y-76147956D01*
X143201402Y-76195836D01*
X143175594Y-76244119D01*
X143130645Y-76328212D01*
X143035422Y-76444242D01*
X142919392Y-76539465D01*
X142835299Y-76584414D01*
X142787016Y-76610222D01*
X142739136Y-76624746D01*
X142643378Y-76653794D01*
X142494000Y-76668506D01*
X142344623Y-76653794D01*
X142248865Y-76624746D01*
X142200985Y-76610222D01*
X142152702Y-76584414D01*
X142068609Y-76539465D01*
X141952579Y-76444242D01*
X141857356Y-76328212D01*
X141786599Y-76195835D01*
X141775035Y-76157713D01*
X141743026Y-76052199D01*
X141732000Y-75940247D01*
X141732000Y-75189754D01*
X141743026Y-75077805D01*
X141743026Y-75077803D01*
X141786598Y-74934166D01*
X141786598Y-74934165D01*
X141821977Y-74867977D01*
X141857355Y-74801789D01*
X141952578Y-74685758D01*
X141952580Y-74685757D01*
X141952581Y-74685755D01*
X142054041Y-74602490D01*
X142068608Y-74590535D01*
X142152701Y-74545586D01*
X142200984Y-74519778D01*
X142248864Y-74505254D01*
X142344622Y-74476206D01*
X142494000Y-74461494D01*
X142643377Y-74476206D01*
X142643377Y-74476206D01*
G37*
G36*
X145183377Y-74476206D02*
X145279135Y-74505254D01*
X145327015Y-74519778D01*
X145393202Y-74555156D01*
X145459391Y-74590535D01*
X145575422Y-74685758D01*
X145575423Y-74685760D01*
X145575425Y-74685761D01*
X145632556Y-74755376D01*
X145670645Y-74801788D01*
X145715594Y-74885881D01*
X145741402Y-74934164D01*
X145752966Y-74972287D01*
X145784974Y-75077802D01*
X145796000Y-75189754D01*
X145796000Y-75940246D01*
X145784974Y-76052198D01*
X145755926Y-76147956D01*
X145741402Y-76195836D01*
X145715594Y-76244119D01*
X145670645Y-76328212D01*
X145575422Y-76444242D01*
X145459392Y-76539465D01*
X145375299Y-76584414D01*
X145327016Y-76610222D01*
X145279136Y-76624746D01*
X145183378Y-76653794D01*
X145034000Y-76668506D01*
X144884623Y-76653794D01*
X144788865Y-76624746D01*
X144740985Y-76610222D01*
X144692702Y-76584414D01*
X144608609Y-76539465D01*
X144492579Y-76444242D01*
X144397356Y-76328212D01*
X144326599Y-76195835D01*
X144315035Y-76157713D01*
X144283026Y-76052199D01*
X144272000Y-75940247D01*
X144272000Y-75189754D01*
X144283026Y-75077805D01*
X144283026Y-75077803D01*
X144326598Y-74934166D01*
X144326598Y-74934165D01*
X144361977Y-74867977D01*
X144397355Y-74801789D01*
X144492578Y-74685758D01*
X144492580Y-74685757D01*
X144492581Y-74685755D01*
X144594041Y-74602490D01*
X144608608Y-74590535D01*
X144692701Y-74545586D01*
X144740984Y-74519778D01*
X144788864Y-74505254D01*
X144884622Y-74476206D01*
X145034000Y-74461494D01*
X145183377Y-74476206D01*
X145183377Y-74476206D01*
G37*
G36*
X132483377Y-74476206D02*
X132579135Y-74505254D01*
X132627015Y-74519778D01*
X132693202Y-74555156D01*
X132759391Y-74590535D01*
X132875422Y-74685758D01*
X132875423Y-74685760D01*
X132875425Y-74685761D01*
X132932556Y-74755376D01*
X132970645Y-74801788D01*
X133015594Y-74885881D01*
X133041402Y-74934164D01*
X133052966Y-74972287D01*
X133084974Y-75077802D01*
X133096000Y-75189754D01*
X133096000Y-75940246D01*
X133084974Y-76052198D01*
X133055926Y-76147956D01*
X133041402Y-76195836D01*
X133015594Y-76244119D01*
X132970645Y-76328212D01*
X132875422Y-76444242D01*
X132759392Y-76539465D01*
X132675299Y-76584414D01*
X132627016Y-76610222D01*
X132579136Y-76624746D01*
X132483378Y-76653794D01*
X132334000Y-76668506D01*
X132184623Y-76653794D01*
X132088865Y-76624746D01*
X132040985Y-76610222D01*
X131992702Y-76584414D01*
X131908609Y-76539465D01*
X131792579Y-76444242D01*
X131697356Y-76328212D01*
X131626599Y-76195835D01*
X131615035Y-76157713D01*
X131583026Y-76052199D01*
X131572000Y-75940247D01*
X131572000Y-75189754D01*
X131583026Y-75077805D01*
X131583026Y-75077803D01*
X131626598Y-74934166D01*
X131626598Y-74934165D01*
X131661977Y-74867977D01*
X131697355Y-74801789D01*
X131792578Y-74685758D01*
X131792580Y-74685757D01*
X131792581Y-74685755D01*
X131894041Y-74602490D01*
X131908608Y-74590535D01*
X131992701Y-74545586D01*
X132040984Y-74519778D01*
X132088864Y-74505254D01*
X132184622Y-74476206D01*
X132334000Y-74461494D01*
X132483377Y-74476206D01*
X132483377Y-74476206D01*
G37*
G36*
X174647377Y-74476206D02*
X174743135Y-74505254D01*
X174791015Y-74519778D01*
X174857202Y-74555156D01*
X174923391Y-74590535D01*
X175039422Y-74685758D01*
X175039423Y-74685760D01*
X175039425Y-74685761D01*
X175096556Y-74755376D01*
X175134645Y-74801788D01*
X175179594Y-74885881D01*
X175205402Y-74934164D01*
X175216966Y-74972287D01*
X175248974Y-75077802D01*
X175260000Y-75189754D01*
X175260000Y-75940246D01*
X175248974Y-76052198D01*
X175219926Y-76147956D01*
X175205402Y-76195836D01*
X175179594Y-76244119D01*
X175134645Y-76328212D01*
X175039422Y-76444242D01*
X174923392Y-76539465D01*
X174839299Y-76584414D01*
X174791016Y-76610222D01*
X174743136Y-76624746D01*
X174647378Y-76653794D01*
X174498000Y-76668506D01*
X174348623Y-76653794D01*
X174252865Y-76624746D01*
X174204985Y-76610222D01*
X174156702Y-76584414D01*
X174072609Y-76539465D01*
X173956579Y-76444242D01*
X173861356Y-76328212D01*
X173790599Y-76195835D01*
X173779035Y-76157713D01*
X173747026Y-76052199D01*
X173736000Y-75940247D01*
X173736000Y-75189754D01*
X173747026Y-75077805D01*
X173747026Y-75077803D01*
X173790598Y-74934166D01*
X173790598Y-74934165D01*
X173825977Y-74867977D01*
X173861355Y-74801789D01*
X173956578Y-74685758D01*
X173956580Y-74685757D01*
X173956581Y-74685755D01*
X174058041Y-74602490D01*
X174072608Y-74590535D01*
X174156701Y-74545586D01*
X174204984Y-74519778D01*
X174252864Y-74505254D01*
X174348622Y-74476206D01*
X174498000Y-74461494D01*
X174647377Y-74476206D01*
X174647377Y-74476206D01*
G37*
G36*
X172107377Y-74476206D02*
X172203135Y-74505254D01*
X172251015Y-74519778D01*
X172317202Y-74555156D01*
X172383391Y-74590535D01*
X172499422Y-74685758D01*
X172499423Y-74685760D01*
X172499425Y-74685761D01*
X172556556Y-74755376D01*
X172594645Y-74801788D01*
X172639594Y-74885881D01*
X172665402Y-74934164D01*
X172676966Y-74972287D01*
X172708974Y-75077802D01*
X172720000Y-75189754D01*
X172720000Y-75940246D01*
X172708974Y-76052198D01*
X172679926Y-76147956D01*
X172665402Y-76195836D01*
X172639594Y-76244119D01*
X172594645Y-76328212D01*
X172499422Y-76444242D01*
X172383392Y-76539465D01*
X172299299Y-76584414D01*
X172251016Y-76610222D01*
X172203136Y-76624746D01*
X172107378Y-76653794D01*
X171958000Y-76668506D01*
X171808623Y-76653794D01*
X171712865Y-76624746D01*
X171664985Y-76610222D01*
X171616702Y-76584414D01*
X171532609Y-76539465D01*
X171416579Y-76444242D01*
X171321356Y-76328212D01*
X171250599Y-76195835D01*
X171239035Y-76157713D01*
X171207026Y-76052199D01*
X171196000Y-75940247D01*
X171196000Y-75189754D01*
X171207026Y-75077805D01*
X171207026Y-75077803D01*
X171250598Y-74934166D01*
X171250598Y-74934165D01*
X171285977Y-74867977D01*
X171321355Y-74801789D01*
X171416578Y-74685758D01*
X171416580Y-74685757D01*
X171416581Y-74685755D01*
X171518041Y-74602490D01*
X171532608Y-74590535D01*
X171616701Y-74545586D01*
X171664984Y-74519778D01*
X171712864Y-74505254D01*
X171808622Y-74476206D01*
X171958000Y-74461494D01*
X172107377Y-74476206D01*
X172107377Y-74476206D01*
G37*
G36*
X169567377Y-74476206D02*
X169663135Y-74505254D01*
X169711015Y-74519778D01*
X169777202Y-74555156D01*
X169843391Y-74590535D01*
X169959422Y-74685758D01*
X169959423Y-74685760D01*
X169959425Y-74685761D01*
X170016556Y-74755376D01*
X170054645Y-74801788D01*
X170099594Y-74885881D01*
X170125402Y-74934164D01*
X170136966Y-74972287D01*
X170168974Y-75077802D01*
X170180000Y-75189754D01*
X170180000Y-75940246D01*
X170168974Y-76052198D01*
X170139926Y-76147956D01*
X170125402Y-76195836D01*
X170099594Y-76244119D01*
X170054645Y-76328212D01*
X169959422Y-76444242D01*
X169843392Y-76539465D01*
X169759299Y-76584414D01*
X169711016Y-76610222D01*
X169663136Y-76624746D01*
X169567378Y-76653794D01*
X169418000Y-76668506D01*
X169268623Y-76653794D01*
X169172865Y-76624746D01*
X169124985Y-76610222D01*
X169076702Y-76584414D01*
X168992609Y-76539465D01*
X168876579Y-76444242D01*
X168781356Y-76328212D01*
X168710599Y-76195835D01*
X168699035Y-76157713D01*
X168667026Y-76052199D01*
X168656000Y-75940247D01*
X168656000Y-75189754D01*
X168667026Y-75077805D01*
X168667026Y-75077803D01*
X168710598Y-74934166D01*
X168710598Y-74934165D01*
X168745977Y-74867977D01*
X168781355Y-74801789D01*
X168876578Y-74685758D01*
X168876580Y-74685757D01*
X168876581Y-74685755D01*
X168978041Y-74602490D01*
X168992608Y-74590535D01*
X169076701Y-74545586D01*
X169124984Y-74519778D01*
X169172864Y-74505254D01*
X169268622Y-74476206D01*
X169418000Y-74461494D01*
X169567377Y-74476206D01*
X169567377Y-74476206D01*
G37*
G36*
X167027377Y-74476206D02*
X167123135Y-74505254D01*
X167171015Y-74519778D01*
X167237202Y-74555156D01*
X167303391Y-74590535D01*
X167419422Y-74685758D01*
X167419423Y-74685760D01*
X167419425Y-74685761D01*
X167476556Y-74755376D01*
X167514645Y-74801788D01*
X167559594Y-74885881D01*
X167585402Y-74934164D01*
X167596966Y-74972287D01*
X167628974Y-75077802D01*
X167640000Y-75189754D01*
X167640000Y-75940246D01*
X167628974Y-76052198D01*
X167599926Y-76147956D01*
X167585402Y-76195836D01*
X167559594Y-76244119D01*
X167514645Y-76328212D01*
X167419422Y-76444242D01*
X167303392Y-76539465D01*
X167219299Y-76584414D01*
X167171016Y-76610222D01*
X167123136Y-76624746D01*
X167027378Y-76653794D01*
X166878000Y-76668506D01*
X166728623Y-76653794D01*
X166632865Y-76624746D01*
X166584985Y-76610222D01*
X166536702Y-76584414D01*
X166452609Y-76539465D01*
X166336579Y-76444242D01*
X166241356Y-76328212D01*
X166170599Y-76195835D01*
X166159035Y-76157713D01*
X166127026Y-76052199D01*
X166116000Y-75940247D01*
X166116000Y-75189754D01*
X166127026Y-75077805D01*
X166127026Y-75077803D01*
X166170598Y-74934166D01*
X166170598Y-74934165D01*
X166205977Y-74867977D01*
X166241355Y-74801789D01*
X166336578Y-74685758D01*
X166336580Y-74685757D01*
X166336581Y-74685755D01*
X166438041Y-74602490D01*
X166452608Y-74590535D01*
X166536701Y-74545586D01*
X166584984Y-74519778D01*
X166632864Y-74505254D01*
X166728622Y-74476206D01*
X166878000Y-74461494D01*
X167027377Y-74476206D01*
X167027377Y-74476206D01*
G37*
G36*
X164487377Y-74476206D02*
X164583135Y-74505254D01*
X164631015Y-74519778D01*
X164697202Y-74555156D01*
X164763391Y-74590535D01*
X164879422Y-74685758D01*
X164879423Y-74685760D01*
X164879425Y-74685761D01*
X164936556Y-74755376D01*
X164974645Y-74801788D01*
X165019594Y-74885881D01*
X165045402Y-74934164D01*
X165056966Y-74972287D01*
X165088974Y-75077802D01*
X165100000Y-75189754D01*
X165100000Y-75940246D01*
X165088974Y-76052198D01*
X165059926Y-76147956D01*
X165045402Y-76195836D01*
X165019594Y-76244119D01*
X164974645Y-76328212D01*
X164879422Y-76444242D01*
X164763392Y-76539465D01*
X164679299Y-76584414D01*
X164631016Y-76610222D01*
X164583136Y-76624746D01*
X164487378Y-76653794D01*
X164338000Y-76668506D01*
X164188623Y-76653794D01*
X164092865Y-76624746D01*
X164044985Y-76610222D01*
X163996702Y-76584414D01*
X163912609Y-76539465D01*
X163796579Y-76444242D01*
X163701356Y-76328212D01*
X163630599Y-76195835D01*
X163619035Y-76157713D01*
X163587026Y-76052199D01*
X163576000Y-75940247D01*
X163576000Y-75189754D01*
X163587026Y-75077805D01*
X163587026Y-75077803D01*
X163630598Y-74934166D01*
X163630598Y-74934165D01*
X163665977Y-74867977D01*
X163701355Y-74801789D01*
X163796578Y-74685758D01*
X163796580Y-74685757D01*
X163796581Y-74685755D01*
X163898041Y-74602490D01*
X163912608Y-74590535D01*
X163996701Y-74545586D01*
X164044984Y-74519778D01*
X164092864Y-74505254D01*
X164188622Y-74476206D01*
X164338000Y-74461494D01*
X164487377Y-74476206D01*
X164487377Y-74476206D01*
G37*
G36*
X161947377Y-74476206D02*
X162043135Y-74505254D01*
X162091015Y-74519778D01*
X162157202Y-74555156D01*
X162223391Y-74590535D01*
X162339422Y-74685758D01*
X162339423Y-74685760D01*
X162339425Y-74685761D01*
X162396556Y-74755376D01*
X162434645Y-74801788D01*
X162479594Y-74885881D01*
X162505402Y-74934164D01*
X162516966Y-74972287D01*
X162548974Y-75077802D01*
X162560000Y-75189754D01*
X162560000Y-75940246D01*
X162548974Y-76052198D01*
X162519926Y-76147956D01*
X162505402Y-76195836D01*
X162479594Y-76244119D01*
X162434645Y-76328212D01*
X162339422Y-76444242D01*
X162223392Y-76539465D01*
X162139299Y-76584414D01*
X162091016Y-76610222D01*
X162043136Y-76624746D01*
X161947378Y-76653794D01*
X161798000Y-76668506D01*
X161648623Y-76653794D01*
X161552865Y-76624746D01*
X161504985Y-76610222D01*
X161456702Y-76584414D01*
X161372609Y-76539465D01*
X161256579Y-76444242D01*
X161161356Y-76328212D01*
X161090599Y-76195835D01*
X161079035Y-76157713D01*
X161047026Y-76052199D01*
X161036000Y-75940247D01*
X161036000Y-75189754D01*
X161047026Y-75077805D01*
X161047026Y-75077803D01*
X161090598Y-74934166D01*
X161090598Y-74934165D01*
X161125977Y-74867977D01*
X161161355Y-74801789D01*
X161256578Y-74685758D01*
X161256580Y-74685757D01*
X161256581Y-74685755D01*
X161358041Y-74602490D01*
X161372608Y-74590535D01*
X161456701Y-74545586D01*
X161504984Y-74519778D01*
X161552864Y-74505254D01*
X161648622Y-74476206D01*
X161798000Y-74461494D01*
X161947377Y-74476206D01*
X161947377Y-74476206D01*
G37*
G36*
X159407377Y-74476206D02*
X159503135Y-74505254D01*
X159551015Y-74519778D01*
X159617202Y-74555156D01*
X159683391Y-74590535D01*
X159799422Y-74685758D01*
X159799423Y-74685760D01*
X159799425Y-74685761D01*
X159856556Y-74755376D01*
X159894645Y-74801788D01*
X159939594Y-74885881D01*
X159965402Y-74934164D01*
X159976966Y-74972287D01*
X160008974Y-75077802D01*
X160020000Y-75189754D01*
X160020000Y-75940246D01*
X160008974Y-76052198D01*
X159979926Y-76147956D01*
X159965402Y-76195836D01*
X159939594Y-76244119D01*
X159894645Y-76328212D01*
X159799422Y-76444242D01*
X159683392Y-76539465D01*
X159599299Y-76584414D01*
X159551016Y-76610222D01*
X159503136Y-76624746D01*
X159407378Y-76653794D01*
X159258000Y-76668506D01*
X159108623Y-76653794D01*
X159012865Y-76624746D01*
X158964985Y-76610222D01*
X158916702Y-76584414D01*
X158832609Y-76539465D01*
X158716579Y-76444242D01*
X158621356Y-76328212D01*
X158550599Y-76195835D01*
X158539035Y-76157713D01*
X158507026Y-76052199D01*
X158496000Y-75940247D01*
X158496000Y-75189754D01*
X158507026Y-75077805D01*
X158507026Y-75077803D01*
X158550598Y-74934166D01*
X158550598Y-74934165D01*
X158585977Y-74867977D01*
X158621355Y-74801789D01*
X158716578Y-74685758D01*
X158716580Y-74685757D01*
X158716581Y-74685755D01*
X158818041Y-74602490D01*
X158832608Y-74590535D01*
X158916701Y-74545586D01*
X158964984Y-74519778D01*
X159012864Y-74505254D01*
X159108622Y-74476206D01*
X159258000Y-74461494D01*
X159407377Y-74476206D01*
X159407377Y-74476206D01*
G37*
G36*
X135023377Y-74476206D02*
X135119135Y-74505254D01*
X135167015Y-74519778D01*
X135233202Y-74555156D01*
X135299391Y-74590535D01*
X135415422Y-74685758D01*
X135415423Y-74685760D01*
X135415425Y-74685761D01*
X135472556Y-74755376D01*
X135510645Y-74801788D01*
X135555594Y-74885881D01*
X135581402Y-74934164D01*
X135592966Y-74972287D01*
X135624974Y-75077802D01*
X135636000Y-75189754D01*
X135636000Y-75940246D01*
X135624974Y-76052198D01*
X135595926Y-76147956D01*
X135581402Y-76195836D01*
X135555594Y-76244119D01*
X135510645Y-76328212D01*
X135415422Y-76444242D01*
X135299392Y-76539465D01*
X135215299Y-76584414D01*
X135167016Y-76610222D01*
X135119136Y-76624746D01*
X135023378Y-76653794D01*
X134874000Y-76668506D01*
X134724623Y-76653794D01*
X134628865Y-76624746D01*
X134580985Y-76610222D01*
X134532702Y-76584414D01*
X134448609Y-76539465D01*
X134332579Y-76444242D01*
X134237356Y-76328212D01*
X134166599Y-76195835D01*
X134155035Y-76157713D01*
X134123026Y-76052199D01*
X134112000Y-75940247D01*
X134112000Y-75189754D01*
X134123026Y-75077805D01*
X134123026Y-75077803D01*
X134166598Y-74934166D01*
X134166598Y-74934165D01*
X134201977Y-74867977D01*
X134237355Y-74801789D01*
X134332578Y-74685758D01*
X134332580Y-74685757D01*
X134332581Y-74685755D01*
X134434041Y-74602490D01*
X134448608Y-74590535D01*
X134532701Y-74545586D01*
X134580984Y-74519778D01*
X134628864Y-74505254D01*
X134724622Y-74476206D01*
X134874000Y-74461494D01*
X135023377Y-74476206D01*
X135023377Y-74476206D01*
G37*
G36*
X137563377Y-74476206D02*
X137659135Y-74505254D01*
X137707015Y-74519778D01*
X137773202Y-74555156D01*
X137839391Y-74590535D01*
X137955422Y-74685758D01*
X137955423Y-74685760D01*
X137955425Y-74685761D01*
X138012556Y-74755376D01*
X138050645Y-74801788D01*
X138095594Y-74885881D01*
X138121402Y-74934164D01*
X138132966Y-74972287D01*
X138164974Y-75077802D01*
X138176000Y-75189754D01*
X138176000Y-75940246D01*
X138164974Y-76052198D01*
X138135926Y-76147956D01*
X138121402Y-76195836D01*
X138095594Y-76244119D01*
X138050645Y-76328212D01*
X137955422Y-76444242D01*
X137839392Y-76539465D01*
X137755299Y-76584414D01*
X137707016Y-76610222D01*
X137659136Y-76624746D01*
X137563378Y-76653794D01*
X137414000Y-76668506D01*
X137264623Y-76653794D01*
X137168865Y-76624746D01*
X137120985Y-76610222D01*
X137072702Y-76584414D01*
X136988609Y-76539465D01*
X136872579Y-76444242D01*
X136777356Y-76328212D01*
X136706599Y-76195835D01*
X136695035Y-76157713D01*
X136663026Y-76052199D01*
X136652000Y-75940247D01*
X136652000Y-75189754D01*
X136663026Y-75077805D01*
X136663026Y-75077803D01*
X136706598Y-74934166D01*
X136706598Y-74934165D01*
X136741977Y-74867977D01*
X136777355Y-74801789D01*
X136872578Y-74685758D01*
X136872580Y-74685757D01*
X136872581Y-74685755D01*
X136974041Y-74602490D01*
X136988608Y-74590535D01*
X137072701Y-74545586D01*
X137120984Y-74519778D01*
X137168864Y-74505254D01*
X137264622Y-74476206D01*
X137414000Y-74461494D01*
X137563377Y-74476206D01*
X137563377Y-74476206D01*
G37*
G36*
X147723377Y-74476206D02*
X147819135Y-74505254D01*
X147867015Y-74519778D01*
X147933202Y-74555156D01*
X147999391Y-74590535D01*
X148115422Y-74685758D01*
X148115423Y-74685760D01*
X148115425Y-74685761D01*
X148172556Y-74755376D01*
X148210645Y-74801788D01*
X148255594Y-74885881D01*
X148281402Y-74934164D01*
X148292966Y-74972287D01*
X148324974Y-75077802D01*
X148336000Y-75189754D01*
X148336000Y-75940246D01*
X148324974Y-76052198D01*
X148295926Y-76147956D01*
X148281402Y-76195836D01*
X148255594Y-76244119D01*
X148210645Y-76328212D01*
X148115422Y-76444242D01*
X147999392Y-76539465D01*
X147915299Y-76584414D01*
X147867016Y-76610222D01*
X147819136Y-76624746D01*
X147723378Y-76653794D01*
X147574000Y-76668506D01*
X147424623Y-76653794D01*
X147328865Y-76624746D01*
X147280985Y-76610222D01*
X147232702Y-76584414D01*
X147148609Y-76539465D01*
X147032579Y-76444242D01*
X146937356Y-76328212D01*
X146866599Y-76195835D01*
X146855035Y-76157713D01*
X146823026Y-76052199D01*
X146812000Y-75940247D01*
X146812000Y-75189754D01*
X146823026Y-75077805D01*
X146823026Y-75077803D01*
X146866598Y-74934166D01*
X146866598Y-74934165D01*
X146901977Y-74867977D01*
X146937355Y-74801789D01*
X147032578Y-74685758D01*
X147032580Y-74685757D01*
X147032581Y-74685755D01*
X147134041Y-74602490D01*
X147148608Y-74590535D01*
X147232701Y-74545586D01*
X147280984Y-74519778D01*
X147328864Y-74505254D01*
X147424622Y-74476206D01*
X147574000Y-74461494D01*
X147723377Y-74476206D01*
X147723377Y-74476206D01*
G37*
G36*
X140103377Y-74476206D02*
X140199135Y-74505254D01*
X140247015Y-74519778D01*
X140313202Y-74555156D01*
X140379391Y-74590535D01*
X140495422Y-74685758D01*
X140495423Y-74685760D01*
X140495425Y-74685761D01*
X140552556Y-74755376D01*
X140590645Y-74801788D01*
X140635594Y-74885881D01*
X140661402Y-74934164D01*
X140672966Y-74972287D01*
X140704974Y-75077802D01*
X140716000Y-75189754D01*
X140716000Y-75940246D01*
X140704974Y-76052198D01*
X140675926Y-76147956D01*
X140661402Y-76195836D01*
X140635594Y-76244119D01*
X140590645Y-76328212D01*
X140495422Y-76444242D01*
X140379392Y-76539465D01*
X140295299Y-76584414D01*
X140247016Y-76610222D01*
X140199136Y-76624746D01*
X140103378Y-76653794D01*
X139954000Y-76668506D01*
X139804623Y-76653794D01*
X139708865Y-76624746D01*
X139660985Y-76610222D01*
X139612702Y-76584414D01*
X139528609Y-76539465D01*
X139412579Y-76444242D01*
X139317356Y-76328212D01*
X139246599Y-76195835D01*
X139235035Y-76157713D01*
X139203026Y-76052199D01*
X139192000Y-75940247D01*
X139192000Y-75189754D01*
X139203026Y-75077805D01*
X139203026Y-75077803D01*
X139246598Y-74934166D01*
X139246598Y-74934165D01*
X139281977Y-74867977D01*
X139317355Y-74801789D01*
X139412578Y-74685758D01*
X139412580Y-74685757D01*
X139412581Y-74685755D01*
X139514041Y-74602490D01*
X139528608Y-74590535D01*
X139612701Y-74545586D01*
X139660984Y-74519778D01*
X139708864Y-74505254D01*
X139804622Y-74476206D01*
X139954000Y-74461494D01*
X140103377Y-74476206D01*
X140103377Y-74476206D01*
G37*
G36*
X157480000Y-76664820D02*
X155956000Y-76664820D01*
X155956000Y-74465180D01*
X157480000Y-74465180D01*
X157480000Y-76664820D01*
X157480000Y-76664820D01*
G37*
G36*
X130556000Y-76664820D02*
X129032000Y-76664820D01*
X129032000Y-74465180D01*
X130556000Y-74465180D01*
X130556000Y-76664820D01*
X130556000Y-76664820D01*
G37*
M02*
