%FSLAX45Y45*%
G04 Gerber Fmt 4.5, Leading zero omitted, Abs format (unit mm)*
G04 Created by KiCad (PCBNEW (5.0.1)-3) date 12/04/2019 12:39:02*
%MOMM*%
%LPD*%
G01*
G04 APERTURE LIST*
%ADD10C,0.150000*%
%ADD11C,0.200000*%
%ADD12C,0.300000*%
G04 APERTURE END LIST*
D10*
X17983200Y-8801100D02*
X17983200Y-12509500D01*
X17894300Y-8712200D02*
X17983200Y-8801100D01*
X17741900Y-8712200D02*
X17894300Y-8712200D01*
X17653000Y-8623300D02*
X17741900Y-8712200D01*
X17653000Y-7404100D02*
X17653000Y-8623300D01*
X12801600Y-12077700D02*
X12319000Y-12077700D01*
X12903200Y-11976100D02*
X12801600Y-12077700D01*
X12903200Y-7937500D02*
X12903200Y-11976100D01*
X12827000Y-7861300D02*
X12903200Y-7937500D01*
X12344400Y-7734300D02*
X12344400Y-7404100D01*
X12471400Y-7861300D02*
X12344400Y-7734300D01*
X12827000Y-7861300D02*
X12471400Y-7861300D01*
X18059400Y-12585700D02*
X17983200Y-12509500D01*
X18364200Y-12585700D02*
X18059400Y-12585700D01*
X18338800Y-13855700D02*
X17576800Y-13855700D01*
X18440400Y-13754100D02*
X18338800Y-13855700D01*
X18440400Y-12661900D02*
X18440400Y-13754100D01*
X18364200Y-12585700D02*
X18440400Y-12661900D01*
X17551400Y-7302500D02*
X17653000Y-7404100D01*
X17576800Y-13855700D02*
X12319000Y-13855700D01*
X12319000Y-13855700D02*
X12166600Y-13703300D01*
X12446000Y-7302500D02*
X17551400Y-7302500D01*
X12344400Y-7404100D02*
X12446000Y-7302500D01*
X12166600Y-13703300D02*
X12166600Y-12230100D01*
X12166600Y-12230100D02*
X12319000Y-12077700D01*
D11*
D12*
X12445528Y-14328914D02*
X12445528Y-14028914D01*
X12516957Y-14028914D01*
X12559814Y-14043200D01*
X12588386Y-14071771D01*
X12602671Y-14100343D01*
X12616957Y-14157486D01*
X12616957Y-14200343D01*
X12602671Y-14257486D01*
X12588386Y-14286057D01*
X12559814Y-14314629D01*
X12516957Y-14328914D01*
X12445528Y-14328914D01*
X12745528Y-14328914D02*
X12745528Y-14128914D01*
X12745528Y-14186057D02*
X12759814Y-14157486D01*
X12774100Y-14143200D01*
X12802671Y-14128914D01*
X12831243Y-14128914D01*
X12931243Y-14328914D02*
X12931243Y-14128914D01*
X12931243Y-14028914D02*
X12916957Y-14043200D01*
X12931243Y-14057486D01*
X12945528Y-14043200D01*
X12931243Y-14028914D01*
X12931243Y-14057486D01*
X13116957Y-14328914D02*
X13088386Y-14314629D01*
X13074100Y-14286057D01*
X13074100Y-14028914D01*
X13274100Y-14328914D02*
X13245528Y-14314629D01*
X13231243Y-14286057D01*
X13231243Y-14028914D01*
X13616957Y-14328914D02*
X13616957Y-14028914D01*
X13716957Y-14243200D01*
X13816957Y-14028914D01*
X13816957Y-14328914D01*
X14088386Y-14328914D02*
X14088386Y-14171771D01*
X14074100Y-14143200D01*
X14045528Y-14128914D01*
X13988386Y-14128914D01*
X13959814Y-14143200D01*
X14088386Y-14314629D02*
X14059814Y-14328914D01*
X13988386Y-14328914D01*
X13959814Y-14314629D01*
X13945528Y-14286057D01*
X13945528Y-14257486D01*
X13959814Y-14228914D01*
X13988386Y-14214629D01*
X14059814Y-14214629D01*
X14088386Y-14200343D01*
X14231243Y-14128914D02*
X14231243Y-14428914D01*
X14231243Y-14143200D02*
X14259814Y-14128914D01*
X14316957Y-14128914D01*
X14345528Y-14143200D01*
X14359814Y-14157486D01*
X14374100Y-14186057D01*
X14374100Y-14271771D01*
X14359814Y-14300343D01*
X14345528Y-14314629D01*
X14316957Y-14328914D01*
X14259814Y-14328914D01*
X14231243Y-14314629D01*
X14502671Y-14300343D02*
X14516957Y-14314629D01*
X14502671Y-14328914D01*
X14488386Y-14314629D01*
X14502671Y-14300343D01*
X14502671Y-14328914D01*
X14502671Y-14143200D02*
X14516957Y-14157486D01*
X14502671Y-14171771D01*
X14488386Y-14157486D01*
X14502671Y-14143200D01*
X14502671Y-14171771D01*
M02*
