G04 #@! TF.GenerationSoftware,KiCad,Pcbnew,(5.0.0)*
G04 #@! TF.CreationDate,2018-09-27T16:15:40-05:00*
G04 #@! TF.ProjectId,ArduinoBreadBoard,41726475696E6F4272656164426F6172,rev?*
G04 #@! TF.SameCoordinates,Original*
G04 #@! TF.FileFunction,Soldermask,Bot*
G04 #@! TF.FilePolarity,Negative*
%FSLAX46Y46*%
G04 Gerber Fmt 4.6, Leading zero omitted, Abs format (unit mm)*
G04 Created by KiCad (PCBNEW (5.0.0)) date 09/27/18 16:15:40*
%MOMM*%
%LPD*%
G01*
G04 APERTURE LIST*
%ADD10R,2.900000X2.900000*%
%ADD11O,2.900000X2.900000*%
%ADD12O,2.000000X2.000000*%
%ADD13R,2.000000X2.000000*%
%ADD14C,2.398980*%
%ADD15C,2.900000*%
%ADD16C,3.400000*%
G04 APERTURE END LIST*
D10*
G04 #@! TO.C,K3*
X166370000Y-83820000D03*
D11*
X160370000Y-85820000D03*
X160370000Y-98020000D03*
X172370000Y-98020000D03*
X172370000Y-85820000D03*
G04 #@! TD*
G04 #@! TO.C,K4*
X189515000Y-85820000D03*
X189515000Y-98020000D03*
X177515000Y-98020000D03*
X177515000Y-85820000D03*
D10*
X183515000Y-83820000D03*
G04 #@! TD*
G04 #@! TO.C,K1*
X132080000Y-83820000D03*
D11*
X126080000Y-85820000D03*
X126080000Y-98020000D03*
X138080000Y-98020000D03*
X138080000Y-85820000D03*
G04 #@! TD*
D12*
G04 #@! TO.C,U3*
X170053000Y-74930000D03*
X167513000Y-67310000D03*
X167513000Y-74930000D03*
D13*
X170053000Y-67310000D03*
G04 #@! TD*
D14*
G04 #@! TO.C,Y1*
X106426000Y-87630000D03*
X106426000Y-92710000D03*
G04 #@! TD*
D15*
G04 #@! TO.C,J4*
X188388000Y-110236000D03*
X178388000Y-110236000D03*
X183388000Y-110236000D03*
G04 #@! TD*
G04 #@! TO.C,J3*
X171624000Y-110236000D03*
X161624000Y-110236000D03*
X166624000Y-110236000D03*
G04 #@! TD*
D10*
G04 #@! TO.C,K2*
X149225000Y-83820000D03*
D11*
X143225000Y-85820000D03*
X143225000Y-98020000D03*
X155225000Y-98020000D03*
X155225000Y-85820000D03*
G04 #@! TD*
D12*
G04 #@! TO.C,U4*
X187198000Y-74930000D03*
X184658000Y-67310000D03*
X184658000Y-74930000D03*
D13*
X187198000Y-67310000D03*
G04 #@! TD*
D15*
G04 #@! TO.C,J1*
X132080000Y-110236000D03*
X127080000Y-110236000D03*
X137080000Y-110236000D03*
G04 #@! TD*
G04 #@! TO.C,J2*
X154352000Y-110236000D03*
X144352000Y-110236000D03*
X149352000Y-110236000D03*
G04 #@! TD*
D12*
G04 #@! TO.C,U1*
X134493000Y-74930000D03*
X131953000Y-67310000D03*
X131953000Y-74930000D03*
D13*
X134493000Y-67310000D03*
G04 #@! TD*
G04 #@! TO.C,U2*
X152273000Y-67310000D03*
D12*
X149733000Y-74930000D03*
X149733000Y-67310000D03*
X152273000Y-74930000D03*
G04 #@! TD*
D15*
G04 #@! TO.C,J5*
X119260000Y-110236000D03*
X114260000Y-110236000D03*
X104260000Y-110236000D03*
X109260000Y-110236000D03*
G04 #@! TD*
G04 #@! TO.C,J6*
X92496000Y-110236000D03*
X97496000Y-110236000D03*
G04 #@! TD*
D12*
G04 #@! TO.C,U6*
X119380000Y-68580000D03*
X111760000Y-101600000D03*
X119380000Y-71120000D03*
X111760000Y-99060000D03*
X119380000Y-73660000D03*
X111760000Y-96520000D03*
X119380000Y-76200000D03*
X111760000Y-93980000D03*
X119380000Y-78740000D03*
X111760000Y-91440000D03*
X119380000Y-81280000D03*
X111760000Y-88900000D03*
X119380000Y-83820000D03*
X111760000Y-86360000D03*
X119380000Y-86360000D03*
X111760000Y-83820000D03*
X119380000Y-88900000D03*
X111760000Y-81280000D03*
X119380000Y-91440000D03*
X111760000Y-78740000D03*
X119380000Y-93980000D03*
X111760000Y-76200000D03*
X119380000Y-96520000D03*
X111760000Y-73660000D03*
X119380000Y-99060000D03*
X111760000Y-71120000D03*
X119380000Y-101600000D03*
D13*
X111760000Y-68580000D03*
G04 #@! TD*
D16*
G04 #@! TO.C,J7*
X88138000Y-76136500D03*
X88138000Y-88646000D03*
X88138000Y-101155500D03*
G04 #@! TD*
G04 #@! TO.C,J8*
X193802000Y-101155500D03*
X193802000Y-88646000D03*
X193802000Y-76136500D03*
G04 #@! TD*
M02*
