%FSLAX45Y45*%
G04 Gerber Fmt 4.5, Leading zero omitted, Abs format (unit mm)*
G04 Created by KiCad (PCBNEW 4.0.6) date 02/01/18 18:05:08*
%MOMM*%
%LPD*%
G01*
G04 APERTURE LIST*
%ADD10C,0.127000*%
%ADD11C,0.150000*%
%ADD12C,0.200000*%
%ADD13C,0.300000*%
G04 APERTURE END LIST*
D10*
D11*
X21209000Y-7620000D02*
X6985000Y-7620000D01*
X21209000Y-10160000D02*
X21209000Y-7620000D01*
X6985000Y-10160000D02*
X21209000Y-10160000D01*
X6985000Y-7620000D02*
X6985000Y-10160000D01*
D12*
X8654200Y-8146200D02*
X9024200Y-8516200D01*
X9024200Y-8146200D02*
X8654200Y-8516200D01*
X8654200Y-9314600D02*
X9024200Y-9684600D01*
X9024200Y-9314600D02*
X8654200Y-9684600D01*
X19093600Y-8146200D02*
X19463600Y-8516200D01*
X19463600Y-8146200D02*
X19093600Y-8516200D01*
X19093600Y-9314600D02*
X19463600Y-9684600D01*
X19463600Y-9314600D02*
X19093600Y-9684600D01*
D13*
X7248928Y-10633214D02*
X7248928Y-10333214D01*
X7320357Y-10333214D01*
X7363214Y-10347500D01*
X7391786Y-10376072D01*
X7406071Y-10404643D01*
X7420357Y-10461786D01*
X7420357Y-10504643D01*
X7406071Y-10561786D01*
X7391786Y-10590357D01*
X7363214Y-10618929D01*
X7320357Y-10633214D01*
X7248928Y-10633214D01*
X7548928Y-10633214D02*
X7548928Y-10433214D01*
X7548928Y-10490357D02*
X7563214Y-10461786D01*
X7577500Y-10447500D01*
X7606071Y-10433214D01*
X7634643Y-10433214D01*
X7734643Y-10633214D02*
X7734643Y-10433214D01*
X7734643Y-10333214D02*
X7720357Y-10347500D01*
X7734643Y-10361786D01*
X7748928Y-10347500D01*
X7734643Y-10333214D01*
X7734643Y-10361786D01*
X7920357Y-10633214D02*
X7891786Y-10618929D01*
X7877500Y-10590357D01*
X7877500Y-10333214D01*
X8077500Y-10633214D02*
X8048928Y-10618929D01*
X8034643Y-10590357D01*
X8034643Y-10333214D01*
X8420357Y-10633214D02*
X8420357Y-10333214D01*
X8520357Y-10547500D01*
X8620357Y-10333214D01*
X8620357Y-10633214D01*
X8891786Y-10633214D02*
X8891786Y-10476072D01*
X8877500Y-10447500D01*
X8848929Y-10433214D01*
X8791786Y-10433214D01*
X8763214Y-10447500D01*
X8891786Y-10618929D02*
X8863214Y-10633214D01*
X8791786Y-10633214D01*
X8763214Y-10618929D01*
X8748929Y-10590357D01*
X8748929Y-10561786D01*
X8763214Y-10533214D01*
X8791786Y-10518929D01*
X8863214Y-10518929D01*
X8891786Y-10504643D01*
X9034643Y-10433214D02*
X9034643Y-10733214D01*
X9034643Y-10447500D02*
X9063214Y-10433214D01*
X9120357Y-10433214D01*
X9148929Y-10447500D01*
X9163214Y-10461786D01*
X9177500Y-10490357D01*
X9177500Y-10576072D01*
X9163214Y-10604643D01*
X9148929Y-10618929D01*
X9120357Y-10633214D01*
X9063214Y-10633214D01*
X9034643Y-10618929D01*
X9306071Y-10604643D02*
X9320357Y-10618929D01*
X9306071Y-10633214D01*
X9291786Y-10618929D01*
X9306071Y-10604643D01*
X9306071Y-10633214D01*
X9306071Y-10447500D02*
X9320357Y-10461786D01*
X9306071Y-10476072D01*
X9291786Y-10461786D01*
X9306071Y-10447500D01*
X9306071Y-10476072D01*
X6607500Y-10942500D02*
X6977500Y-11312500D01*
X6977500Y-10942500D02*
X6607500Y-11312500D01*
X7220357Y-10963214D02*
X7406071Y-10963214D01*
X7306071Y-11077500D01*
X7348928Y-11077500D01*
X7377500Y-11091786D01*
X7391786Y-11106072D01*
X7406071Y-11134643D01*
X7406071Y-11206071D01*
X7391786Y-11234643D01*
X7377500Y-11248929D01*
X7348928Y-11263214D01*
X7263214Y-11263214D01*
X7234643Y-11248929D01*
X7220357Y-11234643D01*
X7534643Y-11234643D02*
X7548928Y-11248929D01*
X7534643Y-11263214D01*
X7520357Y-11248929D01*
X7534643Y-11234643D01*
X7534643Y-11263214D01*
X7648928Y-10963214D02*
X7848928Y-10963214D01*
X7720357Y-11263214D01*
X8020357Y-10963214D02*
X8048928Y-10963214D01*
X8077500Y-10977500D01*
X8091786Y-10991786D01*
X8106071Y-11020357D01*
X8120357Y-11077500D01*
X8120357Y-11148929D01*
X8106071Y-11206071D01*
X8091786Y-11234643D01*
X8077500Y-11248929D01*
X8048928Y-11263214D01*
X8020357Y-11263214D01*
X7991786Y-11248929D01*
X7977500Y-11234643D01*
X7963214Y-11206071D01*
X7948928Y-11148929D01*
X7948928Y-11077500D01*
X7963214Y-11020357D01*
X7977500Y-10991786D01*
X7991786Y-10977500D01*
X8020357Y-10963214D01*
X8248928Y-11263214D02*
X8248928Y-11063214D01*
X8248928Y-11091786D02*
X8263214Y-11077500D01*
X8291786Y-11063214D01*
X8334643Y-11063214D01*
X8363214Y-11077500D01*
X8377500Y-11106072D01*
X8377500Y-11263214D01*
X8377500Y-11106072D02*
X8391786Y-11077500D01*
X8420357Y-11063214D01*
X8463214Y-11063214D01*
X8491786Y-11077500D01*
X8506071Y-11106072D01*
X8506071Y-11263214D01*
X8648929Y-11263214D02*
X8648929Y-11063214D01*
X8648929Y-11091786D02*
X8663214Y-11077500D01*
X8691786Y-11063214D01*
X8734643Y-11063214D01*
X8763214Y-11077500D01*
X8777500Y-11106072D01*
X8777500Y-11263214D01*
X8777500Y-11106072D02*
X8791786Y-11077500D01*
X8820357Y-11063214D01*
X8863214Y-11063214D01*
X8891786Y-11077500D01*
X8906071Y-11106072D01*
X8906071Y-11263214D01*
X9491786Y-10948929D02*
X9234643Y-11334643D01*
X9877500Y-10963214D02*
X9906071Y-10963214D01*
X9934643Y-10977500D01*
X9948928Y-10991786D01*
X9963214Y-11020357D01*
X9977500Y-11077500D01*
X9977500Y-11148929D01*
X9963214Y-11206071D01*
X9948928Y-11234643D01*
X9934643Y-11248929D01*
X9906071Y-11263214D01*
X9877500Y-11263214D01*
X9848928Y-11248929D01*
X9834643Y-11234643D01*
X9820357Y-11206071D01*
X9806071Y-11148929D01*
X9806071Y-11077500D01*
X9820357Y-11020357D01*
X9834643Y-10991786D01*
X9848928Y-10977500D01*
X9877500Y-10963214D01*
X10106071Y-11234643D02*
X10120357Y-11248929D01*
X10106071Y-11263214D01*
X10091786Y-11248929D01*
X10106071Y-11234643D01*
X10106071Y-11263214D01*
X10406071Y-11263214D02*
X10234643Y-11263214D01*
X10320357Y-11263214D02*
X10320357Y-10963214D01*
X10291786Y-11006072D01*
X10263214Y-11034643D01*
X10234643Y-11048929D01*
X10663214Y-11063214D02*
X10663214Y-11263214D01*
X10591786Y-10948929D02*
X10520357Y-11163214D01*
X10706071Y-11163214D01*
X10948928Y-10963214D02*
X10891786Y-10963214D01*
X10863214Y-10977500D01*
X10848928Y-10991786D01*
X10820357Y-11034643D01*
X10806071Y-11091786D01*
X10806071Y-11206071D01*
X10820357Y-11234643D01*
X10834643Y-11248929D01*
X10863214Y-11263214D01*
X10920357Y-11263214D01*
X10948928Y-11248929D01*
X10963214Y-11234643D01*
X10977500Y-11206071D01*
X10977500Y-11134643D01*
X10963214Y-11106072D01*
X10948928Y-11091786D01*
X10920357Y-11077500D01*
X10863214Y-11077500D01*
X10834643Y-11091786D01*
X10820357Y-11106072D01*
X10806071Y-11134643D01*
X11091786Y-10963214D02*
X11091786Y-11020357D01*
X11206071Y-10963214D02*
X11206071Y-11020357D01*
X11648928Y-11377500D02*
X11634643Y-11363214D01*
X11606071Y-11320357D01*
X11591785Y-11291786D01*
X11577500Y-11248929D01*
X11563214Y-11177500D01*
X11563214Y-11120357D01*
X11577500Y-11048929D01*
X11591785Y-11006072D01*
X11606071Y-10977500D01*
X11634643Y-10934643D01*
X11648928Y-10920357D01*
X11891785Y-11063214D02*
X11891785Y-11263214D01*
X11820357Y-10948929D02*
X11748928Y-11163214D01*
X11934643Y-11163214D01*
X12277500Y-11263214D02*
X12277500Y-10963214D01*
X12406071Y-11263214D02*
X12406071Y-11106072D01*
X12391785Y-11077500D01*
X12363214Y-11063214D01*
X12320357Y-11063214D01*
X12291785Y-11077500D01*
X12277500Y-11091786D01*
X12591785Y-11263214D02*
X12563214Y-11248929D01*
X12548928Y-11234643D01*
X12534643Y-11206071D01*
X12534643Y-11120357D01*
X12548928Y-11091786D01*
X12563214Y-11077500D01*
X12591785Y-11063214D01*
X12634643Y-11063214D01*
X12663214Y-11077500D01*
X12677500Y-11091786D01*
X12691785Y-11120357D01*
X12691785Y-11206071D01*
X12677500Y-11234643D01*
X12663214Y-11248929D01*
X12634643Y-11263214D01*
X12591785Y-11263214D01*
X12863214Y-11263214D02*
X12834643Y-11248929D01*
X12820357Y-11220357D01*
X12820357Y-10963214D01*
X13091786Y-11248929D02*
X13063214Y-11263214D01*
X13006071Y-11263214D01*
X12977500Y-11248929D01*
X12963214Y-11220357D01*
X12963214Y-11106072D01*
X12977500Y-11077500D01*
X13006071Y-11063214D01*
X13063214Y-11063214D01*
X13091786Y-11077500D01*
X13106071Y-11106072D01*
X13106071Y-11134643D01*
X12963214Y-11163214D01*
X13220357Y-11248929D02*
X13248928Y-11263214D01*
X13306071Y-11263214D01*
X13334643Y-11248929D01*
X13348928Y-11220357D01*
X13348928Y-11206071D01*
X13334643Y-11177500D01*
X13306071Y-11163214D01*
X13263214Y-11163214D01*
X13234643Y-11148929D01*
X13220357Y-11120357D01*
X13220357Y-11106072D01*
X13234643Y-11077500D01*
X13263214Y-11063214D01*
X13306071Y-11063214D01*
X13334643Y-11077500D01*
X13448928Y-11377500D02*
X13463214Y-11363214D01*
X13491786Y-11320357D01*
X13506071Y-11291786D01*
X13520357Y-11248929D01*
X13534643Y-11177500D01*
X13534643Y-11120357D01*
X13520357Y-11048929D01*
X13506071Y-11006072D01*
X13491786Y-10977500D01*
X13463214Y-10934643D01*
X13448928Y-10920357D01*
X13991786Y-11377500D02*
X13977500Y-11363214D01*
X13948928Y-11320357D01*
X13934643Y-11291786D01*
X13920357Y-11248929D01*
X13906071Y-11177500D01*
X13906071Y-11120357D01*
X13920357Y-11048929D01*
X13934643Y-11006072D01*
X13948928Y-10977500D01*
X13977500Y-10934643D01*
X13991786Y-10920357D01*
X14106071Y-11063214D02*
X14106071Y-11263214D01*
X14106071Y-11091786D02*
X14120357Y-11077500D01*
X14148928Y-11063214D01*
X14191786Y-11063214D01*
X14220357Y-11077500D01*
X14234643Y-11106072D01*
X14234643Y-11263214D01*
X14420357Y-11263214D02*
X14391786Y-11248929D01*
X14377500Y-11234643D01*
X14363214Y-11206071D01*
X14363214Y-11120357D01*
X14377500Y-11091786D01*
X14391786Y-11077500D01*
X14420357Y-11063214D01*
X14463214Y-11063214D01*
X14491786Y-11077500D01*
X14506071Y-11091786D01*
X14520357Y-11120357D01*
X14520357Y-11206071D01*
X14506071Y-11234643D01*
X14491786Y-11248929D01*
X14463214Y-11263214D01*
X14420357Y-11263214D01*
X14606071Y-11063214D02*
X14720357Y-11063214D01*
X14648928Y-10963214D02*
X14648928Y-11220357D01*
X14663214Y-11248929D01*
X14691786Y-11263214D01*
X14720357Y-11263214D01*
X15048928Y-11063214D02*
X15048928Y-11363214D01*
X15048928Y-11077500D02*
X15077500Y-11063214D01*
X15134643Y-11063214D01*
X15163214Y-11077500D01*
X15177500Y-11091786D01*
X15191786Y-11120357D01*
X15191786Y-11206071D01*
X15177500Y-11234643D01*
X15163214Y-11248929D01*
X15134643Y-11263214D01*
X15077500Y-11263214D01*
X15048928Y-11248929D01*
X15363214Y-11263214D02*
X15334643Y-11248929D01*
X15320357Y-11220357D01*
X15320357Y-10963214D01*
X15606071Y-11263214D02*
X15606071Y-11106072D01*
X15591786Y-11077500D01*
X15563214Y-11063214D01*
X15506071Y-11063214D01*
X15477500Y-11077500D01*
X15606071Y-11248929D02*
X15577500Y-11263214D01*
X15506071Y-11263214D01*
X15477500Y-11248929D01*
X15463214Y-11220357D01*
X15463214Y-11191786D01*
X15477500Y-11163214D01*
X15506071Y-11148929D01*
X15577500Y-11148929D01*
X15606071Y-11134643D01*
X15706071Y-11063214D02*
X15820357Y-11063214D01*
X15748929Y-10963214D02*
X15748929Y-11220357D01*
X15763214Y-11248929D01*
X15791786Y-11263214D01*
X15820357Y-11263214D01*
X16034643Y-11248929D02*
X16006071Y-11263214D01*
X15948929Y-11263214D01*
X15920357Y-11248929D01*
X15906071Y-11220357D01*
X15906071Y-11106072D01*
X15920357Y-11077500D01*
X15948929Y-11063214D01*
X16006071Y-11063214D01*
X16034643Y-11077500D01*
X16048929Y-11106072D01*
X16048929Y-11134643D01*
X15906071Y-11163214D01*
X16306071Y-11263214D02*
X16306071Y-10963214D01*
X16306071Y-11248929D02*
X16277500Y-11263214D01*
X16220357Y-11263214D01*
X16191786Y-11248929D01*
X16177500Y-11234643D01*
X16163214Y-11206071D01*
X16163214Y-11120357D01*
X16177500Y-11091786D01*
X16191786Y-11077500D01*
X16220357Y-11063214D01*
X16277500Y-11063214D01*
X16306071Y-11077500D01*
X16420357Y-11377500D02*
X16434643Y-11363214D01*
X16463214Y-11320357D01*
X16477500Y-11291786D01*
X16491786Y-11248929D01*
X16506071Y-11177500D01*
X16506071Y-11120357D01*
X16491786Y-11048929D01*
X16477500Y-11006072D01*
X16463214Y-10977500D01*
X16434643Y-10934643D01*
X16420357Y-10920357D01*
M02*
