G04 #@! TF.FileFunction,Legend,Top*
%FSLAX46Y46*%
G04 Gerber Fmt 4.6, Leading zero omitted, Abs format (unit mm)*
G04 Created by KiCad (PCBNEW 4.0.6) date 02/01/18 18:05:22*
%MOMM*%
%LPD*%
G01*
G04 APERTURE LIST*
%ADD10C,0.100000*%
%ADD11C,0.125000*%
%ADD12C,0.250000*%
%ADD13C,0.200000*%
%ADD14C,0.381000*%
%ADD15C,0.120000*%
%ADD16C,0.198120*%
%ADD17C,0.304800*%
%ADD18C,0.150000*%
%ADD19C,0.285750*%
%ADD20C,0.287020*%
%ADD21C,0.149860*%
%ADD22C,0.300000*%
G04 APERTURE END LIST*
D10*
D11*
X132911144Y-100919714D02*
X133292096Y-100919714D01*
X133101620Y-101110190D02*
X133101620Y-100729238D01*
X133768287Y-100610190D02*
X133530192Y-100610190D01*
X133506382Y-100848286D01*
X133530192Y-100824476D01*
X133577811Y-100800667D01*
X133696858Y-100800667D01*
X133744477Y-100824476D01*
X133768287Y-100848286D01*
X133792096Y-100895905D01*
X133792096Y-101014952D01*
X133768287Y-101062571D01*
X133744477Y-101086381D01*
X133696858Y-101110190D01*
X133577811Y-101110190D01*
X133530192Y-101086381D01*
X133506382Y-101062571D01*
X133934953Y-100610190D02*
X134101620Y-101110190D01*
X134268286Y-100610190D01*
X134720667Y-101062571D02*
X134696857Y-101086381D01*
X134625429Y-101110190D01*
X134577810Y-101110190D01*
X134506381Y-101086381D01*
X134458762Y-101038762D01*
X134434953Y-100991143D01*
X134411143Y-100895905D01*
X134411143Y-100824476D01*
X134434953Y-100729238D01*
X134458762Y-100681619D01*
X134506381Y-100634000D01*
X134577810Y-100610190D01*
X134625429Y-100610190D01*
X134696857Y-100634000D01*
X134720667Y-100657810D01*
X134934953Y-101110190D02*
X134934953Y-100610190D01*
X135054000Y-100610190D01*
X135125429Y-100634000D01*
X135173048Y-100681619D01*
X135196857Y-100729238D01*
X135220667Y-100824476D01*
X135220667Y-100895905D01*
X135196857Y-100991143D01*
X135173048Y-101038762D01*
X135125429Y-101086381D01*
X135054000Y-101110190D01*
X134934953Y-101110190D01*
X128711144Y-100919714D02*
X129092096Y-100919714D01*
X128901620Y-101110190D02*
X128901620Y-100729238D01*
X129568287Y-100610190D02*
X129330192Y-100610190D01*
X129306382Y-100848286D01*
X129330192Y-100824476D01*
X129377811Y-100800667D01*
X129496858Y-100800667D01*
X129544477Y-100824476D01*
X129568287Y-100848286D01*
X129592096Y-100895905D01*
X129592096Y-101014952D01*
X129568287Y-101062571D01*
X129544477Y-101086381D01*
X129496858Y-101110190D01*
X129377811Y-101110190D01*
X129330192Y-101086381D01*
X129306382Y-101062571D01*
X129734953Y-100610190D02*
X129901620Y-101110190D01*
X130068286Y-100610190D01*
X130520667Y-101062571D02*
X130496857Y-101086381D01*
X130425429Y-101110190D01*
X130377810Y-101110190D01*
X130306381Y-101086381D01*
X130258762Y-101038762D01*
X130234953Y-100991143D01*
X130211143Y-100895905D01*
X130211143Y-100824476D01*
X130234953Y-100729238D01*
X130258762Y-100681619D01*
X130306381Y-100634000D01*
X130377810Y-100610190D01*
X130425429Y-100610190D01*
X130496857Y-100634000D01*
X130520667Y-100657810D01*
X130734953Y-101110190D02*
X130734953Y-100610190D01*
X130854000Y-100610190D01*
X130925429Y-100634000D01*
X130973048Y-100681619D01*
X130996857Y-100729238D01*
X131020667Y-100824476D01*
X131020667Y-100895905D01*
X130996857Y-100991143D01*
X130973048Y-101038762D01*
X130925429Y-101086381D01*
X130854000Y-101110190D01*
X130734953Y-101110190D01*
X124911144Y-100919714D02*
X125292096Y-100919714D01*
X125101620Y-101110190D02*
X125101620Y-100729238D01*
X125768287Y-100610190D02*
X125530192Y-100610190D01*
X125506382Y-100848286D01*
X125530192Y-100824476D01*
X125577811Y-100800667D01*
X125696858Y-100800667D01*
X125744477Y-100824476D01*
X125768287Y-100848286D01*
X125792096Y-100895905D01*
X125792096Y-101014952D01*
X125768287Y-101062571D01*
X125744477Y-101086381D01*
X125696858Y-101110190D01*
X125577811Y-101110190D01*
X125530192Y-101086381D01*
X125506382Y-101062571D01*
X125934953Y-100610190D02*
X126101620Y-101110190D01*
X126268286Y-100610190D01*
X126720667Y-101062571D02*
X126696857Y-101086381D01*
X126625429Y-101110190D01*
X126577810Y-101110190D01*
X126506381Y-101086381D01*
X126458762Y-101038762D01*
X126434953Y-100991143D01*
X126411143Y-100895905D01*
X126411143Y-100824476D01*
X126434953Y-100729238D01*
X126458762Y-100681619D01*
X126506381Y-100634000D01*
X126577810Y-100610190D01*
X126625429Y-100610190D01*
X126696857Y-100634000D01*
X126720667Y-100657810D01*
X126934953Y-101110190D02*
X126934953Y-100610190D01*
X127054000Y-100610190D01*
X127125429Y-100634000D01*
X127173048Y-100681619D01*
X127196857Y-100729238D01*
X127220667Y-100824476D01*
X127220667Y-100895905D01*
X127196857Y-100991143D01*
X127173048Y-101038762D01*
X127125429Y-101086381D01*
X127054000Y-101110190D01*
X126934953Y-101110190D01*
X125673047Y-89834000D02*
X125625428Y-89810190D01*
X125554000Y-89810190D01*
X125482571Y-89834000D01*
X125434952Y-89881619D01*
X125411143Y-89929238D01*
X125387333Y-90024476D01*
X125387333Y-90095905D01*
X125411143Y-90191143D01*
X125434952Y-90238762D01*
X125482571Y-90286381D01*
X125554000Y-90310190D01*
X125601619Y-90310190D01*
X125673047Y-90286381D01*
X125696857Y-90262571D01*
X125696857Y-90095905D01*
X125601619Y-90095905D01*
X125911143Y-90310190D02*
X125911143Y-89810190D01*
X126196857Y-90310190D01*
X126196857Y-89810190D01*
X126434953Y-90310190D02*
X126434953Y-89810190D01*
X126554000Y-89810190D01*
X126625429Y-89834000D01*
X126673048Y-89881619D01*
X126696857Y-89929238D01*
X126720667Y-90024476D01*
X126720667Y-90095905D01*
X126696857Y-90191143D01*
X126673048Y-90238762D01*
X126625429Y-90286381D01*
X126554000Y-90310190D01*
X126434953Y-90310190D01*
X133673047Y-89834000D02*
X133625428Y-89810190D01*
X133554000Y-89810190D01*
X133482571Y-89834000D01*
X133434952Y-89881619D01*
X133411143Y-89929238D01*
X133387333Y-90024476D01*
X133387333Y-90095905D01*
X133411143Y-90191143D01*
X133434952Y-90238762D01*
X133482571Y-90286381D01*
X133554000Y-90310190D01*
X133601619Y-90310190D01*
X133673047Y-90286381D01*
X133696857Y-90262571D01*
X133696857Y-90095905D01*
X133601619Y-90095905D01*
X133911143Y-90310190D02*
X133911143Y-89810190D01*
X134196857Y-90310190D01*
X134196857Y-89810190D01*
X134434953Y-90310190D02*
X134434953Y-89810190D01*
X134554000Y-89810190D01*
X134625429Y-89834000D01*
X134673048Y-89881619D01*
X134696857Y-89929238D01*
X134720667Y-90024476D01*
X134720667Y-90095905D01*
X134696857Y-90191143D01*
X134673048Y-90238762D01*
X134625429Y-90286381D01*
X134554000Y-90310190D01*
X134434953Y-90310190D01*
X129673047Y-89834000D02*
X129625428Y-89810190D01*
X129554000Y-89810190D01*
X129482571Y-89834000D01*
X129434952Y-89881619D01*
X129411143Y-89929238D01*
X129387333Y-90024476D01*
X129387333Y-90095905D01*
X129411143Y-90191143D01*
X129434952Y-90238762D01*
X129482571Y-90286381D01*
X129554000Y-90310190D01*
X129601619Y-90310190D01*
X129673047Y-90286381D01*
X129696857Y-90262571D01*
X129696857Y-90095905D01*
X129601619Y-90095905D01*
X129911143Y-90310190D02*
X129911143Y-89810190D01*
X130196857Y-90310190D01*
X130196857Y-89810190D01*
X130434953Y-90310190D02*
X130434953Y-89810190D01*
X130554000Y-89810190D01*
X130625429Y-89834000D01*
X130673048Y-89881619D01*
X130696857Y-89929238D01*
X130720667Y-90024476D01*
X130720667Y-90095905D01*
X130696857Y-90191143D01*
X130673048Y-90238762D01*
X130625429Y-90286381D01*
X130554000Y-90310190D01*
X130434953Y-90310190D01*
D12*
X115744476Y-98986381D02*
X115744476Y-97986381D01*
X116125429Y-97986381D01*
X116220667Y-98034000D01*
X116268286Y-98081619D01*
X116315905Y-98176857D01*
X116315905Y-98319714D01*
X116268286Y-98414952D01*
X116220667Y-98462571D01*
X116125429Y-98510190D01*
X115744476Y-98510190D01*
X116934952Y-97986381D02*
X117125429Y-97986381D01*
X117220667Y-98034000D01*
X117315905Y-98129238D01*
X117363524Y-98319714D01*
X117363524Y-98653048D01*
X117315905Y-98843524D01*
X117220667Y-98938762D01*
X117125429Y-98986381D01*
X116934952Y-98986381D01*
X116839714Y-98938762D01*
X116744476Y-98843524D01*
X116696857Y-98653048D01*
X116696857Y-98319714D01*
X116744476Y-98129238D01*
X116839714Y-98034000D01*
X116934952Y-97986381D01*
X117696857Y-97986381D02*
X117934952Y-98986381D01*
X118125429Y-98272095D01*
X118315905Y-98986381D01*
X118554000Y-97986381D01*
X118934952Y-98462571D02*
X119268286Y-98462571D01*
X119411143Y-98986381D02*
X118934952Y-98986381D01*
X118934952Y-97986381D01*
X119411143Y-97986381D01*
X120411143Y-98986381D02*
X120077809Y-98510190D01*
X119839714Y-98986381D02*
X119839714Y-97986381D01*
X120220667Y-97986381D01*
X120315905Y-98034000D01*
X120363524Y-98081619D01*
X120411143Y-98176857D01*
X120411143Y-98319714D01*
X120363524Y-98414952D01*
X120315905Y-98462571D01*
X120220667Y-98510190D01*
X119839714Y-98510190D01*
D13*
X100468286Y-88205429D02*
X101230191Y-88205429D01*
X100849239Y-88586381D02*
X100849239Y-87824476D01*
X102182572Y-87586381D02*
X101706381Y-87586381D01*
X101658762Y-88062571D01*
X101706381Y-88014952D01*
X101801619Y-87967333D01*
X102039715Y-87967333D01*
X102134953Y-88014952D01*
X102182572Y-88062571D01*
X102230191Y-88157810D01*
X102230191Y-88395905D01*
X102182572Y-88491143D01*
X102134953Y-88538762D01*
X102039715Y-88586381D01*
X101801619Y-88586381D01*
X101706381Y-88538762D01*
X101658762Y-88491143D01*
X102515905Y-87586381D02*
X102849238Y-88586381D01*
X103182572Y-87586381D01*
X104087334Y-88491143D02*
X104039715Y-88538762D01*
X103896858Y-88586381D01*
X103801620Y-88586381D01*
X103658762Y-88538762D01*
X103563524Y-88443524D01*
X103515905Y-88348286D01*
X103468286Y-88157810D01*
X103468286Y-88014952D01*
X103515905Y-87824476D01*
X103563524Y-87729238D01*
X103658762Y-87634000D01*
X103801620Y-87586381D01*
X103896858Y-87586381D01*
X104039715Y-87634000D01*
X104087334Y-87681619D01*
X104515905Y-88586381D02*
X104515905Y-87586381D01*
X104754000Y-87586381D01*
X104896858Y-87634000D01*
X104992096Y-87729238D01*
X105039715Y-87824476D01*
X105087334Y-88014952D01*
X105087334Y-88157810D01*
X105039715Y-88348286D01*
X104992096Y-88443524D01*
X104896858Y-88538762D01*
X104754000Y-88586381D01*
X104515905Y-88586381D01*
X96992096Y-87634000D02*
X96896858Y-87586381D01*
X96754001Y-87586381D01*
X96611143Y-87634000D01*
X96515905Y-87729238D01*
X96468286Y-87824476D01*
X96420667Y-88014952D01*
X96420667Y-88157810D01*
X96468286Y-88348286D01*
X96515905Y-88443524D01*
X96611143Y-88538762D01*
X96754001Y-88586381D01*
X96849239Y-88586381D01*
X96992096Y-88538762D01*
X97039715Y-88491143D01*
X97039715Y-88157810D01*
X96849239Y-88157810D01*
X97468286Y-88586381D02*
X97468286Y-87586381D01*
X98039715Y-88586381D01*
X98039715Y-87586381D01*
X98515905Y-88586381D02*
X98515905Y-87586381D01*
X98754000Y-87586381D01*
X98896858Y-87634000D01*
X98992096Y-87729238D01*
X99039715Y-87824476D01*
X99087334Y-88014952D01*
X99087334Y-88157810D01*
X99039715Y-88348286D01*
X98992096Y-88443524D01*
X98896858Y-88538762D01*
X98754000Y-88586381D01*
X98515905Y-88586381D01*
X182504000Y-88586381D02*
X182504000Y-87586381D01*
X182980190Y-88586381D02*
X182980190Y-87586381D01*
X183551619Y-88586381D01*
X183551619Y-87586381D01*
X184218285Y-87586381D02*
X184313524Y-87586381D01*
X184408762Y-87634000D01*
X184456381Y-87681619D01*
X184504000Y-87776857D01*
X184551619Y-87967333D01*
X184551619Y-88205429D01*
X184504000Y-88395905D01*
X184456381Y-88491143D01*
X184408762Y-88538762D01*
X184313524Y-88586381D01*
X184218285Y-88586381D01*
X184123047Y-88538762D01*
X184075428Y-88491143D01*
X184027809Y-88395905D01*
X183980190Y-88205429D01*
X183980190Y-87967333D01*
X184027809Y-87776857D01*
X184075428Y-87681619D01*
X184123047Y-87634000D01*
X184218285Y-87586381D01*
X177742096Y-87634000D02*
X177646858Y-87586381D01*
X177504001Y-87586381D01*
X177361143Y-87634000D01*
X177265905Y-87729238D01*
X177218286Y-87824476D01*
X177170667Y-88014952D01*
X177170667Y-88157810D01*
X177218286Y-88348286D01*
X177265905Y-88443524D01*
X177361143Y-88538762D01*
X177504001Y-88586381D01*
X177599239Y-88586381D01*
X177742096Y-88538762D01*
X177789715Y-88491143D01*
X177789715Y-88157810D01*
X177599239Y-88157810D01*
X178218286Y-88586381D02*
X178218286Y-87586381D01*
X178789715Y-88586381D01*
X178789715Y-87586381D01*
X179265905Y-88586381D02*
X179265905Y-87586381D01*
X179504000Y-87586381D01*
X179646858Y-87634000D01*
X179742096Y-87729238D01*
X179789715Y-87824476D01*
X179837334Y-88014952D01*
X179837334Y-88157810D01*
X179789715Y-88348286D01*
X179742096Y-88443524D01*
X179646858Y-88538762D01*
X179504000Y-88586381D01*
X179265905Y-88586381D01*
X172754000Y-88586381D02*
X172754000Y-87586381D01*
X173230190Y-88586381D02*
X173230190Y-87586381D01*
X173801619Y-88586381D01*
X173801619Y-87586381D01*
X174801619Y-88586381D02*
X174230190Y-88586381D01*
X174515904Y-88586381D02*
X174515904Y-87586381D01*
X174420666Y-87729238D01*
X174325428Y-87824476D01*
X174230190Y-87872095D01*
X167742096Y-87634000D02*
X167646858Y-87586381D01*
X167504001Y-87586381D01*
X167361143Y-87634000D01*
X167265905Y-87729238D01*
X167218286Y-87824476D01*
X167170667Y-88014952D01*
X167170667Y-88157810D01*
X167218286Y-88348286D01*
X167265905Y-88443524D01*
X167361143Y-88538762D01*
X167504001Y-88586381D01*
X167599239Y-88586381D01*
X167742096Y-88538762D01*
X167789715Y-88491143D01*
X167789715Y-88157810D01*
X167599239Y-88157810D01*
X168218286Y-88586381D02*
X168218286Y-87586381D01*
X168789715Y-88586381D01*
X168789715Y-87586381D01*
X169265905Y-88586381D02*
X169265905Y-87586381D01*
X169504000Y-87586381D01*
X169646858Y-87634000D01*
X169742096Y-87729238D01*
X169789715Y-87824476D01*
X169837334Y-88014952D01*
X169837334Y-88157810D01*
X169789715Y-88348286D01*
X169742096Y-88443524D01*
X169646858Y-88538762D01*
X169504000Y-88586381D01*
X169265905Y-88586381D01*
X162504000Y-88586381D02*
X162504000Y-87586381D01*
X162980190Y-88586381D02*
X162980190Y-87586381D01*
X163551619Y-88586381D01*
X163551619Y-87586381D01*
X163980190Y-87681619D02*
X164027809Y-87634000D01*
X164123047Y-87586381D01*
X164361143Y-87586381D01*
X164456381Y-87634000D01*
X164504000Y-87681619D01*
X164551619Y-87776857D01*
X164551619Y-87872095D01*
X164504000Y-88014952D01*
X163932571Y-88586381D01*
X164551619Y-88586381D01*
X157742096Y-87634000D02*
X157646858Y-87586381D01*
X157504001Y-87586381D01*
X157361143Y-87634000D01*
X157265905Y-87729238D01*
X157218286Y-87824476D01*
X157170667Y-88014952D01*
X157170667Y-88157810D01*
X157218286Y-88348286D01*
X157265905Y-88443524D01*
X157361143Y-88538762D01*
X157504001Y-88586381D01*
X157599239Y-88586381D01*
X157742096Y-88538762D01*
X157789715Y-88491143D01*
X157789715Y-88157810D01*
X157599239Y-88157810D01*
X158218286Y-88586381D02*
X158218286Y-87586381D01*
X158789715Y-88586381D01*
X158789715Y-87586381D01*
X159265905Y-88586381D02*
X159265905Y-87586381D01*
X159504000Y-87586381D01*
X159646858Y-87634000D01*
X159742096Y-87729238D01*
X159789715Y-87824476D01*
X159837334Y-88014952D01*
X159837334Y-88157810D01*
X159789715Y-88348286D01*
X159742096Y-88443524D01*
X159646858Y-88538762D01*
X159504000Y-88586381D01*
X159265905Y-88586381D01*
X152504000Y-88586381D02*
X152504000Y-87586381D01*
X153075429Y-88586381D01*
X153075429Y-87586381D01*
X153551619Y-88586381D02*
X153551619Y-87586381D01*
X153932571Y-87586381D02*
X154551619Y-87586381D01*
X154218285Y-87967333D01*
X154361143Y-87967333D01*
X154456381Y-88014952D01*
X154504000Y-88062571D01*
X154551619Y-88157810D01*
X154551619Y-88395905D01*
X154504000Y-88491143D01*
X154456381Y-88538762D01*
X154361143Y-88586381D01*
X154075428Y-88586381D01*
X153980190Y-88538762D01*
X153932571Y-88491143D01*
X147742096Y-87634000D02*
X147646858Y-87586381D01*
X147504001Y-87586381D01*
X147361143Y-87634000D01*
X147265905Y-87729238D01*
X147218286Y-87824476D01*
X147170667Y-88014952D01*
X147170667Y-88157810D01*
X147218286Y-88348286D01*
X147265905Y-88443524D01*
X147361143Y-88538762D01*
X147504001Y-88586381D01*
X147599239Y-88586381D01*
X147742096Y-88538762D01*
X147789715Y-88491143D01*
X147789715Y-88157810D01*
X147599239Y-88157810D01*
X148218286Y-88586381D02*
X148218286Y-87586381D01*
X148789715Y-88586381D01*
X148789715Y-87586381D01*
X149265905Y-88586381D02*
X149265905Y-87586381D01*
X149504000Y-87586381D01*
X149646858Y-87634000D01*
X149742096Y-87729238D01*
X149789715Y-87824476D01*
X149837334Y-88014952D01*
X149837334Y-88157810D01*
X149789715Y-88348286D01*
X149742096Y-88443524D01*
X149646858Y-88538762D01*
X149504000Y-88586381D01*
X149265905Y-88586381D01*
X142504000Y-88586381D02*
X142504000Y-87586381D01*
X142980190Y-88586381D02*
X142980190Y-87586381D01*
X143551619Y-88586381D01*
X143551619Y-87586381D01*
X144456381Y-87919714D02*
X144456381Y-88586381D01*
X144218285Y-87538762D02*
X143980190Y-88253048D01*
X144599238Y-88253048D01*
X137742096Y-87634000D02*
X137646858Y-87586381D01*
X137504001Y-87586381D01*
X137361143Y-87634000D01*
X137265905Y-87729238D01*
X137218286Y-87824476D01*
X137170667Y-88014952D01*
X137170667Y-88157810D01*
X137218286Y-88348286D01*
X137265905Y-88443524D01*
X137361143Y-88538762D01*
X137504001Y-88586381D01*
X137599239Y-88586381D01*
X137742096Y-88538762D01*
X137789715Y-88491143D01*
X137789715Y-88157810D01*
X137599239Y-88157810D01*
X138218286Y-88586381D02*
X138218286Y-87586381D01*
X138789715Y-88586381D01*
X138789715Y-87586381D01*
X139265905Y-88586381D02*
X139265905Y-87586381D01*
X139504000Y-87586381D01*
X139646858Y-87634000D01*
X139742096Y-87729238D01*
X139789715Y-87824476D01*
X139837334Y-88014952D01*
X139837334Y-88157810D01*
X139789715Y-88348286D01*
X139742096Y-88443524D01*
X139646858Y-88538762D01*
X139504000Y-88586381D01*
X139265905Y-88586381D01*
X132504000Y-88586381D02*
X132504000Y-87586381D01*
X132980190Y-88586381D02*
X132980190Y-87586381D01*
X133551619Y-88586381D01*
X133551619Y-87586381D01*
X134504000Y-87586381D02*
X134027809Y-87586381D01*
X133980190Y-88062571D01*
X134027809Y-88014952D01*
X134123047Y-87967333D01*
X134361143Y-87967333D01*
X134456381Y-88014952D01*
X134504000Y-88062571D01*
X134551619Y-88157810D01*
X134551619Y-88395905D01*
X134504000Y-88491143D01*
X134456381Y-88538762D01*
X134361143Y-88586381D01*
X134123047Y-88586381D01*
X134027809Y-88538762D01*
X133980190Y-88491143D01*
X127742096Y-87634000D02*
X127646858Y-87586381D01*
X127504001Y-87586381D01*
X127361143Y-87634000D01*
X127265905Y-87729238D01*
X127218286Y-87824476D01*
X127170667Y-88014952D01*
X127170667Y-88157810D01*
X127218286Y-88348286D01*
X127265905Y-88443524D01*
X127361143Y-88538762D01*
X127504001Y-88586381D01*
X127599239Y-88586381D01*
X127742096Y-88538762D01*
X127789715Y-88491143D01*
X127789715Y-88157810D01*
X127599239Y-88157810D01*
X128218286Y-88586381D02*
X128218286Y-87586381D01*
X128789715Y-88586381D01*
X128789715Y-87586381D01*
X129265905Y-88586381D02*
X129265905Y-87586381D01*
X129504000Y-87586381D01*
X129646858Y-87634000D01*
X129742096Y-87729238D01*
X129789715Y-87824476D01*
X129837334Y-88014952D01*
X129837334Y-88157810D01*
X129789715Y-88348286D01*
X129742096Y-88443524D01*
X129646858Y-88538762D01*
X129504000Y-88586381D01*
X129265905Y-88586381D01*
X122504000Y-88586381D02*
X122504000Y-87586381D01*
X122980190Y-88586381D02*
X122980190Y-87586381D01*
X123551619Y-88586381D01*
X123551619Y-87586381D01*
X124456381Y-87586381D02*
X124265904Y-87586381D01*
X124170666Y-87634000D01*
X124123047Y-87681619D01*
X124027809Y-87824476D01*
X123980190Y-88014952D01*
X123980190Y-88395905D01*
X124027809Y-88491143D01*
X124075428Y-88538762D01*
X124170666Y-88586381D01*
X124361143Y-88586381D01*
X124456381Y-88538762D01*
X124504000Y-88491143D01*
X124551619Y-88395905D01*
X124551619Y-88157810D01*
X124504000Y-88062571D01*
X124456381Y-88014952D01*
X124361143Y-87967333D01*
X124170666Y-87967333D01*
X124075428Y-88014952D01*
X124027809Y-88062571D01*
X123980190Y-88157810D01*
X117742096Y-87634000D02*
X117646858Y-87586381D01*
X117504001Y-87586381D01*
X117361143Y-87634000D01*
X117265905Y-87729238D01*
X117218286Y-87824476D01*
X117170667Y-88014952D01*
X117170667Y-88157810D01*
X117218286Y-88348286D01*
X117265905Y-88443524D01*
X117361143Y-88538762D01*
X117504001Y-88586381D01*
X117599239Y-88586381D01*
X117742096Y-88538762D01*
X117789715Y-88491143D01*
X117789715Y-88157810D01*
X117599239Y-88157810D01*
X118218286Y-88586381D02*
X118218286Y-87586381D01*
X118789715Y-88586381D01*
X118789715Y-87586381D01*
X119265905Y-88586381D02*
X119265905Y-87586381D01*
X119504000Y-87586381D01*
X119646858Y-87634000D01*
X119742096Y-87729238D01*
X119789715Y-87824476D01*
X119837334Y-88014952D01*
X119837334Y-88157810D01*
X119789715Y-88348286D01*
X119742096Y-88443524D01*
X119646858Y-88538762D01*
X119504000Y-88586381D01*
X119265905Y-88586381D01*
X112504000Y-88586381D02*
X112504000Y-87586381D01*
X112980190Y-88586381D02*
X112980190Y-87586381D01*
X113551619Y-88586381D01*
X113551619Y-87586381D01*
X113932571Y-87586381D02*
X114599238Y-87586381D01*
X114170666Y-88586381D01*
X107742096Y-87634000D02*
X107646858Y-87586381D01*
X107504001Y-87586381D01*
X107361143Y-87634000D01*
X107265905Y-87729238D01*
X107218286Y-87824476D01*
X107170667Y-88014952D01*
X107170667Y-88157810D01*
X107218286Y-88348286D01*
X107265905Y-88443524D01*
X107361143Y-88538762D01*
X107504001Y-88586381D01*
X107599239Y-88586381D01*
X107742096Y-88538762D01*
X107789715Y-88491143D01*
X107789715Y-88157810D01*
X107599239Y-88157810D01*
X108218286Y-88586381D02*
X108218286Y-87586381D01*
X108789715Y-88586381D01*
X108789715Y-87586381D01*
X109265905Y-88586381D02*
X109265905Y-87586381D01*
X109504000Y-87586381D01*
X109646858Y-87634000D01*
X109742096Y-87729238D01*
X109789715Y-87824476D01*
X109837334Y-88014952D01*
X109837334Y-88157810D01*
X109789715Y-88348286D01*
X109742096Y-88443524D01*
X109646858Y-88538762D01*
X109504000Y-88586381D01*
X109265905Y-88586381D01*
D11*
X200160000Y-82295904D02*
X200112381Y-82391142D01*
X200112381Y-82533999D01*
X200160000Y-82676857D01*
X200255238Y-82772095D01*
X200350476Y-82819714D01*
X200540952Y-82867333D01*
X200683810Y-82867333D01*
X200874286Y-82819714D01*
X200969524Y-82772095D01*
X201064762Y-82676857D01*
X201112381Y-82533999D01*
X201112381Y-82438761D01*
X201064762Y-82295904D01*
X201017143Y-82248285D01*
X200683810Y-82248285D01*
X200683810Y-82438761D01*
X201112381Y-81819714D02*
X200112381Y-81819714D01*
X201112381Y-81248285D01*
X200112381Y-81248285D01*
X201112381Y-80772095D02*
X200112381Y-80772095D01*
X200112381Y-80534000D01*
X200160000Y-80391142D01*
X200255238Y-80295904D01*
X200350476Y-80248285D01*
X200540952Y-80200666D01*
X200683810Y-80200666D01*
X200874286Y-80248285D01*
X200969524Y-80295904D01*
X201064762Y-80391142D01*
X201112381Y-80534000D01*
X201112381Y-80772095D01*
X201064762Y-87804476D02*
X201112381Y-87661619D01*
X201112381Y-87423523D01*
X201064762Y-87328285D01*
X201017143Y-87280666D01*
X200921905Y-87233047D01*
X200826667Y-87233047D01*
X200731429Y-87280666D01*
X200683810Y-87328285D01*
X200636190Y-87423523D01*
X200588571Y-87614000D01*
X200540952Y-87709238D01*
X200493333Y-87756857D01*
X200398095Y-87804476D01*
X200302857Y-87804476D01*
X200207619Y-87756857D01*
X200160000Y-87709238D01*
X200112381Y-87614000D01*
X200112381Y-87375904D01*
X200160000Y-87233047D01*
X201017143Y-86233047D02*
X201064762Y-86280666D01*
X201112381Y-86423523D01*
X201112381Y-86518761D01*
X201064762Y-86661619D01*
X200969524Y-86756857D01*
X200874286Y-86804476D01*
X200683810Y-86852095D01*
X200540952Y-86852095D01*
X200350476Y-86804476D01*
X200255238Y-86756857D01*
X200160000Y-86661619D01*
X200112381Y-86518761D01*
X200112381Y-86423523D01*
X200160000Y-86280666D01*
X200207619Y-86233047D01*
X201112381Y-85328285D02*
X201112381Y-85804476D01*
X200112381Y-85804476D01*
X201064762Y-92908286D02*
X201112381Y-92765429D01*
X201112381Y-92527333D01*
X201064762Y-92432095D01*
X201017143Y-92384476D01*
X200921905Y-92336857D01*
X200826667Y-92336857D01*
X200731429Y-92384476D01*
X200683810Y-92432095D01*
X200636190Y-92527333D01*
X200588571Y-92717810D01*
X200540952Y-92813048D01*
X200493333Y-92860667D01*
X200398095Y-92908286D01*
X200302857Y-92908286D01*
X200207619Y-92860667D01*
X200160000Y-92813048D01*
X200112381Y-92717810D01*
X200112381Y-92479714D01*
X200160000Y-92336857D01*
X201112381Y-91908286D02*
X200112381Y-91908286D01*
X200112381Y-91670191D01*
X200160000Y-91527333D01*
X200255238Y-91432095D01*
X200350476Y-91384476D01*
X200540952Y-91336857D01*
X200683810Y-91336857D01*
X200874286Y-91384476D01*
X200969524Y-91432095D01*
X201064762Y-91527333D01*
X201112381Y-91670191D01*
X201112381Y-91908286D01*
X200826667Y-90955905D02*
X200826667Y-90479714D01*
X201112381Y-91051143D02*
X200112381Y-90717810D01*
X201112381Y-90384476D01*
X200731429Y-99694714D02*
X200731429Y-98932809D01*
X201112381Y-99313761D02*
X200350476Y-99313761D01*
X200112381Y-97980428D02*
X200112381Y-98456619D01*
X200588571Y-98504238D01*
X200540952Y-98456619D01*
X200493333Y-98361381D01*
X200493333Y-98123285D01*
X200540952Y-98028047D01*
X200588571Y-97980428D01*
X200683810Y-97932809D01*
X200921905Y-97932809D01*
X201017143Y-97980428D01*
X201064762Y-98028047D01*
X201112381Y-98123285D01*
X201112381Y-98361381D01*
X201064762Y-98456619D01*
X201017143Y-98504238D01*
X200112381Y-97647095D02*
X201112381Y-97313762D01*
X200112381Y-96980428D01*
X201017143Y-96075666D02*
X201064762Y-96123285D01*
X201112381Y-96266142D01*
X201112381Y-96361380D01*
X201064762Y-96504238D01*
X200969524Y-96599476D01*
X200874286Y-96647095D01*
X200683810Y-96694714D01*
X200540952Y-96694714D01*
X200350476Y-96647095D01*
X200255238Y-96599476D01*
X200160000Y-96504238D01*
X200112381Y-96361380D01*
X200112381Y-96266142D01*
X200160000Y-96123285D01*
X200207619Y-96075666D01*
X201112381Y-95647095D02*
X200112381Y-95647095D01*
X200112381Y-95409000D01*
X200160000Y-95266142D01*
X200255238Y-95170904D01*
X200350476Y-95123285D01*
X200540952Y-95075666D01*
X200683810Y-95075666D01*
X200874286Y-95123285D01*
X200969524Y-95170904D01*
X201064762Y-95266142D01*
X201112381Y-95409000D01*
X201112381Y-95647095D01*
X133796858Y-100167333D02*
X134034953Y-100167333D01*
X133749239Y-100310190D02*
X133915906Y-99810190D01*
X134082572Y-100310190D01*
X134225429Y-99857810D02*
X134249239Y-99834000D01*
X134296858Y-99810190D01*
X134415905Y-99810190D01*
X134463524Y-99834000D01*
X134487334Y-99857810D01*
X134511143Y-99905429D01*
X134511143Y-99953048D01*
X134487334Y-100024476D01*
X134201620Y-100310190D01*
X134511143Y-100310190D01*
X129696858Y-100167333D02*
X129934953Y-100167333D01*
X129649239Y-100310190D02*
X129815906Y-99810190D01*
X129982572Y-100310190D01*
X130411143Y-100310190D02*
X130125429Y-100310190D01*
X130268286Y-100310190D02*
X130268286Y-99810190D01*
X130220667Y-99881619D01*
X130173048Y-99929238D01*
X130125429Y-99953048D01*
X125796858Y-100167333D02*
X126034953Y-100167333D01*
X125749239Y-100310190D02*
X125915906Y-99810190D01*
X126082572Y-100310190D01*
X126344477Y-99810190D02*
X126392096Y-99810190D01*
X126439715Y-99834000D01*
X126463524Y-99857810D01*
X126487334Y-99905429D01*
X126511143Y-100000667D01*
X126511143Y-100119714D01*
X126487334Y-100214952D01*
X126463524Y-100262571D01*
X126439715Y-100286381D01*
X126392096Y-100310190D01*
X126344477Y-100310190D01*
X126296858Y-100286381D01*
X126273048Y-100262571D01*
X126249239Y-100214952D01*
X126225429Y-100119714D01*
X126225429Y-100000667D01*
X126249239Y-99905429D01*
X126273048Y-99857810D01*
X126296858Y-99834000D01*
X126344477Y-99810190D01*
X81780000Y-96266096D02*
X81827619Y-96170858D01*
X81827619Y-96028001D01*
X81780000Y-95885143D01*
X81684762Y-95789905D01*
X81589524Y-95742286D01*
X81399048Y-95694667D01*
X81256190Y-95694667D01*
X81065714Y-95742286D01*
X80970476Y-95789905D01*
X80875238Y-95885143D01*
X80827619Y-96028001D01*
X80827619Y-96123239D01*
X80875238Y-96266096D01*
X80922857Y-96313715D01*
X81256190Y-96313715D01*
X81256190Y-96123239D01*
X80827619Y-96742286D02*
X81827619Y-96742286D01*
X80827619Y-97313715D01*
X81827619Y-97313715D01*
X80827619Y-97789905D02*
X81827619Y-97789905D01*
X81827619Y-98028000D01*
X81780000Y-98170858D01*
X81684762Y-98266096D01*
X81589524Y-98313715D01*
X81399048Y-98361334D01*
X81256190Y-98361334D01*
X81065714Y-98313715D01*
X80970476Y-98266096D01*
X80875238Y-98170858D01*
X80827619Y-98028000D01*
X80827619Y-97789905D01*
X80875238Y-90249524D02*
X80827619Y-90392381D01*
X80827619Y-90630477D01*
X80875238Y-90725715D01*
X80922857Y-90773334D01*
X81018095Y-90820953D01*
X81113333Y-90820953D01*
X81208571Y-90773334D01*
X81256190Y-90725715D01*
X81303810Y-90630477D01*
X81351429Y-90440000D01*
X81399048Y-90344762D01*
X81446667Y-90297143D01*
X81541905Y-90249524D01*
X81637143Y-90249524D01*
X81732381Y-90297143D01*
X81780000Y-90344762D01*
X81827619Y-90440000D01*
X81827619Y-90678096D01*
X81780000Y-90820953D01*
X80922857Y-91820953D02*
X80875238Y-91773334D01*
X80827619Y-91630477D01*
X80827619Y-91535239D01*
X80875238Y-91392381D01*
X80970476Y-91297143D01*
X81065714Y-91249524D01*
X81256190Y-91201905D01*
X81399048Y-91201905D01*
X81589524Y-91249524D01*
X81684762Y-91297143D01*
X81780000Y-91392381D01*
X81827619Y-91535239D01*
X81827619Y-91630477D01*
X81780000Y-91773334D01*
X81732381Y-91820953D01*
X80827619Y-92725715D02*
X80827619Y-92249524D01*
X81827619Y-92249524D01*
X80875238Y-85653714D02*
X80827619Y-85796571D01*
X80827619Y-86034667D01*
X80875238Y-86129905D01*
X80922857Y-86177524D01*
X81018095Y-86225143D01*
X81113333Y-86225143D01*
X81208571Y-86177524D01*
X81256190Y-86129905D01*
X81303810Y-86034667D01*
X81351429Y-85844190D01*
X81399048Y-85748952D01*
X81446667Y-85701333D01*
X81541905Y-85653714D01*
X81637143Y-85653714D01*
X81732381Y-85701333D01*
X81780000Y-85748952D01*
X81827619Y-85844190D01*
X81827619Y-86082286D01*
X81780000Y-86225143D01*
X80827619Y-86653714D02*
X81827619Y-86653714D01*
X81827619Y-86891809D01*
X81780000Y-87034667D01*
X81684762Y-87129905D01*
X81589524Y-87177524D01*
X81399048Y-87225143D01*
X81256190Y-87225143D01*
X81065714Y-87177524D01*
X80970476Y-87129905D01*
X80875238Y-87034667D01*
X80827619Y-86891809D01*
X80827619Y-86653714D01*
X81113333Y-87606095D02*
X81113333Y-88082286D01*
X80827619Y-87510857D02*
X81827619Y-87844190D01*
X80827619Y-88177524D01*
X81208571Y-78994286D02*
X81208571Y-79756191D01*
X80827619Y-79375239D02*
X81589524Y-79375239D01*
X81827619Y-80708572D02*
X81827619Y-80232381D01*
X81351429Y-80184762D01*
X81399048Y-80232381D01*
X81446667Y-80327619D01*
X81446667Y-80565715D01*
X81399048Y-80660953D01*
X81351429Y-80708572D01*
X81256190Y-80756191D01*
X81018095Y-80756191D01*
X80922857Y-80708572D01*
X80875238Y-80660953D01*
X80827619Y-80565715D01*
X80827619Y-80327619D01*
X80875238Y-80232381D01*
X80922857Y-80184762D01*
X81827619Y-81041905D02*
X80827619Y-81375238D01*
X81827619Y-81708572D01*
X80922857Y-82613334D02*
X80875238Y-82565715D01*
X80827619Y-82422858D01*
X80827619Y-82327620D01*
X80875238Y-82184762D01*
X80970476Y-82089524D01*
X81065714Y-82041905D01*
X81256190Y-81994286D01*
X81399048Y-81994286D01*
X81589524Y-82041905D01*
X81684762Y-82089524D01*
X81780000Y-82184762D01*
X81827619Y-82327620D01*
X81827619Y-82422858D01*
X81780000Y-82565715D01*
X81732381Y-82613334D01*
X80827619Y-83041905D02*
X81827619Y-83041905D01*
X81827619Y-83280000D01*
X81780000Y-83422858D01*
X81684762Y-83518096D01*
X81589524Y-83565715D01*
X81399048Y-83613334D01*
X81256190Y-83613334D01*
X81065714Y-83565715D01*
X80970476Y-83518096D01*
X80875238Y-83422858D01*
X80827619Y-83280000D01*
X80827619Y-83041905D01*
D14*
X152994000Y-94114000D02*
X152994000Y-96654000D01*
X174330000Y-98686000D02*
X151978000Y-98686000D01*
X151978000Y-92082000D02*
X174330000Y-92082000D01*
X152994000Y-96654000D02*
X151978000Y-96654000D01*
X152994000Y-94114000D02*
X151978000Y-94114000D01*
X174330000Y-92082000D02*
X174330000Y-98686000D01*
X151978000Y-98686000D02*
X151978000Y-92082000D01*
D15*
X108554000Y-94104000D02*
X106554000Y-94104000D01*
X106554000Y-91964000D02*
X108554000Y-91964000D01*
X108554000Y-97354000D02*
X106554000Y-97354000D01*
X106554000Y-95214000D02*
X108554000Y-95214000D01*
D14*
X110504000Y-81784000D02*
G75*
G03X110504000Y-81784000I-2000000J0D01*
G01*
X111004000Y-77784000D02*
X111004000Y-77284000D01*
X116004000Y-77784000D02*
X116004000Y-77284000D01*
X115504000Y-81784000D02*
G75*
G03X115504000Y-81784000I-2000000J0D01*
G01*
X120504000Y-81784000D02*
G75*
G03X120504000Y-81784000I-2000000J0D01*
G01*
X121004000Y-77784000D02*
X121004000Y-77284000D01*
X126004000Y-77784000D02*
X126004000Y-77284000D01*
X125504000Y-81784000D02*
G75*
G03X125504000Y-81784000I-2000000J0D01*
G01*
X130504000Y-81784000D02*
G75*
G03X130504000Y-81784000I-2000000J0D01*
G01*
X131004000Y-77784000D02*
X131004000Y-77284000D01*
X136004000Y-77784000D02*
X136004000Y-77284000D01*
X135504000Y-81784000D02*
G75*
G03X135504000Y-81784000I-2000000J0D01*
G01*
X140504000Y-81784000D02*
G75*
G03X140504000Y-81784000I-2000000J0D01*
G01*
X141004000Y-77784000D02*
X141004000Y-77284000D01*
X146004000Y-77784000D02*
X146004000Y-77284000D01*
X145504000Y-81784000D02*
G75*
G03X145504000Y-81784000I-2000000J0D01*
G01*
X150504000Y-81784000D02*
G75*
G03X150504000Y-81784000I-2000000J0D01*
G01*
X151004000Y-77784000D02*
X151004000Y-77284000D01*
X156004000Y-77784000D02*
X156004000Y-77284000D01*
X155504000Y-81784000D02*
G75*
G03X155504000Y-81784000I-2000000J0D01*
G01*
X160504000Y-81784000D02*
G75*
G03X160504000Y-81784000I-2000000J0D01*
G01*
X161004000Y-77784000D02*
X161004000Y-77284000D01*
X166004000Y-77784000D02*
X166004000Y-77284000D01*
X165504000Y-81784000D02*
G75*
G03X165504000Y-81784000I-2000000J0D01*
G01*
X171004000Y-77784000D02*
X171004000Y-77284000D01*
X170504000Y-81784000D02*
G75*
G03X170504000Y-81784000I-2000000J0D01*
G01*
X175504000Y-81784000D02*
G75*
G03X175504000Y-81784000I-2000000J0D01*
G01*
X176004000Y-77784000D02*
X176004000Y-77284000D01*
X181004000Y-77784000D02*
X181004000Y-77284000D01*
X180504000Y-81784000D02*
G75*
G03X180504000Y-81784000I-2000000J0D01*
G01*
X185504000Y-81784000D02*
G75*
G03X185504000Y-81784000I-2000000J0D01*
G01*
X186004000Y-79284000D02*
X106004000Y-79284000D01*
X186004000Y-84184000D02*
X106004000Y-84184000D01*
X186004000Y-77784000D02*
X106004000Y-77784000D01*
X186004000Y-77284000D02*
X106004000Y-77284000D01*
X106004000Y-77284000D02*
X106004000Y-87084000D01*
X106004000Y-87084000D02*
X186004000Y-87084000D01*
X186004000Y-87084000D02*
X186004000Y-77284000D01*
X100254000Y-77784000D02*
X100254000Y-77284000D01*
X99754000Y-81784000D02*
G75*
G03X99754000Y-81784000I-2000000J0D01*
G01*
X104754000Y-81784000D02*
G75*
G03X104754000Y-81784000I-2000000J0D01*
G01*
X105254000Y-79284000D02*
X95254000Y-79284000D01*
X105254000Y-84184000D02*
X95254000Y-84184000D01*
X105254000Y-77784000D02*
X95254000Y-77784000D01*
X105254000Y-77284000D02*
X95254000Y-77284000D01*
X95254000Y-77284000D02*
X95254000Y-87084000D01*
X95254000Y-87084000D02*
X105254000Y-87084000D01*
X105254000Y-87084000D02*
X105254000Y-77284000D01*
D16*
X118004660Y-94684940D02*
X117603340Y-94684940D01*
X118103720Y-94883060D02*
X117504280Y-94883060D01*
X119203540Y-93282860D02*
X116404460Y-93282860D01*
X116404460Y-96285140D02*
X119203540Y-96285140D01*
X119002880Y-94784000D02*
G75*
G03X119002880Y-94784000I-1198880J0D01*
G01*
X117303620Y-94982120D02*
X118304380Y-94982120D01*
X118304380Y-94982120D02*
X117804000Y-94484280D01*
X117804000Y-94484280D02*
X117303620Y-94982120D01*
X119203540Y-93983900D02*
X118505040Y-93285400D01*
X119203540Y-93585120D02*
X118903820Y-93285400D01*
X119002880Y-93285400D02*
X119203540Y-93483520D01*
X119203540Y-93785780D02*
X118703160Y-93285400D01*
X116404460Y-96483260D02*
X119203540Y-96483260D01*
X119203540Y-96483260D02*
X119203540Y-93084740D01*
X119203540Y-93084740D02*
X116404460Y-93084740D01*
X116407000Y-93084740D02*
X116407000Y-96483260D01*
D15*
X114624000Y-94534000D02*
X114624000Y-96534000D01*
X112484000Y-96534000D02*
X112484000Y-94534000D01*
D14*
X211110000Y-84789000D02*
X211610000Y-84789000D01*
X209110000Y-82289000D02*
G75*
G03X209110000Y-82289000I-2000000J0D01*
G01*
X209110000Y-87289000D02*
G75*
G03X209110000Y-87289000I-2000000J0D01*
G01*
X211110000Y-89789000D02*
X211610000Y-89789000D01*
X211110000Y-94789000D02*
X211610000Y-94789000D01*
X209110000Y-92289000D02*
G75*
G03X209110000Y-92289000I-2000000J0D01*
G01*
X209110000Y-97289000D02*
G75*
G03X209110000Y-97289000I-2000000J0D01*
G01*
X209610000Y-99789000D02*
X209610000Y-79789000D01*
X204710000Y-99789000D02*
X204710000Y-79789000D01*
X211110000Y-99789000D02*
X211110000Y-79789000D01*
X211610000Y-99789000D02*
X211610000Y-79789000D01*
X211610000Y-79789000D02*
X201810000Y-79789000D01*
X201810000Y-79789000D02*
X201810000Y-99789000D01*
X201810000Y-99789000D02*
X211610000Y-99789000D01*
X71084000Y-94408000D02*
X70584000Y-94408000D01*
X77084000Y-96908000D02*
G75*
G03X77084000Y-96908000I-2000000J0D01*
G01*
X77084000Y-91908000D02*
G75*
G03X77084000Y-91908000I-2000000J0D01*
G01*
X71084000Y-89408000D02*
X70584000Y-89408000D01*
X71084000Y-84408000D02*
X70584000Y-84408000D01*
X77084000Y-86908000D02*
G75*
G03X77084000Y-86908000I-2000000J0D01*
G01*
X77084000Y-81908000D02*
G75*
G03X77084000Y-81908000I-2000000J0D01*
G01*
X72584000Y-79408000D02*
X72584000Y-99408000D01*
X77484000Y-79408000D02*
X77484000Y-99408000D01*
X71084000Y-79408000D02*
X71084000Y-99408000D01*
X70584000Y-79408000D02*
X70584000Y-99408000D01*
X70584000Y-99408000D02*
X80384000Y-99408000D01*
X80384000Y-99408000D02*
X80384000Y-79408000D01*
X80384000Y-79408000D02*
X70584000Y-79408000D01*
D17*
X127324000Y-96854000D02*
X124784000Y-96854000D01*
X124784000Y-99394000D02*
X124784000Y-91774000D01*
X124784000Y-91774000D02*
X127324000Y-91774000D01*
X127324000Y-91774000D02*
X127324000Y-99394000D01*
X127324000Y-99394000D02*
X124784000Y-99394000D01*
X131324000Y-96854000D02*
X128784000Y-96854000D01*
X128784000Y-99394000D02*
X128784000Y-91774000D01*
X128784000Y-91774000D02*
X131324000Y-91774000D01*
X131324000Y-91774000D02*
X131324000Y-99394000D01*
X131324000Y-99394000D02*
X128784000Y-99394000D01*
X135324000Y-96854000D02*
X132784000Y-96854000D01*
X132784000Y-99394000D02*
X132784000Y-91774000D01*
X132784000Y-91774000D02*
X135324000Y-91774000D01*
X135324000Y-91774000D02*
X135324000Y-99394000D01*
X135324000Y-99394000D02*
X132784000Y-99394000D01*
D15*
X178558000Y-95012000D02*
X178558000Y-97012000D01*
X180598000Y-97012000D02*
X180598000Y-95012000D01*
D18*
X87701524Y-92400381D02*
X87701524Y-91400381D01*
X88130096Y-92400381D02*
X88130096Y-91876571D01*
X88082477Y-91781333D01*
X87987239Y-91733714D01*
X87844381Y-91733714D01*
X87749143Y-91781333D01*
X87701524Y-91828952D01*
X88558667Y-91495619D02*
X88606286Y-91448000D01*
X88701524Y-91400381D01*
X88939620Y-91400381D01*
X89034858Y-91448000D01*
X89082477Y-91495619D01*
X89130096Y-91590857D01*
X89130096Y-91686095D01*
X89082477Y-91828952D01*
X88511048Y-92400381D01*
X89130096Y-92400381D01*
X87701524Y-80716381D02*
X87701524Y-79716381D01*
X88130096Y-80716381D02*
X88130096Y-80192571D01*
X88082477Y-80097333D01*
X87987239Y-80049714D01*
X87844381Y-80049714D01*
X87749143Y-80097333D01*
X87701524Y-80144952D01*
X89130096Y-80716381D02*
X88558667Y-80716381D01*
X88844381Y-80716381D02*
X88844381Y-79716381D01*
X88749143Y-79859238D01*
X88653905Y-79954476D01*
X88558667Y-80002095D01*
D19*
X175183143Y-97649429D02*
X175183143Y-98883143D01*
X175237571Y-99028286D01*
X175292000Y-99100857D01*
X175400857Y-99173429D01*
X175618571Y-99173429D01*
X175727429Y-99100857D01*
X175781857Y-99028286D01*
X175836286Y-98883143D01*
X175836286Y-97649429D01*
X176979286Y-99173429D02*
X176326143Y-99173429D01*
X176652715Y-99173429D02*
X176652715Y-97649429D01*
X176543858Y-97867143D01*
X176435000Y-98012286D01*
X176326143Y-98084857D01*
D20*
D19*
X160316144Y-96473429D02*
X160316144Y-94949429D01*
X160751572Y-94949429D01*
X160860430Y-95022000D01*
X160914858Y-95094571D01*
X160969287Y-95239714D01*
X160969287Y-95457429D01*
X160914858Y-95602571D01*
X160860430Y-95675143D01*
X160751572Y-95747714D01*
X160316144Y-95747714D01*
X162112287Y-96328286D02*
X162057858Y-96400857D01*
X161894572Y-96473429D01*
X161785715Y-96473429D01*
X161622430Y-96400857D01*
X161513572Y-96255714D01*
X161459144Y-96110571D01*
X161404715Y-95820286D01*
X161404715Y-95602571D01*
X161459144Y-95312286D01*
X161513572Y-95167143D01*
X161622430Y-95022000D01*
X161785715Y-94949429D01*
X161894572Y-94949429D01*
X162057858Y-95022000D01*
X162112287Y-95094571D01*
X162983144Y-95675143D02*
X162602144Y-95675143D01*
X162602144Y-96473429D02*
X162602144Y-94949429D01*
X163146430Y-94949429D01*
X163745144Y-95602571D02*
X163636286Y-95530000D01*
X163581858Y-95457429D01*
X163527429Y-95312286D01*
X163527429Y-95239714D01*
X163581858Y-95094571D01*
X163636286Y-95022000D01*
X163745144Y-94949429D01*
X163962858Y-94949429D01*
X164071715Y-95022000D01*
X164126144Y-95094571D01*
X164180572Y-95239714D01*
X164180572Y-95312286D01*
X164126144Y-95457429D01*
X164071715Y-95530000D01*
X163962858Y-95602571D01*
X163745144Y-95602571D01*
X163636286Y-95675143D01*
X163581858Y-95747714D01*
X163527429Y-95892857D01*
X163527429Y-96183143D01*
X163581858Y-96328286D01*
X163636286Y-96400857D01*
X163745144Y-96473429D01*
X163962858Y-96473429D01*
X164071715Y-96400857D01*
X164126144Y-96328286D01*
X164180572Y-96183143D01*
X164180572Y-95892857D01*
X164126144Y-95747714D01*
X164071715Y-95675143D01*
X163962858Y-95602571D01*
X165214715Y-94949429D02*
X164670429Y-94949429D01*
X164616000Y-95675143D01*
X164670429Y-95602571D01*
X164779286Y-95530000D01*
X165051429Y-95530000D01*
X165160286Y-95602571D01*
X165214715Y-95675143D01*
X165269143Y-95820286D01*
X165269143Y-96183143D01*
X165214715Y-96328286D01*
X165160286Y-96400857D01*
X165051429Y-96473429D01*
X164779286Y-96473429D01*
X164670429Y-96400857D01*
X164616000Y-96328286D01*
X165650143Y-94949429D02*
X166412143Y-94949429D01*
X165922286Y-96473429D01*
X167337428Y-95457429D02*
X167337428Y-96473429D01*
X167065285Y-94876857D02*
X166793142Y-95965429D01*
X167500714Y-95965429D01*
D20*
D11*
X107570667Y-94860190D02*
X107404000Y-94622095D01*
X107284953Y-94860190D02*
X107284953Y-94360190D01*
X107475429Y-94360190D01*
X107523048Y-94384000D01*
X107546857Y-94407810D01*
X107570667Y-94455429D01*
X107570667Y-94526857D01*
X107546857Y-94574476D01*
X107523048Y-94598286D01*
X107475429Y-94622095D01*
X107284953Y-94622095D01*
X108046857Y-94860190D02*
X107761143Y-94860190D01*
X107904000Y-94860190D02*
X107904000Y-94360190D01*
X107856381Y-94431619D01*
X107808762Y-94479238D01*
X107761143Y-94503048D01*
X107570667Y-98110190D02*
X107404000Y-97872095D01*
X107284953Y-98110190D02*
X107284953Y-97610190D01*
X107475429Y-97610190D01*
X107523048Y-97634000D01*
X107546857Y-97657810D01*
X107570667Y-97705429D01*
X107570667Y-97776857D01*
X107546857Y-97824476D01*
X107523048Y-97848286D01*
X107475429Y-97872095D01*
X107284953Y-97872095D01*
X107761143Y-97657810D02*
X107784953Y-97634000D01*
X107832572Y-97610190D01*
X107951619Y-97610190D01*
X107999238Y-97634000D01*
X108023048Y-97657810D01*
X108046857Y-97705429D01*
X108046857Y-97753048D01*
X108023048Y-97824476D01*
X107737334Y-98110190D01*
X108046857Y-98110190D01*
X142634953Y-89610190D02*
X142634953Y-89110190D01*
X142825429Y-89110190D01*
X142873048Y-89134000D01*
X142896857Y-89157810D01*
X142920667Y-89205429D01*
X142920667Y-89276857D01*
X142896857Y-89324476D01*
X142873048Y-89348286D01*
X142825429Y-89372095D01*
X142634953Y-89372095D01*
X143349238Y-89110190D02*
X143254000Y-89110190D01*
X143206381Y-89134000D01*
X143182572Y-89157810D01*
X143134953Y-89229238D01*
X143111143Y-89324476D01*
X143111143Y-89514952D01*
X143134953Y-89562571D01*
X143158762Y-89586381D01*
X143206381Y-89610190D01*
X143301619Y-89610190D01*
X143349238Y-89586381D01*
X143373048Y-89562571D01*
X143396857Y-89514952D01*
X143396857Y-89395905D01*
X143373048Y-89348286D01*
X143349238Y-89324476D01*
X143301619Y-89300667D01*
X143206381Y-89300667D01*
X143158762Y-89324476D01*
X143134953Y-89348286D01*
X143111143Y-89395905D01*
X144742096Y-89562571D02*
X144718286Y-89586381D01*
X144646858Y-89610190D01*
X144599239Y-89610190D01*
X144527810Y-89586381D01*
X144480191Y-89538762D01*
X144456382Y-89491143D01*
X144432572Y-89395905D01*
X144432572Y-89324476D01*
X144456382Y-89229238D01*
X144480191Y-89181619D01*
X144527810Y-89134000D01*
X144599239Y-89110190D01*
X144646858Y-89110190D01*
X144718286Y-89134000D01*
X144742096Y-89157810D01*
X145051620Y-89110190D02*
X145146858Y-89110190D01*
X145194477Y-89134000D01*
X145242096Y-89181619D01*
X145265905Y-89276857D01*
X145265905Y-89443524D01*
X145242096Y-89538762D01*
X145194477Y-89586381D01*
X145146858Y-89610190D01*
X145051620Y-89610190D01*
X145004001Y-89586381D01*
X144956382Y-89538762D01*
X144932572Y-89443524D01*
X144932572Y-89276857D01*
X144956382Y-89181619D01*
X145004001Y-89134000D01*
X145051620Y-89110190D01*
X145480192Y-89610190D02*
X145480192Y-89110190D01*
X145765906Y-89610190D01*
X145765906Y-89110190D01*
X146004002Y-89610190D02*
X146004002Y-89110190D01*
X146289716Y-89610190D01*
X146289716Y-89110190D01*
X146408764Y-89657810D02*
X146789716Y-89657810D01*
X147004002Y-89110190D02*
X147051621Y-89110190D01*
X147099240Y-89134000D01*
X147123049Y-89157810D01*
X147146859Y-89205429D01*
X147170668Y-89300667D01*
X147170668Y-89419714D01*
X147146859Y-89514952D01*
X147123049Y-89562571D01*
X147099240Y-89586381D01*
X147051621Y-89610190D01*
X147004002Y-89610190D01*
X146956383Y-89586381D01*
X146932573Y-89562571D01*
X146908764Y-89514952D01*
X146884954Y-89419714D01*
X146884954Y-89300667D01*
X146908764Y-89205429D01*
X146932573Y-89157810D01*
X146956383Y-89134000D01*
X147004002Y-89110190D01*
X147646858Y-89610190D02*
X147361144Y-89610190D01*
X147504001Y-89610190D02*
X147504001Y-89110190D01*
X147456382Y-89181619D01*
X147408763Y-89229238D01*
X147361144Y-89253048D01*
X147813525Y-89110190D02*
X148146858Y-89610190D01*
X148146858Y-89110190D02*
X147813525Y-89610190D01*
X148599238Y-89610190D02*
X148313524Y-89610190D01*
X148456381Y-89610190D02*
X148456381Y-89110190D01*
X148408762Y-89181619D01*
X148361143Y-89229238D01*
X148313524Y-89253048D01*
X149027809Y-89110190D02*
X148932571Y-89110190D01*
X148884952Y-89134000D01*
X148861143Y-89157810D01*
X148813524Y-89229238D01*
X148789714Y-89324476D01*
X148789714Y-89514952D01*
X148813524Y-89562571D01*
X148837333Y-89586381D01*
X148884952Y-89610190D01*
X148980190Y-89610190D01*
X149027809Y-89586381D01*
X149051619Y-89562571D01*
X149075428Y-89514952D01*
X149075428Y-89395905D01*
X149051619Y-89348286D01*
X149027809Y-89324476D01*
X148980190Y-89300667D01*
X148884952Y-89300667D01*
X148837333Y-89324476D01*
X148813524Y-89348286D01*
X148789714Y-89395905D01*
X101084953Y-89510190D02*
X101084953Y-89010190D01*
X101275429Y-89010190D01*
X101323048Y-89034000D01*
X101346857Y-89057810D01*
X101370667Y-89105429D01*
X101370667Y-89176857D01*
X101346857Y-89224476D01*
X101323048Y-89248286D01*
X101275429Y-89272095D01*
X101084953Y-89272095D01*
X101537334Y-89010190D02*
X101870667Y-89010190D01*
X101656381Y-89510190D01*
X94682571Y-82895904D02*
X94706381Y-82919714D01*
X94730190Y-82991142D01*
X94730190Y-83038761D01*
X94706381Y-83110190D01*
X94658762Y-83157809D01*
X94611143Y-83181618D01*
X94515905Y-83205428D01*
X94444476Y-83205428D01*
X94349238Y-83181618D01*
X94301619Y-83157809D01*
X94254000Y-83110190D01*
X94230190Y-83038761D01*
X94230190Y-82991142D01*
X94254000Y-82919714D01*
X94277810Y-82895904D01*
X94230190Y-82586380D02*
X94230190Y-82491142D01*
X94254000Y-82443523D01*
X94301619Y-82395904D01*
X94396857Y-82372095D01*
X94563524Y-82372095D01*
X94658762Y-82395904D01*
X94706381Y-82443523D01*
X94730190Y-82491142D01*
X94730190Y-82586380D01*
X94706381Y-82633999D01*
X94658762Y-82681618D01*
X94563524Y-82705428D01*
X94396857Y-82705428D01*
X94301619Y-82681618D01*
X94254000Y-82633999D01*
X94230190Y-82586380D01*
X94730190Y-82157808D02*
X94230190Y-82157808D01*
X94730190Y-81872094D01*
X94230190Y-81872094D01*
X94730190Y-81633998D02*
X94230190Y-81633998D01*
X94730190Y-81348284D01*
X94230190Y-81348284D01*
X94777810Y-81229236D02*
X94777810Y-80848284D01*
X94230190Y-80633998D02*
X94230190Y-80586379D01*
X94254000Y-80538760D01*
X94277810Y-80514951D01*
X94325429Y-80491141D01*
X94420667Y-80467332D01*
X94539714Y-80467332D01*
X94634952Y-80491141D01*
X94682571Y-80514951D01*
X94706381Y-80538760D01*
X94730190Y-80586379D01*
X94730190Y-80633998D01*
X94706381Y-80681617D01*
X94682571Y-80705427D01*
X94634952Y-80729236D01*
X94539714Y-80753046D01*
X94420667Y-80753046D01*
X94325429Y-80729236D01*
X94277810Y-80705427D01*
X94254000Y-80681617D01*
X94230190Y-80633998D01*
X94730190Y-79991142D02*
X94730190Y-80276856D01*
X94730190Y-80133999D02*
X94230190Y-80133999D01*
X94301619Y-80181618D01*
X94349238Y-80229237D01*
X94373048Y-80276856D01*
X94230190Y-79824475D02*
X94730190Y-79491142D01*
X94230190Y-79491142D02*
X94730190Y-79824475D01*
X94230190Y-79205428D02*
X94230190Y-79157809D01*
X94254000Y-79110190D01*
X94277810Y-79086381D01*
X94325429Y-79062571D01*
X94420667Y-79038762D01*
X94539714Y-79038762D01*
X94634952Y-79062571D01*
X94682571Y-79086381D01*
X94706381Y-79110190D01*
X94730190Y-79157809D01*
X94730190Y-79205428D01*
X94706381Y-79253047D01*
X94682571Y-79276857D01*
X94634952Y-79300666D01*
X94539714Y-79324476D01*
X94420667Y-79324476D01*
X94325429Y-79300666D01*
X94277810Y-79276857D01*
X94254000Y-79253047D01*
X94230190Y-79205428D01*
X94277810Y-78848286D02*
X94254000Y-78824476D01*
X94230190Y-78776857D01*
X94230190Y-78657810D01*
X94254000Y-78610191D01*
X94277810Y-78586381D01*
X94325429Y-78562572D01*
X94373048Y-78562572D01*
X94444476Y-78586381D01*
X94730190Y-78872095D01*
X94730190Y-78562572D01*
D21*
X116065370Y-95374550D02*
X115265270Y-95374550D01*
X115265270Y-95184050D01*
X115303370Y-95069750D01*
X115379570Y-94993550D01*
X115455770Y-94955450D01*
X115608170Y-94917350D01*
X115722470Y-94917350D01*
X115874870Y-94955450D01*
X115951070Y-94993550D01*
X116027270Y-95069750D01*
X116065370Y-95184050D01*
X116065370Y-95374550D01*
X116065370Y-94155350D02*
X116065370Y-94612550D01*
X116065370Y-94383950D02*
X115265270Y-94383950D01*
X115379570Y-94460150D01*
X115455770Y-94536350D01*
X115493870Y-94612550D01*
X120365590Y-95298350D02*
X120365590Y-95679350D01*
X119565490Y-95679350D01*
X119946490Y-95031650D02*
X119946490Y-94764950D01*
X120365590Y-94650650D02*
X120365590Y-95031650D01*
X119565490Y-95031650D01*
X119565490Y-94650650D01*
X120365590Y-94307750D02*
X119565490Y-94307750D01*
X119565490Y-94117250D01*
X119603590Y-94002950D01*
X119679790Y-93926750D01*
X119755990Y-93888650D01*
X119908390Y-93850550D01*
X120022690Y-93850550D01*
X120175090Y-93888650D01*
X120251290Y-93926750D01*
X120327490Y-94002950D01*
X120365590Y-94117250D01*
X120365590Y-94307750D01*
D18*
X112156381Y-96176857D02*
X111680190Y-96510191D01*
X112156381Y-96748286D02*
X111156381Y-96748286D01*
X111156381Y-96367333D01*
X111204000Y-96272095D01*
X111251619Y-96224476D01*
X111346857Y-96176857D01*
X111489714Y-96176857D01*
X111584952Y-96224476D01*
X111632571Y-96272095D01*
X111680190Y-96367333D01*
X111680190Y-96748286D01*
X112156381Y-95224476D02*
X112156381Y-95795905D01*
X112156381Y-95510191D02*
X111156381Y-95510191D01*
X111299238Y-95605429D01*
X111394476Y-95700667D01*
X111442095Y-95795905D01*
X112156381Y-94272095D02*
X112156381Y-94843524D01*
X112156381Y-94557810D02*
X111156381Y-94557810D01*
X111299238Y-94653048D01*
X111394476Y-94748286D01*
X111442095Y-94843524D01*
D22*
X205402858Y-79367571D02*
X205402858Y-77867571D01*
X205974286Y-77867571D01*
X206117144Y-77939000D01*
X206188572Y-78010429D01*
X206260001Y-78153286D01*
X206260001Y-78367571D01*
X206188572Y-78510429D01*
X206117144Y-78581857D01*
X205974286Y-78653286D01*
X205402858Y-78653286D01*
X207545715Y-78367571D02*
X207545715Y-79367571D01*
X207188572Y-77796143D02*
X206831429Y-78867571D01*
X207760001Y-78867571D01*
D11*
X204998096Y-101067571D02*
X204974286Y-101091381D01*
X204902858Y-101115190D01*
X204855239Y-101115190D01*
X204783810Y-101091381D01*
X204736191Y-101043762D01*
X204712382Y-100996143D01*
X204688572Y-100900905D01*
X204688572Y-100829476D01*
X204712382Y-100734238D01*
X204736191Y-100686619D01*
X204783810Y-100639000D01*
X204855239Y-100615190D01*
X204902858Y-100615190D01*
X204974286Y-100639000D01*
X204998096Y-100662810D01*
X205307620Y-100615190D02*
X205402858Y-100615190D01*
X205450477Y-100639000D01*
X205498096Y-100686619D01*
X205521905Y-100781857D01*
X205521905Y-100948524D01*
X205498096Y-101043762D01*
X205450477Y-101091381D01*
X205402858Y-101115190D01*
X205307620Y-101115190D01*
X205260001Y-101091381D01*
X205212382Y-101043762D01*
X205188572Y-100948524D01*
X205188572Y-100781857D01*
X205212382Y-100686619D01*
X205260001Y-100639000D01*
X205307620Y-100615190D01*
X205736192Y-101115190D02*
X205736192Y-100615190D01*
X206021906Y-101115190D01*
X206021906Y-100615190D01*
X206260002Y-101115190D02*
X206260002Y-100615190D01*
X206545716Y-101115190D01*
X206545716Y-100615190D01*
X206664764Y-101162810D02*
X207045716Y-101162810D01*
X207260002Y-100615190D02*
X207307621Y-100615190D01*
X207355240Y-100639000D01*
X207379049Y-100662810D01*
X207402859Y-100710429D01*
X207426668Y-100805667D01*
X207426668Y-100924714D01*
X207402859Y-101019952D01*
X207379049Y-101067571D01*
X207355240Y-101091381D01*
X207307621Y-101115190D01*
X207260002Y-101115190D01*
X207212383Y-101091381D01*
X207188573Y-101067571D01*
X207164764Y-101019952D01*
X207140954Y-100924714D01*
X207140954Y-100805667D01*
X207164764Y-100710429D01*
X207188573Y-100662810D01*
X207212383Y-100639000D01*
X207260002Y-100615190D01*
X207902858Y-101115190D02*
X207617144Y-101115190D01*
X207760001Y-101115190D02*
X207760001Y-100615190D01*
X207712382Y-100686619D01*
X207664763Y-100734238D01*
X207617144Y-100758048D01*
X208069525Y-100615190D02*
X208402858Y-101115190D01*
X208402858Y-100615190D02*
X208069525Y-101115190D01*
X208688572Y-100615190D02*
X208736191Y-100615190D01*
X208783810Y-100639000D01*
X208807619Y-100662810D01*
X208831429Y-100710429D01*
X208855238Y-100805667D01*
X208855238Y-100924714D01*
X208831429Y-101019952D01*
X208807619Y-101067571D01*
X208783810Y-101091381D01*
X208736191Y-101115190D01*
X208688572Y-101115190D01*
X208640953Y-101091381D01*
X208617143Y-101067571D01*
X208593334Y-101019952D01*
X208569524Y-100924714D01*
X208569524Y-100805667D01*
X208593334Y-100710429D01*
X208617143Y-100662810D01*
X208640953Y-100639000D01*
X208688572Y-100615190D01*
X209283809Y-100781857D02*
X209283809Y-101115190D01*
X209164762Y-100591381D02*
X209045714Y-100948524D01*
X209355238Y-100948524D01*
D22*
X73876858Y-78886571D02*
X73876858Y-77386571D01*
X74448286Y-77386571D01*
X74591144Y-77458000D01*
X74662572Y-77529429D01*
X74734001Y-77672286D01*
X74734001Y-77886571D01*
X74662572Y-78029429D01*
X74591144Y-78100857D01*
X74448286Y-78172286D01*
X73876858Y-78172286D01*
X76091144Y-77386571D02*
X75376858Y-77386571D01*
X75305429Y-78100857D01*
X75376858Y-78029429D01*
X75519715Y-77958000D01*
X75876858Y-77958000D01*
X76019715Y-78029429D01*
X76091144Y-78100857D01*
X76162572Y-78243714D01*
X76162572Y-78600857D01*
X76091144Y-78743714D01*
X76019715Y-78815143D01*
X75876858Y-78886571D01*
X75519715Y-78886571D01*
X75376858Y-78815143D01*
X75305429Y-78743714D01*
D11*
X73572096Y-100586571D02*
X73548286Y-100610381D01*
X73476858Y-100634190D01*
X73429239Y-100634190D01*
X73357810Y-100610381D01*
X73310191Y-100562762D01*
X73286382Y-100515143D01*
X73262572Y-100419905D01*
X73262572Y-100348476D01*
X73286382Y-100253238D01*
X73310191Y-100205619D01*
X73357810Y-100158000D01*
X73429239Y-100134190D01*
X73476858Y-100134190D01*
X73548286Y-100158000D01*
X73572096Y-100181810D01*
X73881620Y-100134190D02*
X73976858Y-100134190D01*
X74024477Y-100158000D01*
X74072096Y-100205619D01*
X74095905Y-100300857D01*
X74095905Y-100467524D01*
X74072096Y-100562762D01*
X74024477Y-100610381D01*
X73976858Y-100634190D01*
X73881620Y-100634190D01*
X73834001Y-100610381D01*
X73786382Y-100562762D01*
X73762572Y-100467524D01*
X73762572Y-100300857D01*
X73786382Y-100205619D01*
X73834001Y-100158000D01*
X73881620Y-100134190D01*
X74310192Y-100634190D02*
X74310192Y-100134190D01*
X74595906Y-100634190D01*
X74595906Y-100134190D01*
X74834002Y-100634190D02*
X74834002Y-100134190D01*
X75119716Y-100634190D01*
X75119716Y-100134190D01*
X75238764Y-100681810D02*
X75619716Y-100681810D01*
X75834002Y-100134190D02*
X75881621Y-100134190D01*
X75929240Y-100158000D01*
X75953049Y-100181810D01*
X75976859Y-100229429D01*
X76000668Y-100324667D01*
X76000668Y-100443714D01*
X75976859Y-100538952D01*
X75953049Y-100586571D01*
X75929240Y-100610381D01*
X75881621Y-100634190D01*
X75834002Y-100634190D01*
X75786383Y-100610381D01*
X75762573Y-100586571D01*
X75738764Y-100538952D01*
X75714954Y-100443714D01*
X75714954Y-100324667D01*
X75738764Y-100229429D01*
X75762573Y-100181810D01*
X75786383Y-100158000D01*
X75834002Y-100134190D01*
X76476858Y-100634190D02*
X76191144Y-100634190D01*
X76334001Y-100634190D02*
X76334001Y-100134190D01*
X76286382Y-100205619D01*
X76238763Y-100253238D01*
X76191144Y-100277048D01*
X76643525Y-100134190D02*
X76976858Y-100634190D01*
X76976858Y-100134190D02*
X76643525Y-100634190D01*
X77262572Y-100134190D02*
X77310191Y-100134190D01*
X77357810Y-100158000D01*
X77381619Y-100181810D01*
X77405429Y-100229429D01*
X77429238Y-100324667D01*
X77429238Y-100443714D01*
X77405429Y-100538952D01*
X77381619Y-100586571D01*
X77357810Y-100610381D01*
X77310191Y-100634190D01*
X77262572Y-100634190D01*
X77214953Y-100610381D01*
X77191143Y-100586571D01*
X77167334Y-100538952D01*
X77143524Y-100443714D01*
X77143524Y-100324667D01*
X77167334Y-100229429D01*
X77191143Y-100181810D01*
X77214953Y-100158000D01*
X77262572Y-100134190D01*
X77857809Y-100300857D02*
X77857809Y-100634190D01*
X77738762Y-100110381D02*
X77619714Y-100467524D01*
X77929238Y-100467524D01*
X126380190Y-91453047D02*
X125880190Y-91453047D01*
X125880190Y-91262571D01*
X125904000Y-91214952D01*
X125927810Y-91191143D01*
X125975429Y-91167333D01*
X126046857Y-91167333D01*
X126094476Y-91191143D01*
X126118286Y-91214952D01*
X126142095Y-91262571D01*
X126142095Y-91453047D01*
X126380190Y-90691143D02*
X126380190Y-90976857D01*
X126380190Y-90834000D02*
X125880190Y-90834000D01*
X125951619Y-90881619D01*
X125999238Y-90929238D01*
X126023048Y-90976857D01*
X130380190Y-91453047D02*
X129880190Y-91453047D01*
X129880190Y-91262571D01*
X129904000Y-91214952D01*
X129927810Y-91191143D01*
X129975429Y-91167333D01*
X130046857Y-91167333D01*
X130094476Y-91191143D01*
X130118286Y-91214952D01*
X130142095Y-91262571D01*
X130142095Y-91453047D01*
X129927810Y-90976857D02*
X129904000Y-90953047D01*
X129880190Y-90905428D01*
X129880190Y-90786381D01*
X129904000Y-90738762D01*
X129927810Y-90714952D01*
X129975429Y-90691143D01*
X130023048Y-90691143D01*
X130094476Y-90714952D01*
X130380190Y-91000666D01*
X130380190Y-90691143D01*
X134280190Y-91453047D02*
X133780190Y-91453047D01*
X133780190Y-91262571D01*
X133804000Y-91214952D01*
X133827810Y-91191143D01*
X133875429Y-91167333D01*
X133946857Y-91167333D01*
X133994476Y-91191143D01*
X134018286Y-91214952D01*
X134042095Y-91262571D01*
X134042095Y-91453047D01*
X133780190Y-91000666D02*
X133780190Y-90691143D01*
X133970667Y-90857809D01*
X133970667Y-90786381D01*
X133994476Y-90738762D01*
X134018286Y-90714952D01*
X134065905Y-90691143D01*
X134184952Y-90691143D01*
X134232571Y-90714952D01*
X134256381Y-90738762D01*
X134280190Y-90786381D01*
X134280190Y-90929238D01*
X134256381Y-90976857D01*
X134232571Y-91000666D01*
D18*
X178185143Y-96178666D02*
X178232762Y-96226285D01*
X178280381Y-96369142D01*
X178280381Y-96464380D01*
X178232762Y-96607238D01*
X178137524Y-96702476D01*
X178042286Y-96750095D01*
X177851810Y-96797714D01*
X177708952Y-96797714D01*
X177518476Y-96750095D01*
X177423238Y-96702476D01*
X177328000Y-96607238D01*
X177280381Y-96464380D01*
X177280381Y-96369142D01*
X177328000Y-96226285D01*
X177375619Y-96178666D01*
X178280381Y-95226285D02*
X178280381Y-95797714D01*
X178280381Y-95512000D02*
X177280381Y-95512000D01*
X177423238Y-95607238D01*
X177518476Y-95702476D01*
X177566095Y-95797714D01*
X192095524Y-80716381D02*
X192095524Y-79716381D01*
X192524096Y-80716381D02*
X192524096Y-80192571D01*
X192476477Y-80097333D01*
X192381239Y-80049714D01*
X192238381Y-80049714D01*
X192143143Y-80097333D01*
X192095524Y-80144952D01*
X192905048Y-79716381D02*
X193524096Y-79716381D01*
X193190762Y-80097333D01*
X193333620Y-80097333D01*
X193428858Y-80144952D01*
X193476477Y-80192571D01*
X193524096Y-80287810D01*
X193524096Y-80525905D01*
X193476477Y-80621143D01*
X193428858Y-80668762D01*
X193333620Y-80716381D01*
X193047905Y-80716381D01*
X192952667Y-80668762D01*
X192905048Y-80621143D01*
X192095524Y-92400381D02*
X192095524Y-91400381D01*
X192524096Y-92400381D02*
X192524096Y-91876571D01*
X192476477Y-91781333D01*
X192381239Y-91733714D01*
X192238381Y-91733714D01*
X192143143Y-91781333D01*
X192095524Y-91828952D01*
X193428858Y-91733714D02*
X193428858Y-92400381D01*
X193190762Y-91352762D02*
X192952667Y-92067048D01*
X193571715Y-92067048D01*
M02*
