M48
;DRILL file {KiCad 4.0.6} date 02/01/18 18:05:07
;FORMAT={-:-/ absolute / metric / decimal}
FMAT,2
METRIC,TZ
T1C0.400
T2C0.800
T3C1.001
T4C1.300
%
G90
G05
M71
T1
X105.898Y-91.384
X107.354Y-93.034
X144.684Y-98.109
T2
X154.264Y-91.574
X154.264Y-99.194
X156.804Y-91.574
X156.804Y-99.194
X159.344Y-91.574
X159.344Y-99.194
X161.884Y-91.574
X161.884Y-99.194
X164.424Y-91.574
X164.424Y-99.194
X166.964Y-91.574
X166.964Y-99.194
X169.504Y-91.574
X169.504Y-99.194
X172.044Y-91.574
X172.044Y-99.194
T3
X126.054Y-93.044
X126.054Y-95.584
X126.054Y-98.124
X130.054Y-93.044
X130.054Y-95.584
X130.054Y-98.124
X134.054Y-93.044
X134.054Y-95.584
X134.054Y-98.124
T4
X75.184Y-81.908
X75.184Y-86.908
X75.184Y-91.908
X75.184Y-96.908
X97.754Y-81.884
X102.754Y-81.884
X108.504Y-81.884
X113.504Y-81.884
X118.504Y-81.884
X123.504Y-81.884
X128.504Y-81.884
X133.504Y-81.884
X138.504Y-81.884
X143.504Y-81.884
X148.504Y-81.884
X153.504Y-81.884
X158.504Y-81.884
X163.504Y-81.884
X168.504Y-81.884
X173.504Y-81.884
X178.504Y-81.884
X183.504Y-81.884
X207.01Y-82.289
X207.01Y-87.289
X207.01Y-92.289
X207.01Y-97.289
T0
M30
