M48
;DRILL file {KiCad 4.0.6} date 08/21/17 11:10:07
;FORMAT={-:-/ absolute / metric / decimal}
FMAT,2
METRIC,TZ
T1C1.001
T2C1.300
%
G90
G05
M71
T1
X150.622Y-91.694
X153.162Y-91.694
X155.702Y-91.694
X158.242Y-91.694
X160.782Y-91.694
X163.322Y-91.694
X165.862Y-91.694
X168.402Y-91.694
X170.942Y-91.694
X173.482Y-91.694
X182.118Y-91.694
X184.658Y-91.694
X187.198Y-91.694
X189.738Y-91.694
X192.278Y-91.694
X194.818Y-91.694
X197.358Y-91.694
X199.898Y-91.694
X202.438Y-91.694
X204.978Y-91.694
T2
X138.684Y-83.94
X138.684Y-88.94
X138.684Y-93.94
X138.684Y-98.94
X148.924Y-103.632
X153.924Y-103.632
X158.924Y-103.632
X164.926Y-103.632
X169.926Y-103.632
X174.926Y-103.632
X180.928Y-103.632
X185.928Y-103.632
X190.928Y-103.632
X196.93Y-103.632
X201.93Y-103.632
X206.93Y-103.632
X216.916Y-83.432
X216.916Y-88.432
X216.916Y-93.432
X216.916Y-98.432
T0
M30
