G04 #@! TF.GenerationSoftware,KiCad,Pcbnew,(5.0.1)-3*
G04 #@! TF.CreationDate,2019-09-03T13:29:31-05:00*
G04 #@! TF.ProjectId,monitorIO,6D6F6E69746F72494F2E6B696361645F,rev?*
G04 #@! TF.SameCoordinates,Original*
G04 #@! TF.FileFunction,Soldermask,Top*
G04 #@! TF.FilePolarity,Negative*
%FSLAX46Y46*%
G04 Gerber Fmt 4.6, Leading zero omitted, Abs format (unit mm)*
G04 Created by KiCad (PCBNEW (5.0.1)-3) date 03/09/2019 13:29:31*
%MOMM*%
%LPD*%
G01*
G04 APERTURE LIST*
%ADD10C,0.100000*%
G04 APERTURE END LIST*
D10*
G36*
X147117567Y-98147521D02*
X147197196Y-98155364D01*
X147299363Y-98186356D01*
X147350448Y-98201852D01*
X147491685Y-98277345D01*
X147615479Y-98378941D01*
X147717075Y-98502735D01*
X147792568Y-98643972D01*
X147792568Y-98643973D01*
X147839056Y-98797224D01*
X147854753Y-98956600D01*
X147839056Y-99115976D01*
X147808064Y-99218143D01*
X147792568Y-99269228D01*
X147717075Y-99410465D01*
X147615479Y-99534259D01*
X147491685Y-99635855D01*
X147350448Y-99711348D01*
X147299363Y-99726844D01*
X147197196Y-99757836D01*
X147117567Y-99765679D01*
X147077754Y-99769600D01*
X146322246Y-99769600D01*
X146282433Y-99765679D01*
X146202804Y-99757836D01*
X146100637Y-99726844D01*
X146049552Y-99711348D01*
X145908315Y-99635855D01*
X145784521Y-99534259D01*
X145682925Y-99410465D01*
X145607432Y-99269228D01*
X145591936Y-99218143D01*
X145560944Y-99115976D01*
X145545247Y-98956600D01*
X145560944Y-98797224D01*
X145607432Y-98643973D01*
X145607432Y-98643972D01*
X145682925Y-98502735D01*
X145784521Y-98378941D01*
X145908315Y-98277345D01*
X146049552Y-98201852D01*
X146100637Y-98186356D01*
X146202804Y-98155364D01*
X146282433Y-98147521D01*
X146322246Y-98143600D01*
X147077754Y-98143600D01*
X147117567Y-98147521D01*
X147117567Y-98147521D01*
G37*
G36*
X147117567Y-95607521D02*
X147197196Y-95615364D01*
X147299363Y-95646356D01*
X147350448Y-95661852D01*
X147491685Y-95737345D01*
X147615479Y-95838941D01*
X147717075Y-95962735D01*
X147792568Y-96103972D01*
X147792568Y-96103973D01*
X147839056Y-96257224D01*
X147854753Y-96416600D01*
X147839056Y-96575976D01*
X147808064Y-96678143D01*
X147792568Y-96729228D01*
X147717075Y-96870465D01*
X147615479Y-96994259D01*
X147491685Y-97095855D01*
X147350448Y-97171348D01*
X147299363Y-97186844D01*
X147197196Y-97217836D01*
X147117567Y-97225679D01*
X147077754Y-97229600D01*
X146322246Y-97229600D01*
X146282433Y-97225679D01*
X146202804Y-97217836D01*
X146100637Y-97186844D01*
X146049552Y-97171348D01*
X145908315Y-97095855D01*
X145784521Y-96994259D01*
X145682925Y-96870465D01*
X145607432Y-96729228D01*
X145591936Y-96678143D01*
X145560944Y-96575976D01*
X145545247Y-96416600D01*
X145560944Y-96257224D01*
X145607432Y-96103973D01*
X145607432Y-96103972D01*
X145682925Y-95962735D01*
X145784521Y-95838941D01*
X145908315Y-95737345D01*
X146049552Y-95661852D01*
X146100637Y-95646356D01*
X146202804Y-95615364D01*
X146282433Y-95607521D01*
X146322246Y-95603600D01*
X147077754Y-95603600D01*
X147117567Y-95607521D01*
X147117567Y-95607521D01*
G37*
G36*
X143110000Y-96971000D02*
X142208000Y-96971000D01*
X142208000Y-96069000D01*
X143110000Y-96069000D01*
X143110000Y-96971000D01*
X143110000Y-96971000D01*
G37*
G36*
X141510000Y-96971000D02*
X140608000Y-96971000D01*
X140608000Y-96069000D01*
X141510000Y-96069000D01*
X141510000Y-96971000D01*
X141510000Y-96971000D01*
G37*
G36*
X147117567Y-93067521D02*
X147197196Y-93075364D01*
X147299363Y-93106356D01*
X147350448Y-93121852D01*
X147491685Y-93197345D01*
X147615479Y-93298941D01*
X147717075Y-93422735D01*
X147792568Y-93563972D01*
X147792568Y-93563973D01*
X147839056Y-93717224D01*
X147854753Y-93876600D01*
X147839056Y-94035976D01*
X147808064Y-94138143D01*
X147792568Y-94189228D01*
X147717075Y-94330465D01*
X147615479Y-94454259D01*
X147491685Y-94555855D01*
X147350448Y-94631348D01*
X147299363Y-94646844D01*
X147197196Y-94677836D01*
X147117567Y-94685679D01*
X147077754Y-94689600D01*
X146322246Y-94689600D01*
X146282433Y-94685679D01*
X146202804Y-94677836D01*
X146100637Y-94646844D01*
X146049552Y-94631348D01*
X145908315Y-94555855D01*
X145784521Y-94454259D01*
X145682925Y-94330465D01*
X145607432Y-94189228D01*
X145591936Y-94138143D01*
X145560944Y-94035976D01*
X145545247Y-93876600D01*
X145560944Y-93717224D01*
X145607432Y-93563973D01*
X145607432Y-93563972D01*
X145682925Y-93422735D01*
X145784521Y-93298941D01*
X145908315Y-93197345D01*
X146049552Y-93121852D01*
X146100637Y-93106356D01*
X146202804Y-93075364D01*
X146282433Y-93067521D01*
X146322246Y-93063600D01*
X147077754Y-93063600D01*
X147117567Y-93067521D01*
X147117567Y-93067521D01*
G37*
G36*
X141510000Y-94431000D02*
X140608000Y-94431000D01*
X140608000Y-93529000D01*
X141510000Y-93529000D01*
X141510000Y-94431000D01*
X141510000Y-94431000D01*
G37*
G36*
X143110000Y-94431000D02*
X142208000Y-94431000D01*
X142208000Y-93529000D01*
X143110000Y-93529000D01*
X143110000Y-94431000D01*
X143110000Y-94431000D01*
G37*
G36*
X147117567Y-90527521D02*
X147197196Y-90535364D01*
X147299363Y-90566356D01*
X147350448Y-90581852D01*
X147491685Y-90657345D01*
X147615479Y-90758941D01*
X147717075Y-90882735D01*
X147792568Y-91023972D01*
X147792568Y-91023973D01*
X147839056Y-91177224D01*
X147854753Y-91336600D01*
X147839056Y-91495976D01*
X147808064Y-91598143D01*
X147792568Y-91649228D01*
X147717075Y-91790465D01*
X147615479Y-91914259D01*
X147491685Y-92015855D01*
X147350448Y-92091348D01*
X147299363Y-92106844D01*
X147197196Y-92137836D01*
X147117567Y-92145679D01*
X147077754Y-92149600D01*
X146322246Y-92149600D01*
X146282433Y-92145679D01*
X146202804Y-92137836D01*
X146100637Y-92106844D01*
X146049552Y-92091348D01*
X145908315Y-92015855D01*
X145784521Y-91914259D01*
X145682925Y-91790465D01*
X145607432Y-91649228D01*
X145591936Y-91598143D01*
X145560944Y-91495976D01*
X145545247Y-91336600D01*
X145560944Y-91177224D01*
X145607432Y-91023973D01*
X145607432Y-91023972D01*
X145682925Y-90882735D01*
X145784521Y-90758941D01*
X145908315Y-90657345D01*
X146049552Y-90581852D01*
X146100637Y-90566356D01*
X146202804Y-90535364D01*
X146282433Y-90527521D01*
X146322246Y-90523600D01*
X147077754Y-90523600D01*
X147117567Y-90527521D01*
X147117567Y-90527521D01*
G37*
G36*
X143110000Y-91891000D02*
X142208000Y-91891000D01*
X142208000Y-90989000D01*
X143110000Y-90989000D01*
X143110000Y-91891000D01*
X143110000Y-91891000D01*
G37*
G36*
X141510000Y-91891000D02*
X140608000Y-91891000D01*
X140608000Y-90989000D01*
X141510000Y-90989000D01*
X141510000Y-91891000D01*
X141510000Y-91891000D01*
G37*
G36*
X147117567Y-87987521D02*
X147197196Y-87995364D01*
X147299363Y-88026356D01*
X147350448Y-88041852D01*
X147491685Y-88117345D01*
X147615479Y-88218941D01*
X147717075Y-88342735D01*
X147792568Y-88483972D01*
X147792568Y-88483973D01*
X147839056Y-88637224D01*
X147854753Y-88796600D01*
X147839056Y-88955976D01*
X147808064Y-89058143D01*
X147792568Y-89109228D01*
X147717075Y-89250465D01*
X147615479Y-89374259D01*
X147491685Y-89475855D01*
X147350448Y-89551348D01*
X147299363Y-89566844D01*
X147197196Y-89597836D01*
X147117567Y-89605679D01*
X147077754Y-89609600D01*
X146322246Y-89609600D01*
X146282433Y-89605679D01*
X146202804Y-89597836D01*
X146100637Y-89566844D01*
X146049552Y-89551348D01*
X145908315Y-89475855D01*
X145784521Y-89374259D01*
X145682925Y-89250465D01*
X145607432Y-89109228D01*
X145591936Y-89058143D01*
X145560944Y-88955976D01*
X145545247Y-88796600D01*
X145560944Y-88637224D01*
X145607432Y-88483973D01*
X145607432Y-88483972D01*
X145682925Y-88342735D01*
X145784521Y-88218941D01*
X145908315Y-88117345D01*
X146049552Y-88041852D01*
X146100637Y-88026356D01*
X146202804Y-87995364D01*
X146282433Y-87987521D01*
X146322246Y-87983600D01*
X147077754Y-87983600D01*
X147117567Y-87987521D01*
X147117567Y-87987521D01*
G37*
G36*
X143110000Y-89351000D02*
X142208000Y-89351000D01*
X142208000Y-88449000D01*
X143110000Y-88449000D01*
X143110000Y-89351000D01*
X143110000Y-89351000D01*
G37*
G36*
X141510000Y-89351000D02*
X140608000Y-89351000D01*
X140608000Y-88449000D01*
X141510000Y-88449000D01*
X141510000Y-89351000D01*
X141510000Y-89351000D01*
G37*
G36*
X147117567Y-85447521D02*
X147197196Y-85455364D01*
X147299363Y-85486356D01*
X147350448Y-85501852D01*
X147491685Y-85577345D01*
X147615479Y-85678941D01*
X147717075Y-85802735D01*
X147792568Y-85943972D01*
X147792568Y-85943973D01*
X147839056Y-86097224D01*
X147854753Y-86256600D01*
X147839056Y-86415976D01*
X147808064Y-86518143D01*
X147792568Y-86569228D01*
X147717075Y-86710465D01*
X147615479Y-86834259D01*
X147491685Y-86935855D01*
X147350448Y-87011348D01*
X147299363Y-87026844D01*
X147197196Y-87057836D01*
X147117567Y-87065679D01*
X147077754Y-87069600D01*
X146322246Y-87069600D01*
X146282433Y-87065679D01*
X146202804Y-87057836D01*
X146100637Y-87026844D01*
X146049552Y-87011348D01*
X145908315Y-86935855D01*
X145784521Y-86834259D01*
X145682925Y-86710465D01*
X145607432Y-86569228D01*
X145591936Y-86518143D01*
X145560944Y-86415976D01*
X145545247Y-86256600D01*
X145560944Y-86097224D01*
X145607432Y-85943973D01*
X145607432Y-85943972D01*
X145682925Y-85802735D01*
X145784521Y-85678941D01*
X145908315Y-85577345D01*
X146049552Y-85501852D01*
X146100637Y-85486356D01*
X146202804Y-85455364D01*
X146282433Y-85447521D01*
X146322246Y-85443600D01*
X147077754Y-85443600D01*
X147117567Y-85447521D01*
X147117567Y-85447521D01*
G37*
G36*
X141510000Y-86811000D02*
X140608000Y-86811000D01*
X140608000Y-85909000D01*
X141510000Y-85909000D01*
X141510000Y-86811000D01*
X141510000Y-86811000D01*
G37*
G36*
X143110000Y-86811000D02*
X142208000Y-86811000D01*
X142208000Y-85909000D01*
X143110000Y-85909000D01*
X143110000Y-86811000D01*
X143110000Y-86811000D01*
G37*
G36*
X147117567Y-82907521D02*
X147197196Y-82915364D01*
X147299363Y-82946356D01*
X147350448Y-82961852D01*
X147491685Y-83037345D01*
X147615479Y-83138941D01*
X147717075Y-83262735D01*
X147792568Y-83403972D01*
X147792568Y-83403973D01*
X147839056Y-83557224D01*
X147854753Y-83716600D01*
X147839056Y-83875976D01*
X147808064Y-83978143D01*
X147792568Y-84029228D01*
X147717075Y-84170465D01*
X147615479Y-84294259D01*
X147491685Y-84395855D01*
X147350448Y-84471348D01*
X147299363Y-84486844D01*
X147197196Y-84517836D01*
X147117567Y-84525679D01*
X147077754Y-84529600D01*
X146322246Y-84529600D01*
X146282433Y-84525679D01*
X146202804Y-84517836D01*
X146100637Y-84486844D01*
X146049552Y-84471348D01*
X145908315Y-84395855D01*
X145784521Y-84294259D01*
X145682925Y-84170465D01*
X145607432Y-84029228D01*
X145591936Y-83978143D01*
X145560944Y-83875976D01*
X145545247Y-83716600D01*
X145560944Y-83557224D01*
X145607432Y-83403973D01*
X145607432Y-83403972D01*
X145682925Y-83262735D01*
X145784521Y-83138941D01*
X145908315Y-83037345D01*
X146049552Y-82961852D01*
X146100637Y-82946356D01*
X146202804Y-82915364D01*
X146282433Y-82907521D01*
X146322246Y-82903600D01*
X147077754Y-82903600D01*
X147117567Y-82907521D01*
X147117567Y-82907521D01*
G37*
G36*
X143110000Y-84271000D02*
X142208000Y-84271000D01*
X142208000Y-83369000D01*
X143110000Y-83369000D01*
X143110000Y-84271000D01*
X143110000Y-84271000D01*
G37*
G36*
X141510000Y-84271000D02*
X140608000Y-84271000D01*
X140608000Y-83369000D01*
X141510000Y-83369000D01*
X141510000Y-84271000D01*
X141510000Y-84271000D01*
G37*
G36*
X147117567Y-80367521D02*
X147197196Y-80375364D01*
X147299363Y-80406356D01*
X147350448Y-80421852D01*
X147491685Y-80497345D01*
X147615479Y-80598941D01*
X147717075Y-80722735D01*
X147792568Y-80863972D01*
X147792568Y-80863973D01*
X147839056Y-81017224D01*
X147854753Y-81176600D01*
X147839056Y-81335976D01*
X147808064Y-81438143D01*
X147792568Y-81489228D01*
X147717075Y-81630465D01*
X147615479Y-81754259D01*
X147491685Y-81855855D01*
X147350448Y-81931348D01*
X147299363Y-81946844D01*
X147197196Y-81977836D01*
X147117567Y-81985679D01*
X147077754Y-81989600D01*
X146322246Y-81989600D01*
X146282433Y-81985679D01*
X146202804Y-81977836D01*
X146100637Y-81946844D01*
X146049552Y-81931348D01*
X145908315Y-81855855D01*
X145784521Y-81754259D01*
X145682925Y-81630465D01*
X145607432Y-81489228D01*
X145591936Y-81438143D01*
X145560944Y-81335976D01*
X145545247Y-81176600D01*
X145560944Y-81017224D01*
X145607432Y-80863973D01*
X145607432Y-80863972D01*
X145682925Y-80722735D01*
X145784521Y-80598941D01*
X145908315Y-80497345D01*
X146049552Y-80421852D01*
X146100637Y-80406356D01*
X146202804Y-80375364D01*
X146282433Y-80367521D01*
X146322246Y-80363600D01*
X147077754Y-80363600D01*
X147117567Y-80367521D01*
X147117567Y-80367521D01*
G37*
G36*
X143110000Y-81731000D02*
X142208000Y-81731000D01*
X142208000Y-80829000D01*
X143110000Y-80829000D01*
X143110000Y-81731000D01*
X143110000Y-81731000D01*
G37*
G36*
X141510000Y-81731000D02*
X140608000Y-81731000D01*
X140608000Y-80829000D01*
X141510000Y-80829000D01*
X141510000Y-81731000D01*
X141510000Y-81731000D01*
G37*
G36*
X147850820Y-79449600D02*
X145549180Y-79449600D01*
X145549180Y-77823600D01*
X147850820Y-77823600D01*
X147850820Y-79449600D01*
X147850820Y-79449600D01*
G37*
G36*
X141510000Y-79191000D02*
X140608000Y-79191000D01*
X140608000Y-78289000D01*
X141510000Y-78289000D01*
X141510000Y-79191000D01*
X141510000Y-79191000D01*
G37*
G36*
X143110000Y-79191000D02*
X142208000Y-79191000D01*
X142208000Y-78289000D01*
X143110000Y-78289000D01*
X143110000Y-79191000D01*
X143110000Y-79191000D01*
G37*
M02*
