G04 #@! TF.GenerationSoftware,KiCad,Pcbnew,(5.0.1)-3*
G04 #@! TF.CreationDate,2019-09-03T13:29:31-05:00*
G04 #@! TF.ProjectId,monitorIO,6D6F6E69746F72494F2E6B696361645F,rev?*
G04 #@! TF.SameCoordinates,Original*
G04 #@! TF.FileFunction,Copper,L2,Bot,Signal*
G04 #@! TF.FilePolarity,Positive*
%FSLAX46Y46*%
G04 Gerber Fmt 4.6, Leading zero omitted, Abs format (unit mm)*
G04 Created by KiCad (PCBNEW (5.0.1)-3) date 03/09/2019 13:29:31*
%MOMM*%
%LPD*%
G01*
G04 APERTURE LIST*
G04 #@! TA.AperFunction,ComponentPad*
%ADD10R,2.199640X1.524000*%
G04 #@! TD*
G04 #@! TA.AperFunction,ComponentPad*
%ADD11O,2.199640X1.524000*%
G04 #@! TD*
G04 #@! TA.AperFunction,SMDPad,CuDef*
%ADD12R,0.900000X1.700000*%
G04 #@! TD*
G04 #@! TA.AperFunction,ViaPad*
%ADD13C,0.800000*%
G04 #@! TD*
G04 #@! TA.AperFunction,Conductor*
%ADD14C,0.250000*%
G04 #@! TD*
G04 #@! TA.AperFunction,Conductor*
%ADD15C,0.254000*%
G04 #@! TD*
G04 APERTURE END LIST*
D10*
G04 #@! TO.P,J1,1*
G04 #@! TO.N,Net-(J1-Pad1)*
X146700000Y-78636600D03*
D11*
G04 #@! TO.P,J1,2*
G04 #@! TO.N,Net-(J1-Pad2)*
X146700000Y-81176600D03*
G04 #@! TO.P,J1,3*
G04 #@! TO.N,Net-(J1-Pad3)*
X146700000Y-83716600D03*
G04 #@! TO.P,J1,4*
G04 #@! TO.N,Net-(J1-Pad4)*
X146700000Y-86256600D03*
G04 #@! TO.P,J1,5*
G04 #@! TO.N,Net-(J1-Pad5)*
X146700000Y-88796600D03*
G04 #@! TO.P,J1,6*
G04 #@! TO.N,Net-(J1-Pad6)*
X146700000Y-91336600D03*
G04 #@! TO.P,J1,7*
G04 #@! TO.N,Net-(J1-Pad7)*
X146700000Y-93876600D03*
G04 #@! TO.P,J1,8*
G04 #@! TO.N,Net-(J1-Pad8)*
X146700000Y-96416600D03*
G04 #@! TO.P,J1,9*
G04 #@! TO.N,GND*
X146700000Y-98956600D03*
G04 #@! TD*
D12*
G04 #@! TO.P,R1,1*
G04 #@! TO.N,Net-(J1-Pad1)*
X144071000Y-78740000D03*
G04 #@! TO.P,R1,2*
G04 #@! TO.N,Net-(D1-Pad2)*
X141171000Y-78740000D03*
G04 #@! TD*
G04 #@! TO.P,R2,2*
G04 #@! TO.N,Net-(D2-Pad2)*
X141171000Y-81280000D03*
G04 #@! TO.P,R2,1*
G04 #@! TO.N,Net-(J1-Pad2)*
X144071000Y-81280000D03*
G04 #@! TD*
G04 #@! TO.P,R3,1*
G04 #@! TO.N,Net-(J1-Pad3)*
X144071000Y-83820000D03*
G04 #@! TO.P,R3,2*
G04 #@! TO.N,Net-(D3-Pad2)*
X141171000Y-83820000D03*
G04 #@! TD*
G04 #@! TO.P,R4,2*
G04 #@! TO.N,Net-(D4-Pad2)*
X141171000Y-86360000D03*
G04 #@! TO.P,R4,1*
G04 #@! TO.N,Net-(J1-Pad4)*
X144071000Y-86360000D03*
G04 #@! TD*
G04 #@! TO.P,R5,1*
G04 #@! TO.N,Net-(J1-Pad5)*
X144083000Y-88949000D03*
G04 #@! TO.P,R5,2*
G04 #@! TO.N,Net-(D5-Pad2)*
X141183000Y-88949000D03*
G04 #@! TD*
G04 #@! TO.P,R6,2*
G04 #@! TO.N,Net-(D6-Pad2)*
X141183000Y-91489000D03*
G04 #@! TO.P,R6,1*
G04 #@! TO.N,Net-(J1-Pad6)*
X144083000Y-91489000D03*
G04 #@! TD*
G04 #@! TO.P,R7,1*
G04 #@! TO.N,Net-(J1-Pad7)*
X144083000Y-94029000D03*
G04 #@! TO.P,R7,2*
G04 #@! TO.N,Net-(D7-Pad2)*
X141183000Y-94029000D03*
G04 #@! TD*
G04 #@! TO.P,R8,2*
G04 #@! TO.N,Net-(D8-Pad2)*
X141183000Y-96569000D03*
G04 #@! TO.P,R8,1*
G04 #@! TO.N,Net-(J1-Pad8)*
X144083000Y-96569000D03*
G04 #@! TD*
D13*
G04 #@! TO.N,Net-(D1-Pad2)*
X142621000Y-79754400D03*
G04 #@! TO.N,Net-(D2-Pad2)*
X145146000Y-82296200D03*
G04 #@! TO.N,Net-(D3-Pad2)*
X142621000Y-82807200D03*
G04 #@! TO.N,Net-(D4-Pad2)*
X142627000Y-87373600D03*
G04 #@! TO.N,Net-(D5-Pad2)*
X145068000Y-90124400D03*
G04 #@! TO.N,Net-(D6-Pad2)*
X142420800Y-90435300D03*
G04 #@! TO.N,Net-(D7-Pad2)*
X142633000Y-94990600D03*
G04 #@! TO.N,Net-(D8-Pad2)*
X142670800Y-97539200D03*
G04 #@! TD*
D14*
G04 #@! TO.N,Net-(D1-Pad2)*
X141171000Y-78740000D02*
X141946300Y-78740000D01*
X141946300Y-78740000D02*
X141946300Y-79079700D01*
X141946300Y-79079700D02*
X142621000Y-79754400D01*
G04 #@! TO.N,Net-(D2-Pad2)*
X141171000Y-81280000D02*
X142284200Y-81280000D01*
X142284200Y-81280000D02*
X143465900Y-82461700D01*
X143465900Y-82461700D02*
X144980500Y-82461700D01*
X144980500Y-82461700D02*
X145146000Y-82296200D01*
G04 #@! TO.N,Net-(D3-Pad2)*
X141171000Y-83820000D02*
X141946300Y-83820000D01*
X141946300Y-83820000D02*
X141946300Y-83481900D01*
X141946300Y-83481900D02*
X142621000Y-82807200D01*
G04 #@! TO.N,Net-(D4-Pad2)*
X141946300Y-86360000D02*
X141946300Y-86692900D01*
X141946300Y-86692900D02*
X142627000Y-87373600D01*
X141171000Y-86360000D02*
X141946300Y-86360000D01*
G04 #@! TO.N,Net-(D5-Pad2)*
X145068000Y-90124400D02*
X143397000Y-90124400D01*
X143397000Y-90124400D02*
X142221600Y-88949000D01*
X142221600Y-88949000D02*
X141183000Y-88949000D01*
G04 #@! TO.N,Net-(D6-Pad2)*
X141183000Y-91489000D02*
X141958300Y-91489000D01*
X141958300Y-91489000D02*
X141958300Y-90897800D01*
X141958300Y-90897800D02*
X142420800Y-90435300D01*
G04 #@! TO.N,Net-(D7-Pad2)*
X141958300Y-94029000D02*
X141958300Y-94315900D01*
X141958300Y-94315900D02*
X142633000Y-94990600D01*
X141183000Y-94029000D02*
X141958300Y-94029000D01*
G04 #@! TO.N,Net-(D8-Pad2)*
X141958300Y-96569000D02*
X141958300Y-96826700D01*
X141958300Y-96826700D02*
X142670800Y-97539200D01*
X141183000Y-96569000D02*
X141958300Y-96569000D01*
G04 #@! TO.N,Net-(J1-Pad1)*
X146700000Y-78636600D02*
X145274900Y-78636600D01*
X144071000Y-78740000D02*
X145171500Y-78740000D01*
X145171500Y-78740000D02*
X145274900Y-78636600D01*
G04 #@! TO.N,Net-(J1-Pad2)*
X146700000Y-81176600D02*
X145274800Y-81176600D01*
X144071000Y-81280000D02*
X145171400Y-81280000D01*
X145171400Y-81280000D02*
X145274800Y-81176600D01*
G04 #@! TO.N,Net-(J1-Pad3)*
X146700000Y-83716600D02*
X145274800Y-83716600D01*
X144071000Y-83820000D02*
X145171400Y-83820000D01*
X145171400Y-83820000D02*
X145274800Y-83716600D01*
G04 #@! TO.N,Net-(J1-Pad4)*
X146700000Y-86256600D02*
X145274800Y-86256600D01*
X144071000Y-86360000D02*
X145171400Y-86360000D01*
X145171400Y-86360000D02*
X145274800Y-86256600D01*
G04 #@! TO.N,Net-(J1-Pad5)*
X146700000Y-88796600D02*
X145274800Y-88796600D01*
X144083000Y-88949000D02*
X145122400Y-88949000D01*
X145122400Y-88949000D02*
X145274800Y-88796600D01*
G04 #@! TO.N,Net-(J1-Pad6)*
X146700000Y-91336600D02*
X145274800Y-91336600D01*
X144083000Y-91489000D02*
X145122400Y-91489000D01*
X145122400Y-91489000D02*
X145274800Y-91336600D01*
G04 #@! TO.N,Net-(J1-Pad7)*
X146700000Y-93876600D02*
X145274800Y-93876600D01*
X144083000Y-94029000D02*
X145122400Y-94029000D01*
X145122400Y-94029000D02*
X145274800Y-93876600D01*
G04 #@! TO.N,Net-(J1-Pad8)*
X146700000Y-96416600D02*
X145274800Y-96416600D01*
X144083000Y-96569000D02*
X145122400Y-96569000D01*
X145122400Y-96569000D02*
X145274800Y-96416600D01*
G04 #@! TD*
D15*
G04 #@! TO.N,GND*
G36*
X145355000Y-97423780D02*
X145765669Y-97698180D01*
X145710239Y-97714541D01*
X145284550Y-98058574D01*
X145022920Y-98539323D01*
X145007960Y-98613530D01*
X145130460Y-98829600D01*
X146573000Y-98829600D01*
X146573000Y-98809600D01*
X146827000Y-98809600D01*
X146827000Y-98829600D01*
X146847000Y-98829600D01*
X146847000Y-99083600D01*
X146827000Y-99083600D01*
X146827000Y-99103600D01*
X146573000Y-99103600D01*
X146573000Y-99083600D01*
X145130460Y-99083600D01*
X145007960Y-99299670D01*
X145022920Y-99373877D01*
X145212373Y-99722000D01*
X141070000Y-99722000D01*
X141070000Y-98066440D01*
X141633000Y-98066440D01*
X141758568Y-98041463D01*
X141793369Y-98125480D01*
X142084520Y-98416631D01*
X142464926Y-98574200D01*
X142876674Y-98574200D01*
X143257080Y-98416631D01*
X143548231Y-98125480D01*
X143577277Y-98055356D01*
X143633000Y-98066440D01*
X144533000Y-98066440D01*
X144780765Y-98017157D01*
X144990809Y-97876809D01*
X145131157Y-97666765D01*
X145180440Y-97419000D01*
X145180440Y-97332343D01*
X145197247Y-97329000D01*
X145197252Y-97329000D01*
X145280593Y-97312422D01*
X145355000Y-97423780D01*
X145355000Y-97423780D01*
G37*
X145355000Y-97423780D02*
X145765669Y-97698180D01*
X145710239Y-97714541D01*
X145284550Y-98058574D01*
X145022920Y-98539323D01*
X145007960Y-98613530D01*
X145130460Y-98829600D01*
X146573000Y-98829600D01*
X146573000Y-98809600D01*
X146827000Y-98809600D01*
X146827000Y-98829600D01*
X146847000Y-98829600D01*
X146847000Y-99083600D01*
X146827000Y-99083600D01*
X146827000Y-99103600D01*
X146573000Y-99103600D01*
X146573000Y-99083600D01*
X145130460Y-99083600D01*
X145007960Y-99299670D01*
X145022920Y-99373877D01*
X145212373Y-99722000D01*
X141070000Y-99722000D01*
X141070000Y-98066440D01*
X141633000Y-98066440D01*
X141758568Y-98041463D01*
X141793369Y-98125480D01*
X142084520Y-98416631D01*
X142464926Y-98574200D01*
X142876674Y-98574200D01*
X143257080Y-98416631D01*
X143548231Y-98125480D01*
X143577277Y-98055356D01*
X143633000Y-98066440D01*
X144533000Y-98066440D01*
X144780765Y-98017157D01*
X144990809Y-97876809D01*
X145131157Y-97666765D01*
X145180440Y-97419000D01*
X145180440Y-97332343D01*
X145197247Y-97329000D01*
X145197252Y-97329000D01*
X145280593Y-97312422D01*
X145355000Y-97423780D01*
G04 #@! TD*
M02*
