G04 #@! TF.GenerationSoftware,KiCad,Pcbnew,(5.0.1)-3*
G04 #@! TF.CreationDate,2019-08-12T13:29:34-05:00*
G04 #@! TF.ProjectId,monitorIO,6D6F6E69746F72494F2E6B696361645F,rev?*
G04 #@! TF.SameCoordinates,Original*
G04 #@! TF.FileFunction,Legend,Bot*
G04 #@! TF.FilePolarity,Positive*
%FSLAX46Y46*%
G04 Gerber Fmt 4.6, Leading zero omitted, Abs format (unit mm)*
G04 Created by KiCad (PCBNEW (5.0.1)-3) date 12/08/2019 13:29:34*
%MOMM*%
%LPD*%
G01*
G04 APERTURE LIST*
%ADD10C,0.304800*%
%ADD11C,0.120000*%
%ADD12C,0.203200*%
%ADD13C,0.125000*%
G04 APERTURE END LIST*
D10*
G04 #@! TO.C,J1*
X145430000Y-79906600D02*
X147970000Y-79906600D01*
X145430000Y-77366600D02*
X145430000Y-100226600D01*
X145430000Y-100226600D02*
X147970000Y-100226600D01*
X147970000Y-100226600D02*
X147970000Y-77366600D01*
X147970000Y-77366600D02*
X145430000Y-77366600D01*
D11*
G04 #@! TO.C,R1*
X141748000Y-79810000D02*
X143748000Y-79810000D01*
X143748000Y-77670000D02*
X141748000Y-77670000D01*
G04 #@! TO.C,R2*
X143748000Y-80210000D02*
X141748000Y-80210000D01*
X141748000Y-82350000D02*
X143748000Y-82350000D01*
G04 #@! TO.C,R3*
X141748000Y-84890000D02*
X143748000Y-84890000D01*
X143748000Y-82750000D02*
X141748000Y-82750000D01*
G04 #@! TO.C,R4*
X143748000Y-85290000D02*
X141748000Y-85290000D01*
X141748000Y-87430000D02*
X143748000Y-87430000D01*
G04 #@! TO.C,R5*
X141760000Y-90019000D02*
X143760000Y-90019000D01*
X143760000Y-87879000D02*
X141760000Y-87879000D01*
G04 #@! TO.C,R6*
X143760000Y-90419000D02*
X141760000Y-90419000D01*
X141760000Y-92559000D02*
X143760000Y-92559000D01*
G04 #@! TO.C,R7*
X141760000Y-95099000D02*
X143760000Y-95099000D01*
X143760000Y-92959000D02*
X141760000Y-92959000D01*
G04 #@! TO.C,R8*
X143760000Y-95499000D02*
X141760000Y-95499000D01*
X141760000Y-97639000D02*
X143760000Y-97639000D01*
G04 #@! TO.C,J1*
D12*
X144223619Y-98721333D02*
X144949333Y-98721333D01*
X145094476Y-98672952D01*
X145191238Y-98576190D01*
X145239619Y-98431047D01*
X145239619Y-98334285D01*
X145239619Y-99737333D02*
X145239619Y-99156761D01*
X145239619Y-99447047D02*
X144223619Y-99447047D01*
X144368761Y-99350285D01*
X144465523Y-99253523D01*
X144513904Y-99156761D01*
G04 #@! TO.C,R1*
D13*
X140075353Y-79116762D02*
X140242020Y-78878667D01*
X140361067Y-79116762D02*
X140361067Y-78616762D01*
X140170591Y-78616762D01*
X140122972Y-78640572D01*
X140099162Y-78664381D01*
X140075353Y-78712000D01*
X140075353Y-78783429D01*
X140099162Y-78831048D01*
X140122972Y-78854857D01*
X140170591Y-78878667D01*
X140361067Y-78878667D01*
X139599162Y-79116762D02*
X139884877Y-79116762D01*
X139742020Y-79116762D02*
X139742020Y-78616762D01*
X139789639Y-78688191D01*
X139837258Y-78735810D01*
X139884877Y-78759619D01*
G04 #@! TO.C,R2*
X140075353Y-81656762D02*
X140242020Y-81418667D01*
X140361067Y-81656762D02*
X140361067Y-81156762D01*
X140170591Y-81156762D01*
X140122972Y-81180572D01*
X140099162Y-81204381D01*
X140075353Y-81252000D01*
X140075353Y-81323429D01*
X140099162Y-81371048D01*
X140122972Y-81394857D01*
X140170591Y-81418667D01*
X140361067Y-81418667D01*
X139884877Y-81204381D02*
X139861067Y-81180572D01*
X139813448Y-81156762D01*
X139694400Y-81156762D01*
X139646781Y-81180572D01*
X139622972Y-81204381D01*
X139599162Y-81252000D01*
X139599162Y-81299619D01*
X139622972Y-81371048D01*
X139908686Y-81656762D01*
X139599162Y-81656762D01*
G04 #@! TO.C,R3*
X140149353Y-84196762D02*
X140316020Y-83958667D01*
X140435067Y-84196762D02*
X140435067Y-83696762D01*
X140244591Y-83696762D01*
X140196972Y-83720572D01*
X140173162Y-83744381D01*
X140149353Y-83792000D01*
X140149353Y-83863429D01*
X140173162Y-83911048D01*
X140196972Y-83934857D01*
X140244591Y-83958667D01*
X140435067Y-83958667D01*
X139982686Y-83696762D02*
X139673162Y-83696762D01*
X139839829Y-83887238D01*
X139768400Y-83887238D01*
X139720781Y-83911048D01*
X139696972Y-83934857D01*
X139673162Y-83982476D01*
X139673162Y-84101524D01*
X139696972Y-84149143D01*
X139720781Y-84172952D01*
X139768400Y-84196762D01*
X139911258Y-84196762D01*
X139958877Y-84172952D01*
X139982686Y-84149143D01*
G04 #@! TO.C,R4*
X140149353Y-86736762D02*
X140316020Y-86498667D01*
X140435067Y-86736762D02*
X140435067Y-86236762D01*
X140244591Y-86236762D01*
X140196972Y-86260572D01*
X140173162Y-86284381D01*
X140149353Y-86332000D01*
X140149353Y-86403429D01*
X140173162Y-86451048D01*
X140196972Y-86474857D01*
X140244591Y-86498667D01*
X140435067Y-86498667D01*
X139720781Y-86403429D02*
X139720781Y-86736762D01*
X139839829Y-86212952D02*
X139958877Y-86570095D01*
X139649353Y-86570095D01*
G04 #@! TO.C,R5*
X140087353Y-89325762D02*
X140254020Y-89087667D01*
X140373067Y-89325762D02*
X140373067Y-88825762D01*
X140182591Y-88825762D01*
X140134972Y-88849572D01*
X140111162Y-88873381D01*
X140087353Y-88921000D01*
X140087353Y-88992429D01*
X140111162Y-89040048D01*
X140134972Y-89063857D01*
X140182591Y-89087667D01*
X140373067Y-89087667D01*
X139634972Y-88825762D02*
X139873067Y-88825762D01*
X139896877Y-89063857D01*
X139873067Y-89040048D01*
X139825448Y-89016238D01*
X139706400Y-89016238D01*
X139658781Y-89040048D01*
X139634972Y-89063857D01*
X139611162Y-89111476D01*
X139611162Y-89230524D01*
X139634972Y-89278143D01*
X139658781Y-89301952D01*
X139706400Y-89325762D01*
X139825448Y-89325762D01*
X139873067Y-89301952D01*
X139896877Y-89278143D01*
G04 #@! TO.C,R6*
X140087353Y-91865762D02*
X140254020Y-91627667D01*
X140373067Y-91865762D02*
X140373067Y-91365762D01*
X140182591Y-91365762D01*
X140134972Y-91389572D01*
X140111162Y-91413381D01*
X140087353Y-91461000D01*
X140087353Y-91532429D01*
X140111162Y-91580048D01*
X140134972Y-91603857D01*
X140182591Y-91627667D01*
X140373067Y-91627667D01*
X139658781Y-91365762D02*
X139754020Y-91365762D01*
X139801639Y-91389572D01*
X139825448Y-91413381D01*
X139873067Y-91484810D01*
X139896877Y-91580048D01*
X139896877Y-91770524D01*
X139873067Y-91818143D01*
X139849258Y-91841952D01*
X139801639Y-91865762D01*
X139706400Y-91865762D01*
X139658781Y-91841952D01*
X139634972Y-91818143D01*
X139611162Y-91770524D01*
X139611162Y-91651476D01*
X139634972Y-91603857D01*
X139658781Y-91580048D01*
X139706400Y-91556238D01*
X139801639Y-91556238D01*
X139849258Y-91580048D01*
X139873067Y-91603857D01*
X139896877Y-91651476D01*
G04 #@! TO.C,R7*
X140087353Y-94405762D02*
X140254020Y-94167667D01*
X140373067Y-94405762D02*
X140373067Y-93905762D01*
X140182591Y-93905762D01*
X140134972Y-93929572D01*
X140111162Y-93953381D01*
X140087353Y-94001000D01*
X140087353Y-94072429D01*
X140111162Y-94120048D01*
X140134972Y-94143857D01*
X140182591Y-94167667D01*
X140373067Y-94167667D01*
X139920686Y-93905762D02*
X139587353Y-93905762D01*
X139801639Y-94405762D01*
G04 #@! TO.C,R8*
X140087353Y-96945762D02*
X140254020Y-96707667D01*
X140373067Y-96945762D02*
X140373067Y-96445762D01*
X140182591Y-96445762D01*
X140134972Y-96469572D01*
X140111162Y-96493381D01*
X140087353Y-96541000D01*
X140087353Y-96612429D01*
X140111162Y-96660048D01*
X140134972Y-96683857D01*
X140182591Y-96707667D01*
X140373067Y-96707667D01*
X139801639Y-96660048D02*
X139849258Y-96636238D01*
X139873067Y-96612429D01*
X139896877Y-96564810D01*
X139896877Y-96541000D01*
X139873067Y-96493381D01*
X139849258Y-96469572D01*
X139801639Y-96445762D01*
X139706400Y-96445762D01*
X139658781Y-96469572D01*
X139634972Y-96493381D01*
X139611162Y-96541000D01*
X139611162Y-96564810D01*
X139634972Y-96612429D01*
X139658781Y-96636238D01*
X139706400Y-96660048D01*
X139801639Y-96660048D01*
X139849258Y-96683857D01*
X139873067Y-96707667D01*
X139896877Y-96755286D01*
X139896877Y-96850524D01*
X139873067Y-96898143D01*
X139849258Y-96921952D01*
X139801639Y-96945762D01*
X139706400Y-96945762D01*
X139658781Y-96921952D01*
X139634972Y-96898143D01*
X139611162Y-96850524D01*
X139611162Y-96755286D01*
X139634972Y-96707667D01*
X139658781Y-96683857D01*
X139706400Y-96660048D01*
G04 #@! TD*
M02*
