%FSLAX45Y45*%
G04 Gerber Fmt 4.5, Leading zero omitted, Abs format (unit mm)*
G04 Created by KiCad (PCBNEW (5.0.1)-3) date 03/09/2019 13:29:26*
%MOMM*%
%LPD*%
G01*
G04 APERTURE LIST*
%ADD10C,0.150000*%
%ADD11C,0.200000*%
%ADD12C,0.300000*%
G04 APERTURE END LIST*
D10*
X14084300Y-7721600D02*
X14744700Y-7721600D01*
D11*
X14097000Y-10045700D02*
X14757400Y-10045700D01*
X14033500Y-9994900D02*
X14033500Y-7785100D01*
D10*
X14035017Y-7784721D02*
G75*
G02X14084300Y-7721600I49283J12321D01*
G01*
X14096621Y-10044183D02*
G75*
G02X14033500Y-9994900I-12321J49283D01*
G01*
X14808200Y-9982200D02*
G75*
G02X14758917Y-10045321I-49283J-12321D01*
G01*
X14745079Y-7721600D02*
G75*
G02X14808200Y-7770883I12321J-49283D01*
G01*
D11*
X14808200Y-7772400D02*
X14808200Y-9982200D01*
D11*
X14222080Y-9023530D02*
X14262080Y-9063530D01*
X14262080Y-9023530D02*
X14222080Y-9063530D01*
X14242100Y-7955440D02*
X14282100Y-7995440D01*
X14282100Y-7955440D02*
X14242100Y-7995440D01*
X14242100Y-8260720D02*
X14282100Y-8300720D01*
X14282100Y-8260720D02*
X14242100Y-8300720D01*
X14242700Y-8717360D02*
X14282700Y-8757360D01*
X14282700Y-8717360D02*
X14242700Y-8757360D01*
X14243300Y-9479060D02*
X14283300Y-9519060D01*
X14283300Y-9479060D02*
X14243300Y-9519060D01*
X14247080Y-9733920D02*
X14287080Y-9773920D01*
X14287080Y-9733920D02*
X14247080Y-9773920D01*
X14486800Y-8992440D02*
X14526800Y-9032440D01*
X14526800Y-8992440D02*
X14486800Y-9032440D01*
X14494600Y-8209620D02*
X14534600Y-8249620D01*
X14534600Y-8209620D02*
X14494600Y-8249620D01*
X14720038Y-7863660D02*
G75*
G03X14720038Y-7863660I-50038J0D01*
G01*
X14720038Y-8117660D02*
G75*
G03X14720038Y-8117660I-50038J0D01*
G01*
X14720038Y-8371660D02*
G75*
G03X14720038Y-8371660I-50038J0D01*
G01*
X14720038Y-8625660D02*
G75*
G03X14720038Y-8625660I-50038J0D01*
G01*
X14720038Y-8879660D02*
G75*
G03X14720038Y-8879660I-50038J0D01*
G01*
X14720038Y-9133660D02*
G75*
G03X14720038Y-9133660I-50038J0D01*
G01*
X14720038Y-9387660D02*
G75*
G03X14720038Y-9387660I-50038J0D01*
G01*
X14720038Y-9641660D02*
G75*
G03X14720038Y-9641660I-50038J0D01*
G01*
X14720038Y-9895660D02*
G75*
G03X14720038Y-9895660I-50038J0D01*
G01*
D12*
X14309928Y-10521414D02*
X14309928Y-10221414D01*
X14381357Y-10221414D01*
X14424214Y-10235700D01*
X14452786Y-10264272D01*
X14467071Y-10292843D01*
X14481357Y-10349986D01*
X14481357Y-10392843D01*
X14467071Y-10449986D01*
X14452786Y-10478557D01*
X14424214Y-10507129D01*
X14381357Y-10521414D01*
X14309928Y-10521414D01*
X14609928Y-10521414D02*
X14609928Y-10321414D01*
X14609928Y-10378557D02*
X14624214Y-10349986D01*
X14638500Y-10335700D01*
X14667071Y-10321414D01*
X14695643Y-10321414D01*
X14795643Y-10521414D02*
X14795643Y-10321414D01*
X14795643Y-10221414D02*
X14781357Y-10235700D01*
X14795643Y-10249986D01*
X14809928Y-10235700D01*
X14795643Y-10221414D01*
X14795643Y-10249986D01*
X14981357Y-10521414D02*
X14952786Y-10507129D01*
X14938500Y-10478557D01*
X14938500Y-10221414D01*
X15138500Y-10521414D02*
X15109928Y-10507129D01*
X15095643Y-10478557D01*
X15095643Y-10221414D01*
X15481357Y-10521414D02*
X15481357Y-10221414D01*
X15581357Y-10435700D01*
X15681357Y-10221414D01*
X15681357Y-10521414D01*
X15952786Y-10521414D02*
X15952786Y-10364272D01*
X15938500Y-10335700D01*
X15909928Y-10321414D01*
X15852786Y-10321414D01*
X15824214Y-10335700D01*
X15952786Y-10507129D02*
X15924214Y-10521414D01*
X15852786Y-10521414D01*
X15824214Y-10507129D01*
X15809928Y-10478557D01*
X15809928Y-10449986D01*
X15824214Y-10421414D01*
X15852786Y-10407129D01*
X15924214Y-10407129D01*
X15952786Y-10392843D01*
X16095643Y-10321414D02*
X16095643Y-10621414D01*
X16095643Y-10335700D02*
X16124214Y-10321414D01*
X16181357Y-10321414D01*
X16209928Y-10335700D01*
X16224214Y-10349986D01*
X16238500Y-10378557D01*
X16238500Y-10464272D01*
X16224214Y-10492843D01*
X16209928Y-10507129D01*
X16181357Y-10521414D01*
X16124214Y-10521414D01*
X16095643Y-10507129D01*
X16367071Y-10492843D02*
X16381357Y-10507129D01*
X16367071Y-10521414D01*
X16352786Y-10507129D01*
X16367071Y-10492843D01*
X16367071Y-10521414D01*
X16367071Y-10335700D02*
X16381357Y-10349986D01*
X16367071Y-10364272D01*
X16352786Y-10349986D01*
X16367071Y-10335700D01*
X16367071Y-10364272D01*
X13983500Y-10995700D02*
X14023500Y-11035700D01*
X14023500Y-10995700D02*
X13983500Y-11035700D01*
X14367071Y-10851414D02*
X14395643Y-10851414D01*
X14424214Y-10865700D01*
X14438500Y-10879986D01*
X14452786Y-10908557D01*
X14467071Y-10965700D01*
X14467071Y-11037129D01*
X14452786Y-11094272D01*
X14438500Y-11122843D01*
X14424214Y-11137129D01*
X14395643Y-11151414D01*
X14367071Y-11151414D01*
X14338500Y-11137129D01*
X14324214Y-11122843D01*
X14309928Y-11094272D01*
X14295643Y-11037129D01*
X14295643Y-10965700D01*
X14309928Y-10908557D01*
X14324214Y-10879986D01*
X14338500Y-10865700D01*
X14367071Y-10851414D01*
X14595643Y-11122843D02*
X14609928Y-11137129D01*
X14595643Y-11151414D01*
X14581357Y-11137129D01*
X14595643Y-11122843D01*
X14595643Y-11151414D01*
X14867071Y-10951414D02*
X14867071Y-11151414D01*
X14795643Y-10837129D02*
X14724214Y-11051414D01*
X14909928Y-11051414D01*
X15081357Y-10851414D02*
X15109928Y-10851414D01*
X15138500Y-10865700D01*
X15152786Y-10879986D01*
X15167071Y-10908557D01*
X15181357Y-10965700D01*
X15181357Y-11037129D01*
X15167071Y-11094272D01*
X15152786Y-11122843D01*
X15138500Y-11137129D01*
X15109928Y-11151414D01*
X15081357Y-11151414D01*
X15052786Y-11137129D01*
X15038500Y-11122843D01*
X15024214Y-11094272D01*
X15009928Y-11037129D01*
X15009928Y-10965700D01*
X15024214Y-10908557D01*
X15038500Y-10879986D01*
X15052786Y-10865700D01*
X15081357Y-10851414D01*
X15309928Y-11151414D02*
X15309928Y-10951414D01*
X15309928Y-10979986D02*
X15324214Y-10965700D01*
X15352786Y-10951414D01*
X15395643Y-10951414D01*
X15424214Y-10965700D01*
X15438500Y-10994272D01*
X15438500Y-11151414D01*
X15438500Y-10994272D02*
X15452786Y-10965700D01*
X15481357Y-10951414D01*
X15524214Y-10951414D01*
X15552786Y-10965700D01*
X15567071Y-10994272D01*
X15567071Y-11151414D01*
X15709928Y-11151414D02*
X15709928Y-10951414D01*
X15709928Y-10979986D02*
X15724214Y-10965700D01*
X15752786Y-10951414D01*
X15795643Y-10951414D01*
X15824214Y-10965700D01*
X15838500Y-10994272D01*
X15838500Y-11151414D01*
X15838500Y-10994272D02*
X15852786Y-10965700D01*
X15881357Y-10951414D01*
X15924214Y-10951414D01*
X15952786Y-10965700D01*
X15967071Y-10994272D01*
X15967071Y-11151414D01*
X16552786Y-10837129D02*
X16295643Y-11222843D01*
X16938500Y-10851414D02*
X16967071Y-10851414D01*
X16995643Y-10865700D01*
X17009928Y-10879986D01*
X17024214Y-10908557D01*
X17038500Y-10965700D01*
X17038500Y-11037129D01*
X17024214Y-11094272D01*
X17009928Y-11122843D01*
X16995643Y-11137129D01*
X16967071Y-11151414D01*
X16938500Y-11151414D01*
X16909928Y-11137129D01*
X16895643Y-11122843D01*
X16881357Y-11094272D01*
X16867071Y-11037129D01*
X16867071Y-10965700D01*
X16881357Y-10908557D01*
X16895643Y-10879986D01*
X16909928Y-10865700D01*
X16938500Y-10851414D01*
X17167071Y-11122843D02*
X17181357Y-11137129D01*
X17167071Y-11151414D01*
X17152786Y-11137129D01*
X17167071Y-11122843D01*
X17167071Y-11151414D01*
X17367071Y-10851414D02*
X17395643Y-10851414D01*
X17424214Y-10865700D01*
X17438500Y-10879986D01*
X17452786Y-10908557D01*
X17467071Y-10965700D01*
X17467071Y-11037129D01*
X17452786Y-11094272D01*
X17438500Y-11122843D01*
X17424214Y-11137129D01*
X17395643Y-11151414D01*
X17367071Y-11151414D01*
X17338500Y-11137129D01*
X17324214Y-11122843D01*
X17309928Y-11094272D01*
X17295643Y-11037129D01*
X17295643Y-10965700D01*
X17309928Y-10908557D01*
X17324214Y-10879986D01*
X17338500Y-10865700D01*
X17367071Y-10851414D01*
X17752786Y-11151414D02*
X17581357Y-11151414D01*
X17667071Y-11151414D02*
X17667071Y-10851414D01*
X17638500Y-10894272D01*
X17609928Y-10922843D01*
X17581357Y-10937129D01*
X18009928Y-10851414D02*
X17952786Y-10851414D01*
X17924214Y-10865700D01*
X17909928Y-10879986D01*
X17881357Y-10922843D01*
X17867071Y-10979986D01*
X17867071Y-11094272D01*
X17881357Y-11122843D01*
X17895643Y-11137129D01*
X17924214Y-11151414D01*
X17981357Y-11151414D01*
X18009928Y-11137129D01*
X18024214Y-11122843D01*
X18038500Y-11094272D01*
X18038500Y-11022843D01*
X18024214Y-10994272D01*
X18009928Y-10979986D01*
X17981357Y-10965700D01*
X17924214Y-10965700D01*
X17895643Y-10979986D01*
X17881357Y-10994272D01*
X17867071Y-11022843D01*
X18152786Y-10851414D02*
X18152786Y-10908557D01*
X18267071Y-10851414D02*
X18267071Y-10908557D01*
X18709928Y-11265700D02*
X18695643Y-11251414D01*
X18667071Y-11208557D01*
X18652786Y-11179986D01*
X18638500Y-11137129D01*
X18624214Y-11065700D01*
X18624214Y-11008557D01*
X18638500Y-10937129D01*
X18652786Y-10894272D01*
X18667071Y-10865700D01*
X18695643Y-10822843D01*
X18709928Y-10808557D01*
X18867071Y-10979986D02*
X18838500Y-10965700D01*
X18824214Y-10951414D01*
X18809928Y-10922843D01*
X18809928Y-10908557D01*
X18824214Y-10879986D01*
X18838500Y-10865700D01*
X18867071Y-10851414D01*
X18924214Y-10851414D01*
X18952786Y-10865700D01*
X18967071Y-10879986D01*
X18981357Y-10908557D01*
X18981357Y-10922843D01*
X18967071Y-10951414D01*
X18952786Y-10965700D01*
X18924214Y-10979986D01*
X18867071Y-10979986D01*
X18838500Y-10994272D01*
X18824214Y-11008557D01*
X18809928Y-11037129D01*
X18809928Y-11094272D01*
X18824214Y-11122843D01*
X18838500Y-11137129D01*
X18867071Y-11151414D01*
X18924214Y-11151414D01*
X18952786Y-11137129D01*
X18967071Y-11122843D01*
X18981357Y-11094272D01*
X18981357Y-11037129D01*
X18967071Y-11008557D01*
X18952786Y-10994272D01*
X18924214Y-10979986D01*
X19338500Y-11151414D02*
X19338500Y-10851414D01*
X19467071Y-11151414D02*
X19467071Y-10994272D01*
X19452786Y-10965700D01*
X19424214Y-10951414D01*
X19381357Y-10951414D01*
X19352786Y-10965700D01*
X19338500Y-10979986D01*
X19652786Y-11151414D02*
X19624214Y-11137129D01*
X19609928Y-11122843D01*
X19595643Y-11094272D01*
X19595643Y-11008557D01*
X19609928Y-10979986D01*
X19624214Y-10965700D01*
X19652786Y-10951414D01*
X19695643Y-10951414D01*
X19724214Y-10965700D01*
X19738500Y-10979986D01*
X19752786Y-11008557D01*
X19752786Y-11094272D01*
X19738500Y-11122843D01*
X19724214Y-11137129D01*
X19695643Y-11151414D01*
X19652786Y-11151414D01*
X19924214Y-11151414D02*
X19895643Y-11137129D01*
X19881357Y-11108557D01*
X19881357Y-10851414D01*
X20152786Y-11137129D02*
X20124214Y-11151414D01*
X20067071Y-11151414D01*
X20038500Y-11137129D01*
X20024214Y-11108557D01*
X20024214Y-10994272D01*
X20038500Y-10965700D01*
X20067071Y-10951414D01*
X20124214Y-10951414D01*
X20152786Y-10965700D01*
X20167071Y-10994272D01*
X20167071Y-11022843D01*
X20024214Y-11051414D01*
X20281357Y-11137129D02*
X20309928Y-11151414D01*
X20367071Y-11151414D01*
X20395643Y-11137129D01*
X20409928Y-11108557D01*
X20409928Y-11094272D01*
X20395643Y-11065700D01*
X20367071Y-11051414D01*
X20324214Y-11051414D01*
X20295643Y-11037129D01*
X20281357Y-11008557D01*
X20281357Y-10994272D01*
X20295643Y-10965700D01*
X20324214Y-10951414D01*
X20367071Y-10951414D01*
X20395643Y-10965700D01*
X20509928Y-11265700D02*
X20524214Y-11251414D01*
X20552786Y-11208557D01*
X20567071Y-11179986D01*
X20581357Y-11137129D01*
X20595643Y-11065700D01*
X20595643Y-11008557D01*
X20581357Y-10937129D01*
X20567071Y-10894272D01*
X20552786Y-10865700D01*
X20524214Y-10822843D01*
X20509928Y-10808557D01*
X14023500Y-11411700D02*
G75*
G03X14023500Y-11411700I-50038J0D01*
G01*
X14467071Y-11547414D02*
X14295643Y-11547414D01*
X14381357Y-11547414D02*
X14381357Y-11247414D01*
X14352786Y-11290271D01*
X14324214Y-11318843D01*
X14295643Y-11333129D01*
X14595643Y-11518843D02*
X14609928Y-11533129D01*
X14595643Y-11547414D01*
X14581357Y-11533129D01*
X14595643Y-11518843D01*
X14595643Y-11547414D01*
X14795643Y-11247414D02*
X14824214Y-11247414D01*
X14852786Y-11261700D01*
X14867071Y-11275986D01*
X14881357Y-11304557D01*
X14895643Y-11361700D01*
X14895643Y-11433129D01*
X14881357Y-11490271D01*
X14867071Y-11518843D01*
X14852786Y-11533129D01*
X14824214Y-11547414D01*
X14795643Y-11547414D01*
X14767071Y-11533129D01*
X14752786Y-11518843D01*
X14738500Y-11490271D01*
X14724214Y-11433129D01*
X14724214Y-11361700D01*
X14738500Y-11304557D01*
X14752786Y-11275986D01*
X14767071Y-11261700D01*
X14795643Y-11247414D01*
X15081357Y-11247414D02*
X15109928Y-11247414D01*
X15138500Y-11261700D01*
X15152786Y-11275986D01*
X15167071Y-11304557D01*
X15181357Y-11361700D01*
X15181357Y-11433129D01*
X15167071Y-11490271D01*
X15152786Y-11518843D01*
X15138500Y-11533129D01*
X15109928Y-11547414D01*
X15081357Y-11547414D01*
X15052786Y-11533129D01*
X15038500Y-11518843D01*
X15024214Y-11490271D01*
X15009928Y-11433129D01*
X15009928Y-11361700D01*
X15024214Y-11304557D01*
X15038500Y-11275986D01*
X15052786Y-11261700D01*
X15081357Y-11247414D01*
X15309928Y-11547414D02*
X15309928Y-11347414D01*
X15309928Y-11375986D02*
X15324214Y-11361700D01*
X15352786Y-11347414D01*
X15395643Y-11347414D01*
X15424214Y-11361700D01*
X15438500Y-11390271D01*
X15438500Y-11547414D01*
X15438500Y-11390271D02*
X15452786Y-11361700D01*
X15481357Y-11347414D01*
X15524214Y-11347414D01*
X15552786Y-11361700D01*
X15567071Y-11390271D01*
X15567071Y-11547414D01*
X15709928Y-11547414D02*
X15709928Y-11347414D01*
X15709928Y-11375986D02*
X15724214Y-11361700D01*
X15752786Y-11347414D01*
X15795643Y-11347414D01*
X15824214Y-11361700D01*
X15838500Y-11390271D01*
X15838500Y-11547414D01*
X15838500Y-11390271D02*
X15852786Y-11361700D01*
X15881357Y-11347414D01*
X15924214Y-11347414D01*
X15952786Y-11361700D01*
X15967071Y-11390271D01*
X15967071Y-11547414D01*
X16552786Y-11233129D02*
X16295643Y-11618843D01*
X16938500Y-11247414D02*
X16967071Y-11247414D01*
X16995643Y-11261700D01*
X17009928Y-11275986D01*
X17024214Y-11304557D01*
X17038500Y-11361700D01*
X17038500Y-11433129D01*
X17024214Y-11490271D01*
X17009928Y-11518843D01*
X16995643Y-11533129D01*
X16967071Y-11547414D01*
X16938500Y-11547414D01*
X16909928Y-11533129D01*
X16895643Y-11518843D01*
X16881357Y-11490271D01*
X16867071Y-11433129D01*
X16867071Y-11361700D01*
X16881357Y-11304557D01*
X16895643Y-11275986D01*
X16909928Y-11261700D01*
X16938500Y-11247414D01*
X17167071Y-11518843D02*
X17181357Y-11533129D01*
X17167071Y-11547414D01*
X17152786Y-11533129D01*
X17167071Y-11518843D01*
X17167071Y-11547414D01*
X17367071Y-11247414D02*
X17395643Y-11247414D01*
X17424214Y-11261700D01*
X17438500Y-11275986D01*
X17452786Y-11304557D01*
X17467071Y-11361700D01*
X17467071Y-11433129D01*
X17452786Y-11490271D01*
X17438500Y-11518843D01*
X17424214Y-11533129D01*
X17395643Y-11547414D01*
X17367071Y-11547414D01*
X17338500Y-11533129D01*
X17324214Y-11518843D01*
X17309928Y-11490271D01*
X17295643Y-11433129D01*
X17295643Y-11361700D01*
X17309928Y-11304557D01*
X17324214Y-11275986D01*
X17338500Y-11261700D01*
X17367071Y-11247414D01*
X17567071Y-11247414D02*
X17752786Y-11247414D01*
X17652786Y-11361700D01*
X17695643Y-11361700D01*
X17724214Y-11375986D01*
X17738500Y-11390271D01*
X17752786Y-11418843D01*
X17752786Y-11490271D01*
X17738500Y-11518843D01*
X17724214Y-11533129D01*
X17695643Y-11547414D01*
X17609928Y-11547414D01*
X17581357Y-11533129D01*
X17567071Y-11518843D01*
X17895643Y-11547414D02*
X17952786Y-11547414D01*
X17981357Y-11533129D01*
X17995643Y-11518843D01*
X18024214Y-11475986D01*
X18038500Y-11418843D01*
X18038500Y-11304557D01*
X18024214Y-11275986D01*
X18009928Y-11261700D01*
X17981357Y-11247414D01*
X17924214Y-11247414D01*
X17895643Y-11261700D01*
X17881357Y-11275986D01*
X17867071Y-11304557D01*
X17867071Y-11375986D01*
X17881357Y-11404557D01*
X17895643Y-11418843D01*
X17924214Y-11433129D01*
X17981357Y-11433129D01*
X18009928Y-11418843D01*
X18024214Y-11404557D01*
X18038500Y-11375986D01*
X18152786Y-11247414D02*
X18152786Y-11304557D01*
X18267071Y-11247414D02*
X18267071Y-11304557D01*
X18709928Y-11661700D02*
X18695643Y-11647414D01*
X18667071Y-11604557D01*
X18652786Y-11575986D01*
X18638500Y-11533129D01*
X18624214Y-11461700D01*
X18624214Y-11404557D01*
X18638500Y-11333129D01*
X18652786Y-11290271D01*
X18667071Y-11261700D01*
X18695643Y-11218843D01*
X18709928Y-11204557D01*
X18838500Y-11547414D02*
X18895643Y-11547414D01*
X18924214Y-11533129D01*
X18938500Y-11518843D01*
X18967071Y-11475986D01*
X18981357Y-11418843D01*
X18981357Y-11304557D01*
X18967071Y-11275986D01*
X18952786Y-11261700D01*
X18924214Y-11247414D01*
X18867071Y-11247414D01*
X18838500Y-11261700D01*
X18824214Y-11275986D01*
X18809928Y-11304557D01*
X18809928Y-11375986D01*
X18824214Y-11404557D01*
X18838500Y-11418843D01*
X18867071Y-11433129D01*
X18924214Y-11433129D01*
X18952786Y-11418843D01*
X18967071Y-11404557D01*
X18981357Y-11375986D01*
X19338500Y-11547414D02*
X19338500Y-11247414D01*
X19467071Y-11547414D02*
X19467071Y-11390271D01*
X19452786Y-11361700D01*
X19424214Y-11347414D01*
X19381357Y-11347414D01*
X19352786Y-11361700D01*
X19338500Y-11375986D01*
X19652786Y-11547414D02*
X19624214Y-11533129D01*
X19609928Y-11518843D01*
X19595643Y-11490271D01*
X19595643Y-11404557D01*
X19609928Y-11375986D01*
X19624214Y-11361700D01*
X19652786Y-11347414D01*
X19695643Y-11347414D01*
X19724214Y-11361700D01*
X19738500Y-11375986D01*
X19752786Y-11404557D01*
X19752786Y-11490271D01*
X19738500Y-11518843D01*
X19724214Y-11533129D01*
X19695643Y-11547414D01*
X19652786Y-11547414D01*
X19924214Y-11547414D02*
X19895643Y-11533129D01*
X19881357Y-11504557D01*
X19881357Y-11247414D01*
X20152786Y-11533129D02*
X20124214Y-11547414D01*
X20067071Y-11547414D01*
X20038500Y-11533129D01*
X20024214Y-11504557D01*
X20024214Y-11390271D01*
X20038500Y-11361700D01*
X20067071Y-11347414D01*
X20124214Y-11347414D01*
X20152786Y-11361700D01*
X20167071Y-11390271D01*
X20167071Y-11418843D01*
X20024214Y-11447414D01*
X20281357Y-11533129D02*
X20309928Y-11547414D01*
X20367071Y-11547414D01*
X20395643Y-11533129D01*
X20409928Y-11504557D01*
X20409928Y-11490271D01*
X20395643Y-11461700D01*
X20367071Y-11447414D01*
X20324214Y-11447414D01*
X20295643Y-11433129D01*
X20281357Y-11404557D01*
X20281357Y-11390271D01*
X20295643Y-11361700D01*
X20324214Y-11347414D01*
X20367071Y-11347414D01*
X20395643Y-11361700D01*
X20509928Y-11661700D02*
X20524214Y-11647414D01*
X20552786Y-11604557D01*
X20567071Y-11575986D01*
X20581357Y-11533129D01*
X20595643Y-11461700D01*
X20595643Y-11404557D01*
X20581357Y-11333129D01*
X20567071Y-11290271D01*
X20552786Y-11261700D01*
X20524214Y-11218843D01*
X20509928Y-11204557D01*
M02*
