G04 #@! TF.GenerationSoftware,KiCad,Pcbnew,(5.0.1)-3*
G04 #@! TF.CreationDate,2019-08-12T13:29:34-05:00*
G04 #@! TF.ProjectId,monitorIO,6D6F6E69746F72494F2E6B696361645F,rev?*
G04 #@! TF.SameCoordinates,Original*
G04 #@! TF.FileFunction,Legend,Top*
G04 #@! TF.FilePolarity,Positive*
%FSLAX46Y46*%
G04 Gerber Fmt 4.6, Leading zero omitted, Abs format (unit mm)*
G04 Created by KiCad (PCBNEW (5.0.1)-3) date 12/08/2019 13:29:34*
%MOMM*%
%LPD*%
G01*
G04 APERTURE LIST*
%ADD10C,0.300000*%
%ADD11C,0.120000*%
%ADD12C,0.125000*%
G04 APERTURE END LIST*
D10*
X142113142Y-98310000D02*
X141970285Y-98238571D01*
X141756000Y-98238571D01*
X141541714Y-98310000D01*
X141398857Y-98452857D01*
X141327428Y-98595714D01*
X141256000Y-98881428D01*
X141256000Y-99095714D01*
X141327428Y-99381428D01*
X141398857Y-99524285D01*
X141541714Y-99667142D01*
X141756000Y-99738571D01*
X141898857Y-99738571D01*
X142113142Y-99667142D01*
X142184571Y-99595714D01*
X142184571Y-99095714D01*
X141898857Y-99095714D01*
X142827428Y-99738571D02*
X142827428Y-98238571D01*
X143684571Y-99738571D01*
X143684571Y-98238571D01*
X144398857Y-99738571D02*
X144398857Y-98238571D01*
X144756000Y-98238571D01*
X144970285Y-98310000D01*
X145113142Y-98452857D01*
X145184571Y-98595714D01*
X145256000Y-98881428D01*
X145256000Y-99095714D01*
X145184571Y-99381428D01*
X145113142Y-99524285D01*
X144970285Y-99667142D01*
X144756000Y-99738571D01*
X144398857Y-99738571D01*
X142910857Y-97198571D02*
X142910857Y-95698571D01*
X143482285Y-95698571D01*
X143625142Y-95770000D01*
X143696571Y-95841428D01*
X143768000Y-95984285D01*
X143768000Y-96198571D01*
X143696571Y-96341428D01*
X143625142Y-96412857D01*
X143482285Y-96484285D01*
X142910857Y-96484285D01*
X144268000Y-95698571D02*
X145268000Y-95698571D01*
X144625142Y-97198571D01*
X142910857Y-94658571D02*
X142910857Y-93158571D01*
X143482285Y-93158571D01*
X143625142Y-93230000D01*
X143696571Y-93301428D01*
X143768000Y-93444285D01*
X143768000Y-93658571D01*
X143696571Y-93801428D01*
X143625142Y-93872857D01*
X143482285Y-93944285D01*
X142910857Y-93944285D01*
X145053714Y-93158571D02*
X144768000Y-93158571D01*
X144625142Y-93230000D01*
X144553714Y-93301428D01*
X144410857Y-93515714D01*
X144339428Y-93801428D01*
X144339428Y-94372857D01*
X144410857Y-94515714D01*
X144482285Y-94587142D01*
X144625142Y-94658571D01*
X144910857Y-94658571D01*
X145053714Y-94587142D01*
X145125142Y-94515714D01*
X145196571Y-94372857D01*
X145196571Y-94015714D01*
X145125142Y-93872857D01*
X145053714Y-93801428D01*
X144910857Y-93730000D01*
X144625142Y-93730000D01*
X144482285Y-93801428D01*
X144410857Y-93872857D01*
X144339428Y-94015714D01*
X142910857Y-92118571D02*
X142910857Y-90618571D01*
X143482285Y-90618571D01*
X143625142Y-90690000D01*
X143696571Y-90761428D01*
X143768000Y-90904285D01*
X143768000Y-91118571D01*
X143696571Y-91261428D01*
X143625142Y-91332857D01*
X143482285Y-91404285D01*
X142910857Y-91404285D01*
X145125142Y-90618571D02*
X144410857Y-90618571D01*
X144339428Y-91332857D01*
X144410857Y-91261428D01*
X144553714Y-91190000D01*
X144910857Y-91190000D01*
X145053714Y-91261428D01*
X145125142Y-91332857D01*
X145196571Y-91475714D01*
X145196571Y-91832857D01*
X145125142Y-91975714D01*
X145053714Y-92047142D01*
X144910857Y-92118571D01*
X144553714Y-92118571D01*
X144410857Y-92047142D01*
X144339428Y-91975714D01*
X142910857Y-89578571D02*
X142910857Y-88078571D01*
X143482285Y-88078571D01*
X143625142Y-88150000D01*
X143696571Y-88221428D01*
X143768000Y-88364285D01*
X143768000Y-88578571D01*
X143696571Y-88721428D01*
X143625142Y-88792857D01*
X143482285Y-88864285D01*
X142910857Y-88864285D01*
X145053714Y-88578571D02*
X145053714Y-89578571D01*
X144696571Y-88007142D02*
X144339428Y-89078571D01*
X145268000Y-89078571D01*
X142910857Y-87038571D02*
X142910857Y-85538571D01*
X143482285Y-85538571D01*
X143625142Y-85610000D01*
X143696571Y-85681428D01*
X143768000Y-85824285D01*
X143768000Y-86038571D01*
X143696571Y-86181428D01*
X143625142Y-86252857D01*
X143482285Y-86324285D01*
X142910857Y-86324285D01*
X144268000Y-85538571D02*
X145196571Y-85538571D01*
X144696571Y-86110000D01*
X144910857Y-86110000D01*
X145053714Y-86181428D01*
X145125142Y-86252857D01*
X145196571Y-86395714D01*
X145196571Y-86752857D01*
X145125142Y-86895714D01*
X145053714Y-86967142D01*
X144910857Y-87038571D01*
X144482285Y-87038571D01*
X144339428Y-86967142D01*
X144268000Y-86895714D01*
X142910857Y-84498571D02*
X142910857Y-82998571D01*
X143482285Y-82998571D01*
X143625142Y-83070000D01*
X143696571Y-83141428D01*
X143768000Y-83284285D01*
X143768000Y-83498571D01*
X143696571Y-83641428D01*
X143625142Y-83712857D01*
X143482285Y-83784285D01*
X142910857Y-83784285D01*
X144339428Y-83141428D02*
X144410857Y-83070000D01*
X144553714Y-82998571D01*
X144910857Y-82998571D01*
X145053714Y-83070000D01*
X145125142Y-83141428D01*
X145196571Y-83284285D01*
X145196571Y-83427142D01*
X145125142Y-83641428D01*
X144268000Y-84498571D01*
X145196571Y-84498571D01*
X142910857Y-81958571D02*
X142910857Y-80458571D01*
X143482285Y-80458571D01*
X143625142Y-80530000D01*
X143696571Y-80601428D01*
X143768000Y-80744285D01*
X143768000Y-80958571D01*
X143696571Y-81101428D01*
X143625142Y-81172857D01*
X143482285Y-81244285D01*
X142910857Y-81244285D01*
X145196571Y-81958571D02*
X144339428Y-81958571D01*
X144768000Y-81958571D02*
X144768000Y-80458571D01*
X144625142Y-80672857D01*
X144482285Y-80815714D01*
X144339428Y-80887142D01*
X142910857Y-79418571D02*
X142910857Y-77918571D01*
X143482285Y-77918571D01*
X143625142Y-77990000D01*
X143696571Y-78061428D01*
X143768000Y-78204285D01*
X143768000Y-78418571D01*
X143696571Y-78561428D01*
X143625142Y-78632857D01*
X143482285Y-78704285D01*
X142910857Y-78704285D01*
X144696571Y-77918571D02*
X144839428Y-77918571D01*
X144982285Y-77990000D01*
X145053714Y-78061428D01*
X145125142Y-78204285D01*
X145196571Y-78490000D01*
X145196571Y-78847142D01*
X145125142Y-79132857D01*
X145053714Y-79275714D01*
X144982285Y-79347142D01*
X144839428Y-79418571D01*
X144696571Y-79418571D01*
X144553714Y-79347142D01*
X144482285Y-79275714D01*
X144410857Y-79132857D01*
X144339428Y-78847142D01*
X144339428Y-78490000D01*
X144410857Y-78204285D01*
X144482285Y-78061428D01*
X144553714Y-77990000D01*
X144696571Y-77918571D01*
D11*
G04 #@! TO.C,D1*
X139289000Y-78240000D02*
X139289000Y-79240000D01*
X139289000Y-79240000D02*
X141389000Y-79240000D01*
X139289000Y-78240000D02*
X141389000Y-78240000D01*
G04 #@! TO.C,D2*
X139289000Y-80780000D02*
X141389000Y-80780000D01*
X139289000Y-81780000D02*
X141389000Y-81780000D01*
X139289000Y-80780000D02*
X139289000Y-81780000D01*
G04 #@! TO.C,D3*
X139289000Y-83320000D02*
X139289000Y-84320000D01*
X139289000Y-84320000D02*
X141389000Y-84320000D01*
X139289000Y-83320000D02*
X141389000Y-83320000D01*
G04 #@! TO.C,D4*
X139289000Y-85860000D02*
X141389000Y-85860000D01*
X139289000Y-86860000D02*
X141389000Y-86860000D01*
X139289000Y-85860000D02*
X139289000Y-86860000D01*
G04 #@! TO.C,D5*
X139289000Y-88400000D02*
X139289000Y-89400000D01*
X139289000Y-89400000D02*
X141389000Y-89400000D01*
X139289000Y-88400000D02*
X141389000Y-88400000D01*
G04 #@! TO.C,D6*
X139289000Y-90940000D02*
X141389000Y-90940000D01*
X139289000Y-91940000D02*
X141389000Y-91940000D01*
X139289000Y-90940000D02*
X139289000Y-91940000D01*
G04 #@! TO.C,D7*
X139289000Y-93480000D02*
X139289000Y-94480000D01*
X139289000Y-94480000D02*
X141389000Y-94480000D01*
X139289000Y-93480000D02*
X141389000Y-93480000D01*
G04 #@! TO.C,D8*
X139289000Y-96020000D02*
X141389000Y-96020000D01*
X139289000Y-97020000D02*
X141389000Y-97020000D01*
X139289000Y-96020000D02*
X139289000Y-97020000D01*
G04 #@! TO.C,D1*
D12*
X140219952Y-77950190D02*
X140219952Y-77450190D01*
X140339000Y-77450190D01*
X140410428Y-77474000D01*
X140458047Y-77521619D01*
X140481857Y-77569238D01*
X140505666Y-77664476D01*
X140505666Y-77735904D01*
X140481857Y-77831142D01*
X140458047Y-77878761D01*
X140410428Y-77926380D01*
X140339000Y-77950190D01*
X140219952Y-77950190D01*
X140981857Y-77950190D02*
X140696142Y-77950190D01*
X140839000Y-77950190D02*
X140839000Y-77450190D01*
X140791380Y-77521619D01*
X140743761Y-77569238D01*
X140696142Y-77593047D01*
G04 #@! TO.C,D2*
X140219952Y-80490190D02*
X140219952Y-79990190D01*
X140339000Y-79990190D01*
X140410428Y-80014000D01*
X140458047Y-80061619D01*
X140481857Y-80109238D01*
X140505666Y-80204476D01*
X140505666Y-80275904D01*
X140481857Y-80371142D01*
X140458047Y-80418761D01*
X140410428Y-80466380D01*
X140339000Y-80490190D01*
X140219952Y-80490190D01*
X140696142Y-80037809D02*
X140719952Y-80014000D01*
X140767571Y-79990190D01*
X140886619Y-79990190D01*
X140934238Y-80014000D01*
X140958047Y-80037809D01*
X140981857Y-80085428D01*
X140981857Y-80133047D01*
X140958047Y-80204476D01*
X140672333Y-80490190D01*
X140981857Y-80490190D01*
G04 #@! TO.C,D3*
X140473952Y-83030190D02*
X140473952Y-82530190D01*
X140593000Y-82530190D01*
X140664428Y-82554000D01*
X140712047Y-82601619D01*
X140735857Y-82649238D01*
X140759666Y-82744476D01*
X140759666Y-82815904D01*
X140735857Y-82911142D01*
X140712047Y-82958761D01*
X140664428Y-83006380D01*
X140593000Y-83030190D01*
X140473952Y-83030190D01*
X140926333Y-82530190D02*
X141235857Y-82530190D01*
X141069190Y-82720666D01*
X141140619Y-82720666D01*
X141188238Y-82744476D01*
X141212047Y-82768285D01*
X141235857Y-82815904D01*
X141235857Y-82934952D01*
X141212047Y-82982571D01*
X141188238Y-83006380D01*
X141140619Y-83030190D01*
X140997761Y-83030190D01*
X140950142Y-83006380D01*
X140926333Y-82982571D01*
G04 #@! TO.C,D4*
X140473952Y-85570190D02*
X140473952Y-85070190D01*
X140593000Y-85070190D01*
X140664428Y-85094000D01*
X140712047Y-85141619D01*
X140735857Y-85189238D01*
X140759666Y-85284476D01*
X140759666Y-85355904D01*
X140735857Y-85451142D01*
X140712047Y-85498761D01*
X140664428Y-85546380D01*
X140593000Y-85570190D01*
X140473952Y-85570190D01*
X141188238Y-85236857D02*
X141188238Y-85570190D01*
X141069190Y-85046380D02*
X140950142Y-85403523D01*
X141259666Y-85403523D01*
G04 #@! TO.C,D5*
X140473952Y-88110190D02*
X140473952Y-87610190D01*
X140593000Y-87610190D01*
X140664428Y-87634000D01*
X140712047Y-87681619D01*
X140735857Y-87729238D01*
X140759666Y-87824476D01*
X140759666Y-87895904D01*
X140735857Y-87991142D01*
X140712047Y-88038761D01*
X140664428Y-88086380D01*
X140593000Y-88110190D01*
X140473952Y-88110190D01*
X141212047Y-87610190D02*
X140973952Y-87610190D01*
X140950142Y-87848285D01*
X140973952Y-87824476D01*
X141021571Y-87800666D01*
X141140619Y-87800666D01*
X141188238Y-87824476D01*
X141212047Y-87848285D01*
X141235857Y-87895904D01*
X141235857Y-88014952D01*
X141212047Y-88062571D01*
X141188238Y-88086380D01*
X141140619Y-88110190D01*
X141021571Y-88110190D01*
X140973952Y-88086380D01*
X140950142Y-88062571D01*
G04 #@! TO.C,D6*
X140473952Y-90650190D02*
X140473952Y-90150190D01*
X140593000Y-90150190D01*
X140664428Y-90174000D01*
X140712047Y-90221619D01*
X140735857Y-90269238D01*
X140759666Y-90364476D01*
X140759666Y-90435904D01*
X140735857Y-90531142D01*
X140712047Y-90578761D01*
X140664428Y-90626380D01*
X140593000Y-90650190D01*
X140473952Y-90650190D01*
X141188238Y-90150190D02*
X141093000Y-90150190D01*
X141045380Y-90174000D01*
X141021571Y-90197809D01*
X140973952Y-90269238D01*
X140950142Y-90364476D01*
X140950142Y-90554952D01*
X140973952Y-90602571D01*
X140997761Y-90626380D01*
X141045380Y-90650190D01*
X141140619Y-90650190D01*
X141188238Y-90626380D01*
X141212047Y-90602571D01*
X141235857Y-90554952D01*
X141235857Y-90435904D01*
X141212047Y-90388285D01*
X141188238Y-90364476D01*
X141140619Y-90340666D01*
X141045380Y-90340666D01*
X140997761Y-90364476D01*
X140973952Y-90388285D01*
X140950142Y-90435904D01*
G04 #@! TO.C,D7*
X140473952Y-93190190D02*
X140473952Y-92690190D01*
X140593000Y-92690190D01*
X140664428Y-92714000D01*
X140712047Y-92761619D01*
X140735857Y-92809238D01*
X140759666Y-92904476D01*
X140759666Y-92975904D01*
X140735857Y-93071142D01*
X140712047Y-93118761D01*
X140664428Y-93166380D01*
X140593000Y-93190190D01*
X140473952Y-93190190D01*
X140926333Y-92690190D02*
X141259666Y-92690190D01*
X141045380Y-93190190D01*
G04 #@! TO.C,D8*
X140473952Y-95730190D02*
X140473952Y-95230190D01*
X140593000Y-95230190D01*
X140664428Y-95254000D01*
X140712047Y-95301619D01*
X140735857Y-95349238D01*
X140759666Y-95444476D01*
X140759666Y-95515904D01*
X140735857Y-95611142D01*
X140712047Y-95658761D01*
X140664428Y-95706380D01*
X140593000Y-95730190D01*
X140473952Y-95730190D01*
X141045380Y-95444476D02*
X140997761Y-95420666D01*
X140973952Y-95396857D01*
X140950142Y-95349238D01*
X140950142Y-95325428D01*
X140973952Y-95277809D01*
X140997761Y-95254000D01*
X141045380Y-95230190D01*
X141140619Y-95230190D01*
X141188238Y-95254000D01*
X141212047Y-95277809D01*
X141235857Y-95325428D01*
X141235857Y-95349238D01*
X141212047Y-95396857D01*
X141188238Y-95420666D01*
X141140619Y-95444476D01*
X141045380Y-95444476D01*
X140997761Y-95468285D01*
X140973952Y-95492095D01*
X140950142Y-95539714D01*
X140950142Y-95634952D01*
X140973952Y-95682571D01*
X140997761Y-95706380D01*
X141045380Y-95730190D01*
X141140619Y-95730190D01*
X141188238Y-95706380D01*
X141212047Y-95682571D01*
X141235857Y-95634952D01*
X141235857Y-95539714D01*
X141212047Y-95492095D01*
X141188238Y-95468285D01*
X141140619Y-95444476D01*
G04 #@! TD*
M02*
