G04 #@! TF.GenerationSoftware,KiCad,Pcbnew,(5.0.1)-3*
G04 #@! TF.CreationDate,2019-07-31T16:28:55-05:00*
G04 #@! TF.ProjectId,monitorIO,6D6F6E69746F72494F2E6B696361645F,rev?*
G04 #@! TF.SameCoordinates,Original*
G04 #@! TF.FileFunction,Copper,L1,Top,Signal*
G04 #@! TF.FilePolarity,Positive*
%FSLAX46Y46*%
G04 Gerber Fmt 4.6, Leading zero omitted, Abs format (unit mm)*
G04 Created by KiCad (PCBNEW (5.0.1)-3) date 31/07/2019 16:28:55*
%MOMM*%
%LPD*%
G01*
G04 APERTURE LIST*
G04 #@! TA.AperFunction,SMDPad,CuDef*
%ADD10R,1.795780X2.697480*%
G04 #@! TD*
G04 #@! TA.AperFunction,ComponentPad*
%ADD11R,2.199640X1.524000*%
G04 #@! TD*
G04 #@! TA.AperFunction,ComponentPad*
%ADD12O,2.199640X1.524000*%
G04 #@! TD*
G04 #@! TA.AperFunction,SMDPad,CuDef*
%ADD13R,0.900000X1.700000*%
G04 #@! TD*
G04 #@! TA.AperFunction,ViaPad*
%ADD14C,0.800000*%
G04 #@! TD*
G04 #@! TA.AperFunction,Conductor*
%ADD15C,0.500000*%
G04 #@! TD*
G04 APERTURE END LIST*
D10*
G04 #@! TO.P,D1,1*
G04 #@! TO.N,GND*
X121970400Y-77216000D03*
G04 #@! TO.P,D1,2*
G04 #@! TO.N,Net-(D1-Pad2)*
X124967600Y-77216000D03*
G04 #@! TD*
G04 #@! TO.P,D2,2*
G04 #@! TO.N,Net-(D2-Pad2)*
X124967600Y-80518000D03*
G04 #@! TO.P,D2,1*
G04 #@! TO.N,GND*
X121970400Y-80518000D03*
G04 #@! TD*
G04 #@! TO.P,D3,1*
G04 #@! TO.N,GND*
X121970400Y-83820000D03*
G04 #@! TO.P,D3,2*
G04 #@! TO.N,Net-(D3-Pad2)*
X124967600Y-83820000D03*
G04 #@! TD*
G04 #@! TO.P,D4,2*
G04 #@! TO.N,Net-(D4-Pad2)*
X124967600Y-87122000D03*
G04 #@! TO.P,D4,1*
G04 #@! TO.N,GND*
X121970400Y-87122000D03*
G04 #@! TD*
G04 #@! TO.P,D5,1*
G04 #@! TO.N,GND*
X121970400Y-90424000D03*
G04 #@! TO.P,D5,2*
G04 #@! TO.N,Net-(D5-Pad2)*
X124967600Y-90424000D03*
G04 #@! TD*
G04 #@! TO.P,D6,2*
G04 #@! TO.N,Net-(D6-Pad2)*
X124942600Y-93726000D03*
G04 #@! TO.P,D6,1*
G04 #@! TO.N,GND*
X121945400Y-93726000D03*
G04 #@! TD*
G04 #@! TO.P,D7,1*
G04 #@! TO.N,GND*
X121945400Y-97028000D03*
G04 #@! TO.P,D7,2*
G04 #@! TO.N,Net-(D7-Pad2)*
X124942600Y-97028000D03*
G04 #@! TD*
G04 #@! TO.P,D8,2*
G04 #@! TO.N,Net-(D8-Pad2)*
X124942600Y-100330000D03*
G04 #@! TO.P,D8,1*
G04 #@! TO.N,GND*
X121945400Y-100330000D03*
G04 #@! TD*
D11*
G04 #@! TO.P,J1,1*
G04 #@! TO.N,Net-(J1-Pad1)*
X146700000Y-78636600D03*
D12*
G04 #@! TO.P,J1,2*
G04 #@! TO.N,Net-(J1-Pad2)*
X146700000Y-81176600D03*
G04 #@! TO.P,J1,3*
G04 #@! TO.N,Net-(J1-Pad3)*
X146700000Y-83716600D03*
G04 #@! TO.P,J1,4*
G04 #@! TO.N,Net-(J1-Pad4)*
X146700000Y-86256600D03*
G04 #@! TO.P,J1,5*
G04 #@! TO.N,Net-(J1-Pad5)*
X146700000Y-88796600D03*
G04 #@! TO.P,J1,6*
G04 #@! TO.N,Net-(J1-Pad6)*
X146700000Y-91336600D03*
G04 #@! TO.P,J1,7*
G04 #@! TO.N,Net-(J1-Pad7)*
X146700000Y-93876600D03*
G04 #@! TO.P,J1,8*
G04 #@! TO.N,Net-(J1-Pad8)*
X146700000Y-96416600D03*
G04 #@! TO.P,J1,9*
G04 #@! TO.N,GND*
X146700000Y-98956600D03*
G04 #@! TD*
D13*
G04 #@! TO.P,R1,1*
G04 #@! TO.N,Net-(J1-Pad1)*
X133200000Y-79906600D03*
G04 #@! TO.P,R1,2*
G04 #@! TO.N,Net-(D1-Pad2)*
X130300000Y-79906600D03*
G04 #@! TD*
G04 #@! TO.P,R2,2*
G04 #@! TO.N,Net-(D2-Pad2)*
X130300000Y-82446600D03*
G04 #@! TO.P,R2,1*
G04 #@! TO.N,Net-(J1-Pad2)*
X133200000Y-82446600D03*
G04 #@! TD*
G04 #@! TO.P,R3,1*
G04 #@! TO.N,Net-(J1-Pad3)*
X133189000Y-84986600D03*
G04 #@! TO.P,R3,2*
G04 #@! TO.N,Net-(D3-Pad2)*
X130289000Y-84986600D03*
G04 #@! TD*
G04 #@! TO.P,R4,2*
G04 #@! TO.N,Net-(D4-Pad2)*
X130289000Y-87526600D03*
G04 #@! TO.P,R4,1*
G04 #@! TO.N,Net-(J1-Pad4)*
X133189000Y-87526600D03*
G04 #@! TD*
G04 #@! TO.P,R5,1*
G04 #@! TO.N,Net-(J1-Pad5)*
X133263000Y-90066600D03*
G04 #@! TO.P,R5,2*
G04 #@! TO.N,Net-(D5-Pad2)*
X130363000Y-90066600D03*
G04 #@! TD*
G04 #@! TO.P,R6,2*
G04 #@! TO.N,Net-(D6-Pad2)*
X130363000Y-92606600D03*
G04 #@! TO.P,R6,1*
G04 #@! TO.N,Net-(J1-Pad6)*
X133263000Y-92606600D03*
G04 #@! TD*
G04 #@! TO.P,R7,1*
G04 #@! TO.N,Net-(J1-Pad7)*
X133263000Y-95146600D03*
G04 #@! TO.P,R7,2*
G04 #@! TO.N,Net-(D7-Pad2)*
X130363000Y-95146600D03*
G04 #@! TD*
G04 #@! TO.P,R8,2*
G04 #@! TO.N,Net-(D8-Pad2)*
X130363000Y-97686600D03*
G04 #@! TO.P,R8,1*
G04 #@! TO.N,Net-(J1-Pad8)*
X133263000Y-97686600D03*
G04 #@! TD*
D14*
G04 #@! TO.N,GND*
X120498000Y-88747600D03*
G04 #@! TD*
D15*
G04 #@! TO.N,GND*
X121970400Y-90424000D02*
X121970400Y-92272700D01*
X121970400Y-92272700D02*
X121945400Y-92297700D01*
X121945400Y-92297700D02*
X121945400Y-93726000D01*
X121970400Y-90424000D02*
X121970400Y-88970700D01*
X121970400Y-87122000D02*
X121970400Y-88970700D01*
X120498000Y-88747600D02*
X120721100Y-88970700D01*
X120721100Y-88970700D02*
X121970400Y-88970700D01*
X121970400Y-80518000D02*
X121970400Y-77216000D01*
X121970400Y-83820000D02*
X121970400Y-80518000D01*
X121970400Y-87122000D02*
X121970400Y-83820000D01*
X121945400Y-97028000D02*
X121945400Y-93726000D01*
X121945400Y-100330000D02*
X121945400Y-97028000D01*
G04 #@! TO.N,Net-(D1-Pad2)*
X130300000Y-79906600D02*
X129350000Y-79906600D01*
X129350000Y-79906600D02*
X126659400Y-77216000D01*
X126659400Y-77216000D02*
X124967600Y-77216000D01*
G04 #@! TO.N,Net-(D2-Pad2)*
X124967600Y-80518000D02*
X126365500Y-80518000D01*
X130300000Y-82446600D02*
X128294100Y-82446600D01*
X128294100Y-82446600D02*
X126365500Y-80518000D01*
G04 #@! TO.N,Net-(D3-Pad2)*
X124967600Y-83820000D02*
X126365500Y-83820000D01*
X130289000Y-84986600D02*
X127532100Y-84986600D01*
X127532100Y-84986600D02*
X126365500Y-83820000D01*
G04 #@! TO.N,Net-(D4-Pad2)*
X124967600Y-87122000D02*
X126365500Y-87122000D01*
X130289000Y-87526600D02*
X126770100Y-87526600D01*
X126770100Y-87526600D02*
X126365500Y-87122000D01*
G04 #@! TO.N,Net-(D5-Pad2)*
X124967600Y-90424000D02*
X126365500Y-90424000D01*
X130363000Y-90066600D02*
X126722900Y-90066600D01*
X126722900Y-90066600D02*
X126365500Y-90424000D01*
G04 #@! TO.N,Net-(D6-Pad2)*
X124942600Y-93726000D02*
X126340500Y-93726000D01*
X130363000Y-92606600D02*
X127459900Y-92606600D01*
X127459900Y-92606600D02*
X126340500Y-93726000D01*
G04 #@! TO.N,Net-(D7-Pad2)*
X124942600Y-97028000D02*
X126340500Y-97028000D01*
X130363000Y-95146600D02*
X128221900Y-95146600D01*
X128221900Y-95146600D02*
X126340500Y-97028000D01*
G04 #@! TO.N,Net-(D8-Pad2)*
X130363000Y-97686600D02*
X129413000Y-97686600D01*
X129413000Y-97686600D02*
X126769600Y-100330000D01*
X126769600Y-100330000D02*
X124942600Y-100330000D01*
G04 #@! TO.N,Net-(J1-Pad1)*
X146700000Y-78636600D02*
X146700000Y-79898600D01*
X133200000Y-79906600D02*
X146692000Y-79906600D01*
X146692000Y-79906600D02*
X146700000Y-79898600D01*
G04 #@! TO.N,Net-(J1-Pad2)*
X146700000Y-81176600D02*
X146700000Y-82438600D01*
X133200000Y-82446600D02*
X146692000Y-82446600D01*
X146692000Y-82446600D02*
X146700000Y-82438600D01*
G04 #@! TO.N,Net-(J1-Pad3)*
X146700000Y-83716600D02*
X146700000Y-84978600D01*
X133189000Y-84986600D02*
X146692000Y-84986600D01*
X146692000Y-84986600D02*
X146700000Y-84978600D01*
G04 #@! TO.N,Net-(J1-Pad4)*
X146700000Y-86256600D02*
X146700000Y-87518600D01*
X133189000Y-87526600D02*
X146692000Y-87526600D01*
X146692000Y-87526600D02*
X146700000Y-87518600D01*
G04 #@! TO.N,Net-(J1-Pad5)*
X146700000Y-88796600D02*
X146700000Y-90058600D01*
X133263000Y-90066600D02*
X146692000Y-90066600D01*
X146692000Y-90066600D02*
X146700000Y-90058600D01*
G04 #@! TO.N,Net-(J1-Pad6)*
X146700000Y-91336600D02*
X146700000Y-92598600D01*
X133263000Y-92606600D02*
X146692000Y-92606600D01*
X146692000Y-92606600D02*
X146700000Y-92598600D01*
G04 #@! TO.N,Net-(J1-Pad7)*
X146700000Y-93876600D02*
X146700000Y-95138600D01*
X133263000Y-95146600D02*
X146692000Y-95146600D01*
X146692000Y-95146600D02*
X146700000Y-95138600D01*
G04 #@! TO.N,Net-(J1-Pad8)*
X146700000Y-96416600D02*
X146700000Y-97678600D01*
X133263000Y-97686600D02*
X146692000Y-97686600D01*
X146692000Y-97686600D02*
X146700000Y-97678600D01*
G04 #@! TD*
M02*
