%FSLAX45Y45*%
G04 Gerber Fmt 4.5, Leading zero omitted, Abs format (unit mm)*
G04 Created by KiCad (PCBNEW (5.0.1)-3) date 31/07/2019 16:28:44*
%MOMM*%
%LPD*%
G01*
G04 APERTURE LIST*
%ADD10C,0.150000*%
%ADD11C,0.200000*%
%ADD12C,0.300000*%
G04 APERTURE END LIST*
D10*
X12750800Y-7543800D02*
X12954000Y-7721600D01*
X12750800Y-10210800D02*
X12954000Y-10045700D01*
X11998960Y-10210800D02*
X12750800Y-10210800D01*
X11998960Y-7543800D02*
X12750800Y-7543800D01*
X14808200Y-9982200D02*
G75*
G02X14758917Y-10045321I-49283J-12321D01*
G01*
X14745079Y-7721600D02*
G75*
G02X14808200Y-7770883I12321J-49283D01*
G01*
X11998960Y-10210800D02*
X11998960Y-7543800D01*
D11*
X14757400Y-10045700D02*
X12954000Y-10045700D01*
X14808200Y-7772400D02*
X14808200Y-9982200D01*
X12954000Y-7721600D02*
X14744700Y-7721600D01*
D11*
D12*
X12277888Y-10684014D02*
X12277888Y-10384014D01*
X12349317Y-10384014D01*
X12392174Y-10398300D01*
X12420746Y-10426872D01*
X12435031Y-10455443D01*
X12449317Y-10512586D01*
X12449317Y-10555443D01*
X12435031Y-10612586D01*
X12420746Y-10641157D01*
X12392174Y-10669729D01*
X12349317Y-10684014D01*
X12277888Y-10684014D01*
X12577888Y-10684014D02*
X12577888Y-10484014D01*
X12577888Y-10541157D02*
X12592174Y-10512586D01*
X12606460Y-10498300D01*
X12635031Y-10484014D01*
X12663603Y-10484014D01*
X12763603Y-10684014D02*
X12763603Y-10484014D01*
X12763603Y-10384014D02*
X12749317Y-10398300D01*
X12763603Y-10412586D01*
X12777888Y-10398300D01*
X12763603Y-10384014D01*
X12763603Y-10412586D01*
X12949317Y-10684014D02*
X12920746Y-10669729D01*
X12906460Y-10641157D01*
X12906460Y-10384014D01*
X13106460Y-10684014D02*
X13077888Y-10669729D01*
X13063603Y-10641157D01*
X13063603Y-10384014D01*
X13449317Y-10684014D02*
X13449317Y-10384014D01*
X13549317Y-10598300D01*
X13649317Y-10384014D01*
X13649317Y-10684014D01*
X13920746Y-10684014D02*
X13920746Y-10526872D01*
X13906460Y-10498300D01*
X13877888Y-10484014D01*
X13820746Y-10484014D01*
X13792174Y-10498300D01*
X13920746Y-10669729D02*
X13892174Y-10684014D01*
X13820746Y-10684014D01*
X13792174Y-10669729D01*
X13777888Y-10641157D01*
X13777888Y-10612586D01*
X13792174Y-10584014D01*
X13820746Y-10569729D01*
X13892174Y-10569729D01*
X13920746Y-10555443D01*
X14063603Y-10484014D02*
X14063603Y-10784014D01*
X14063603Y-10498300D02*
X14092174Y-10484014D01*
X14149317Y-10484014D01*
X14177888Y-10498300D01*
X14192174Y-10512586D01*
X14206460Y-10541157D01*
X14206460Y-10626872D01*
X14192174Y-10655443D01*
X14177888Y-10669729D01*
X14149317Y-10684014D01*
X14092174Y-10684014D01*
X14063603Y-10669729D01*
X14335031Y-10655443D02*
X14349317Y-10669729D01*
X14335031Y-10684014D01*
X14320746Y-10669729D01*
X14335031Y-10655443D01*
X14335031Y-10684014D01*
X14335031Y-10498300D02*
X14349317Y-10512586D01*
X14335031Y-10526872D01*
X14320746Y-10512586D01*
X14335031Y-10498300D01*
X14335031Y-10526872D01*
M02*
