%FSLAX45Y45*%
G04 Gerber Fmt 4.5, Leading zero omitted, Abs format (unit mm)*
G04 Created by KiCad (PCBNEW (5.0.1)-3) date 31/07/2019 16:28:44*
%MOMM*%
%LPD*%
G01*
G04 APERTURE LIST*
%ADD10C,0.150000*%
%ADD11C,0.200000*%
%ADD12C,0.300000*%
G04 APERTURE END LIST*
D10*
X12750800Y-7543800D02*
X12954000Y-7721600D01*
X12750800Y-10210800D02*
X12954000Y-10045700D01*
X11998960Y-10210800D02*
X12750800Y-10210800D01*
X11998960Y-7543800D02*
X12750800Y-7543800D01*
X14808200Y-9982200D02*
G75*
G02X14758917Y-10045321I-49283J-12321D01*
G01*
X14745079Y-7721600D02*
G75*
G02X14808200Y-7770883I12321J-49283D01*
G01*
X11998960Y-10210800D02*
X11998960Y-7543800D01*
D11*
X14757400Y-10045700D02*
X12954000Y-10045700D01*
X14808200Y-7772400D02*
X14808200Y-9982200D01*
X12954000Y-7721600D02*
X14744700Y-7721600D01*
D11*
X12029800Y-8854760D02*
X12069800Y-8894760D01*
X12069800Y-8854760D02*
X12029800Y-8894760D01*
X14720038Y-7863660D02*
G75*
G03X14720038Y-7863660I-50038J0D01*
G01*
X14720038Y-8117660D02*
G75*
G03X14720038Y-8117660I-50038J0D01*
G01*
X14720038Y-8371660D02*
G75*
G03X14720038Y-8371660I-50038J0D01*
G01*
X14720038Y-8625660D02*
G75*
G03X14720038Y-8625660I-50038J0D01*
G01*
X14720038Y-8879660D02*
G75*
G03X14720038Y-8879660I-50038J0D01*
G01*
X14720038Y-9133660D02*
G75*
G03X14720038Y-9133660I-50038J0D01*
G01*
X14720038Y-9387660D02*
G75*
G03X14720038Y-9387660I-50038J0D01*
G01*
X14720038Y-9641660D02*
G75*
G03X14720038Y-9641660I-50038J0D01*
G01*
X14720038Y-9895660D02*
G75*
G03X14720038Y-9895660I-50038J0D01*
G01*
D12*
X12277888Y-10684014D02*
X12277888Y-10384014D01*
X12349317Y-10384014D01*
X12392174Y-10398300D01*
X12420746Y-10426872D01*
X12435031Y-10455443D01*
X12449317Y-10512586D01*
X12449317Y-10555443D01*
X12435031Y-10612586D01*
X12420746Y-10641157D01*
X12392174Y-10669729D01*
X12349317Y-10684014D01*
X12277888Y-10684014D01*
X12577888Y-10684014D02*
X12577888Y-10484014D01*
X12577888Y-10541157D02*
X12592174Y-10512586D01*
X12606460Y-10498300D01*
X12635031Y-10484014D01*
X12663603Y-10484014D01*
X12763603Y-10684014D02*
X12763603Y-10484014D01*
X12763603Y-10384014D02*
X12749317Y-10398300D01*
X12763603Y-10412586D01*
X12777888Y-10398300D01*
X12763603Y-10384014D01*
X12763603Y-10412586D01*
X12949317Y-10684014D02*
X12920746Y-10669729D01*
X12906460Y-10641157D01*
X12906460Y-10384014D01*
X13106460Y-10684014D02*
X13077888Y-10669729D01*
X13063603Y-10641157D01*
X13063603Y-10384014D01*
X13449317Y-10684014D02*
X13449317Y-10384014D01*
X13549317Y-10598300D01*
X13649317Y-10384014D01*
X13649317Y-10684014D01*
X13920746Y-10684014D02*
X13920746Y-10526872D01*
X13906460Y-10498300D01*
X13877888Y-10484014D01*
X13820746Y-10484014D01*
X13792174Y-10498300D01*
X13920746Y-10669729D02*
X13892174Y-10684014D01*
X13820746Y-10684014D01*
X13792174Y-10669729D01*
X13777888Y-10641157D01*
X13777888Y-10612586D01*
X13792174Y-10584014D01*
X13820746Y-10569729D01*
X13892174Y-10569729D01*
X13920746Y-10555443D01*
X14063603Y-10484014D02*
X14063603Y-10784014D01*
X14063603Y-10498300D02*
X14092174Y-10484014D01*
X14149317Y-10484014D01*
X14177888Y-10498300D01*
X14192174Y-10512586D01*
X14206460Y-10541157D01*
X14206460Y-10626872D01*
X14192174Y-10655443D01*
X14177888Y-10669729D01*
X14149317Y-10684014D01*
X14092174Y-10684014D01*
X14063603Y-10669729D01*
X14335031Y-10655443D02*
X14349317Y-10669729D01*
X14335031Y-10684014D01*
X14320746Y-10669729D01*
X14335031Y-10655443D01*
X14335031Y-10684014D01*
X14335031Y-10498300D02*
X14349317Y-10512586D01*
X14335031Y-10526872D01*
X14320746Y-10512586D01*
X14335031Y-10498300D01*
X14335031Y-10526872D01*
X11951460Y-11158300D02*
X11991460Y-11198300D01*
X11991460Y-11158300D02*
X11951460Y-11198300D01*
X12335031Y-11014014D02*
X12363603Y-11014014D01*
X12392174Y-11028300D01*
X12406460Y-11042586D01*
X12420746Y-11071157D01*
X12435031Y-11128300D01*
X12435031Y-11199729D01*
X12420746Y-11256871D01*
X12406460Y-11285443D01*
X12392174Y-11299729D01*
X12363603Y-11314014D01*
X12335031Y-11314014D01*
X12306460Y-11299729D01*
X12292174Y-11285443D01*
X12277888Y-11256871D01*
X12263603Y-11199729D01*
X12263603Y-11128300D01*
X12277888Y-11071157D01*
X12292174Y-11042586D01*
X12306460Y-11028300D01*
X12335031Y-11014014D01*
X12563603Y-11285443D02*
X12577888Y-11299729D01*
X12563603Y-11314014D01*
X12549317Y-11299729D01*
X12563603Y-11285443D01*
X12563603Y-11314014D01*
X12835031Y-11114014D02*
X12835031Y-11314014D01*
X12763603Y-10999729D02*
X12692174Y-11214014D01*
X12877888Y-11214014D01*
X13049317Y-11014014D02*
X13077888Y-11014014D01*
X13106460Y-11028300D01*
X13120746Y-11042586D01*
X13135031Y-11071157D01*
X13149317Y-11128300D01*
X13149317Y-11199729D01*
X13135031Y-11256871D01*
X13120746Y-11285443D01*
X13106460Y-11299729D01*
X13077888Y-11314014D01*
X13049317Y-11314014D01*
X13020746Y-11299729D01*
X13006460Y-11285443D01*
X12992174Y-11256871D01*
X12977888Y-11199729D01*
X12977888Y-11128300D01*
X12992174Y-11071157D01*
X13006460Y-11042586D01*
X13020746Y-11028300D01*
X13049317Y-11014014D01*
X13277888Y-11314014D02*
X13277888Y-11114014D01*
X13277888Y-11142586D02*
X13292174Y-11128300D01*
X13320746Y-11114014D01*
X13363603Y-11114014D01*
X13392174Y-11128300D01*
X13406460Y-11156872D01*
X13406460Y-11314014D01*
X13406460Y-11156872D02*
X13420746Y-11128300D01*
X13449317Y-11114014D01*
X13492174Y-11114014D01*
X13520746Y-11128300D01*
X13535031Y-11156872D01*
X13535031Y-11314014D01*
X13677888Y-11314014D02*
X13677888Y-11114014D01*
X13677888Y-11142586D02*
X13692174Y-11128300D01*
X13720746Y-11114014D01*
X13763603Y-11114014D01*
X13792174Y-11128300D01*
X13806460Y-11156872D01*
X13806460Y-11314014D01*
X13806460Y-11156872D02*
X13820746Y-11128300D01*
X13849317Y-11114014D01*
X13892174Y-11114014D01*
X13920746Y-11128300D01*
X13935031Y-11156872D01*
X13935031Y-11314014D01*
X14520746Y-10999729D02*
X14263603Y-11385443D01*
X14906460Y-11014014D02*
X14935031Y-11014014D01*
X14963603Y-11028300D01*
X14977888Y-11042586D01*
X14992174Y-11071157D01*
X15006460Y-11128300D01*
X15006460Y-11199729D01*
X14992174Y-11256871D01*
X14977888Y-11285443D01*
X14963603Y-11299729D01*
X14935031Y-11314014D01*
X14906460Y-11314014D01*
X14877888Y-11299729D01*
X14863603Y-11285443D01*
X14849317Y-11256871D01*
X14835031Y-11199729D01*
X14835031Y-11128300D01*
X14849317Y-11071157D01*
X14863603Y-11042586D01*
X14877888Y-11028300D01*
X14906460Y-11014014D01*
X15135031Y-11285443D02*
X15149317Y-11299729D01*
X15135031Y-11314014D01*
X15120746Y-11299729D01*
X15135031Y-11285443D01*
X15135031Y-11314014D01*
X15335031Y-11014014D02*
X15363603Y-11014014D01*
X15392174Y-11028300D01*
X15406460Y-11042586D01*
X15420746Y-11071157D01*
X15435031Y-11128300D01*
X15435031Y-11199729D01*
X15420746Y-11256871D01*
X15406460Y-11285443D01*
X15392174Y-11299729D01*
X15363603Y-11314014D01*
X15335031Y-11314014D01*
X15306460Y-11299729D01*
X15292174Y-11285443D01*
X15277888Y-11256871D01*
X15263603Y-11199729D01*
X15263603Y-11128300D01*
X15277888Y-11071157D01*
X15292174Y-11042586D01*
X15306460Y-11028300D01*
X15335031Y-11014014D01*
X15720746Y-11314014D02*
X15549317Y-11314014D01*
X15635031Y-11314014D02*
X15635031Y-11014014D01*
X15606460Y-11056872D01*
X15577888Y-11085443D01*
X15549317Y-11099729D01*
X15977888Y-11014014D02*
X15920746Y-11014014D01*
X15892174Y-11028300D01*
X15877888Y-11042586D01*
X15849317Y-11085443D01*
X15835031Y-11142586D01*
X15835031Y-11256871D01*
X15849317Y-11285443D01*
X15863603Y-11299729D01*
X15892174Y-11314014D01*
X15949317Y-11314014D01*
X15977888Y-11299729D01*
X15992174Y-11285443D01*
X16006460Y-11256871D01*
X16006460Y-11185443D01*
X15992174Y-11156872D01*
X15977888Y-11142586D01*
X15949317Y-11128300D01*
X15892174Y-11128300D01*
X15863603Y-11142586D01*
X15849317Y-11156872D01*
X15835031Y-11185443D01*
X16120746Y-11014014D02*
X16120746Y-11071157D01*
X16235031Y-11014014D02*
X16235031Y-11071157D01*
X16677888Y-11428300D02*
X16663603Y-11414014D01*
X16635031Y-11371157D01*
X16620746Y-11342586D01*
X16606460Y-11299729D01*
X16592174Y-11228300D01*
X16592174Y-11171157D01*
X16606460Y-11099729D01*
X16620746Y-11056872D01*
X16635031Y-11028300D01*
X16663603Y-10985443D01*
X16677888Y-10971157D01*
X16949317Y-11314014D02*
X16777888Y-11314014D01*
X16863603Y-11314014D02*
X16863603Y-11014014D01*
X16835031Y-11056872D01*
X16806460Y-11085443D01*
X16777888Y-11099729D01*
X17306460Y-11314014D02*
X17306460Y-11014014D01*
X17435031Y-11314014D02*
X17435031Y-11156872D01*
X17420746Y-11128300D01*
X17392174Y-11114014D01*
X17349317Y-11114014D01*
X17320746Y-11128300D01*
X17306460Y-11142586D01*
X17620746Y-11314014D02*
X17592174Y-11299729D01*
X17577888Y-11285443D01*
X17563603Y-11256871D01*
X17563603Y-11171157D01*
X17577888Y-11142586D01*
X17592174Y-11128300D01*
X17620746Y-11114014D01*
X17663603Y-11114014D01*
X17692174Y-11128300D01*
X17706460Y-11142586D01*
X17720746Y-11171157D01*
X17720746Y-11256871D01*
X17706460Y-11285443D01*
X17692174Y-11299729D01*
X17663603Y-11314014D01*
X17620746Y-11314014D01*
X17892174Y-11314014D02*
X17863603Y-11299729D01*
X17849317Y-11271157D01*
X17849317Y-11014014D01*
X18120746Y-11299729D02*
X18092174Y-11314014D01*
X18035031Y-11314014D01*
X18006460Y-11299729D01*
X17992174Y-11271157D01*
X17992174Y-11156872D01*
X18006460Y-11128300D01*
X18035031Y-11114014D01*
X18092174Y-11114014D01*
X18120746Y-11128300D01*
X18135031Y-11156872D01*
X18135031Y-11185443D01*
X17992174Y-11214014D01*
X18235031Y-11428300D02*
X18249317Y-11414014D01*
X18277888Y-11371157D01*
X18292174Y-11342586D01*
X18306460Y-11299729D01*
X18320746Y-11228300D01*
X18320746Y-11171157D01*
X18306460Y-11099729D01*
X18292174Y-11056872D01*
X18277888Y-11028300D01*
X18249317Y-10985443D01*
X18235031Y-10971157D01*
X11991460Y-11574300D02*
G75*
G03X11991460Y-11574300I-50038J0D01*
G01*
X12435031Y-11710014D02*
X12263603Y-11710014D01*
X12349317Y-11710014D02*
X12349317Y-11410014D01*
X12320746Y-11452871D01*
X12292174Y-11481443D01*
X12263603Y-11495729D01*
X12563603Y-11681443D02*
X12577888Y-11695729D01*
X12563603Y-11710014D01*
X12549317Y-11695729D01*
X12563603Y-11681443D01*
X12563603Y-11710014D01*
X12763603Y-11410014D02*
X12792174Y-11410014D01*
X12820746Y-11424300D01*
X12835031Y-11438586D01*
X12849317Y-11467157D01*
X12863603Y-11524300D01*
X12863603Y-11595729D01*
X12849317Y-11652871D01*
X12835031Y-11681443D01*
X12820746Y-11695729D01*
X12792174Y-11710014D01*
X12763603Y-11710014D01*
X12735031Y-11695729D01*
X12720746Y-11681443D01*
X12706460Y-11652871D01*
X12692174Y-11595729D01*
X12692174Y-11524300D01*
X12706460Y-11467157D01*
X12720746Y-11438586D01*
X12735031Y-11424300D01*
X12763603Y-11410014D01*
X13049317Y-11410014D02*
X13077888Y-11410014D01*
X13106460Y-11424300D01*
X13120746Y-11438586D01*
X13135031Y-11467157D01*
X13149317Y-11524300D01*
X13149317Y-11595729D01*
X13135031Y-11652871D01*
X13120746Y-11681443D01*
X13106460Y-11695729D01*
X13077888Y-11710014D01*
X13049317Y-11710014D01*
X13020746Y-11695729D01*
X13006460Y-11681443D01*
X12992174Y-11652871D01*
X12977888Y-11595729D01*
X12977888Y-11524300D01*
X12992174Y-11467157D01*
X13006460Y-11438586D01*
X13020746Y-11424300D01*
X13049317Y-11410014D01*
X13277888Y-11710014D02*
X13277888Y-11510014D01*
X13277888Y-11538586D02*
X13292174Y-11524300D01*
X13320746Y-11510014D01*
X13363603Y-11510014D01*
X13392174Y-11524300D01*
X13406460Y-11552871D01*
X13406460Y-11710014D01*
X13406460Y-11552871D02*
X13420746Y-11524300D01*
X13449317Y-11510014D01*
X13492174Y-11510014D01*
X13520746Y-11524300D01*
X13535031Y-11552871D01*
X13535031Y-11710014D01*
X13677888Y-11710014D02*
X13677888Y-11510014D01*
X13677888Y-11538586D02*
X13692174Y-11524300D01*
X13720746Y-11510014D01*
X13763603Y-11510014D01*
X13792174Y-11524300D01*
X13806460Y-11552871D01*
X13806460Y-11710014D01*
X13806460Y-11552871D02*
X13820746Y-11524300D01*
X13849317Y-11510014D01*
X13892174Y-11510014D01*
X13920746Y-11524300D01*
X13935031Y-11552871D01*
X13935031Y-11710014D01*
X14520746Y-11395729D02*
X14263603Y-11781443D01*
X14906460Y-11410014D02*
X14935031Y-11410014D01*
X14963603Y-11424300D01*
X14977888Y-11438586D01*
X14992174Y-11467157D01*
X15006460Y-11524300D01*
X15006460Y-11595729D01*
X14992174Y-11652871D01*
X14977888Y-11681443D01*
X14963603Y-11695729D01*
X14935031Y-11710014D01*
X14906460Y-11710014D01*
X14877888Y-11695729D01*
X14863603Y-11681443D01*
X14849317Y-11652871D01*
X14835031Y-11595729D01*
X14835031Y-11524300D01*
X14849317Y-11467157D01*
X14863603Y-11438586D01*
X14877888Y-11424300D01*
X14906460Y-11410014D01*
X15135031Y-11681443D02*
X15149317Y-11695729D01*
X15135031Y-11710014D01*
X15120746Y-11695729D01*
X15135031Y-11681443D01*
X15135031Y-11710014D01*
X15335031Y-11410014D02*
X15363603Y-11410014D01*
X15392174Y-11424300D01*
X15406460Y-11438586D01*
X15420746Y-11467157D01*
X15435031Y-11524300D01*
X15435031Y-11595729D01*
X15420746Y-11652871D01*
X15406460Y-11681443D01*
X15392174Y-11695729D01*
X15363603Y-11710014D01*
X15335031Y-11710014D01*
X15306460Y-11695729D01*
X15292174Y-11681443D01*
X15277888Y-11652871D01*
X15263603Y-11595729D01*
X15263603Y-11524300D01*
X15277888Y-11467157D01*
X15292174Y-11438586D01*
X15306460Y-11424300D01*
X15335031Y-11410014D01*
X15535031Y-11410014D02*
X15720746Y-11410014D01*
X15620746Y-11524300D01*
X15663603Y-11524300D01*
X15692174Y-11538586D01*
X15706460Y-11552871D01*
X15720746Y-11581443D01*
X15720746Y-11652871D01*
X15706460Y-11681443D01*
X15692174Y-11695729D01*
X15663603Y-11710014D01*
X15577888Y-11710014D01*
X15549317Y-11695729D01*
X15535031Y-11681443D01*
X15863603Y-11710014D02*
X15920746Y-11710014D01*
X15949317Y-11695729D01*
X15963603Y-11681443D01*
X15992174Y-11638586D01*
X16006460Y-11581443D01*
X16006460Y-11467157D01*
X15992174Y-11438586D01*
X15977888Y-11424300D01*
X15949317Y-11410014D01*
X15892174Y-11410014D01*
X15863603Y-11424300D01*
X15849317Y-11438586D01*
X15835031Y-11467157D01*
X15835031Y-11538586D01*
X15849317Y-11567157D01*
X15863603Y-11581443D01*
X15892174Y-11595729D01*
X15949317Y-11595729D01*
X15977888Y-11581443D01*
X15992174Y-11567157D01*
X16006460Y-11538586D01*
X16120746Y-11410014D02*
X16120746Y-11467157D01*
X16235031Y-11410014D02*
X16235031Y-11467157D01*
X16677888Y-11824300D02*
X16663603Y-11810014D01*
X16635031Y-11767157D01*
X16620746Y-11738586D01*
X16606460Y-11695729D01*
X16592174Y-11624300D01*
X16592174Y-11567157D01*
X16606460Y-11495729D01*
X16620746Y-11452871D01*
X16635031Y-11424300D01*
X16663603Y-11381443D01*
X16677888Y-11367157D01*
X16806460Y-11710014D02*
X16863603Y-11710014D01*
X16892174Y-11695729D01*
X16906460Y-11681443D01*
X16935031Y-11638586D01*
X16949317Y-11581443D01*
X16949317Y-11467157D01*
X16935031Y-11438586D01*
X16920746Y-11424300D01*
X16892174Y-11410014D01*
X16835031Y-11410014D01*
X16806460Y-11424300D01*
X16792174Y-11438586D01*
X16777888Y-11467157D01*
X16777888Y-11538586D01*
X16792174Y-11567157D01*
X16806460Y-11581443D01*
X16835031Y-11595729D01*
X16892174Y-11595729D01*
X16920746Y-11581443D01*
X16935031Y-11567157D01*
X16949317Y-11538586D01*
X17306460Y-11710014D02*
X17306460Y-11410014D01*
X17435031Y-11710014D02*
X17435031Y-11552871D01*
X17420746Y-11524300D01*
X17392174Y-11510014D01*
X17349317Y-11510014D01*
X17320746Y-11524300D01*
X17306460Y-11538586D01*
X17620746Y-11710014D02*
X17592174Y-11695729D01*
X17577888Y-11681443D01*
X17563603Y-11652871D01*
X17563603Y-11567157D01*
X17577888Y-11538586D01*
X17592174Y-11524300D01*
X17620746Y-11510014D01*
X17663603Y-11510014D01*
X17692174Y-11524300D01*
X17706460Y-11538586D01*
X17720746Y-11567157D01*
X17720746Y-11652871D01*
X17706460Y-11681443D01*
X17692174Y-11695729D01*
X17663603Y-11710014D01*
X17620746Y-11710014D01*
X17892174Y-11710014D02*
X17863603Y-11695729D01*
X17849317Y-11667157D01*
X17849317Y-11410014D01*
X18120746Y-11695729D02*
X18092174Y-11710014D01*
X18035031Y-11710014D01*
X18006460Y-11695729D01*
X17992174Y-11667157D01*
X17992174Y-11552871D01*
X18006460Y-11524300D01*
X18035031Y-11510014D01*
X18092174Y-11510014D01*
X18120746Y-11524300D01*
X18135031Y-11552871D01*
X18135031Y-11581443D01*
X17992174Y-11610014D01*
X18249317Y-11695729D02*
X18277888Y-11710014D01*
X18335031Y-11710014D01*
X18363603Y-11695729D01*
X18377888Y-11667157D01*
X18377888Y-11652871D01*
X18363603Y-11624300D01*
X18335031Y-11610014D01*
X18292174Y-11610014D01*
X18263603Y-11595729D01*
X18249317Y-11567157D01*
X18249317Y-11552871D01*
X18263603Y-11524300D01*
X18292174Y-11510014D01*
X18335031Y-11510014D01*
X18363603Y-11524300D01*
X18477888Y-11824300D02*
X18492174Y-11810014D01*
X18520746Y-11767157D01*
X18535031Y-11738586D01*
X18549317Y-11695729D01*
X18563603Y-11624300D01*
X18563603Y-11567157D01*
X18549317Y-11495729D01*
X18535031Y-11452871D01*
X18520746Y-11424300D01*
X18492174Y-11381443D01*
X18477888Y-11367157D01*
M02*
