G04 #@! TF.GenerationSoftware,KiCad,Pcbnew,(5.0.1)-3*
G04 #@! TF.CreationDate,2019-09-03T13:29:31-05:00*
G04 #@! TF.ProjectId,monitorIO,6D6F6E69746F72494F2E6B696361645F,rev?*
G04 #@! TF.SameCoordinates,Original*
G04 #@! TF.FileFunction,Legend,Top*
G04 #@! TF.FilePolarity,Positive*
%FSLAX46Y46*%
G04 Gerber Fmt 4.6, Leading zero omitted, Abs format (unit mm)*
G04 Created by KiCad (PCBNEW (5.0.1)-3) date 03/09/2019 13:29:31*
%MOMM*%
%LPD*%
G01*
G04 APERTURE LIST*
%ADD10C,0.250000*%
%ADD11C,0.120000*%
%ADD12C,0.125000*%
G04 APERTURE END LIST*
D10*
X143002095Y-98560000D02*
X142906857Y-98512380D01*
X142764000Y-98512380D01*
X142621142Y-98560000D01*
X142525904Y-98655238D01*
X142478285Y-98750476D01*
X142430666Y-98940952D01*
X142430666Y-99083809D01*
X142478285Y-99274285D01*
X142525904Y-99369523D01*
X142621142Y-99464761D01*
X142764000Y-99512380D01*
X142859238Y-99512380D01*
X143002095Y-99464761D01*
X143049714Y-99417142D01*
X143049714Y-99083809D01*
X142859238Y-99083809D01*
X143478285Y-99512380D02*
X143478285Y-98512380D01*
X144049714Y-99512380D01*
X144049714Y-98512380D01*
X144525904Y-99512380D02*
X144525904Y-98512380D01*
X144764000Y-98512380D01*
X144906857Y-98560000D01*
X145002095Y-98655238D01*
X145049714Y-98750476D01*
X145097333Y-98940952D01*
X145097333Y-99083809D01*
X145049714Y-99274285D01*
X145002095Y-99369523D01*
X144906857Y-99464761D01*
X144764000Y-99512380D01*
X144525904Y-99512380D01*
X143533904Y-96972380D02*
X143533904Y-95972380D01*
X143914857Y-95972380D01*
X144010095Y-96020000D01*
X144057714Y-96067619D01*
X144105333Y-96162857D01*
X144105333Y-96305714D01*
X144057714Y-96400952D01*
X144010095Y-96448571D01*
X143914857Y-96496190D01*
X143533904Y-96496190D01*
X144438666Y-95972380D02*
X145105333Y-95972380D01*
X144676761Y-96972380D01*
X143533904Y-94432380D02*
X143533904Y-93432380D01*
X143914857Y-93432380D01*
X144010095Y-93480000D01*
X144057714Y-93527619D01*
X144105333Y-93622857D01*
X144105333Y-93765714D01*
X144057714Y-93860952D01*
X144010095Y-93908571D01*
X143914857Y-93956190D01*
X143533904Y-93956190D01*
X144962476Y-93432380D02*
X144772000Y-93432380D01*
X144676761Y-93480000D01*
X144629142Y-93527619D01*
X144533904Y-93670476D01*
X144486285Y-93860952D01*
X144486285Y-94241904D01*
X144533904Y-94337142D01*
X144581523Y-94384761D01*
X144676761Y-94432380D01*
X144867238Y-94432380D01*
X144962476Y-94384761D01*
X145010095Y-94337142D01*
X145057714Y-94241904D01*
X145057714Y-94003809D01*
X145010095Y-93908571D01*
X144962476Y-93860952D01*
X144867238Y-93813333D01*
X144676761Y-93813333D01*
X144581523Y-93860952D01*
X144533904Y-93908571D01*
X144486285Y-94003809D01*
X143533904Y-91892380D02*
X143533904Y-90892380D01*
X143914857Y-90892380D01*
X144010095Y-90940000D01*
X144057714Y-90987619D01*
X144105333Y-91082857D01*
X144105333Y-91225714D01*
X144057714Y-91320952D01*
X144010095Y-91368571D01*
X143914857Y-91416190D01*
X143533904Y-91416190D01*
X145010095Y-90892380D02*
X144533904Y-90892380D01*
X144486285Y-91368571D01*
X144533904Y-91320952D01*
X144629142Y-91273333D01*
X144867238Y-91273333D01*
X144962476Y-91320952D01*
X145010095Y-91368571D01*
X145057714Y-91463809D01*
X145057714Y-91701904D01*
X145010095Y-91797142D01*
X144962476Y-91844761D01*
X144867238Y-91892380D01*
X144629142Y-91892380D01*
X144533904Y-91844761D01*
X144486285Y-91797142D01*
X143533904Y-89352380D02*
X143533904Y-88352380D01*
X143914857Y-88352380D01*
X144010095Y-88400000D01*
X144057714Y-88447619D01*
X144105333Y-88542857D01*
X144105333Y-88685714D01*
X144057714Y-88780952D01*
X144010095Y-88828571D01*
X143914857Y-88876190D01*
X143533904Y-88876190D01*
X144962476Y-88685714D02*
X144962476Y-89352380D01*
X144724380Y-88304761D02*
X144486285Y-89019047D01*
X145105333Y-89019047D01*
X143533904Y-86812380D02*
X143533904Y-85812380D01*
X143914857Y-85812380D01*
X144010095Y-85860000D01*
X144057714Y-85907619D01*
X144105333Y-86002857D01*
X144105333Y-86145714D01*
X144057714Y-86240952D01*
X144010095Y-86288571D01*
X143914857Y-86336190D01*
X143533904Y-86336190D01*
X144438666Y-85812380D02*
X145057714Y-85812380D01*
X144724380Y-86193333D01*
X144867238Y-86193333D01*
X144962476Y-86240952D01*
X145010095Y-86288571D01*
X145057714Y-86383809D01*
X145057714Y-86621904D01*
X145010095Y-86717142D01*
X144962476Y-86764761D01*
X144867238Y-86812380D01*
X144581523Y-86812380D01*
X144486285Y-86764761D01*
X144438666Y-86717142D01*
X143533904Y-84272380D02*
X143533904Y-83272380D01*
X143914857Y-83272380D01*
X144010095Y-83320000D01*
X144057714Y-83367619D01*
X144105333Y-83462857D01*
X144105333Y-83605714D01*
X144057714Y-83700952D01*
X144010095Y-83748571D01*
X143914857Y-83796190D01*
X143533904Y-83796190D01*
X144486285Y-83367619D02*
X144533904Y-83320000D01*
X144629142Y-83272380D01*
X144867238Y-83272380D01*
X144962476Y-83320000D01*
X145010095Y-83367619D01*
X145057714Y-83462857D01*
X145057714Y-83558095D01*
X145010095Y-83700952D01*
X144438666Y-84272380D01*
X145057714Y-84272380D01*
X143533904Y-81732380D02*
X143533904Y-80732380D01*
X143914857Y-80732380D01*
X144010095Y-80780000D01*
X144057714Y-80827619D01*
X144105333Y-80922857D01*
X144105333Y-81065714D01*
X144057714Y-81160952D01*
X144010095Y-81208571D01*
X143914857Y-81256190D01*
X143533904Y-81256190D01*
X145057714Y-81732380D02*
X144486285Y-81732380D01*
X144772000Y-81732380D02*
X144772000Y-80732380D01*
X144676761Y-80875238D01*
X144581523Y-80970476D01*
X144486285Y-81018095D01*
X143533904Y-79192380D02*
X143533904Y-78192380D01*
X143914857Y-78192380D01*
X144010095Y-78240000D01*
X144057714Y-78287619D01*
X144105333Y-78382857D01*
X144105333Y-78525714D01*
X144057714Y-78620952D01*
X144010095Y-78668571D01*
X143914857Y-78716190D01*
X143533904Y-78716190D01*
X144724380Y-78192380D02*
X144819619Y-78192380D01*
X144914857Y-78240000D01*
X144962476Y-78287619D01*
X145010095Y-78382857D01*
X145057714Y-78573333D01*
X145057714Y-78811428D01*
X145010095Y-79001904D01*
X144962476Y-79097142D01*
X144914857Y-79144761D01*
X144819619Y-79192380D01*
X144724380Y-79192380D01*
X144629142Y-79144761D01*
X144581523Y-79097142D01*
X144533904Y-79001904D01*
X144486285Y-78811428D01*
X144486285Y-78573333D01*
X144533904Y-78382857D01*
X144581523Y-78287619D01*
X144629142Y-78240000D01*
X144724380Y-78192380D01*
D11*
G04 #@! TO.C,D1*
X140559000Y-78240000D02*
X140559000Y-79240000D01*
X140559000Y-79240000D02*
X142659000Y-79240000D01*
X140559000Y-78240000D02*
X142659000Y-78240000D01*
G04 #@! TO.C,D2*
X140559000Y-80780000D02*
X142659000Y-80780000D01*
X140559000Y-81780000D02*
X142659000Y-81780000D01*
X140559000Y-80780000D02*
X140559000Y-81780000D01*
G04 #@! TO.C,D3*
X140559000Y-83320000D02*
X140559000Y-84320000D01*
X140559000Y-84320000D02*
X142659000Y-84320000D01*
X140559000Y-83320000D02*
X142659000Y-83320000D01*
G04 #@! TO.C,D4*
X140559000Y-85860000D02*
X142659000Y-85860000D01*
X140559000Y-86860000D02*
X142659000Y-86860000D01*
X140559000Y-85860000D02*
X140559000Y-86860000D01*
G04 #@! TO.C,D5*
X140559000Y-88400000D02*
X140559000Y-89400000D01*
X140559000Y-89400000D02*
X142659000Y-89400000D01*
X140559000Y-88400000D02*
X142659000Y-88400000D01*
G04 #@! TO.C,D6*
X140559000Y-90940000D02*
X142659000Y-90940000D01*
X140559000Y-91940000D02*
X142659000Y-91940000D01*
X140559000Y-90940000D02*
X140559000Y-91940000D01*
G04 #@! TO.C,D7*
X140559000Y-93480000D02*
X140559000Y-94480000D01*
X140559000Y-94480000D02*
X142659000Y-94480000D01*
X140559000Y-93480000D02*
X142659000Y-93480000D01*
G04 #@! TO.C,D8*
X140559000Y-96020000D02*
X142659000Y-96020000D01*
X140559000Y-97020000D02*
X142659000Y-97020000D01*
X140559000Y-96020000D02*
X140559000Y-97020000D01*
G04 #@! TO.C,D1*
D12*
X141489952Y-77950190D02*
X141489952Y-77450190D01*
X141609000Y-77450190D01*
X141680428Y-77474000D01*
X141728047Y-77521619D01*
X141751857Y-77569238D01*
X141775666Y-77664476D01*
X141775666Y-77735904D01*
X141751857Y-77831142D01*
X141728047Y-77878761D01*
X141680428Y-77926380D01*
X141609000Y-77950190D01*
X141489952Y-77950190D01*
X142251857Y-77950190D02*
X141966142Y-77950190D01*
X142109000Y-77950190D02*
X142109000Y-77450190D01*
X142061380Y-77521619D01*
X142013761Y-77569238D01*
X141966142Y-77593047D01*
G04 #@! TO.C,D2*
X141489952Y-80490190D02*
X141489952Y-79990190D01*
X141609000Y-79990190D01*
X141680428Y-80014000D01*
X141728047Y-80061619D01*
X141751857Y-80109238D01*
X141775666Y-80204476D01*
X141775666Y-80275904D01*
X141751857Y-80371142D01*
X141728047Y-80418761D01*
X141680428Y-80466380D01*
X141609000Y-80490190D01*
X141489952Y-80490190D01*
X141966142Y-80037809D02*
X141989952Y-80014000D01*
X142037571Y-79990190D01*
X142156619Y-79990190D01*
X142204238Y-80014000D01*
X142228047Y-80037809D01*
X142251857Y-80085428D01*
X142251857Y-80133047D01*
X142228047Y-80204476D01*
X141942333Y-80490190D01*
X142251857Y-80490190D01*
G04 #@! TO.C,D3*
X141743952Y-83030190D02*
X141743952Y-82530190D01*
X141863000Y-82530190D01*
X141934428Y-82554000D01*
X141982047Y-82601619D01*
X142005857Y-82649238D01*
X142029666Y-82744476D01*
X142029666Y-82815904D01*
X142005857Y-82911142D01*
X141982047Y-82958761D01*
X141934428Y-83006380D01*
X141863000Y-83030190D01*
X141743952Y-83030190D01*
X142196333Y-82530190D02*
X142505857Y-82530190D01*
X142339190Y-82720666D01*
X142410619Y-82720666D01*
X142458238Y-82744476D01*
X142482047Y-82768285D01*
X142505857Y-82815904D01*
X142505857Y-82934952D01*
X142482047Y-82982571D01*
X142458238Y-83006380D01*
X142410619Y-83030190D01*
X142267761Y-83030190D01*
X142220142Y-83006380D01*
X142196333Y-82982571D01*
G04 #@! TO.C,D4*
X141743952Y-85570190D02*
X141743952Y-85070190D01*
X141863000Y-85070190D01*
X141934428Y-85094000D01*
X141982047Y-85141619D01*
X142005857Y-85189238D01*
X142029666Y-85284476D01*
X142029666Y-85355904D01*
X142005857Y-85451142D01*
X141982047Y-85498761D01*
X141934428Y-85546380D01*
X141863000Y-85570190D01*
X141743952Y-85570190D01*
X142458238Y-85236857D02*
X142458238Y-85570190D01*
X142339190Y-85046380D02*
X142220142Y-85403523D01*
X142529666Y-85403523D01*
G04 #@! TO.C,D5*
X141743952Y-88110190D02*
X141743952Y-87610190D01*
X141863000Y-87610190D01*
X141934428Y-87634000D01*
X141982047Y-87681619D01*
X142005857Y-87729238D01*
X142029666Y-87824476D01*
X142029666Y-87895904D01*
X142005857Y-87991142D01*
X141982047Y-88038761D01*
X141934428Y-88086380D01*
X141863000Y-88110190D01*
X141743952Y-88110190D01*
X142482047Y-87610190D02*
X142243952Y-87610190D01*
X142220142Y-87848285D01*
X142243952Y-87824476D01*
X142291571Y-87800666D01*
X142410619Y-87800666D01*
X142458238Y-87824476D01*
X142482047Y-87848285D01*
X142505857Y-87895904D01*
X142505857Y-88014952D01*
X142482047Y-88062571D01*
X142458238Y-88086380D01*
X142410619Y-88110190D01*
X142291571Y-88110190D01*
X142243952Y-88086380D01*
X142220142Y-88062571D01*
G04 #@! TO.C,D6*
X141743952Y-90650190D02*
X141743952Y-90150190D01*
X141863000Y-90150190D01*
X141934428Y-90174000D01*
X141982047Y-90221619D01*
X142005857Y-90269238D01*
X142029666Y-90364476D01*
X142029666Y-90435904D01*
X142005857Y-90531142D01*
X141982047Y-90578761D01*
X141934428Y-90626380D01*
X141863000Y-90650190D01*
X141743952Y-90650190D01*
X142458238Y-90150190D02*
X142363000Y-90150190D01*
X142315380Y-90174000D01*
X142291571Y-90197809D01*
X142243952Y-90269238D01*
X142220142Y-90364476D01*
X142220142Y-90554952D01*
X142243952Y-90602571D01*
X142267761Y-90626380D01*
X142315380Y-90650190D01*
X142410619Y-90650190D01*
X142458238Y-90626380D01*
X142482047Y-90602571D01*
X142505857Y-90554952D01*
X142505857Y-90435904D01*
X142482047Y-90388285D01*
X142458238Y-90364476D01*
X142410619Y-90340666D01*
X142315380Y-90340666D01*
X142267761Y-90364476D01*
X142243952Y-90388285D01*
X142220142Y-90435904D01*
G04 #@! TO.C,D7*
X141743952Y-93190190D02*
X141743952Y-92690190D01*
X141863000Y-92690190D01*
X141934428Y-92714000D01*
X141982047Y-92761619D01*
X142005857Y-92809238D01*
X142029666Y-92904476D01*
X142029666Y-92975904D01*
X142005857Y-93071142D01*
X141982047Y-93118761D01*
X141934428Y-93166380D01*
X141863000Y-93190190D01*
X141743952Y-93190190D01*
X142196333Y-92690190D02*
X142529666Y-92690190D01*
X142315380Y-93190190D01*
G04 #@! TO.C,D8*
X141743952Y-95730190D02*
X141743952Y-95230190D01*
X141863000Y-95230190D01*
X141934428Y-95254000D01*
X141982047Y-95301619D01*
X142005857Y-95349238D01*
X142029666Y-95444476D01*
X142029666Y-95515904D01*
X142005857Y-95611142D01*
X141982047Y-95658761D01*
X141934428Y-95706380D01*
X141863000Y-95730190D01*
X141743952Y-95730190D01*
X142315380Y-95444476D02*
X142267761Y-95420666D01*
X142243952Y-95396857D01*
X142220142Y-95349238D01*
X142220142Y-95325428D01*
X142243952Y-95277809D01*
X142267761Y-95254000D01*
X142315380Y-95230190D01*
X142410619Y-95230190D01*
X142458238Y-95254000D01*
X142482047Y-95277809D01*
X142505857Y-95325428D01*
X142505857Y-95349238D01*
X142482047Y-95396857D01*
X142458238Y-95420666D01*
X142410619Y-95444476D01*
X142315380Y-95444476D01*
X142267761Y-95468285D01*
X142243952Y-95492095D01*
X142220142Y-95539714D01*
X142220142Y-95634952D01*
X142243952Y-95682571D01*
X142267761Y-95706380D01*
X142315380Y-95730190D01*
X142410619Y-95730190D01*
X142458238Y-95706380D01*
X142482047Y-95682571D01*
X142505857Y-95634952D01*
X142505857Y-95539714D01*
X142482047Y-95492095D01*
X142458238Y-95468285D01*
X142410619Y-95444476D01*
G04 #@! TD*
M02*
