%FSLAX45Y45*%
G04 Gerber Fmt 4.5, Leading zero omitted, Abs format (unit mm)*
G04 Created by KiCad (PCBNEW (5.0.1)-3) date 03/09/2019 13:29:26*
%MOMM*%
%LPD*%
G01*
G04 APERTURE LIST*
%ADD10C,0.150000*%
%ADD11C,0.200000*%
%ADD12C,0.300000*%
G04 APERTURE END LIST*
D10*
X14084300Y-7721600D02*
X14744700Y-7721600D01*
D11*
X14097000Y-10045700D02*
X14757400Y-10045700D01*
X14033500Y-9994900D02*
X14033500Y-7785100D01*
D10*
X14035017Y-7784721D02*
G75*
G02X14084300Y-7721600I49283J12321D01*
G01*
X14096621Y-10044183D02*
G75*
G02X14033500Y-9994900I-12321J49283D01*
G01*
X14808200Y-9982200D02*
G75*
G02X14758917Y-10045321I-49283J-12321D01*
G01*
X14745079Y-7721600D02*
G75*
G02X14808200Y-7770883I12321J-49283D01*
G01*
D11*
X14808200Y-7772400D02*
X14808200Y-9982200D01*
D11*
D12*
X14309928Y-10521414D02*
X14309928Y-10221414D01*
X14381357Y-10221414D01*
X14424214Y-10235700D01*
X14452786Y-10264272D01*
X14467071Y-10292843D01*
X14481357Y-10349986D01*
X14481357Y-10392843D01*
X14467071Y-10449986D01*
X14452786Y-10478557D01*
X14424214Y-10507129D01*
X14381357Y-10521414D01*
X14309928Y-10521414D01*
X14609928Y-10521414D02*
X14609928Y-10321414D01*
X14609928Y-10378557D02*
X14624214Y-10349986D01*
X14638500Y-10335700D01*
X14667071Y-10321414D01*
X14695643Y-10321414D01*
X14795643Y-10521414D02*
X14795643Y-10321414D01*
X14795643Y-10221414D02*
X14781357Y-10235700D01*
X14795643Y-10249986D01*
X14809928Y-10235700D01*
X14795643Y-10221414D01*
X14795643Y-10249986D01*
X14981357Y-10521414D02*
X14952786Y-10507129D01*
X14938500Y-10478557D01*
X14938500Y-10221414D01*
X15138500Y-10521414D02*
X15109928Y-10507129D01*
X15095643Y-10478557D01*
X15095643Y-10221414D01*
X15481357Y-10521414D02*
X15481357Y-10221414D01*
X15581357Y-10435700D01*
X15681357Y-10221414D01*
X15681357Y-10521414D01*
X15952786Y-10521414D02*
X15952786Y-10364272D01*
X15938500Y-10335700D01*
X15909928Y-10321414D01*
X15852786Y-10321414D01*
X15824214Y-10335700D01*
X15952786Y-10507129D02*
X15924214Y-10521414D01*
X15852786Y-10521414D01*
X15824214Y-10507129D01*
X15809928Y-10478557D01*
X15809928Y-10449986D01*
X15824214Y-10421414D01*
X15852786Y-10407129D01*
X15924214Y-10407129D01*
X15952786Y-10392843D01*
X16095643Y-10321414D02*
X16095643Y-10621414D01*
X16095643Y-10335700D02*
X16124214Y-10321414D01*
X16181357Y-10321414D01*
X16209928Y-10335700D01*
X16224214Y-10349986D01*
X16238500Y-10378557D01*
X16238500Y-10464272D01*
X16224214Y-10492843D01*
X16209928Y-10507129D01*
X16181357Y-10521414D01*
X16124214Y-10521414D01*
X16095643Y-10507129D01*
X16367071Y-10492843D02*
X16381357Y-10507129D01*
X16367071Y-10521414D01*
X16352786Y-10507129D01*
X16367071Y-10492843D01*
X16367071Y-10521414D01*
X16367071Y-10335700D02*
X16381357Y-10349986D01*
X16367071Y-10364272D01*
X16352786Y-10349986D01*
X16367071Y-10335700D01*
X16367071Y-10364272D01*
M02*
