%FSLAX45Y45*%
G04 Gerber Fmt 4.5, Leading zero omitted, Abs format (unit mm)*
G04 Created by KiCad (PCBNEW (5.0.1)-3) date 12/08/2019 13:29:19*
%MOMM*%
%LPD*%
G01*
G04 APERTURE LIST*
%ADD10C,0.150000*%
%ADD11C,0.200000*%
%ADD12C,0.300000*%
G04 APERTURE END LIST*
D10*
X13947140Y-7721600D02*
X14744700Y-7721600D01*
D11*
X13959840Y-10045700D02*
X14757400Y-10045700D01*
X13897344Y-9993851D02*
X13897344Y-7784051D01*
D10*
X13897344Y-7784051D02*
G75*
G02X13946627Y-7720930I49283J12321D01*
G01*
X13960465Y-10044651D02*
G75*
G02X13897344Y-9995368I-12321J49283D01*
G01*
X14808200Y-9982200D02*
G75*
G02X14758917Y-10045321I-49283J-12321D01*
G01*
X14745079Y-7721600D02*
G75*
G02X14808200Y-7770883I12321J-49283D01*
G01*
D11*
X14808200Y-7772400D02*
X14808200Y-9982200D01*
D11*
X14218960Y-9632000D02*
X14258960Y-9672000D01*
X14258960Y-9632000D02*
X14218960Y-9672000D01*
X14219910Y-9378000D02*
X14259910Y-9418000D01*
X14259910Y-9378000D02*
X14219910Y-9418000D01*
X14219980Y-9139610D02*
X14259980Y-9179610D01*
X14259980Y-9139610D02*
X14219980Y-9179610D01*
X14220650Y-7829030D02*
X14260650Y-7869030D01*
X14260650Y-7829030D02*
X14220650Y-7869030D01*
X14221870Y-8108000D02*
X14261870Y-8148000D01*
X14261870Y-8108000D02*
X14221870Y-8148000D01*
X14222200Y-8368290D02*
X14262200Y-8408290D01*
X14262200Y-8368290D02*
X14222200Y-8408290D01*
X14224730Y-8591120D02*
X14264730Y-8631120D01*
X14264730Y-8591120D02*
X14224730Y-8631120D01*
X14226720Y-8870010D02*
X14266720Y-8910010D01*
X14266720Y-8870010D02*
X14226720Y-8910010D01*
X14720038Y-7863660D02*
G75*
G03X14720038Y-7863660I-50038J0D01*
G01*
X14720038Y-8117660D02*
G75*
G03X14720038Y-8117660I-50038J0D01*
G01*
X14720038Y-8371660D02*
G75*
G03X14720038Y-8371660I-50038J0D01*
G01*
X14720038Y-8625660D02*
G75*
G03X14720038Y-8625660I-50038J0D01*
G01*
X14720038Y-8879660D02*
G75*
G03X14720038Y-8879660I-50038J0D01*
G01*
X14720038Y-9133660D02*
G75*
G03X14720038Y-9133660I-50038J0D01*
G01*
X14720038Y-9387660D02*
G75*
G03X14720038Y-9387660I-50038J0D01*
G01*
X14720038Y-9641660D02*
G75*
G03X14720038Y-9641660I-50038J0D01*
G01*
X14720038Y-9895660D02*
G75*
G03X14720038Y-9895660I-50038J0D01*
G01*
D12*
X14173773Y-10521414D02*
X14173773Y-10221414D01*
X14245201Y-10221414D01*
X14288058Y-10235700D01*
X14316630Y-10264272D01*
X14330916Y-10292843D01*
X14345201Y-10349986D01*
X14345201Y-10392843D01*
X14330916Y-10449986D01*
X14316630Y-10478557D01*
X14288058Y-10507129D01*
X14245201Y-10521414D01*
X14173773Y-10521414D01*
X14473773Y-10521414D02*
X14473773Y-10321414D01*
X14473773Y-10378557D02*
X14488058Y-10349986D01*
X14502344Y-10335700D01*
X14530916Y-10321414D01*
X14559487Y-10321414D01*
X14659487Y-10521414D02*
X14659487Y-10321414D01*
X14659487Y-10221414D02*
X14645201Y-10235700D01*
X14659487Y-10249986D01*
X14673773Y-10235700D01*
X14659487Y-10221414D01*
X14659487Y-10249986D01*
X14845201Y-10521414D02*
X14816630Y-10507129D01*
X14802344Y-10478557D01*
X14802344Y-10221414D01*
X15002344Y-10521414D02*
X14973773Y-10507129D01*
X14959487Y-10478557D01*
X14959487Y-10221414D01*
X15345201Y-10521414D02*
X15345201Y-10221414D01*
X15445201Y-10435700D01*
X15545201Y-10221414D01*
X15545201Y-10521414D01*
X15816630Y-10521414D02*
X15816630Y-10364272D01*
X15802344Y-10335700D01*
X15773773Y-10321414D01*
X15716630Y-10321414D01*
X15688058Y-10335700D01*
X15816630Y-10507129D02*
X15788058Y-10521414D01*
X15716630Y-10521414D01*
X15688058Y-10507129D01*
X15673773Y-10478557D01*
X15673773Y-10449986D01*
X15688058Y-10421414D01*
X15716630Y-10407129D01*
X15788058Y-10407129D01*
X15816630Y-10392843D01*
X15959487Y-10321414D02*
X15959487Y-10621414D01*
X15959487Y-10335700D02*
X15988058Y-10321414D01*
X16045201Y-10321414D01*
X16073773Y-10335700D01*
X16088058Y-10349986D01*
X16102344Y-10378557D01*
X16102344Y-10464272D01*
X16088058Y-10492843D01*
X16073773Y-10507129D01*
X16045201Y-10521414D01*
X15988058Y-10521414D01*
X15959487Y-10507129D01*
X16230916Y-10492843D02*
X16245201Y-10507129D01*
X16230916Y-10521414D01*
X16216630Y-10507129D01*
X16230916Y-10492843D01*
X16230916Y-10521414D01*
X16230916Y-10335700D02*
X16245201Y-10349986D01*
X16230916Y-10364272D01*
X16216630Y-10349986D01*
X16230916Y-10335700D01*
X16230916Y-10364272D01*
X13847344Y-10995700D02*
X13887344Y-11035700D01*
X13887344Y-10995700D02*
X13847344Y-11035700D01*
X14230916Y-10851414D02*
X14259487Y-10851414D01*
X14288058Y-10865700D01*
X14302344Y-10879986D01*
X14316630Y-10908557D01*
X14330916Y-10965700D01*
X14330916Y-11037129D01*
X14316630Y-11094272D01*
X14302344Y-11122843D01*
X14288058Y-11137129D01*
X14259487Y-11151414D01*
X14230916Y-11151414D01*
X14202344Y-11137129D01*
X14188058Y-11122843D01*
X14173773Y-11094272D01*
X14159487Y-11037129D01*
X14159487Y-10965700D01*
X14173773Y-10908557D01*
X14188058Y-10879986D01*
X14202344Y-10865700D01*
X14230916Y-10851414D01*
X14459487Y-11122843D02*
X14473773Y-11137129D01*
X14459487Y-11151414D01*
X14445201Y-11137129D01*
X14459487Y-11122843D01*
X14459487Y-11151414D01*
X14730916Y-10951414D02*
X14730916Y-11151414D01*
X14659487Y-10837129D02*
X14588058Y-11051414D01*
X14773773Y-11051414D01*
X14945201Y-10851414D02*
X14973773Y-10851414D01*
X15002344Y-10865700D01*
X15016630Y-10879986D01*
X15030916Y-10908557D01*
X15045201Y-10965700D01*
X15045201Y-11037129D01*
X15030916Y-11094272D01*
X15016630Y-11122843D01*
X15002344Y-11137129D01*
X14973773Y-11151414D01*
X14945201Y-11151414D01*
X14916630Y-11137129D01*
X14902344Y-11122843D01*
X14888058Y-11094272D01*
X14873773Y-11037129D01*
X14873773Y-10965700D01*
X14888058Y-10908557D01*
X14902344Y-10879986D01*
X14916630Y-10865700D01*
X14945201Y-10851414D01*
X15173773Y-11151414D02*
X15173773Y-10951414D01*
X15173773Y-10979986D02*
X15188058Y-10965700D01*
X15216630Y-10951414D01*
X15259487Y-10951414D01*
X15288058Y-10965700D01*
X15302344Y-10994272D01*
X15302344Y-11151414D01*
X15302344Y-10994272D02*
X15316630Y-10965700D01*
X15345201Y-10951414D01*
X15388058Y-10951414D01*
X15416630Y-10965700D01*
X15430916Y-10994272D01*
X15430916Y-11151414D01*
X15573773Y-11151414D02*
X15573773Y-10951414D01*
X15573773Y-10979986D02*
X15588058Y-10965700D01*
X15616630Y-10951414D01*
X15659487Y-10951414D01*
X15688058Y-10965700D01*
X15702344Y-10994272D01*
X15702344Y-11151414D01*
X15702344Y-10994272D02*
X15716630Y-10965700D01*
X15745201Y-10951414D01*
X15788058Y-10951414D01*
X15816630Y-10965700D01*
X15830916Y-10994272D01*
X15830916Y-11151414D01*
X16416630Y-10837129D02*
X16159487Y-11222843D01*
X16802344Y-10851414D02*
X16830916Y-10851414D01*
X16859487Y-10865700D01*
X16873773Y-10879986D01*
X16888058Y-10908557D01*
X16902344Y-10965700D01*
X16902344Y-11037129D01*
X16888058Y-11094272D01*
X16873773Y-11122843D01*
X16859487Y-11137129D01*
X16830916Y-11151414D01*
X16802344Y-11151414D01*
X16773773Y-11137129D01*
X16759487Y-11122843D01*
X16745201Y-11094272D01*
X16730916Y-11037129D01*
X16730916Y-10965700D01*
X16745201Y-10908557D01*
X16759487Y-10879986D01*
X16773773Y-10865700D01*
X16802344Y-10851414D01*
X17030916Y-11122843D02*
X17045201Y-11137129D01*
X17030916Y-11151414D01*
X17016630Y-11137129D01*
X17030916Y-11122843D01*
X17030916Y-11151414D01*
X17230916Y-10851414D02*
X17259487Y-10851414D01*
X17288058Y-10865700D01*
X17302344Y-10879986D01*
X17316630Y-10908557D01*
X17330916Y-10965700D01*
X17330916Y-11037129D01*
X17316630Y-11094272D01*
X17302344Y-11122843D01*
X17288058Y-11137129D01*
X17259487Y-11151414D01*
X17230916Y-11151414D01*
X17202344Y-11137129D01*
X17188058Y-11122843D01*
X17173773Y-11094272D01*
X17159487Y-11037129D01*
X17159487Y-10965700D01*
X17173773Y-10908557D01*
X17188058Y-10879986D01*
X17202344Y-10865700D01*
X17230916Y-10851414D01*
X17616630Y-11151414D02*
X17445201Y-11151414D01*
X17530916Y-11151414D02*
X17530916Y-10851414D01*
X17502344Y-10894272D01*
X17473773Y-10922843D01*
X17445201Y-10937129D01*
X17873773Y-10851414D02*
X17816630Y-10851414D01*
X17788058Y-10865700D01*
X17773773Y-10879986D01*
X17745201Y-10922843D01*
X17730916Y-10979986D01*
X17730916Y-11094272D01*
X17745201Y-11122843D01*
X17759487Y-11137129D01*
X17788058Y-11151414D01*
X17845201Y-11151414D01*
X17873773Y-11137129D01*
X17888058Y-11122843D01*
X17902344Y-11094272D01*
X17902344Y-11022843D01*
X17888058Y-10994272D01*
X17873773Y-10979986D01*
X17845201Y-10965700D01*
X17788058Y-10965700D01*
X17759487Y-10979986D01*
X17745201Y-10994272D01*
X17730916Y-11022843D01*
X18016630Y-10851414D02*
X18016630Y-10908557D01*
X18130916Y-10851414D02*
X18130916Y-10908557D01*
X18573773Y-11265700D02*
X18559487Y-11251414D01*
X18530916Y-11208557D01*
X18516630Y-11179986D01*
X18502344Y-11137129D01*
X18488058Y-11065700D01*
X18488058Y-11008557D01*
X18502344Y-10937129D01*
X18516630Y-10894272D01*
X18530916Y-10865700D01*
X18559487Y-10822843D01*
X18573773Y-10808557D01*
X18730916Y-10979986D02*
X18702344Y-10965700D01*
X18688058Y-10951414D01*
X18673773Y-10922843D01*
X18673773Y-10908557D01*
X18688058Y-10879986D01*
X18702344Y-10865700D01*
X18730916Y-10851414D01*
X18788058Y-10851414D01*
X18816630Y-10865700D01*
X18830916Y-10879986D01*
X18845201Y-10908557D01*
X18845201Y-10922843D01*
X18830916Y-10951414D01*
X18816630Y-10965700D01*
X18788058Y-10979986D01*
X18730916Y-10979986D01*
X18702344Y-10994272D01*
X18688058Y-11008557D01*
X18673773Y-11037129D01*
X18673773Y-11094272D01*
X18688058Y-11122843D01*
X18702344Y-11137129D01*
X18730916Y-11151414D01*
X18788058Y-11151414D01*
X18816630Y-11137129D01*
X18830916Y-11122843D01*
X18845201Y-11094272D01*
X18845201Y-11037129D01*
X18830916Y-11008557D01*
X18816630Y-10994272D01*
X18788058Y-10979986D01*
X19202344Y-11151414D02*
X19202344Y-10851414D01*
X19330916Y-11151414D02*
X19330916Y-10994272D01*
X19316630Y-10965700D01*
X19288058Y-10951414D01*
X19245201Y-10951414D01*
X19216630Y-10965700D01*
X19202344Y-10979986D01*
X19516630Y-11151414D02*
X19488058Y-11137129D01*
X19473773Y-11122843D01*
X19459487Y-11094272D01*
X19459487Y-11008557D01*
X19473773Y-10979986D01*
X19488058Y-10965700D01*
X19516630Y-10951414D01*
X19559487Y-10951414D01*
X19588058Y-10965700D01*
X19602344Y-10979986D01*
X19616630Y-11008557D01*
X19616630Y-11094272D01*
X19602344Y-11122843D01*
X19588058Y-11137129D01*
X19559487Y-11151414D01*
X19516630Y-11151414D01*
X19788058Y-11151414D02*
X19759487Y-11137129D01*
X19745201Y-11108557D01*
X19745201Y-10851414D01*
X20016630Y-11137129D02*
X19988058Y-11151414D01*
X19930916Y-11151414D01*
X19902344Y-11137129D01*
X19888058Y-11108557D01*
X19888058Y-10994272D01*
X19902344Y-10965700D01*
X19930916Y-10951414D01*
X19988058Y-10951414D01*
X20016630Y-10965700D01*
X20030916Y-10994272D01*
X20030916Y-11022843D01*
X19888058Y-11051414D01*
X20145201Y-11137129D02*
X20173773Y-11151414D01*
X20230916Y-11151414D01*
X20259487Y-11137129D01*
X20273773Y-11108557D01*
X20273773Y-11094272D01*
X20259487Y-11065700D01*
X20230916Y-11051414D01*
X20188058Y-11051414D01*
X20159487Y-11037129D01*
X20145201Y-11008557D01*
X20145201Y-10994272D01*
X20159487Y-10965700D01*
X20188058Y-10951414D01*
X20230916Y-10951414D01*
X20259487Y-10965700D01*
X20373773Y-11265700D02*
X20388058Y-11251414D01*
X20416630Y-11208557D01*
X20430916Y-11179986D01*
X20445201Y-11137129D01*
X20459487Y-11065700D01*
X20459487Y-11008557D01*
X20445201Y-10937129D01*
X20430916Y-10894272D01*
X20416630Y-10865700D01*
X20388058Y-10822843D01*
X20373773Y-10808557D01*
X13887344Y-11411700D02*
G75*
G03X13887344Y-11411700I-50038J0D01*
G01*
X14330916Y-11547414D02*
X14159487Y-11547414D01*
X14245201Y-11547414D02*
X14245201Y-11247414D01*
X14216630Y-11290271D01*
X14188058Y-11318843D01*
X14159487Y-11333129D01*
X14459487Y-11518843D02*
X14473773Y-11533129D01*
X14459487Y-11547414D01*
X14445201Y-11533129D01*
X14459487Y-11518843D01*
X14459487Y-11547414D01*
X14659487Y-11247414D02*
X14688058Y-11247414D01*
X14716630Y-11261700D01*
X14730916Y-11275986D01*
X14745201Y-11304557D01*
X14759487Y-11361700D01*
X14759487Y-11433129D01*
X14745201Y-11490271D01*
X14730916Y-11518843D01*
X14716630Y-11533129D01*
X14688058Y-11547414D01*
X14659487Y-11547414D01*
X14630916Y-11533129D01*
X14616630Y-11518843D01*
X14602344Y-11490271D01*
X14588058Y-11433129D01*
X14588058Y-11361700D01*
X14602344Y-11304557D01*
X14616630Y-11275986D01*
X14630916Y-11261700D01*
X14659487Y-11247414D01*
X14945201Y-11247414D02*
X14973773Y-11247414D01*
X15002344Y-11261700D01*
X15016630Y-11275986D01*
X15030916Y-11304557D01*
X15045201Y-11361700D01*
X15045201Y-11433129D01*
X15030916Y-11490271D01*
X15016630Y-11518843D01*
X15002344Y-11533129D01*
X14973773Y-11547414D01*
X14945201Y-11547414D01*
X14916630Y-11533129D01*
X14902344Y-11518843D01*
X14888058Y-11490271D01*
X14873773Y-11433129D01*
X14873773Y-11361700D01*
X14888058Y-11304557D01*
X14902344Y-11275986D01*
X14916630Y-11261700D01*
X14945201Y-11247414D01*
X15173773Y-11547414D02*
X15173773Y-11347414D01*
X15173773Y-11375986D02*
X15188058Y-11361700D01*
X15216630Y-11347414D01*
X15259487Y-11347414D01*
X15288058Y-11361700D01*
X15302344Y-11390271D01*
X15302344Y-11547414D01*
X15302344Y-11390271D02*
X15316630Y-11361700D01*
X15345201Y-11347414D01*
X15388058Y-11347414D01*
X15416630Y-11361700D01*
X15430916Y-11390271D01*
X15430916Y-11547414D01*
X15573773Y-11547414D02*
X15573773Y-11347414D01*
X15573773Y-11375986D02*
X15588058Y-11361700D01*
X15616630Y-11347414D01*
X15659487Y-11347414D01*
X15688058Y-11361700D01*
X15702344Y-11390271D01*
X15702344Y-11547414D01*
X15702344Y-11390271D02*
X15716630Y-11361700D01*
X15745201Y-11347414D01*
X15788058Y-11347414D01*
X15816630Y-11361700D01*
X15830916Y-11390271D01*
X15830916Y-11547414D01*
X16416630Y-11233129D02*
X16159487Y-11618843D01*
X16802344Y-11247414D02*
X16830916Y-11247414D01*
X16859487Y-11261700D01*
X16873773Y-11275986D01*
X16888058Y-11304557D01*
X16902344Y-11361700D01*
X16902344Y-11433129D01*
X16888058Y-11490271D01*
X16873773Y-11518843D01*
X16859487Y-11533129D01*
X16830916Y-11547414D01*
X16802344Y-11547414D01*
X16773773Y-11533129D01*
X16759487Y-11518843D01*
X16745201Y-11490271D01*
X16730916Y-11433129D01*
X16730916Y-11361700D01*
X16745201Y-11304557D01*
X16759487Y-11275986D01*
X16773773Y-11261700D01*
X16802344Y-11247414D01*
X17030916Y-11518843D02*
X17045201Y-11533129D01*
X17030916Y-11547414D01*
X17016630Y-11533129D01*
X17030916Y-11518843D01*
X17030916Y-11547414D01*
X17230916Y-11247414D02*
X17259487Y-11247414D01*
X17288058Y-11261700D01*
X17302344Y-11275986D01*
X17316630Y-11304557D01*
X17330916Y-11361700D01*
X17330916Y-11433129D01*
X17316630Y-11490271D01*
X17302344Y-11518843D01*
X17288058Y-11533129D01*
X17259487Y-11547414D01*
X17230916Y-11547414D01*
X17202344Y-11533129D01*
X17188058Y-11518843D01*
X17173773Y-11490271D01*
X17159487Y-11433129D01*
X17159487Y-11361700D01*
X17173773Y-11304557D01*
X17188058Y-11275986D01*
X17202344Y-11261700D01*
X17230916Y-11247414D01*
X17430916Y-11247414D02*
X17616630Y-11247414D01*
X17516630Y-11361700D01*
X17559487Y-11361700D01*
X17588058Y-11375986D01*
X17602344Y-11390271D01*
X17616630Y-11418843D01*
X17616630Y-11490271D01*
X17602344Y-11518843D01*
X17588058Y-11533129D01*
X17559487Y-11547414D01*
X17473773Y-11547414D01*
X17445201Y-11533129D01*
X17430916Y-11518843D01*
X17759487Y-11547414D02*
X17816630Y-11547414D01*
X17845201Y-11533129D01*
X17859487Y-11518843D01*
X17888058Y-11475986D01*
X17902344Y-11418843D01*
X17902344Y-11304557D01*
X17888058Y-11275986D01*
X17873773Y-11261700D01*
X17845201Y-11247414D01*
X17788058Y-11247414D01*
X17759487Y-11261700D01*
X17745201Y-11275986D01*
X17730916Y-11304557D01*
X17730916Y-11375986D01*
X17745201Y-11404557D01*
X17759487Y-11418843D01*
X17788058Y-11433129D01*
X17845201Y-11433129D01*
X17873773Y-11418843D01*
X17888058Y-11404557D01*
X17902344Y-11375986D01*
X18016630Y-11247414D02*
X18016630Y-11304557D01*
X18130916Y-11247414D02*
X18130916Y-11304557D01*
X18573773Y-11661700D02*
X18559487Y-11647414D01*
X18530916Y-11604557D01*
X18516630Y-11575986D01*
X18502344Y-11533129D01*
X18488058Y-11461700D01*
X18488058Y-11404557D01*
X18502344Y-11333129D01*
X18516630Y-11290271D01*
X18530916Y-11261700D01*
X18559487Y-11218843D01*
X18573773Y-11204557D01*
X18702344Y-11547414D02*
X18759487Y-11547414D01*
X18788058Y-11533129D01*
X18802344Y-11518843D01*
X18830916Y-11475986D01*
X18845201Y-11418843D01*
X18845201Y-11304557D01*
X18830916Y-11275986D01*
X18816630Y-11261700D01*
X18788058Y-11247414D01*
X18730916Y-11247414D01*
X18702344Y-11261700D01*
X18688058Y-11275986D01*
X18673773Y-11304557D01*
X18673773Y-11375986D01*
X18688058Y-11404557D01*
X18702344Y-11418843D01*
X18730916Y-11433129D01*
X18788058Y-11433129D01*
X18816630Y-11418843D01*
X18830916Y-11404557D01*
X18845201Y-11375986D01*
X19202344Y-11547414D02*
X19202344Y-11247414D01*
X19330916Y-11547414D02*
X19330916Y-11390271D01*
X19316630Y-11361700D01*
X19288058Y-11347414D01*
X19245201Y-11347414D01*
X19216630Y-11361700D01*
X19202344Y-11375986D01*
X19516630Y-11547414D02*
X19488058Y-11533129D01*
X19473773Y-11518843D01*
X19459487Y-11490271D01*
X19459487Y-11404557D01*
X19473773Y-11375986D01*
X19488058Y-11361700D01*
X19516630Y-11347414D01*
X19559487Y-11347414D01*
X19588058Y-11361700D01*
X19602344Y-11375986D01*
X19616630Y-11404557D01*
X19616630Y-11490271D01*
X19602344Y-11518843D01*
X19588058Y-11533129D01*
X19559487Y-11547414D01*
X19516630Y-11547414D01*
X19788058Y-11547414D02*
X19759487Y-11533129D01*
X19745201Y-11504557D01*
X19745201Y-11247414D01*
X20016630Y-11533129D02*
X19988058Y-11547414D01*
X19930916Y-11547414D01*
X19902344Y-11533129D01*
X19888058Y-11504557D01*
X19888058Y-11390271D01*
X19902344Y-11361700D01*
X19930916Y-11347414D01*
X19988058Y-11347414D01*
X20016630Y-11361700D01*
X20030916Y-11390271D01*
X20030916Y-11418843D01*
X19888058Y-11447414D01*
X20145201Y-11533129D02*
X20173773Y-11547414D01*
X20230916Y-11547414D01*
X20259487Y-11533129D01*
X20273773Y-11504557D01*
X20273773Y-11490271D01*
X20259487Y-11461700D01*
X20230916Y-11447414D01*
X20188058Y-11447414D01*
X20159487Y-11433129D01*
X20145201Y-11404557D01*
X20145201Y-11390271D01*
X20159487Y-11361700D01*
X20188058Y-11347414D01*
X20230916Y-11347414D01*
X20259487Y-11361700D01*
X20373773Y-11661700D02*
X20388058Y-11647414D01*
X20416630Y-11604557D01*
X20430916Y-11575986D01*
X20445201Y-11533129D01*
X20459487Y-11461700D01*
X20459487Y-11404557D01*
X20445201Y-11333129D01*
X20430916Y-11290271D01*
X20416630Y-11261700D01*
X20388058Y-11218843D01*
X20373773Y-11204557D01*
M02*
