G04 #@! TF.GenerationSoftware,KiCad,Pcbnew,(5.0.1)-3*
G04 #@! TF.CreationDate,2019-08-12T13:29:34-05:00*
G04 #@! TF.ProjectId,monitorIO,6D6F6E69746F72494F2E6B696361645F,rev?*
G04 #@! TF.SameCoordinates,Original*
G04 #@! TF.FileFunction,Copper,L2,Bot,Signal*
G04 #@! TF.FilePolarity,Positive*
%FSLAX46Y46*%
G04 Gerber Fmt 4.6, Leading zero omitted, Abs format (unit mm)*
G04 Created by KiCad (PCBNEW (5.0.1)-3) date 12/08/2019 13:29:34*
%MOMM*%
%LPD*%
G01*
G04 APERTURE LIST*
G04 #@! TA.AperFunction,ComponentPad*
%ADD10R,2.199640X1.524000*%
G04 #@! TD*
G04 #@! TA.AperFunction,ComponentPad*
%ADD11O,2.199640X1.524000*%
G04 #@! TD*
G04 #@! TA.AperFunction,SMDPad,CuDef*
%ADD12R,0.900000X1.700000*%
G04 #@! TD*
G04 #@! TA.AperFunction,ViaPad*
%ADD13C,0.800000*%
G04 #@! TD*
G04 #@! TA.AperFunction,Conductor*
%ADD14C,0.500000*%
G04 #@! TD*
G04 #@! TA.AperFunction,Conductor*
%ADD15C,0.254000*%
G04 #@! TD*
G04 APERTURE END LIST*
D10*
G04 #@! TO.P,J1,1*
G04 #@! TO.N,Net-(J1-Pad1)*
X146700000Y-78636600D03*
D11*
G04 #@! TO.P,J1,2*
G04 #@! TO.N,Net-(J1-Pad2)*
X146700000Y-81176600D03*
G04 #@! TO.P,J1,3*
G04 #@! TO.N,Net-(J1-Pad3)*
X146700000Y-83716600D03*
G04 #@! TO.P,J1,4*
G04 #@! TO.N,Net-(J1-Pad4)*
X146700000Y-86256600D03*
G04 #@! TO.P,J1,5*
G04 #@! TO.N,Net-(J1-Pad5)*
X146700000Y-88796600D03*
G04 #@! TO.P,J1,6*
G04 #@! TO.N,Net-(J1-Pad6)*
X146700000Y-91336600D03*
G04 #@! TO.P,J1,7*
G04 #@! TO.N,Net-(J1-Pad7)*
X146700000Y-93876600D03*
G04 #@! TO.P,J1,8*
G04 #@! TO.N,Net-(J1-Pad8)*
X146700000Y-96416600D03*
G04 #@! TO.P,J1,9*
G04 #@! TO.N,GND*
X146700000Y-98956600D03*
G04 #@! TD*
D12*
G04 #@! TO.P,R1,1*
G04 #@! TO.N,Net-(J1-Pad1)*
X144198000Y-78740000D03*
G04 #@! TO.P,R1,2*
G04 #@! TO.N,Net-(D1-Pad2)*
X141298000Y-78740000D03*
G04 #@! TD*
G04 #@! TO.P,R2,2*
G04 #@! TO.N,Net-(D2-Pad2)*
X141298000Y-81280000D03*
G04 #@! TO.P,R2,1*
G04 #@! TO.N,Net-(J1-Pad2)*
X144198000Y-81280000D03*
G04 #@! TD*
G04 #@! TO.P,R3,1*
G04 #@! TO.N,Net-(J1-Pad3)*
X144198000Y-83820000D03*
G04 #@! TO.P,R3,2*
G04 #@! TO.N,Net-(D3-Pad2)*
X141298000Y-83820000D03*
G04 #@! TD*
G04 #@! TO.P,R4,2*
G04 #@! TO.N,Net-(D4-Pad2)*
X141298000Y-86360000D03*
G04 #@! TO.P,R4,1*
G04 #@! TO.N,Net-(J1-Pad4)*
X144198000Y-86360000D03*
G04 #@! TD*
G04 #@! TO.P,R5,1*
G04 #@! TO.N,Net-(J1-Pad5)*
X144210000Y-88949000D03*
G04 #@! TO.P,R5,2*
G04 #@! TO.N,Net-(D5-Pad2)*
X141310000Y-88949000D03*
G04 #@! TD*
G04 #@! TO.P,R6,2*
G04 #@! TO.N,Net-(D6-Pad2)*
X141310000Y-91489000D03*
G04 #@! TO.P,R6,1*
G04 #@! TO.N,Net-(J1-Pad6)*
X144210000Y-91489000D03*
G04 #@! TD*
G04 #@! TO.P,R7,1*
G04 #@! TO.N,Net-(J1-Pad7)*
X144210000Y-94029000D03*
G04 #@! TO.P,R7,2*
G04 #@! TO.N,Net-(D7-Pad2)*
X141310000Y-94029000D03*
G04 #@! TD*
G04 #@! TO.P,R8,2*
G04 #@! TO.N,Net-(D8-Pad2)*
X141310000Y-96569000D03*
G04 #@! TO.P,R8,1*
G04 #@! TO.N,Net-(J1-Pad8)*
X144210000Y-96569000D03*
G04 #@! TD*
D13*
G04 #@! TO.N,Net-(D1-Pad2)*
X142406500Y-78490300D03*
G04 #@! TO.N,Net-(D2-Pad2)*
X142418700Y-81280000D03*
G04 #@! TO.N,Net-(D3-Pad2)*
X142422000Y-83882900D03*
G04 #@! TO.N,Net-(D4-Pad2)*
X142447300Y-86111200D03*
G04 #@! TO.N,Net-(D5-Pad2)*
X142467200Y-88900100D03*
G04 #@! TO.N,Net-(D6-Pad2)*
X142399800Y-91596100D03*
G04 #@! TO.N,Net-(D7-Pad2)*
X142399100Y-93980000D03*
G04 #@! TO.N,Net-(D8-Pad2)*
X142389600Y-96520000D03*
G04 #@! TD*
D14*
G04 #@! TO.N,Net-(D1-Pad2)*
X141298000Y-78740000D02*
X142248000Y-78740000D01*
X142248000Y-78740000D02*
X142248000Y-78648800D01*
X142248000Y-78648800D02*
X142406500Y-78490300D01*
G04 #@! TO.N,Net-(D2-Pad2)*
X141298000Y-81280000D02*
X142418700Y-81280000D01*
G04 #@! TO.N,Net-(D3-Pad2)*
X141298000Y-83820000D02*
X142248000Y-83820000D01*
X142248000Y-83820000D02*
X142310900Y-83882900D01*
X142310900Y-83882900D02*
X142422000Y-83882900D01*
G04 #@! TO.N,Net-(D4-Pad2)*
X141298000Y-86360000D02*
X142248000Y-86360000D01*
X142248000Y-86360000D02*
X142248000Y-86310500D01*
X142248000Y-86310500D02*
X142447300Y-86111200D01*
G04 #@! TO.N,Net-(D5-Pad2)*
X141310000Y-88949000D02*
X142260000Y-88949000D01*
X142260000Y-88949000D02*
X142308900Y-88900100D01*
X142308900Y-88900100D02*
X142467200Y-88900100D01*
G04 #@! TO.N,Net-(D6-Pad2)*
X141310000Y-91489000D02*
X142260000Y-91489000D01*
X142260000Y-91489000D02*
X142367100Y-91596100D01*
X142367100Y-91596100D02*
X142399800Y-91596100D01*
G04 #@! TO.N,Net-(D7-Pad2)*
X141310000Y-94029000D02*
X142260000Y-94029000D01*
X142260000Y-94029000D02*
X142309000Y-93980000D01*
X142309000Y-93980000D02*
X142399100Y-93980000D01*
G04 #@! TO.N,Net-(D8-Pad2)*
X141310000Y-96569000D02*
X142260000Y-96569000D01*
X142260000Y-96569000D02*
X142309000Y-96520000D01*
X142309000Y-96520000D02*
X142389600Y-96520000D01*
G04 #@! TO.N,Net-(J1-Pad1)*
X146700000Y-78636600D02*
X145100200Y-78636600D01*
X144198000Y-78740000D02*
X144996800Y-78740000D01*
X144996800Y-78740000D02*
X145100200Y-78636600D01*
G04 #@! TO.N,Net-(J1-Pad2)*
X146700000Y-81176600D02*
X145100100Y-81176600D01*
X144198000Y-81280000D02*
X144996700Y-81280000D01*
X144996700Y-81280000D02*
X145100100Y-81176600D01*
G04 #@! TO.N,Net-(J1-Pad3)*
X146700000Y-83716600D02*
X145100100Y-83716600D01*
X144198000Y-83820000D02*
X144996700Y-83820000D01*
X144996700Y-83820000D02*
X145100100Y-83716600D01*
G04 #@! TO.N,Net-(J1-Pad4)*
X146700000Y-86256600D02*
X145100100Y-86256600D01*
X144198000Y-86360000D02*
X144996700Y-86360000D01*
X144996700Y-86360000D02*
X145100100Y-86256600D01*
G04 #@! TO.N,Net-(J1-Pad5)*
X146700000Y-88796600D02*
X145100100Y-88796600D01*
X144210000Y-88949000D02*
X144947700Y-88949000D01*
X144947700Y-88949000D02*
X145100100Y-88796600D01*
G04 #@! TO.N,Net-(J1-Pad6)*
X146700000Y-91336600D02*
X145100100Y-91336600D01*
X144210000Y-91489000D02*
X144947700Y-91489000D01*
X144947700Y-91489000D02*
X145100100Y-91336600D01*
G04 #@! TO.N,Net-(J1-Pad7)*
X146700000Y-93876600D02*
X145100100Y-93876600D01*
X144210000Y-94029000D02*
X144947700Y-94029000D01*
X144947700Y-94029000D02*
X145100100Y-93876600D01*
G04 #@! TO.N,Net-(J1-Pad8)*
X146700000Y-96416600D02*
X145100100Y-96416600D01*
X144210000Y-96569000D02*
X144947700Y-96569000D01*
X144947700Y-96569000D02*
X145100100Y-96416600D01*
G04 #@! TD*
D15*
G04 #@! TO.N,GND*
G36*
X140200560Y-79590000D02*
X140249843Y-79837765D01*
X140364928Y-80010000D01*
X140249843Y-80182235D01*
X140200560Y-80430000D01*
X140200560Y-82130000D01*
X140249843Y-82377765D01*
X140364928Y-82550000D01*
X140249843Y-82722235D01*
X140200560Y-82970000D01*
X140200560Y-84670000D01*
X140249843Y-84917765D01*
X140364928Y-85090000D01*
X140249843Y-85262235D01*
X140200560Y-85510000D01*
X140200560Y-87210000D01*
X140249843Y-87457765D01*
X140387298Y-87663480D01*
X140261843Y-87851235D01*
X140212560Y-88099000D01*
X140212560Y-89799000D01*
X140261843Y-90046765D01*
X140376928Y-90219000D01*
X140261843Y-90391235D01*
X140212560Y-90639000D01*
X140212560Y-92339000D01*
X140261843Y-92586765D01*
X140376928Y-92759000D01*
X140261843Y-92931235D01*
X140212560Y-93179000D01*
X140212560Y-94879000D01*
X140261843Y-95126765D01*
X140376928Y-95299000D01*
X140261843Y-95471235D01*
X140212560Y-95719000D01*
X140212560Y-97419000D01*
X140261843Y-97666765D01*
X140402191Y-97876809D01*
X140612235Y-98017157D01*
X140860000Y-98066440D01*
X141760000Y-98066440D01*
X142007765Y-98017157D01*
X142217809Y-97876809D01*
X142358157Y-97666765D01*
X142380388Y-97555000D01*
X142595474Y-97555000D01*
X142975880Y-97397431D01*
X143112560Y-97260751D01*
X143112560Y-97419000D01*
X143161843Y-97666765D01*
X143302191Y-97876809D01*
X143512235Y-98017157D01*
X143760000Y-98066440D01*
X144660000Y-98066440D01*
X144907765Y-98017157D01*
X145117809Y-97876809D01*
X145258157Y-97666765D01*
X145307440Y-97419000D01*
X145307440Y-97393010D01*
X145326106Y-97380538D01*
X145355000Y-97423780D01*
X145765669Y-97698180D01*
X145710239Y-97714541D01*
X145284550Y-98058574D01*
X145022920Y-98539323D01*
X145007960Y-98613530D01*
X145130460Y-98829600D01*
X146573000Y-98829600D01*
X146573000Y-98809600D01*
X146827000Y-98809600D01*
X146827000Y-98829600D01*
X146847000Y-98829600D01*
X146847000Y-99083600D01*
X146827000Y-99083600D01*
X146827000Y-99103600D01*
X146573000Y-99103600D01*
X146573000Y-99083600D01*
X145130460Y-99083600D01*
X145007960Y-99299670D01*
X145022920Y-99373877D01*
X145212373Y-99722000D01*
X139708443Y-99722000D01*
X139708443Y-77926000D01*
X140200560Y-77926000D01*
X140200560Y-79590000D01*
X140200560Y-79590000D01*
G37*
X140200560Y-79590000D02*
X140249843Y-79837765D01*
X140364928Y-80010000D01*
X140249843Y-80182235D01*
X140200560Y-80430000D01*
X140200560Y-82130000D01*
X140249843Y-82377765D01*
X140364928Y-82550000D01*
X140249843Y-82722235D01*
X140200560Y-82970000D01*
X140200560Y-84670000D01*
X140249843Y-84917765D01*
X140364928Y-85090000D01*
X140249843Y-85262235D01*
X140200560Y-85510000D01*
X140200560Y-87210000D01*
X140249843Y-87457765D01*
X140387298Y-87663480D01*
X140261843Y-87851235D01*
X140212560Y-88099000D01*
X140212560Y-89799000D01*
X140261843Y-90046765D01*
X140376928Y-90219000D01*
X140261843Y-90391235D01*
X140212560Y-90639000D01*
X140212560Y-92339000D01*
X140261843Y-92586765D01*
X140376928Y-92759000D01*
X140261843Y-92931235D01*
X140212560Y-93179000D01*
X140212560Y-94879000D01*
X140261843Y-95126765D01*
X140376928Y-95299000D01*
X140261843Y-95471235D01*
X140212560Y-95719000D01*
X140212560Y-97419000D01*
X140261843Y-97666765D01*
X140402191Y-97876809D01*
X140612235Y-98017157D01*
X140860000Y-98066440D01*
X141760000Y-98066440D01*
X142007765Y-98017157D01*
X142217809Y-97876809D01*
X142358157Y-97666765D01*
X142380388Y-97555000D01*
X142595474Y-97555000D01*
X142975880Y-97397431D01*
X143112560Y-97260751D01*
X143112560Y-97419000D01*
X143161843Y-97666765D01*
X143302191Y-97876809D01*
X143512235Y-98017157D01*
X143760000Y-98066440D01*
X144660000Y-98066440D01*
X144907765Y-98017157D01*
X145117809Y-97876809D01*
X145258157Y-97666765D01*
X145307440Y-97419000D01*
X145307440Y-97393010D01*
X145326106Y-97380538D01*
X145355000Y-97423780D01*
X145765669Y-97698180D01*
X145710239Y-97714541D01*
X145284550Y-98058574D01*
X145022920Y-98539323D01*
X145007960Y-98613530D01*
X145130460Y-98829600D01*
X146573000Y-98829600D01*
X146573000Y-98809600D01*
X146827000Y-98809600D01*
X146827000Y-98829600D01*
X146847000Y-98829600D01*
X146847000Y-99083600D01*
X146827000Y-99083600D01*
X146827000Y-99103600D01*
X146573000Y-99103600D01*
X146573000Y-99083600D01*
X145130460Y-99083600D01*
X145007960Y-99299670D01*
X145022920Y-99373877D01*
X145212373Y-99722000D01*
X139708443Y-99722000D01*
X139708443Y-77926000D01*
X140200560Y-77926000D01*
X140200560Y-79590000D01*
G04 #@! TD*
M02*
