G04 #@! TF.FileFunction,Copper,L1,Top,Signal*
%FSLAX46Y46*%
G04 Gerber Fmt 4.6, Leading zero omitted, Abs format (unit mm)*
G04 Created by KiCad (PCBNEW 4.0.6) date 05/21/18 12:18:21*
%MOMM*%
%LPD*%
G01*
G04 APERTURE LIST*
%ADD10C,0.100000*%
%ADD11C,4.064000*%
%ADD12C,2.500000*%
%ADD13R,1.524000X2.199640*%
%ADD14O,1.524000X2.199640*%
%ADD15R,2.199640X1.524000*%
%ADD16O,2.199640X1.524000*%
%ADD17C,0.600000*%
%ADD18C,0.700000*%
%ADD19C,0.254000*%
G04 APERTURE END LIST*
D10*
D11*
X177038000Y-90805000D03*
X177038000Y-118745000D03*
D12*
X165876000Y-132461000D03*
X160876000Y-132461000D03*
X155876000Y-132461000D03*
X150876000Y-132461000D03*
X145876000Y-132461000D03*
X135876000Y-132461000D03*
X140876000Y-132461000D03*
D11*
X124968000Y-123825000D03*
X126238000Y-75565000D03*
D12*
X171831000Y-97275000D03*
X171831000Y-102275000D03*
X171831000Y-112275000D03*
X171831000Y-107275000D03*
X126024000Y-132461000D03*
X131024000Y-132461000D03*
D13*
X129794000Y-75565000D03*
D14*
X132334000Y-75565000D03*
X134874000Y-75565000D03*
X137414000Y-75565000D03*
X139954000Y-75565000D03*
X142494000Y-75565000D03*
X145034000Y-75565000D03*
X147574000Y-75565000D03*
X150114000Y-75565000D03*
X152654000Y-75565000D03*
D13*
X138938000Y-123825000D03*
D14*
X141478000Y-123825000D03*
X144018000Y-123825000D03*
X146558000Y-123825000D03*
X149098000Y-123825000D03*
X151638000Y-123825000D03*
X154178000Y-123825000D03*
X156718000Y-123825000D03*
D13*
X161798000Y-123825000D03*
D14*
X164338000Y-123825000D03*
X166878000Y-123825000D03*
X169418000Y-123825000D03*
X171958000Y-123825000D03*
X174498000Y-123825000D03*
D13*
X156718000Y-75565000D03*
D14*
X159258000Y-75565000D03*
X161798000Y-75565000D03*
X164338000Y-75565000D03*
X166878000Y-75565000D03*
X169418000Y-75565000D03*
X171958000Y-75565000D03*
X174498000Y-75565000D03*
D12*
X180768000Y-132461000D03*
X170768000Y-132461000D03*
X175768000Y-132461000D03*
D15*
X135255000Y-98679000D03*
D16*
X135255000Y-101219000D03*
X135255000Y-103759000D03*
X135255000Y-106299000D03*
D17*
X159437100Y-122458400D03*
D18*
X127893300Y-134330300D02*
X126024000Y-132461000D01*
X131800400Y-134330300D02*
X127893300Y-134330300D01*
X133196300Y-132934400D02*
X131800400Y-134330300D01*
X133196300Y-132511700D02*
X133196300Y-132934400D01*
X137088200Y-128619800D02*
X133196300Y-132511700D01*
X144303200Y-128619800D02*
X137088200Y-128619800D01*
X149098000Y-123825000D02*
X144303200Y-128619800D01*
X137414000Y-104140000D02*
X135255000Y-106299000D01*
X137414000Y-75565000D02*
X137414000Y-104140000D01*
X149937700Y-122124700D02*
X135255000Y-122124700D01*
X151638000Y-123825000D02*
X149937700Y-122124700D01*
X135255000Y-106299000D02*
X135255000Y-122124700D01*
X135255000Y-128230000D02*
X131024000Y-132461000D01*
X135255000Y-122124700D02*
X135255000Y-128230000D01*
X129794000Y-98298000D02*
X129794000Y-77364800D01*
X135255000Y-103759000D02*
X129794000Y-98298000D01*
X129794000Y-75565000D02*
X129794000Y-77364800D01*
X132334000Y-98522200D02*
X132334000Y-75565000D01*
X135030800Y-101219000D02*
X132334000Y-98522200D01*
X135255000Y-101219000D02*
X135030800Y-101219000D01*
X158444000Y-125029000D02*
X165876000Y-132461000D01*
X158444000Y-81283100D02*
X158444000Y-125029000D01*
X154426200Y-77265300D02*
X158444000Y-81283100D01*
X154426200Y-75014600D02*
X154426200Y-77265300D01*
X153225600Y-73814000D02*
X154426200Y-75014600D01*
X136625000Y-73814000D02*
X153225600Y-73814000D01*
X134874000Y-75565000D02*
X136625000Y-73814000D01*
X159437100Y-80465900D02*
X159437100Y-122458400D01*
X164338000Y-75565000D02*
X159437100Y-80465900D01*
X160430100Y-87092900D02*
X171958000Y-75565000D01*
X160430100Y-125195000D02*
X160430100Y-87092900D01*
X162640900Y-127405800D02*
X160430100Y-125195000D01*
X165712800Y-127405800D02*
X162640900Y-127405800D01*
X170768000Y-132461000D02*
X165712800Y-127405800D01*
X174405600Y-77457300D02*
X174498000Y-77364900D01*
X174405600Y-120031800D02*
X174405600Y-77457300D01*
X175876000Y-121502200D02*
X174405600Y-120031800D01*
X175876000Y-132353000D02*
X175876000Y-121502200D01*
X175768000Y-132461000D02*
X175876000Y-132353000D01*
X174498000Y-75565000D02*
X174498000Y-77364900D01*
D19*
G36*
X137541000Y-75438000D02*
X137561000Y-75438000D01*
X137561000Y-75692000D01*
X137541000Y-75692000D01*
X137541000Y-77134540D01*
X137757070Y-77257040D01*
X137831277Y-77242080D01*
X138312026Y-76980450D01*
X138656059Y-76554761D01*
X138675353Y-76489394D01*
X138966172Y-76924635D01*
X139419391Y-77227467D01*
X139954000Y-77333807D01*
X140488609Y-77227467D01*
X140941828Y-76924635D01*
X141224000Y-76502336D01*
X141506172Y-76924635D01*
X141959391Y-77227467D01*
X142494000Y-77333807D01*
X143028609Y-77227467D01*
X143481828Y-76924635D01*
X143764000Y-76502336D01*
X144046172Y-76924635D01*
X144499391Y-77227467D01*
X145034000Y-77333807D01*
X145568609Y-77227467D01*
X146021828Y-76924635D01*
X146304000Y-76502336D01*
X146586172Y-76924635D01*
X147039391Y-77227467D01*
X147574000Y-77333807D01*
X148108609Y-77227467D01*
X148561828Y-76924635D01*
X148844000Y-76502336D01*
X149126172Y-76924635D01*
X149579391Y-77227467D01*
X150114000Y-77333807D01*
X150648609Y-77227467D01*
X151101828Y-76924635D01*
X151384000Y-76502336D01*
X151666172Y-76924635D01*
X152119391Y-77227467D01*
X152654000Y-77333807D01*
X153188609Y-77227467D01*
X153441200Y-77058691D01*
X153441200Y-77265300D01*
X153516179Y-77642243D01*
X153729700Y-77961800D01*
X157459000Y-81691100D01*
X157459000Y-122300439D01*
X157252609Y-122162533D01*
X156718000Y-122056193D01*
X156183391Y-122162533D01*
X155730172Y-122465365D01*
X155439353Y-122900606D01*
X155420059Y-122835239D01*
X155076026Y-122409550D01*
X154595277Y-122147920D01*
X154521070Y-122132960D01*
X154305000Y-122255460D01*
X154305000Y-123698000D01*
X154325000Y-123698000D01*
X154325000Y-123952000D01*
X154305000Y-123952000D01*
X154305000Y-125394540D01*
X154521070Y-125517040D01*
X154595277Y-125502080D01*
X155076026Y-125240450D01*
X155420059Y-124814761D01*
X155439353Y-124749394D01*
X155730172Y-125184635D01*
X156183391Y-125487467D01*
X156718000Y-125593807D01*
X157252609Y-125487467D01*
X157515283Y-125311953D01*
X157533979Y-125405943D01*
X157747500Y-125725500D01*
X164025092Y-132003092D01*
X163991328Y-132084405D01*
X163990674Y-132834305D01*
X164277043Y-133527372D01*
X164806839Y-134058093D01*
X165499405Y-134345672D01*
X166249305Y-134346326D01*
X166942372Y-134059957D01*
X167473093Y-133530161D01*
X167760672Y-132837595D01*
X167761326Y-132087695D01*
X167474957Y-131394628D01*
X166945161Y-130863907D01*
X166252595Y-130576328D01*
X165502695Y-130575674D01*
X165418474Y-130610474D01*
X163198800Y-128390800D01*
X165304800Y-128390800D01*
X168917092Y-132003092D01*
X168883328Y-132084405D01*
X168882674Y-132834305D01*
X169169043Y-133527372D01*
X169698839Y-134058093D01*
X170391405Y-134345672D01*
X171141305Y-134346326D01*
X171834372Y-134059957D01*
X172365093Y-133530161D01*
X172652672Y-132837595D01*
X172653326Y-132087695D01*
X172366957Y-131394628D01*
X171837161Y-130863907D01*
X171144595Y-130576328D01*
X170394695Y-130575674D01*
X170310474Y-130610474D01*
X166409300Y-126709300D01*
X166089743Y-126495779D01*
X165712800Y-126420800D01*
X163048900Y-126420800D01*
X162200360Y-125572260D01*
X162560000Y-125572260D01*
X162795317Y-125527982D01*
X163011441Y-125388910D01*
X163156431Y-125176710D01*
X163200260Y-124960276D01*
X163350172Y-125184635D01*
X163803391Y-125487467D01*
X164338000Y-125593807D01*
X164872609Y-125487467D01*
X165325828Y-125184635D01*
X165608000Y-124762336D01*
X165890172Y-125184635D01*
X166343391Y-125487467D01*
X166878000Y-125593807D01*
X167412609Y-125487467D01*
X167865828Y-125184635D01*
X168148000Y-124762336D01*
X168430172Y-125184635D01*
X168883391Y-125487467D01*
X169418000Y-125593807D01*
X169952609Y-125487467D01*
X170405828Y-125184635D01*
X170688000Y-124762336D01*
X170970172Y-125184635D01*
X171423391Y-125487467D01*
X171958000Y-125593807D01*
X172492609Y-125487467D01*
X172945828Y-125184635D01*
X173228000Y-124762336D01*
X173510172Y-125184635D01*
X173963391Y-125487467D01*
X174498000Y-125593807D01*
X174891000Y-125515635D01*
X174891000Y-130783796D01*
X174701628Y-130862043D01*
X174170907Y-131391839D01*
X173883328Y-132084405D01*
X173882674Y-132834305D01*
X174169043Y-133527372D01*
X174698839Y-134058093D01*
X175391405Y-134345672D01*
X176141305Y-134346326D01*
X176834372Y-134059957D01*
X177100472Y-133794320D01*
X179614285Y-133794320D01*
X179743533Y-134087123D01*
X180443806Y-134355388D01*
X181193435Y-134335250D01*
X181792467Y-134087123D01*
X181921715Y-133794320D01*
X180768000Y-132640605D01*
X179614285Y-133794320D01*
X177100472Y-133794320D01*
X177365093Y-133530161D01*
X177652672Y-132837595D01*
X177653283Y-132136806D01*
X178873612Y-132136806D01*
X178893750Y-132886435D01*
X179141877Y-133485467D01*
X179434680Y-133614715D01*
X180588395Y-132461000D01*
X180947605Y-132461000D01*
X182101320Y-133614715D01*
X182394123Y-133485467D01*
X182662388Y-132785194D01*
X182642250Y-132035565D01*
X182394123Y-131436533D01*
X182101320Y-131307285D01*
X180947605Y-132461000D01*
X180588395Y-132461000D01*
X179434680Y-131307285D01*
X179141877Y-131436533D01*
X178873612Y-132136806D01*
X177653283Y-132136806D01*
X177653326Y-132087695D01*
X177366957Y-131394628D01*
X177100475Y-131127680D01*
X179614285Y-131127680D01*
X180768000Y-132281395D01*
X181921715Y-131127680D01*
X181792467Y-130834877D01*
X181092194Y-130566612D01*
X180342565Y-130586750D01*
X179743533Y-130834877D01*
X179614285Y-131127680D01*
X177100475Y-131127680D01*
X176861000Y-130887788D01*
X176861000Y-121502200D01*
X176843024Y-121411831D01*
X177566172Y-121412462D01*
X178546761Y-121007291D01*
X179122000Y-120433056D01*
X179122000Y-125095000D01*
X179176046Y-125366705D01*
X179329954Y-125597046D01*
X180091954Y-126359046D01*
X180322295Y-126512954D01*
X180594000Y-126567000D01*
X183347908Y-126567000D01*
X183694000Y-126913092D01*
X183694000Y-137246908D01*
X183093908Y-137847000D01*
X123484091Y-137847000D01*
X122376000Y-136738908D01*
X122376000Y-132834305D01*
X124138674Y-132834305D01*
X124425043Y-133527372D01*
X124954839Y-134058093D01*
X125647405Y-134345672D01*
X126397305Y-134346326D01*
X126481526Y-134311526D01*
X127196800Y-135026800D01*
X127516357Y-135240321D01*
X127893300Y-135315300D01*
X131800400Y-135315300D01*
X132177343Y-135240321D01*
X132496900Y-135026800D01*
X133892800Y-133630900D01*
X134106321Y-133311343D01*
X134132793Y-133178260D01*
X134277043Y-133527372D01*
X134806839Y-134058093D01*
X135499405Y-134345672D01*
X136249305Y-134346326D01*
X136942372Y-134059957D01*
X137473093Y-133530161D01*
X137760672Y-132837595D01*
X137760674Y-132834305D01*
X138990674Y-132834305D01*
X139277043Y-133527372D01*
X139806839Y-134058093D01*
X140499405Y-134345672D01*
X141249305Y-134346326D01*
X141942372Y-134059957D01*
X142473093Y-133530161D01*
X142760672Y-132837595D01*
X142760674Y-132834305D01*
X143990674Y-132834305D01*
X144277043Y-133527372D01*
X144806839Y-134058093D01*
X145499405Y-134345672D01*
X146249305Y-134346326D01*
X146942372Y-134059957D01*
X147473093Y-133530161D01*
X147760672Y-132837595D01*
X147760674Y-132834305D01*
X148990674Y-132834305D01*
X149277043Y-133527372D01*
X149806839Y-134058093D01*
X150499405Y-134345672D01*
X151249305Y-134346326D01*
X151942372Y-134059957D01*
X152473093Y-133530161D01*
X152760672Y-132837595D01*
X152760674Y-132834305D01*
X153990674Y-132834305D01*
X154277043Y-133527372D01*
X154806839Y-134058093D01*
X155499405Y-134345672D01*
X156249305Y-134346326D01*
X156942372Y-134059957D01*
X157473093Y-133530161D01*
X157760672Y-132837595D01*
X157760674Y-132834305D01*
X158990674Y-132834305D01*
X159277043Y-133527372D01*
X159806839Y-134058093D01*
X160499405Y-134345672D01*
X161249305Y-134346326D01*
X161942372Y-134059957D01*
X162473093Y-133530161D01*
X162760672Y-132837595D01*
X162761326Y-132087695D01*
X162474957Y-131394628D01*
X161945161Y-130863907D01*
X161252595Y-130576328D01*
X160502695Y-130575674D01*
X159809628Y-130862043D01*
X159278907Y-131391839D01*
X158991328Y-132084405D01*
X158990674Y-132834305D01*
X157760674Y-132834305D01*
X157761326Y-132087695D01*
X157474957Y-131394628D01*
X156945161Y-130863907D01*
X156252595Y-130576328D01*
X155502695Y-130575674D01*
X154809628Y-130862043D01*
X154278907Y-131391839D01*
X153991328Y-132084405D01*
X153990674Y-132834305D01*
X152760674Y-132834305D01*
X152761326Y-132087695D01*
X152474957Y-131394628D01*
X151945161Y-130863907D01*
X151252595Y-130576328D01*
X150502695Y-130575674D01*
X149809628Y-130862043D01*
X149278907Y-131391839D01*
X148991328Y-132084405D01*
X148990674Y-132834305D01*
X147760674Y-132834305D01*
X147761326Y-132087695D01*
X147474957Y-131394628D01*
X146945161Y-130863907D01*
X146252595Y-130576328D01*
X145502695Y-130575674D01*
X144809628Y-130862043D01*
X144278907Y-131391839D01*
X143991328Y-132084405D01*
X143990674Y-132834305D01*
X142760674Y-132834305D01*
X142761326Y-132087695D01*
X142474957Y-131394628D01*
X141945161Y-130863907D01*
X141252595Y-130576328D01*
X140502695Y-130575674D01*
X139809628Y-130862043D01*
X139278907Y-131391839D01*
X138991328Y-132084405D01*
X138990674Y-132834305D01*
X137760674Y-132834305D01*
X137761326Y-132087695D01*
X137474957Y-131394628D01*
X136945161Y-130863907D01*
X136444843Y-130656157D01*
X137496200Y-129604800D01*
X144303200Y-129604800D01*
X144680143Y-129529821D01*
X144999700Y-129316300D01*
X148784543Y-125531457D01*
X149098000Y-125593807D01*
X149632609Y-125487467D01*
X150085828Y-125184635D01*
X150376647Y-124749394D01*
X150395941Y-124814761D01*
X150739974Y-125240450D01*
X151220723Y-125502080D01*
X151294930Y-125517040D01*
X151511000Y-125394540D01*
X151511000Y-123952000D01*
X151765000Y-123952000D01*
X151765000Y-125394540D01*
X151981070Y-125517040D01*
X152055277Y-125502080D01*
X152536026Y-125240450D01*
X152880059Y-124814761D01*
X152908000Y-124720097D01*
X152935941Y-124814761D01*
X153279974Y-125240450D01*
X153760723Y-125502080D01*
X153834930Y-125517040D01*
X154051000Y-125394540D01*
X154051000Y-123952000D01*
X151765000Y-123952000D01*
X151511000Y-123952000D01*
X151491000Y-123952000D01*
X151491000Y-123698000D01*
X151511000Y-123698000D01*
X151511000Y-122255460D01*
X151765000Y-122255460D01*
X151765000Y-123698000D01*
X154051000Y-123698000D01*
X154051000Y-122255460D01*
X153834930Y-122132960D01*
X153760723Y-122147920D01*
X153279974Y-122409550D01*
X152935941Y-122835239D01*
X152908000Y-122929903D01*
X152880059Y-122835239D01*
X152536026Y-122409550D01*
X152055277Y-122147920D01*
X151981070Y-122132960D01*
X151765000Y-122255460D01*
X151511000Y-122255460D01*
X151294930Y-122132960D01*
X151220723Y-122147920D01*
X150739974Y-122409550D01*
X150395941Y-122835239D01*
X150376647Y-122900606D01*
X150085828Y-122465365D01*
X149632609Y-122162533D01*
X149098000Y-122056193D01*
X148563391Y-122162533D01*
X148110172Y-122465365D01*
X147828000Y-122887664D01*
X147545828Y-122465365D01*
X147092609Y-122162533D01*
X146558000Y-122056193D01*
X146023391Y-122162533D01*
X145570172Y-122465365D01*
X145288000Y-122887664D01*
X145005828Y-122465365D01*
X144552609Y-122162533D01*
X144018000Y-122056193D01*
X143483391Y-122162533D01*
X143030172Y-122465365D01*
X142748000Y-122887664D01*
X142465828Y-122465365D01*
X142012609Y-122162533D01*
X141478000Y-122056193D01*
X140943391Y-122162533D01*
X140490172Y-122465365D01*
X140340657Y-122689130D01*
X140303162Y-122489863D01*
X140164090Y-122273739D01*
X139951890Y-122128749D01*
X139700000Y-122077740D01*
X138176000Y-122077740D01*
X137940683Y-122122018D01*
X137724559Y-122261090D01*
X137579569Y-122473290D01*
X137528560Y-122725180D01*
X137528560Y-124924820D01*
X137572838Y-125160137D01*
X137711910Y-125376261D01*
X137924110Y-125521251D01*
X138176000Y-125572260D01*
X139700000Y-125572260D01*
X139935317Y-125527982D01*
X140151441Y-125388910D01*
X140296431Y-125176710D01*
X140340260Y-124960276D01*
X140490172Y-125184635D01*
X140943391Y-125487467D01*
X141478000Y-125593807D01*
X142012609Y-125487467D01*
X142465828Y-125184635D01*
X142748000Y-124762336D01*
X143030172Y-125184635D01*
X143483391Y-125487467D01*
X144018000Y-125593807D01*
X144552609Y-125487467D01*
X145005828Y-125184635D01*
X145288000Y-124762336D01*
X145570172Y-125184635D01*
X146023391Y-125487467D01*
X146039357Y-125490643D01*
X143895200Y-127634800D01*
X137088200Y-127634800D01*
X136711257Y-127709779D01*
X136391700Y-127923300D01*
X132717003Y-131597997D01*
X132650123Y-131436533D01*
X132357320Y-131307285D01*
X131203605Y-132461000D01*
X131217748Y-132475143D01*
X131038143Y-132654748D01*
X131024000Y-132640605D01*
X131009858Y-132654748D01*
X130830253Y-132475143D01*
X130844395Y-132461000D01*
X129690680Y-131307285D01*
X129397877Y-131436533D01*
X129129612Y-132136806D01*
X129149750Y-132886435D01*
X129339818Y-133345300D01*
X128301300Y-133345300D01*
X127874908Y-132918908D01*
X127908672Y-132837595D01*
X127909326Y-132087695D01*
X127622957Y-131394628D01*
X127356475Y-131127680D01*
X129870285Y-131127680D01*
X131024000Y-132281395D01*
X132177715Y-131127680D01*
X132048467Y-130834877D01*
X131348194Y-130566612D01*
X130598565Y-130586750D01*
X129999533Y-130834877D01*
X129870285Y-131127680D01*
X127356475Y-131127680D01*
X127093161Y-130863907D01*
X126400595Y-130576328D01*
X125650695Y-130575674D01*
X124957628Y-130862043D01*
X124426907Y-131391839D01*
X124139328Y-132084405D01*
X124138674Y-132834305D01*
X122376000Y-132834305D01*
X122376000Y-124535804D01*
X122705709Y-125333761D01*
X123455293Y-126084655D01*
X124435173Y-126491536D01*
X125496172Y-126492462D01*
X126476761Y-126087291D01*
X127227655Y-125337707D01*
X127634536Y-124357827D01*
X127635462Y-123296828D01*
X127230291Y-122316239D01*
X126480707Y-121565345D01*
X126292031Y-121487000D01*
X128016000Y-121487000D01*
X128287705Y-121432954D01*
X128518046Y-121279046D01*
X129534046Y-120263046D01*
X129687954Y-120032705D01*
X129742000Y-119761000D01*
X129742000Y-106642070D01*
X133562960Y-106642070D01*
X133577920Y-106716277D01*
X133839550Y-107197026D01*
X134265239Y-107541059D01*
X134790180Y-107696000D01*
X135128000Y-107696000D01*
X135128000Y-106426000D01*
X135382000Y-106426000D01*
X135382000Y-107696000D01*
X135719820Y-107696000D01*
X136244761Y-107541059D01*
X136670450Y-107197026D01*
X136932080Y-106716277D01*
X136947040Y-106642070D01*
X136824540Y-106426000D01*
X135382000Y-106426000D01*
X135128000Y-106426000D01*
X133685460Y-106426000D01*
X133562960Y-106642070D01*
X129742000Y-106642070D01*
X129742000Y-99639000D01*
X133548543Y-103445543D01*
X133486193Y-103759000D01*
X133592533Y-104293609D01*
X133895365Y-104746828D01*
X134330606Y-105037647D01*
X134265239Y-105056941D01*
X133839550Y-105400974D01*
X133577920Y-105881723D01*
X133562960Y-105955930D01*
X133685460Y-106172000D01*
X135128000Y-106172000D01*
X135128000Y-106152000D01*
X135382000Y-106152000D01*
X135382000Y-106172000D01*
X136824540Y-106172000D01*
X136947040Y-105955930D01*
X136932080Y-105881723D01*
X136670450Y-105400974D01*
X136244761Y-105056941D01*
X136179394Y-105037647D01*
X136614635Y-104746828D01*
X136917467Y-104293609D01*
X137023807Y-103759000D01*
X136917467Y-103224391D01*
X136614635Y-102771172D01*
X136192336Y-102489000D01*
X136614635Y-102206828D01*
X136917467Y-101753609D01*
X137023807Y-101219000D01*
X136917467Y-100684391D01*
X136614635Y-100231172D01*
X136390870Y-100081657D01*
X136590137Y-100044162D01*
X136806261Y-99905090D01*
X136951251Y-99692890D01*
X137002260Y-99441000D01*
X137002260Y-97917000D01*
X136957982Y-97681683D01*
X136818910Y-97465559D01*
X136606710Y-97320569D01*
X136354820Y-97269560D01*
X134155180Y-97269560D01*
X133919863Y-97313838D01*
X133703739Y-97452910D01*
X133558749Y-97665110D01*
X133507740Y-97917000D01*
X133507740Y-98302940D01*
X133319000Y-98114200D01*
X133319000Y-76926525D01*
X133321828Y-76924635D01*
X133604000Y-76502336D01*
X133886172Y-76924635D01*
X134339391Y-77227467D01*
X134874000Y-77333807D01*
X135408609Y-77227467D01*
X135861828Y-76924635D01*
X136152647Y-76489394D01*
X136171941Y-76554761D01*
X136515974Y-76980450D01*
X136996723Y-77242080D01*
X137070930Y-77257040D01*
X137287000Y-77134540D01*
X137287000Y-75692000D01*
X137267000Y-75692000D01*
X137267000Y-75438000D01*
X137287000Y-75438000D01*
X137287000Y-75418000D01*
X137541000Y-75418000D01*
X137541000Y-75438000D01*
X137541000Y-75438000D01*
G37*
X137541000Y-75438000D02*
X137561000Y-75438000D01*
X137561000Y-75692000D01*
X137541000Y-75692000D01*
X137541000Y-77134540D01*
X137757070Y-77257040D01*
X137831277Y-77242080D01*
X138312026Y-76980450D01*
X138656059Y-76554761D01*
X138675353Y-76489394D01*
X138966172Y-76924635D01*
X139419391Y-77227467D01*
X139954000Y-77333807D01*
X140488609Y-77227467D01*
X140941828Y-76924635D01*
X141224000Y-76502336D01*
X141506172Y-76924635D01*
X141959391Y-77227467D01*
X142494000Y-77333807D01*
X143028609Y-77227467D01*
X143481828Y-76924635D01*
X143764000Y-76502336D01*
X144046172Y-76924635D01*
X144499391Y-77227467D01*
X145034000Y-77333807D01*
X145568609Y-77227467D01*
X146021828Y-76924635D01*
X146304000Y-76502336D01*
X146586172Y-76924635D01*
X147039391Y-77227467D01*
X147574000Y-77333807D01*
X148108609Y-77227467D01*
X148561828Y-76924635D01*
X148844000Y-76502336D01*
X149126172Y-76924635D01*
X149579391Y-77227467D01*
X150114000Y-77333807D01*
X150648609Y-77227467D01*
X151101828Y-76924635D01*
X151384000Y-76502336D01*
X151666172Y-76924635D01*
X152119391Y-77227467D01*
X152654000Y-77333807D01*
X153188609Y-77227467D01*
X153441200Y-77058691D01*
X153441200Y-77265300D01*
X153516179Y-77642243D01*
X153729700Y-77961800D01*
X157459000Y-81691100D01*
X157459000Y-122300439D01*
X157252609Y-122162533D01*
X156718000Y-122056193D01*
X156183391Y-122162533D01*
X155730172Y-122465365D01*
X155439353Y-122900606D01*
X155420059Y-122835239D01*
X155076026Y-122409550D01*
X154595277Y-122147920D01*
X154521070Y-122132960D01*
X154305000Y-122255460D01*
X154305000Y-123698000D01*
X154325000Y-123698000D01*
X154325000Y-123952000D01*
X154305000Y-123952000D01*
X154305000Y-125394540D01*
X154521070Y-125517040D01*
X154595277Y-125502080D01*
X155076026Y-125240450D01*
X155420059Y-124814761D01*
X155439353Y-124749394D01*
X155730172Y-125184635D01*
X156183391Y-125487467D01*
X156718000Y-125593807D01*
X157252609Y-125487467D01*
X157515283Y-125311953D01*
X157533979Y-125405943D01*
X157747500Y-125725500D01*
X164025092Y-132003092D01*
X163991328Y-132084405D01*
X163990674Y-132834305D01*
X164277043Y-133527372D01*
X164806839Y-134058093D01*
X165499405Y-134345672D01*
X166249305Y-134346326D01*
X166942372Y-134059957D01*
X167473093Y-133530161D01*
X167760672Y-132837595D01*
X167761326Y-132087695D01*
X167474957Y-131394628D01*
X166945161Y-130863907D01*
X166252595Y-130576328D01*
X165502695Y-130575674D01*
X165418474Y-130610474D01*
X163198800Y-128390800D01*
X165304800Y-128390800D01*
X168917092Y-132003092D01*
X168883328Y-132084405D01*
X168882674Y-132834305D01*
X169169043Y-133527372D01*
X169698839Y-134058093D01*
X170391405Y-134345672D01*
X171141305Y-134346326D01*
X171834372Y-134059957D01*
X172365093Y-133530161D01*
X172652672Y-132837595D01*
X172653326Y-132087695D01*
X172366957Y-131394628D01*
X171837161Y-130863907D01*
X171144595Y-130576328D01*
X170394695Y-130575674D01*
X170310474Y-130610474D01*
X166409300Y-126709300D01*
X166089743Y-126495779D01*
X165712800Y-126420800D01*
X163048900Y-126420800D01*
X162200360Y-125572260D01*
X162560000Y-125572260D01*
X162795317Y-125527982D01*
X163011441Y-125388910D01*
X163156431Y-125176710D01*
X163200260Y-124960276D01*
X163350172Y-125184635D01*
X163803391Y-125487467D01*
X164338000Y-125593807D01*
X164872609Y-125487467D01*
X165325828Y-125184635D01*
X165608000Y-124762336D01*
X165890172Y-125184635D01*
X166343391Y-125487467D01*
X166878000Y-125593807D01*
X167412609Y-125487467D01*
X167865828Y-125184635D01*
X168148000Y-124762336D01*
X168430172Y-125184635D01*
X168883391Y-125487467D01*
X169418000Y-125593807D01*
X169952609Y-125487467D01*
X170405828Y-125184635D01*
X170688000Y-124762336D01*
X170970172Y-125184635D01*
X171423391Y-125487467D01*
X171958000Y-125593807D01*
X172492609Y-125487467D01*
X172945828Y-125184635D01*
X173228000Y-124762336D01*
X173510172Y-125184635D01*
X173963391Y-125487467D01*
X174498000Y-125593807D01*
X174891000Y-125515635D01*
X174891000Y-130783796D01*
X174701628Y-130862043D01*
X174170907Y-131391839D01*
X173883328Y-132084405D01*
X173882674Y-132834305D01*
X174169043Y-133527372D01*
X174698839Y-134058093D01*
X175391405Y-134345672D01*
X176141305Y-134346326D01*
X176834372Y-134059957D01*
X177100472Y-133794320D01*
X179614285Y-133794320D01*
X179743533Y-134087123D01*
X180443806Y-134355388D01*
X181193435Y-134335250D01*
X181792467Y-134087123D01*
X181921715Y-133794320D01*
X180768000Y-132640605D01*
X179614285Y-133794320D01*
X177100472Y-133794320D01*
X177365093Y-133530161D01*
X177652672Y-132837595D01*
X177653283Y-132136806D01*
X178873612Y-132136806D01*
X178893750Y-132886435D01*
X179141877Y-133485467D01*
X179434680Y-133614715D01*
X180588395Y-132461000D01*
X180947605Y-132461000D01*
X182101320Y-133614715D01*
X182394123Y-133485467D01*
X182662388Y-132785194D01*
X182642250Y-132035565D01*
X182394123Y-131436533D01*
X182101320Y-131307285D01*
X180947605Y-132461000D01*
X180588395Y-132461000D01*
X179434680Y-131307285D01*
X179141877Y-131436533D01*
X178873612Y-132136806D01*
X177653283Y-132136806D01*
X177653326Y-132087695D01*
X177366957Y-131394628D01*
X177100475Y-131127680D01*
X179614285Y-131127680D01*
X180768000Y-132281395D01*
X181921715Y-131127680D01*
X181792467Y-130834877D01*
X181092194Y-130566612D01*
X180342565Y-130586750D01*
X179743533Y-130834877D01*
X179614285Y-131127680D01*
X177100475Y-131127680D01*
X176861000Y-130887788D01*
X176861000Y-121502200D01*
X176843024Y-121411831D01*
X177566172Y-121412462D01*
X178546761Y-121007291D01*
X179122000Y-120433056D01*
X179122000Y-125095000D01*
X179176046Y-125366705D01*
X179329954Y-125597046D01*
X180091954Y-126359046D01*
X180322295Y-126512954D01*
X180594000Y-126567000D01*
X183347908Y-126567000D01*
X183694000Y-126913092D01*
X183694000Y-137246908D01*
X183093908Y-137847000D01*
X123484091Y-137847000D01*
X122376000Y-136738908D01*
X122376000Y-132834305D01*
X124138674Y-132834305D01*
X124425043Y-133527372D01*
X124954839Y-134058093D01*
X125647405Y-134345672D01*
X126397305Y-134346326D01*
X126481526Y-134311526D01*
X127196800Y-135026800D01*
X127516357Y-135240321D01*
X127893300Y-135315300D01*
X131800400Y-135315300D01*
X132177343Y-135240321D01*
X132496900Y-135026800D01*
X133892800Y-133630900D01*
X134106321Y-133311343D01*
X134132793Y-133178260D01*
X134277043Y-133527372D01*
X134806839Y-134058093D01*
X135499405Y-134345672D01*
X136249305Y-134346326D01*
X136942372Y-134059957D01*
X137473093Y-133530161D01*
X137760672Y-132837595D01*
X137760674Y-132834305D01*
X138990674Y-132834305D01*
X139277043Y-133527372D01*
X139806839Y-134058093D01*
X140499405Y-134345672D01*
X141249305Y-134346326D01*
X141942372Y-134059957D01*
X142473093Y-133530161D01*
X142760672Y-132837595D01*
X142760674Y-132834305D01*
X143990674Y-132834305D01*
X144277043Y-133527372D01*
X144806839Y-134058093D01*
X145499405Y-134345672D01*
X146249305Y-134346326D01*
X146942372Y-134059957D01*
X147473093Y-133530161D01*
X147760672Y-132837595D01*
X147760674Y-132834305D01*
X148990674Y-132834305D01*
X149277043Y-133527372D01*
X149806839Y-134058093D01*
X150499405Y-134345672D01*
X151249305Y-134346326D01*
X151942372Y-134059957D01*
X152473093Y-133530161D01*
X152760672Y-132837595D01*
X152760674Y-132834305D01*
X153990674Y-132834305D01*
X154277043Y-133527372D01*
X154806839Y-134058093D01*
X155499405Y-134345672D01*
X156249305Y-134346326D01*
X156942372Y-134059957D01*
X157473093Y-133530161D01*
X157760672Y-132837595D01*
X157760674Y-132834305D01*
X158990674Y-132834305D01*
X159277043Y-133527372D01*
X159806839Y-134058093D01*
X160499405Y-134345672D01*
X161249305Y-134346326D01*
X161942372Y-134059957D01*
X162473093Y-133530161D01*
X162760672Y-132837595D01*
X162761326Y-132087695D01*
X162474957Y-131394628D01*
X161945161Y-130863907D01*
X161252595Y-130576328D01*
X160502695Y-130575674D01*
X159809628Y-130862043D01*
X159278907Y-131391839D01*
X158991328Y-132084405D01*
X158990674Y-132834305D01*
X157760674Y-132834305D01*
X157761326Y-132087695D01*
X157474957Y-131394628D01*
X156945161Y-130863907D01*
X156252595Y-130576328D01*
X155502695Y-130575674D01*
X154809628Y-130862043D01*
X154278907Y-131391839D01*
X153991328Y-132084405D01*
X153990674Y-132834305D01*
X152760674Y-132834305D01*
X152761326Y-132087695D01*
X152474957Y-131394628D01*
X151945161Y-130863907D01*
X151252595Y-130576328D01*
X150502695Y-130575674D01*
X149809628Y-130862043D01*
X149278907Y-131391839D01*
X148991328Y-132084405D01*
X148990674Y-132834305D01*
X147760674Y-132834305D01*
X147761326Y-132087695D01*
X147474957Y-131394628D01*
X146945161Y-130863907D01*
X146252595Y-130576328D01*
X145502695Y-130575674D01*
X144809628Y-130862043D01*
X144278907Y-131391839D01*
X143991328Y-132084405D01*
X143990674Y-132834305D01*
X142760674Y-132834305D01*
X142761326Y-132087695D01*
X142474957Y-131394628D01*
X141945161Y-130863907D01*
X141252595Y-130576328D01*
X140502695Y-130575674D01*
X139809628Y-130862043D01*
X139278907Y-131391839D01*
X138991328Y-132084405D01*
X138990674Y-132834305D01*
X137760674Y-132834305D01*
X137761326Y-132087695D01*
X137474957Y-131394628D01*
X136945161Y-130863907D01*
X136444843Y-130656157D01*
X137496200Y-129604800D01*
X144303200Y-129604800D01*
X144680143Y-129529821D01*
X144999700Y-129316300D01*
X148784543Y-125531457D01*
X149098000Y-125593807D01*
X149632609Y-125487467D01*
X150085828Y-125184635D01*
X150376647Y-124749394D01*
X150395941Y-124814761D01*
X150739974Y-125240450D01*
X151220723Y-125502080D01*
X151294930Y-125517040D01*
X151511000Y-125394540D01*
X151511000Y-123952000D01*
X151765000Y-123952000D01*
X151765000Y-125394540D01*
X151981070Y-125517040D01*
X152055277Y-125502080D01*
X152536026Y-125240450D01*
X152880059Y-124814761D01*
X152908000Y-124720097D01*
X152935941Y-124814761D01*
X153279974Y-125240450D01*
X153760723Y-125502080D01*
X153834930Y-125517040D01*
X154051000Y-125394540D01*
X154051000Y-123952000D01*
X151765000Y-123952000D01*
X151511000Y-123952000D01*
X151491000Y-123952000D01*
X151491000Y-123698000D01*
X151511000Y-123698000D01*
X151511000Y-122255460D01*
X151765000Y-122255460D01*
X151765000Y-123698000D01*
X154051000Y-123698000D01*
X154051000Y-122255460D01*
X153834930Y-122132960D01*
X153760723Y-122147920D01*
X153279974Y-122409550D01*
X152935941Y-122835239D01*
X152908000Y-122929903D01*
X152880059Y-122835239D01*
X152536026Y-122409550D01*
X152055277Y-122147920D01*
X151981070Y-122132960D01*
X151765000Y-122255460D01*
X151511000Y-122255460D01*
X151294930Y-122132960D01*
X151220723Y-122147920D01*
X150739974Y-122409550D01*
X150395941Y-122835239D01*
X150376647Y-122900606D01*
X150085828Y-122465365D01*
X149632609Y-122162533D01*
X149098000Y-122056193D01*
X148563391Y-122162533D01*
X148110172Y-122465365D01*
X147828000Y-122887664D01*
X147545828Y-122465365D01*
X147092609Y-122162533D01*
X146558000Y-122056193D01*
X146023391Y-122162533D01*
X145570172Y-122465365D01*
X145288000Y-122887664D01*
X145005828Y-122465365D01*
X144552609Y-122162533D01*
X144018000Y-122056193D01*
X143483391Y-122162533D01*
X143030172Y-122465365D01*
X142748000Y-122887664D01*
X142465828Y-122465365D01*
X142012609Y-122162533D01*
X141478000Y-122056193D01*
X140943391Y-122162533D01*
X140490172Y-122465365D01*
X140340657Y-122689130D01*
X140303162Y-122489863D01*
X140164090Y-122273739D01*
X139951890Y-122128749D01*
X139700000Y-122077740D01*
X138176000Y-122077740D01*
X137940683Y-122122018D01*
X137724559Y-122261090D01*
X137579569Y-122473290D01*
X137528560Y-122725180D01*
X137528560Y-124924820D01*
X137572838Y-125160137D01*
X137711910Y-125376261D01*
X137924110Y-125521251D01*
X138176000Y-125572260D01*
X139700000Y-125572260D01*
X139935317Y-125527982D01*
X140151441Y-125388910D01*
X140296431Y-125176710D01*
X140340260Y-124960276D01*
X140490172Y-125184635D01*
X140943391Y-125487467D01*
X141478000Y-125593807D01*
X142012609Y-125487467D01*
X142465828Y-125184635D01*
X142748000Y-124762336D01*
X143030172Y-125184635D01*
X143483391Y-125487467D01*
X144018000Y-125593807D01*
X144552609Y-125487467D01*
X145005828Y-125184635D01*
X145288000Y-124762336D01*
X145570172Y-125184635D01*
X146023391Y-125487467D01*
X146039357Y-125490643D01*
X143895200Y-127634800D01*
X137088200Y-127634800D01*
X136711257Y-127709779D01*
X136391700Y-127923300D01*
X132717003Y-131597997D01*
X132650123Y-131436533D01*
X132357320Y-131307285D01*
X131203605Y-132461000D01*
X131217748Y-132475143D01*
X131038143Y-132654748D01*
X131024000Y-132640605D01*
X131009858Y-132654748D01*
X130830253Y-132475143D01*
X130844395Y-132461000D01*
X129690680Y-131307285D01*
X129397877Y-131436533D01*
X129129612Y-132136806D01*
X129149750Y-132886435D01*
X129339818Y-133345300D01*
X128301300Y-133345300D01*
X127874908Y-132918908D01*
X127908672Y-132837595D01*
X127909326Y-132087695D01*
X127622957Y-131394628D01*
X127356475Y-131127680D01*
X129870285Y-131127680D01*
X131024000Y-132281395D01*
X132177715Y-131127680D01*
X132048467Y-130834877D01*
X131348194Y-130566612D01*
X130598565Y-130586750D01*
X129999533Y-130834877D01*
X129870285Y-131127680D01*
X127356475Y-131127680D01*
X127093161Y-130863907D01*
X126400595Y-130576328D01*
X125650695Y-130575674D01*
X124957628Y-130862043D01*
X124426907Y-131391839D01*
X124139328Y-132084405D01*
X124138674Y-132834305D01*
X122376000Y-132834305D01*
X122376000Y-124535804D01*
X122705709Y-125333761D01*
X123455293Y-126084655D01*
X124435173Y-126491536D01*
X125496172Y-126492462D01*
X126476761Y-126087291D01*
X127227655Y-125337707D01*
X127634536Y-124357827D01*
X127635462Y-123296828D01*
X127230291Y-122316239D01*
X126480707Y-121565345D01*
X126292031Y-121487000D01*
X128016000Y-121487000D01*
X128287705Y-121432954D01*
X128518046Y-121279046D01*
X129534046Y-120263046D01*
X129687954Y-120032705D01*
X129742000Y-119761000D01*
X129742000Y-106642070D01*
X133562960Y-106642070D01*
X133577920Y-106716277D01*
X133839550Y-107197026D01*
X134265239Y-107541059D01*
X134790180Y-107696000D01*
X135128000Y-107696000D01*
X135128000Y-106426000D01*
X135382000Y-106426000D01*
X135382000Y-107696000D01*
X135719820Y-107696000D01*
X136244761Y-107541059D01*
X136670450Y-107197026D01*
X136932080Y-106716277D01*
X136947040Y-106642070D01*
X136824540Y-106426000D01*
X135382000Y-106426000D01*
X135128000Y-106426000D01*
X133685460Y-106426000D01*
X133562960Y-106642070D01*
X129742000Y-106642070D01*
X129742000Y-99639000D01*
X133548543Y-103445543D01*
X133486193Y-103759000D01*
X133592533Y-104293609D01*
X133895365Y-104746828D01*
X134330606Y-105037647D01*
X134265239Y-105056941D01*
X133839550Y-105400974D01*
X133577920Y-105881723D01*
X133562960Y-105955930D01*
X133685460Y-106172000D01*
X135128000Y-106172000D01*
X135128000Y-106152000D01*
X135382000Y-106152000D01*
X135382000Y-106172000D01*
X136824540Y-106172000D01*
X136947040Y-105955930D01*
X136932080Y-105881723D01*
X136670450Y-105400974D01*
X136244761Y-105056941D01*
X136179394Y-105037647D01*
X136614635Y-104746828D01*
X136917467Y-104293609D01*
X137023807Y-103759000D01*
X136917467Y-103224391D01*
X136614635Y-102771172D01*
X136192336Y-102489000D01*
X136614635Y-102206828D01*
X136917467Y-101753609D01*
X137023807Y-101219000D01*
X136917467Y-100684391D01*
X136614635Y-100231172D01*
X136390870Y-100081657D01*
X136590137Y-100044162D01*
X136806261Y-99905090D01*
X136951251Y-99692890D01*
X137002260Y-99441000D01*
X137002260Y-97917000D01*
X136957982Y-97681683D01*
X136818910Y-97465559D01*
X136606710Y-97320569D01*
X136354820Y-97269560D01*
X134155180Y-97269560D01*
X133919863Y-97313838D01*
X133703739Y-97452910D01*
X133558749Y-97665110D01*
X133507740Y-97917000D01*
X133507740Y-98302940D01*
X133319000Y-98114200D01*
X133319000Y-76926525D01*
X133321828Y-76924635D01*
X133604000Y-76502336D01*
X133886172Y-76924635D01*
X134339391Y-77227467D01*
X134874000Y-77333807D01*
X135408609Y-77227467D01*
X135861828Y-76924635D01*
X136152647Y-76489394D01*
X136171941Y-76554761D01*
X136515974Y-76980450D01*
X136996723Y-77242080D01*
X137070930Y-77257040D01*
X137287000Y-77134540D01*
X137287000Y-75692000D01*
X137267000Y-75692000D01*
X137267000Y-75438000D01*
X137287000Y-75438000D01*
X137287000Y-75418000D01*
X137541000Y-75418000D01*
X137541000Y-75438000D01*
G36*
X173510172Y-76924635D02*
X173513000Y-76926525D01*
X173513000Y-77054285D01*
X173495579Y-77080357D01*
X173420600Y-77457300D01*
X173420600Y-96234411D01*
X173164320Y-96121285D01*
X172010605Y-97275000D01*
X173164320Y-98428715D01*
X173420600Y-98315589D01*
X173420600Y-101199255D01*
X172900161Y-100677907D01*
X172207595Y-100390328D01*
X171457695Y-100389674D01*
X170764628Y-100676043D01*
X170233907Y-101205839D01*
X169946328Y-101898405D01*
X169945674Y-102648305D01*
X170232043Y-103341372D01*
X170761839Y-103872093D01*
X171454405Y-104159672D01*
X172204305Y-104160326D01*
X172897372Y-103873957D01*
X173420600Y-103351641D01*
X173420600Y-106199255D01*
X172900161Y-105677907D01*
X172207595Y-105390328D01*
X171457695Y-105389674D01*
X170764628Y-105676043D01*
X170233907Y-106205839D01*
X169946328Y-106898405D01*
X169945674Y-107648305D01*
X170232043Y-108341372D01*
X170761839Y-108872093D01*
X171454405Y-109159672D01*
X172204305Y-109160326D01*
X172897372Y-108873957D01*
X173420600Y-108351641D01*
X173420600Y-111199255D01*
X172900161Y-110677907D01*
X172207595Y-110390328D01*
X171457695Y-110389674D01*
X170764628Y-110676043D01*
X170233907Y-111205839D01*
X169946328Y-111898405D01*
X169945674Y-112648305D01*
X170232043Y-113341372D01*
X170761839Y-113872093D01*
X171454405Y-114159672D01*
X172204305Y-114160326D01*
X172897372Y-113873957D01*
X173420600Y-113351641D01*
X173420600Y-120031800D01*
X173495579Y-120408743D01*
X173709100Y-120728300D01*
X174891000Y-121910200D01*
X174891000Y-122134365D01*
X174498000Y-122056193D01*
X173963391Y-122162533D01*
X173510172Y-122465365D01*
X173228000Y-122887664D01*
X172945828Y-122465365D01*
X172492609Y-122162533D01*
X171958000Y-122056193D01*
X171423391Y-122162533D01*
X170970172Y-122465365D01*
X170688000Y-122887664D01*
X170405828Y-122465365D01*
X169952609Y-122162533D01*
X169418000Y-122056193D01*
X168883391Y-122162533D01*
X168430172Y-122465365D01*
X168148000Y-122887664D01*
X167865828Y-122465365D01*
X167412609Y-122162533D01*
X166878000Y-122056193D01*
X166343391Y-122162533D01*
X165890172Y-122465365D01*
X165608000Y-122887664D01*
X165325828Y-122465365D01*
X164872609Y-122162533D01*
X164338000Y-122056193D01*
X163803391Y-122162533D01*
X163350172Y-122465365D01*
X163200657Y-122689130D01*
X163163162Y-122489863D01*
X163024090Y-122273739D01*
X162811890Y-122128749D01*
X162560000Y-122077740D01*
X161415100Y-122077740D01*
X161415100Y-98608320D01*
X170677285Y-98608320D01*
X170806533Y-98901123D01*
X171506806Y-99169388D01*
X172256435Y-99149250D01*
X172855467Y-98901123D01*
X172984715Y-98608320D01*
X171831000Y-97454605D01*
X170677285Y-98608320D01*
X161415100Y-98608320D01*
X161415100Y-96950806D01*
X169936612Y-96950806D01*
X169956750Y-97700435D01*
X170204877Y-98299467D01*
X170497680Y-98428715D01*
X171651395Y-97275000D01*
X170497680Y-96121285D01*
X170204877Y-96250533D01*
X169936612Y-96950806D01*
X161415100Y-96950806D01*
X161415100Y-95941680D01*
X170677285Y-95941680D01*
X171831000Y-97095395D01*
X172984715Y-95941680D01*
X172855467Y-95648877D01*
X172155194Y-95380612D01*
X171405565Y-95400750D01*
X170806533Y-95648877D01*
X170677285Y-95941680D01*
X161415100Y-95941680D01*
X161415100Y-87500900D01*
X171644544Y-77271457D01*
X171958000Y-77333807D01*
X172492609Y-77227467D01*
X172945828Y-76924635D01*
X173228000Y-76502336D01*
X173510172Y-76924635D01*
X173510172Y-76924635D01*
G37*
X173510172Y-76924635D02*
X173513000Y-76926525D01*
X173513000Y-77054285D01*
X173495579Y-77080357D01*
X173420600Y-77457300D01*
X173420600Y-96234411D01*
X173164320Y-96121285D01*
X172010605Y-97275000D01*
X173164320Y-98428715D01*
X173420600Y-98315589D01*
X173420600Y-101199255D01*
X172900161Y-100677907D01*
X172207595Y-100390328D01*
X171457695Y-100389674D01*
X170764628Y-100676043D01*
X170233907Y-101205839D01*
X169946328Y-101898405D01*
X169945674Y-102648305D01*
X170232043Y-103341372D01*
X170761839Y-103872093D01*
X171454405Y-104159672D01*
X172204305Y-104160326D01*
X172897372Y-103873957D01*
X173420600Y-103351641D01*
X173420600Y-106199255D01*
X172900161Y-105677907D01*
X172207595Y-105390328D01*
X171457695Y-105389674D01*
X170764628Y-105676043D01*
X170233907Y-106205839D01*
X169946328Y-106898405D01*
X169945674Y-107648305D01*
X170232043Y-108341372D01*
X170761839Y-108872093D01*
X171454405Y-109159672D01*
X172204305Y-109160326D01*
X172897372Y-108873957D01*
X173420600Y-108351641D01*
X173420600Y-111199255D01*
X172900161Y-110677907D01*
X172207595Y-110390328D01*
X171457695Y-110389674D01*
X170764628Y-110676043D01*
X170233907Y-111205839D01*
X169946328Y-111898405D01*
X169945674Y-112648305D01*
X170232043Y-113341372D01*
X170761839Y-113872093D01*
X171454405Y-114159672D01*
X172204305Y-114160326D01*
X172897372Y-113873957D01*
X173420600Y-113351641D01*
X173420600Y-120031800D01*
X173495579Y-120408743D01*
X173709100Y-120728300D01*
X174891000Y-121910200D01*
X174891000Y-122134365D01*
X174498000Y-122056193D01*
X173963391Y-122162533D01*
X173510172Y-122465365D01*
X173228000Y-122887664D01*
X172945828Y-122465365D01*
X172492609Y-122162533D01*
X171958000Y-122056193D01*
X171423391Y-122162533D01*
X170970172Y-122465365D01*
X170688000Y-122887664D01*
X170405828Y-122465365D01*
X169952609Y-122162533D01*
X169418000Y-122056193D01*
X168883391Y-122162533D01*
X168430172Y-122465365D01*
X168148000Y-122887664D01*
X167865828Y-122465365D01*
X167412609Y-122162533D01*
X166878000Y-122056193D01*
X166343391Y-122162533D01*
X165890172Y-122465365D01*
X165608000Y-122887664D01*
X165325828Y-122465365D01*
X164872609Y-122162533D01*
X164338000Y-122056193D01*
X163803391Y-122162533D01*
X163350172Y-122465365D01*
X163200657Y-122689130D01*
X163163162Y-122489863D01*
X163024090Y-122273739D01*
X162811890Y-122128749D01*
X162560000Y-122077740D01*
X161415100Y-122077740D01*
X161415100Y-98608320D01*
X170677285Y-98608320D01*
X170806533Y-98901123D01*
X171506806Y-99169388D01*
X172256435Y-99149250D01*
X172855467Y-98901123D01*
X172984715Y-98608320D01*
X171831000Y-97454605D01*
X170677285Y-98608320D01*
X161415100Y-98608320D01*
X161415100Y-96950806D01*
X169936612Y-96950806D01*
X169956750Y-97700435D01*
X170204877Y-98299467D01*
X170497680Y-98428715D01*
X171651395Y-97275000D01*
X170497680Y-96121285D01*
X170204877Y-96250533D01*
X169936612Y-96950806D01*
X161415100Y-96950806D01*
X161415100Y-95941680D01*
X170677285Y-95941680D01*
X171831000Y-97095395D01*
X172984715Y-95941680D01*
X172855467Y-95648877D01*
X172155194Y-95380612D01*
X171405565Y-95400750D01*
X170806533Y-95648877D01*
X170677285Y-95941680D01*
X161415100Y-95941680D01*
X161415100Y-87500900D01*
X171644544Y-77271457D01*
X171958000Y-77333807D01*
X172492609Y-77227467D01*
X172945828Y-76924635D01*
X173228000Y-76502336D01*
X173510172Y-76924635D01*
M02*
