G04 #@! TF.FileFunction,Legend,Bot*
%FSLAX46Y46*%
G04 Gerber Fmt 4.6, Leading zero omitted, Abs format (unit mm)*
G04 Created by KiCad (PCBNEW 4.0.6) date 05/21/18 12:18:21*
%MOMM*%
%LPD*%
G01*
G04 APERTURE LIST*
%ADD10C,0.100000*%
%ADD11C,0.304800*%
%ADD12C,0.203200*%
G04 APERTURE END LIST*
D10*
D11*
X131064000Y-76835000D02*
X131064000Y-74295000D01*
X128524000Y-76835000D02*
X153924000Y-76835000D01*
X153924000Y-76835000D02*
X153924000Y-74295000D01*
X153924000Y-74295000D02*
X128524000Y-74295000D01*
X128524000Y-74295000D02*
X128524000Y-76835000D01*
X140208000Y-125095000D02*
X140208000Y-122555000D01*
X137668000Y-125095000D02*
X157988000Y-125095000D01*
X157988000Y-125095000D02*
X157988000Y-122555000D01*
X157988000Y-122555000D02*
X137668000Y-122555000D01*
X137668000Y-122555000D02*
X137668000Y-125095000D01*
X163068000Y-125095000D02*
X163068000Y-122555000D01*
X160528000Y-122555000D02*
X160528000Y-125095000D01*
X160528000Y-125095000D02*
X175768000Y-125095000D01*
X175768000Y-125095000D02*
X175768000Y-122555000D01*
X175768000Y-122555000D02*
X160528000Y-122555000D01*
X157988000Y-76835000D02*
X157988000Y-74295000D01*
X155448000Y-76835000D02*
X175768000Y-76835000D01*
X175768000Y-76835000D02*
X175768000Y-74295000D01*
X175768000Y-74295000D02*
X155448000Y-74295000D01*
X155448000Y-74295000D02*
X155448000Y-76835000D01*
D12*
X141973904Y-78183619D02*
X141973904Y-77167619D01*
X141586857Y-77167619D01*
X141490095Y-77216000D01*
X141441714Y-77264381D01*
X141393333Y-77361143D01*
X141393333Y-77506286D01*
X141441714Y-77603048D01*
X141490095Y-77651429D01*
X141586857Y-77699810D01*
X141973904Y-77699810D01*
X141054666Y-77167619D02*
X140425714Y-77167619D01*
X140764380Y-77554667D01*
X140619238Y-77554667D01*
X140522476Y-77603048D01*
X140474095Y-77651429D01*
X140425714Y-77748190D01*
X140425714Y-77990095D01*
X140474095Y-78086857D01*
X140522476Y-78135238D01*
X140619238Y-78183619D01*
X140909523Y-78183619D01*
X141006285Y-78135238D01*
X141054666Y-78086857D01*
X148577904Y-121744619D02*
X148577904Y-120728619D01*
X148190857Y-120728619D01*
X148094095Y-120777000D01*
X148045714Y-120825381D01*
X147997333Y-120922143D01*
X147997333Y-121067286D01*
X148045714Y-121164048D01*
X148094095Y-121212429D01*
X148190857Y-121260810D01*
X148577904Y-121260810D01*
X147029714Y-121744619D02*
X147610285Y-121744619D01*
X147319999Y-121744619D02*
X147319999Y-120728619D01*
X147416761Y-120873762D01*
X147513523Y-120970524D01*
X147610285Y-121018905D01*
X169151904Y-121998619D02*
X169151904Y-120982619D01*
X168764857Y-120982619D01*
X168668095Y-121031000D01*
X168619714Y-121079381D01*
X168571333Y-121176143D01*
X168571333Y-121321286D01*
X168619714Y-121418048D01*
X168668095Y-121466429D01*
X168764857Y-121514810D01*
X169151904Y-121514810D01*
X168184285Y-121079381D02*
X168135904Y-121031000D01*
X168039142Y-120982619D01*
X167797238Y-120982619D01*
X167700476Y-121031000D01*
X167652095Y-121079381D01*
X167603714Y-121176143D01*
X167603714Y-121272905D01*
X167652095Y-121418048D01*
X168232666Y-121998619D01*
X167603714Y-121998619D01*
X166357904Y-78183619D02*
X166357904Y-77167619D01*
X165970857Y-77167619D01*
X165874095Y-77216000D01*
X165825714Y-77264381D01*
X165777333Y-77361143D01*
X165777333Y-77506286D01*
X165825714Y-77603048D01*
X165874095Y-77651429D01*
X165970857Y-77699810D01*
X166357904Y-77699810D01*
X164906476Y-77506286D02*
X164906476Y-78183619D01*
X165148380Y-77119238D02*
X165390285Y-77844952D01*
X164761333Y-77844952D01*
M02*
