G04 #@! TF.FileFunction,Copper,L2,Bot,Signal*
%FSLAX46Y46*%
G04 Gerber Fmt 4.6, Leading zero omitted, Abs format (unit mm)*
G04 Created by KiCad (PCBNEW 4.0.6) date 05/21/18 12:18:21*
%MOMM*%
%LPD*%
G01*
G04 APERTURE LIST*
%ADD10C,0.100000*%
%ADD11C,4.064000*%
%ADD12C,2.500000*%
%ADD13R,1.524000X2.199640*%
%ADD14O,1.524000X2.199640*%
%ADD15R,2.199640X1.524000*%
%ADD16O,2.199640X1.524000*%
%ADD17C,0.600000*%
%ADD18C,0.700000*%
%ADD19C,0.254000*%
G04 APERTURE END LIST*
D10*
D11*
X177038000Y-90805000D03*
X177038000Y-118745000D03*
D12*
X165876000Y-132461000D03*
X160876000Y-132461000D03*
X155876000Y-132461000D03*
X150876000Y-132461000D03*
X145876000Y-132461000D03*
X135876000Y-132461000D03*
X140876000Y-132461000D03*
D11*
X124968000Y-123825000D03*
X126238000Y-75565000D03*
D12*
X171831000Y-97275000D03*
X171831000Y-102275000D03*
X171831000Y-112275000D03*
X171831000Y-107275000D03*
X126024000Y-132461000D03*
X131024000Y-132461000D03*
D13*
X129794000Y-75565000D03*
D14*
X132334000Y-75565000D03*
X134874000Y-75565000D03*
X137414000Y-75565000D03*
X139954000Y-75565000D03*
X142494000Y-75565000D03*
X145034000Y-75565000D03*
X147574000Y-75565000D03*
X150114000Y-75565000D03*
X152654000Y-75565000D03*
D13*
X138938000Y-123825000D03*
D14*
X141478000Y-123825000D03*
X144018000Y-123825000D03*
X146558000Y-123825000D03*
X149098000Y-123825000D03*
X151638000Y-123825000D03*
X154178000Y-123825000D03*
X156718000Y-123825000D03*
D13*
X161798000Y-123825000D03*
D14*
X164338000Y-123825000D03*
X166878000Y-123825000D03*
X169418000Y-123825000D03*
X171958000Y-123825000D03*
X174498000Y-123825000D03*
D13*
X156718000Y-75565000D03*
D14*
X159258000Y-75565000D03*
X161798000Y-75565000D03*
X164338000Y-75565000D03*
X166878000Y-75565000D03*
X169418000Y-75565000D03*
X171958000Y-75565000D03*
X174498000Y-75565000D03*
D12*
X180768000Y-132461000D03*
X170768000Y-132461000D03*
X175768000Y-132461000D03*
D15*
X135255000Y-98679000D03*
D16*
X135255000Y-101219000D03*
X135255000Y-103759000D03*
X135255000Y-106299000D03*
D17*
X159437100Y-122458400D03*
D18*
X149098000Y-123825000D02*
X149098000Y-122312500D01*
X148805300Y-122124700D02*
X149098000Y-122124700D01*
X133554700Y-106874100D02*
X148805300Y-122124700D01*
X133554700Y-100379300D02*
X133554700Y-106874100D01*
X135255000Y-98679000D02*
X133554700Y-100379300D01*
X149098000Y-122312500D02*
X149098000Y-122124700D01*
X158947700Y-112275000D02*
X171831000Y-112275000D01*
X149098000Y-122124700D02*
X158947700Y-112275000D01*
X151638000Y-123825000D02*
X153100000Y-123825000D01*
X154178000Y-123825000D02*
X153100000Y-123825000D01*
X156911100Y-121091900D02*
X154178000Y-123825000D01*
X174376300Y-121091900D02*
X156911100Y-121091900D01*
X180768000Y-127483600D02*
X174376300Y-121091900D01*
X180768000Y-132461000D02*
X180768000Y-127483600D01*
X174659600Y-100103600D02*
X171831000Y-97275000D01*
X174659600Y-109026200D02*
X174659600Y-100103600D01*
X174376300Y-109309500D02*
X174659600Y-109026200D01*
X174376300Y-121091900D02*
X174376300Y-109309500D01*
X136739000Y-102275000D02*
X171831000Y-102275000D01*
X135255000Y-103759000D02*
X136739000Y-102275000D01*
X173709200Y-105396800D02*
X171831000Y-107275000D01*
X173709200Y-101532100D02*
X173709200Y-105396800D01*
X172593100Y-100416000D02*
X173709200Y-101532100D01*
X137857900Y-100416000D02*
X172593100Y-100416000D01*
X137054900Y-101219000D02*
X137857900Y-100416000D01*
X135255000Y-101219000D02*
X137054900Y-101219000D01*
X130686300Y-127271300D02*
X135876000Y-132461000D01*
X130686300Y-97810400D02*
X130686300Y-127271300D01*
X136559600Y-91937100D02*
X130686300Y-97810400D01*
X138883900Y-91937100D02*
X136559600Y-91937100D01*
X155256000Y-75565000D02*
X138883900Y-91937100D01*
X156718000Y-75565000D02*
X155256000Y-75565000D01*
X131653800Y-123238800D02*
X140876000Y-132461000D01*
X131653800Y-98216900D02*
X131653800Y-123238800D01*
X135580000Y-94290700D02*
X131653800Y-98216900D01*
X140756600Y-94290700D02*
X135580000Y-94290700D01*
X159258000Y-75789300D02*
X140756600Y-94290700D01*
X159258000Y-75565000D02*
X159258000Y-75789300D01*
X140046400Y-97316600D02*
X161798000Y-75565000D01*
X133898200Y-97316600D02*
X140046400Y-97316600D01*
X132604200Y-98610600D02*
X133898200Y-97316600D01*
X132604200Y-120206000D02*
X132604200Y-98610600D01*
X144859200Y-132461000D02*
X132604200Y-120206000D01*
X145876000Y-132461000D02*
X144859200Y-132461000D01*
X159385600Y-123951400D02*
X150876000Y-132461000D01*
X159385600Y-122509900D02*
X159385600Y-123951400D01*
X159437100Y-122458400D02*
X159385600Y-122509900D01*
X160336000Y-128001000D02*
X155876000Y-132461000D01*
X160336000Y-123825000D02*
X160336000Y-128001000D01*
X161798000Y-123825000D02*
X160336000Y-123825000D01*
X164338000Y-128999000D02*
X160876000Y-132461000D01*
X164338000Y-123825000D02*
X164338000Y-128999000D01*
D19*
G36*
X175820000Y-86233000D02*
X175874046Y-86504705D01*
X176027954Y-86735046D01*
X176916954Y-87624046D01*
X177147295Y-87777954D01*
X177419000Y-87832000D01*
X178648908Y-87832000D01*
X179122000Y-88305092D01*
X179122000Y-89117636D01*
X178550707Y-88545345D01*
X177570827Y-88138464D01*
X176509828Y-88137538D01*
X175529239Y-88542709D01*
X174778345Y-89292293D01*
X174371464Y-90272173D01*
X174370538Y-91333172D01*
X174775709Y-92313761D01*
X175525293Y-93064655D01*
X176505173Y-93471536D01*
X177566172Y-93472462D01*
X178546761Y-93067291D01*
X179122000Y-92493056D01*
X179122000Y-117057636D01*
X178550707Y-116485345D01*
X177570827Y-116078464D01*
X176509828Y-116077538D01*
X175529239Y-116482709D01*
X174778345Y-117232293D01*
X174371464Y-118212173D01*
X174370538Y-119273172D01*
X174775709Y-120253761D01*
X175525293Y-121004655D01*
X176505173Y-121411536D01*
X177566172Y-121412462D01*
X178546761Y-121007291D01*
X179122000Y-120433056D01*
X179122000Y-125095000D01*
X179176046Y-125366705D01*
X179329954Y-125597046D01*
X180091954Y-126359046D01*
X180322295Y-126512954D01*
X180594000Y-126567000D01*
X183347908Y-126567000D01*
X183694000Y-126913092D01*
X183694000Y-137246908D01*
X183093908Y-137847000D01*
X123484091Y-137847000D01*
X122376000Y-136738908D01*
X122376000Y-132834305D01*
X124138674Y-132834305D01*
X124425043Y-133527372D01*
X124954839Y-134058093D01*
X125647405Y-134345672D01*
X126397305Y-134346326D01*
X127090372Y-134059957D01*
X127356472Y-133794320D01*
X129870285Y-133794320D01*
X129999533Y-134087123D01*
X130699806Y-134355388D01*
X131449435Y-134335250D01*
X132048467Y-134087123D01*
X132177715Y-133794320D01*
X131024000Y-132640605D01*
X129870285Y-133794320D01*
X127356472Y-133794320D01*
X127621093Y-133530161D01*
X127908672Y-132837595D01*
X127909283Y-132136806D01*
X129129612Y-132136806D01*
X129149750Y-132886435D01*
X129397877Y-133485467D01*
X129690680Y-133614715D01*
X130844395Y-132461000D01*
X131203605Y-132461000D01*
X132357320Y-133614715D01*
X132650123Y-133485467D01*
X132918388Y-132785194D01*
X132898250Y-132035565D01*
X132650123Y-131436533D01*
X132357320Y-131307285D01*
X131203605Y-132461000D01*
X130844395Y-132461000D01*
X129690680Y-131307285D01*
X129397877Y-131436533D01*
X129129612Y-132136806D01*
X127909283Y-132136806D01*
X127909326Y-132087695D01*
X127622957Y-131394628D01*
X127356475Y-131127680D01*
X129870285Y-131127680D01*
X131024000Y-132281395D01*
X132177715Y-131127680D01*
X132048467Y-130834877D01*
X131348194Y-130566612D01*
X130598565Y-130586750D01*
X129999533Y-130834877D01*
X129870285Y-131127680D01*
X127356475Y-131127680D01*
X127093161Y-130863907D01*
X126400595Y-130576328D01*
X125650695Y-130575674D01*
X124957628Y-130862043D01*
X124426907Y-131391839D01*
X124139328Y-132084405D01*
X124138674Y-132834305D01*
X122376000Y-132834305D01*
X122376000Y-124535804D01*
X122705709Y-125333761D01*
X123455293Y-126084655D01*
X124435173Y-126491536D01*
X125496172Y-126492462D01*
X126476761Y-126087291D01*
X127227655Y-125337707D01*
X127634536Y-124357827D01*
X127635462Y-123296828D01*
X127230291Y-122316239D01*
X126480707Y-121565345D01*
X126292031Y-121487000D01*
X128016000Y-121487000D01*
X128287705Y-121432954D01*
X128518046Y-121279046D01*
X129534046Y-120263046D01*
X129687954Y-120032705D01*
X129701300Y-119965611D01*
X129701300Y-127271300D01*
X129776279Y-127648243D01*
X129989800Y-127967800D01*
X134025092Y-132003092D01*
X133991328Y-132084405D01*
X133990674Y-132834305D01*
X134277043Y-133527372D01*
X134806839Y-134058093D01*
X135499405Y-134345672D01*
X136249305Y-134346326D01*
X136942372Y-134059957D01*
X137473093Y-133530161D01*
X137760672Y-132837595D01*
X137761326Y-132087695D01*
X137474957Y-131394628D01*
X136945161Y-130863907D01*
X136252595Y-130576328D01*
X135502695Y-130575674D01*
X135418474Y-130610474D01*
X131671300Y-126863300D01*
X131671300Y-124649300D01*
X139025092Y-132003092D01*
X138991328Y-132084405D01*
X138990674Y-132834305D01*
X139277043Y-133527372D01*
X139806839Y-134058093D01*
X140499405Y-134345672D01*
X141249305Y-134346326D01*
X141942372Y-134059957D01*
X142473093Y-133530161D01*
X142760672Y-132837595D01*
X142761326Y-132087695D01*
X142527858Y-131522658D01*
X144097117Y-133091917D01*
X144277043Y-133527372D01*
X144806839Y-134058093D01*
X145499405Y-134345672D01*
X146249305Y-134346326D01*
X146942372Y-134059957D01*
X147473093Y-133530161D01*
X147760672Y-132837595D01*
X147760674Y-132834305D01*
X148990674Y-132834305D01*
X149277043Y-133527372D01*
X149806839Y-134058093D01*
X150499405Y-134345672D01*
X151249305Y-134346326D01*
X151942372Y-134059957D01*
X152473093Y-133530161D01*
X152760672Y-132837595D01*
X152761326Y-132087695D01*
X152726526Y-132003474D01*
X159351000Y-125379000D01*
X159351000Y-127592999D01*
X156333908Y-130610092D01*
X156252595Y-130576328D01*
X155502695Y-130575674D01*
X154809628Y-130862043D01*
X154278907Y-131391839D01*
X153991328Y-132084405D01*
X153990674Y-132834305D01*
X154277043Y-133527372D01*
X154806839Y-134058093D01*
X155499405Y-134345672D01*
X156249305Y-134346326D01*
X156942372Y-134059957D01*
X157473093Y-133530161D01*
X157760672Y-132837595D01*
X157761326Y-132087695D01*
X157726527Y-132003474D01*
X161032500Y-128697501D01*
X161246021Y-128377943D01*
X161321000Y-128001000D01*
X161321000Y-125572260D01*
X162560000Y-125572260D01*
X162795317Y-125527982D01*
X163011441Y-125388910D01*
X163156431Y-125176710D01*
X163200260Y-124960276D01*
X163350172Y-125184635D01*
X163353000Y-125186525D01*
X163353000Y-128591000D01*
X161333908Y-130610092D01*
X161252595Y-130576328D01*
X160502695Y-130575674D01*
X159809628Y-130862043D01*
X159278907Y-131391839D01*
X158991328Y-132084405D01*
X158990674Y-132834305D01*
X159277043Y-133527372D01*
X159806839Y-134058093D01*
X160499405Y-134345672D01*
X161249305Y-134346326D01*
X161942372Y-134059957D01*
X162473093Y-133530161D01*
X162760672Y-132837595D01*
X162760674Y-132834305D01*
X163990674Y-132834305D01*
X164277043Y-133527372D01*
X164806839Y-134058093D01*
X165499405Y-134345672D01*
X166249305Y-134346326D01*
X166942372Y-134059957D01*
X167473093Y-133530161D01*
X167760672Y-132837595D01*
X167760674Y-132834305D01*
X168882674Y-132834305D01*
X169169043Y-133527372D01*
X169698839Y-134058093D01*
X170391405Y-134345672D01*
X171141305Y-134346326D01*
X171834372Y-134059957D01*
X172365093Y-133530161D01*
X172652672Y-132837595D01*
X172652674Y-132834305D01*
X173882674Y-132834305D01*
X174169043Y-133527372D01*
X174698839Y-134058093D01*
X175391405Y-134345672D01*
X176141305Y-134346326D01*
X176834372Y-134059957D01*
X177100472Y-133794320D01*
X179614285Y-133794320D01*
X179743533Y-134087123D01*
X180443806Y-134355388D01*
X181193435Y-134335250D01*
X181792467Y-134087123D01*
X181921715Y-133794320D01*
X180768000Y-132640605D01*
X179614285Y-133794320D01*
X177100472Y-133794320D01*
X177365093Y-133530161D01*
X177652672Y-132837595D01*
X177653283Y-132136806D01*
X178873612Y-132136806D01*
X178893750Y-132886435D01*
X179141877Y-133485467D01*
X179434680Y-133614715D01*
X180588395Y-132461000D01*
X180947605Y-132461000D01*
X182101320Y-133614715D01*
X182394123Y-133485467D01*
X182662388Y-132785194D01*
X182642250Y-132035565D01*
X182394123Y-131436533D01*
X182101320Y-131307285D01*
X180947605Y-132461000D01*
X180588395Y-132461000D01*
X179434680Y-131307285D01*
X179141877Y-131436533D01*
X178873612Y-132136806D01*
X177653283Y-132136806D01*
X177653326Y-132087695D01*
X177366957Y-131394628D01*
X177100475Y-131127680D01*
X179614285Y-131127680D01*
X180768000Y-132281395D01*
X181921715Y-131127680D01*
X181792467Y-130834877D01*
X181092194Y-130566612D01*
X180342565Y-130586750D01*
X179743533Y-130834877D01*
X179614285Y-131127680D01*
X177100475Y-131127680D01*
X176837161Y-130863907D01*
X176144595Y-130576328D01*
X175394695Y-130575674D01*
X174701628Y-130862043D01*
X174170907Y-131391839D01*
X173883328Y-132084405D01*
X173882674Y-132834305D01*
X172652674Y-132834305D01*
X172653326Y-132087695D01*
X172366957Y-131394628D01*
X171837161Y-130863907D01*
X171144595Y-130576328D01*
X170394695Y-130575674D01*
X169701628Y-130862043D01*
X169170907Y-131391839D01*
X168883328Y-132084405D01*
X168882674Y-132834305D01*
X167760674Y-132834305D01*
X167761326Y-132087695D01*
X167474957Y-131394628D01*
X166945161Y-130863907D01*
X166252595Y-130576328D01*
X165502695Y-130575674D01*
X164809628Y-130862043D01*
X164278907Y-131391839D01*
X163991328Y-132084405D01*
X163990674Y-132834305D01*
X162760674Y-132834305D01*
X162761326Y-132087695D01*
X162726526Y-132003474D01*
X165034500Y-129695500D01*
X165248021Y-129375943D01*
X165323000Y-128999000D01*
X165323000Y-125186525D01*
X165325828Y-125184635D01*
X165608000Y-124762336D01*
X165890172Y-125184635D01*
X166343391Y-125487467D01*
X166878000Y-125593807D01*
X167412609Y-125487467D01*
X167865828Y-125184635D01*
X168148000Y-124762336D01*
X168430172Y-125184635D01*
X168883391Y-125487467D01*
X169418000Y-125593807D01*
X169952609Y-125487467D01*
X170405828Y-125184635D01*
X170688000Y-124762336D01*
X170970172Y-125184635D01*
X171423391Y-125487467D01*
X171958000Y-125593807D01*
X172492609Y-125487467D01*
X172945828Y-125184635D01*
X173228000Y-124762336D01*
X173510172Y-125184635D01*
X173963391Y-125487467D01*
X174498000Y-125593807D01*
X175032609Y-125487467D01*
X175485828Y-125184635D01*
X175788660Y-124731416D01*
X175895000Y-124196807D01*
X175895000Y-123453193D01*
X175788660Y-122918584D01*
X175485828Y-122465365D01*
X175032609Y-122162533D01*
X174498000Y-122056193D01*
X173963391Y-122162533D01*
X173510172Y-122465365D01*
X173228000Y-122887664D01*
X172945828Y-122465365D01*
X172492609Y-122162533D01*
X171958000Y-122056193D01*
X171423391Y-122162533D01*
X170970172Y-122465365D01*
X170688000Y-122887664D01*
X170405828Y-122465365D01*
X169952609Y-122162533D01*
X169418000Y-122056193D01*
X168883391Y-122162533D01*
X168430172Y-122465365D01*
X168148000Y-122887664D01*
X167865828Y-122465365D01*
X167412609Y-122162533D01*
X166878000Y-122056193D01*
X166343391Y-122162533D01*
X165890172Y-122465365D01*
X165608000Y-122887664D01*
X165325828Y-122465365D01*
X164872609Y-122162533D01*
X164338000Y-122056193D01*
X163803391Y-122162533D01*
X163350172Y-122465365D01*
X163200657Y-122689130D01*
X163163162Y-122489863D01*
X163024090Y-122273739D01*
X162811890Y-122128749D01*
X162560000Y-122077740D01*
X161036000Y-122077740D01*
X160800683Y-122122018D01*
X160584559Y-122261090D01*
X160439569Y-122473290D01*
X160388560Y-122725180D01*
X160388560Y-122840000D01*
X160370600Y-122840000D01*
X160370600Y-122717307D01*
X160422100Y-122458400D01*
X160347121Y-122081457D01*
X160133600Y-121761900D01*
X159814043Y-121548379D01*
X159437100Y-121473400D01*
X159060157Y-121548379D01*
X158740600Y-121761900D01*
X158689100Y-121813400D01*
X158475579Y-122132957D01*
X158400600Y-122509900D01*
X158400600Y-123543400D01*
X158115000Y-123829000D01*
X158115000Y-123453193D01*
X158008660Y-122918584D01*
X157705828Y-122465365D01*
X157252609Y-122162533D01*
X156718000Y-122056193D01*
X156183391Y-122162533D01*
X155730172Y-122465365D01*
X155439353Y-122900606D01*
X155420059Y-122835239D01*
X155076026Y-122409550D01*
X154595277Y-122147920D01*
X154521070Y-122132960D01*
X154305000Y-122255460D01*
X154305000Y-123698000D01*
X154325000Y-123698000D01*
X154325000Y-123952000D01*
X154305000Y-123952000D01*
X154305000Y-125394540D01*
X154521070Y-125517040D01*
X154595277Y-125502080D01*
X155076026Y-125240450D01*
X155420059Y-124814761D01*
X155439353Y-124749394D01*
X155730172Y-125184635D01*
X156183391Y-125487467D01*
X156411216Y-125532784D01*
X151333908Y-130610092D01*
X151252595Y-130576328D01*
X150502695Y-130575674D01*
X149809628Y-130862043D01*
X149278907Y-131391839D01*
X148991328Y-132084405D01*
X148990674Y-132834305D01*
X147760674Y-132834305D01*
X147761326Y-132087695D01*
X147474957Y-131394628D01*
X146945161Y-130863907D01*
X146252595Y-130576328D01*
X145502695Y-130575674D01*
X144809628Y-130862043D01*
X144731367Y-130940167D01*
X139363460Y-125572260D01*
X139700000Y-125572260D01*
X139935317Y-125527982D01*
X140151441Y-125388910D01*
X140296431Y-125176710D01*
X140340260Y-124960276D01*
X140490172Y-125184635D01*
X140943391Y-125487467D01*
X141478000Y-125593807D01*
X142012609Y-125487467D01*
X142465828Y-125184635D01*
X142748000Y-124762336D01*
X143030172Y-125184635D01*
X143483391Y-125487467D01*
X144018000Y-125593807D01*
X144552609Y-125487467D01*
X145005828Y-125184635D01*
X145288000Y-124762336D01*
X145570172Y-125184635D01*
X146023391Y-125487467D01*
X146558000Y-125593807D01*
X147092609Y-125487467D01*
X147545828Y-125184635D01*
X147828000Y-124762336D01*
X148110172Y-125184635D01*
X148563391Y-125487467D01*
X149098000Y-125593807D01*
X149632609Y-125487467D01*
X150085828Y-125184635D01*
X150376647Y-124749394D01*
X150395941Y-124814761D01*
X150739974Y-125240450D01*
X151220723Y-125502080D01*
X151294930Y-125517040D01*
X151511000Y-125394540D01*
X151511000Y-123952000D01*
X151765000Y-123952000D01*
X151765000Y-125394540D01*
X151981070Y-125517040D01*
X152055277Y-125502080D01*
X152536026Y-125240450D01*
X152880059Y-124814761D01*
X152908000Y-124720097D01*
X152935941Y-124814761D01*
X153279974Y-125240450D01*
X153760723Y-125502080D01*
X153834930Y-125517040D01*
X154051000Y-125394540D01*
X154051000Y-123952000D01*
X151765000Y-123952000D01*
X151511000Y-123952000D01*
X151491000Y-123952000D01*
X151491000Y-123698000D01*
X151511000Y-123698000D01*
X151511000Y-122255460D01*
X151765000Y-122255460D01*
X151765000Y-123698000D01*
X154051000Y-123698000D01*
X154051000Y-122255460D01*
X153834930Y-122132960D01*
X153760723Y-122147920D01*
X153279974Y-122409550D01*
X152935941Y-122835239D01*
X152908000Y-122929903D01*
X152880059Y-122835239D01*
X152536026Y-122409550D01*
X152055277Y-122147920D01*
X151981070Y-122132960D01*
X151765000Y-122255460D01*
X151511000Y-122255460D01*
X151294930Y-122132960D01*
X151220723Y-122147920D01*
X150739974Y-122409550D01*
X150395941Y-122835239D01*
X150376647Y-122900606D01*
X150111666Y-122504034D01*
X159355700Y-113260000D01*
X170198421Y-113260000D01*
X170232043Y-113341372D01*
X170761839Y-113872093D01*
X171454405Y-114159672D01*
X172204305Y-114160326D01*
X172897372Y-113873957D01*
X173428093Y-113344161D01*
X173715672Y-112651595D01*
X173716326Y-111901695D01*
X173429957Y-111208628D01*
X172900161Y-110677907D01*
X172207595Y-110390328D01*
X171457695Y-110389674D01*
X170764628Y-110676043D01*
X170233907Y-111205839D01*
X170198960Y-111290000D01*
X158947700Y-111290000D01*
X158570757Y-111364979D01*
X158251200Y-111578500D01*
X148951650Y-120878050D01*
X135758255Y-107684655D01*
X136244761Y-107541059D01*
X136670450Y-107197026D01*
X136932080Y-106716277D01*
X136947040Y-106642070D01*
X136824540Y-106426000D01*
X135382000Y-106426000D01*
X135382000Y-106446000D01*
X135128000Y-106446000D01*
X135128000Y-106426000D01*
X135108000Y-106426000D01*
X135108000Y-106172000D01*
X135128000Y-106172000D01*
X135128000Y-106152000D01*
X135382000Y-106152000D01*
X135382000Y-106172000D01*
X136824540Y-106172000D01*
X136947040Y-105955930D01*
X136932080Y-105881723D01*
X136670450Y-105400974D01*
X136244761Y-105056941D01*
X136179394Y-105037647D01*
X136614635Y-104746828D01*
X136917467Y-104293609D01*
X137023807Y-103759000D01*
X136961457Y-103445543D01*
X137147000Y-103260000D01*
X170198421Y-103260000D01*
X170232043Y-103341372D01*
X170761839Y-103872093D01*
X171454405Y-104159672D01*
X172204305Y-104160326D01*
X172724200Y-103945510D01*
X172724200Y-104988800D01*
X172288908Y-105424092D01*
X172207595Y-105390328D01*
X171457695Y-105389674D01*
X170764628Y-105676043D01*
X170233907Y-106205839D01*
X169946328Y-106898405D01*
X169945674Y-107648305D01*
X170232043Y-108341372D01*
X170761839Y-108872093D01*
X171454405Y-109159672D01*
X172204305Y-109160326D01*
X172897372Y-108873957D01*
X173428093Y-108344161D01*
X173715672Y-107651595D01*
X173716326Y-106901695D01*
X173681526Y-106817474D01*
X174405700Y-106093300D01*
X174619221Y-105773743D01*
X174694200Y-105396800D01*
X174694200Y-101532100D01*
X174619221Y-101155157D01*
X174405700Y-100835600D01*
X173289600Y-99719500D01*
X172970043Y-99505979D01*
X172593100Y-99431000D01*
X137857900Y-99431000D01*
X137480957Y-99505979D01*
X137161399Y-99719500D01*
X136646900Y-100234000D01*
X136616525Y-100234000D01*
X136614635Y-100231172D01*
X136390870Y-100081657D01*
X136590137Y-100044162D01*
X136806261Y-99905090D01*
X136951251Y-99692890D01*
X137002260Y-99441000D01*
X137002260Y-98608320D01*
X170677285Y-98608320D01*
X170806533Y-98901123D01*
X171506806Y-99169388D01*
X172256435Y-99149250D01*
X172855467Y-98901123D01*
X172984715Y-98608320D01*
X171831000Y-97454605D01*
X170677285Y-98608320D01*
X137002260Y-98608320D01*
X137002260Y-98301600D01*
X140046400Y-98301600D01*
X140423343Y-98226621D01*
X140742900Y-98013100D01*
X141805194Y-96950806D01*
X169936612Y-96950806D01*
X169956750Y-97700435D01*
X170204877Y-98299467D01*
X170497680Y-98428715D01*
X171651395Y-97275000D01*
X172010605Y-97275000D01*
X173164320Y-98428715D01*
X173457123Y-98299467D01*
X173725388Y-97599194D01*
X173705250Y-96849565D01*
X173457123Y-96250533D01*
X173164320Y-96121285D01*
X172010605Y-97275000D01*
X171651395Y-97275000D01*
X170497680Y-96121285D01*
X170204877Y-96250533D01*
X169936612Y-96950806D01*
X141805194Y-96950806D01*
X142814320Y-95941680D01*
X170677285Y-95941680D01*
X171831000Y-97095395D01*
X172984715Y-95941680D01*
X172855467Y-95648877D01*
X172155194Y-95380612D01*
X171405565Y-95400750D01*
X170806533Y-95648877D01*
X170677285Y-95941680D01*
X142814320Y-95941680D01*
X161484543Y-77271457D01*
X161798000Y-77333807D01*
X162332609Y-77227467D01*
X162785828Y-76924635D01*
X163068000Y-76502336D01*
X163350172Y-76924635D01*
X163803391Y-77227467D01*
X164338000Y-77333807D01*
X164872609Y-77227467D01*
X165325828Y-76924635D01*
X165608000Y-76502336D01*
X165890172Y-76924635D01*
X166343391Y-77227467D01*
X166878000Y-77333807D01*
X167412609Y-77227467D01*
X167865828Y-76924635D01*
X168148000Y-76502336D01*
X168430172Y-76924635D01*
X168883391Y-77227467D01*
X169418000Y-77333807D01*
X169952609Y-77227467D01*
X170405828Y-76924635D01*
X170688000Y-76502336D01*
X170970172Y-76924635D01*
X171423391Y-77227467D01*
X171958000Y-77333807D01*
X172492609Y-77227467D01*
X172945828Y-76924635D01*
X173228000Y-76502336D01*
X173510172Y-76924635D01*
X173963391Y-77227467D01*
X174498000Y-77333807D01*
X175032609Y-77227467D01*
X175485828Y-76924635D01*
X175788660Y-76471416D01*
X175820000Y-76313859D01*
X175820000Y-86233000D01*
X175820000Y-86233000D01*
G37*
X175820000Y-86233000D02*
X175874046Y-86504705D01*
X176027954Y-86735046D01*
X176916954Y-87624046D01*
X177147295Y-87777954D01*
X177419000Y-87832000D01*
X178648908Y-87832000D01*
X179122000Y-88305092D01*
X179122000Y-89117636D01*
X178550707Y-88545345D01*
X177570827Y-88138464D01*
X176509828Y-88137538D01*
X175529239Y-88542709D01*
X174778345Y-89292293D01*
X174371464Y-90272173D01*
X174370538Y-91333172D01*
X174775709Y-92313761D01*
X175525293Y-93064655D01*
X176505173Y-93471536D01*
X177566172Y-93472462D01*
X178546761Y-93067291D01*
X179122000Y-92493056D01*
X179122000Y-117057636D01*
X178550707Y-116485345D01*
X177570827Y-116078464D01*
X176509828Y-116077538D01*
X175529239Y-116482709D01*
X174778345Y-117232293D01*
X174371464Y-118212173D01*
X174370538Y-119273172D01*
X174775709Y-120253761D01*
X175525293Y-121004655D01*
X176505173Y-121411536D01*
X177566172Y-121412462D01*
X178546761Y-121007291D01*
X179122000Y-120433056D01*
X179122000Y-125095000D01*
X179176046Y-125366705D01*
X179329954Y-125597046D01*
X180091954Y-126359046D01*
X180322295Y-126512954D01*
X180594000Y-126567000D01*
X183347908Y-126567000D01*
X183694000Y-126913092D01*
X183694000Y-137246908D01*
X183093908Y-137847000D01*
X123484091Y-137847000D01*
X122376000Y-136738908D01*
X122376000Y-132834305D01*
X124138674Y-132834305D01*
X124425043Y-133527372D01*
X124954839Y-134058093D01*
X125647405Y-134345672D01*
X126397305Y-134346326D01*
X127090372Y-134059957D01*
X127356472Y-133794320D01*
X129870285Y-133794320D01*
X129999533Y-134087123D01*
X130699806Y-134355388D01*
X131449435Y-134335250D01*
X132048467Y-134087123D01*
X132177715Y-133794320D01*
X131024000Y-132640605D01*
X129870285Y-133794320D01*
X127356472Y-133794320D01*
X127621093Y-133530161D01*
X127908672Y-132837595D01*
X127909283Y-132136806D01*
X129129612Y-132136806D01*
X129149750Y-132886435D01*
X129397877Y-133485467D01*
X129690680Y-133614715D01*
X130844395Y-132461000D01*
X131203605Y-132461000D01*
X132357320Y-133614715D01*
X132650123Y-133485467D01*
X132918388Y-132785194D01*
X132898250Y-132035565D01*
X132650123Y-131436533D01*
X132357320Y-131307285D01*
X131203605Y-132461000D01*
X130844395Y-132461000D01*
X129690680Y-131307285D01*
X129397877Y-131436533D01*
X129129612Y-132136806D01*
X127909283Y-132136806D01*
X127909326Y-132087695D01*
X127622957Y-131394628D01*
X127356475Y-131127680D01*
X129870285Y-131127680D01*
X131024000Y-132281395D01*
X132177715Y-131127680D01*
X132048467Y-130834877D01*
X131348194Y-130566612D01*
X130598565Y-130586750D01*
X129999533Y-130834877D01*
X129870285Y-131127680D01*
X127356475Y-131127680D01*
X127093161Y-130863907D01*
X126400595Y-130576328D01*
X125650695Y-130575674D01*
X124957628Y-130862043D01*
X124426907Y-131391839D01*
X124139328Y-132084405D01*
X124138674Y-132834305D01*
X122376000Y-132834305D01*
X122376000Y-124535804D01*
X122705709Y-125333761D01*
X123455293Y-126084655D01*
X124435173Y-126491536D01*
X125496172Y-126492462D01*
X126476761Y-126087291D01*
X127227655Y-125337707D01*
X127634536Y-124357827D01*
X127635462Y-123296828D01*
X127230291Y-122316239D01*
X126480707Y-121565345D01*
X126292031Y-121487000D01*
X128016000Y-121487000D01*
X128287705Y-121432954D01*
X128518046Y-121279046D01*
X129534046Y-120263046D01*
X129687954Y-120032705D01*
X129701300Y-119965611D01*
X129701300Y-127271300D01*
X129776279Y-127648243D01*
X129989800Y-127967800D01*
X134025092Y-132003092D01*
X133991328Y-132084405D01*
X133990674Y-132834305D01*
X134277043Y-133527372D01*
X134806839Y-134058093D01*
X135499405Y-134345672D01*
X136249305Y-134346326D01*
X136942372Y-134059957D01*
X137473093Y-133530161D01*
X137760672Y-132837595D01*
X137761326Y-132087695D01*
X137474957Y-131394628D01*
X136945161Y-130863907D01*
X136252595Y-130576328D01*
X135502695Y-130575674D01*
X135418474Y-130610474D01*
X131671300Y-126863300D01*
X131671300Y-124649300D01*
X139025092Y-132003092D01*
X138991328Y-132084405D01*
X138990674Y-132834305D01*
X139277043Y-133527372D01*
X139806839Y-134058093D01*
X140499405Y-134345672D01*
X141249305Y-134346326D01*
X141942372Y-134059957D01*
X142473093Y-133530161D01*
X142760672Y-132837595D01*
X142761326Y-132087695D01*
X142527858Y-131522658D01*
X144097117Y-133091917D01*
X144277043Y-133527372D01*
X144806839Y-134058093D01*
X145499405Y-134345672D01*
X146249305Y-134346326D01*
X146942372Y-134059957D01*
X147473093Y-133530161D01*
X147760672Y-132837595D01*
X147760674Y-132834305D01*
X148990674Y-132834305D01*
X149277043Y-133527372D01*
X149806839Y-134058093D01*
X150499405Y-134345672D01*
X151249305Y-134346326D01*
X151942372Y-134059957D01*
X152473093Y-133530161D01*
X152760672Y-132837595D01*
X152761326Y-132087695D01*
X152726526Y-132003474D01*
X159351000Y-125379000D01*
X159351000Y-127592999D01*
X156333908Y-130610092D01*
X156252595Y-130576328D01*
X155502695Y-130575674D01*
X154809628Y-130862043D01*
X154278907Y-131391839D01*
X153991328Y-132084405D01*
X153990674Y-132834305D01*
X154277043Y-133527372D01*
X154806839Y-134058093D01*
X155499405Y-134345672D01*
X156249305Y-134346326D01*
X156942372Y-134059957D01*
X157473093Y-133530161D01*
X157760672Y-132837595D01*
X157761326Y-132087695D01*
X157726527Y-132003474D01*
X161032500Y-128697501D01*
X161246021Y-128377943D01*
X161321000Y-128001000D01*
X161321000Y-125572260D01*
X162560000Y-125572260D01*
X162795317Y-125527982D01*
X163011441Y-125388910D01*
X163156431Y-125176710D01*
X163200260Y-124960276D01*
X163350172Y-125184635D01*
X163353000Y-125186525D01*
X163353000Y-128591000D01*
X161333908Y-130610092D01*
X161252595Y-130576328D01*
X160502695Y-130575674D01*
X159809628Y-130862043D01*
X159278907Y-131391839D01*
X158991328Y-132084405D01*
X158990674Y-132834305D01*
X159277043Y-133527372D01*
X159806839Y-134058093D01*
X160499405Y-134345672D01*
X161249305Y-134346326D01*
X161942372Y-134059957D01*
X162473093Y-133530161D01*
X162760672Y-132837595D01*
X162760674Y-132834305D01*
X163990674Y-132834305D01*
X164277043Y-133527372D01*
X164806839Y-134058093D01*
X165499405Y-134345672D01*
X166249305Y-134346326D01*
X166942372Y-134059957D01*
X167473093Y-133530161D01*
X167760672Y-132837595D01*
X167760674Y-132834305D01*
X168882674Y-132834305D01*
X169169043Y-133527372D01*
X169698839Y-134058093D01*
X170391405Y-134345672D01*
X171141305Y-134346326D01*
X171834372Y-134059957D01*
X172365093Y-133530161D01*
X172652672Y-132837595D01*
X172652674Y-132834305D01*
X173882674Y-132834305D01*
X174169043Y-133527372D01*
X174698839Y-134058093D01*
X175391405Y-134345672D01*
X176141305Y-134346326D01*
X176834372Y-134059957D01*
X177100472Y-133794320D01*
X179614285Y-133794320D01*
X179743533Y-134087123D01*
X180443806Y-134355388D01*
X181193435Y-134335250D01*
X181792467Y-134087123D01*
X181921715Y-133794320D01*
X180768000Y-132640605D01*
X179614285Y-133794320D01*
X177100472Y-133794320D01*
X177365093Y-133530161D01*
X177652672Y-132837595D01*
X177653283Y-132136806D01*
X178873612Y-132136806D01*
X178893750Y-132886435D01*
X179141877Y-133485467D01*
X179434680Y-133614715D01*
X180588395Y-132461000D01*
X180947605Y-132461000D01*
X182101320Y-133614715D01*
X182394123Y-133485467D01*
X182662388Y-132785194D01*
X182642250Y-132035565D01*
X182394123Y-131436533D01*
X182101320Y-131307285D01*
X180947605Y-132461000D01*
X180588395Y-132461000D01*
X179434680Y-131307285D01*
X179141877Y-131436533D01*
X178873612Y-132136806D01*
X177653283Y-132136806D01*
X177653326Y-132087695D01*
X177366957Y-131394628D01*
X177100475Y-131127680D01*
X179614285Y-131127680D01*
X180768000Y-132281395D01*
X181921715Y-131127680D01*
X181792467Y-130834877D01*
X181092194Y-130566612D01*
X180342565Y-130586750D01*
X179743533Y-130834877D01*
X179614285Y-131127680D01*
X177100475Y-131127680D01*
X176837161Y-130863907D01*
X176144595Y-130576328D01*
X175394695Y-130575674D01*
X174701628Y-130862043D01*
X174170907Y-131391839D01*
X173883328Y-132084405D01*
X173882674Y-132834305D01*
X172652674Y-132834305D01*
X172653326Y-132087695D01*
X172366957Y-131394628D01*
X171837161Y-130863907D01*
X171144595Y-130576328D01*
X170394695Y-130575674D01*
X169701628Y-130862043D01*
X169170907Y-131391839D01*
X168883328Y-132084405D01*
X168882674Y-132834305D01*
X167760674Y-132834305D01*
X167761326Y-132087695D01*
X167474957Y-131394628D01*
X166945161Y-130863907D01*
X166252595Y-130576328D01*
X165502695Y-130575674D01*
X164809628Y-130862043D01*
X164278907Y-131391839D01*
X163991328Y-132084405D01*
X163990674Y-132834305D01*
X162760674Y-132834305D01*
X162761326Y-132087695D01*
X162726526Y-132003474D01*
X165034500Y-129695500D01*
X165248021Y-129375943D01*
X165323000Y-128999000D01*
X165323000Y-125186525D01*
X165325828Y-125184635D01*
X165608000Y-124762336D01*
X165890172Y-125184635D01*
X166343391Y-125487467D01*
X166878000Y-125593807D01*
X167412609Y-125487467D01*
X167865828Y-125184635D01*
X168148000Y-124762336D01*
X168430172Y-125184635D01*
X168883391Y-125487467D01*
X169418000Y-125593807D01*
X169952609Y-125487467D01*
X170405828Y-125184635D01*
X170688000Y-124762336D01*
X170970172Y-125184635D01*
X171423391Y-125487467D01*
X171958000Y-125593807D01*
X172492609Y-125487467D01*
X172945828Y-125184635D01*
X173228000Y-124762336D01*
X173510172Y-125184635D01*
X173963391Y-125487467D01*
X174498000Y-125593807D01*
X175032609Y-125487467D01*
X175485828Y-125184635D01*
X175788660Y-124731416D01*
X175895000Y-124196807D01*
X175895000Y-123453193D01*
X175788660Y-122918584D01*
X175485828Y-122465365D01*
X175032609Y-122162533D01*
X174498000Y-122056193D01*
X173963391Y-122162533D01*
X173510172Y-122465365D01*
X173228000Y-122887664D01*
X172945828Y-122465365D01*
X172492609Y-122162533D01*
X171958000Y-122056193D01*
X171423391Y-122162533D01*
X170970172Y-122465365D01*
X170688000Y-122887664D01*
X170405828Y-122465365D01*
X169952609Y-122162533D01*
X169418000Y-122056193D01*
X168883391Y-122162533D01*
X168430172Y-122465365D01*
X168148000Y-122887664D01*
X167865828Y-122465365D01*
X167412609Y-122162533D01*
X166878000Y-122056193D01*
X166343391Y-122162533D01*
X165890172Y-122465365D01*
X165608000Y-122887664D01*
X165325828Y-122465365D01*
X164872609Y-122162533D01*
X164338000Y-122056193D01*
X163803391Y-122162533D01*
X163350172Y-122465365D01*
X163200657Y-122689130D01*
X163163162Y-122489863D01*
X163024090Y-122273739D01*
X162811890Y-122128749D01*
X162560000Y-122077740D01*
X161036000Y-122077740D01*
X160800683Y-122122018D01*
X160584559Y-122261090D01*
X160439569Y-122473290D01*
X160388560Y-122725180D01*
X160388560Y-122840000D01*
X160370600Y-122840000D01*
X160370600Y-122717307D01*
X160422100Y-122458400D01*
X160347121Y-122081457D01*
X160133600Y-121761900D01*
X159814043Y-121548379D01*
X159437100Y-121473400D01*
X159060157Y-121548379D01*
X158740600Y-121761900D01*
X158689100Y-121813400D01*
X158475579Y-122132957D01*
X158400600Y-122509900D01*
X158400600Y-123543400D01*
X158115000Y-123829000D01*
X158115000Y-123453193D01*
X158008660Y-122918584D01*
X157705828Y-122465365D01*
X157252609Y-122162533D01*
X156718000Y-122056193D01*
X156183391Y-122162533D01*
X155730172Y-122465365D01*
X155439353Y-122900606D01*
X155420059Y-122835239D01*
X155076026Y-122409550D01*
X154595277Y-122147920D01*
X154521070Y-122132960D01*
X154305000Y-122255460D01*
X154305000Y-123698000D01*
X154325000Y-123698000D01*
X154325000Y-123952000D01*
X154305000Y-123952000D01*
X154305000Y-125394540D01*
X154521070Y-125517040D01*
X154595277Y-125502080D01*
X155076026Y-125240450D01*
X155420059Y-124814761D01*
X155439353Y-124749394D01*
X155730172Y-125184635D01*
X156183391Y-125487467D01*
X156411216Y-125532784D01*
X151333908Y-130610092D01*
X151252595Y-130576328D01*
X150502695Y-130575674D01*
X149809628Y-130862043D01*
X149278907Y-131391839D01*
X148991328Y-132084405D01*
X148990674Y-132834305D01*
X147760674Y-132834305D01*
X147761326Y-132087695D01*
X147474957Y-131394628D01*
X146945161Y-130863907D01*
X146252595Y-130576328D01*
X145502695Y-130575674D01*
X144809628Y-130862043D01*
X144731367Y-130940167D01*
X139363460Y-125572260D01*
X139700000Y-125572260D01*
X139935317Y-125527982D01*
X140151441Y-125388910D01*
X140296431Y-125176710D01*
X140340260Y-124960276D01*
X140490172Y-125184635D01*
X140943391Y-125487467D01*
X141478000Y-125593807D01*
X142012609Y-125487467D01*
X142465828Y-125184635D01*
X142748000Y-124762336D01*
X143030172Y-125184635D01*
X143483391Y-125487467D01*
X144018000Y-125593807D01*
X144552609Y-125487467D01*
X145005828Y-125184635D01*
X145288000Y-124762336D01*
X145570172Y-125184635D01*
X146023391Y-125487467D01*
X146558000Y-125593807D01*
X147092609Y-125487467D01*
X147545828Y-125184635D01*
X147828000Y-124762336D01*
X148110172Y-125184635D01*
X148563391Y-125487467D01*
X149098000Y-125593807D01*
X149632609Y-125487467D01*
X150085828Y-125184635D01*
X150376647Y-124749394D01*
X150395941Y-124814761D01*
X150739974Y-125240450D01*
X151220723Y-125502080D01*
X151294930Y-125517040D01*
X151511000Y-125394540D01*
X151511000Y-123952000D01*
X151765000Y-123952000D01*
X151765000Y-125394540D01*
X151981070Y-125517040D01*
X152055277Y-125502080D01*
X152536026Y-125240450D01*
X152880059Y-124814761D01*
X152908000Y-124720097D01*
X152935941Y-124814761D01*
X153279974Y-125240450D01*
X153760723Y-125502080D01*
X153834930Y-125517040D01*
X154051000Y-125394540D01*
X154051000Y-123952000D01*
X151765000Y-123952000D01*
X151511000Y-123952000D01*
X151491000Y-123952000D01*
X151491000Y-123698000D01*
X151511000Y-123698000D01*
X151511000Y-122255460D01*
X151765000Y-122255460D01*
X151765000Y-123698000D01*
X154051000Y-123698000D01*
X154051000Y-122255460D01*
X153834930Y-122132960D01*
X153760723Y-122147920D01*
X153279974Y-122409550D01*
X152935941Y-122835239D01*
X152908000Y-122929903D01*
X152880059Y-122835239D01*
X152536026Y-122409550D01*
X152055277Y-122147920D01*
X151981070Y-122132960D01*
X151765000Y-122255460D01*
X151511000Y-122255460D01*
X151294930Y-122132960D01*
X151220723Y-122147920D01*
X150739974Y-122409550D01*
X150395941Y-122835239D01*
X150376647Y-122900606D01*
X150111666Y-122504034D01*
X159355700Y-113260000D01*
X170198421Y-113260000D01*
X170232043Y-113341372D01*
X170761839Y-113872093D01*
X171454405Y-114159672D01*
X172204305Y-114160326D01*
X172897372Y-113873957D01*
X173428093Y-113344161D01*
X173715672Y-112651595D01*
X173716326Y-111901695D01*
X173429957Y-111208628D01*
X172900161Y-110677907D01*
X172207595Y-110390328D01*
X171457695Y-110389674D01*
X170764628Y-110676043D01*
X170233907Y-111205839D01*
X170198960Y-111290000D01*
X158947700Y-111290000D01*
X158570757Y-111364979D01*
X158251200Y-111578500D01*
X148951650Y-120878050D01*
X135758255Y-107684655D01*
X136244761Y-107541059D01*
X136670450Y-107197026D01*
X136932080Y-106716277D01*
X136947040Y-106642070D01*
X136824540Y-106426000D01*
X135382000Y-106426000D01*
X135382000Y-106446000D01*
X135128000Y-106446000D01*
X135128000Y-106426000D01*
X135108000Y-106426000D01*
X135108000Y-106172000D01*
X135128000Y-106172000D01*
X135128000Y-106152000D01*
X135382000Y-106152000D01*
X135382000Y-106172000D01*
X136824540Y-106172000D01*
X136947040Y-105955930D01*
X136932080Y-105881723D01*
X136670450Y-105400974D01*
X136244761Y-105056941D01*
X136179394Y-105037647D01*
X136614635Y-104746828D01*
X136917467Y-104293609D01*
X137023807Y-103759000D01*
X136961457Y-103445543D01*
X137147000Y-103260000D01*
X170198421Y-103260000D01*
X170232043Y-103341372D01*
X170761839Y-103872093D01*
X171454405Y-104159672D01*
X172204305Y-104160326D01*
X172724200Y-103945510D01*
X172724200Y-104988800D01*
X172288908Y-105424092D01*
X172207595Y-105390328D01*
X171457695Y-105389674D01*
X170764628Y-105676043D01*
X170233907Y-106205839D01*
X169946328Y-106898405D01*
X169945674Y-107648305D01*
X170232043Y-108341372D01*
X170761839Y-108872093D01*
X171454405Y-109159672D01*
X172204305Y-109160326D01*
X172897372Y-108873957D01*
X173428093Y-108344161D01*
X173715672Y-107651595D01*
X173716326Y-106901695D01*
X173681526Y-106817474D01*
X174405700Y-106093300D01*
X174619221Y-105773743D01*
X174694200Y-105396800D01*
X174694200Y-101532100D01*
X174619221Y-101155157D01*
X174405700Y-100835600D01*
X173289600Y-99719500D01*
X172970043Y-99505979D01*
X172593100Y-99431000D01*
X137857900Y-99431000D01*
X137480957Y-99505979D01*
X137161399Y-99719500D01*
X136646900Y-100234000D01*
X136616525Y-100234000D01*
X136614635Y-100231172D01*
X136390870Y-100081657D01*
X136590137Y-100044162D01*
X136806261Y-99905090D01*
X136951251Y-99692890D01*
X137002260Y-99441000D01*
X137002260Y-98608320D01*
X170677285Y-98608320D01*
X170806533Y-98901123D01*
X171506806Y-99169388D01*
X172256435Y-99149250D01*
X172855467Y-98901123D01*
X172984715Y-98608320D01*
X171831000Y-97454605D01*
X170677285Y-98608320D01*
X137002260Y-98608320D01*
X137002260Y-98301600D01*
X140046400Y-98301600D01*
X140423343Y-98226621D01*
X140742900Y-98013100D01*
X141805194Y-96950806D01*
X169936612Y-96950806D01*
X169956750Y-97700435D01*
X170204877Y-98299467D01*
X170497680Y-98428715D01*
X171651395Y-97275000D01*
X172010605Y-97275000D01*
X173164320Y-98428715D01*
X173457123Y-98299467D01*
X173725388Y-97599194D01*
X173705250Y-96849565D01*
X173457123Y-96250533D01*
X173164320Y-96121285D01*
X172010605Y-97275000D01*
X171651395Y-97275000D01*
X170497680Y-96121285D01*
X170204877Y-96250533D01*
X169936612Y-96950806D01*
X141805194Y-96950806D01*
X142814320Y-95941680D01*
X170677285Y-95941680D01*
X171831000Y-97095395D01*
X172984715Y-95941680D01*
X172855467Y-95648877D01*
X172155194Y-95380612D01*
X171405565Y-95400750D01*
X170806533Y-95648877D01*
X170677285Y-95941680D01*
X142814320Y-95941680D01*
X161484543Y-77271457D01*
X161798000Y-77333807D01*
X162332609Y-77227467D01*
X162785828Y-76924635D01*
X163068000Y-76502336D01*
X163350172Y-76924635D01*
X163803391Y-77227467D01*
X164338000Y-77333807D01*
X164872609Y-77227467D01*
X165325828Y-76924635D01*
X165608000Y-76502336D01*
X165890172Y-76924635D01*
X166343391Y-77227467D01*
X166878000Y-77333807D01*
X167412609Y-77227467D01*
X167865828Y-76924635D01*
X168148000Y-76502336D01*
X168430172Y-76924635D01*
X168883391Y-77227467D01*
X169418000Y-77333807D01*
X169952609Y-77227467D01*
X170405828Y-76924635D01*
X170688000Y-76502336D01*
X170970172Y-76924635D01*
X171423391Y-77227467D01*
X171958000Y-77333807D01*
X172492609Y-77227467D01*
X172945828Y-76924635D01*
X173228000Y-76502336D01*
X173510172Y-76924635D01*
X173963391Y-77227467D01*
X174498000Y-77333807D01*
X175032609Y-77227467D01*
X175485828Y-76924635D01*
X175788660Y-76471416D01*
X175820000Y-76313859D01*
X175820000Y-86233000D01*
G36*
X175820000Y-74335092D02*
X175820000Y-74816141D01*
X175788660Y-74658584D01*
X175485828Y-74205365D01*
X175032609Y-73902533D01*
X174498000Y-73796193D01*
X173963391Y-73902533D01*
X173510172Y-74205365D01*
X173228000Y-74627664D01*
X172945828Y-74205365D01*
X172492609Y-73902533D01*
X171958000Y-73796193D01*
X171423391Y-73902533D01*
X170970172Y-74205365D01*
X170688000Y-74627664D01*
X170405828Y-74205365D01*
X169952609Y-73902533D01*
X169418000Y-73796193D01*
X168883391Y-73902533D01*
X168430172Y-74205365D01*
X168148000Y-74627664D01*
X167865828Y-74205365D01*
X167412609Y-73902533D01*
X166878000Y-73796193D01*
X166343391Y-73902533D01*
X165890172Y-74205365D01*
X165608000Y-74627664D01*
X165325828Y-74205365D01*
X164872609Y-73902533D01*
X164338000Y-73796193D01*
X163803391Y-73902533D01*
X163350172Y-74205365D01*
X163068000Y-74627664D01*
X162785828Y-74205365D01*
X162332609Y-73902533D01*
X161798000Y-73796193D01*
X161263391Y-73902533D01*
X160810172Y-74205365D01*
X160528000Y-74627664D01*
X160245828Y-74205365D01*
X159792609Y-73902533D01*
X159258000Y-73796193D01*
X158723391Y-73902533D01*
X158270172Y-74205365D01*
X158120657Y-74429130D01*
X158083162Y-74229863D01*
X157944090Y-74013739D01*
X157731890Y-73868749D01*
X157480000Y-73817740D01*
X155956000Y-73817740D01*
X155720683Y-73862018D01*
X155504559Y-74001090D01*
X155359569Y-74213290D01*
X155308560Y-74465180D01*
X155308560Y-74580000D01*
X155256000Y-74580000D01*
X154879057Y-74654979D01*
X154559500Y-74868500D01*
X154051000Y-75377000D01*
X154051000Y-75193193D01*
X153944660Y-74658584D01*
X153641828Y-74205365D01*
X153188609Y-73902533D01*
X152654000Y-73796193D01*
X152119391Y-73902533D01*
X151666172Y-74205365D01*
X151384000Y-74627664D01*
X151101828Y-74205365D01*
X150648609Y-73902533D01*
X150114000Y-73796193D01*
X149579391Y-73902533D01*
X149126172Y-74205365D01*
X148844000Y-74627664D01*
X148561828Y-74205365D01*
X148108609Y-73902533D01*
X147574000Y-73796193D01*
X147039391Y-73902533D01*
X146586172Y-74205365D01*
X146304000Y-74627664D01*
X146021828Y-74205365D01*
X145568609Y-73902533D01*
X145034000Y-73796193D01*
X144499391Y-73902533D01*
X144046172Y-74205365D01*
X143764000Y-74627664D01*
X143481828Y-74205365D01*
X143028609Y-73902533D01*
X142494000Y-73796193D01*
X141959391Y-73902533D01*
X141506172Y-74205365D01*
X141224000Y-74627664D01*
X140941828Y-74205365D01*
X140488609Y-73902533D01*
X139954000Y-73796193D01*
X139419391Y-73902533D01*
X138966172Y-74205365D01*
X138675353Y-74640606D01*
X138656059Y-74575239D01*
X138312026Y-74149550D01*
X137831277Y-73887920D01*
X137757070Y-73872960D01*
X137541000Y-73995460D01*
X137541000Y-75438000D01*
X137561000Y-75438000D01*
X137561000Y-75692000D01*
X137541000Y-75692000D01*
X137541000Y-77134540D01*
X137757070Y-77257040D01*
X137831277Y-77242080D01*
X138312026Y-76980450D01*
X138656059Y-76554761D01*
X138675353Y-76489394D01*
X138966172Y-76924635D01*
X139419391Y-77227467D01*
X139954000Y-77333807D01*
X140488609Y-77227467D01*
X140941828Y-76924635D01*
X141224000Y-76502336D01*
X141506172Y-76924635D01*
X141959391Y-77227467D01*
X142494000Y-77333807D01*
X143028609Y-77227467D01*
X143481828Y-76924635D01*
X143764000Y-76502336D01*
X144046172Y-76924635D01*
X144499391Y-77227467D01*
X145034000Y-77333807D01*
X145568609Y-77227467D01*
X146021828Y-76924635D01*
X146304000Y-76502336D01*
X146586172Y-76924635D01*
X147039391Y-77227467D01*
X147574000Y-77333807D01*
X148108609Y-77227467D01*
X148561828Y-76924635D01*
X148844000Y-76502336D01*
X149126172Y-76924635D01*
X149579391Y-77227467D01*
X150114000Y-77333807D01*
X150648609Y-77227467D01*
X151101828Y-76924635D01*
X151384000Y-76502336D01*
X151666172Y-76924635D01*
X152119391Y-77227467D01*
X152187071Y-77240929D01*
X138475900Y-90952100D01*
X136559600Y-90952100D01*
X136182657Y-91027079D01*
X135863100Y-91240599D01*
X129989800Y-97113900D01*
X129776279Y-97433457D01*
X129742000Y-97605788D01*
X129742000Y-79375000D01*
X129687954Y-79103295D01*
X129534046Y-78872954D01*
X128772046Y-78110954D01*
X128541705Y-77957046D01*
X128270000Y-77903000D01*
X127563531Y-77903000D01*
X127746761Y-77827291D01*
X128497655Y-77077707D01*
X128515479Y-77034781D01*
X128567910Y-77116261D01*
X128780110Y-77261251D01*
X129032000Y-77312260D01*
X130556000Y-77312260D01*
X130791317Y-77267982D01*
X131007441Y-77128910D01*
X131152431Y-76916710D01*
X131196260Y-76700276D01*
X131346172Y-76924635D01*
X131799391Y-77227467D01*
X132334000Y-77333807D01*
X132868609Y-77227467D01*
X133321828Y-76924635D01*
X133604000Y-76502336D01*
X133886172Y-76924635D01*
X134339391Y-77227467D01*
X134874000Y-77333807D01*
X135408609Y-77227467D01*
X135861828Y-76924635D01*
X136152647Y-76489394D01*
X136171941Y-76554761D01*
X136515974Y-76980450D01*
X136996723Y-77242080D01*
X137070930Y-77257040D01*
X137287000Y-77134540D01*
X137287000Y-75692000D01*
X137267000Y-75692000D01*
X137267000Y-75438000D01*
X137287000Y-75438000D01*
X137287000Y-73995460D01*
X137070930Y-73872960D01*
X136996723Y-73887920D01*
X136515974Y-74149550D01*
X136171941Y-74575239D01*
X136152647Y-74640606D01*
X135861828Y-74205365D01*
X135408609Y-73902533D01*
X134874000Y-73796193D01*
X134339391Y-73902533D01*
X133886172Y-74205365D01*
X133604000Y-74627664D01*
X133321828Y-74205365D01*
X132868609Y-73902533D01*
X132334000Y-73796193D01*
X131799391Y-73902533D01*
X131346172Y-74205365D01*
X131196657Y-74429130D01*
X131159162Y-74229863D01*
X131020090Y-74013739D01*
X130807890Y-73868749D01*
X130556000Y-73817740D01*
X129032000Y-73817740D01*
X128796683Y-73862018D01*
X128580559Y-74001090D01*
X128516339Y-74095079D01*
X128500291Y-74056239D01*
X128179612Y-73735000D01*
X175219908Y-73735000D01*
X175820000Y-74335092D01*
X175820000Y-74335092D01*
G37*
X175820000Y-74335092D02*
X175820000Y-74816141D01*
X175788660Y-74658584D01*
X175485828Y-74205365D01*
X175032609Y-73902533D01*
X174498000Y-73796193D01*
X173963391Y-73902533D01*
X173510172Y-74205365D01*
X173228000Y-74627664D01*
X172945828Y-74205365D01*
X172492609Y-73902533D01*
X171958000Y-73796193D01*
X171423391Y-73902533D01*
X170970172Y-74205365D01*
X170688000Y-74627664D01*
X170405828Y-74205365D01*
X169952609Y-73902533D01*
X169418000Y-73796193D01*
X168883391Y-73902533D01*
X168430172Y-74205365D01*
X168148000Y-74627664D01*
X167865828Y-74205365D01*
X167412609Y-73902533D01*
X166878000Y-73796193D01*
X166343391Y-73902533D01*
X165890172Y-74205365D01*
X165608000Y-74627664D01*
X165325828Y-74205365D01*
X164872609Y-73902533D01*
X164338000Y-73796193D01*
X163803391Y-73902533D01*
X163350172Y-74205365D01*
X163068000Y-74627664D01*
X162785828Y-74205365D01*
X162332609Y-73902533D01*
X161798000Y-73796193D01*
X161263391Y-73902533D01*
X160810172Y-74205365D01*
X160528000Y-74627664D01*
X160245828Y-74205365D01*
X159792609Y-73902533D01*
X159258000Y-73796193D01*
X158723391Y-73902533D01*
X158270172Y-74205365D01*
X158120657Y-74429130D01*
X158083162Y-74229863D01*
X157944090Y-74013739D01*
X157731890Y-73868749D01*
X157480000Y-73817740D01*
X155956000Y-73817740D01*
X155720683Y-73862018D01*
X155504559Y-74001090D01*
X155359569Y-74213290D01*
X155308560Y-74465180D01*
X155308560Y-74580000D01*
X155256000Y-74580000D01*
X154879057Y-74654979D01*
X154559500Y-74868500D01*
X154051000Y-75377000D01*
X154051000Y-75193193D01*
X153944660Y-74658584D01*
X153641828Y-74205365D01*
X153188609Y-73902533D01*
X152654000Y-73796193D01*
X152119391Y-73902533D01*
X151666172Y-74205365D01*
X151384000Y-74627664D01*
X151101828Y-74205365D01*
X150648609Y-73902533D01*
X150114000Y-73796193D01*
X149579391Y-73902533D01*
X149126172Y-74205365D01*
X148844000Y-74627664D01*
X148561828Y-74205365D01*
X148108609Y-73902533D01*
X147574000Y-73796193D01*
X147039391Y-73902533D01*
X146586172Y-74205365D01*
X146304000Y-74627664D01*
X146021828Y-74205365D01*
X145568609Y-73902533D01*
X145034000Y-73796193D01*
X144499391Y-73902533D01*
X144046172Y-74205365D01*
X143764000Y-74627664D01*
X143481828Y-74205365D01*
X143028609Y-73902533D01*
X142494000Y-73796193D01*
X141959391Y-73902533D01*
X141506172Y-74205365D01*
X141224000Y-74627664D01*
X140941828Y-74205365D01*
X140488609Y-73902533D01*
X139954000Y-73796193D01*
X139419391Y-73902533D01*
X138966172Y-74205365D01*
X138675353Y-74640606D01*
X138656059Y-74575239D01*
X138312026Y-74149550D01*
X137831277Y-73887920D01*
X137757070Y-73872960D01*
X137541000Y-73995460D01*
X137541000Y-75438000D01*
X137561000Y-75438000D01*
X137561000Y-75692000D01*
X137541000Y-75692000D01*
X137541000Y-77134540D01*
X137757070Y-77257040D01*
X137831277Y-77242080D01*
X138312026Y-76980450D01*
X138656059Y-76554761D01*
X138675353Y-76489394D01*
X138966172Y-76924635D01*
X139419391Y-77227467D01*
X139954000Y-77333807D01*
X140488609Y-77227467D01*
X140941828Y-76924635D01*
X141224000Y-76502336D01*
X141506172Y-76924635D01*
X141959391Y-77227467D01*
X142494000Y-77333807D01*
X143028609Y-77227467D01*
X143481828Y-76924635D01*
X143764000Y-76502336D01*
X144046172Y-76924635D01*
X144499391Y-77227467D01*
X145034000Y-77333807D01*
X145568609Y-77227467D01*
X146021828Y-76924635D01*
X146304000Y-76502336D01*
X146586172Y-76924635D01*
X147039391Y-77227467D01*
X147574000Y-77333807D01*
X148108609Y-77227467D01*
X148561828Y-76924635D01*
X148844000Y-76502336D01*
X149126172Y-76924635D01*
X149579391Y-77227467D01*
X150114000Y-77333807D01*
X150648609Y-77227467D01*
X151101828Y-76924635D01*
X151384000Y-76502336D01*
X151666172Y-76924635D01*
X152119391Y-77227467D01*
X152187071Y-77240929D01*
X138475900Y-90952100D01*
X136559600Y-90952100D01*
X136182657Y-91027079D01*
X135863100Y-91240599D01*
X129989800Y-97113900D01*
X129776279Y-97433457D01*
X129742000Y-97605788D01*
X129742000Y-79375000D01*
X129687954Y-79103295D01*
X129534046Y-78872954D01*
X128772046Y-78110954D01*
X128541705Y-77957046D01*
X128270000Y-77903000D01*
X127563531Y-77903000D01*
X127746761Y-77827291D01*
X128497655Y-77077707D01*
X128515479Y-77034781D01*
X128567910Y-77116261D01*
X128780110Y-77261251D01*
X129032000Y-77312260D01*
X130556000Y-77312260D01*
X130791317Y-77267982D01*
X131007441Y-77128910D01*
X131152431Y-76916710D01*
X131196260Y-76700276D01*
X131346172Y-76924635D01*
X131799391Y-77227467D01*
X132334000Y-77333807D01*
X132868609Y-77227467D01*
X133321828Y-76924635D01*
X133604000Y-76502336D01*
X133886172Y-76924635D01*
X134339391Y-77227467D01*
X134874000Y-77333807D01*
X135408609Y-77227467D01*
X135861828Y-76924635D01*
X136152647Y-76489394D01*
X136171941Y-76554761D01*
X136515974Y-76980450D01*
X136996723Y-77242080D01*
X137070930Y-77257040D01*
X137287000Y-77134540D01*
X137287000Y-75692000D01*
X137267000Y-75692000D01*
X137267000Y-75438000D01*
X137287000Y-75438000D01*
X137287000Y-73995460D01*
X137070930Y-73872960D01*
X136996723Y-73887920D01*
X136515974Y-74149550D01*
X136171941Y-74575239D01*
X136152647Y-74640606D01*
X135861828Y-74205365D01*
X135408609Y-73902533D01*
X134874000Y-73796193D01*
X134339391Y-73902533D01*
X133886172Y-74205365D01*
X133604000Y-74627664D01*
X133321828Y-74205365D01*
X132868609Y-73902533D01*
X132334000Y-73796193D01*
X131799391Y-73902533D01*
X131346172Y-74205365D01*
X131196657Y-74429130D01*
X131159162Y-74229863D01*
X131020090Y-74013739D01*
X130807890Y-73868749D01*
X130556000Y-73817740D01*
X129032000Y-73817740D01*
X128796683Y-73862018D01*
X128580559Y-74001090D01*
X128516339Y-74095079D01*
X128500291Y-74056239D01*
X128179612Y-73735000D01*
X175219908Y-73735000D01*
X175820000Y-74335092D01*
M02*
