M48
;DRILL file {KiCad (5.0.1)-3} date 12/04/2019 13:23:10
;FORMAT={-:-/ absolute / metric / decimal}
FMAT,2
METRIC,TZ
T1C0.400
T2C0.800
T3C0.800
T4C1.001
T5C1.300
T6C3.000
%
G90
G05
M71
T1
X54.03Y-95.282
X54.763Y-92.609
X62.162Y-90.129
X67.872Y-96.096
X78.018Y-76.757
X78.996Y-75.822
X95.301Y-114.147
X101.218Y-95.282
X101.261Y-92.34
X101.678Y-73.04
X105.858Y-94.719
X107.166Y-73.04
X111.144Y-74.74
X128.049Y-75.093
X128.688Y-75.874
X133.188Y-91.21
X137.927Y-72.635
X141.366Y-94.073
X142.799Y-90.865
X164.245Y-122.444
X171.065Y-116.615
X172.551Y-114.268
X175.023Y-87.003
X176.163Y-112.757
X178.793Y-117.538
X179.889Y-109.603
X180.48Y-115.389
X181.37Y-63.827
X183.253Y-110.808
X191.89Y-62.802
X192.325Y-111.308
X194.197Y-80.606
X201.817Y-86.039
X209.627Y-62.811
X214.57Y-87.342
T2
X155.623Y-62.928
X155.623Y-65.468
X163.243Y-62.928
X163.243Y-65.468
X155.623Y-115.379
X155.623Y-117.919
X163.243Y-115.379
X163.243Y-117.919
X155.623Y-77.914
X155.623Y-80.454
X163.243Y-77.914
X163.243Y-80.454
X114.617Y-80.962
X114.617Y-88.582
X117.157Y-80.962
X117.157Y-88.582
X119.697Y-80.962
X119.697Y-88.582
X122.237Y-80.962
X122.237Y-88.582
X124.777Y-80.962
X124.777Y-88.582
X127.317Y-80.962
X127.317Y-88.582
X129.857Y-80.962
X129.857Y-88.582
X132.397Y-80.962
X132.397Y-88.582
X134.937Y-80.962
X134.937Y-88.582
X137.477Y-80.962
X137.477Y-88.582
X155.623Y-70.421
X155.623Y-72.961
X163.243Y-70.421
X163.243Y-72.961
X155.623Y-92.9
X155.623Y-95.44
X163.243Y-92.9
X163.243Y-95.44
X63.588Y-81.296
X63.588Y-88.916
X66.128Y-81.296
X66.128Y-88.916
X68.668Y-81.296
X68.668Y-88.916
X71.208Y-81.296
X71.208Y-88.916
X73.748Y-81.296
X73.748Y-88.916
X76.288Y-81.296
X76.288Y-88.916
X78.828Y-81.296
X78.828Y-88.916
X81.368Y-81.296
X81.368Y-88.916
X83.908Y-81.296
X83.908Y-88.916
X86.448Y-81.296
X86.448Y-88.916
X155.623Y-85.407
X155.623Y-87.947
X163.243Y-85.407
X163.243Y-87.947
X155.623Y-107.886
X155.623Y-110.426
X163.243Y-107.886
X163.243Y-110.426
X155.623Y-100.393
X155.623Y-102.933
X163.243Y-100.393
X163.243Y-102.933
T3
X122.41Y-96.362
X122.41Y-103.982
X124.95Y-96.362
X124.95Y-103.982
X127.49Y-96.362
X127.49Y-103.982
X130.03Y-96.362
X130.03Y-103.982
X132.57Y-96.362
X132.57Y-103.982
X135.11Y-96.362
X135.11Y-103.982
X137.65Y-96.362
X137.65Y-103.982
X140.19Y-96.362
X140.19Y-103.982
X69.189Y-96.996
X69.189Y-104.616
X71.73Y-96.996
X71.73Y-104.616
X74.269Y-96.996
X74.269Y-104.616
X76.809Y-96.996
X76.809Y-104.616
X79.349Y-96.996
X79.349Y-104.616
X81.889Y-96.996
X81.889Y-104.616
X84.429Y-96.996
X84.429Y-104.616
X86.969Y-96.996
X86.969Y-104.616
T4
X113.456Y-103.41
X115.996Y-103.41
X113.456Y-100.362
X115.996Y-100.362
X60.934Y-97.378
X63.474Y-97.378
X60.934Y-100.552
X63.474Y-100.552
X113.456Y-97.314
X115.996Y-97.314
X60.934Y-103.728
X63.474Y-103.728
T5
X223.56Y-125.73
X228.56Y-125.73
X35.934Y-125.857
X40.934Y-125.857
X45.934Y-125.857
X50.934Y-125.857
X58.004Y-125.857
X63.004Y-125.857
X68.004Y-125.857
X73.004Y-125.857
X78.004Y-125.857
X83.004Y-125.857
X88.004Y-125.857
X93.004Y-125.857
X98.004Y-125.857
X103.004Y-125.857
X108.004Y-125.857
X113.004Y-125.857
X118.004Y-125.857
X123.004Y-125.857
X128.004Y-125.857
X133.004Y-125.857
X141.57Y-125.73
X146.57Y-125.73
X151.57Y-125.73
X156.57Y-125.73
X161.57Y-125.73
X166.57Y-125.73
X171.57Y-125.73
X176.57Y-125.73
X181.57Y-125.73
X186.57Y-125.73
X191.57Y-125.73
X196.57Y-125.73
X201.57Y-125.73
X206.57Y-125.73
X211.57Y-125.73
X216.57Y-125.73
T6
X228.Y-89.
X38.Y-89.
X228.Y-114.
X38.Y-114.
T0
M30
