G04 #@! TF.GenerationSoftware,KiCad,Pcbnew,(5.0.1)-3*
G04 #@! TF.CreationDate,2019-04-12T13:23:05-05:00*
G04 #@! TF.ProjectId,Vending_driveV2,56656E64696E675F647269766556322E,V1.0*
G04 #@! TF.SameCoordinates,Original*
G04 #@! TF.FileFunction,Copper,L2,Bot,Signal*
G04 #@! TF.FilePolarity,Positive*
%FSLAX46Y46*%
G04 Gerber Fmt 4.6, Leading zero omitted, Abs format (unit mm)*
G04 Created by KiCad (PCBNEW (5.0.1)-3) date 12/04/2019 13:23:05*
%MOMM*%
%LPD*%
G01*
G04 APERTURE LIST*
G04 #@! TA.AperFunction,ComponentPad*
%ADD10R,1.600000X1.600000*%
G04 #@! TD*
G04 #@! TA.AperFunction,ComponentPad*
%ADD11O,1.600000X1.600000*%
G04 #@! TD*
G04 #@! TA.AperFunction,ComponentPad*
%ADD12C,2.500000*%
G04 #@! TD*
G04 #@! TA.AperFunction,ComponentPad*
%ADD13R,1.524000X2.199640*%
G04 #@! TD*
G04 #@! TA.AperFunction,ComponentPad*
%ADD14O,1.524000X2.199640*%
G04 #@! TD*
G04 #@! TA.AperFunction,ComponentPad*
%ADD15O,1.501140X2.199640*%
G04 #@! TD*
G04 #@! TA.AperFunction,ComponentPad*
%ADD16C,6.000000*%
G04 #@! TD*
G04 #@! TA.AperFunction,ViaPad*
%ADD17C,0.800000*%
G04 #@! TD*
G04 #@! TA.AperFunction,ViaPad*
%ADD18C,0.500000*%
G04 #@! TD*
G04 #@! TA.AperFunction,Conductor*
%ADD19C,1.200000*%
G04 #@! TD*
G04 #@! TA.AperFunction,Conductor*
%ADD20C,0.700000*%
G04 #@! TD*
G04 #@! TA.AperFunction,Conductor*
%ADD21C,0.254000*%
G04 #@! TD*
G04 APERTURE END LIST*
D10*
G04 #@! TO.P,U4,1*
G04 #@! TO.N,+5Vcc*
X155623000Y-85407000D03*
D11*
G04 #@! TO.P,U4,3*
G04 #@! TO.N,Net-(Q4-Pad1)*
X163243000Y-87947000D03*
G04 #@! TO.P,U4,2*
G04 #@! TO.N,Net-(R4-Pad1)*
X155623000Y-87947000D03*
G04 #@! TO.P,U4,4*
G04 #@! TO.N,+24V*
X163243000Y-85407000D03*
G04 #@! TD*
D10*
G04 #@! TO.P,U2,1*
G04 #@! TO.N,+5Vcc*
X155623000Y-70421000D03*
D11*
G04 #@! TO.P,U2,3*
G04 #@! TO.N,Net-(Q2-Pad1)*
X163243000Y-72961000D03*
G04 #@! TO.P,U2,2*
G04 #@! TO.N,Net-(R2-Pad1)*
X155623000Y-72961000D03*
G04 #@! TO.P,U2,4*
G04 #@! TO.N,+24V*
X163243000Y-70421000D03*
G04 #@! TD*
D10*
G04 #@! TO.P,U3,1*
G04 #@! TO.N,+5Vcc*
X155623000Y-77914000D03*
D11*
G04 #@! TO.P,U3,3*
G04 #@! TO.N,Net-(Q3-Pad1)*
X163243000Y-80454000D03*
G04 #@! TO.P,U3,2*
G04 #@! TO.N,Net-(R3-Pad1)*
X155623000Y-80454000D03*
G04 #@! TO.P,U3,4*
G04 #@! TO.N,+24V*
X163243000Y-77914000D03*
G04 #@! TD*
D10*
G04 #@! TO.P,U1,1*
G04 #@! TO.N,+5Vcc*
X155623000Y-62928000D03*
D11*
G04 #@! TO.P,U1,3*
G04 #@! TO.N,Net-(Q1-Pad1)*
X163243000Y-65468000D03*
G04 #@! TO.P,U1,2*
G04 #@! TO.N,Net-(R1-Pad1)*
X155623000Y-65468000D03*
G04 #@! TO.P,U1,4*
G04 #@! TO.N,+24V*
X163243000Y-62928000D03*
G04 #@! TD*
D10*
G04 #@! TO.P,U8,1*
G04 #@! TO.N,+5Vcc*
X155623000Y-115379000D03*
D11*
G04 #@! TO.P,U8,3*
G04 #@! TO.N,Net-(Q8-Pad1)*
X163243000Y-117919000D03*
G04 #@! TO.P,U8,2*
G04 #@! TO.N,Net-(R12-Pad1)*
X155623000Y-117919000D03*
G04 #@! TO.P,U8,4*
G04 #@! TO.N,+24V*
X163243000Y-115379000D03*
G04 #@! TD*
D10*
G04 #@! TO.P,U12,1*
G04 #@! TO.N,GND*
X114617000Y-88582000D03*
D11*
G04 #@! TO.P,U12,11*
G04 #@! TO.N,SIGNAL_05*
X137477000Y-80962000D03*
G04 #@! TO.P,U12,2*
G04 #@! TO.N,SIGNAL_01*
X117157000Y-88582000D03*
G04 #@! TO.P,U12,12*
G04 #@! TO.N,Q4*
X134937000Y-80962000D03*
G04 #@! TO.P,U12,3*
G04 #@! TO.N,Q8*
X119697000Y-88582000D03*
G04 #@! TO.P,U12,13*
G04 #@! TO.N,SIGNAL_06*
X132397000Y-80962000D03*
G04 #@! TO.P,U12,4*
G04 #@! TO.N,SIGNAL_02*
X122237000Y-88582000D03*
G04 #@! TO.P,U12,14*
G04 #@! TO.N,Q3*
X129857000Y-80962000D03*
G04 #@! TO.P,U12,5*
G04 #@! TO.N,Q7*
X124777000Y-88582000D03*
G04 #@! TO.P,U12,15*
G04 #@! TO.N,SIGNAL_07*
X127317000Y-80962000D03*
G04 #@! TO.P,U12,6*
G04 #@! TO.N,SIGNAL_03*
X127317000Y-88582000D03*
G04 #@! TO.P,U12,16*
G04 #@! TO.N,Q2*
X124777000Y-80962000D03*
G04 #@! TO.P,U12,7*
G04 #@! TO.N,Q6*
X129857000Y-88582000D03*
G04 #@! TO.P,U12,17*
G04 #@! TO.N,SIGNAL_08*
X122237000Y-80962000D03*
G04 #@! TO.P,U12,8*
G04 #@! TO.N,SIGNAL_04*
X132397000Y-88582000D03*
G04 #@! TO.P,U12,18*
G04 #@! TO.N,Q1*
X119697000Y-80962000D03*
G04 #@! TO.P,U12,9*
G04 #@! TO.N,Q5*
X134937000Y-88582000D03*
G04 #@! TO.P,U12,19*
G04 #@! TO.N,GND*
X117157000Y-80962000D03*
G04 #@! TO.P,U12,10*
X137477000Y-88582000D03*
G04 #@! TO.P,U12,20*
G04 #@! TO.N,+5Vcc*
X114617000Y-80962000D03*
G04 #@! TD*
D12*
G04 #@! TO.P,J1,4*
G04 #@! TO.N,+5Vcc*
X50934000Y-125857000D03*
G04 #@! TO.P,J1,3*
G04 #@! TO.N,SCL*
X45934000Y-125857000D03*
G04 #@! TO.P,J1,1*
G04 #@! TO.N,GND*
X35934000Y-125857000D03*
G04 #@! TO.P,J1,2*
G04 #@! TO.N,SDA*
X40934000Y-125857000D03*
G04 #@! TD*
D13*
G04 #@! TO.P,J2,1*
G04 #@! TO.N,Net-(J2-Pad1)*
X63474500Y-103728000D03*
D14*
G04 #@! TO.P,J2,2*
G04 #@! TO.N,+5Vcc*
X60934500Y-103728000D03*
G04 #@! TD*
D13*
G04 #@! TO.P,J5,1*
G04 #@! TO.N,Net-(J5-Pad1)*
X115996000Y-97314000D03*
D14*
G04 #@! TO.P,J5,2*
G04 #@! TO.N,+5Vcc*
X113456000Y-97314000D03*
G04 #@! TD*
D13*
G04 #@! TO.P,J6,1*
G04 #@! TO.N,Net-(J6-Pad1)*
X115996000Y-100362000D03*
D14*
G04 #@! TO.P,J6,2*
G04 #@! TO.N,+5Vcc*
X113456000Y-100362000D03*
G04 #@! TD*
D13*
G04 #@! TO.P,J7,1*
G04 #@! TO.N,Net-(J7-Pad1)*
X115996000Y-103410000D03*
D14*
G04 #@! TO.P,J7,2*
G04 #@! TO.N,+5Vcc*
X113456000Y-103410000D03*
G04 #@! TD*
D12*
G04 #@! TO.P,J10,1*
G04 #@! TO.N,+24V*
X223560000Y-125730000D03*
G04 #@! TO.P,J10,2*
G04 #@! TO.N,GNDPWR*
X228560000Y-125730000D03*
G04 #@! TD*
D10*
G04 #@! TO.P,U5,1*
G04 #@! TO.N,+5Vcc*
X155623000Y-92900000D03*
D11*
G04 #@! TO.P,U5,3*
G04 #@! TO.N,Net-(Q5-Pad1)*
X163243000Y-95440000D03*
G04 #@! TO.P,U5,2*
G04 #@! TO.N,Net-(R9-Pad1)*
X155623000Y-95440000D03*
G04 #@! TO.P,U5,4*
G04 #@! TO.N,+24V*
X163243000Y-92900000D03*
G04 #@! TD*
D10*
G04 #@! TO.P,U6,1*
G04 #@! TO.N,+5Vcc*
X155623000Y-100393000D03*
D11*
G04 #@! TO.P,U6,3*
G04 #@! TO.N,Net-(Q6-Pad1)*
X163243000Y-102933000D03*
G04 #@! TO.P,U6,2*
G04 #@! TO.N,Net-(R10-Pad1)*
X155623000Y-102933000D03*
G04 #@! TO.P,U6,4*
G04 #@! TO.N,+24V*
X163243000Y-100393000D03*
G04 #@! TD*
D10*
G04 #@! TO.P,U7,1*
G04 #@! TO.N,+5Vcc*
X155623000Y-107886000D03*
D11*
G04 #@! TO.P,U7,3*
G04 #@! TO.N,Net-(Q7-Pad1)*
X163243000Y-110426000D03*
G04 #@! TO.P,U7,2*
G04 #@! TO.N,Net-(R11-Pad1)*
X155623000Y-110426000D03*
G04 #@! TO.P,U7,4*
G04 #@! TO.N,+24V*
X163243000Y-107886000D03*
G04 #@! TD*
D15*
G04 #@! TO.P,U9,1*
G04 #@! TO.N,Net-(J2-Pad1)*
X69189500Y-104616000D03*
G04 #@! TO.P,U9,2*
G04 #@! TO.N,Net-(J3-Pad1)*
X71729500Y-104616000D03*
G04 #@! TO.P,U9,3*
G04 #@! TO.N,Net-(J4-Pad1)*
X74269500Y-104616000D03*
G04 #@! TO.P,U9,4*
G04 #@! TO.N,IN01*
X76809500Y-104616000D03*
G04 #@! TO.P,U9,5*
G04 #@! TO.N,IN02*
X79349500Y-104616000D03*
G04 #@! TO.P,U9,6*
G04 #@! TO.N,IN03*
X81889500Y-104616000D03*
G04 #@! TO.P,U9,7*
G04 #@! TO.N,IN04*
X84429500Y-104616000D03*
G04 #@! TO.P,U9,8*
G04 #@! TO.N,GND*
X86969500Y-104616000D03*
G04 #@! TO.P,U9,9*
G04 #@! TO.N,IN05*
X86969500Y-96996000D03*
G04 #@! TO.P,U9,10*
G04 #@! TO.N,IN06*
X84429500Y-96996000D03*
G04 #@! TO.P,U9,11*
G04 #@! TO.N,IN07*
X81889500Y-96996000D03*
G04 #@! TO.P,U9,12*
G04 #@! TO.N,IN08*
X79349500Y-96996000D03*
G04 #@! TO.P,U9,13*
G04 #@! TO.N,N/C*
X76809500Y-96996000D03*
G04 #@! TO.P,U9,14*
G04 #@! TO.N,SCL*
X74269500Y-96996000D03*
G04 #@! TO.P,U9,15*
G04 #@! TO.N,SDA*
X71729500Y-96996000D03*
G04 #@! TO.P,U9,16*
G04 #@! TO.N,+5Vcc*
X69189500Y-96996000D03*
G04 #@! TD*
G04 #@! TO.P,U10,1*
G04 #@! TO.N,Net-(J5-Pad1)*
X122410000Y-103982000D03*
G04 #@! TO.P,U10,2*
G04 #@! TO.N,Net-(J6-Pad1)*
X124950000Y-103982000D03*
G04 #@! TO.P,U10,3*
G04 #@! TO.N,Net-(J7-Pad1)*
X127490000Y-103982000D03*
G04 #@! TO.P,U10,4*
G04 #@! TO.N,SIGNAL_01*
X130030000Y-103982000D03*
G04 #@! TO.P,U10,5*
G04 #@! TO.N,SIGNAL_02*
X132570000Y-103982000D03*
G04 #@! TO.P,U10,6*
G04 #@! TO.N,SIGNAL_03*
X135110000Y-103982000D03*
G04 #@! TO.P,U10,7*
G04 #@! TO.N,SIGNAL_04*
X137650000Y-103982000D03*
G04 #@! TO.P,U10,8*
G04 #@! TO.N,GND*
X140190000Y-103982000D03*
G04 #@! TO.P,U10,9*
G04 #@! TO.N,SIGNAL_05*
X140190000Y-96362000D03*
G04 #@! TO.P,U10,10*
G04 #@! TO.N,SIGNAL_06*
X137650000Y-96362000D03*
G04 #@! TO.P,U10,11*
G04 #@! TO.N,SIGNAL_07*
X135110000Y-96362000D03*
G04 #@! TO.P,U10,12*
G04 #@! TO.N,SIGNAL_08*
X132570000Y-96362000D03*
G04 #@! TO.P,U10,13*
G04 #@! TO.N,N/C*
X130030000Y-96362000D03*
G04 #@! TO.P,U10,14*
G04 #@! TO.N,SCL*
X127490000Y-96362000D03*
G04 #@! TO.P,U10,15*
G04 #@! TO.N,SDA*
X124950000Y-96362000D03*
G04 #@! TO.P,U10,16*
G04 #@! TO.N,+5Vcc*
X122410000Y-96362000D03*
G04 #@! TD*
D10*
G04 #@! TO.P,U11,1*
G04 #@! TO.N,GND*
X63588000Y-88916000D03*
D11*
G04 #@! TO.P,U11,11*
G04 #@! TO.N,IN05*
X86448000Y-81296000D03*
G04 #@! TO.P,U11,2*
G04 #@! TO.N,IN01*
X66128000Y-88916000D03*
G04 #@! TO.P,U11,12*
G04 #@! TO.N,S4*
X83908000Y-81296000D03*
G04 #@! TO.P,U11,3*
G04 #@! TO.N,S8*
X68668000Y-88916000D03*
G04 #@! TO.P,U11,13*
G04 #@! TO.N,IN06*
X81368000Y-81296000D03*
G04 #@! TO.P,U11,4*
G04 #@! TO.N,IN02*
X71208000Y-88916000D03*
G04 #@! TO.P,U11,14*
G04 #@! TO.N,S3*
X78828000Y-81296000D03*
G04 #@! TO.P,U11,5*
G04 #@! TO.N,S7*
X73748000Y-88916000D03*
G04 #@! TO.P,U11,15*
G04 #@! TO.N,IN07*
X76288000Y-81296000D03*
G04 #@! TO.P,U11,6*
G04 #@! TO.N,IN03*
X76288000Y-88916000D03*
G04 #@! TO.P,U11,16*
G04 #@! TO.N,S2*
X73748000Y-81296000D03*
G04 #@! TO.P,U11,7*
G04 #@! TO.N,S6*
X78828000Y-88916000D03*
G04 #@! TO.P,U11,17*
G04 #@! TO.N,IN08*
X71208000Y-81296000D03*
G04 #@! TO.P,U11,8*
G04 #@! TO.N,IN04*
X81368000Y-88916000D03*
G04 #@! TO.P,U11,18*
G04 #@! TO.N,S1*
X68668000Y-81296000D03*
G04 #@! TO.P,U11,9*
G04 #@! TO.N,S5*
X83908000Y-88916000D03*
G04 #@! TO.P,U11,19*
G04 #@! TO.N,GND*
X66128000Y-81296000D03*
G04 #@! TO.P,U11,10*
X86448000Y-88916000D03*
G04 #@! TO.P,U11,20*
G04 #@! TO.N,+5Vcc*
X63588000Y-81296000D03*
G04 #@! TD*
D13*
G04 #@! TO.P,J3,1*
G04 #@! TO.N,Net-(J3-Pad1)*
X63474500Y-100552000D03*
D14*
G04 #@! TO.P,J3,2*
G04 #@! TO.N,+5Vcc*
X60934500Y-100552000D03*
G04 #@! TD*
D13*
G04 #@! TO.P,J4,1*
G04 #@! TO.N,Net-(J4-Pad1)*
X63474500Y-97378000D03*
D14*
G04 #@! TO.P,J4,2*
G04 #@! TO.N,+5Vcc*
X60934500Y-97378000D03*
G04 #@! TD*
D12*
G04 #@! TO.P,J8,16*
G04 #@! TO.N,+24V*
X216570000Y-125730000D03*
G04 #@! TO.P,J8,15*
G04 #@! TO.N,MOTOR_01-*
X211570000Y-125730000D03*
G04 #@! TO.P,J8,14*
G04 #@! TO.N,+24V*
X206570000Y-125730000D03*
G04 #@! TO.P,J8,13*
G04 #@! TO.N,MOTOR_02-*
X201570000Y-125730000D03*
G04 #@! TO.P,J8,12*
G04 #@! TO.N,+24V*
X196570000Y-125730000D03*
G04 #@! TO.P,J8,11*
G04 #@! TO.N,MOTOR_03-*
X191570000Y-125730000D03*
G04 #@! TO.P,J8,10*
G04 #@! TO.N,+24V*
X186570000Y-125730000D03*
G04 #@! TO.P,J8,9*
G04 #@! TO.N,MOTOR_04-*
X181570000Y-125730000D03*
G04 #@! TO.P,J8,8*
G04 #@! TO.N,+24V*
X176570000Y-125730000D03*
G04 #@! TO.P,J8,7*
G04 #@! TO.N,MOTOR_05-*
X171570000Y-125730000D03*
G04 #@! TO.P,J8,6*
G04 #@! TO.N,+24V*
X166570000Y-125730000D03*
G04 #@! TO.P,J8,5*
G04 #@! TO.N,MOTOR_06-*
X161570000Y-125730000D03*
G04 #@! TO.P,J8,4*
G04 #@! TO.N,+24V*
X156570000Y-125730000D03*
G04 #@! TO.P,J8,3*
G04 #@! TO.N,MOTOR_07-*
X151570000Y-125730000D03*
G04 #@! TO.P,J8,1*
G04 #@! TO.N,MOTOR_08-*
X141570000Y-125730000D03*
G04 #@! TO.P,J8,2*
G04 #@! TO.N,+24V*
X146570000Y-125730000D03*
G04 #@! TD*
G04 #@! TO.P,J9,16*
G04 #@! TO.N,+5Vcc*
X133004000Y-125857000D03*
G04 #@! TO.P,J9,15*
G04 #@! TO.N,IN08*
X128004000Y-125857000D03*
G04 #@! TO.P,J9,14*
G04 #@! TO.N,+5Vcc*
X123004000Y-125857000D03*
G04 #@! TO.P,J9,13*
G04 #@! TO.N,IN07*
X118004000Y-125857000D03*
G04 #@! TO.P,J9,12*
G04 #@! TO.N,+5Vcc*
X113004000Y-125857000D03*
G04 #@! TO.P,J9,11*
G04 #@! TO.N,IN06*
X108004000Y-125857000D03*
G04 #@! TO.P,J9,10*
G04 #@! TO.N,+5Vcc*
X103004000Y-125857000D03*
G04 #@! TO.P,J9,9*
G04 #@! TO.N,IN05*
X98004000Y-125857000D03*
G04 #@! TO.P,J9,8*
G04 #@! TO.N,+5Vcc*
X93004000Y-125857000D03*
G04 #@! TO.P,J9,7*
G04 #@! TO.N,IN04*
X88004000Y-125857000D03*
G04 #@! TO.P,J9,6*
G04 #@! TO.N,+5Vcc*
X83004000Y-125857000D03*
G04 #@! TO.P,J9,5*
G04 #@! TO.N,IN03*
X78004000Y-125857000D03*
G04 #@! TO.P,J9,4*
G04 #@! TO.N,+5Vcc*
X73004000Y-125857000D03*
G04 #@! TO.P,J9,3*
G04 #@! TO.N,IN02*
X68004000Y-125857000D03*
G04 #@! TO.P,J9,1*
G04 #@! TO.N,IN01*
X58004000Y-125857000D03*
G04 #@! TO.P,J9,2*
G04 #@! TO.N,+5Vcc*
X63004000Y-125857000D03*
G04 #@! TD*
D16*
G04 #@! TO.P,J11,1*
G04 #@! TO.N,N/C*
X38000000Y-89000000D03*
G04 #@! TD*
G04 #@! TO.P,J12,1*
G04 #@! TO.N,N/C*
X228000000Y-89000000D03*
G04 #@! TD*
G04 #@! TO.P,J13,1*
G04 #@! TO.N,N/C*
X38000000Y-114000000D03*
G04 #@! TD*
G04 #@! TO.P,J14,1*
G04 #@! TO.N,N/C*
X228000000Y-114000000D03*
G04 #@! TD*
D17*
G04 #@! TO.N,MOTOR_01-*
X214570000Y-87342100D03*
G04 #@! TO.N,MOTOR_03-*
X194197000Y-80606000D03*
G04 #@! TO.N,MOTOR_02-*
X201817000Y-86039200D03*
G04 #@! TO.N,MOTOR_04-*
X175022800Y-87003100D03*
G04 #@! TO.N,MOTOR_05-*
X172551100Y-114267700D03*
D18*
G04 #@! TO.N,SIGNAL_03*
X141366300Y-94073200D03*
G04 #@! TO.N,SIGNAL_04*
X142799100Y-90864900D03*
G04 #@! TO.N,Net-(Q1-Pad1)*
X209626600Y-62810700D03*
G04 #@! TO.N,Net-(Q2-Pad1)*
X191890400Y-62801700D03*
G04 #@! TO.N,Net-(Q3-Pad1)*
X181370000Y-63827000D03*
G04 #@! TO.N,Net-(Q5-Pad1)*
X176163000Y-112757500D03*
G04 #@! TO.N,Q1*
X137927500Y-72634900D03*
G04 #@! TO.N,Q3*
X128687700Y-75874000D03*
G04 #@! TO.N,Q4*
X128048800Y-75092900D03*
D17*
G04 #@! TO.N,MOTOR_06-*
X171064900Y-116614700D03*
D18*
G04 #@! TO.N,Q6*
X111144500Y-74740000D03*
G04 #@! TO.N,Q7*
X107166000Y-73040000D03*
X133187500Y-91209900D03*
G04 #@! TO.N,Q8*
X101678300Y-73040000D03*
G04 #@! TO.N,S2*
X78018100Y-76756800D03*
G04 #@! TO.N,S3*
X78995600Y-75821600D03*
G04 #@! TO.N,+5Vcc*
X101218000Y-95282000D03*
X62162100Y-90128800D03*
G04 #@! TO.N,SCL*
X101261400Y-92340300D03*
X54762700Y-92608600D03*
G04 #@! TO.N,SDA*
X54030000Y-95282000D03*
X105858100Y-94719300D03*
G04 #@! TO.N,IN08*
X95300800Y-114147400D03*
G04 #@! TO.N,IN02*
X67872200Y-96095700D03*
G04 #@! TO.N,Net-(Q6-Pad1)*
X179888600Y-109602700D03*
X180479800Y-115389100D03*
G04 #@! TO.N,Net-(Q7-Pad1)*
X178792900Y-117537700D03*
G04 #@! TO.N,Net-(Q8-Pad1)*
X164244800Y-122444500D03*
D17*
G04 #@! TO.N,+24V*
X192324700Y-111307700D03*
X183253400Y-110808300D03*
G04 #@! TD*
D19*
G04 #@! TO.N,MOTOR_01-*
X211570000Y-125730000D02*
X214570000Y-122730000D01*
X214570000Y-122730000D02*
X214570000Y-87342100D01*
G04 #@! TO.N,MOTOR_03-*
X191570000Y-125730000D02*
X194197000Y-123103000D01*
X194197000Y-123103000D02*
X194197000Y-80606000D01*
G04 #@! TO.N,MOTOR_02-*
X201570000Y-125730000D02*
X201817000Y-125483000D01*
X201817000Y-125483000D02*
X201817000Y-86039200D01*
G04 #@! TO.N,MOTOR_04-*
X181570000Y-125730000D02*
X181646800Y-125653200D01*
X181646800Y-125653200D02*
X181646800Y-93627100D01*
X181646800Y-93627100D02*
X175022800Y-87003100D01*
G04 #@! TO.N,MOTOR_05-*
X171570000Y-125730000D02*
X172551100Y-124748900D01*
X172551100Y-124748900D02*
X172551100Y-114267700D01*
D20*
G04 #@! TO.N,SIGNAL_03*
X135110000Y-103982000D02*
X141491000Y-97601000D01*
X141491000Y-97601000D02*
X141491000Y-94197900D01*
X141491000Y-94197900D02*
X141366300Y-94073200D01*
G04 #@! TO.N,SIGNAL_01*
X117157000Y-88582000D02*
X117157000Y-90082000D01*
X117157000Y-90082000D02*
X118433100Y-91358100D01*
X118433100Y-91358100D02*
X118433100Y-95865500D01*
X118433100Y-95865500D02*
X124402300Y-101834700D01*
X124402300Y-101834700D02*
X127882700Y-101834700D01*
X127882700Y-101834700D02*
X130030000Y-103982000D01*
G04 #@! TO.N,SIGNAL_02*
X122237000Y-88582000D02*
X122237000Y-90082000D01*
X132570000Y-103982000D02*
X127069900Y-98481900D01*
X127069900Y-98481900D02*
X122338700Y-98481900D01*
X122338700Y-98481900D02*
X121047500Y-97190700D01*
X121047500Y-97190700D02*
X121047500Y-91271500D01*
X121047500Y-91271500D02*
X122237000Y-90082000D01*
G04 #@! TO.N,SIGNAL_04*
X137650000Y-103982000D02*
X142799100Y-98832900D01*
X142799100Y-98832900D02*
X142799100Y-90864900D01*
G04 #@! TO.N,SIGNAL_05*
X137477000Y-82462000D02*
X141531700Y-86516700D01*
X141531700Y-86516700D02*
X141531700Y-92634500D01*
X141531700Y-92634500D02*
X140190000Y-93976200D01*
X140190000Y-93976200D02*
X140190000Y-94562100D01*
X137477000Y-80962000D02*
X137477000Y-82462000D01*
X140190000Y-96362000D02*
X140190000Y-94562100D01*
G04 #@! TO.N,GND*
X66128000Y-84876000D02*
X66128000Y-81296000D01*
X63588000Y-87416000D02*
X66128000Y-84876000D01*
X66128000Y-84876000D02*
X68817700Y-87565700D01*
X68817700Y-87565700D02*
X85097700Y-87565700D01*
X85097700Y-87565700D02*
X86448000Y-88916000D01*
X63588000Y-88916000D02*
X63588000Y-87416000D01*
G04 #@! TO.N,Net-(Q1-Pad1)*
X209626600Y-62810700D02*
X208703900Y-61888000D01*
X208703900Y-61888000D02*
X168323000Y-61888000D01*
X168323000Y-61888000D02*
X164743000Y-65468000D01*
X163243000Y-65468000D02*
X164743000Y-65468000D01*
G04 #@! TO.N,Net-(Q2-Pad1)*
X164743000Y-72961000D02*
X174902300Y-62801700D01*
X174902300Y-62801700D02*
X191890400Y-62801700D01*
X163243000Y-72961000D02*
X164743000Y-72961000D01*
G04 #@! TO.N,Net-(Q3-Pad1)*
X164743000Y-80454000D02*
X181370000Y-63827000D01*
X163243000Y-80454000D02*
X164743000Y-80454000D01*
G04 #@! TO.N,Net-(Q5-Pad1)*
X163243000Y-95440000D02*
X163243000Y-96940000D01*
X163243000Y-96940000D02*
X176163000Y-109860000D01*
X176163000Y-109860000D02*
X176163000Y-112757500D01*
G04 #@! TO.N,Q1*
X119697000Y-80962000D02*
X128024100Y-72634900D01*
X128024100Y-72634900D02*
X137927500Y-72634900D01*
G04 #@! TO.N,Q3*
X129857000Y-80962000D02*
X129857000Y-79462000D01*
X129857000Y-79462000D02*
X128687700Y-78292700D01*
X128687700Y-78292700D02*
X128687700Y-75874000D01*
G04 #@! TO.N,Q4*
X134937000Y-80962000D02*
X134937000Y-79462000D01*
X134937000Y-79462000D02*
X130448700Y-74973700D01*
X130448700Y-74973700D02*
X128168000Y-74973700D01*
X128168000Y-74973700D02*
X128048800Y-75092900D01*
D19*
G04 #@! TO.N,MOTOR_06-*
X161570000Y-125730000D02*
X162586100Y-125730000D01*
X162586100Y-125730000D02*
X170819300Y-117496800D01*
X170819300Y-117496800D02*
X170819300Y-116860200D01*
X170819300Y-116860200D02*
X170819400Y-116860200D01*
X170819400Y-116860200D02*
X171064900Y-116614700D01*
D20*
G04 #@! TO.N,Q6*
X129857000Y-88582000D02*
X125213900Y-83938900D01*
X125213900Y-83938900D02*
X115656300Y-83938900D01*
X115656300Y-83938900D02*
X111144500Y-79427100D01*
X111144500Y-79427100D02*
X111144500Y-74740000D01*
G04 #@! TO.N,Q7*
X107166000Y-73040000D02*
X107166000Y-76721900D01*
X107166000Y-76721900D02*
X115497100Y-85053000D01*
X115497100Y-85053000D02*
X121248000Y-85053000D01*
X121248000Y-85053000D02*
X124777000Y-88582000D01*
X124777000Y-88582000D02*
X127404900Y-91209900D01*
X127404900Y-91209900D02*
X133187500Y-91209900D01*
G04 #@! TO.N,Q8*
X119697000Y-87082000D02*
X115720300Y-87082000D01*
X115720300Y-87082000D02*
X101678300Y-73040000D01*
X119697000Y-88582000D02*
X119697000Y-87082000D01*
G04 #@! TO.N,S2*
X73748000Y-81296000D02*
X73748000Y-79796000D01*
X73748000Y-79796000D02*
X74978900Y-79796000D01*
X74978900Y-79796000D02*
X78018100Y-76756800D01*
G04 #@! TO.N,S3*
X78828000Y-79796000D02*
X78995600Y-79628400D01*
X78995600Y-79628400D02*
X78995600Y-75821600D01*
X78828000Y-81296000D02*
X78828000Y-79796000D01*
G04 #@! TO.N,+5Vcc*
X113456000Y-97314000D02*
X103250000Y-97314000D01*
X103250000Y-97314000D02*
X101218000Y-95282000D01*
X113456000Y-100362000D02*
X113456000Y-97314000D01*
X114579300Y-124056600D02*
X114579300Y-106333200D01*
X114579300Y-106333200D02*
X113456000Y-105209900D01*
X113004000Y-125857000D02*
X114579300Y-124281700D01*
X114579300Y-124281700D02*
X114579300Y-124056600D01*
X114579300Y-124056600D02*
X121203600Y-124056600D01*
X121203600Y-124056600D02*
X123004000Y-125857000D01*
X113456000Y-103410000D02*
X113456000Y-105209900D01*
X113456000Y-103410000D02*
X113456000Y-100362000D01*
X155623000Y-107886000D02*
X155623000Y-106386000D01*
X155623000Y-106386000D02*
X154270200Y-105033200D01*
X154270200Y-105033200D02*
X154270200Y-101745800D01*
X154270200Y-101745800D02*
X155623000Y-100393000D01*
X155623000Y-113879000D02*
X154271200Y-112527200D01*
X154271200Y-112527200D02*
X154271200Y-109237800D01*
X154271200Y-109237800D02*
X155623000Y-107886000D01*
X155623000Y-115379000D02*
X155623000Y-113879000D01*
X62162100Y-90128800D02*
X62162100Y-84221900D01*
X62162100Y-84221900D02*
X63588000Y-82796000D01*
X62162100Y-94701400D02*
X62162100Y-90128800D01*
X155623000Y-92900000D02*
X155623000Y-91400000D01*
X155623000Y-91400000D02*
X154266000Y-90043000D01*
X154266000Y-90043000D02*
X154266000Y-86764000D01*
X154266000Y-86764000D02*
X155623000Y-85407000D01*
X155623000Y-98893000D02*
X154272600Y-97542600D01*
X154272600Y-97542600D02*
X154272600Y-94250400D01*
X154272600Y-94250400D02*
X155623000Y-92900000D01*
X63588000Y-81296000D02*
X63588000Y-82796000D01*
X62162100Y-94701400D02*
X61811200Y-94701400D01*
X61811200Y-94701400D02*
X60934500Y-95578100D01*
X67738900Y-96996000D02*
X67176700Y-96996000D01*
X67176700Y-96996000D02*
X64882100Y-94701400D01*
X64882100Y-94701400D02*
X62162100Y-94701400D01*
X59472500Y-122500000D02*
X54291000Y-122500000D01*
X54291000Y-122500000D02*
X50934000Y-125857000D01*
X63004000Y-125857000D02*
X59647000Y-122500000D01*
X59647000Y-122500000D02*
X59472500Y-122500000D01*
X59472500Y-103728000D02*
X59472500Y-122500000D01*
X60934500Y-103728000D02*
X59472500Y-103728000D01*
X60934500Y-100552000D02*
X60934500Y-103728000D01*
X73004000Y-125857000D02*
X71203600Y-127657400D01*
X71203600Y-127657400D02*
X64804400Y-127657400D01*
X64804400Y-127657400D02*
X63004000Y-125857000D01*
X60934500Y-97378000D02*
X60934500Y-95578100D01*
X69189500Y-96996000D02*
X67738900Y-96996000D01*
X60934500Y-100552000D02*
X60934500Y-97378000D01*
X83004000Y-125857000D02*
X84809200Y-127662200D01*
X84809200Y-127662200D02*
X91198800Y-127662200D01*
X91198800Y-127662200D02*
X93004000Y-125857000D01*
X73004000Y-125857000D02*
X74804400Y-127657400D01*
X74804400Y-127657400D02*
X81203600Y-127657400D01*
X81203600Y-127657400D02*
X83004000Y-125857000D01*
X155623000Y-70421000D02*
X155623000Y-68921000D01*
X155623000Y-62928000D02*
X154272600Y-64278400D01*
X154272600Y-64278400D02*
X154272600Y-67570600D01*
X154272600Y-67570600D02*
X155623000Y-68921000D01*
X155623000Y-77914000D02*
X155623000Y-76414000D01*
X155623000Y-76414000D02*
X154272000Y-75063000D01*
X154272000Y-75063000D02*
X154272000Y-71772000D01*
X154272000Y-71772000D02*
X155623000Y-70421000D01*
X155623000Y-83907000D02*
X156973400Y-82556600D01*
X156973400Y-82556600D02*
X156973400Y-79264400D01*
X156973400Y-79264400D02*
X155623000Y-77914000D01*
X123004000Y-125857000D02*
X124809900Y-127662900D01*
X124809900Y-127662900D02*
X131198100Y-127662900D01*
X131198100Y-127662900D02*
X133004000Y-125857000D01*
X155623000Y-85407000D02*
X155623000Y-83907000D01*
X155623000Y-100393000D02*
X155623000Y-98893000D01*
G04 #@! TO.N,SCL*
X101261400Y-92340300D02*
X83826000Y-74904900D01*
X83826000Y-74904900D02*
X68006600Y-74904900D01*
X68006600Y-74904900D02*
X54762700Y-88148800D01*
X54762700Y-88148800D02*
X54762700Y-92608600D01*
X54762700Y-92608600D02*
X54930400Y-92776300D01*
X54930400Y-92776300D02*
X54930400Y-116860600D01*
X54930400Y-116860600D02*
X45934000Y-125857000D01*
G04 #@! TO.N,SDA*
X105858100Y-94719300D02*
X85111500Y-73972700D01*
X85111500Y-73972700D02*
X67665500Y-73972700D01*
X67665500Y-73972700D02*
X53841400Y-87796800D01*
X53841400Y-87796800D02*
X53841400Y-95093400D01*
X53841400Y-95093400D02*
X54030000Y-95282000D01*
X40934000Y-125857000D02*
X54030000Y-112761000D01*
X54030000Y-112761000D02*
X54030000Y-95282000D01*
G04 #@! TO.N,IN08*
X79638000Y-97040700D02*
X84867500Y-102270200D01*
X84867500Y-102270200D02*
X86812800Y-102270200D01*
X86812800Y-102270200D02*
X95300800Y-110758200D01*
X95300800Y-110758200D02*
X95300800Y-114147400D01*
X79349500Y-96996000D02*
X79593300Y-96996000D01*
X79593300Y-96996000D02*
X79638000Y-97040700D01*
X79638000Y-97040700D02*
X81583100Y-95095600D01*
X81583100Y-95095600D02*
X82240300Y-95095600D01*
X82240300Y-95095600D02*
X87824400Y-89511500D01*
X87824400Y-89511500D02*
X87824400Y-88367500D01*
X87824400Y-88367500D02*
X86122200Y-86665300D01*
X86122200Y-86665300D02*
X76577300Y-86665300D01*
X76577300Y-86665300D02*
X71208000Y-81296000D01*
G04 #@! TO.N,IN07*
X82064900Y-96820600D02*
X84143700Y-98899400D01*
X84143700Y-98899400D02*
X84715300Y-98899400D01*
X84715300Y-98899400D02*
X96217300Y-110401400D01*
X96217300Y-110401400D02*
X96217300Y-116516700D01*
X96217300Y-116516700D02*
X95287200Y-117446800D01*
X95287200Y-117446800D02*
X95287200Y-127008500D01*
X95287200Y-127008500D02*
X96852400Y-128573700D01*
X96852400Y-128573700D02*
X115287300Y-128573700D01*
X115287300Y-128573700D02*
X118004000Y-125857000D01*
X82064900Y-96820600D02*
X81889500Y-96996000D01*
X76288000Y-81296000D02*
X80757000Y-85765000D01*
X80757000Y-85765000D02*
X86495200Y-85765000D01*
X86495200Y-85765000D02*
X88724700Y-87994500D01*
X88724700Y-87994500D02*
X88724700Y-90160800D01*
X88724700Y-90160800D02*
X82064900Y-96820600D01*
G04 #@! TO.N,IN06*
X84605100Y-97070600D02*
X89627700Y-92048000D01*
X89627700Y-92048000D02*
X89627700Y-87606400D01*
X89627700Y-87606400D02*
X85092000Y-83070700D01*
X85092000Y-83070700D02*
X83142700Y-83070700D01*
X83142700Y-83070700D02*
X81368000Y-81296000D01*
X108004000Y-125857000D02*
X106190200Y-127670800D01*
X106190200Y-127670800D02*
X97222800Y-127670800D01*
X97222800Y-127670800D02*
X96187600Y-126635600D01*
X96187600Y-126635600D02*
X96187600Y-121535100D01*
X96187600Y-121535100D02*
X97175900Y-120546800D01*
X97175900Y-120546800D02*
X97175900Y-109641400D01*
X97175900Y-109641400D02*
X84605100Y-97070600D01*
X84605100Y-97070600D02*
X84504100Y-97070600D01*
X84504100Y-97070600D02*
X84429500Y-96996000D01*
G04 #@! TO.N,IN05*
X89667100Y-96996000D02*
X90546300Y-96116800D01*
X90546300Y-96116800D02*
X90546300Y-86894300D01*
X90546300Y-86894300D02*
X86448000Y-82796000D01*
X89667100Y-96996000D02*
X88420100Y-96996000D01*
X98004000Y-125857000D02*
X98076300Y-125784700D01*
X98076300Y-125784700D02*
X98076300Y-105405200D01*
X98076300Y-105405200D02*
X89667100Y-96996000D01*
X86448000Y-81296000D02*
X86448000Y-82796000D01*
X86969500Y-96996000D02*
X88420100Y-96996000D01*
G04 #@! TO.N,IN04*
X88004000Y-125857000D02*
X84429500Y-122282500D01*
X84429500Y-122282500D02*
X84429500Y-104616000D01*
G04 #@! TO.N,IN02*
X71208000Y-88916000D02*
X71208000Y-92759900D01*
X71208000Y-92759900D02*
X67872200Y-96095700D01*
G04 #@! TO.N,Net-(Q6-Pad1)*
X179717400Y-113700600D02*
X179717400Y-114626700D01*
X179717400Y-114626700D02*
X180479800Y-115389100D01*
X164743000Y-102933000D02*
X175510600Y-113700600D01*
X175510600Y-113700600D02*
X179717400Y-113700600D01*
X179888600Y-109602700D02*
X179888600Y-113529400D01*
X179888600Y-113529400D02*
X179717400Y-113700600D01*
X163243000Y-102933000D02*
X164743000Y-102933000D01*
G04 #@! TO.N,Net-(Q7-Pad1)*
X163243000Y-110426000D02*
X170405600Y-110426000D01*
X170405600Y-110426000D02*
X177517300Y-117537700D01*
X177517300Y-117537700D02*
X178792900Y-117537700D01*
G04 #@! TO.N,Net-(Q8-Pad1)*
X164244800Y-122444500D02*
X163243000Y-121442700D01*
X163243000Y-121442700D02*
X163243000Y-117919000D01*
G04 #@! TO.N,SIGNAL_06*
X137650000Y-94562100D02*
X140631400Y-91580700D01*
X140631400Y-91580700D02*
X140631400Y-87275400D01*
X140631400Y-87275400D02*
X138007400Y-84651400D01*
X138007400Y-84651400D02*
X136086400Y-84651400D01*
X136086400Y-84651400D02*
X132397000Y-80962000D01*
X137650000Y-96362000D02*
X137650000Y-94562100D01*
G04 #@! TO.N,SIGNAL_07*
X135110000Y-94562100D02*
X139731100Y-89941000D01*
X139731100Y-89941000D02*
X139731100Y-87648400D01*
X139731100Y-87648400D02*
X137634400Y-85551700D01*
X137634400Y-85551700D02*
X131906700Y-85551700D01*
X131906700Y-85551700D02*
X127317000Y-80962000D01*
X135110000Y-96362000D02*
X135110000Y-94562100D01*
G04 #@! TO.N,SIGNAL_08*
X132570000Y-96362000D02*
X132570000Y-94562100D01*
X132570000Y-94562100D02*
X133493500Y-94562100D01*
X133493500Y-94562100D02*
X138830800Y-89224800D01*
X138830800Y-89224800D02*
X138830800Y-88021400D01*
X138830800Y-88021400D02*
X137579800Y-86770400D01*
X137579800Y-86770400D02*
X131852100Y-86770400D01*
X131852100Y-86770400D02*
X128101700Y-83020000D01*
X128101700Y-83020000D02*
X124295000Y-83020000D01*
X124295000Y-83020000D02*
X122237000Y-80962000D01*
G04 #@! TO.N,Net-(J2-Pad1)*
X63474500Y-103728000D02*
X64936500Y-103728000D01*
X69189500Y-104616000D02*
X65824500Y-104616000D01*
X65824500Y-104616000D02*
X64936500Y-103728000D01*
G04 #@! TO.N,Net-(J5-Pad1)*
X115996000Y-97314000D02*
X117458000Y-97314000D01*
X122410000Y-103982000D02*
X122410000Y-102182100D01*
X122410000Y-102182100D02*
X122326100Y-102182100D01*
X122326100Y-102182100D02*
X117458000Y-97314000D01*
G04 #@! TO.N,Net-(J7-Pad1)*
X115996000Y-103410000D02*
X117458000Y-103410000D01*
X127490000Y-103982000D02*
X125826000Y-105646000D01*
X125826000Y-105646000D02*
X119694000Y-105646000D01*
X119694000Y-105646000D02*
X117458000Y-103410000D01*
D19*
G04 #@! TO.N,+24V*
X156570000Y-125730000D02*
X158620400Y-127780400D01*
X158620400Y-127780400D02*
X164519600Y-127780400D01*
X164519600Y-127780400D02*
X166570000Y-125730000D01*
X155268600Y-123630000D02*
X156570000Y-124931400D01*
X156570000Y-124931400D02*
X156570000Y-125730000D01*
X185544800Y-113099700D02*
X183253400Y-110808300D01*
X185544800Y-125730000D02*
X185544800Y-113099700D01*
X185544800Y-113099700D02*
X190532700Y-113099700D01*
X190532700Y-113099700D02*
X192324700Y-111307700D01*
X163243000Y-107886000D02*
X163243000Y-106136000D01*
X163243000Y-100393000D02*
X163243000Y-98643000D01*
X163243000Y-98643000D02*
X161628500Y-97028500D01*
X161628500Y-97028500D02*
X161628500Y-94514500D01*
X161628500Y-94514500D02*
X163243000Y-92900000D01*
X163243000Y-106136000D02*
X161642600Y-104535600D01*
X161642600Y-104535600D02*
X161642600Y-101993400D01*
X161642600Y-101993400D02*
X163243000Y-100393000D01*
X176570000Y-125730000D02*
X178620400Y-127780400D01*
X178620400Y-127780400D02*
X183494400Y-127780400D01*
X183494400Y-127780400D02*
X185544800Y-125730000D01*
X185544800Y-125730000D02*
X186570000Y-125730000D01*
X196570000Y-125730000D02*
X194519600Y-127780400D01*
X194519600Y-127780400D02*
X188620400Y-127780400D01*
X188620400Y-127780400D02*
X186570000Y-125730000D01*
X196570000Y-125730000D02*
X198620400Y-127780400D01*
X198620400Y-127780400D02*
X204519600Y-127780400D01*
X204519600Y-127780400D02*
X206570000Y-125730000D01*
X155268600Y-123630000D02*
X163243000Y-115655600D01*
X163243000Y-115655600D02*
X163243000Y-115379000D01*
X163243000Y-77914000D02*
X161642700Y-79514300D01*
X161642700Y-79514300D02*
X161642700Y-82056700D01*
X161642700Y-82056700D02*
X163243000Y-83657000D01*
X163243000Y-92900000D02*
X163243000Y-91150000D01*
X163243000Y-91150000D02*
X161631400Y-89538400D01*
X161631400Y-89538400D02*
X161631400Y-87018600D01*
X161631400Y-87018600D02*
X163243000Y-85407000D01*
X146570000Y-125730000D02*
X148670000Y-123630000D01*
X148670000Y-123630000D02*
X155268600Y-123630000D01*
X163243000Y-85407000D02*
X163243000Y-83657000D01*
X216570000Y-125730000D02*
X214519600Y-127780400D01*
X214519600Y-127780400D02*
X208620400Y-127780400D01*
X208620400Y-127780400D02*
X206570000Y-125730000D01*
X176570000Y-125730000D02*
X174519600Y-127780400D01*
X174519600Y-127780400D02*
X168620400Y-127780400D01*
X168620400Y-127780400D02*
X166570000Y-125730000D01*
G04 #@! TD*
D21*
G04 #@! TO.N,GND*
G36*
X157873000Y-78837795D02*
X157738498Y-78636497D01*
X157738496Y-78636495D01*
X157683545Y-78554255D01*
X157601305Y-78499304D01*
X157070440Y-77968439D01*
X157070440Y-77114000D01*
X157021157Y-76866235D01*
X156880809Y-76656191D01*
X156670765Y-76515843D01*
X156609464Y-76503650D01*
X156627297Y-76414000D01*
X156550849Y-76029672D01*
X156388098Y-75786098D01*
X156333145Y-75703855D01*
X156250902Y-75648902D01*
X155257000Y-74655000D01*
X155257000Y-74351311D01*
X155481667Y-74396000D01*
X155764333Y-74396000D01*
X156182909Y-74312740D01*
X156657577Y-73995577D01*
X156974740Y-73520909D01*
X157086113Y-72961000D01*
X156974740Y-72401091D01*
X156657577Y-71926423D01*
X156536894Y-71845785D01*
X156670765Y-71819157D01*
X156880809Y-71678809D01*
X157021157Y-71468765D01*
X157070440Y-71221000D01*
X157070440Y-69621000D01*
X157021157Y-69373235D01*
X156880809Y-69163191D01*
X156670765Y-69022843D01*
X156609464Y-69010650D01*
X156627296Y-68921000D01*
X156608000Y-68823992D01*
X156608000Y-68823988D01*
X156550849Y-68536672D01*
X156525309Y-68498449D01*
X156388098Y-68293097D01*
X156388096Y-68293095D01*
X156333145Y-68210855D01*
X156250905Y-68155904D01*
X155257600Y-67162600D01*
X155257600Y-66858430D01*
X155481667Y-66903000D01*
X155764333Y-66903000D01*
X156182909Y-66819740D01*
X156657577Y-66502577D01*
X156974740Y-66027909D01*
X157086113Y-65468000D01*
X156974740Y-64908091D01*
X156657577Y-64433423D01*
X156536894Y-64352785D01*
X156670765Y-64326157D01*
X156880809Y-64185809D01*
X157021157Y-63975765D01*
X157070440Y-63728000D01*
X157070440Y-62128000D01*
X157021157Y-61880235D01*
X156880809Y-61670191D01*
X156670765Y-61529843D01*
X156423000Y-61480560D01*
X154823000Y-61480560D01*
X154575235Y-61529843D01*
X154365191Y-61670191D01*
X154224843Y-61880235D01*
X154175560Y-62128000D01*
X154175560Y-62982440D01*
X153644698Y-63513302D01*
X153562455Y-63568255D01*
X153344751Y-63894073D01*
X153287600Y-64181389D01*
X153287600Y-64181392D01*
X153268304Y-64278400D01*
X153287600Y-64375408D01*
X153287601Y-67473587D01*
X153268304Y-67570600D01*
X153344751Y-67954927D01*
X153507502Y-68198502D01*
X153507505Y-68198505D01*
X153562456Y-68280745D01*
X153644696Y-68335696D01*
X154429332Y-69120333D01*
X154365191Y-69163191D01*
X154224843Y-69373235D01*
X154175560Y-69621000D01*
X154175560Y-70475440D01*
X153644096Y-71006904D01*
X153561856Y-71061855D01*
X153506905Y-71144095D01*
X153506902Y-71144098D01*
X153344151Y-71387673D01*
X153267704Y-71772000D01*
X153287001Y-71869013D01*
X153287000Y-74965992D01*
X153267704Y-75063000D01*
X153287000Y-75160008D01*
X153287000Y-75160011D01*
X153326388Y-75358027D01*
X153344151Y-75447327D01*
X153372843Y-75490267D01*
X153561855Y-75773145D01*
X153644098Y-75828098D01*
X154429333Y-76613333D01*
X154365191Y-76656191D01*
X154224843Y-76866235D01*
X154175560Y-77114000D01*
X154175560Y-78714000D01*
X154224843Y-78961765D01*
X154365191Y-79171809D01*
X154575235Y-79312157D01*
X154709106Y-79338785D01*
X154588423Y-79419423D01*
X154271260Y-79894091D01*
X154159887Y-80454000D01*
X154271260Y-81013909D01*
X154588423Y-81488577D01*
X155063091Y-81805740D01*
X155481667Y-81889000D01*
X155764333Y-81889000D01*
X155988400Y-81844430D01*
X155988400Y-82148599D01*
X154995096Y-83141904D01*
X154912856Y-83196855D01*
X154857905Y-83279095D01*
X154857902Y-83279098D01*
X154695151Y-83522673D01*
X154618704Y-83907000D01*
X154636536Y-83996650D01*
X154575235Y-84008843D01*
X154365191Y-84149191D01*
X154224843Y-84359235D01*
X154175560Y-84607000D01*
X154175560Y-85461440D01*
X153638096Y-85998904D01*
X153555856Y-86053855D01*
X153500905Y-86136095D01*
X153500902Y-86136098D01*
X153338151Y-86379673D01*
X153261704Y-86764000D01*
X153281001Y-86861013D01*
X153281000Y-89945992D01*
X153261704Y-90043000D01*
X153281000Y-90140008D01*
X153281000Y-90140011D01*
X153338151Y-90427327D01*
X153555855Y-90753145D01*
X153638098Y-90808098D01*
X154429332Y-91599333D01*
X154365191Y-91642191D01*
X154224843Y-91852235D01*
X154175560Y-92100000D01*
X154175560Y-92954440D01*
X153644696Y-93485304D01*
X153562456Y-93540255D01*
X153507505Y-93622495D01*
X153507502Y-93622498D01*
X153344751Y-93866073D01*
X153268304Y-94250400D01*
X153287601Y-94347413D01*
X153287600Y-97445592D01*
X153268304Y-97542600D01*
X153287600Y-97639608D01*
X153287600Y-97639611D01*
X153330127Y-97853407D01*
X153344751Y-97926927D01*
X153476407Y-98123964D01*
X153562455Y-98252745D01*
X153644698Y-98307698D01*
X154429332Y-99092333D01*
X154365191Y-99135191D01*
X154224843Y-99345235D01*
X154175560Y-99593000D01*
X154175560Y-100447440D01*
X153642296Y-100980704D01*
X153560056Y-101035655D01*
X153505105Y-101117895D01*
X153505102Y-101117898D01*
X153342351Y-101361473D01*
X153265904Y-101745800D01*
X153285201Y-101842813D01*
X153285200Y-104936192D01*
X153265904Y-105033200D01*
X153285200Y-105130208D01*
X153285200Y-105130211D01*
X153324979Y-105330190D01*
X153342351Y-105417527D01*
X153488616Y-105636428D01*
X153560055Y-105743345D01*
X153642298Y-105798298D01*
X154429333Y-106585333D01*
X154365191Y-106628191D01*
X154224843Y-106838235D01*
X154175560Y-107086000D01*
X154175560Y-107940440D01*
X153643296Y-108472704D01*
X153561056Y-108527655D01*
X153506105Y-108609895D01*
X153506102Y-108609898D01*
X153343351Y-108853473D01*
X153266904Y-109237800D01*
X153286201Y-109334813D01*
X153286200Y-112430192D01*
X153266904Y-112527200D01*
X153286200Y-112624208D01*
X153286200Y-112624211D01*
X153343351Y-112911527D01*
X153561055Y-113237345D01*
X153643298Y-113292298D01*
X154429332Y-114078333D01*
X154365191Y-114121191D01*
X154224843Y-114331235D01*
X154175560Y-114579000D01*
X154175560Y-116179000D01*
X154224843Y-116426765D01*
X154365191Y-116636809D01*
X154575235Y-116777157D01*
X154709106Y-116803785D01*
X154588423Y-116884423D01*
X154271260Y-117359091D01*
X154169037Y-117873000D01*
X138000000Y-117873000D01*
X137951399Y-117882667D01*
X137910197Y-117910197D01*
X137882667Y-117951399D01*
X137873000Y-118000000D01*
X137873000Y-132265000D01*
X33735000Y-132265000D01*
X33735000Y-127190320D01*
X34780285Y-127190320D01*
X34909533Y-127483123D01*
X35609806Y-127751388D01*
X36359435Y-127731250D01*
X36958467Y-127483123D01*
X37087715Y-127190320D01*
X35934000Y-126036605D01*
X34780285Y-127190320D01*
X33735000Y-127190320D01*
X33735000Y-125532806D01*
X34039612Y-125532806D01*
X34059750Y-126282435D01*
X34307877Y-126881467D01*
X34600680Y-127010715D01*
X35754395Y-125857000D01*
X36113605Y-125857000D01*
X37267320Y-127010715D01*
X37560123Y-126881467D01*
X37828388Y-126181194D01*
X37808250Y-125431565D01*
X37560123Y-124832533D01*
X37267320Y-124703285D01*
X36113605Y-125857000D01*
X35754395Y-125857000D01*
X34600680Y-124703285D01*
X34307877Y-124832533D01*
X34039612Y-125532806D01*
X33735000Y-125532806D01*
X33735000Y-124523680D01*
X34780285Y-124523680D01*
X35934000Y-125677395D01*
X37087715Y-124523680D01*
X36958467Y-124230877D01*
X36258194Y-123962612D01*
X35508565Y-123982750D01*
X34909533Y-124230877D01*
X34780285Y-124523680D01*
X33735000Y-124523680D01*
X33735000Y-123127000D01*
X42271000Y-123127000D01*
X41391717Y-124006283D01*
X41308950Y-123972000D01*
X40559050Y-123972000D01*
X39866233Y-124258974D01*
X39335974Y-124789233D01*
X39049000Y-125482050D01*
X39049000Y-126231950D01*
X39335974Y-126924767D01*
X39866233Y-127455026D01*
X40559050Y-127742000D01*
X41308950Y-127742000D01*
X42001767Y-127455026D01*
X42532026Y-126924767D01*
X42819000Y-126231950D01*
X42819000Y-125482050D01*
X42784717Y-125399283D01*
X53945401Y-114238600D01*
X53945401Y-116452598D01*
X46391717Y-124006283D01*
X46308950Y-123972000D01*
X45559050Y-123972000D01*
X44866233Y-124258974D01*
X44335974Y-124789233D01*
X44049000Y-125482050D01*
X44049000Y-126231950D01*
X44335974Y-126924767D01*
X44866233Y-127455026D01*
X45559050Y-127742000D01*
X46308950Y-127742000D01*
X47001767Y-127455026D01*
X47532026Y-126924767D01*
X47819000Y-126231950D01*
X47819000Y-125482050D01*
X47784717Y-125399283D01*
X55558305Y-117625696D01*
X55640545Y-117570745D01*
X55695496Y-117488505D01*
X55695498Y-117488503D01*
X55858249Y-117244928D01*
X55890736Y-117081604D01*
X55915400Y-116957612D01*
X55915400Y-116957608D01*
X55934696Y-116860600D01*
X55915400Y-116763592D01*
X55915400Y-92873308D01*
X55934696Y-92776300D01*
X55915400Y-92679292D01*
X55915400Y-92679288D01*
X55858249Y-92391972D01*
X55747700Y-92226524D01*
X55747700Y-88556800D01*
X62321308Y-81983192D01*
X62553423Y-82330577D01*
X62603001Y-82363704D01*
X62603001Y-82387999D01*
X61534196Y-83456804D01*
X61451956Y-83511755D01*
X61397005Y-83593995D01*
X61397002Y-83593998D01*
X61234251Y-83837573D01*
X61157804Y-84221900D01*
X61177101Y-84318913D01*
X61177100Y-90225811D01*
X61177101Y-90225816D01*
X61177100Y-93940443D01*
X61101055Y-93991255D01*
X61046104Y-94073495D01*
X60306596Y-94813004D01*
X60224356Y-94867955D01*
X60169405Y-94950195D01*
X60169402Y-94950198D01*
X60006651Y-95193773D01*
X59930204Y-95578100D01*
X59949501Y-95675113D01*
X59949501Y-96018180D01*
X59927321Y-96033000D01*
X59618556Y-96495098D01*
X59537500Y-96902592D01*
X59537500Y-97853407D01*
X59618556Y-98260901D01*
X59927320Y-98722999D01*
X59949501Y-98737820D01*
X59949500Y-99192180D01*
X59927321Y-99207000D01*
X59618556Y-99669098D01*
X59537500Y-100076592D01*
X59537500Y-101027407D01*
X59618556Y-101434901D01*
X59927320Y-101896999D01*
X59949500Y-101911820D01*
X59949501Y-102368180D01*
X59927321Y-102383000D01*
X59686776Y-102743000D01*
X59569512Y-102743000D01*
X59472500Y-102723703D01*
X59375488Y-102743000D01*
X59088172Y-102800151D01*
X58762355Y-103017855D01*
X58544651Y-103343672D01*
X58468203Y-103728000D01*
X58487500Y-103825012D01*
X58487501Y-121515000D01*
X54388008Y-121515000D01*
X54291000Y-121495704D01*
X54193992Y-121515000D01*
X54193988Y-121515000D01*
X53906672Y-121572151D01*
X53663097Y-121734902D01*
X53663095Y-121734904D01*
X53580855Y-121789855D01*
X53525904Y-121872095D01*
X51391717Y-124006283D01*
X51308950Y-123972000D01*
X50559050Y-123972000D01*
X49866233Y-124258974D01*
X49335974Y-124789233D01*
X49049000Y-125482050D01*
X49049000Y-126231950D01*
X49335974Y-126924767D01*
X49866233Y-127455026D01*
X50559050Y-127742000D01*
X51308950Y-127742000D01*
X52001767Y-127455026D01*
X52532026Y-126924767D01*
X52819000Y-126231950D01*
X52819000Y-125482050D01*
X56119000Y-125482050D01*
X56119000Y-126231950D01*
X56405974Y-126924767D01*
X56936233Y-127455026D01*
X57629050Y-127742000D01*
X58378950Y-127742000D01*
X59071767Y-127455026D01*
X59602026Y-126924767D01*
X59889000Y-126231950D01*
X59889000Y-125482050D01*
X59602026Y-124789233D01*
X59071767Y-124258974D01*
X58378950Y-123972000D01*
X57629050Y-123972000D01*
X56936233Y-124258974D01*
X56405974Y-124789233D01*
X56119000Y-125482050D01*
X52819000Y-125482050D01*
X52784717Y-125399283D01*
X54699001Y-123485000D01*
X59239000Y-123485000D01*
X61153283Y-125399284D01*
X61119000Y-125482050D01*
X61119000Y-126231950D01*
X61405974Y-126924767D01*
X61936233Y-127455026D01*
X62629050Y-127742000D01*
X63378950Y-127742000D01*
X63461717Y-127707717D01*
X64039302Y-128285302D01*
X64094255Y-128367545D01*
X64420072Y-128585249D01*
X64707388Y-128642400D01*
X64707391Y-128642400D01*
X64804399Y-128661696D01*
X64901407Y-128642400D01*
X71106592Y-128642400D01*
X71203600Y-128661696D01*
X71300608Y-128642400D01*
X71300612Y-128642400D01*
X71587928Y-128585249D01*
X71913745Y-128367545D01*
X71968698Y-128285302D01*
X72546283Y-127707717D01*
X72629050Y-127742000D01*
X73378950Y-127742000D01*
X73461717Y-127707717D01*
X74039302Y-128285302D01*
X74094255Y-128367545D01*
X74420072Y-128585249D01*
X74707388Y-128642400D01*
X74707391Y-128642400D01*
X74804399Y-128661696D01*
X74901407Y-128642400D01*
X81106592Y-128642400D01*
X81203600Y-128661696D01*
X81300608Y-128642400D01*
X81300612Y-128642400D01*
X81587928Y-128585249D01*
X81913745Y-128367545D01*
X81968698Y-128285302D01*
X82546283Y-127707717D01*
X82629050Y-127742000D01*
X83378950Y-127742000D01*
X83461717Y-127707717D01*
X84044102Y-128290102D01*
X84099055Y-128372345D01*
X84424872Y-128590049D01*
X84712188Y-128647200D01*
X84712191Y-128647200D01*
X84809199Y-128666496D01*
X84906207Y-128647200D01*
X91101792Y-128647200D01*
X91198800Y-128666496D01*
X91295808Y-128647200D01*
X91295812Y-128647200D01*
X91583128Y-128590049D01*
X91908945Y-128372345D01*
X91963898Y-128290102D01*
X92546283Y-127707717D01*
X92629050Y-127742000D01*
X93378950Y-127742000D01*
X94071767Y-127455026D01*
X94321957Y-127204836D01*
X94359351Y-127392827D01*
X94522102Y-127636402D01*
X94522105Y-127636405D01*
X94577056Y-127718645D01*
X94659296Y-127773596D01*
X96087302Y-129201602D01*
X96142255Y-129283845D01*
X96468072Y-129501549D01*
X96755388Y-129558700D01*
X96755391Y-129558700D01*
X96852399Y-129577996D01*
X96949407Y-129558700D01*
X115190292Y-129558700D01*
X115287300Y-129577996D01*
X115384308Y-129558700D01*
X115384312Y-129558700D01*
X115671628Y-129501549D01*
X115997445Y-129283845D01*
X116052398Y-129201602D01*
X117546284Y-127707717D01*
X117629050Y-127742000D01*
X118378950Y-127742000D01*
X119071767Y-127455026D01*
X119602026Y-126924767D01*
X119889000Y-126231950D01*
X119889000Y-125482050D01*
X119706560Y-125041600D01*
X120795600Y-125041600D01*
X121153283Y-125399283D01*
X121119000Y-125482050D01*
X121119000Y-126231950D01*
X121405974Y-126924767D01*
X121936233Y-127455026D01*
X122629050Y-127742000D01*
X123378950Y-127742000D01*
X123461717Y-127707717D01*
X124044802Y-128290802D01*
X124099755Y-128373045D01*
X124425572Y-128590749D01*
X124712888Y-128647900D01*
X124712891Y-128647900D01*
X124809899Y-128667196D01*
X124906907Y-128647900D01*
X131101092Y-128647900D01*
X131198100Y-128667196D01*
X131295108Y-128647900D01*
X131295112Y-128647900D01*
X131582428Y-128590749D01*
X131908245Y-128373045D01*
X131963198Y-128290802D01*
X132546283Y-127707717D01*
X132629050Y-127742000D01*
X133378950Y-127742000D01*
X134071767Y-127455026D01*
X134602026Y-126924767D01*
X134889000Y-126231950D01*
X134889000Y-125482050D01*
X134602026Y-124789233D01*
X134071767Y-124258974D01*
X133378950Y-123972000D01*
X132629050Y-123972000D01*
X131936233Y-124258974D01*
X131405974Y-124789233D01*
X131119000Y-125482050D01*
X131119000Y-126231950D01*
X131153283Y-126314717D01*
X130790100Y-126677900D01*
X129704282Y-126677900D01*
X129889000Y-126231950D01*
X129889000Y-125482050D01*
X129602026Y-124789233D01*
X129071767Y-124258974D01*
X128378950Y-123972000D01*
X127629050Y-123972000D01*
X126936233Y-124258974D01*
X126405974Y-124789233D01*
X126119000Y-125482050D01*
X126119000Y-126231950D01*
X126303718Y-126677900D01*
X125217900Y-126677900D01*
X124854717Y-126314717D01*
X124889000Y-126231950D01*
X124889000Y-125482050D01*
X124602026Y-124789233D01*
X124071767Y-124258974D01*
X123378950Y-123972000D01*
X122629050Y-123972000D01*
X122546283Y-124006283D01*
X121968698Y-123428698D01*
X121913745Y-123346455D01*
X121587928Y-123128751D01*
X121300612Y-123071600D01*
X121300608Y-123071600D01*
X121203600Y-123052304D01*
X121106592Y-123071600D01*
X115564300Y-123071600D01*
X115564300Y-106430207D01*
X115583596Y-106333199D01*
X115564300Y-106236191D01*
X115564300Y-106236188D01*
X115507149Y-105948872D01*
X115289445Y-105623055D01*
X115207202Y-105568102D01*
X114441000Y-104801900D01*
X114441000Y-104769820D01*
X114463179Y-104755000D01*
X114595838Y-104556463D01*
X114635843Y-104757585D01*
X114776191Y-104967629D01*
X114986235Y-105107977D01*
X115234000Y-105157260D01*
X116758000Y-105157260D01*
X117005765Y-105107977D01*
X117215809Y-104967629D01*
X117356157Y-104757585D01*
X117365519Y-104710519D01*
X118928904Y-106273905D01*
X118983855Y-106356145D01*
X119066095Y-106411096D01*
X119066097Y-106411098D01*
X119309672Y-106573849D01*
X119694000Y-106650297D01*
X119791012Y-106631000D01*
X125728992Y-106631000D01*
X125826000Y-106650296D01*
X125923008Y-106631000D01*
X125923012Y-106631000D01*
X126210328Y-106573849D01*
X126536145Y-106356145D01*
X126591098Y-106273902D01*
X127182251Y-105682749D01*
X127490000Y-105743964D01*
X128030622Y-105636428D01*
X128488940Y-105330190D01*
X128760000Y-104924520D01*
X129031061Y-105330190D01*
X129489379Y-105636428D01*
X130030000Y-105743964D01*
X130570622Y-105636428D01*
X131028940Y-105330190D01*
X131300000Y-104924520D01*
X131571061Y-105330190D01*
X132029379Y-105636428D01*
X132570000Y-105743964D01*
X133110622Y-105636428D01*
X133568940Y-105330190D01*
X133840000Y-104924520D01*
X134111061Y-105330190D01*
X134569379Y-105636428D01*
X135110000Y-105743964D01*
X135650622Y-105636428D01*
X136108940Y-105330190D01*
X136380000Y-104924520D01*
X136651061Y-105330190D01*
X137109379Y-105636428D01*
X137650000Y-105743964D01*
X138190622Y-105636428D01*
X138648940Y-105330190D01*
X138935545Y-104901255D01*
X138958501Y-104978817D01*
X139300056Y-105400798D01*
X139777097Y-105659950D01*
X139848725Y-105674133D01*
X140063000Y-105551479D01*
X140063000Y-104109000D01*
X140317000Y-104109000D01*
X140317000Y-105551479D01*
X140531275Y-105674133D01*
X140602903Y-105659950D01*
X141079944Y-105400798D01*
X141421499Y-104978817D01*
X141575570Y-104458250D01*
X141575570Y-104109000D01*
X140317000Y-104109000D01*
X140063000Y-104109000D01*
X140043000Y-104109000D01*
X140043000Y-103855000D01*
X140063000Y-103855000D01*
X140063000Y-103835000D01*
X140317000Y-103835000D01*
X140317000Y-103855000D01*
X141575570Y-103855000D01*
X141575570Y-103505750D01*
X141421499Y-102985183D01*
X141079944Y-102563202D01*
X140679396Y-102345604D01*
X143427002Y-99597998D01*
X143509245Y-99543045D01*
X143726949Y-99217228D01*
X143784100Y-98929912D01*
X143784100Y-98929909D01*
X143803396Y-98832901D01*
X143784100Y-98735893D01*
X143784100Y-90767888D01*
X143726949Y-90480572D01*
X143509245Y-90154755D01*
X143183428Y-89937051D01*
X142799100Y-89860603D01*
X142516700Y-89916776D01*
X142516700Y-86613708D01*
X142535996Y-86516700D01*
X142516700Y-86419692D01*
X142516700Y-86419688D01*
X142459549Y-86132372D01*
X142396089Y-86037397D01*
X142296798Y-85888797D01*
X142296796Y-85888795D01*
X142241845Y-85806555D01*
X142159605Y-85751604D01*
X138462000Y-82054000D01*
X138462000Y-82029703D01*
X138511577Y-81996577D01*
X138828740Y-81521909D01*
X138940113Y-80962000D01*
X138828740Y-80402091D01*
X138511577Y-79927423D01*
X138036909Y-79610260D01*
X137618333Y-79527000D01*
X137335667Y-79527000D01*
X136917091Y-79610260D01*
X136442423Y-79927423D01*
X136207000Y-80279758D01*
X135971577Y-79927423D01*
X135922000Y-79894297D01*
X135922000Y-79559008D01*
X135941296Y-79462000D01*
X135922000Y-79364992D01*
X135922000Y-79364988D01*
X135864849Y-79077672D01*
X135803750Y-78986231D01*
X135702098Y-78834097D01*
X135702096Y-78834095D01*
X135647145Y-78751855D01*
X135564905Y-78696904D01*
X131213798Y-74345798D01*
X131158845Y-74263555D01*
X130833028Y-74045851D01*
X130545712Y-73988700D01*
X130545708Y-73988700D01*
X130448700Y-73969404D01*
X130351692Y-73988700D01*
X128265007Y-73988700D01*
X128167999Y-73969404D01*
X128070991Y-73988700D01*
X128070988Y-73988700D01*
X128061392Y-73990609D01*
X128432101Y-73619900D01*
X138024512Y-73619900D01*
X138311828Y-73562749D01*
X138637645Y-73345045D01*
X138855349Y-73019228D01*
X138931797Y-72634900D01*
X138855349Y-72250572D01*
X138637645Y-71924755D01*
X138311828Y-71707051D01*
X138024512Y-71649900D01*
X128121108Y-71649900D01*
X128024100Y-71630604D01*
X127927092Y-71649900D01*
X127927088Y-71649900D01*
X127639772Y-71707051D01*
X127396197Y-71869802D01*
X127396195Y-71869804D01*
X127313955Y-71924755D01*
X127259004Y-72006995D01*
X119739000Y-79527000D01*
X119555667Y-79527000D01*
X119137091Y-79610260D01*
X118662423Y-79927423D01*
X118406053Y-80311108D01*
X118309389Y-80106866D01*
X117894423Y-79730959D01*
X117506039Y-79570096D01*
X117284000Y-79692085D01*
X117284000Y-80835000D01*
X117304000Y-80835000D01*
X117304000Y-81089000D01*
X117284000Y-81089000D01*
X117284000Y-82231915D01*
X117506039Y-82353904D01*
X117894423Y-82193041D01*
X118309389Y-81817134D01*
X118406053Y-81612892D01*
X118662423Y-81996577D01*
X119137091Y-82313740D01*
X119555667Y-82397000D01*
X119838333Y-82397000D01*
X120256909Y-82313740D01*
X120731577Y-81996577D01*
X120967000Y-81644242D01*
X121202423Y-81996577D01*
X121677091Y-82313740D01*
X122095667Y-82397000D01*
X122279000Y-82397000D01*
X122835900Y-82953900D01*
X116064301Y-82953900D01*
X115325114Y-82214713D01*
X115651577Y-81996577D01*
X115907947Y-81612892D01*
X116004611Y-81817134D01*
X116419577Y-82193041D01*
X116807961Y-82353904D01*
X117030000Y-82231915D01*
X117030000Y-81089000D01*
X117010000Y-81089000D01*
X117010000Y-80835000D01*
X117030000Y-80835000D01*
X117030000Y-79692085D01*
X116807961Y-79570096D01*
X116419577Y-79730959D01*
X116004611Y-80106866D01*
X115907947Y-80311108D01*
X115651577Y-79927423D01*
X115176909Y-79610260D01*
X114758333Y-79527000D01*
X114475667Y-79527000D01*
X114057091Y-79610260D01*
X113582423Y-79927423D01*
X113364287Y-80253887D01*
X112129500Y-79019100D01*
X112129500Y-74642988D01*
X112072349Y-74355672D01*
X111854645Y-74029855D01*
X111528828Y-73812151D01*
X111144500Y-73735703D01*
X110760173Y-73812151D01*
X110434356Y-74029855D01*
X110216652Y-74355672D01*
X110159501Y-74642988D01*
X110159500Y-78322400D01*
X108151000Y-76313900D01*
X108151000Y-72942988D01*
X108093849Y-72655672D01*
X107876145Y-72329855D01*
X107550327Y-72112151D01*
X107166000Y-72035703D01*
X106781672Y-72112151D01*
X106455855Y-72329855D01*
X106238151Y-72655673D01*
X106181000Y-72942989D01*
X106181001Y-76149701D01*
X102306202Y-72274902D01*
X102062627Y-72112151D01*
X101678300Y-72035704D01*
X101293973Y-72112151D01*
X100968155Y-72329855D01*
X100750451Y-72655673D01*
X100674004Y-73040000D01*
X100750451Y-73424327D01*
X100913202Y-73667902D01*
X114489998Y-87244699D01*
X114489998Y-87305748D01*
X114331250Y-87147000D01*
X113690690Y-87147000D01*
X113457301Y-87243673D01*
X113278673Y-87422302D01*
X113182000Y-87655691D01*
X113182000Y-88296250D01*
X113340750Y-88455000D01*
X114490000Y-88455000D01*
X114490000Y-88435000D01*
X114744000Y-88435000D01*
X114744000Y-88455000D01*
X114764000Y-88455000D01*
X114764000Y-88709000D01*
X114744000Y-88709000D01*
X114744000Y-89858250D01*
X114902750Y-90017000D01*
X115543310Y-90017000D01*
X115776699Y-89920327D01*
X115955327Y-89741698D01*
X116051265Y-89510082D01*
X116122423Y-89616577D01*
X116172001Y-89649704D01*
X116172001Y-89984988D01*
X116152704Y-90082000D01*
X116229151Y-90466327D01*
X116391902Y-90709902D01*
X116391905Y-90709905D01*
X116446856Y-90792145D01*
X116529096Y-90847096D01*
X117448100Y-91766101D01*
X117448101Y-95768487D01*
X117428804Y-95865500D01*
X117505251Y-96249827D01*
X117558634Y-96329720D01*
X117555012Y-96329000D01*
X117555008Y-96329000D01*
X117458000Y-96309704D01*
X117405440Y-96320159D01*
X117405440Y-96214180D01*
X117356157Y-95966415D01*
X117215809Y-95756371D01*
X117005765Y-95616023D01*
X116758000Y-95566740D01*
X115234000Y-95566740D01*
X114986235Y-95616023D01*
X114776191Y-95756371D01*
X114635843Y-95966415D01*
X114595838Y-96167537D01*
X114463180Y-95969000D01*
X114001082Y-95660236D01*
X113456000Y-95551812D01*
X112910919Y-95660236D01*
X112448821Y-95969000D01*
X112208276Y-96329000D01*
X103658001Y-96329000D01*
X101845902Y-94516902D01*
X101602327Y-94354151D01*
X101218000Y-94277704D01*
X100833673Y-94354151D01*
X100507855Y-94571855D01*
X100290151Y-94897673D01*
X100213704Y-95282000D01*
X100290151Y-95666327D01*
X100452902Y-95909902D01*
X102484904Y-97941905D01*
X102539855Y-98024145D01*
X102622095Y-98079096D01*
X102622097Y-98079098D01*
X102798404Y-98196902D01*
X102865672Y-98241849D01*
X103152988Y-98299000D01*
X103152992Y-98299000D01*
X103250000Y-98318296D01*
X103347008Y-98299000D01*
X112208276Y-98299000D01*
X112448820Y-98658999D01*
X112471001Y-98673820D01*
X112471000Y-99002180D01*
X112448821Y-99017000D01*
X112140056Y-99479098D01*
X112059000Y-99886592D01*
X112059000Y-100837407D01*
X112140056Y-101244901D01*
X112448820Y-101706999D01*
X112471001Y-101721820D01*
X112471000Y-102050180D01*
X112448821Y-102065000D01*
X112140056Y-102527098D01*
X112059000Y-102934592D01*
X112059000Y-103885407D01*
X112140056Y-104292901D01*
X112448820Y-104754999D01*
X112471001Y-104769820D01*
X112471001Y-105112887D01*
X112451704Y-105209900D01*
X112528151Y-105594227D01*
X112690902Y-105837802D01*
X112690905Y-105837805D01*
X112745856Y-105920045D01*
X112828096Y-105974996D01*
X113594301Y-106741201D01*
X113594300Y-123873699D01*
X113461716Y-124006283D01*
X113378950Y-123972000D01*
X112629050Y-123972000D01*
X111936233Y-124258974D01*
X111405974Y-124789233D01*
X111119000Y-125482050D01*
X111119000Y-126231950D01*
X111405974Y-126924767D01*
X111936233Y-127455026D01*
X112258951Y-127588700D01*
X108749049Y-127588700D01*
X109071767Y-127455026D01*
X109602026Y-126924767D01*
X109889000Y-126231950D01*
X109889000Y-125482050D01*
X109602026Y-124789233D01*
X109071767Y-124258974D01*
X108378950Y-123972000D01*
X107629050Y-123972000D01*
X106936233Y-124258974D01*
X106405974Y-124789233D01*
X106119000Y-125482050D01*
X106119000Y-126231950D01*
X106153283Y-126314717D01*
X105782200Y-126685800D01*
X104701009Y-126685800D01*
X104889000Y-126231950D01*
X104889000Y-125482050D01*
X104602026Y-124789233D01*
X104071767Y-124258974D01*
X103378950Y-123972000D01*
X102629050Y-123972000D01*
X101936233Y-124258974D01*
X101405974Y-124789233D01*
X101119000Y-125482050D01*
X101119000Y-126231950D01*
X101306991Y-126685800D01*
X99701009Y-126685800D01*
X99889000Y-126231950D01*
X99889000Y-125482050D01*
X99602026Y-124789233D01*
X99071767Y-124258974D01*
X99061300Y-124254638D01*
X99061300Y-105502208D01*
X99080596Y-105405200D01*
X99061300Y-105308192D01*
X99061300Y-105308188D01*
X99004149Y-105020872D01*
X98968573Y-104967629D01*
X98841398Y-104777297D01*
X98841396Y-104777295D01*
X98786445Y-104695055D01*
X98704205Y-104640104D01*
X91060100Y-96996000D01*
X91174205Y-96881896D01*
X91256445Y-96826945D01*
X91311396Y-96744705D01*
X91311398Y-96744703D01*
X91474149Y-96501128D01*
X91484289Y-96450151D01*
X91531300Y-96213812D01*
X91531300Y-96213808D01*
X91550596Y-96116800D01*
X91531300Y-96019792D01*
X91531300Y-86991306D01*
X91550596Y-86894299D01*
X91531300Y-86797292D01*
X91531300Y-86797288D01*
X91474149Y-86509972D01*
X91256445Y-86184155D01*
X91174202Y-86129202D01*
X87433000Y-82388000D01*
X87433000Y-82363703D01*
X87482577Y-82330577D01*
X87799740Y-81855909D01*
X87911113Y-81296000D01*
X87799740Y-80736091D01*
X87482577Y-80261423D01*
X87007909Y-79944260D01*
X86589333Y-79861000D01*
X86306667Y-79861000D01*
X85888091Y-79944260D01*
X85413423Y-80261423D01*
X85178000Y-80613758D01*
X84942577Y-80261423D01*
X84467909Y-79944260D01*
X84049333Y-79861000D01*
X83766667Y-79861000D01*
X83348091Y-79944260D01*
X82873423Y-80261423D01*
X82638000Y-80613758D01*
X82402577Y-80261423D01*
X81927909Y-79944260D01*
X81509333Y-79861000D01*
X81226667Y-79861000D01*
X80808091Y-79944260D01*
X80333423Y-80261423D01*
X80098000Y-80613758D01*
X79862577Y-80261423D01*
X79813000Y-80228297D01*
X79813000Y-80178027D01*
X79923449Y-80012728D01*
X79980600Y-79725412D01*
X79980600Y-79725409D01*
X79999896Y-79628401D01*
X79980600Y-79531393D01*
X79980600Y-75889900D01*
X83418000Y-75889900D01*
X100633497Y-93105397D01*
X100877072Y-93268149D01*
X101261399Y-93344596D01*
X101645727Y-93268149D01*
X101971545Y-93050445D01*
X102189249Y-92724627D01*
X102235899Y-92490099D01*
X105230197Y-95484397D01*
X105473772Y-95647149D01*
X105858099Y-95723596D01*
X106242427Y-95647149D01*
X106568245Y-95429445D01*
X106785949Y-95103627D01*
X106862396Y-94719299D01*
X106785949Y-94334972D01*
X106623197Y-94091397D01*
X101399550Y-88867750D01*
X113182000Y-88867750D01*
X113182000Y-89508309D01*
X113278673Y-89741698D01*
X113457301Y-89920327D01*
X113690690Y-90017000D01*
X114331250Y-90017000D01*
X114490000Y-89858250D01*
X114490000Y-88709000D01*
X113340750Y-88709000D01*
X113182000Y-88867750D01*
X101399550Y-88867750D01*
X85876598Y-73344798D01*
X85821645Y-73262555D01*
X85495828Y-73044851D01*
X85208512Y-72987700D01*
X85208508Y-72987700D01*
X85111500Y-72968404D01*
X85014492Y-72987700D01*
X67762508Y-72987700D01*
X67665500Y-72968404D01*
X67568492Y-72987700D01*
X67568488Y-72987700D01*
X67281172Y-73044851D01*
X67037597Y-73207602D01*
X67037595Y-73207604D01*
X66955355Y-73262555D01*
X66900404Y-73344795D01*
X53213498Y-87031702D01*
X53131255Y-87086655D01*
X53076302Y-87168898D01*
X52980628Y-87312085D01*
X52913551Y-87412473D01*
X52856400Y-87699789D01*
X52856400Y-87699792D01*
X52837104Y-87796800D01*
X52856400Y-87893808D01*
X52856401Y-94996387D01*
X52837104Y-95093400D01*
X52913551Y-95477727D01*
X53045001Y-95674457D01*
X53045000Y-112352999D01*
X43127000Y-122271000D01*
X43127000Y-80306689D01*
X43261543Y-80172145D01*
X43318237Y-80115451D01*
X43535010Y-79791027D01*
X43593952Y-79648727D01*
X43644757Y-79526074D01*
X43720877Y-79143391D01*
X43720877Y-79143389D01*
X43735000Y-79072388D01*
X43735000Y-60072390D01*
X43768475Y-59904099D01*
X43822798Y-59822799D01*
X43904101Y-59768475D01*
X44072390Y-59735000D01*
X157873000Y-59735000D01*
X157873000Y-78837795D01*
X157873000Y-78837795D01*
G37*
X157873000Y-78837795D02*
X157738498Y-78636497D01*
X157738496Y-78636495D01*
X157683545Y-78554255D01*
X157601305Y-78499304D01*
X157070440Y-77968439D01*
X157070440Y-77114000D01*
X157021157Y-76866235D01*
X156880809Y-76656191D01*
X156670765Y-76515843D01*
X156609464Y-76503650D01*
X156627297Y-76414000D01*
X156550849Y-76029672D01*
X156388098Y-75786098D01*
X156333145Y-75703855D01*
X156250902Y-75648902D01*
X155257000Y-74655000D01*
X155257000Y-74351311D01*
X155481667Y-74396000D01*
X155764333Y-74396000D01*
X156182909Y-74312740D01*
X156657577Y-73995577D01*
X156974740Y-73520909D01*
X157086113Y-72961000D01*
X156974740Y-72401091D01*
X156657577Y-71926423D01*
X156536894Y-71845785D01*
X156670765Y-71819157D01*
X156880809Y-71678809D01*
X157021157Y-71468765D01*
X157070440Y-71221000D01*
X157070440Y-69621000D01*
X157021157Y-69373235D01*
X156880809Y-69163191D01*
X156670765Y-69022843D01*
X156609464Y-69010650D01*
X156627296Y-68921000D01*
X156608000Y-68823992D01*
X156608000Y-68823988D01*
X156550849Y-68536672D01*
X156525309Y-68498449D01*
X156388098Y-68293097D01*
X156388096Y-68293095D01*
X156333145Y-68210855D01*
X156250905Y-68155904D01*
X155257600Y-67162600D01*
X155257600Y-66858430D01*
X155481667Y-66903000D01*
X155764333Y-66903000D01*
X156182909Y-66819740D01*
X156657577Y-66502577D01*
X156974740Y-66027909D01*
X157086113Y-65468000D01*
X156974740Y-64908091D01*
X156657577Y-64433423D01*
X156536894Y-64352785D01*
X156670765Y-64326157D01*
X156880809Y-64185809D01*
X157021157Y-63975765D01*
X157070440Y-63728000D01*
X157070440Y-62128000D01*
X157021157Y-61880235D01*
X156880809Y-61670191D01*
X156670765Y-61529843D01*
X156423000Y-61480560D01*
X154823000Y-61480560D01*
X154575235Y-61529843D01*
X154365191Y-61670191D01*
X154224843Y-61880235D01*
X154175560Y-62128000D01*
X154175560Y-62982440D01*
X153644698Y-63513302D01*
X153562455Y-63568255D01*
X153344751Y-63894073D01*
X153287600Y-64181389D01*
X153287600Y-64181392D01*
X153268304Y-64278400D01*
X153287600Y-64375408D01*
X153287601Y-67473587D01*
X153268304Y-67570600D01*
X153344751Y-67954927D01*
X153507502Y-68198502D01*
X153507505Y-68198505D01*
X153562456Y-68280745D01*
X153644696Y-68335696D01*
X154429332Y-69120333D01*
X154365191Y-69163191D01*
X154224843Y-69373235D01*
X154175560Y-69621000D01*
X154175560Y-70475440D01*
X153644096Y-71006904D01*
X153561856Y-71061855D01*
X153506905Y-71144095D01*
X153506902Y-71144098D01*
X153344151Y-71387673D01*
X153267704Y-71772000D01*
X153287001Y-71869013D01*
X153287000Y-74965992D01*
X153267704Y-75063000D01*
X153287000Y-75160008D01*
X153287000Y-75160011D01*
X153326388Y-75358027D01*
X153344151Y-75447327D01*
X153372843Y-75490267D01*
X153561855Y-75773145D01*
X153644098Y-75828098D01*
X154429333Y-76613333D01*
X154365191Y-76656191D01*
X154224843Y-76866235D01*
X154175560Y-77114000D01*
X154175560Y-78714000D01*
X154224843Y-78961765D01*
X154365191Y-79171809D01*
X154575235Y-79312157D01*
X154709106Y-79338785D01*
X154588423Y-79419423D01*
X154271260Y-79894091D01*
X154159887Y-80454000D01*
X154271260Y-81013909D01*
X154588423Y-81488577D01*
X155063091Y-81805740D01*
X155481667Y-81889000D01*
X155764333Y-81889000D01*
X155988400Y-81844430D01*
X155988400Y-82148599D01*
X154995096Y-83141904D01*
X154912856Y-83196855D01*
X154857905Y-83279095D01*
X154857902Y-83279098D01*
X154695151Y-83522673D01*
X154618704Y-83907000D01*
X154636536Y-83996650D01*
X154575235Y-84008843D01*
X154365191Y-84149191D01*
X154224843Y-84359235D01*
X154175560Y-84607000D01*
X154175560Y-85461440D01*
X153638096Y-85998904D01*
X153555856Y-86053855D01*
X153500905Y-86136095D01*
X153500902Y-86136098D01*
X153338151Y-86379673D01*
X153261704Y-86764000D01*
X153281001Y-86861013D01*
X153281000Y-89945992D01*
X153261704Y-90043000D01*
X153281000Y-90140008D01*
X153281000Y-90140011D01*
X153338151Y-90427327D01*
X153555855Y-90753145D01*
X153638098Y-90808098D01*
X154429332Y-91599333D01*
X154365191Y-91642191D01*
X154224843Y-91852235D01*
X154175560Y-92100000D01*
X154175560Y-92954440D01*
X153644696Y-93485304D01*
X153562456Y-93540255D01*
X153507505Y-93622495D01*
X153507502Y-93622498D01*
X153344751Y-93866073D01*
X153268304Y-94250400D01*
X153287601Y-94347413D01*
X153287600Y-97445592D01*
X153268304Y-97542600D01*
X153287600Y-97639608D01*
X153287600Y-97639611D01*
X153330127Y-97853407D01*
X153344751Y-97926927D01*
X153476407Y-98123964D01*
X153562455Y-98252745D01*
X153644698Y-98307698D01*
X154429332Y-99092333D01*
X154365191Y-99135191D01*
X154224843Y-99345235D01*
X154175560Y-99593000D01*
X154175560Y-100447440D01*
X153642296Y-100980704D01*
X153560056Y-101035655D01*
X153505105Y-101117895D01*
X153505102Y-101117898D01*
X153342351Y-101361473D01*
X153265904Y-101745800D01*
X153285201Y-101842813D01*
X153285200Y-104936192D01*
X153265904Y-105033200D01*
X153285200Y-105130208D01*
X153285200Y-105130211D01*
X153324979Y-105330190D01*
X153342351Y-105417527D01*
X153488616Y-105636428D01*
X153560055Y-105743345D01*
X153642298Y-105798298D01*
X154429333Y-106585333D01*
X154365191Y-106628191D01*
X154224843Y-106838235D01*
X154175560Y-107086000D01*
X154175560Y-107940440D01*
X153643296Y-108472704D01*
X153561056Y-108527655D01*
X153506105Y-108609895D01*
X153506102Y-108609898D01*
X153343351Y-108853473D01*
X153266904Y-109237800D01*
X153286201Y-109334813D01*
X153286200Y-112430192D01*
X153266904Y-112527200D01*
X153286200Y-112624208D01*
X153286200Y-112624211D01*
X153343351Y-112911527D01*
X153561055Y-113237345D01*
X153643298Y-113292298D01*
X154429332Y-114078333D01*
X154365191Y-114121191D01*
X154224843Y-114331235D01*
X154175560Y-114579000D01*
X154175560Y-116179000D01*
X154224843Y-116426765D01*
X154365191Y-116636809D01*
X154575235Y-116777157D01*
X154709106Y-116803785D01*
X154588423Y-116884423D01*
X154271260Y-117359091D01*
X154169037Y-117873000D01*
X138000000Y-117873000D01*
X137951399Y-117882667D01*
X137910197Y-117910197D01*
X137882667Y-117951399D01*
X137873000Y-118000000D01*
X137873000Y-132265000D01*
X33735000Y-132265000D01*
X33735000Y-127190320D01*
X34780285Y-127190320D01*
X34909533Y-127483123D01*
X35609806Y-127751388D01*
X36359435Y-127731250D01*
X36958467Y-127483123D01*
X37087715Y-127190320D01*
X35934000Y-126036605D01*
X34780285Y-127190320D01*
X33735000Y-127190320D01*
X33735000Y-125532806D01*
X34039612Y-125532806D01*
X34059750Y-126282435D01*
X34307877Y-126881467D01*
X34600680Y-127010715D01*
X35754395Y-125857000D01*
X36113605Y-125857000D01*
X37267320Y-127010715D01*
X37560123Y-126881467D01*
X37828388Y-126181194D01*
X37808250Y-125431565D01*
X37560123Y-124832533D01*
X37267320Y-124703285D01*
X36113605Y-125857000D01*
X35754395Y-125857000D01*
X34600680Y-124703285D01*
X34307877Y-124832533D01*
X34039612Y-125532806D01*
X33735000Y-125532806D01*
X33735000Y-124523680D01*
X34780285Y-124523680D01*
X35934000Y-125677395D01*
X37087715Y-124523680D01*
X36958467Y-124230877D01*
X36258194Y-123962612D01*
X35508565Y-123982750D01*
X34909533Y-124230877D01*
X34780285Y-124523680D01*
X33735000Y-124523680D01*
X33735000Y-123127000D01*
X42271000Y-123127000D01*
X41391717Y-124006283D01*
X41308950Y-123972000D01*
X40559050Y-123972000D01*
X39866233Y-124258974D01*
X39335974Y-124789233D01*
X39049000Y-125482050D01*
X39049000Y-126231950D01*
X39335974Y-126924767D01*
X39866233Y-127455026D01*
X40559050Y-127742000D01*
X41308950Y-127742000D01*
X42001767Y-127455026D01*
X42532026Y-126924767D01*
X42819000Y-126231950D01*
X42819000Y-125482050D01*
X42784717Y-125399283D01*
X53945401Y-114238600D01*
X53945401Y-116452598D01*
X46391717Y-124006283D01*
X46308950Y-123972000D01*
X45559050Y-123972000D01*
X44866233Y-124258974D01*
X44335974Y-124789233D01*
X44049000Y-125482050D01*
X44049000Y-126231950D01*
X44335974Y-126924767D01*
X44866233Y-127455026D01*
X45559050Y-127742000D01*
X46308950Y-127742000D01*
X47001767Y-127455026D01*
X47532026Y-126924767D01*
X47819000Y-126231950D01*
X47819000Y-125482050D01*
X47784717Y-125399283D01*
X55558305Y-117625696D01*
X55640545Y-117570745D01*
X55695496Y-117488505D01*
X55695498Y-117488503D01*
X55858249Y-117244928D01*
X55890736Y-117081604D01*
X55915400Y-116957612D01*
X55915400Y-116957608D01*
X55934696Y-116860600D01*
X55915400Y-116763592D01*
X55915400Y-92873308D01*
X55934696Y-92776300D01*
X55915400Y-92679292D01*
X55915400Y-92679288D01*
X55858249Y-92391972D01*
X55747700Y-92226524D01*
X55747700Y-88556800D01*
X62321308Y-81983192D01*
X62553423Y-82330577D01*
X62603001Y-82363704D01*
X62603001Y-82387999D01*
X61534196Y-83456804D01*
X61451956Y-83511755D01*
X61397005Y-83593995D01*
X61397002Y-83593998D01*
X61234251Y-83837573D01*
X61157804Y-84221900D01*
X61177101Y-84318913D01*
X61177100Y-90225811D01*
X61177101Y-90225816D01*
X61177100Y-93940443D01*
X61101055Y-93991255D01*
X61046104Y-94073495D01*
X60306596Y-94813004D01*
X60224356Y-94867955D01*
X60169405Y-94950195D01*
X60169402Y-94950198D01*
X60006651Y-95193773D01*
X59930204Y-95578100D01*
X59949501Y-95675113D01*
X59949501Y-96018180D01*
X59927321Y-96033000D01*
X59618556Y-96495098D01*
X59537500Y-96902592D01*
X59537500Y-97853407D01*
X59618556Y-98260901D01*
X59927320Y-98722999D01*
X59949501Y-98737820D01*
X59949500Y-99192180D01*
X59927321Y-99207000D01*
X59618556Y-99669098D01*
X59537500Y-100076592D01*
X59537500Y-101027407D01*
X59618556Y-101434901D01*
X59927320Y-101896999D01*
X59949500Y-101911820D01*
X59949501Y-102368180D01*
X59927321Y-102383000D01*
X59686776Y-102743000D01*
X59569512Y-102743000D01*
X59472500Y-102723703D01*
X59375488Y-102743000D01*
X59088172Y-102800151D01*
X58762355Y-103017855D01*
X58544651Y-103343672D01*
X58468203Y-103728000D01*
X58487500Y-103825012D01*
X58487501Y-121515000D01*
X54388008Y-121515000D01*
X54291000Y-121495704D01*
X54193992Y-121515000D01*
X54193988Y-121515000D01*
X53906672Y-121572151D01*
X53663097Y-121734902D01*
X53663095Y-121734904D01*
X53580855Y-121789855D01*
X53525904Y-121872095D01*
X51391717Y-124006283D01*
X51308950Y-123972000D01*
X50559050Y-123972000D01*
X49866233Y-124258974D01*
X49335974Y-124789233D01*
X49049000Y-125482050D01*
X49049000Y-126231950D01*
X49335974Y-126924767D01*
X49866233Y-127455026D01*
X50559050Y-127742000D01*
X51308950Y-127742000D01*
X52001767Y-127455026D01*
X52532026Y-126924767D01*
X52819000Y-126231950D01*
X52819000Y-125482050D01*
X56119000Y-125482050D01*
X56119000Y-126231950D01*
X56405974Y-126924767D01*
X56936233Y-127455026D01*
X57629050Y-127742000D01*
X58378950Y-127742000D01*
X59071767Y-127455026D01*
X59602026Y-126924767D01*
X59889000Y-126231950D01*
X59889000Y-125482050D01*
X59602026Y-124789233D01*
X59071767Y-124258974D01*
X58378950Y-123972000D01*
X57629050Y-123972000D01*
X56936233Y-124258974D01*
X56405974Y-124789233D01*
X56119000Y-125482050D01*
X52819000Y-125482050D01*
X52784717Y-125399283D01*
X54699001Y-123485000D01*
X59239000Y-123485000D01*
X61153283Y-125399284D01*
X61119000Y-125482050D01*
X61119000Y-126231950D01*
X61405974Y-126924767D01*
X61936233Y-127455026D01*
X62629050Y-127742000D01*
X63378950Y-127742000D01*
X63461717Y-127707717D01*
X64039302Y-128285302D01*
X64094255Y-128367545D01*
X64420072Y-128585249D01*
X64707388Y-128642400D01*
X64707391Y-128642400D01*
X64804399Y-128661696D01*
X64901407Y-128642400D01*
X71106592Y-128642400D01*
X71203600Y-128661696D01*
X71300608Y-128642400D01*
X71300612Y-128642400D01*
X71587928Y-128585249D01*
X71913745Y-128367545D01*
X71968698Y-128285302D01*
X72546283Y-127707717D01*
X72629050Y-127742000D01*
X73378950Y-127742000D01*
X73461717Y-127707717D01*
X74039302Y-128285302D01*
X74094255Y-128367545D01*
X74420072Y-128585249D01*
X74707388Y-128642400D01*
X74707391Y-128642400D01*
X74804399Y-128661696D01*
X74901407Y-128642400D01*
X81106592Y-128642400D01*
X81203600Y-128661696D01*
X81300608Y-128642400D01*
X81300612Y-128642400D01*
X81587928Y-128585249D01*
X81913745Y-128367545D01*
X81968698Y-128285302D01*
X82546283Y-127707717D01*
X82629050Y-127742000D01*
X83378950Y-127742000D01*
X83461717Y-127707717D01*
X84044102Y-128290102D01*
X84099055Y-128372345D01*
X84424872Y-128590049D01*
X84712188Y-128647200D01*
X84712191Y-128647200D01*
X84809199Y-128666496D01*
X84906207Y-128647200D01*
X91101792Y-128647200D01*
X91198800Y-128666496D01*
X91295808Y-128647200D01*
X91295812Y-128647200D01*
X91583128Y-128590049D01*
X91908945Y-128372345D01*
X91963898Y-128290102D01*
X92546283Y-127707717D01*
X92629050Y-127742000D01*
X93378950Y-127742000D01*
X94071767Y-127455026D01*
X94321957Y-127204836D01*
X94359351Y-127392827D01*
X94522102Y-127636402D01*
X94522105Y-127636405D01*
X94577056Y-127718645D01*
X94659296Y-127773596D01*
X96087302Y-129201602D01*
X96142255Y-129283845D01*
X96468072Y-129501549D01*
X96755388Y-129558700D01*
X96755391Y-129558700D01*
X96852399Y-129577996D01*
X96949407Y-129558700D01*
X115190292Y-129558700D01*
X115287300Y-129577996D01*
X115384308Y-129558700D01*
X115384312Y-129558700D01*
X115671628Y-129501549D01*
X115997445Y-129283845D01*
X116052398Y-129201602D01*
X117546284Y-127707717D01*
X117629050Y-127742000D01*
X118378950Y-127742000D01*
X119071767Y-127455026D01*
X119602026Y-126924767D01*
X119889000Y-126231950D01*
X119889000Y-125482050D01*
X119706560Y-125041600D01*
X120795600Y-125041600D01*
X121153283Y-125399283D01*
X121119000Y-125482050D01*
X121119000Y-126231950D01*
X121405974Y-126924767D01*
X121936233Y-127455026D01*
X122629050Y-127742000D01*
X123378950Y-127742000D01*
X123461717Y-127707717D01*
X124044802Y-128290802D01*
X124099755Y-128373045D01*
X124425572Y-128590749D01*
X124712888Y-128647900D01*
X124712891Y-128647900D01*
X124809899Y-128667196D01*
X124906907Y-128647900D01*
X131101092Y-128647900D01*
X131198100Y-128667196D01*
X131295108Y-128647900D01*
X131295112Y-128647900D01*
X131582428Y-128590749D01*
X131908245Y-128373045D01*
X131963198Y-128290802D01*
X132546283Y-127707717D01*
X132629050Y-127742000D01*
X133378950Y-127742000D01*
X134071767Y-127455026D01*
X134602026Y-126924767D01*
X134889000Y-126231950D01*
X134889000Y-125482050D01*
X134602026Y-124789233D01*
X134071767Y-124258974D01*
X133378950Y-123972000D01*
X132629050Y-123972000D01*
X131936233Y-124258974D01*
X131405974Y-124789233D01*
X131119000Y-125482050D01*
X131119000Y-126231950D01*
X131153283Y-126314717D01*
X130790100Y-126677900D01*
X129704282Y-126677900D01*
X129889000Y-126231950D01*
X129889000Y-125482050D01*
X129602026Y-124789233D01*
X129071767Y-124258974D01*
X128378950Y-123972000D01*
X127629050Y-123972000D01*
X126936233Y-124258974D01*
X126405974Y-124789233D01*
X126119000Y-125482050D01*
X126119000Y-126231950D01*
X126303718Y-126677900D01*
X125217900Y-126677900D01*
X124854717Y-126314717D01*
X124889000Y-126231950D01*
X124889000Y-125482050D01*
X124602026Y-124789233D01*
X124071767Y-124258974D01*
X123378950Y-123972000D01*
X122629050Y-123972000D01*
X122546283Y-124006283D01*
X121968698Y-123428698D01*
X121913745Y-123346455D01*
X121587928Y-123128751D01*
X121300612Y-123071600D01*
X121300608Y-123071600D01*
X121203600Y-123052304D01*
X121106592Y-123071600D01*
X115564300Y-123071600D01*
X115564300Y-106430207D01*
X115583596Y-106333199D01*
X115564300Y-106236191D01*
X115564300Y-106236188D01*
X115507149Y-105948872D01*
X115289445Y-105623055D01*
X115207202Y-105568102D01*
X114441000Y-104801900D01*
X114441000Y-104769820D01*
X114463179Y-104755000D01*
X114595838Y-104556463D01*
X114635843Y-104757585D01*
X114776191Y-104967629D01*
X114986235Y-105107977D01*
X115234000Y-105157260D01*
X116758000Y-105157260D01*
X117005765Y-105107977D01*
X117215809Y-104967629D01*
X117356157Y-104757585D01*
X117365519Y-104710519D01*
X118928904Y-106273905D01*
X118983855Y-106356145D01*
X119066095Y-106411096D01*
X119066097Y-106411098D01*
X119309672Y-106573849D01*
X119694000Y-106650297D01*
X119791012Y-106631000D01*
X125728992Y-106631000D01*
X125826000Y-106650296D01*
X125923008Y-106631000D01*
X125923012Y-106631000D01*
X126210328Y-106573849D01*
X126536145Y-106356145D01*
X126591098Y-106273902D01*
X127182251Y-105682749D01*
X127490000Y-105743964D01*
X128030622Y-105636428D01*
X128488940Y-105330190D01*
X128760000Y-104924520D01*
X129031061Y-105330190D01*
X129489379Y-105636428D01*
X130030000Y-105743964D01*
X130570622Y-105636428D01*
X131028940Y-105330190D01*
X131300000Y-104924520D01*
X131571061Y-105330190D01*
X132029379Y-105636428D01*
X132570000Y-105743964D01*
X133110622Y-105636428D01*
X133568940Y-105330190D01*
X133840000Y-104924520D01*
X134111061Y-105330190D01*
X134569379Y-105636428D01*
X135110000Y-105743964D01*
X135650622Y-105636428D01*
X136108940Y-105330190D01*
X136380000Y-104924520D01*
X136651061Y-105330190D01*
X137109379Y-105636428D01*
X137650000Y-105743964D01*
X138190622Y-105636428D01*
X138648940Y-105330190D01*
X138935545Y-104901255D01*
X138958501Y-104978817D01*
X139300056Y-105400798D01*
X139777097Y-105659950D01*
X139848725Y-105674133D01*
X140063000Y-105551479D01*
X140063000Y-104109000D01*
X140317000Y-104109000D01*
X140317000Y-105551479D01*
X140531275Y-105674133D01*
X140602903Y-105659950D01*
X141079944Y-105400798D01*
X141421499Y-104978817D01*
X141575570Y-104458250D01*
X141575570Y-104109000D01*
X140317000Y-104109000D01*
X140063000Y-104109000D01*
X140043000Y-104109000D01*
X140043000Y-103855000D01*
X140063000Y-103855000D01*
X140063000Y-103835000D01*
X140317000Y-103835000D01*
X140317000Y-103855000D01*
X141575570Y-103855000D01*
X141575570Y-103505750D01*
X141421499Y-102985183D01*
X141079944Y-102563202D01*
X140679396Y-102345604D01*
X143427002Y-99597998D01*
X143509245Y-99543045D01*
X143726949Y-99217228D01*
X143784100Y-98929912D01*
X143784100Y-98929909D01*
X143803396Y-98832901D01*
X143784100Y-98735893D01*
X143784100Y-90767888D01*
X143726949Y-90480572D01*
X143509245Y-90154755D01*
X143183428Y-89937051D01*
X142799100Y-89860603D01*
X142516700Y-89916776D01*
X142516700Y-86613708D01*
X142535996Y-86516700D01*
X142516700Y-86419692D01*
X142516700Y-86419688D01*
X142459549Y-86132372D01*
X142396089Y-86037397D01*
X142296798Y-85888797D01*
X142296796Y-85888795D01*
X142241845Y-85806555D01*
X142159605Y-85751604D01*
X138462000Y-82054000D01*
X138462000Y-82029703D01*
X138511577Y-81996577D01*
X138828740Y-81521909D01*
X138940113Y-80962000D01*
X138828740Y-80402091D01*
X138511577Y-79927423D01*
X138036909Y-79610260D01*
X137618333Y-79527000D01*
X137335667Y-79527000D01*
X136917091Y-79610260D01*
X136442423Y-79927423D01*
X136207000Y-80279758D01*
X135971577Y-79927423D01*
X135922000Y-79894297D01*
X135922000Y-79559008D01*
X135941296Y-79462000D01*
X135922000Y-79364992D01*
X135922000Y-79364988D01*
X135864849Y-79077672D01*
X135803750Y-78986231D01*
X135702098Y-78834097D01*
X135702096Y-78834095D01*
X135647145Y-78751855D01*
X135564905Y-78696904D01*
X131213798Y-74345798D01*
X131158845Y-74263555D01*
X130833028Y-74045851D01*
X130545712Y-73988700D01*
X130545708Y-73988700D01*
X130448700Y-73969404D01*
X130351692Y-73988700D01*
X128265007Y-73988700D01*
X128167999Y-73969404D01*
X128070991Y-73988700D01*
X128070988Y-73988700D01*
X128061392Y-73990609D01*
X128432101Y-73619900D01*
X138024512Y-73619900D01*
X138311828Y-73562749D01*
X138637645Y-73345045D01*
X138855349Y-73019228D01*
X138931797Y-72634900D01*
X138855349Y-72250572D01*
X138637645Y-71924755D01*
X138311828Y-71707051D01*
X138024512Y-71649900D01*
X128121108Y-71649900D01*
X128024100Y-71630604D01*
X127927092Y-71649900D01*
X127927088Y-71649900D01*
X127639772Y-71707051D01*
X127396197Y-71869802D01*
X127396195Y-71869804D01*
X127313955Y-71924755D01*
X127259004Y-72006995D01*
X119739000Y-79527000D01*
X119555667Y-79527000D01*
X119137091Y-79610260D01*
X118662423Y-79927423D01*
X118406053Y-80311108D01*
X118309389Y-80106866D01*
X117894423Y-79730959D01*
X117506039Y-79570096D01*
X117284000Y-79692085D01*
X117284000Y-80835000D01*
X117304000Y-80835000D01*
X117304000Y-81089000D01*
X117284000Y-81089000D01*
X117284000Y-82231915D01*
X117506039Y-82353904D01*
X117894423Y-82193041D01*
X118309389Y-81817134D01*
X118406053Y-81612892D01*
X118662423Y-81996577D01*
X119137091Y-82313740D01*
X119555667Y-82397000D01*
X119838333Y-82397000D01*
X120256909Y-82313740D01*
X120731577Y-81996577D01*
X120967000Y-81644242D01*
X121202423Y-81996577D01*
X121677091Y-82313740D01*
X122095667Y-82397000D01*
X122279000Y-82397000D01*
X122835900Y-82953900D01*
X116064301Y-82953900D01*
X115325114Y-82214713D01*
X115651577Y-81996577D01*
X115907947Y-81612892D01*
X116004611Y-81817134D01*
X116419577Y-82193041D01*
X116807961Y-82353904D01*
X117030000Y-82231915D01*
X117030000Y-81089000D01*
X117010000Y-81089000D01*
X117010000Y-80835000D01*
X117030000Y-80835000D01*
X117030000Y-79692085D01*
X116807961Y-79570096D01*
X116419577Y-79730959D01*
X116004611Y-80106866D01*
X115907947Y-80311108D01*
X115651577Y-79927423D01*
X115176909Y-79610260D01*
X114758333Y-79527000D01*
X114475667Y-79527000D01*
X114057091Y-79610260D01*
X113582423Y-79927423D01*
X113364287Y-80253887D01*
X112129500Y-79019100D01*
X112129500Y-74642988D01*
X112072349Y-74355672D01*
X111854645Y-74029855D01*
X111528828Y-73812151D01*
X111144500Y-73735703D01*
X110760173Y-73812151D01*
X110434356Y-74029855D01*
X110216652Y-74355672D01*
X110159501Y-74642988D01*
X110159500Y-78322400D01*
X108151000Y-76313900D01*
X108151000Y-72942988D01*
X108093849Y-72655672D01*
X107876145Y-72329855D01*
X107550327Y-72112151D01*
X107166000Y-72035703D01*
X106781672Y-72112151D01*
X106455855Y-72329855D01*
X106238151Y-72655673D01*
X106181000Y-72942989D01*
X106181001Y-76149701D01*
X102306202Y-72274902D01*
X102062627Y-72112151D01*
X101678300Y-72035704D01*
X101293973Y-72112151D01*
X100968155Y-72329855D01*
X100750451Y-72655673D01*
X100674004Y-73040000D01*
X100750451Y-73424327D01*
X100913202Y-73667902D01*
X114489998Y-87244699D01*
X114489998Y-87305748D01*
X114331250Y-87147000D01*
X113690690Y-87147000D01*
X113457301Y-87243673D01*
X113278673Y-87422302D01*
X113182000Y-87655691D01*
X113182000Y-88296250D01*
X113340750Y-88455000D01*
X114490000Y-88455000D01*
X114490000Y-88435000D01*
X114744000Y-88435000D01*
X114744000Y-88455000D01*
X114764000Y-88455000D01*
X114764000Y-88709000D01*
X114744000Y-88709000D01*
X114744000Y-89858250D01*
X114902750Y-90017000D01*
X115543310Y-90017000D01*
X115776699Y-89920327D01*
X115955327Y-89741698D01*
X116051265Y-89510082D01*
X116122423Y-89616577D01*
X116172001Y-89649704D01*
X116172001Y-89984988D01*
X116152704Y-90082000D01*
X116229151Y-90466327D01*
X116391902Y-90709902D01*
X116391905Y-90709905D01*
X116446856Y-90792145D01*
X116529096Y-90847096D01*
X117448100Y-91766101D01*
X117448101Y-95768487D01*
X117428804Y-95865500D01*
X117505251Y-96249827D01*
X117558634Y-96329720D01*
X117555012Y-96329000D01*
X117555008Y-96329000D01*
X117458000Y-96309704D01*
X117405440Y-96320159D01*
X117405440Y-96214180D01*
X117356157Y-95966415D01*
X117215809Y-95756371D01*
X117005765Y-95616023D01*
X116758000Y-95566740D01*
X115234000Y-95566740D01*
X114986235Y-95616023D01*
X114776191Y-95756371D01*
X114635843Y-95966415D01*
X114595838Y-96167537D01*
X114463180Y-95969000D01*
X114001082Y-95660236D01*
X113456000Y-95551812D01*
X112910919Y-95660236D01*
X112448821Y-95969000D01*
X112208276Y-96329000D01*
X103658001Y-96329000D01*
X101845902Y-94516902D01*
X101602327Y-94354151D01*
X101218000Y-94277704D01*
X100833673Y-94354151D01*
X100507855Y-94571855D01*
X100290151Y-94897673D01*
X100213704Y-95282000D01*
X100290151Y-95666327D01*
X100452902Y-95909902D01*
X102484904Y-97941905D01*
X102539855Y-98024145D01*
X102622095Y-98079096D01*
X102622097Y-98079098D01*
X102798404Y-98196902D01*
X102865672Y-98241849D01*
X103152988Y-98299000D01*
X103152992Y-98299000D01*
X103250000Y-98318296D01*
X103347008Y-98299000D01*
X112208276Y-98299000D01*
X112448820Y-98658999D01*
X112471001Y-98673820D01*
X112471000Y-99002180D01*
X112448821Y-99017000D01*
X112140056Y-99479098D01*
X112059000Y-99886592D01*
X112059000Y-100837407D01*
X112140056Y-101244901D01*
X112448820Y-101706999D01*
X112471001Y-101721820D01*
X112471000Y-102050180D01*
X112448821Y-102065000D01*
X112140056Y-102527098D01*
X112059000Y-102934592D01*
X112059000Y-103885407D01*
X112140056Y-104292901D01*
X112448820Y-104754999D01*
X112471001Y-104769820D01*
X112471001Y-105112887D01*
X112451704Y-105209900D01*
X112528151Y-105594227D01*
X112690902Y-105837802D01*
X112690905Y-105837805D01*
X112745856Y-105920045D01*
X112828096Y-105974996D01*
X113594301Y-106741201D01*
X113594300Y-123873699D01*
X113461716Y-124006283D01*
X113378950Y-123972000D01*
X112629050Y-123972000D01*
X111936233Y-124258974D01*
X111405974Y-124789233D01*
X111119000Y-125482050D01*
X111119000Y-126231950D01*
X111405974Y-126924767D01*
X111936233Y-127455026D01*
X112258951Y-127588700D01*
X108749049Y-127588700D01*
X109071767Y-127455026D01*
X109602026Y-126924767D01*
X109889000Y-126231950D01*
X109889000Y-125482050D01*
X109602026Y-124789233D01*
X109071767Y-124258974D01*
X108378950Y-123972000D01*
X107629050Y-123972000D01*
X106936233Y-124258974D01*
X106405974Y-124789233D01*
X106119000Y-125482050D01*
X106119000Y-126231950D01*
X106153283Y-126314717D01*
X105782200Y-126685800D01*
X104701009Y-126685800D01*
X104889000Y-126231950D01*
X104889000Y-125482050D01*
X104602026Y-124789233D01*
X104071767Y-124258974D01*
X103378950Y-123972000D01*
X102629050Y-123972000D01*
X101936233Y-124258974D01*
X101405974Y-124789233D01*
X101119000Y-125482050D01*
X101119000Y-126231950D01*
X101306991Y-126685800D01*
X99701009Y-126685800D01*
X99889000Y-126231950D01*
X99889000Y-125482050D01*
X99602026Y-124789233D01*
X99071767Y-124258974D01*
X99061300Y-124254638D01*
X99061300Y-105502208D01*
X99080596Y-105405200D01*
X99061300Y-105308192D01*
X99061300Y-105308188D01*
X99004149Y-105020872D01*
X98968573Y-104967629D01*
X98841398Y-104777297D01*
X98841396Y-104777295D01*
X98786445Y-104695055D01*
X98704205Y-104640104D01*
X91060100Y-96996000D01*
X91174205Y-96881896D01*
X91256445Y-96826945D01*
X91311396Y-96744705D01*
X91311398Y-96744703D01*
X91474149Y-96501128D01*
X91484289Y-96450151D01*
X91531300Y-96213812D01*
X91531300Y-96213808D01*
X91550596Y-96116800D01*
X91531300Y-96019792D01*
X91531300Y-86991306D01*
X91550596Y-86894299D01*
X91531300Y-86797292D01*
X91531300Y-86797288D01*
X91474149Y-86509972D01*
X91256445Y-86184155D01*
X91174202Y-86129202D01*
X87433000Y-82388000D01*
X87433000Y-82363703D01*
X87482577Y-82330577D01*
X87799740Y-81855909D01*
X87911113Y-81296000D01*
X87799740Y-80736091D01*
X87482577Y-80261423D01*
X87007909Y-79944260D01*
X86589333Y-79861000D01*
X86306667Y-79861000D01*
X85888091Y-79944260D01*
X85413423Y-80261423D01*
X85178000Y-80613758D01*
X84942577Y-80261423D01*
X84467909Y-79944260D01*
X84049333Y-79861000D01*
X83766667Y-79861000D01*
X83348091Y-79944260D01*
X82873423Y-80261423D01*
X82638000Y-80613758D01*
X82402577Y-80261423D01*
X81927909Y-79944260D01*
X81509333Y-79861000D01*
X81226667Y-79861000D01*
X80808091Y-79944260D01*
X80333423Y-80261423D01*
X80098000Y-80613758D01*
X79862577Y-80261423D01*
X79813000Y-80228297D01*
X79813000Y-80178027D01*
X79923449Y-80012728D01*
X79980600Y-79725412D01*
X79980600Y-79725409D01*
X79999896Y-79628401D01*
X79980600Y-79531393D01*
X79980600Y-75889900D01*
X83418000Y-75889900D01*
X100633497Y-93105397D01*
X100877072Y-93268149D01*
X101261399Y-93344596D01*
X101645727Y-93268149D01*
X101971545Y-93050445D01*
X102189249Y-92724627D01*
X102235899Y-92490099D01*
X105230197Y-95484397D01*
X105473772Y-95647149D01*
X105858099Y-95723596D01*
X106242427Y-95647149D01*
X106568245Y-95429445D01*
X106785949Y-95103627D01*
X106862396Y-94719299D01*
X106785949Y-94334972D01*
X106623197Y-94091397D01*
X101399550Y-88867750D01*
X113182000Y-88867750D01*
X113182000Y-89508309D01*
X113278673Y-89741698D01*
X113457301Y-89920327D01*
X113690690Y-90017000D01*
X114331250Y-90017000D01*
X114490000Y-89858250D01*
X114490000Y-88709000D01*
X113340750Y-88709000D01*
X113182000Y-88867750D01*
X101399550Y-88867750D01*
X85876598Y-73344798D01*
X85821645Y-73262555D01*
X85495828Y-73044851D01*
X85208512Y-72987700D01*
X85208508Y-72987700D01*
X85111500Y-72968404D01*
X85014492Y-72987700D01*
X67762508Y-72987700D01*
X67665500Y-72968404D01*
X67568492Y-72987700D01*
X67568488Y-72987700D01*
X67281172Y-73044851D01*
X67037597Y-73207602D01*
X67037595Y-73207604D01*
X66955355Y-73262555D01*
X66900404Y-73344795D01*
X53213498Y-87031702D01*
X53131255Y-87086655D01*
X53076302Y-87168898D01*
X52980628Y-87312085D01*
X52913551Y-87412473D01*
X52856400Y-87699789D01*
X52856400Y-87699792D01*
X52837104Y-87796800D01*
X52856400Y-87893808D01*
X52856401Y-94996387D01*
X52837104Y-95093400D01*
X52913551Y-95477727D01*
X53045001Y-95674457D01*
X53045000Y-112352999D01*
X43127000Y-122271000D01*
X43127000Y-80306689D01*
X43261543Y-80172145D01*
X43318237Y-80115451D01*
X43535010Y-79791027D01*
X43593952Y-79648727D01*
X43644757Y-79526074D01*
X43720877Y-79143391D01*
X43720877Y-79143389D01*
X43735000Y-79072388D01*
X43735000Y-60072390D01*
X43768475Y-59904099D01*
X43822798Y-59822799D01*
X43904101Y-59768475D01*
X44072390Y-59735000D01*
X157873000Y-59735000D01*
X157873000Y-78837795D01*
G36*
X87096500Y-104489000D02*
X87116500Y-104489000D01*
X87116500Y-104743000D01*
X87096500Y-104743000D01*
X87096500Y-106185479D01*
X87310775Y-106308133D01*
X87382403Y-106293950D01*
X87859444Y-106034798D01*
X88200999Y-105612817D01*
X88329213Y-105179613D01*
X94315800Y-111166201D01*
X94315801Y-114244412D01*
X94372952Y-114531728D01*
X94590656Y-114857545D01*
X94916473Y-115075249D01*
X95232301Y-115138072D01*
X95232301Y-116108699D01*
X94659298Y-116681702D01*
X94577055Y-116736655D01*
X94359351Y-117062473D01*
X94302200Y-117349789D01*
X94302200Y-117349792D01*
X94282904Y-117446800D01*
X94302200Y-117543808D01*
X94302201Y-124489408D01*
X94071767Y-124258974D01*
X93378950Y-123972000D01*
X92629050Y-123972000D01*
X91936233Y-124258974D01*
X91405974Y-124789233D01*
X91119000Y-125482050D01*
X91119000Y-126231950D01*
X91153283Y-126314717D01*
X90790800Y-126677200D01*
X89704572Y-126677200D01*
X89889000Y-126231950D01*
X89889000Y-125482050D01*
X89602026Y-124789233D01*
X89071767Y-124258974D01*
X88378950Y-123972000D01*
X87629050Y-123972000D01*
X87546283Y-124006283D01*
X85414500Y-121874500D01*
X85414500Y-105973504D01*
X85428440Y-105964190D01*
X85715045Y-105535255D01*
X85738001Y-105612817D01*
X86079556Y-106034798D01*
X86556597Y-106293950D01*
X86628225Y-106308133D01*
X86842500Y-106185479D01*
X86842500Y-104743000D01*
X86822500Y-104743000D01*
X86822500Y-104489000D01*
X86842500Y-104489000D01*
X86842500Y-104469000D01*
X87096500Y-104469000D01*
X87096500Y-104489000D01*
X87096500Y-104489000D01*
G37*
X87096500Y-104489000D02*
X87116500Y-104489000D01*
X87116500Y-104743000D01*
X87096500Y-104743000D01*
X87096500Y-106185479D01*
X87310775Y-106308133D01*
X87382403Y-106293950D01*
X87859444Y-106034798D01*
X88200999Y-105612817D01*
X88329213Y-105179613D01*
X94315800Y-111166201D01*
X94315801Y-114244412D01*
X94372952Y-114531728D01*
X94590656Y-114857545D01*
X94916473Y-115075249D01*
X95232301Y-115138072D01*
X95232301Y-116108699D01*
X94659298Y-116681702D01*
X94577055Y-116736655D01*
X94359351Y-117062473D01*
X94302200Y-117349789D01*
X94302200Y-117349792D01*
X94282904Y-117446800D01*
X94302200Y-117543808D01*
X94302201Y-124489408D01*
X94071767Y-124258974D01*
X93378950Y-123972000D01*
X92629050Y-123972000D01*
X91936233Y-124258974D01*
X91405974Y-124789233D01*
X91119000Y-125482050D01*
X91119000Y-126231950D01*
X91153283Y-126314717D01*
X90790800Y-126677200D01*
X89704572Y-126677200D01*
X89889000Y-126231950D01*
X89889000Y-125482050D01*
X89602026Y-124789233D01*
X89071767Y-124258974D01*
X88378950Y-123972000D01*
X87629050Y-123972000D01*
X87546283Y-124006283D01*
X85414500Y-121874500D01*
X85414500Y-105973504D01*
X85428440Y-105964190D01*
X85715045Y-105535255D01*
X85738001Y-105612817D01*
X86079556Y-106034798D01*
X86556597Y-106293950D01*
X86628225Y-106308133D01*
X86842500Y-106185479D01*
X86842500Y-104743000D01*
X86822500Y-104743000D01*
X86822500Y-104489000D01*
X86842500Y-104489000D01*
X86842500Y-104469000D01*
X87096500Y-104469000D01*
X87096500Y-104489000D01*
G36*
X77390197Y-75991702D02*
X74570900Y-78811000D01*
X73845012Y-78811000D01*
X73748000Y-78791703D01*
X73650988Y-78811000D01*
X73363672Y-78868151D01*
X73037855Y-79085855D01*
X72820151Y-79411672D01*
X72743703Y-79796000D01*
X72763001Y-79893017D01*
X72763001Y-80228296D01*
X72713423Y-80261423D01*
X72478000Y-80613758D01*
X72242577Y-80261423D01*
X71767909Y-79944260D01*
X71349333Y-79861000D01*
X71066667Y-79861000D01*
X70648091Y-79944260D01*
X70173423Y-80261423D01*
X69938000Y-80613758D01*
X69702577Y-80261423D01*
X69227909Y-79944260D01*
X68809333Y-79861000D01*
X68526667Y-79861000D01*
X68108091Y-79944260D01*
X67633423Y-80261423D01*
X67377053Y-80645108D01*
X67280389Y-80440866D01*
X66865423Y-80064959D01*
X66477039Y-79904096D01*
X66255000Y-80026085D01*
X66255000Y-81169000D01*
X66275000Y-81169000D01*
X66275000Y-81423000D01*
X66255000Y-81423000D01*
X66255000Y-82565915D01*
X66477039Y-82687904D01*
X66865423Y-82527041D01*
X67280389Y-82151134D01*
X67377053Y-81946892D01*
X67633423Y-82330577D01*
X68108091Y-82647740D01*
X68526667Y-82731000D01*
X68809333Y-82731000D01*
X69227909Y-82647740D01*
X69702577Y-82330577D01*
X69938000Y-81978242D01*
X70173423Y-82330577D01*
X70648091Y-82647740D01*
X71066667Y-82731000D01*
X71250000Y-82731000D01*
X75812204Y-87293205D01*
X75867155Y-87375445D01*
X75949395Y-87430396D01*
X75949397Y-87430398D01*
X76053010Y-87499630D01*
X75728091Y-87564260D01*
X75253423Y-87881423D01*
X75018000Y-88233758D01*
X74782577Y-87881423D01*
X74307909Y-87564260D01*
X73889333Y-87481000D01*
X73606667Y-87481000D01*
X73188091Y-87564260D01*
X72713423Y-87881423D01*
X72478000Y-88233758D01*
X72242577Y-87881423D01*
X71767909Y-87564260D01*
X71349333Y-87481000D01*
X71066667Y-87481000D01*
X70648091Y-87564260D01*
X70173423Y-87881423D01*
X69938000Y-88233758D01*
X69702577Y-87881423D01*
X69227909Y-87564260D01*
X68809333Y-87481000D01*
X68526667Y-87481000D01*
X68108091Y-87564260D01*
X67633423Y-87881423D01*
X67398000Y-88233758D01*
X67162577Y-87881423D01*
X66687909Y-87564260D01*
X66269333Y-87481000D01*
X65986667Y-87481000D01*
X65568091Y-87564260D01*
X65093423Y-87881423D01*
X65022265Y-87987918D01*
X64926327Y-87756302D01*
X64747699Y-87577673D01*
X64514310Y-87481000D01*
X63873750Y-87481000D01*
X63715000Y-87639750D01*
X63715000Y-88789000D01*
X63735000Y-88789000D01*
X63735000Y-89043000D01*
X63715000Y-89043000D01*
X63715000Y-90192250D01*
X63873750Y-90351000D01*
X64514310Y-90351000D01*
X64747699Y-90254327D01*
X64926327Y-90075698D01*
X65022265Y-89844082D01*
X65093423Y-89950577D01*
X65568091Y-90267740D01*
X65986667Y-90351000D01*
X66269333Y-90351000D01*
X66687909Y-90267740D01*
X67162577Y-89950577D01*
X67398000Y-89598242D01*
X67633423Y-89950577D01*
X68108091Y-90267740D01*
X68526667Y-90351000D01*
X68809333Y-90351000D01*
X69227909Y-90267740D01*
X69702577Y-89950577D01*
X69938000Y-89598242D01*
X70173423Y-89950577D01*
X70223000Y-89983703D01*
X70223001Y-92351898D01*
X67107102Y-95467798D01*
X67080825Y-95507125D01*
X65647198Y-94073498D01*
X65592245Y-93991255D01*
X65266428Y-93773551D01*
X64979112Y-93716400D01*
X64979108Y-93716400D01*
X64882100Y-93697104D01*
X64785092Y-93716400D01*
X63147100Y-93716400D01*
X63147100Y-90351000D01*
X63302250Y-90351000D01*
X63461000Y-90192250D01*
X63461000Y-89043000D01*
X63441000Y-89043000D01*
X63441000Y-88789000D01*
X63461000Y-88789000D01*
X63461000Y-87639750D01*
X63302250Y-87481000D01*
X63147100Y-87481000D01*
X63147100Y-84629900D01*
X64215902Y-83561098D01*
X64298145Y-83506145D01*
X64515849Y-83180328D01*
X64573000Y-82893012D01*
X64573000Y-82893009D01*
X64592296Y-82796001D01*
X64573000Y-82698993D01*
X64573000Y-82363703D01*
X64622577Y-82330577D01*
X64878947Y-81946892D01*
X64975611Y-82151134D01*
X65390577Y-82527041D01*
X65778961Y-82687904D01*
X66001000Y-82565915D01*
X66001000Y-81423000D01*
X65981000Y-81423000D01*
X65981000Y-81169000D01*
X66001000Y-81169000D01*
X66001000Y-80026085D01*
X65778961Y-79904096D01*
X65390577Y-80064959D01*
X64975611Y-80440866D01*
X64878947Y-80645108D01*
X64622577Y-80261423D01*
X64275193Y-80029308D01*
X68414601Y-75889900D01*
X77542555Y-75889900D01*
X77390197Y-75991702D01*
X77390197Y-75991702D01*
G37*
X77390197Y-75991702D02*
X74570900Y-78811000D01*
X73845012Y-78811000D01*
X73748000Y-78791703D01*
X73650988Y-78811000D01*
X73363672Y-78868151D01*
X73037855Y-79085855D01*
X72820151Y-79411672D01*
X72743703Y-79796000D01*
X72763001Y-79893017D01*
X72763001Y-80228296D01*
X72713423Y-80261423D01*
X72478000Y-80613758D01*
X72242577Y-80261423D01*
X71767909Y-79944260D01*
X71349333Y-79861000D01*
X71066667Y-79861000D01*
X70648091Y-79944260D01*
X70173423Y-80261423D01*
X69938000Y-80613758D01*
X69702577Y-80261423D01*
X69227909Y-79944260D01*
X68809333Y-79861000D01*
X68526667Y-79861000D01*
X68108091Y-79944260D01*
X67633423Y-80261423D01*
X67377053Y-80645108D01*
X67280389Y-80440866D01*
X66865423Y-80064959D01*
X66477039Y-79904096D01*
X66255000Y-80026085D01*
X66255000Y-81169000D01*
X66275000Y-81169000D01*
X66275000Y-81423000D01*
X66255000Y-81423000D01*
X66255000Y-82565915D01*
X66477039Y-82687904D01*
X66865423Y-82527041D01*
X67280389Y-82151134D01*
X67377053Y-81946892D01*
X67633423Y-82330577D01*
X68108091Y-82647740D01*
X68526667Y-82731000D01*
X68809333Y-82731000D01*
X69227909Y-82647740D01*
X69702577Y-82330577D01*
X69938000Y-81978242D01*
X70173423Y-82330577D01*
X70648091Y-82647740D01*
X71066667Y-82731000D01*
X71250000Y-82731000D01*
X75812204Y-87293205D01*
X75867155Y-87375445D01*
X75949395Y-87430396D01*
X75949397Y-87430398D01*
X76053010Y-87499630D01*
X75728091Y-87564260D01*
X75253423Y-87881423D01*
X75018000Y-88233758D01*
X74782577Y-87881423D01*
X74307909Y-87564260D01*
X73889333Y-87481000D01*
X73606667Y-87481000D01*
X73188091Y-87564260D01*
X72713423Y-87881423D01*
X72478000Y-88233758D01*
X72242577Y-87881423D01*
X71767909Y-87564260D01*
X71349333Y-87481000D01*
X71066667Y-87481000D01*
X70648091Y-87564260D01*
X70173423Y-87881423D01*
X69938000Y-88233758D01*
X69702577Y-87881423D01*
X69227909Y-87564260D01*
X68809333Y-87481000D01*
X68526667Y-87481000D01*
X68108091Y-87564260D01*
X67633423Y-87881423D01*
X67398000Y-88233758D01*
X67162577Y-87881423D01*
X66687909Y-87564260D01*
X66269333Y-87481000D01*
X65986667Y-87481000D01*
X65568091Y-87564260D01*
X65093423Y-87881423D01*
X65022265Y-87987918D01*
X64926327Y-87756302D01*
X64747699Y-87577673D01*
X64514310Y-87481000D01*
X63873750Y-87481000D01*
X63715000Y-87639750D01*
X63715000Y-88789000D01*
X63735000Y-88789000D01*
X63735000Y-89043000D01*
X63715000Y-89043000D01*
X63715000Y-90192250D01*
X63873750Y-90351000D01*
X64514310Y-90351000D01*
X64747699Y-90254327D01*
X64926327Y-90075698D01*
X65022265Y-89844082D01*
X65093423Y-89950577D01*
X65568091Y-90267740D01*
X65986667Y-90351000D01*
X66269333Y-90351000D01*
X66687909Y-90267740D01*
X67162577Y-89950577D01*
X67398000Y-89598242D01*
X67633423Y-89950577D01*
X68108091Y-90267740D01*
X68526667Y-90351000D01*
X68809333Y-90351000D01*
X69227909Y-90267740D01*
X69702577Y-89950577D01*
X69938000Y-89598242D01*
X70173423Y-89950577D01*
X70223000Y-89983703D01*
X70223001Y-92351898D01*
X67107102Y-95467798D01*
X67080825Y-95507125D01*
X65647198Y-94073498D01*
X65592245Y-93991255D01*
X65266428Y-93773551D01*
X64979112Y-93716400D01*
X64979108Y-93716400D01*
X64882100Y-93697104D01*
X64785092Y-93716400D01*
X63147100Y-93716400D01*
X63147100Y-90351000D01*
X63302250Y-90351000D01*
X63461000Y-90192250D01*
X63461000Y-89043000D01*
X63441000Y-89043000D01*
X63441000Y-88789000D01*
X63461000Y-88789000D01*
X63461000Y-87639750D01*
X63302250Y-87481000D01*
X63147100Y-87481000D01*
X63147100Y-84629900D01*
X64215902Y-83561098D01*
X64298145Y-83506145D01*
X64515849Y-83180328D01*
X64573000Y-82893012D01*
X64573000Y-82893009D01*
X64592296Y-82796001D01*
X64573000Y-82698993D01*
X64573000Y-82363703D01*
X64622577Y-82330577D01*
X64878947Y-81946892D01*
X64975611Y-82151134D01*
X65390577Y-82527041D01*
X65778961Y-82687904D01*
X66001000Y-82565915D01*
X66001000Y-81423000D01*
X65981000Y-81423000D01*
X65981000Y-81169000D01*
X66001000Y-81169000D01*
X66001000Y-80026085D01*
X65778961Y-79904096D01*
X65390577Y-80064959D01*
X64975611Y-80440866D01*
X64878947Y-80645108D01*
X64622577Y-80261423D01*
X64275193Y-80029308D01*
X68414601Y-75889900D01*
X77542555Y-75889900D01*
X77390197Y-75991702D01*
G36*
X86575000Y-88789000D02*
X86595000Y-88789000D01*
X86595000Y-89043000D01*
X86575000Y-89043000D01*
X86575000Y-89063000D01*
X86321000Y-89063000D01*
X86321000Y-89043000D01*
X86301000Y-89043000D01*
X86301000Y-88789000D01*
X86321000Y-88789000D01*
X86321000Y-88769000D01*
X86575000Y-88769000D01*
X86575000Y-88789000D01*
X86575000Y-88789000D01*
G37*
X86575000Y-88789000D02*
X86595000Y-88789000D01*
X86595000Y-89043000D01*
X86575000Y-89043000D01*
X86575000Y-89063000D01*
X86321000Y-89063000D01*
X86321000Y-89043000D01*
X86301000Y-89043000D01*
X86301000Y-88789000D01*
X86321000Y-88789000D01*
X86321000Y-88769000D01*
X86575000Y-88769000D01*
X86575000Y-88789000D01*
G36*
X137604000Y-88455000D02*
X137624000Y-88455000D01*
X137624000Y-88709000D01*
X137604000Y-88709000D01*
X137604000Y-88729000D01*
X137350000Y-88729000D01*
X137350000Y-88709000D01*
X137330000Y-88709000D01*
X137330000Y-88455000D01*
X137350000Y-88455000D01*
X137350000Y-88435000D01*
X137604000Y-88435000D01*
X137604000Y-88455000D01*
X137604000Y-88455000D01*
G37*
X137604000Y-88455000D02*
X137624000Y-88455000D01*
X137624000Y-88709000D01*
X137604000Y-88709000D01*
X137604000Y-88729000D01*
X137350000Y-88729000D01*
X137350000Y-88709000D01*
X137330000Y-88709000D01*
X137330000Y-88455000D01*
X137350000Y-88455000D01*
X137350000Y-88435000D01*
X137604000Y-88435000D01*
X137604000Y-88455000D01*
G04 #@! TO.N,GNDPWR*
G36*
X222095901Y-59768475D02*
X222177201Y-59822798D01*
X222231525Y-59904101D01*
X222265000Y-60072390D01*
X222265001Y-79072388D01*
X222279123Y-79143384D01*
X222279123Y-79143391D01*
X222355243Y-79526074D01*
X222464990Y-79791027D01*
X222681762Y-80115451D01*
X222785823Y-80219511D01*
X222873000Y-80306688D01*
X222873000Y-123000000D01*
X222882667Y-123048601D01*
X222910197Y-123089803D01*
X222951399Y-123117333D01*
X223000000Y-123127000D01*
X232265001Y-123127000D01*
X232265001Y-132265000D01*
X141627000Y-132265000D01*
X141627000Y-127615000D01*
X141944950Y-127615000D01*
X142637767Y-127328026D01*
X143168026Y-126797767D01*
X143455000Y-126104950D01*
X143455000Y-125355050D01*
X143168026Y-124662233D01*
X142637767Y-124131974D01*
X141944950Y-123845000D01*
X141627000Y-123845000D01*
X141627000Y-122627000D01*
X147948155Y-122627000D01*
X147882732Y-122670714D01*
X147882731Y-122670715D01*
X147779615Y-122739615D01*
X147710715Y-122842731D01*
X146708447Y-123845000D01*
X146195050Y-123845000D01*
X145502233Y-124131974D01*
X144971974Y-124662233D01*
X144685000Y-125355050D01*
X144685000Y-126104950D01*
X144971974Y-126797767D01*
X145502233Y-127328026D01*
X146195050Y-127615000D01*
X146944950Y-127615000D01*
X147637767Y-127328026D01*
X148168026Y-126797767D01*
X148455000Y-126104950D01*
X148455000Y-125591553D01*
X149181554Y-124865000D01*
X149887985Y-124865000D01*
X149685000Y-125355050D01*
X149685000Y-126104950D01*
X149971974Y-126797767D01*
X150502233Y-127328026D01*
X151195050Y-127615000D01*
X151944950Y-127615000D01*
X152637767Y-127328026D01*
X153168026Y-126797767D01*
X153455000Y-126104950D01*
X153455000Y-125355050D01*
X153252015Y-124865000D01*
X154757047Y-124865000D01*
X154849634Y-124957587D01*
X154685000Y-125355050D01*
X154685000Y-126104950D01*
X154971974Y-126797767D01*
X155502233Y-127328026D01*
X156195050Y-127615000D01*
X156708447Y-127615000D01*
X157661115Y-128567669D01*
X157730015Y-128670785D01*
X157833131Y-128739685D01*
X157833132Y-128739686D01*
X158003972Y-128853837D01*
X158138527Y-128943744D01*
X158498764Y-129015400D01*
X158498768Y-129015400D01*
X158620399Y-129039594D01*
X158742030Y-129015400D01*
X164397968Y-129015400D01*
X164519600Y-129039594D01*
X164641232Y-129015400D01*
X164641236Y-129015400D01*
X165001473Y-128943744D01*
X165409985Y-128670785D01*
X165478887Y-128567666D01*
X166431554Y-127615000D01*
X166708447Y-127615000D01*
X167661115Y-128567669D01*
X167730015Y-128670785D01*
X167833131Y-128739685D01*
X167833132Y-128739686D01*
X168003972Y-128853837D01*
X168138527Y-128943744D01*
X168498764Y-129015400D01*
X168498768Y-129015400D01*
X168620399Y-129039594D01*
X168742030Y-129015400D01*
X174397968Y-129015400D01*
X174519600Y-129039594D01*
X174641232Y-129015400D01*
X174641236Y-129015400D01*
X175001473Y-128943744D01*
X175409985Y-128670785D01*
X175478887Y-128567666D01*
X176431554Y-127615000D01*
X176708447Y-127615000D01*
X177661115Y-128567669D01*
X177730015Y-128670785D01*
X177833131Y-128739685D01*
X177833132Y-128739686D01*
X178003972Y-128853837D01*
X178138527Y-128943744D01*
X178498764Y-129015400D01*
X178498768Y-129015400D01*
X178620399Y-129039594D01*
X178742030Y-129015400D01*
X183372768Y-129015400D01*
X183494400Y-129039594D01*
X183616032Y-129015400D01*
X183616036Y-129015400D01*
X183976273Y-128943744D01*
X184384785Y-128670785D01*
X184453687Y-128567666D01*
X185637357Y-127383996D01*
X186195050Y-127615000D01*
X186708447Y-127615000D01*
X187661115Y-128567669D01*
X187730015Y-128670785D01*
X187833131Y-128739685D01*
X187833132Y-128739686D01*
X188003972Y-128853837D01*
X188138527Y-128943744D01*
X188498764Y-129015400D01*
X188498768Y-129015400D01*
X188620399Y-129039594D01*
X188742030Y-129015400D01*
X194397968Y-129015400D01*
X194519600Y-129039594D01*
X194641232Y-129015400D01*
X194641236Y-129015400D01*
X195001473Y-128943744D01*
X195409985Y-128670785D01*
X195478887Y-128567666D01*
X196431554Y-127615000D01*
X196708447Y-127615000D01*
X197661115Y-128567669D01*
X197730015Y-128670785D01*
X197833131Y-128739685D01*
X197833132Y-128739686D01*
X198003972Y-128853837D01*
X198138527Y-128943744D01*
X198498764Y-129015400D01*
X198498768Y-129015400D01*
X198620399Y-129039594D01*
X198742030Y-129015400D01*
X204397968Y-129015400D01*
X204519600Y-129039594D01*
X204641232Y-129015400D01*
X204641236Y-129015400D01*
X205001473Y-128943744D01*
X205409985Y-128670785D01*
X205478887Y-128567666D01*
X206431554Y-127615000D01*
X206708447Y-127615000D01*
X207661115Y-128567669D01*
X207730015Y-128670785D01*
X207833131Y-128739685D01*
X207833132Y-128739686D01*
X208003972Y-128853837D01*
X208138527Y-128943744D01*
X208498764Y-129015400D01*
X208498768Y-129015400D01*
X208620399Y-129039594D01*
X208742030Y-129015400D01*
X214397968Y-129015400D01*
X214519600Y-129039594D01*
X214641232Y-129015400D01*
X214641236Y-129015400D01*
X215001473Y-128943744D01*
X215409985Y-128670785D01*
X215478887Y-128567666D01*
X216431554Y-127615000D01*
X216944950Y-127615000D01*
X217637767Y-127328026D01*
X218168026Y-126797767D01*
X218455000Y-126104950D01*
X218455000Y-125355050D01*
X221675000Y-125355050D01*
X221675000Y-126104950D01*
X221961974Y-126797767D01*
X222492233Y-127328026D01*
X223185050Y-127615000D01*
X223934950Y-127615000D01*
X224627767Y-127328026D01*
X224892473Y-127063320D01*
X227406285Y-127063320D01*
X227535533Y-127356123D01*
X228235806Y-127624388D01*
X228985435Y-127604250D01*
X229584467Y-127356123D01*
X229713715Y-127063320D01*
X228560000Y-125909605D01*
X227406285Y-127063320D01*
X224892473Y-127063320D01*
X225158026Y-126797767D01*
X225445000Y-126104950D01*
X225445000Y-125405806D01*
X226665612Y-125405806D01*
X226685750Y-126155435D01*
X226933877Y-126754467D01*
X227226680Y-126883715D01*
X228380395Y-125730000D01*
X228739605Y-125730000D01*
X229893320Y-126883715D01*
X230186123Y-126754467D01*
X230454388Y-126054194D01*
X230434250Y-125304565D01*
X230186123Y-124705533D01*
X229893320Y-124576285D01*
X228739605Y-125730000D01*
X228380395Y-125730000D01*
X227226680Y-124576285D01*
X226933877Y-124705533D01*
X226665612Y-125405806D01*
X225445000Y-125405806D01*
X225445000Y-125355050D01*
X225158026Y-124662233D01*
X224892473Y-124396680D01*
X227406285Y-124396680D01*
X228560000Y-125550395D01*
X229713715Y-124396680D01*
X229584467Y-124103877D01*
X228884194Y-123835612D01*
X228134565Y-123855750D01*
X227535533Y-124103877D01*
X227406285Y-124396680D01*
X224892473Y-124396680D01*
X224627767Y-124131974D01*
X223934950Y-123845000D01*
X223185050Y-123845000D01*
X222492233Y-124131974D01*
X221961974Y-124662233D01*
X221675000Y-125355050D01*
X218455000Y-125355050D01*
X218168026Y-124662233D01*
X217637767Y-124131974D01*
X216944950Y-123845000D01*
X216195050Y-123845000D01*
X215502233Y-124131974D01*
X214971974Y-124662233D01*
X214685000Y-125355050D01*
X214685000Y-125868446D01*
X214008047Y-126545400D01*
X213272560Y-126545400D01*
X213455000Y-126104950D01*
X213455000Y-125591553D01*
X215357270Y-123689284D01*
X215460385Y-123620385D01*
X215626118Y-123372349D01*
X215733344Y-123211873D01*
X215786267Y-122945812D01*
X215805000Y-122851636D01*
X215805000Y-122851632D01*
X215829194Y-122730000D01*
X215805000Y-122608368D01*
X215805000Y-87220464D01*
X215733344Y-86860227D01*
X215460385Y-86451715D01*
X215051873Y-86178756D01*
X214570000Y-86082905D01*
X214088128Y-86178756D01*
X213679616Y-86451715D01*
X213406657Y-86860227D01*
X213335001Y-87220464D01*
X213335000Y-122218446D01*
X211708447Y-123845000D01*
X211195050Y-123845000D01*
X210502233Y-124131974D01*
X209971974Y-124662233D01*
X209685000Y-125355050D01*
X209685000Y-126104950D01*
X209867440Y-126545400D01*
X209131954Y-126545400D01*
X208455000Y-125868447D01*
X208455000Y-125355050D01*
X208168026Y-124662233D01*
X207637767Y-124131974D01*
X206944950Y-123845000D01*
X206195050Y-123845000D01*
X205502233Y-124131974D01*
X204971974Y-124662233D01*
X204685000Y-125355050D01*
X204685000Y-125868446D01*
X204008047Y-126545400D01*
X203272560Y-126545400D01*
X203455000Y-126104950D01*
X203455000Y-125355050D01*
X203168026Y-124662233D01*
X203052000Y-124546207D01*
X203052000Y-85917564D01*
X202980344Y-85557327D01*
X202707385Y-85148815D01*
X202298873Y-84875856D01*
X201817000Y-84780005D01*
X201335128Y-84875856D01*
X200926616Y-85148815D01*
X200653657Y-85557327D01*
X200582001Y-85917564D01*
X200582000Y-124098933D01*
X200502233Y-124131974D01*
X199971974Y-124662233D01*
X199685000Y-125355050D01*
X199685000Y-126104950D01*
X199867440Y-126545400D01*
X199131954Y-126545400D01*
X198455000Y-125868447D01*
X198455000Y-125355050D01*
X198168026Y-124662233D01*
X197637767Y-124131974D01*
X196944950Y-123845000D01*
X196195050Y-123845000D01*
X195502233Y-124131974D01*
X194971974Y-124662233D01*
X194685000Y-125355050D01*
X194685000Y-125868446D01*
X194008047Y-126545400D01*
X193272560Y-126545400D01*
X193455000Y-126104950D01*
X193455000Y-125591553D01*
X194984270Y-124062284D01*
X195087385Y-123993385D01*
X195177503Y-123858515D01*
X195360344Y-123584873D01*
X195360344Y-123584872D01*
X195432000Y-123224636D01*
X195432000Y-123224633D01*
X195456194Y-123103001D01*
X195432000Y-122981369D01*
X195432000Y-80484364D01*
X195360344Y-80124127D01*
X195087385Y-79715615D01*
X194678873Y-79442656D01*
X194197000Y-79346805D01*
X193715128Y-79442656D01*
X193306616Y-79715615D01*
X193033657Y-80124127D01*
X192962001Y-80484364D01*
X192962000Y-110248210D01*
X192806572Y-110144356D01*
X192324700Y-110048506D01*
X191842827Y-110144356D01*
X191537432Y-110348414D01*
X190021147Y-111864700D01*
X186056354Y-111864700D01*
X184040667Y-109849014D01*
X183735272Y-109644956D01*
X183253400Y-109549106D01*
X182881800Y-109623022D01*
X182881800Y-93748732D01*
X182905994Y-93627100D01*
X182881800Y-93505468D01*
X182881800Y-93505464D01*
X182810144Y-93145227D01*
X182537185Y-92736715D01*
X182434066Y-92667813D01*
X175810067Y-86043814D01*
X175504672Y-85839756D01*
X175022800Y-85743906D01*
X174540928Y-85839756D01*
X174132415Y-86112715D01*
X173859456Y-86521228D01*
X173763606Y-87003100D01*
X173859456Y-87484972D01*
X174063514Y-87790367D01*
X180411801Y-94138654D01*
X180411801Y-108767643D01*
X180272927Y-108674851D01*
X179888600Y-108598403D01*
X179504272Y-108674851D01*
X179178455Y-108892555D01*
X178960751Y-109218373D01*
X178903600Y-109505689D01*
X178903601Y-112715600D01*
X177148000Y-112715600D01*
X177148000Y-109957007D01*
X177167296Y-109859999D01*
X177148000Y-109762989D01*
X177148000Y-109762988D01*
X177090849Y-109475672D01*
X176873145Y-109149855D01*
X176790902Y-109094902D01*
X164228000Y-96532000D01*
X164228000Y-96507703D01*
X164277577Y-96474577D01*
X164594740Y-95999909D01*
X164706113Y-95440000D01*
X164594740Y-94880091D01*
X164277577Y-94405423D01*
X163925242Y-94170000D01*
X164277577Y-93934577D01*
X164594740Y-93459909D01*
X164706113Y-92900000D01*
X164594740Y-92340091D01*
X164478000Y-92165377D01*
X164478000Y-91271632D01*
X164502194Y-91150000D01*
X164478000Y-91028368D01*
X164478000Y-91028364D01*
X164406344Y-90668127D01*
X164133385Y-90259615D01*
X164030266Y-90190713D01*
X163221553Y-89382000D01*
X163384333Y-89382000D01*
X163802909Y-89298740D01*
X164277577Y-88981577D01*
X164594740Y-88506909D01*
X164706113Y-87947000D01*
X164594740Y-87387091D01*
X164277577Y-86912423D01*
X163925242Y-86677000D01*
X164277577Y-86441577D01*
X164594740Y-85966909D01*
X164706113Y-85407000D01*
X164594740Y-84847091D01*
X164478000Y-84672377D01*
X164478000Y-83778632D01*
X164502194Y-83657000D01*
X164478000Y-83535368D01*
X164478000Y-83535364D01*
X164406344Y-83175127D01*
X164202286Y-82869732D01*
X164202285Y-82869731D01*
X164133385Y-82766615D01*
X164030269Y-82697715D01*
X163221553Y-81889000D01*
X163384333Y-81889000D01*
X163802909Y-81805740D01*
X164277577Y-81488577D01*
X164310703Y-81439000D01*
X164645992Y-81439000D01*
X164743000Y-81458296D01*
X164840008Y-81439000D01*
X164840012Y-81439000D01*
X165127328Y-81381849D01*
X165453145Y-81164145D01*
X165508098Y-81081902D01*
X182135098Y-64454903D01*
X182297849Y-64211328D01*
X182374296Y-63827000D01*
X182366280Y-63786700D01*
X191987412Y-63786700D01*
X192274728Y-63729549D01*
X192600545Y-63511845D01*
X192818249Y-63186028D01*
X192880514Y-62873000D01*
X208295900Y-62873000D01*
X208998697Y-63575798D01*
X209242272Y-63738549D01*
X209626600Y-63814996D01*
X210010927Y-63738549D01*
X210336745Y-63520845D01*
X210554449Y-63195027D01*
X210630896Y-62810700D01*
X210554449Y-62426372D01*
X210391698Y-62182797D01*
X209468998Y-61260098D01*
X209414045Y-61177855D01*
X209088228Y-60960151D01*
X208800912Y-60903000D01*
X208800908Y-60903000D01*
X208703900Y-60883704D01*
X208606892Y-60903000D01*
X168420012Y-60903000D01*
X168323000Y-60883703D01*
X167938672Y-60960151D01*
X167695097Y-61122902D01*
X167695095Y-61122904D01*
X167612855Y-61177855D01*
X167557904Y-61260095D01*
X164335000Y-64483000D01*
X164310703Y-64483000D01*
X164277577Y-64433423D01*
X163925242Y-64198000D01*
X164277577Y-63962577D01*
X164594740Y-63487909D01*
X164706113Y-62928000D01*
X164594740Y-62368091D01*
X164277577Y-61893423D01*
X163802909Y-61576260D01*
X163384333Y-61493000D01*
X163101667Y-61493000D01*
X162683091Y-61576260D01*
X162208423Y-61893423D01*
X161891260Y-62368091D01*
X161779887Y-62928000D01*
X161891260Y-63487909D01*
X162208423Y-63962577D01*
X162560758Y-64198000D01*
X162208423Y-64433423D01*
X161891260Y-64908091D01*
X161779887Y-65468000D01*
X161891260Y-66027909D01*
X162208423Y-66502577D01*
X162683091Y-66819740D01*
X163101667Y-66903000D01*
X163384333Y-66903000D01*
X163802909Y-66819740D01*
X164277577Y-66502577D01*
X164310703Y-66453000D01*
X164645992Y-66453000D01*
X164743000Y-66472296D01*
X164840008Y-66453000D01*
X164840012Y-66453000D01*
X165127328Y-66395849D01*
X165453145Y-66178145D01*
X165508098Y-66095902D01*
X168731001Y-62873000D01*
X173437999Y-62873000D01*
X164335000Y-71976000D01*
X164310703Y-71976000D01*
X164277577Y-71926423D01*
X163925242Y-71691000D01*
X164277577Y-71455577D01*
X164594740Y-70980909D01*
X164706113Y-70421000D01*
X164594740Y-69861091D01*
X164277577Y-69386423D01*
X163802909Y-69069260D01*
X163384333Y-68986000D01*
X163101667Y-68986000D01*
X162683091Y-69069260D01*
X162208423Y-69386423D01*
X161891260Y-69861091D01*
X161779887Y-70421000D01*
X161891260Y-70980909D01*
X162208423Y-71455577D01*
X162560758Y-71691000D01*
X162208423Y-71926423D01*
X161891260Y-72401091D01*
X161779887Y-72961000D01*
X161891260Y-73520909D01*
X162208423Y-73995577D01*
X162683091Y-74312740D01*
X163101667Y-74396000D01*
X163384333Y-74396000D01*
X163802909Y-74312740D01*
X164277577Y-73995577D01*
X164310703Y-73946000D01*
X164645992Y-73946000D01*
X164743000Y-73965296D01*
X164840008Y-73946000D01*
X164840012Y-73946000D01*
X165127328Y-73888849D01*
X165453145Y-73671145D01*
X165508098Y-73588902D01*
X175310301Y-63786700D01*
X180017299Y-63786700D01*
X164335000Y-79469000D01*
X164310703Y-79469000D01*
X164277577Y-79419423D01*
X163925242Y-79184000D01*
X164277577Y-78948577D01*
X164594740Y-78473909D01*
X164706113Y-77914000D01*
X164594740Y-77354091D01*
X164277577Y-76879423D01*
X163802909Y-76562260D01*
X163384333Y-76479000D01*
X163101667Y-76479000D01*
X162683091Y-76562260D01*
X162208423Y-76879423D01*
X161891260Y-77354091D01*
X161850266Y-77560180D01*
X161627000Y-77783446D01*
X161627000Y-59735000D01*
X221927610Y-59735000D01*
X222095901Y-59768475D01*
X222095901Y-59768475D01*
G37*
X222095901Y-59768475D02*
X222177201Y-59822798D01*
X222231525Y-59904101D01*
X222265000Y-60072390D01*
X222265001Y-79072388D01*
X222279123Y-79143384D01*
X222279123Y-79143391D01*
X222355243Y-79526074D01*
X222464990Y-79791027D01*
X222681762Y-80115451D01*
X222785823Y-80219511D01*
X222873000Y-80306688D01*
X222873000Y-123000000D01*
X222882667Y-123048601D01*
X222910197Y-123089803D01*
X222951399Y-123117333D01*
X223000000Y-123127000D01*
X232265001Y-123127000D01*
X232265001Y-132265000D01*
X141627000Y-132265000D01*
X141627000Y-127615000D01*
X141944950Y-127615000D01*
X142637767Y-127328026D01*
X143168026Y-126797767D01*
X143455000Y-126104950D01*
X143455000Y-125355050D01*
X143168026Y-124662233D01*
X142637767Y-124131974D01*
X141944950Y-123845000D01*
X141627000Y-123845000D01*
X141627000Y-122627000D01*
X147948155Y-122627000D01*
X147882732Y-122670714D01*
X147882731Y-122670715D01*
X147779615Y-122739615D01*
X147710715Y-122842731D01*
X146708447Y-123845000D01*
X146195050Y-123845000D01*
X145502233Y-124131974D01*
X144971974Y-124662233D01*
X144685000Y-125355050D01*
X144685000Y-126104950D01*
X144971974Y-126797767D01*
X145502233Y-127328026D01*
X146195050Y-127615000D01*
X146944950Y-127615000D01*
X147637767Y-127328026D01*
X148168026Y-126797767D01*
X148455000Y-126104950D01*
X148455000Y-125591553D01*
X149181554Y-124865000D01*
X149887985Y-124865000D01*
X149685000Y-125355050D01*
X149685000Y-126104950D01*
X149971974Y-126797767D01*
X150502233Y-127328026D01*
X151195050Y-127615000D01*
X151944950Y-127615000D01*
X152637767Y-127328026D01*
X153168026Y-126797767D01*
X153455000Y-126104950D01*
X153455000Y-125355050D01*
X153252015Y-124865000D01*
X154757047Y-124865000D01*
X154849634Y-124957587D01*
X154685000Y-125355050D01*
X154685000Y-126104950D01*
X154971974Y-126797767D01*
X155502233Y-127328026D01*
X156195050Y-127615000D01*
X156708447Y-127615000D01*
X157661115Y-128567669D01*
X157730015Y-128670785D01*
X157833131Y-128739685D01*
X157833132Y-128739686D01*
X158003972Y-128853837D01*
X158138527Y-128943744D01*
X158498764Y-129015400D01*
X158498768Y-129015400D01*
X158620399Y-129039594D01*
X158742030Y-129015400D01*
X164397968Y-129015400D01*
X164519600Y-129039594D01*
X164641232Y-129015400D01*
X164641236Y-129015400D01*
X165001473Y-128943744D01*
X165409985Y-128670785D01*
X165478887Y-128567666D01*
X166431554Y-127615000D01*
X166708447Y-127615000D01*
X167661115Y-128567669D01*
X167730015Y-128670785D01*
X167833131Y-128739685D01*
X167833132Y-128739686D01*
X168003972Y-128853837D01*
X168138527Y-128943744D01*
X168498764Y-129015400D01*
X168498768Y-129015400D01*
X168620399Y-129039594D01*
X168742030Y-129015400D01*
X174397968Y-129015400D01*
X174519600Y-129039594D01*
X174641232Y-129015400D01*
X174641236Y-129015400D01*
X175001473Y-128943744D01*
X175409985Y-128670785D01*
X175478887Y-128567666D01*
X176431554Y-127615000D01*
X176708447Y-127615000D01*
X177661115Y-128567669D01*
X177730015Y-128670785D01*
X177833131Y-128739685D01*
X177833132Y-128739686D01*
X178003972Y-128853837D01*
X178138527Y-128943744D01*
X178498764Y-129015400D01*
X178498768Y-129015400D01*
X178620399Y-129039594D01*
X178742030Y-129015400D01*
X183372768Y-129015400D01*
X183494400Y-129039594D01*
X183616032Y-129015400D01*
X183616036Y-129015400D01*
X183976273Y-128943744D01*
X184384785Y-128670785D01*
X184453687Y-128567666D01*
X185637357Y-127383996D01*
X186195050Y-127615000D01*
X186708447Y-127615000D01*
X187661115Y-128567669D01*
X187730015Y-128670785D01*
X187833131Y-128739685D01*
X187833132Y-128739686D01*
X188003972Y-128853837D01*
X188138527Y-128943744D01*
X188498764Y-129015400D01*
X188498768Y-129015400D01*
X188620399Y-129039594D01*
X188742030Y-129015400D01*
X194397968Y-129015400D01*
X194519600Y-129039594D01*
X194641232Y-129015400D01*
X194641236Y-129015400D01*
X195001473Y-128943744D01*
X195409985Y-128670785D01*
X195478887Y-128567666D01*
X196431554Y-127615000D01*
X196708447Y-127615000D01*
X197661115Y-128567669D01*
X197730015Y-128670785D01*
X197833131Y-128739685D01*
X197833132Y-128739686D01*
X198003972Y-128853837D01*
X198138527Y-128943744D01*
X198498764Y-129015400D01*
X198498768Y-129015400D01*
X198620399Y-129039594D01*
X198742030Y-129015400D01*
X204397968Y-129015400D01*
X204519600Y-129039594D01*
X204641232Y-129015400D01*
X204641236Y-129015400D01*
X205001473Y-128943744D01*
X205409985Y-128670785D01*
X205478887Y-128567666D01*
X206431554Y-127615000D01*
X206708447Y-127615000D01*
X207661115Y-128567669D01*
X207730015Y-128670785D01*
X207833131Y-128739685D01*
X207833132Y-128739686D01*
X208003972Y-128853837D01*
X208138527Y-128943744D01*
X208498764Y-129015400D01*
X208498768Y-129015400D01*
X208620399Y-129039594D01*
X208742030Y-129015400D01*
X214397968Y-129015400D01*
X214519600Y-129039594D01*
X214641232Y-129015400D01*
X214641236Y-129015400D01*
X215001473Y-128943744D01*
X215409985Y-128670785D01*
X215478887Y-128567666D01*
X216431554Y-127615000D01*
X216944950Y-127615000D01*
X217637767Y-127328026D01*
X218168026Y-126797767D01*
X218455000Y-126104950D01*
X218455000Y-125355050D01*
X221675000Y-125355050D01*
X221675000Y-126104950D01*
X221961974Y-126797767D01*
X222492233Y-127328026D01*
X223185050Y-127615000D01*
X223934950Y-127615000D01*
X224627767Y-127328026D01*
X224892473Y-127063320D01*
X227406285Y-127063320D01*
X227535533Y-127356123D01*
X228235806Y-127624388D01*
X228985435Y-127604250D01*
X229584467Y-127356123D01*
X229713715Y-127063320D01*
X228560000Y-125909605D01*
X227406285Y-127063320D01*
X224892473Y-127063320D01*
X225158026Y-126797767D01*
X225445000Y-126104950D01*
X225445000Y-125405806D01*
X226665612Y-125405806D01*
X226685750Y-126155435D01*
X226933877Y-126754467D01*
X227226680Y-126883715D01*
X228380395Y-125730000D01*
X228739605Y-125730000D01*
X229893320Y-126883715D01*
X230186123Y-126754467D01*
X230454388Y-126054194D01*
X230434250Y-125304565D01*
X230186123Y-124705533D01*
X229893320Y-124576285D01*
X228739605Y-125730000D01*
X228380395Y-125730000D01*
X227226680Y-124576285D01*
X226933877Y-124705533D01*
X226665612Y-125405806D01*
X225445000Y-125405806D01*
X225445000Y-125355050D01*
X225158026Y-124662233D01*
X224892473Y-124396680D01*
X227406285Y-124396680D01*
X228560000Y-125550395D01*
X229713715Y-124396680D01*
X229584467Y-124103877D01*
X228884194Y-123835612D01*
X228134565Y-123855750D01*
X227535533Y-124103877D01*
X227406285Y-124396680D01*
X224892473Y-124396680D01*
X224627767Y-124131974D01*
X223934950Y-123845000D01*
X223185050Y-123845000D01*
X222492233Y-124131974D01*
X221961974Y-124662233D01*
X221675000Y-125355050D01*
X218455000Y-125355050D01*
X218168026Y-124662233D01*
X217637767Y-124131974D01*
X216944950Y-123845000D01*
X216195050Y-123845000D01*
X215502233Y-124131974D01*
X214971974Y-124662233D01*
X214685000Y-125355050D01*
X214685000Y-125868446D01*
X214008047Y-126545400D01*
X213272560Y-126545400D01*
X213455000Y-126104950D01*
X213455000Y-125591553D01*
X215357270Y-123689284D01*
X215460385Y-123620385D01*
X215626118Y-123372349D01*
X215733344Y-123211873D01*
X215786267Y-122945812D01*
X215805000Y-122851636D01*
X215805000Y-122851632D01*
X215829194Y-122730000D01*
X215805000Y-122608368D01*
X215805000Y-87220464D01*
X215733344Y-86860227D01*
X215460385Y-86451715D01*
X215051873Y-86178756D01*
X214570000Y-86082905D01*
X214088128Y-86178756D01*
X213679616Y-86451715D01*
X213406657Y-86860227D01*
X213335001Y-87220464D01*
X213335000Y-122218446D01*
X211708447Y-123845000D01*
X211195050Y-123845000D01*
X210502233Y-124131974D01*
X209971974Y-124662233D01*
X209685000Y-125355050D01*
X209685000Y-126104950D01*
X209867440Y-126545400D01*
X209131954Y-126545400D01*
X208455000Y-125868447D01*
X208455000Y-125355050D01*
X208168026Y-124662233D01*
X207637767Y-124131974D01*
X206944950Y-123845000D01*
X206195050Y-123845000D01*
X205502233Y-124131974D01*
X204971974Y-124662233D01*
X204685000Y-125355050D01*
X204685000Y-125868446D01*
X204008047Y-126545400D01*
X203272560Y-126545400D01*
X203455000Y-126104950D01*
X203455000Y-125355050D01*
X203168026Y-124662233D01*
X203052000Y-124546207D01*
X203052000Y-85917564D01*
X202980344Y-85557327D01*
X202707385Y-85148815D01*
X202298873Y-84875856D01*
X201817000Y-84780005D01*
X201335128Y-84875856D01*
X200926616Y-85148815D01*
X200653657Y-85557327D01*
X200582001Y-85917564D01*
X200582000Y-124098933D01*
X200502233Y-124131974D01*
X199971974Y-124662233D01*
X199685000Y-125355050D01*
X199685000Y-126104950D01*
X199867440Y-126545400D01*
X199131954Y-126545400D01*
X198455000Y-125868447D01*
X198455000Y-125355050D01*
X198168026Y-124662233D01*
X197637767Y-124131974D01*
X196944950Y-123845000D01*
X196195050Y-123845000D01*
X195502233Y-124131974D01*
X194971974Y-124662233D01*
X194685000Y-125355050D01*
X194685000Y-125868446D01*
X194008047Y-126545400D01*
X193272560Y-126545400D01*
X193455000Y-126104950D01*
X193455000Y-125591553D01*
X194984270Y-124062284D01*
X195087385Y-123993385D01*
X195177503Y-123858515D01*
X195360344Y-123584873D01*
X195360344Y-123584872D01*
X195432000Y-123224636D01*
X195432000Y-123224633D01*
X195456194Y-123103001D01*
X195432000Y-122981369D01*
X195432000Y-80484364D01*
X195360344Y-80124127D01*
X195087385Y-79715615D01*
X194678873Y-79442656D01*
X194197000Y-79346805D01*
X193715128Y-79442656D01*
X193306616Y-79715615D01*
X193033657Y-80124127D01*
X192962001Y-80484364D01*
X192962000Y-110248210D01*
X192806572Y-110144356D01*
X192324700Y-110048506D01*
X191842827Y-110144356D01*
X191537432Y-110348414D01*
X190021147Y-111864700D01*
X186056354Y-111864700D01*
X184040667Y-109849014D01*
X183735272Y-109644956D01*
X183253400Y-109549106D01*
X182881800Y-109623022D01*
X182881800Y-93748732D01*
X182905994Y-93627100D01*
X182881800Y-93505468D01*
X182881800Y-93505464D01*
X182810144Y-93145227D01*
X182537185Y-92736715D01*
X182434066Y-92667813D01*
X175810067Y-86043814D01*
X175504672Y-85839756D01*
X175022800Y-85743906D01*
X174540928Y-85839756D01*
X174132415Y-86112715D01*
X173859456Y-86521228D01*
X173763606Y-87003100D01*
X173859456Y-87484972D01*
X174063514Y-87790367D01*
X180411801Y-94138654D01*
X180411801Y-108767643D01*
X180272927Y-108674851D01*
X179888600Y-108598403D01*
X179504272Y-108674851D01*
X179178455Y-108892555D01*
X178960751Y-109218373D01*
X178903600Y-109505689D01*
X178903601Y-112715600D01*
X177148000Y-112715600D01*
X177148000Y-109957007D01*
X177167296Y-109859999D01*
X177148000Y-109762989D01*
X177148000Y-109762988D01*
X177090849Y-109475672D01*
X176873145Y-109149855D01*
X176790902Y-109094902D01*
X164228000Y-96532000D01*
X164228000Y-96507703D01*
X164277577Y-96474577D01*
X164594740Y-95999909D01*
X164706113Y-95440000D01*
X164594740Y-94880091D01*
X164277577Y-94405423D01*
X163925242Y-94170000D01*
X164277577Y-93934577D01*
X164594740Y-93459909D01*
X164706113Y-92900000D01*
X164594740Y-92340091D01*
X164478000Y-92165377D01*
X164478000Y-91271632D01*
X164502194Y-91150000D01*
X164478000Y-91028368D01*
X164478000Y-91028364D01*
X164406344Y-90668127D01*
X164133385Y-90259615D01*
X164030266Y-90190713D01*
X163221553Y-89382000D01*
X163384333Y-89382000D01*
X163802909Y-89298740D01*
X164277577Y-88981577D01*
X164594740Y-88506909D01*
X164706113Y-87947000D01*
X164594740Y-87387091D01*
X164277577Y-86912423D01*
X163925242Y-86677000D01*
X164277577Y-86441577D01*
X164594740Y-85966909D01*
X164706113Y-85407000D01*
X164594740Y-84847091D01*
X164478000Y-84672377D01*
X164478000Y-83778632D01*
X164502194Y-83657000D01*
X164478000Y-83535368D01*
X164478000Y-83535364D01*
X164406344Y-83175127D01*
X164202286Y-82869732D01*
X164202285Y-82869731D01*
X164133385Y-82766615D01*
X164030269Y-82697715D01*
X163221553Y-81889000D01*
X163384333Y-81889000D01*
X163802909Y-81805740D01*
X164277577Y-81488577D01*
X164310703Y-81439000D01*
X164645992Y-81439000D01*
X164743000Y-81458296D01*
X164840008Y-81439000D01*
X164840012Y-81439000D01*
X165127328Y-81381849D01*
X165453145Y-81164145D01*
X165508098Y-81081902D01*
X182135098Y-64454903D01*
X182297849Y-64211328D01*
X182374296Y-63827000D01*
X182366280Y-63786700D01*
X191987412Y-63786700D01*
X192274728Y-63729549D01*
X192600545Y-63511845D01*
X192818249Y-63186028D01*
X192880514Y-62873000D01*
X208295900Y-62873000D01*
X208998697Y-63575798D01*
X209242272Y-63738549D01*
X209626600Y-63814996D01*
X210010927Y-63738549D01*
X210336745Y-63520845D01*
X210554449Y-63195027D01*
X210630896Y-62810700D01*
X210554449Y-62426372D01*
X210391698Y-62182797D01*
X209468998Y-61260098D01*
X209414045Y-61177855D01*
X209088228Y-60960151D01*
X208800912Y-60903000D01*
X208800908Y-60903000D01*
X208703900Y-60883704D01*
X208606892Y-60903000D01*
X168420012Y-60903000D01*
X168323000Y-60883703D01*
X167938672Y-60960151D01*
X167695097Y-61122902D01*
X167695095Y-61122904D01*
X167612855Y-61177855D01*
X167557904Y-61260095D01*
X164335000Y-64483000D01*
X164310703Y-64483000D01*
X164277577Y-64433423D01*
X163925242Y-64198000D01*
X164277577Y-63962577D01*
X164594740Y-63487909D01*
X164706113Y-62928000D01*
X164594740Y-62368091D01*
X164277577Y-61893423D01*
X163802909Y-61576260D01*
X163384333Y-61493000D01*
X163101667Y-61493000D01*
X162683091Y-61576260D01*
X162208423Y-61893423D01*
X161891260Y-62368091D01*
X161779887Y-62928000D01*
X161891260Y-63487909D01*
X162208423Y-63962577D01*
X162560758Y-64198000D01*
X162208423Y-64433423D01*
X161891260Y-64908091D01*
X161779887Y-65468000D01*
X161891260Y-66027909D01*
X162208423Y-66502577D01*
X162683091Y-66819740D01*
X163101667Y-66903000D01*
X163384333Y-66903000D01*
X163802909Y-66819740D01*
X164277577Y-66502577D01*
X164310703Y-66453000D01*
X164645992Y-66453000D01*
X164743000Y-66472296D01*
X164840008Y-66453000D01*
X164840012Y-66453000D01*
X165127328Y-66395849D01*
X165453145Y-66178145D01*
X165508098Y-66095902D01*
X168731001Y-62873000D01*
X173437999Y-62873000D01*
X164335000Y-71976000D01*
X164310703Y-71976000D01*
X164277577Y-71926423D01*
X163925242Y-71691000D01*
X164277577Y-71455577D01*
X164594740Y-70980909D01*
X164706113Y-70421000D01*
X164594740Y-69861091D01*
X164277577Y-69386423D01*
X163802909Y-69069260D01*
X163384333Y-68986000D01*
X163101667Y-68986000D01*
X162683091Y-69069260D01*
X162208423Y-69386423D01*
X161891260Y-69861091D01*
X161779887Y-70421000D01*
X161891260Y-70980909D01*
X162208423Y-71455577D01*
X162560758Y-71691000D01*
X162208423Y-71926423D01*
X161891260Y-72401091D01*
X161779887Y-72961000D01*
X161891260Y-73520909D01*
X162208423Y-73995577D01*
X162683091Y-74312740D01*
X163101667Y-74396000D01*
X163384333Y-74396000D01*
X163802909Y-74312740D01*
X164277577Y-73995577D01*
X164310703Y-73946000D01*
X164645992Y-73946000D01*
X164743000Y-73965296D01*
X164840008Y-73946000D01*
X164840012Y-73946000D01*
X165127328Y-73888849D01*
X165453145Y-73671145D01*
X165508098Y-73588902D01*
X175310301Y-63786700D01*
X180017299Y-63786700D01*
X164335000Y-79469000D01*
X164310703Y-79469000D01*
X164277577Y-79419423D01*
X163925242Y-79184000D01*
X164277577Y-78948577D01*
X164594740Y-78473909D01*
X164706113Y-77914000D01*
X164594740Y-77354091D01*
X164277577Y-76879423D01*
X163802909Y-76562260D01*
X163384333Y-76479000D01*
X163101667Y-76479000D01*
X162683091Y-76562260D01*
X162208423Y-76879423D01*
X161891260Y-77354091D01*
X161850266Y-77560180D01*
X161627000Y-77783446D01*
X161627000Y-59735000D01*
X221927610Y-59735000D01*
X222095901Y-59768475D01*
G04 #@! TD*
M02*
