G04 #@! TF.FileFunction,Copper,L2,Bot,Signal*
%FSLAX46Y46*%
G04 Gerber Fmt 4.6, Leading zero omitted, Abs format (unit mm)*
G04 Created by KiCad (PCBNEW 4.0.4-stable) date 04/08/17 18:27:17*
%MOMM*%
%LPD*%
G01*
G04 APERTURE LIST*
%ADD10C,0.100000*%
%ADD11O,1.727200X2.032000*%
%ADD12C,4.064000*%
%ADD13C,2.500000*%
%ADD14C,0.600000*%
%ADD15C,0.800000*%
%ADD16C,0.200000*%
G04 APERTURE END LIST*
D10*
D11*
X138938000Y-123825000D03*
X141478000Y-123825000D03*
X144018000Y-123825000D03*
X146558000Y-123825000D03*
X149098000Y-123825000D03*
X151638000Y-123825000D03*
X154178000Y-123825000D03*
X156718000Y-123825000D03*
X161798000Y-123825000D03*
X164338000Y-123825000D03*
X166878000Y-123825000D03*
X169418000Y-123825000D03*
X171958000Y-123825000D03*
X174498000Y-123825000D03*
X129794000Y-75565000D03*
X132334000Y-75565000D03*
X134874000Y-75565000D03*
X137414000Y-75565000D03*
X139954000Y-75565000D03*
X142494000Y-75565000D03*
X145034000Y-75565000D03*
X147574000Y-75565000D03*
X150114000Y-75565000D03*
X152654000Y-75565000D03*
X156718000Y-75565000D03*
X159258000Y-75565000D03*
X161798000Y-75565000D03*
X164338000Y-75565000D03*
X166878000Y-75565000D03*
X169418000Y-75565000D03*
X171958000Y-75565000D03*
X174498000Y-75565000D03*
D12*
X124968000Y-123825000D03*
X177038000Y-118745000D03*
X126238000Y-75565000D03*
X177038000Y-90805000D03*
D13*
X172748000Y-97365000D03*
X172748000Y-102365000D03*
X172748000Y-112365000D03*
X172748000Y-107365000D03*
X118248000Y-106615000D03*
X118248000Y-101615000D03*
X118248000Y-96615000D03*
X118248000Y-91615000D03*
X118248000Y-86615000D03*
X118248000Y-76615000D03*
X118248000Y-81615000D03*
X118248000Y-113115000D03*
X118248000Y-118115000D03*
D14*
X141266200Y-106461200D03*
X127488700Y-85490300D03*
X139282500Y-106959500D03*
D15*
X138388000Y-109339400D02*
X138388000Y-113115000D01*
X141266200Y-106461200D02*
X138388000Y-109339400D01*
X118248000Y-113115000D02*
X138388000Y-113115000D01*
X138388000Y-113115000D02*
X149098000Y-123825000D01*
X137414000Y-75565000D02*
X127488700Y-85490300D01*
X116343200Y-78519800D02*
X118248000Y-76615000D01*
X116343200Y-82419900D02*
X116343200Y-78519800D01*
X118038300Y-84115000D02*
X116343200Y-82419900D01*
X122088000Y-84115000D02*
X118038300Y-84115000D01*
X161798000Y-123825000D02*
X122088000Y-84115000D01*
X122128000Y-81615000D02*
X164338000Y-123825000D01*
X118248000Y-81615000D02*
X122128000Y-81615000D01*
X122905400Y-86615000D02*
X118248000Y-86615000D01*
X142316500Y-106026100D02*
X122905400Y-86615000D01*
X142316500Y-106636900D02*
X142316500Y-106026100D01*
X161191800Y-125512200D02*
X142316500Y-106636900D01*
X165190800Y-125512200D02*
X161191800Y-125512200D01*
X166878000Y-123825000D02*
X165190800Y-125512200D01*
X133938000Y-101615000D02*
X139282500Y-106959500D01*
X118248000Y-101615000D02*
X133938000Y-101615000D01*
X131481200Y-73877800D02*
X129794000Y-75565000D01*
X153283400Y-73877800D02*
X131481200Y-73877800D01*
X154686000Y-75280400D02*
X153283400Y-73877800D01*
X154686000Y-84303000D02*
X154686000Y-75280400D01*
X172748000Y-102365000D02*
X154686000Y-84303000D01*
X132156400Y-78282600D02*
X134874000Y-75565000D01*
X123615300Y-78282600D02*
X132156400Y-78282600D01*
X120018200Y-74685500D02*
X123615300Y-78282600D01*
X117484800Y-74685500D02*
X120018200Y-74685500D01*
X115292800Y-76877500D02*
X117484800Y-74685500D01*
X115292800Y-103659800D02*
X115292800Y-76877500D01*
X118248000Y-106615000D02*
X115292800Y-103659800D01*
D16*
G36*
X114232140Y-75816840D02*
X113906981Y-76303475D01*
X113792800Y-76877500D01*
X113792800Y-103659800D01*
X113906981Y-104233825D01*
X114232140Y-104720460D01*
X115898199Y-106386519D01*
X115897593Y-107080393D01*
X116254605Y-107944429D01*
X116915094Y-108606071D01*
X117778505Y-108964591D01*
X118713393Y-108965407D01*
X119577429Y-108608395D01*
X120239071Y-107947906D01*
X120597591Y-107084495D01*
X120598407Y-106149607D01*
X120241395Y-105285571D01*
X119580906Y-104623929D01*
X118717495Y-104265409D01*
X118019119Y-104264799D01*
X117676594Y-103922274D01*
X117778505Y-103964591D01*
X118713393Y-103965407D01*
X119577429Y-103608395D01*
X120071685Y-103115000D01*
X133316680Y-103115000D01*
X137903880Y-107702200D01*
X137327340Y-108278740D01*
X137002181Y-108765375D01*
X136888000Y-109339400D01*
X136888000Y-111615000D01*
X120071121Y-111615000D01*
X119580906Y-111123929D01*
X118717495Y-110765409D01*
X117782607Y-110764593D01*
X116918571Y-111121605D01*
X116256929Y-111782094D01*
X115898409Y-112645505D01*
X115897593Y-113580393D01*
X116254605Y-114444429D01*
X116915094Y-115106071D01*
X117778505Y-115464591D01*
X118713393Y-115465407D01*
X119577429Y-115108395D01*
X120071685Y-114615000D01*
X137766680Y-114615000D01*
X145304298Y-122152618D01*
X145288000Y-122163508D01*
X144769437Y-121817015D01*
X144018000Y-121667545D01*
X143266563Y-121817015D01*
X142748000Y-122163508D01*
X142229437Y-121817015D01*
X141478000Y-121667545D01*
X140726563Y-121817015D01*
X140208000Y-122163508D01*
X139689437Y-121817015D01*
X138938000Y-121667545D01*
X138186563Y-121817015D01*
X137549525Y-122242670D01*
X137123870Y-122879708D01*
X136974400Y-123631145D01*
X136974400Y-124018855D01*
X137123870Y-124770292D01*
X137404310Y-125190000D01*
X127792483Y-125190000D01*
X128099456Y-124450727D01*
X128100543Y-123204740D01*
X127624729Y-122053182D01*
X126744452Y-121171367D01*
X125593727Y-120693544D01*
X124347740Y-120692457D01*
X123196182Y-121168271D01*
X122314367Y-122048548D01*
X121836544Y-123199273D01*
X121835457Y-124445260D01*
X122143177Y-125190000D01*
X112173000Y-125190000D01*
X112173000Y-119451136D01*
X117129653Y-119451136D01*
X117262774Y-119733048D01*
X117956970Y-119986911D01*
X118695473Y-119955793D01*
X119233226Y-119733048D01*
X119366347Y-119451136D01*
X118248000Y-118332789D01*
X117129653Y-119451136D01*
X112173000Y-119451136D01*
X112173000Y-117823970D01*
X116376089Y-117823970D01*
X116407207Y-118562473D01*
X116629952Y-119100226D01*
X116911864Y-119233347D01*
X118030211Y-118115000D01*
X118465789Y-118115000D01*
X119584136Y-119233347D01*
X119866048Y-119100226D01*
X120119911Y-118406030D01*
X120088793Y-117667527D01*
X119866048Y-117129774D01*
X119584136Y-116996653D01*
X118465789Y-118115000D01*
X118030211Y-118115000D01*
X116911864Y-116996653D01*
X116629952Y-117129774D01*
X116376089Y-117823970D01*
X112173000Y-117823970D01*
X112173000Y-116778864D01*
X117129653Y-116778864D01*
X118248000Y-117897211D01*
X119366347Y-116778864D01*
X119233226Y-116496952D01*
X118539030Y-116243089D01*
X117800527Y-116274207D01*
X117262774Y-116496952D01*
X117129653Y-116778864D01*
X112173000Y-116778864D01*
X112173000Y-74200000D01*
X115848980Y-74200000D01*
X114232140Y-75816840D01*
X114232140Y-75816840D01*
G37*
X114232140Y-75816840D02*
X113906981Y-76303475D01*
X113792800Y-76877500D01*
X113792800Y-103659800D01*
X113906981Y-104233825D01*
X114232140Y-104720460D01*
X115898199Y-106386519D01*
X115897593Y-107080393D01*
X116254605Y-107944429D01*
X116915094Y-108606071D01*
X117778505Y-108964591D01*
X118713393Y-108965407D01*
X119577429Y-108608395D01*
X120239071Y-107947906D01*
X120597591Y-107084495D01*
X120598407Y-106149607D01*
X120241395Y-105285571D01*
X119580906Y-104623929D01*
X118717495Y-104265409D01*
X118019119Y-104264799D01*
X117676594Y-103922274D01*
X117778505Y-103964591D01*
X118713393Y-103965407D01*
X119577429Y-103608395D01*
X120071685Y-103115000D01*
X133316680Y-103115000D01*
X137903880Y-107702200D01*
X137327340Y-108278740D01*
X137002181Y-108765375D01*
X136888000Y-109339400D01*
X136888000Y-111615000D01*
X120071121Y-111615000D01*
X119580906Y-111123929D01*
X118717495Y-110765409D01*
X117782607Y-110764593D01*
X116918571Y-111121605D01*
X116256929Y-111782094D01*
X115898409Y-112645505D01*
X115897593Y-113580393D01*
X116254605Y-114444429D01*
X116915094Y-115106071D01*
X117778505Y-115464591D01*
X118713393Y-115465407D01*
X119577429Y-115108395D01*
X120071685Y-114615000D01*
X137766680Y-114615000D01*
X145304298Y-122152618D01*
X145288000Y-122163508D01*
X144769437Y-121817015D01*
X144018000Y-121667545D01*
X143266563Y-121817015D01*
X142748000Y-122163508D01*
X142229437Y-121817015D01*
X141478000Y-121667545D01*
X140726563Y-121817015D01*
X140208000Y-122163508D01*
X139689437Y-121817015D01*
X138938000Y-121667545D01*
X138186563Y-121817015D01*
X137549525Y-122242670D01*
X137123870Y-122879708D01*
X136974400Y-123631145D01*
X136974400Y-124018855D01*
X137123870Y-124770292D01*
X137404310Y-125190000D01*
X127792483Y-125190000D01*
X128099456Y-124450727D01*
X128100543Y-123204740D01*
X127624729Y-122053182D01*
X126744452Y-121171367D01*
X125593727Y-120693544D01*
X124347740Y-120692457D01*
X123196182Y-121168271D01*
X122314367Y-122048548D01*
X121836544Y-123199273D01*
X121835457Y-124445260D01*
X122143177Y-125190000D01*
X112173000Y-125190000D01*
X112173000Y-119451136D01*
X117129653Y-119451136D01*
X117262774Y-119733048D01*
X117956970Y-119986911D01*
X118695473Y-119955793D01*
X119233226Y-119733048D01*
X119366347Y-119451136D01*
X118248000Y-118332789D01*
X117129653Y-119451136D01*
X112173000Y-119451136D01*
X112173000Y-117823970D01*
X116376089Y-117823970D01*
X116407207Y-118562473D01*
X116629952Y-119100226D01*
X116911864Y-119233347D01*
X118030211Y-118115000D01*
X118465789Y-118115000D01*
X119584136Y-119233347D01*
X119866048Y-119100226D01*
X120119911Y-118406030D01*
X120088793Y-117667527D01*
X119866048Y-117129774D01*
X119584136Y-116996653D01*
X118465789Y-118115000D01*
X118030211Y-118115000D01*
X116911864Y-116996653D01*
X116629952Y-117129774D01*
X116376089Y-117823970D01*
X112173000Y-117823970D01*
X112173000Y-116778864D01*
X117129653Y-116778864D01*
X118248000Y-117897211D01*
X119366347Y-116778864D01*
X119233226Y-116496952D01*
X118539030Y-116243089D01*
X117800527Y-116274207D01*
X117262774Y-116496952D01*
X117129653Y-116778864D01*
X112173000Y-116778864D01*
X112173000Y-74200000D01*
X115848980Y-74200000D01*
X114232140Y-75816840D01*
G36*
X155612124Y-122053844D02*
X155329525Y-122242670D01*
X155116306Y-122561774D01*
X155041641Y-122481178D01*
X154559049Y-122251189D01*
X154332000Y-122362017D01*
X154332000Y-123671000D01*
X154352000Y-123671000D01*
X154352000Y-123979000D01*
X154332000Y-123979000D01*
X154332000Y-123999000D01*
X154024000Y-123999000D01*
X154024000Y-123979000D01*
X151792000Y-123979000D01*
X151792000Y-123999000D01*
X151484000Y-123999000D01*
X151484000Y-123979000D01*
X151464000Y-123979000D01*
X151464000Y-123671000D01*
X151484000Y-123671000D01*
X151484000Y-122362017D01*
X151792000Y-122362017D01*
X151792000Y-123671000D01*
X154024000Y-123671000D01*
X154024000Y-122362017D01*
X153796951Y-122251189D01*
X153314359Y-122481178D01*
X152924162Y-122902371D01*
X152908000Y-122946034D01*
X152891838Y-122902371D01*
X152501641Y-122481178D01*
X152019049Y-122251189D01*
X151792000Y-122362017D01*
X151484000Y-122362017D01*
X151256951Y-122251189D01*
X150774359Y-122481178D01*
X150699694Y-122561774D01*
X150486475Y-122242670D01*
X149849437Y-121817015D01*
X149098000Y-121667545D01*
X149067860Y-121673540D01*
X139888000Y-112493680D01*
X139888000Y-109960720D01*
X141703500Y-108145220D01*
X155612124Y-122053844D01*
X155612124Y-122053844D01*
G37*
X155612124Y-122053844D02*
X155329525Y-122242670D01*
X155116306Y-122561774D01*
X155041641Y-122481178D01*
X154559049Y-122251189D01*
X154332000Y-122362017D01*
X154332000Y-123671000D01*
X154352000Y-123671000D01*
X154352000Y-123979000D01*
X154332000Y-123979000D01*
X154332000Y-123999000D01*
X154024000Y-123999000D01*
X154024000Y-123979000D01*
X151792000Y-123979000D01*
X151792000Y-123999000D01*
X151484000Y-123999000D01*
X151484000Y-123979000D01*
X151464000Y-123979000D01*
X151464000Y-123671000D01*
X151484000Y-123671000D01*
X151484000Y-122362017D01*
X151792000Y-122362017D01*
X151792000Y-123671000D01*
X154024000Y-123671000D01*
X154024000Y-122362017D01*
X153796951Y-122251189D01*
X153314359Y-122481178D01*
X152924162Y-122902371D01*
X152908000Y-122946034D01*
X152891838Y-122902371D01*
X152501641Y-122481178D01*
X152019049Y-122251189D01*
X151792000Y-122362017D01*
X151484000Y-122362017D01*
X151256951Y-122251189D01*
X150774359Y-122481178D01*
X150699694Y-122561774D01*
X150486475Y-122242670D01*
X149849437Y-121817015D01*
X149098000Y-121667545D01*
X149067860Y-121673540D01*
X139888000Y-112493680D01*
X139888000Y-109960720D01*
X141703500Y-108145220D01*
X155612124Y-122053844D01*
G36*
X137568000Y-75411000D02*
X137588000Y-75411000D01*
X137588000Y-75719000D01*
X137568000Y-75719000D01*
X137568000Y-77027983D01*
X137795049Y-77138811D01*
X138277641Y-76908822D01*
X138352306Y-76828226D01*
X138565525Y-77147330D01*
X139202563Y-77572985D01*
X139954000Y-77722455D01*
X140705437Y-77572985D01*
X141224000Y-77226492D01*
X141742563Y-77572985D01*
X142494000Y-77722455D01*
X143245437Y-77572985D01*
X143764000Y-77226492D01*
X144282563Y-77572985D01*
X145034000Y-77722455D01*
X145785437Y-77572985D01*
X146304000Y-77226492D01*
X146822563Y-77572985D01*
X147574000Y-77722455D01*
X148325437Y-77572985D01*
X148844000Y-77226492D01*
X149362563Y-77572985D01*
X150114000Y-77722455D01*
X150865437Y-77572985D01*
X151384000Y-77226492D01*
X151902563Y-77572985D01*
X152654000Y-77722455D01*
X153186000Y-77616634D01*
X153186000Y-84303000D01*
X153300181Y-84877025D01*
X153625340Y-85363660D01*
X170398199Y-102136519D01*
X170397593Y-102830393D01*
X170754605Y-103694429D01*
X171415094Y-104356071D01*
X172278505Y-104714591D01*
X173213393Y-104715407D01*
X174077429Y-104358395D01*
X174739071Y-103697906D01*
X175097591Y-102834495D01*
X175098407Y-101899607D01*
X174741395Y-101035571D01*
X174080906Y-100373929D01*
X173217495Y-100015409D01*
X172519119Y-100014799D01*
X171205456Y-98701136D01*
X171629653Y-98701136D01*
X171762774Y-98983048D01*
X172456970Y-99236911D01*
X173195473Y-99205793D01*
X173733226Y-98983048D01*
X173866347Y-98701136D01*
X172748000Y-97582789D01*
X171629653Y-98701136D01*
X171205456Y-98701136D01*
X169578290Y-97073970D01*
X170876089Y-97073970D01*
X170907207Y-97812473D01*
X171129952Y-98350226D01*
X171411864Y-98483347D01*
X172530211Y-97365000D01*
X172965789Y-97365000D01*
X174084136Y-98483347D01*
X174366048Y-98350226D01*
X174619911Y-97656030D01*
X174588793Y-96917527D01*
X174366048Y-96379774D01*
X174084136Y-96246653D01*
X172965789Y-97365000D01*
X172530211Y-97365000D01*
X171411864Y-96246653D01*
X171129952Y-96379774D01*
X170876089Y-97073970D01*
X169578290Y-97073970D01*
X168533184Y-96028864D01*
X171629653Y-96028864D01*
X172748000Y-97147211D01*
X173866347Y-96028864D01*
X173733226Y-95746952D01*
X173039030Y-95493089D01*
X172300527Y-95524207D01*
X171762774Y-95746952D01*
X171629653Y-96028864D01*
X168533184Y-96028864D01*
X156186000Y-83681680D01*
X156186000Y-77616634D01*
X156718000Y-77722455D01*
X157469437Y-77572985D01*
X157988000Y-77226492D01*
X158506563Y-77572985D01*
X159258000Y-77722455D01*
X160009437Y-77572985D01*
X160528000Y-77226492D01*
X161046563Y-77572985D01*
X161798000Y-77722455D01*
X162549437Y-77572985D01*
X163068000Y-77226492D01*
X163586563Y-77572985D01*
X164338000Y-77722455D01*
X165089437Y-77572985D01*
X165608000Y-77226492D01*
X166126563Y-77572985D01*
X166878000Y-77722455D01*
X167629437Y-77572985D01*
X168148000Y-77226492D01*
X168666563Y-77572985D01*
X169418000Y-77722455D01*
X170169437Y-77572985D01*
X170688000Y-77226492D01*
X171206563Y-77572985D01*
X171958000Y-77722455D01*
X172709437Y-77572985D01*
X173228000Y-77226492D01*
X173746563Y-77572985D01*
X174498000Y-77722455D01*
X175249437Y-77572985D01*
X175863000Y-77163015D01*
X175863000Y-85979000D01*
X175952442Y-86428653D01*
X176207150Y-86809850D01*
X177070326Y-87673026D01*
X176417740Y-87672457D01*
X175266182Y-88148271D01*
X174384367Y-89028548D01*
X173906544Y-90179273D01*
X173905457Y-91425260D01*
X174381271Y-92576818D01*
X175261548Y-93458633D01*
X176412273Y-93936456D01*
X177658260Y-93937543D01*
X178403000Y-93629823D01*
X178403000Y-115920517D01*
X177663727Y-115613544D01*
X176417740Y-115612457D01*
X175266182Y-116088271D01*
X174384367Y-116968548D01*
X173906544Y-118119273D01*
X173905457Y-119365260D01*
X174381271Y-120516818D01*
X175261548Y-121398633D01*
X176412273Y-121876456D01*
X177324048Y-121877251D01*
X176313700Y-122887600D01*
X176312130Y-122879708D01*
X175886475Y-122242670D01*
X175249437Y-121817015D01*
X174498000Y-121667545D01*
X173746563Y-121817015D01*
X173228000Y-122163508D01*
X172709437Y-121817015D01*
X171958000Y-121667545D01*
X171206563Y-121817015D01*
X170688000Y-122163508D01*
X170169437Y-121817015D01*
X169418000Y-121667545D01*
X168666563Y-121817015D01*
X168148000Y-122163508D01*
X167629437Y-121817015D01*
X166878000Y-121667545D01*
X166126563Y-121817015D01*
X165608000Y-122163508D01*
X165089437Y-121817015D01*
X164338000Y-121667545D01*
X164307861Y-121673540D01*
X155464714Y-112830393D01*
X170397593Y-112830393D01*
X170754605Y-113694429D01*
X171415094Y-114356071D01*
X172278505Y-114714591D01*
X173213393Y-114715407D01*
X174077429Y-114358395D01*
X174739071Y-113697906D01*
X175097591Y-112834495D01*
X175098407Y-111899607D01*
X174741395Y-111035571D01*
X174080906Y-110373929D01*
X173217495Y-110015409D01*
X172282607Y-110014593D01*
X171418571Y-110371605D01*
X170756929Y-111032094D01*
X170398409Y-111895505D01*
X170397593Y-112830393D01*
X155464714Y-112830393D01*
X150464714Y-107830393D01*
X170397593Y-107830393D01*
X170754605Y-108694429D01*
X171415094Y-109356071D01*
X172278505Y-109714591D01*
X173213393Y-109715407D01*
X174077429Y-109358395D01*
X174739071Y-108697906D01*
X175097591Y-107834495D01*
X175098407Y-106899607D01*
X174741395Y-106035571D01*
X174080906Y-105373929D01*
X173217495Y-105015409D01*
X172282607Y-105014593D01*
X171418571Y-105371605D01*
X170756929Y-106032094D01*
X170398409Y-106895505D01*
X170397593Y-107830393D01*
X150464714Y-107830393D01*
X123188660Y-80554340D01*
X122702025Y-80229181D01*
X122128000Y-80115000D01*
X120071121Y-80115000D01*
X119580906Y-79623929D01*
X118717495Y-79265409D01*
X117843200Y-79264646D01*
X117843200Y-79141120D01*
X118019519Y-78964801D01*
X118713393Y-78965407D01*
X119577429Y-78608395D01*
X120239071Y-77947906D01*
X120509066Y-77297686D01*
X122554640Y-79343260D01*
X123041275Y-79668419D01*
X123615300Y-79782600D01*
X132156400Y-79782600D01*
X132730425Y-79668419D01*
X133217060Y-79343260D01*
X134843860Y-77716460D01*
X134874000Y-77722455D01*
X135625437Y-77572985D01*
X136262475Y-77147330D01*
X136475694Y-76828226D01*
X136550359Y-76908822D01*
X137032951Y-77138811D01*
X137260000Y-77027983D01*
X137260000Y-75719000D01*
X137240000Y-75719000D01*
X137240000Y-75411000D01*
X137260000Y-75411000D01*
X137260000Y-75391000D01*
X137568000Y-75391000D01*
X137568000Y-75411000D01*
X137568000Y-75411000D01*
G37*
X137568000Y-75411000D02*
X137588000Y-75411000D01*
X137588000Y-75719000D01*
X137568000Y-75719000D01*
X137568000Y-77027983D01*
X137795049Y-77138811D01*
X138277641Y-76908822D01*
X138352306Y-76828226D01*
X138565525Y-77147330D01*
X139202563Y-77572985D01*
X139954000Y-77722455D01*
X140705437Y-77572985D01*
X141224000Y-77226492D01*
X141742563Y-77572985D01*
X142494000Y-77722455D01*
X143245437Y-77572985D01*
X143764000Y-77226492D01*
X144282563Y-77572985D01*
X145034000Y-77722455D01*
X145785437Y-77572985D01*
X146304000Y-77226492D01*
X146822563Y-77572985D01*
X147574000Y-77722455D01*
X148325437Y-77572985D01*
X148844000Y-77226492D01*
X149362563Y-77572985D01*
X150114000Y-77722455D01*
X150865437Y-77572985D01*
X151384000Y-77226492D01*
X151902563Y-77572985D01*
X152654000Y-77722455D01*
X153186000Y-77616634D01*
X153186000Y-84303000D01*
X153300181Y-84877025D01*
X153625340Y-85363660D01*
X170398199Y-102136519D01*
X170397593Y-102830393D01*
X170754605Y-103694429D01*
X171415094Y-104356071D01*
X172278505Y-104714591D01*
X173213393Y-104715407D01*
X174077429Y-104358395D01*
X174739071Y-103697906D01*
X175097591Y-102834495D01*
X175098407Y-101899607D01*
X174741395Y-101035571D01*
X174080906Y-100373929D01*
X173217495Y-100015409D01*
X172519119Y-100014799D01*
X171205456Y-98701136D01*
X171629653Y-98701136D01*
X171762774Y-98983048D01*
X172456970Y-99236911D01*
X173195473Y-99205793D01*
X173733226Y-98983048D01*
X173866347Y-98701136D01*
X172748000Y-97582789D01*
X171629653Y-98701136D01*
X171205456Y-98701136D01*
X169578290Y-97073970D01*
X170876089Y-97073970D01*
X170907207Y-97812473D01*
X171129952Y-98350226D01*
X171411864Y-98483347D01*
X172530211Y-97365000D01*
X172965789Y-97365000D01*
X174084136Y-98483347D01*
X174366048Y-98350226D01*
X174619911Y-97656030D01*
X174588793Y-96917527D01*
X174366048Y-96379774D01*
X174084136Y-96246653D01*
X172965789Y-97365000D01*
X172530211Y-97365000D01*
X171411864Y-96246653D01*
X171129952Y-96379774D01*
X170876089Y-97073970D01*
X169578290Y-97073970D01*
X168533184Y-96028864D01*
X171629653Y-96028864D01*
X172748000Y-97147211D01*
X173866347Y-96028864D01*
X173733226Y-95746952D01*
X173039030Y-95493089D01*
X172300527Y-95524207D01*
X171762774Y-95746952D01*
X171629653Y-96028864D01*
X168533184Y-96028864D01*
X156186000Y-83681680D01*
X156186000Y-77616634D01*
X156718000Y-77722455D01*
X157469437Y-77572985D01*
X157988000Y-77226492D01*
X158506563Y-77572985D01*
X159258000Y-77722455D01*
X160009437Y-77572985D01*
X160528000Y-77226492D01*
X161046563Y-77572985D01*
X161798000Y-77722455D01*
X162549437Y-77572985D01*
X163068000Y-77226492D01*
X163586563Y-77572985D01*
X164338000Y-77722455D01*
X165089437Y-77572985D01*
X165608000Y-77226492D01*
X166126563Y-77572985D01*
X166878000Y-77722455D01*
X167629437Y-77572985D01*
X168148000Y-77226492D01*
X168666563Y-77572985D01*
X169418000Y-77722455D01*
X170169437Y-77572985D01*
X170688000Y-77226492D01*
X171206563Y-77572985D01*
X171958000Y-77722455D01*
X172709437Y-77572985D01*
X173228000Y-77226492D01*
X173746563Y-77572985D01*
X174498000Y-77722455D01*
X175249437Y-77572985D01*
X175863000Y-77163015D01*
X175863000Y-85979000D01*
X175952442Y-86428653D01*
X176207150Y-86809850D01*
X177070326Y-87673026D01*
X176417740Y-87672457D01*
X175266182Y-88148271D01*
X174384367Y-89028548D01*
X173906544Y-90179273D01*
X173905457Y-91425260D01*
X174381271Y-92576818D01*
X175261548Y-93458633D01*
X176412273Y-93936456D01*
X177658260Y-93937543D01*
X178403000Y-93629823D01*
X178403000Y-115920517D01*
X177663727Y-115613544D01*
X176417740Y-115612457D01*
X175266182Y-116088271D01*
X174384367Y-116968548D01*
X173906544Y-118119273D01*
X173905457Y-119365260D01*
X174381271Y-120516818D01*
X175261548Y-121398633D01*
X176412273Y-121876456D01*
X177324048Y-121877251D01*
X176313700Y-122887600D01*
X176312130Y-122879708D01*
X175886475Y-122242670D01*
X175249437Y-121817015D01*
X174498000Y-121667545D01*
X173746563Y-121817015D01*
X173228000Y-122163508D01*
X172709437Y-121817015D01*
X171958000Y-121667545D01*
X171206563Y-121817015D01*
X170688000Y-122163508D01*
X170169437Y-121817015D01*
X169418000Y-121667545D01*
X168666563Y-121817015D01*
X168148000Y-122163508D01*
X167629437Y-121817015D01*
X166878000Y-121667545D01*
X166126563Y-121817015D01*
X165608000Y-122163508D01*
X165089437Y-121817015D01*
X164338000Y-121667545D01*
X164307861Y-121673540D01*
X155464714Y-112830393D01*
X170397593Y-112830393D01*
X170754605Y-113694429D01*
X171415094Y-114356071D01*
X172278505Y-114714591D01*
X173213393Y-114715407D01*
X174077429Y-114358395D01*
X174739071Y-113697906D01*
X175097591Y-112834495D01*
X175098407Y-111899607D01*
X174741395Y-111035571D01*
X174080906Y-110373929D01*
X173217495Y-110015409D01*
X172282607Y-110014593D01*
X171418571Y-110371605D01*
X170756929Y-111032094D01*
X170398409Y-111895505D01*
X170397593Y-112830393D01*
X155464714Y-112830393D01*
X150464714Y-107830393D01*
X170397593Y-107830393D01*
X170754605Y-108694429D01*
X171415094Y-109356071D01*
X172278505Y-109714591D01*
X173213393Y-109715407D01*
X174077429Y-109358395D01*
X174739071Y-108697906D01*
X175097591Y-107834495D01*
X175098407Y-106899607D01*
X174741395Y-106035571D01*
X174080906Y-105373929D01*
X173217495Y-105015409D01*
X172282607Y-105014593D01*
X171418571Y-105371605D01*
X170756929Y-106032094D01*
X170398409Y-106895505D01*
X170397593Y-107830393D01*
X150464714Y-107830393D01*
X123188660Y-80554340D01*
X122702025Y-80229181D01*
X122128000Y-80115000D01*
X120071121Y-80115000D01*
X119580906Y-79623929D01*
X118717495Y-79265409D01*
X117843200Y-79264646D01*
X117843200Y-79141120D01*
X118019519Y-78964801D01*
X118713393Y-78965407D01*
X119577429Y-78608395D01*
X120239071Y-77947906D01*
X120509066Y-77297686D01*
X122554640Y-79343260D01*
X123041275Y-79668419D01*
X123615300Y-79782600D01*
X132156400Y-79782600D01*
X132730425Y-79668419D01*
X133217060Y-79343260D01*
X134843860Y-77716460D01*
X134874000Y-77722455D01*
X135625437Y-77572985D01*
X136262475Y-77147330D01*
X136475694Y-76828226D01*
X136550359Y-76908822D01*
X137032951Y-77138811D01*
X137260000Y-77027983D01*
X137260000Y-75719000D01*
X137240000Y-75719000D01*
X137240000Y-75411000D01*
X137260000Y-75411000D01*
X137260000Y-75391000D01*
X137568000Y-75391000D01*
X137568000Y-75411000D01*
M02*
