G04 #@! TF.FileFunction,Legend,Top*
%FSLAX46Y46*%
G04 Gerber Fmt 4.6, Leading zero omitted, Abs format (unit mm)*
G04 Created by KiCad (PCBNEW 4.0.4-stable) date 04/08/17 18:27:17*
%MOMM*%
%LPD*%
G01*
G04 APERTURE LIST*
%ADD10C,0.100000*%
%ADD11C,0.200000*%
%ADD12C,0.150000*%
%ADD13C,0.381000*%
%ADD14C,0.300000*%
%ADD15C,0.250000*%
G04 APERTURE END LIST*
D10*
D11*
X174309905Y-81424524D02*
X174309905Y-81348333D01*
X174348000Y-81272143D01*
X174386095Y-81234048D01*
X174462286Y-81195952D01*
X174614667Y-81157857D01*
X174805143Y-81157857D01*
X174957524Y-81195952D01*
X175033714Y-81234048D01*
X175071810Y-81272143D01*
X175109905Y-81348333D01*
X175109905Y-81424524D01*
X175071810Y-81500714D01*
X175033714Y-81538810D01*
X174957524Y-81576905D01*
X174805143Y-81615000D01*
X174614667Y-81615000D01*
X174462286Y-81576905D01*
X174386095Y-81538810D01*
X174348000Y-81500714D01*
X174309905Y-81424524D01*
X174805143Y-80815000D02*
X174805143Y-80205476D01*
X174576571Y-79824524D02*
X174805143Y-79215000D01*
X175033714Y-79824524D01*
X175109905Y-78376905D02*
X174728952Y-78643572D01*
X175109905Y-78834048D02*
X174309905Y-78834048D01*
X174309905Y-78529286D01*
X174348000Y-78453095D01*
X174386095Y-78415000D01*
X174462286Y-78376905D01*
X174576571Y-78376905D01*
X174652762Y-78415000D01*
X174690857Y-78453095D01*
X174728952Y-78529286D01*
X174728952Y-78834048D01*
X174309905Y-78110238D02*
X175109905Y-77576905D01*
X174309905Y-77576905D02*
X175109905Y-78110238D01*
X172609905Y-80812619D02*
X172609905Y-81269762D01*
X172609905Y-81041191D02*
X171809905Y-81041191D01*
X171924190Y-81117381D01*
X172000381Y-81193572D01*
X172038476Y-81269762D01*
X172076571Y-79860238D02*
X172305143Y-80469762D01*
X172533714Y-79860238D01*
X172305143Y-79479286D02*
X172305143Y-78869762D01*
X171809905Y-78603096D02*
X171809905Y-78145953D01*
X172609905Y-78374524D02*
X171809905Y-78374524D01*
X171809905Y-77955476D02*
X172609905Y-77422143D01*
X171809905Y-77422143D02*
X172609905Y-77955476D01*
X169136095Y-77843571D02*
X169098000Y-77805476D01*
X169059905Y-77729285D01*
X169059905Y-77538809D01*
X169098000Y-77462619D01*
X169136095Y-77424523D01*
X169212286Y-77386428D01*
X169288476Y-77386428D01*
X169402762Y-77424523D01*
X169859905Y-77881666D01*
X169859905Y-77386428D01*
X166559905Y-77881666D02*
X166559905Y-77386428D01*
X166864667Y-77653095D01*
X166864667Y-77538809D01*
X166902762Y-77462619D01*
X166940857Y-77424523D01*
X167017048Y-77386428D01*
X167207524Y-77386428D01*
X167283714Y-77424523D01*
X167321810Y-77462619D01*
X167359905Y-77538809D01*
X167359905Y-77767381D01*
X167321810Y-77843571D01*
X167283714Y-77881666D01*
X164326571Y-77462619D02*
X164859905Y-77462619D01*
X164021810Y-77653095D02*
X164593238Y-77843571D01*
X164593238Y-77348333D01*
X161309905Y-77424523D02*
X161309905Y-77805476D01*
X161690857Y-77843571D01*
X161652762Y-77805476D01*
X161614667Y-77729285D01*
X161614667Y-77538809D01*
X161652762Y-77462619D01*
X161690857Y-77424523D01*
X161767048Y-77386428D01*
X161957524Y-77386428D01*
X162033714Y-77424523D01*
X162071810Y-77462619D01*
X162109905Y-77538809D01*
X162109905Y-77729285D01*
X162071810Y-77805476D01*
X162033714Y-77843571D01*
X158809905Y-77462619D02*
X158809905Y-77615000D01*
X158848000Y-77691190D01*
X158886095Y-77729285D01*
X159000381Y-77805476D01*
X159152762Y-77843571D01*
X159457524Y-77843571D01*
X159533714Y-77805476D01*
X159571810Y-77767381D01*
X159609905Y-77691190D01*
X159609905Y-77538809D01*
X159571810Y-77462619D01*
X159533714Y-77424523D01*
X159457524Y-77386428D01*
X159267048Y-77386428D01*
X159190857Y-77424523D01*
X159152762Y-77462619D01*
X159114667Y-77538809D01*
X159114667Y-77691190D01*
X159152762Y-77767381D01*
X159190857Y-77805476D01*
X159267048Y-77843571D01*
X156309905Y-77881666D02*
X156309905Y-77348333D01*
X157109905Y-77691190D01*
X152652762Y-77691190D02*
X152614667Y-77767381D01*
X152576571Y-77805476D01*
X152500381Y-77843571D01*
X152462286Y-77843571D01*
X152386095Y-77805476D01*
X152348000Y-77767381D01*
X152309905Y-77691190D01*
X152309905Y-77538809D01*
X152348000Y-77462619D01*
X152386095Y-77424523D01*
X152462286Y-77386428D01*
X152500381Y-77386428D01*
X152576571Y-77424523D01*
X152614667Y-77462619D01*
X152652762Y-77538809D01*
X152652762Y-77691190D01*
X152690857Y-77767381D01*
X152728952Y-77805476D01*
X152805143Y-77843571D01*
X152957524Y-77843571D01*
X153033714Y-77805476D01*
X153071810Y-77767381D01*
X153109905Y-77691190D01*
X153109905Y-77538809D01*
X153071810Y-77462619D01*
X153033714Y-77424523D01*
X152957524Y-77386428D01*
X152805143Y-77386428D01*
X152728952Y-77424523D01*
X152690857Y-77462619D01*
X152652762Y-77538809D01*
X150609905Y-77767381D02*
X150609905Y-77615000D01*
X150571810Y-77538809D01*
X150533714Y-77500714D01*
X150419429Y-77424523D01*
X150267048Y-77386428D01*
X149962286Y-77386428D01*
X149886095Y-77424523D01*
X149848000Y-77462619D01*
X149809905Y-77538809D01*
X149809905Y-77691190D01*
X149848000Y-77767381D01*
X149886095Y-77805476D01*
X149962286Y-77843571D01*
X150152762Y-77843571D01*
X150228952Y-77805476D01*
X150267048Y-77767381D01*
X150305143Y-77691190D01*
X150305143Y-77538809D01*
X150267048Y-77462619D01*
X150228952Y-77424523D01*
X150152762Y-77386428D01*
X148109905Y-78267381D02*
X148109905Y-78724524D01*
X148109905Y-78495953D02*
X147309905Y-78495953D01*
X147424190Y-78572143D01*
X147500381Y-78648334D01*
X147538476Y-78724524D01*
X147309905Y-77772143D02*
X147309905Y-77695952D01*
X147348000Y-77619762D01*
X147386095Y-77581667D01*
X147462286Y-77543571D01*
X147614667Y-77505476D01*
X147805143Y-77505476D01*
X147957524Y-77543571D01*
X148033714Y-77581667D01*
X148071810Y-77619762D01*
X148109905Y-77695952D01*
X148109905Y-77772143D01*
X148071810Y-77848333D01*
X148033714Y-77886429D01*
X147957524Y-77924524D01*
X147805143Y-77962619D01*
X147614667Y-77962619D01*
X147462286Y-77924524D01*
X147386095Y-77886429D01*
X147348000Y-77848333D01*
X147309905Y-77772143D01*
X145609905Y-78267381D02*
X145609905Y-78724524D01*
X145609905Y-78495953D02*
X144809905Y-78495953D01*
X144924190Y-78572143D01*
X145000381Y-78648334D01*
X145038476Y-78724524D01*
X145609905Y-77505476D02*
X145609905Y-77962619D01*
X145609905Y-77734048D02*
X144809905Y-77734048D01*
X144924190Y-77810238D01*
X145000381Y-77886429D01*
X145038476Y-77962619D01*
X142859905Y-78267381D02*
X142859905Y-78724524D01*
X142859905Y-78495953D02*
X142059905Y-78495953D01*
X142174190Y-78572143D01*
X142250381Y-78648334D01*
X142288476Y-78724524D01*
X142136095Y-77962619D02*
X142098000Y-77924524D01*
X142059905Y-77848333D01*
X142059905Y-77657857D01*
X142098000Y-77581667D01*
X142136095Y-77543571D01*
X142212286Y-77505476D01*
X142288476Y-77505476D01*
X142402762Y-77543571D01*
X142859905Y-78000714D01*
X142859905Y-77505476D01*
X140359905Y-78267381D02*
X140359905Y-78724524D01*
X140359905Y-78495953D02*
X139559905Y-78495953D01*
X139674190Y-78572143D01*
X139750381Y-78648334D01*
X139788476Y-78724524D01*
X139559905Y-78000714D02*
X139559905Y-77505476D01*
X139864667Y-77772143D01*
X139864667Y-77657857D01*
X139902762Y-77581667D01*
X139940857Y-77543571D01*
X140017048Y-77505476D01*
X140207524Y-77505476D01*
X140283714Y-77543571D01*
X140321810Y-77581667D01*
X140359905Y-77657857D01*
X140359905Y-77886429D01*
X140321810Y-77962619D01*
X140283714Y-78000714D01*
X137098000Y-79224523D02*
X137059905Y-79300714D01*
X137059905Y-79414999D01*
X137098000Y-79529285D01*
X137174190Y-79605476D01*
X137250381Y-79643571D01*
X137402762Y-79681666D01*
X137517048Y-79681666D01*
X137669429Y-79643571D01*
X137745619Y-79605476D01*
X137821810Y-79529285D01*
X137859905Y-79414999D01*
X137859905Y-79338809D01*
X137821810Y-79224523D01*
X137783714Y-79186428D01*
X137517048Y-79186428D01*
X137517048Y-79338809D01*
X137859905Y-78843571D02*
X137059905Y-78843571D01*
X137859905Y-78386428D01*
X137059905Y-78386428D01*
X137859905Y-78005476D02*
X137059905Y-78005476D01*
X137059905Y-77815000D01*
X137098000Y-77700714D01*
X137174190Y-77624523D01*
X137250381Y-77586428D01*
X137402762Y-77548333D01*
X137517048Y-77548333D01*
X137669429Y-77586428D01*
X137745619Y-77624523D01*
X137821810Y-77700714D01*
X137859905Y-77815000D01*
X137859905Y-78005476D01*
X135131333Y-80160238D02*
X135131333Y-79779286D01*
X135359905Y-80236429D02*
X134559905Y-79969762D01*
X135359905Y-79703095D01*
X135359905Y-78979286D02*
X134978952Y-79245953D01*
X135359905Y-79436429D02*
X134559905Y-79436429D01*
X134559905Y-79131667D01*
X134598000Y-79055476D01*
X134636095Y-79017381D01*
X134712286Y-78979286D01*
X134826571Y-78979286D01*
X134902762Y-79017381D01*
X134940857Y-79055476D01*
X134978952Y-79131667D01*
X134978952Y-79436429D01*
X134940857Y-78636429D02*
X134940857Y-78369762D01*
X135359905Y-78255476D02*
X135359905Y-78636429D01*
X134559905Y-78636429D01*
X134559905Y-78255476D01*
X134940857Y-77645952D02*
X134940857Y-77912619D01*
X135359905Y-77912619D02*
X134559905Y-77912619D01*
X134559905Y-77531666D01*
X132821810Y-79586428D02*
X132859905Y-79472142D01*
X132859905Y-79281666D01*
X132821810Y-79205476D01*
X132783714Y-79167380D01*
X132707524Y-79129285D01*
X132631333Y-79129285D01*
X132555143Y-79167380D01*
X132517048Y-79205476D01*
X132478952Y-79281666D01*
X132440857Y-79434047D01*
X132402762Y-79510238D01*
X132364667Y-79548333D01*
X132288476Y-79586428D01*
X132212286Y-79586428D01*
X132136095Y-79548333D01*
X132098000Y-79510238D01*
X132059905Y-79434047D01*
X132059905Y-79243571D01*
X132098000Y-79129285D01*
X132859905Y-78786428D02*
X132059905Y-78786428D01*
X132059905Y-78595952D01*
X132098000Y-78481666D01*
X132174190Y-78405475D01*
X132250381Y-78367380D01*
X132402762Y-78329285D01*
X132517048Y-78329285D01*
X132669429Y-78367380D01*
X132745619Y-78405475D01*
X132821810Y-78481666D01*
X132859905Y-78595952D01*
X132859905Y-78786428D01*
X132631333Y-78024523D02*
X132631333Y-77643571D01*
X132859905Y-78100714D02*
X132059905Y-77834047D01*
X132859905Y-77567380D01*
X130071810Y-79567381D02*
X130109905Y-79453095D01*
X130109905Y-79262619D01*
X130071810Y-79186429D01*
X130033714Y-79148333D01*
X129957524Y-79110238D01*
X129881333Y-79110238D01*
X129805143Y-79148333D01*
X129767048Y-79186429D01*
X129728952Y-79262619D01*
X129690857Y-79415000D01*
X129652762Y-79491191D01*
X129614667Y-79529286D01*
X129538476Y-79567381D01*
X129462286Y-79567381D01*
X129386095Y-79529286D01*
X129348000Y-79491191D01*
X129309905Y-79415000D01*
X129309905Y-79224524D01*
X129348000Y-79110238D01*
X130033714Y-78310238D02*
X130071810Y-78348333D01*
X130109905Y-78462619D01*
X130109905Y-78538809D01*
X130071810Y-78653095D01*
X129995619Y-78729286D01*
X129919429Y-78767381D01*
X129767048Y-78805476D01*
X129652762Y-78805476D01*
X129500381Y-78767381D01*
X129424190Y-78729286D01*
X129348000Y-78653095D01*
X129309905Y-78538809D01*
X129309905Y-78462619D01*
X129348000Y-78348333D01*
X129386095Y-78310238D01*
X130109905Y-77586428D02*
X130109905Y-77967381D01*
X129309905Y-77967381D01*
X174381333Y-121686428D02*
X174381333Y-121305476D01*
X174609905Y-121762619D02*
X173809905Y-121495952D01*
X174609905Y-121229285D01*
X173809905Y-120581666D02*
X173809905Y-120962619D01*
X174190857Y-121000714D01*
X174152762Y-120962619D01*
X174114667Y-120886428D01*
X174114667Y-120695952D01*
X174152762Y-120619762D01*
X174190857Y-120581666D01*
X174267048Y-120543571D01*
X174457524Y-120543571D01*
X174533714Y-120581666D01*
X174571810Y-120619762D01*
X174609905Y-120695952D01*
X174609905Y-120886428D01*
X174571810Y-120962619D01*
X174533714Y-121000714D01*
X171881333Y-121686428D02*
X171881333Y-121305476D01*
X172109905Y-121762619D02*
X171309905Y-121495952D01*
X172109905Y-121229285D01*
X171576571Y-120619762D02*
X172109905Y-120619762D01*
X171271810Y-120810238D02*
X171843238Y-121000714D01*
X171843238Y-120505476D01*
X169381333Y-121686428D02*
X169381333Y-121305476D01*
X169609905Y-121762619D02*
X168809905Y-121495952D01*
X169609905Y-121229285D01*
X168809905Y-121038809D02*
X168809905Y-120543571D01*
X169114667Y-120810238D01*
X169114667Y-120695952D01*
X169152762Y-120619762D01*
X169190857Y-120581666D01*
X169267048Y-120543571D01*
X169457524Y-120543571D01*
X169533714Y-120581666D01*
X169571810Y-120619762D01*
X169609905Y-120695952D01*
X169609905Y-120924524D01*
X169571810Y-121000714D01*
X169533714Y-121038809D01*
X166881333Y-121686428D02*
X166881333Y-121305476D01*
X167109905Y-121762619D02*
X166309905Y-121495952D01*
X167109905Y-121229285D01*
X166386095Y-121000714D02*
X166348000Y-120962619D01*
X166309905Y-120886428D01*
X166309905Y-120695952D01*
X166348000Y-120619762D01*
X166386095Y-120581666D01*
X166462286Y-120543571D01*
X166538476Y-120543571D01*
X166652762Y-120581666D01*
X167109905Y-121038809D01*
X167109905Y-120543571D01*
X164381333Y-121686428D02*
X164381333Y-121305476D01*
X164609905Y-121762619D02*
X163809905Y-121495952D01*
X164609905Y-121229285D01*
X164609905Y-120543571D02*
X164609905Y-121000714D01*
X164609905Y-120772143D02*
X163809905Y-120772143D01*
X163924190Y-120848333D01*
X164000381Y-120924524D01*
X164038476Y-121000714D01*
X161881333Y-121686428D02*
X161881333Y-121305476D01*
X162109905Y-121762619D02*
X161309905Y-121495952D01*
X162109905Y-121229285D01*
X161309905Y-120810238D02*
X161309905Y-120734047D01*
X161348000Y-120657857D01*
X161386095Y-120619762D01*
X161462286Y-120581666D01*
X161614667Y-120543571D01*
X161805143Y-120543571D01*
X161957524Y-120581666D01*
X162033714Y-120619762D01*
X162071810Y-120657857D01*
X162109905Y-120734047D01*
X162109905Y-120810238D01*
X162071810Y-120886428D01*
X162033714Y-120924524D01*
X161957524Y-120962619D01*
X161805143Y-121000714D01*
X161614667Y-121000714D01*
X161462286Y-120962619D01*
X161386095Y-120924524D01*
X161348000Y-120886428D01*
X161309905Y-120810238D01*
X156309905Y-121934048D02*
X157109905Y-121667381D01*
X156309905Y-121400714D01*
X157109905Y-121134048D02*
X156576571Y-121134048D01*
X156309905Y-121134048D02*
X156348000Y-121172143D01*
X156386095Y-121134048D01*
X156348000Y-121095953D01*
X156309905Y-121134048D01*
X156386095Y-121134048D01*
X156576571Y-120753096D02*
X157109905Y-120753096D01*
X156652762Y-120753096D02*
X156614667Y-120715001D01*
X156576571Y-120638810D01*
X156576571Y-120524524D01*
X156614667Y-120448334D01*
X156690857Y-120410239D01*
X157109905Y-120410239D01*
X153598000Y-121474523D02*
X153559905Y-121550714D01*
X153559905Y-121664999D01*
X153598000Y-121779285D01*
X153674190Y-121855476D01*
X153750381Y-121893571D01*
X153902762Y-121931666D01*
X154017048Y-121931666D01*
X154169429Y-121893571D01*
X154245619Y-121855476D01*
X154321810Y-121779285D01*
X154359905Y-121664999D01*
X154359905Y-121588809D01*
X154321810Y-121474523D01*
X154283714Y-121436428D01*
X154017048Y-121436428D01*
X154017048Y-121588809D01*
X154359905Y-121093571D02*
X153559905Y-121093571D01*
X154359905Y-120636428D01*
X153559905Y-120636428D01*
X154359905Y-120255476D02*
X153559905Y-120255476D01*
X153559905Y-120065000D01*
X153598000Y-119950714D01*
X153674190Y-119874523D01*
X153750381Y-119836428D01*
X153902762Y-119798333D01*
X154017048Y-119798333D01*
X154169429Y-119836428D01*
X154245619Y-119874523D01*
X154321810Y-119950714D01*
X154359905Y-120065000D01*
X154359905Y-120255476D01*
X151098000Y-121474523D02*
X151059905Y-121550714D01*
X151059905Y-121664999D01*
X151098000Y-121779285D01*
X151174190Y-121855476D01*
X151250381Y-121893571D01*
X151402762Y-121931666D01*
X151517048Y-121931666D01*
X151669429Y-121893571D01*
X151745619Y-121855476D01*
X151821810Y-121779285D01*
X151859905Y-121664999D01*
X151859905Y-121588809D01*
X151821810Y-121474523D01*
X151783714Y-121436428D01*
X151517048Y-121436428D01*
X151517048Y-121588809D01*
X151859905Y-121093571D02*
X151059905Y-121093571D01*
X151859905Y-120636428D01*
X151059905Y-120636428D01*
X151859905Y-120255476D02*
X151059905Y-120255476D01*
X151059905Y-120065000D01*
X151098000Y-119950714D01*
X151174190Y-119874523D01*
X151250381Y-119836428D01*
X151402762Y-119798333D01*
X151517048Y-119798333D01*
X151669429Y-119836428D01*
X151745619Y-119874523D01*
X151821810Y-119950714D01*
X151859905Y-120065000D01*
X151859905Y-120255476D01*
X149055143Y-121893571D02*
X149055143Y-121284047D01*
X149359905Y-121588809D02*
X148750381Y-121588809D01*
X148559905Y-120522142D02*
X148559905Y-120903095D01*
X148940857Y-120941190D01*
X148902762Y-120903095D01*
X148864667Y-120826904D01*
X148864667Y-120636428D01*
X148902762Y-120560238D01*
X148940857Y-120522142D01*
X149017048Y-120484047D01*
X149207524Y-120484047D01*
X149283714Y-120522142D01*
X149321810Y-120560238D01*
X149359905Y-120636428D01*
X149359905Y-120826904D01*
X149321810Y-120903095D01*
X149283714Y-120941190D01*
X148559905Y-120255476D02*
X149359905Y-119988809D01*
X148559905Y-119722142D01*
X146059905Y-121795952D02*
X146059905Y-121300714D01*
X146364667Y-121567381D01*
X146364667Y-121453095D01*
X146402762Y-121376905D01*
X146440857Y-121338809D01*
X146517048Y-121300714D01*
X146707524Y-121300714D01*
X146783714Y-121338809D01*
X146821810Y-121376905D01*
X146859905Y-121453095D01*
X146859905Y-121681667D01*
X146821810Y-121757857D01*
X146783714Y-121795952D01*
X146783714Y-120957857D02*
X146821810Y-120919762D01*
X146859905Y-120957857D01*
X146821810Y-120995952D01*
X146783714Y-120957857D01*
X146859905Y-120957857D01*
X146059905Y-120653095D02*
X146059905Y-120157857D01*
X146364667Y-120424524D01*
X146364667Y-120310238D01*
X146402762Y-120234048D01*
X146440857Y-120195952D01*
X146517048Y-120157857D01*
X146707524Y-120157857D01*
X146783714Y-120195952D01*
X146821810Y-120234048D01*
X146859905Y-120310238D01*
X146859905Y-120538810D01*
X146821810Y-120615000D01*
X146783714Y-120653095D01*
X146059905Y-119929286D02*
X146859905Y-119662619D01*
X146059905Y-119395952D01*
X144359905Y-121526905D02*
X143978952Y-121793572D01*
X144359905Y-121984048D02*
X143559905Y-121984048D01*
X143559905Y-121679286D01*
X143598000Y-121603095D01*
X143636095Y-121565000D01*
X143712286Y-121526905D01*
X143826571Y-121526905D01*
X143902762Y-121565000D01*
X143940857Y-121603095D01*
X143978952Y-121679286D01*
X143978952Y-121984048D01*
X143940857Y-121184048D02*
X143940857Y-120917381D01*
X144359905Y-120803095D02*
X144359905Y-121184048D01*
X143559905Y-121184048D01*
X143559905Y-120803095D01*
X144321810Y-120498333D02*
X144359905Y-120384047D01*
X144359905Y-120193571D01*
X144321810Y-120117381D01*
X144283714Y-120079285D01*
X144207524Y-120041190D01*
X144131333Y-120041190D01*
X144055143Y-120079285D01*
X144017048Y-120117381D01*
X143978952Y-120193571D01*
X143940857Y-120345952D01*
X143902762Y-120422143D01*
X143864667Y-120460238D01*
X143788476Y-120498333D01*
X143712286Y-120498333D01*
X143636095Y-120460238D01*
X143598000Y-120422143D01*
X143559905Y-120345952D01*
X143559905Y-120155476D01*
X143598000Y-120041190D01*
X143940857Y-119698333D02*
X143940857Y-119431666D01*
X144359905Y-119317380D02*
X144359905Y-119698333D01*
X143559905Y-119698333D01*
X143559905Y-119317380D01*
X143559905Y-119088809D02*
X143559905Y-118631666D01*
X144359905Y-118860237D02*
X143559905Y-118860237D01*
X141609905Y-121888809D02*
X140809905Y-121888809D01*
X140809905Y-121355476D02*
X140809905Y-121203095D01*
X140848000Y-121126904D01*
X140924190Y-121050714D01*
X141076571Y-121012619D01*
X141343238Y-121012619D01*
X141495619Y-121050714D01*
X141571810Y-121126904D01*
X141609905Y-121203095D01*
X141609905Y-121355476D01*
X141571810Y-121431666D01*
X141495619Y-121507857D01*
X141343238Y-121545952D01*
X141076571Y-121545952D01*
X140924190Y-121507857D01*
X140848000Y-121431666D01*
X140809905Y-121355476D01*
X141609905Y-120212619D02*
X141228952Y-120479286D01*
X141609905Y-120669762D02*
X140809905Y-120669762D01*
X140809905Y-120365000D01*
X140848000Y-120288809D01*
X140886095Y-120250714D01*
X140962286Y-120212619D01*
X141076571Y-120212619D01*
X141152762Y-120250714D01*
X141190857Y-120288809D01*
X141228952Y-120365000D01*
X141228952Y-120669762D01*
X141190857Y-119869762D02*
X141190857Y-119603095D01*
X141609905Y-119488809D02*
X141609905Y-119869762D01*
X140809905Y-119869762D01*
X140809905Y-119488809D01*
X141190857Y-118879285D02*
X141190857Y-119145952D01*
X141609905Y-119145952D02*
X140809905Y-119145952D01*
X140809905Y-118764999D01*
X112898000Y-117505477D02*
X112936095Y-117429286D01*
X112936095Y-117315001D01*
X112898000Y-117200715D01*
X112821810Y-117124524D01*
X112745619Y-117086429D01*
X112593238Y-117048334D01*
X112478952Y-117048334D01*
X112326571Y-117086429D01*
X112250381Y-117124524D01*
X112174190Y-117200715D01*
X112136095Y-117315001D01*
X112136095Y-117391191D01*
X112174190Y-117505477D01*
X112212286Y-117543572D01*
X112478952Y-117543572D01*
X112478952Y-117391191D01*
X112136095Y-117886429D02*
X112936095Y-117886429D01*
X112136095Y-118343572D01*
X112936095Y-118343572D01*
X112136095Y-118724524D02*
X112936095Y-118724524D01*
X112936095Y-118915000D01*
X112898000Y-119029286D01*
X112821810Y-119105477D01*
X112745619Y-119143572D01*
X112593238Y-119181667D01*
X112478952Y-119181667D01*
X112326571Y-119143572D01*
X112250381Y-119105477D01*
X112174190Y-119029286D01*
X112136095Y-118915000D01*
X112136095Y-118724524D01*
X112440857Y-112086429D02*
X112440857Y-112695953D01*
X112136095Y-112391191D02*
X112745619Y-112391191D01*
X112936095Y-113457858D02*
X112936095Y-113076905D01*
X112555143Y-113038810D01*
X112593238Y-113076905D01*
X112631333Y-113153096D01*
X112631333Y-113343572D01*
X112593238Y-113419762D01*
X112555143Y-113457858D01*
X112478952Y-113495953D01*
X112288476Y-113495953D01*
X112212286Y-113457858D01*
X112174190Y-113419762D01*
X112136095Y-113343572D01*
X112136095Y-113153096D01*
X112174190Y-113076905D01*
X112212286Y-113038810D01*
X112936095Y-113724524D02*
X112136095Y-113991191D01*
X112936095Y-114257858D01*
X112364667Y-105319762D02*
X112364667Y-105700714D01*
X112136095Y-105243571D02*
X112936095Y-105510238D01*
X112136095Y-105776905D01*
X112136095Y-106500714D02*
X112517048Y-106234047D01*
X112136095Y-106043571D02*
X112936095Y-106043571D01*
X112936095Y-106348333D01*
X112898000Y-106424524D01*
X112859905Y-106462619D01*
X112783714Y-106500714D01*
X112669429Y-106500714D01*
X112593238Y-106462619D01*
X112555143Y-106424524D01*
X112517048Y-106348333D01*
X112517048Y-106043571D01*
X112555143Y-106843571D02*
X112555143Y-107110238D01*
X112136095Y-107224524D02*
X112136095Y-106843571D01*
X112936095Y-106843571D01*
X112936095Y-107224524D01*
X112555143Y-107834048D02*
X112555143Y-107567381D01*
X112136095Y-107567381D02*
X112936095Y-107567381D01*
X112936095Y-107948334D01*
X112364667Y-100793572D02*
X112364667Y-101174524D01*
X112136095Y-100717381D02*
X112936095Y-100984048D01*
X112136095Y-101250715D01*
X112936095Y-101898334D02*
X112936095Y-101517381D01*
X112555143Y-101479286D01*
X112593238Y-101517381D01*
X112631333Y-101593572D01*
X112631333Y-101784048D01*
X112593238Y-101860238D01*
X112555143Y-101898334D01*
X112478952Y-101936429D01*
X112288476Y-101936429D01*
X112212286Y-101898334D01*
X112174190Y-101860238D01*
X112136095Y-101784048D01*
X112136095Y-101593572D01*
X112174190Y-101517381D01*
X112212286Y-101479286D01*
X112364667Y-95793572D02*
X112364667Y-96174524D01*
X112136095Y-95717381D02*
X112936095Y-95984048D01*
X112136095Y-96250715D01*
X112669429Y-96860238D02*
X112136095Y-96860238D01*
X112974190Y-96669762D02*
X112402762Y-96479286D01*
X112402762Y-96974524D01*
X112364667Y-91043572D02*
X112364667Y-91424524D01*
X112136095Y-90967381D02*
X112936095Y-91234048D01*
X112136095Y-91500715D01*
X112936095Y-91691191D02*
X112936095Y-92186429D01*
X112631333Y-91919762D01*
X112631333Y-92034048D01*
X112593238Y-92110238D01*
X112555143Y-92148334D01*
X112478952Y-92186429D01*
X112288476Y-92186429D01*
X112212286Y-92148334D01*
X112174190Y-92110238D01*
X112136095Y-92034048D01*
X112136095Y-91805476D01*
X112174190Y-91729286D01*
X112212286Y-91691191D01*
X112364667Y-85793572D02*
X112364667Y-86174524D01*
X112136095Y-85717381D02*
X112936095Y-85984048D01*
X112136095Y-86250715D01*
X112859905Y-86479286D02*
X112898000Y-86517381D01*
X112936095Y-86593572D01*
X112936095Y-86784048D01*
X112898000Y-86860238D01*
X112859905Y-86898334D01*
X112783714Y-86936429D01*
X112707524Y-86936429D01*
X112593238Y-86898334D01*
X112136095Y-86441191D01*
X112136095Y-86936429D01*
X112364667Y-80793572D02*
X112364667Y-81174524D01*
X112136095Y-80717381D02*
X112936095Y-80984048D01*
X112136095Y-81250715D01*
X112136095Y-81936429D02*
X112136095Y-81479286D01*
X112136095Y-81707857D02*
X112936095Y-81707857D01*
X112821810Y-81631667D01*
X112745619Y-81555476D01*
X112707524Y-81479286D01*
X112364667Y-76293572D02*
X112364667Y-76674524D01*
X112136095Y-76217381D02*
X112936095Y-76484048D01*
X112136095Y-76750715D01*
X112936095Y-77169762D02*
X112936095Y-77245953D01*
X112898000Y-77322143D01*
X112859905Y-77360238D01*
X112783714Y-77398334D01*
X112631333Y-77436429D01*
X112440857Y-77436429D01*
X112288476Y-77398334D01*
X112212286Y-77360238D01*
X112174190Y-77322143D01*
X112136095Y-77245953D01*
X112136095Y-77169762D01*
X112174190Y-77093572D01*
X112212286Y-77055476D01*
X112288476Y-77017381D01*
X112440857Y-76979286D01*
X112631333Y-76979286D01*
X112783714Y-77017381D01*
X112859905Y-77055476D01*
X112898000Y-77093572D01*
X112936095Y-77169762D01*
X178098000Y-97974523D02*
X178059905Y-98050714D01*
X178059905Y-98164999D01*
X178098000Y-98279285D01*
X178174190Y-98355476D01*
X178250381Y-98393571D01*
X178402762Y-98431666D01*
X178517048Y-98431666D01*
X178669429Y-98393571D01*
X178745619Y-98355476D01*
X178821810Y-98279285D01*
X178859905Y-98164999D01*
X178859905Y-98088809D01*
X178821810Y-97974523D01*
X178783714Y-97936428D01*
X178517048Y-97936428D01*
X178517048Y-98088809D01*
X178859905Y-97593571D02*
X178059905Y-97593571D01*
X178859905Y-97136428D01*
X178059905Y-97136428D01*
X178859905Y-96755476D02*
X178059905Y-96755476D01*
X178059905Y-96565000D01*
X178098000Y-96450714D01*
X178174190Y-96374523D01*
X178250381Y-96336428D01*
X178402762Y-96298333D01*
X178517048Y-96298333D01*
X178669429Y-96336428D01*
X178745619Y-96374523D01*
X178821810Y-96450714D01*
X178859905Y-96565000D01*
X178859905Y-96755476D01*
X178821810Y-103317381D02*
X178859905Y-103203095D01*
X178859905Y-103012619D01*
X178821810Y-102936429D01*
X178783714Y-102898333D01*
X178707524Y-102860238D01*
X178631333Y-102860238D01*
X178555143Y-102898333D01*
X178517048Y-102936429D01*
X178478952Y-103012619D01*
X178440857Y-103165000D01*
X178402762Y-103241191D01*
X178364667Y-103279286D01*
X178288476Y-103317381D01*
X178212286Y-103317381D01*
X178136095Y-103279286D01*
X178098000Y-103241191D01*
X178059905Y-103165000D01*
X178059905Y-102974524D01*
X178098000Y-102860238D01*
X178783714Y-102060238D02*
X178821810Y-102098333D01*
X178859905Y-102212619D01*
X178859905Y-102288809D01*
X178821810Y-102403095D01*
X178745619Y-102479286D01*
X178669429Y-102517381D01*
X178517048Y-102555476D01*
X178402762Y-102555476D01*
X178250381Y-102517381D01*
X178174190Y-102479286D01*
X178098000Y-102403095D01*
X178059905Y-102288809D01*
X178059905Y-102212619D01*
X178098000Y-102098333D01*
X178136095Y-102060238D01*
X178859905Y-101336428D02*
X178859905Y-101717381D01*
X178059905Y-101717381D01*
X178821810Y-108336428D02*
X178859905Y-108222142D01*
X178859905Y-108031666D01*
X178821810Y-107955476D01*
X178783714Y-107917380D01*
X178707524Y-107879285D01*
X178631333Y-107879285D01*
X178555143Y-107917380D01*
X178517048Y-107955476D01*
X178478952Y-108031666D01*
X178440857Y-108184047D01*
X178402762Y-108260238D01*
X178364667Y-108298333D01*
X178288476Y-108336428D01*
X178212286Y-108336428D01*
X178136095Y-108298333D01*
X178098000Y-108260238D01*
X178059905Y-108184047D01*
X178059905Y-107993571D01*
X178098000Y-107879285D01*
X178859905Y-107536428D02*
X178059905Y-107536428D01*
X178059905Y-107345952D01*
X178098000Y-107231666D01*
X178174190Y-107155475D01*
X178250381Y-107117380D01*
X178402762Y-107079285D01*
X178517048Y-107079285D01*
X178669429Y-107117380D01*
X178745619Y-107155475D01*
X178821810Y-107231666D01*
X178859905Y-107345952D01*
X178859905Y-107536428D01*
X178631333Y-106774523D02*
X178631333Y-106393571D01*
X178859905Y-106850714D02*
X178059905Y-106584047D01*
X178859905Y-106317380D01*
X178555143Y-113393571D02*
X178555143Y-112784047D01*
X178859905Y-113088809D02*
X178250381Y-113088809D01*
X178059905Y-112022142D02*
X178059905Y-112403095D01*
X178440857Y-112441190D01*
X178402762Y-112403095D01*
X178364667Y-112326904D01*
X178364667Y-112136428D01*
X178402762Y-112060238D01*
X178440857Y-112022142D01*
X178517048Y-111984047D01*
X178707524Y-111984047D01*
X178783714Y-112022142D01*
X178821810Y-112060238D01*
X178859905Y-112136428D01*
X178859905Y-112326904D01*
X178821810Y-112403095D01*
X178783714Y-112441190D01*
X178059905Y-111755476D02*
X178859905Y-111488809D01*
X178059905Y-111222142D01*
D12*
X140208000Y-125095000D02*
X157988000Y-125095000D01*
X157988000Y-125095000D02*
X157988000Y-122555000D01*
X157988000Y-122555000D02*
X140208000Y-122555000D01*
X137388000Y-125375000D02*
X138938000Y-125375000D01*
X140208000Y-125095000D02*
X140208000Y-122555000D01*
X138938000Y-122275000D02*
X137388000Y-122275000D01*
X137388000Y-122275000D02*
X137388000Y-125375000D01*
X163068000Y-125095000D02*
X175768000Y-125095000D01*
X175768000Y-125095000D02*
X175768000Y-122555000D01*
X175768000Y-122555000D02*
X163068000Y-122555000D01*
X160248000Y-125375000D02*
X161798000Y-125375000D01*
X163068000Y-125095000D02*
X163068000Y-122555000D01*
X161798000Y-122275000D02*
X160248000Y-122275000D01*
X160248000Y-122275000D02*
X160248000Y-125375000D01*
X131064000Y-76835000D02*
X153924000Y-76835000D01*
X153924000Y-76835000D02*
X153924000Y-74295000D01*
X153924000Y-74295000D02*
X131064000Y-74295000D01*
X128244000Y-77115000D02*
X129794000Y-77115000D01*
X131064000Y-76835000D02*
X131064000Y-74295000D01*
X129794000Y-74015000D02*
X128244000Y-74015000D01*
X128244000Y-74015000D02*
X128244000Y-77115000D01*
X157988000Y-76835000D02*
X175768000Y-76835000D01*
X175768000Y-76835000D02*
X175768000Y-74295000D01*
X175768000Y-74295000D02*
X157988000Y-74295000D01*
X155168000Y-77115000D02*
X156718000Y-77115000D01*
X157988000Y-76835000D02*
X157988000Y-74295000D01*
X156718000Y-74015000D02*
X155168000Y-74015000D01*
X155168000Y-74015000D02*
X155168000Y-77115000D01*
X127254000Y-123825000D02*
G75*
G03X127254000Y-123825000I-2286000J0D01*
G01*
X179324000Y-118745000D02*
G75*
G03X179324000Y-118745000I-2286000J0D01*
G01*
X128524000Y-75565000D02*
G75*
G03X128524000Y-75565000I-2286000J0D01*
G01*
X179324000Y-90805000D02*
G75*
G03X179324000Y-90805000I-2286000J0D01*
G01*
D13*
X176848000Y-99865000D02*
X177348000Y-99865000D01*
X174848000Y-97365000D02*
G75*
G03X174848000Y-97365000I-2000000J0D01*
G01*
X174848000Y-102365000D02*
G75*
G03X174848000Y-102365000I-2000000J0D01*
G01*
X176848000Y-104865000D02*
X177348000Y-104865000D01*
X176848000Y-109865000D02*
X177348000Y-109865000D01*
X174848000Y-107365000D02*
G75*
G03X174848000Y-107365000I-2000000J0D01*
G01*
X174848000Y-112365000D02*
G75*
G03X174848000Y-112365000I-2000000J0D01*
G01*
X175348000Y-114865000D02*
X175348000Y-94865000D01*
X170448000Y-114865000D02*
X170448000Y-94865000D01*
X176848000Y-114865000D02*
X176848000Y-94865000D01*
X177348000Y-114865000D02*
X177348000Y-94865000D01*
X177348000Y-94865000D02*
X167548000Y-94865000D01*
X167548000Y-94865000D02*
X167548000Y-114865000D01*
X167548000Y-114865000D02*
X177348000Y-114865000D01*
X114148000Y-104115000D02*
X113648000Y-104115000D01*
X120148000Y-106615000D02*
G75*
G03X120148000Y-106615000I-2000000J0D01*
G01*
X120148000Y-101615000D02*
G75*
G03X120148000Y-101615000I-2000000J0D01*
G01*
X114148000Y-99115000D02*
X113648000Y-99115000D01*
X114148000Y-94115000D02*
X113648000Y-94115000D01*
X120148000Y-96615000D02*
G75*
G03X120148000Y-96615000I-2000000J0D01*
G01*
X114148000Y-89115000D02*
X113648000Y-89115000D01*
X120148000Y-91615000D02*
G75*
G03X120148000Y-91615000I-2000000J0D01*
G01*
X120148000Y-86615000D02*
G75*
G03X120148000Y-86615000I-2000000J0D01*
G01*
X114148000Y-84115000D02*
X113648000Y-84115000D01*
X114148000Y-79115000D02*
X113648000Y-79115000D01*
X120148000Y-81615000D02*
G75*
G03X120148000Y-81615000I-2000000J0D01*
G01*
X120148000Y-76615000D02*
G75*
G03X120148000Y-76615000I-2000000J0D01*
G01*
X115648000Y-74115000D02*
X115648000Y-109115000D01*
X120548000Y-74115000D02*
X120548000Y-109115000D01*
X114148000Y-74115000D02*
X114148000Y-109115000D01*
X113648000Y-74115000D02*
X113648000Y-109115000D01*
X113648000Y-109115000D02*
X123448000Y-109115000D01*
X123448000Y-109115000D02*
X123448000Y-74115000D01*
X123448000Y-74115000D02*
X113648000Y-74115000D01*
X114148000Y-115615000D02*
X113648000Y-115615000D01*
X120148000Y-118115000D02*
G75*
G03X120148000Y-118115000I-2000000J0D01*
G01*
X120148000Y-113115000D02*
G75*
G03X120148000Y-113115000I-2000000J0D01*
G01*
X115648000Y-110615000D02*
X115648000Y-120615000D01*
X120548000Y-110615000D02*
X120548000Y-120615000D01*
X114148000Y-110615000D02*
X114148000Y-120615000D01*
X113648000Y-110615000D02*
X113648000Y-120615000D01*
X113648000Y-120615000D02*
X123448000Y-120615000D01*
X123448000Y-120615000D02*
X123448000Y-110615000D01*
X123448000Y-110615000D02*
X113648000Y-110615000D01*
D12*
X147259905Y-118817381D02*
X147259905Y-117817381D01*
X147640858Y-117817381D01*
X147736096Y-117865000D01*
X147783715Y-117912619D01*
X147831334Y-118007857D01*
X147831334Y-118150714D01*
X147783715Y-118245952D01*
X147736096Y-118293571D01*
X147640858Y-118341190D01*
X147259905Y-118341190D01*
X148783715Y-118817381D02*
X148212286Y-118817381D01*
X148498000Y-118817381D02*
X148498000Y-117817381D01*
X148402762Y-117960238D01*
X148307524Y-118055476D01*
X148212286Y-118103095D01*
X146021809Y-117317381D02*
X146021809Y-116317381D01*
X146402762Y-116317381D01*
X146498000Y-116365000D01*
X146545619Y-116412619D01*
X146593238Y-116507857D01*
X146593238Y-116650714D01*
X146545619Y-116745952D01*
X146498000Y-116793571D01*
X146402762Y-116841190D01*
X146021809Y-116841190D01*
X147164666Y-117317381D02*
X147069428Y-117269762D01*
X147021809Y-117222143D01*
X146974190Y-117126905D01*
X146974190Y-116841190D01*
X147021809Y-116745952D01*
X147069428Y-116698333D01*
X147164666Y-116650714D01*
X147307524Y-116650714D01*
X147402762Y-116698333D01*
X147450381Y-116745952D01*
X147498000Y-116841190D01*
X147498000Y-117126905D01*
X147450381Y-117222143D01*
X147402762Y-117269762D01*
X147307524Y-117317381D01*
X147164666Y-117317381D01*
X147831333Y-116650714D02*
X148021809Y-117317381D01*
X148212286Y-116841190D01*
X148402762Y-117317381D01*
X148593238Y-116650714D01*
X149355143Y-117269762D02*
X149259905Y-117317381D01*
X149069428Y-117317381D01*
X148974190Y-117269762D01*
X148926571Y-117174524D01*
X148926571Y-116793571D01*
X148974190Y-116698333D01*
X149069428Y-116650714D01*
X149259905Y-116650714D01*
X149355143Y-116698333D01*
X149402762Y-116793571D01*
X149402762Y-116888810D01*
X148926571Y-116984048D01*
X149831333Y-117317381D02*
X149831333Y-116650714D01*
X149831333Y-116841190D02*
X149878952Y-116745952D01*
X149926571Y-116698333D01*
X150021809Y-116650714D01*
X150117048Y-116650714D01*
X168259905Y-119817381D02*
X168259905Y-118817381D01*
X168640858Y-118817381D01*
X168736096Y-118865000D01*
X168783715Y-118912619D01*
X168831334Y-119007857D01*
X168831334Y-119150714D01*
X168783715Y-119245952D01*
X168736096Y-119293571D01*
X168640858Y-119341190D01*
X168259905Y-119341190D01*
X169212286Y-118912619D02*
X169259905Y-118865000D01*
X169355143Y-118817381D01*
X169593239Y-118817381D01*
X169688477Y-118865000D01*
X169736096Y-118912619D01*
X169783715Y-119007857D01*
X169783715Y-119103095D01*
X169736096Y-119245952D01*
X169164667Y-119817381D01*
X169783715Y-119817381D01*
X166438476Y-118281667D02*
X166914667Y-118281667D01*
X166343238Y-118567381D02*
X166676571Y-117567381D01*
X167009905Y-118567381D01*
X167343238Y-117900714D02*
X167343238Y-118567381D01*
X167343238Y-117995952D02*
X167390857Y-117948333D01*
X167486095Y-117900714D01*
X167628953Y-117900714D01*
X167724191Y-117948333D01*
X167771810Y-118043571D01*
X167771810Y-118567381D01*
X168676572Y-118567381D02*
X168676572Y-118043571D01*
X168628953Y-117948333D01*
X168533715Y-117900714D01*
X168343238Y-117900714D01*
X168248000Y-117948333D01*
X168676572Y-118519762D02*
X168581334Y-118567381D01*
X168343238Y-118567381D01*
X168248000Y-118519762D01*
X168200381Y-118424524D01*
X168200381Y-118329286D01*
X168248000Y-118234048D01*
X168343238Y-118186429D01*
X168581334Y-118186429D01*
X168676572Y-118138810D01*
X169295619Y-118567381D02*
X169200381Y-118519762D01*
X169152762Y-118424524D01*
X169152762Y-117567381D01*
X169819429Y-118567381D02*
X169724191Y-118519762D01*
X169676572Y-118472143D01*
X169628953Y-118376905D01*
X169628953Y-118091190D01*
X169676572Y-117995952D01*
X169724191Y-117948333D01*
X169819429Y-117900714D01*
X169962287Y-117900714D01*
X170057525Y-117948333D01*
X170105144Y-117995952D01*
X170152763Y-118091190D01*
X170152763Y-118376905D01*
X170105144Y-118472143D01*
X170057525Y-118519762D01*
X169962287Y-118567381D01*
X169819429Y-118567381D01*
X171009906Y-117900714D02*
X171009906Y-118710238D01*
X170962287Y-118805476D01*
X170914668Y-118853095D01*
X170819429Y-118900714D01*
X170676572Y-118900714D01*
X170581334Y-118853095D01*
X171009906Y-118519762D02*
X170914668Y-118567381D01*
X170724191Y-118567381D01*
X170628953Y-118519762D01*
X170581334Y-118472143D01*
X170533715Y-118376905D01*
X170533715Y-118091190D01*
X170581334Y-117995952D01*
X170628953Y-117948333D01*
X170724191Y-117900714D01*
X170914668Y-117900714D01*
X171009906Y-117948333D01*
X141509905Y-80567381D02*
X141509905Y-79567381D01*
X141890858Y-79567381D01*
X141986096Y-79615000D01*
X142033715Y-79662619D01*
X142081334Y-79757857D01*
X142081334Y-79900714D01*
X142033715Y-79995952D01*
X141986096Y-80043571D01*
X141890858Y-80091190D01*
X141509905Y-80091190D01*
X142414667Y-79567381D02*
X143033715Y-79567381D01*
X142700381Y-79948333D01*
X142843239Y-79948333D01*
X142938477Y-79995952D01*
X142986096Y-80043571D01*
X143033715Y-80138810D01*
X143033715Y-80376905D01*
X142986096Y-80472143D01*
X142938477Y-80519762D01*
X142843239Y-80567381D01*
X142557524Y-80567381D01*
X142462286Y-80519762D01*
X142414667Y-80472143D01*
X140057524Y-81817381D02*
X140057524Y-80817381D01*
X140295619Y-80817381D01*
X140438477Y-80865000D01*
X140533715Y-80960238D01*
X140581334Y-81055476D01*
X140628953Y-81245952D01*
X140628953Y-81388810D01*
X140581334Y-81579286D01*
X140533715Y-81674524D01*
X140438477Y-81769762D01*
X140295619Y-81817381D01*
X140057524Y-81817381D01*
X141057524Y-81817381D02*
X141057524Y-81150714D01*
X141057524Y-80817381D02*
X141009905Y-80865000D01*
X141057524Y-80912619D01*
X141105143Y-80865000D01*
X141057524Y-80817381D01*
X141057524Y-80912619D01*
X141962286Y-81150714D02*
X141962286Y-81960238D01*
X141914667Y-82055476D01*
X141867048Y-82103095D01*
X141771809Y-82150714D01*
X141628952Y-82150714D01*
X141533714Y-82103095D01*
X141962286Y-81769762D02*
X141867048Y-81817381D01*
X141676571Y-81817381D01*
X141581333Y-81769762D01*
X141533714Y-81722143D01*
X141486095Y-81626905D01*
X141486095Y-81341190D01*
X141533714Y-81245952D01*
X141581333Y-81198333D01*
X141676571Y-81150714D01*
X141867048Y-81150714D01*
X141962286Y-81198333D01*
X142438476Y-81817381D02*
X142438476Y-81150714D01*
X142438476Y-80817381D02*
X142390857Y-80865000D01*
X142438476Y-80912619D01*
X142486095Y-80865000D01*
X142438476Y-80817381D01*
X142438476Y-80912619D01*
X142771809Y-81150714D02*
X143152761Y-81150714D01*
X142914666Y-80817381D02*
X142914666Y-81674524D01*
X142962285Y-81769762D01*
X143057523Y-81817381D01*
X143152761Y-81817381D01*
X143914667Y-81817381D02*
X143914667Y-81293571D01*
X143867048Y-81198333D01*
X143771810Y-81150714D01*
X143581333Y-81150714D01*
X143486095Y-81198333D01*
X143914667Y-81769762D02*
X143819429Y-81817381D01*
X143581333Y-81817381D01*
X143486095Y-81769762D01*
X143438476Y-81674524D01*
X143438476Y-81579286D01*
X143486095Y-81484048D01*
X143581333Y-81436429D01*
X143819429Y-81436429D01*
X143914667Y-81388810D01*
X144533714Y-81817381D02*
X144438476Y-81769762D01*
X144390857Y-81674524D01*
X144390857Y-80817381D01*
X164759905Y-79567381D02*
X164759905Y-78567381D01*
X165140858Y-78567381D01*
X165236096Y-78615000D01*
X165283715Y-78662619D01*
X165331334Y-78757857D01*
X165331334Y-78900714D01*
X165283715Y-78995952D01*
X165236096Y-79043571D01*
X165140858Y-79091190D01*
X164759905Y-79091190D01*
X166188477Y-78900714D02*
X166188477Y-79567381D01*
X165950381Y-78519762D02*
X165712286Y-79234048D01*
X166331334Y-79234048D01*
X163557524Y-80817381D02*
X163557524Y-79817381D01*
X163795619Y-79817381D01*
X163938477Y-79865000D01*
X164033715Y-79960238D01*
X164081334Y-80055476D01*
X164128953Y-80245952D01*
X164128953Y-80388810D01*
X164081334Y-80579286D01*
X164033715Y-80674524D01*
X163938477Y-80769762D01*
X163795619Y-80817381D01*
X163557524Y-80817381D01*
X164557524Y-80817381D02*
X164557524Y-80150714D01*
X164557524Y-79817381D02*
X164509905Y-79865000D01*
X164557524Y-79912619D01*
X164605143Y-79865000D01*
X164557524Y-79817381D01*
X164557524Y-79912619D01*
X165462286Y-80150714D02*
X165462286Y-80960238D01*
X165414667Y-81055476D01*
X165367048Y-81103095D01*
X165271809Y-81150714D01*
X165128952Y-81150714D01*
X165033714Y-81103095D01*
X165462286Y-80769762D02*
X165367048Y-80817381D01*
X165176571Y-80817381D01*
X165081333Y-80769762D01*
X165033714Y-80722143D01*
X164986095Y-80626905D01*
X164986095Y-80341190D01*
X165033714Y-80245952D01*
X165081333Y-80198333D01*
X165176571Y-80150714D01*
X165367048Y-80150714D01*
X165462286Y-80198333D01*
X165938476Y-80817381D02*
X165938476Y-80150714D01*
X165938476Y-79817381D02*
X165890857Y-79865000D01*
X165938476Y-79912619D01*
X165986095Y-79865000D01*
X165938476Y-79817381D01*
X165938476Y-79912619D01*
X166271809Y-80150714D02*
X166652761Y-80150714D01*
X166414666Y-79817381D02*
X166414666Y-80674524D01*
X166462285Y-80769762D01*
X166557523Y-80817381D01*
X166652761Y-80817381D01*
X167414667Y-80817381D02*
X167414667Y-80293571D01*
X167367048Y-80198333D01*
X167271810Y-80150714D01*
X167081333Y-80150714D01*
X166986095Y-80198333D01*
X167414667Y-80769762D02*
X167319429Y-80817381D01*
X167081333Y-80817381D01*
X166986095Y-80769762D01*
X166938476Y-80674524D01*
X166938476Y-80579286D01*
X166986095Y-80484048D01*
X167081333Y-80436429D01*
X167319429Y-80436429D01*
X167414667Y-80388810D01*
X168033714Y-80817381D02*
X167938476Y-80769762D01*
X167890857Y-80674524D01*
X167890857Y-79817381D01*
D14*
X166826571Y-105972142D02*
X165326571Y-105972142D01*
X165326571Y-105400714D01*
X165398000Y-105257856D01*
X165469429Y-105186428D01*
X165612286Y-105114999D01*
X165826571Y-105114999D01*
X165969429Y-105186428D01*
X166040857Y-105257856D01*
X166112286Y-105400714D01*
X166112286Y-105972142D01*
X166826571Y-104400714D02*
X166826571Y-104114999D01*
X166755143Y-103972142D01*
X166683714Y-103900714D01*
X166469429Y-103757856D01*
X166183714Y-103686428D01*
X165612286Y-103686428D01*
X165469429Y-103757856D01*
X165398000Y-103829285D01*
X165326571Y-103972142D01*
X165326571Y-104257856D01*
X165398000Y-104400714D01*
X165469429Y-104472142D01*
X165612286Y-104543571D01*
X165969429Y-104543571D01*
X166112286Y-104472142D01*
X166183714Y-104400714D01*
X166255143Y-104257856D01*
X166255143Y-103972142D01*
X166183714Y-103829285D01*
X166112286Y-103757856D01*
X165969429Y-103686428D01*
D15*
X164355143Y-109388809D02*
X164402762Y-109436428D01*
X164450381Y-109579285D01*
X164450381Y-109674523D01*
X164402762Y-109817381D01*
X164307524Y-109912619D01*
X164212286Y-109960238D01*
X164021810Y-110007857D01*
X163878952Y-110007857D01*
X163688476Y-109960238D01*
X163593238Y-109912619D01*
X163498000Y-109817381D01*
X163450381Y-109674523D01*
X163450381Y-109579285D01*
X163498000Y-109436428D01*
X163545619Y-109388809D01*
X163450381Y-108769762D02*
X163450381Y-108579285D01*
X163498000Y-108484047D01*
X163593238Y-108388809D01*
X163783714Y-108341190D01*
X164117048Y-108341190D01*
X164307524Y-108388809D01*
X164402762Y-108484047D01*
X164450381Y-108579285D01*
X164450381Y-108769762D01*
X164402762Y-108865000D01*
X164307524Y-108960238D01*
X164117048Y-109007857D01*
X163783714Y-109007857D01*
X163593238Y-108960238D01*
X163498000Y-108865000D01*
X163450381Y-108769762D01*
X164450381Y-107912619D02*
X163450381Y-107912619D01*
X164450381Y-107341190D01*
X163450381Y-107341190D01*
X164450381Y-106865000D02*
X163450381Y-106865000D01*
X164450381Y-106293571D01*
X163450381Y-106293571D01*
X164545619Y-106055476D02*
X164545619Y-105293571D01*
X163450381Y-104865000D02*
X163450381Y-104769761D01*
X163498000Y-104674523D01*
X163545619Y-104626904D01*
X163640857Y-104579285D01*
X163831333Y-104531666D01*
X164069429Y-104531666D01*
X164259905Y-104579285D01*
X164355143Y-104626904D01*
X164402762Y-104674523D01*
X164450381Y-104769761D01*
X164450381Y-104865000D01*
X164402762Y-104960238D01*
X164355143Y-105007857D01*
X164259905Y-105055476D01*
X164069429Y-105103095D01*
X163831333Y-105103095D01*
X163640857Y-105055476D01*
X163545619Y-105007857D01*
X163498000Y-104960238D01*
X163450381Y-104865000D01*
X164450381Y-103579285D02*
X164450381Y-104150714D01*
X164450381Y-103865000D02*
X163450381Y-103865000D01*
X163593238Y-103960238D01*
X163688476Y-104055476D01*
X163736095Y-104150714D01*
X163450381Y-103245952D02*
X164450381Y-102579285D01*
X163450381Y-102579285D02*
X164450381Y-103245952D01*
X163450381Y-102007857D02*
X163450381Y-101912618D01*
X163498000Y-101817380D01*
X163545619Y-101769761D01*
X163640857Y-101722142D01*
X163831333Y-101674523D01*
X164069429Y-101674523D01*
X164259905Y-101722142D01*
X164355143Y-101769761D01*
X164402762Y-101817380D01*
X164450381Y-101912618D01*
X164450381Y-102007857D01*
X164402762Y-102103095D01*
X164355143Y-102150714D01*
X164259905Y-102198333D01*
X164069429Y-102245952D01*
X163831333Y-102245952D01*
X163640857Y-102198333D01*
X163545619Y-102150714D01*
X163498000Y-102103095D01*
X163450381Y-102007857D01*
X163783714Y-100817380D02*
X164450381Y-100817380D01*
X163402762Y-101055476D02*
X164117048Y-101293571D01*
X164117048Y-100674523D01*
D14*
X125526571Y-93436428D02*
X124026571Y-93436428D01*
X124026571Y-92865000D01*
X124098000Y-92722142D01*
X124169429Y-92650714D01*
X124312286Y-92579285D01*
X124526571Y-92579285D01*
X124669429Y-92650714D01*
X124740857Y-92722142D01*
X124812286Y-92865000D01*
X124812286Y-93436428D01*
X125526571Y-91150714D02*
X125526571Y-92007857D01*
X125526571Y-91579285D02*
X124026571Y-91579285D01*
X124240857Y-91722142D01*
X124383714Y-91865000D01*
X124455143Y-92007857D01*
X124026571Y-90222143D02*
X124026571Y-90079286D01*
X124098000Y-89936429D01*
X124169429Y-89865000D01*
X124312286Y-89793571D01*
X124598000Y-89722143D01*
X124955143Y-89722143D01*
X125240857Y-89793571D01*
X125383714Y-89865000D01*
X125455143Y-89936429D01*
X125526571Y-90079286D01*
X125526571Y-90222143D01*
X125455143Y-90365000D01*
X125383714Y-90436429D01*
X125240857Y-90507857D01*
X124955143Y-90579286D01*
X124598000Y-90579286D01*
X124312286Y-90507857D01*
X124169429Y-90436429D01*
X124098000Y-90365000D01*
X124026571Y-90222143D01*
D15*
X127105143Y-96638809D02*
X127152762Y-96686428D01*
X127200381Y-96829285D01*
X127200381Y-96924523D01*
X127152762Y-97067381D01*
X127057524Y-97162619D01*
X126962286Y-97210238D01*
X126771810Y-97257857D01*
X126628952Y-97257857D01*
X126438476Y-97210238D01*
X126343238Y-97162619D01*
X126248000Y-97067381D01*
X126200381Y-96924523D01*
X126200381Y-96829285D01*
X126248000Y-96686428D01*
X126295619Y-96638809D01*
X126200381Y-96019762D02*
X126200381Y-95829285D01*
X126248000Y-95734047D01*
X126343238Y-95638809D01*
X126533714Y-95591190D01*
X126867048Y-95591190D01*
X127057524Y-95638809D01*
X127152762Y-95734047D01*
X127200381Y-95829285D01*
X127200381Y-96019762D01*
X127152762Y-96115000D01*
X127057524Y-96210238D01*
X126867048Y-96257857D01*
X126533714Y-96257857D01*
X126343238Y-96210238D01*
X126248000Y-96115000D01*
X126200381Y-96019762D01*
X127200381Y-95162619D02*
X126200381Y-95162619D01*
X127200381Y-94591190D01*
X126200381Y-94591190D01*
X127200381Y-94115000D02*
X126200381Y-94115000D01*
X127200381Y-93543571D01*
X126200381Y-93543571D01*
X127295619Y-93305476D02*
X127295619Y-92543571D01*
X126200381Y-92115000D02*
X126200381Y-92019761D01*
X126248000Y-91924523D01*
X126295619Y-91876904D01*
X126390857Y-91829285D01*
X126581333Y-91781666D01*
X126819429Y-91781666D01*
X127009905Y-91829285D01*
X127105143Y-91876904D01*
X127152762Y-91924523D01*
X127200381Y-92019761D01*
X127200381Y-92115000D01*
X127152762Y-92210238D01*
X127105143Y-92257857D01*
X127009905Y-92305476D01*
X126819429Y-92353095D01*
X126581333Y-92353095D01*
X126390857Y-92305476D01*
X126295619Y-92257857D01*
X126248000Y-92210238D01*
X126200381Y-92115000D01*
X127200381Y-90829285D02*
X127200381Y-91400714D01*
X127200381Y-91115000D02*
X126200381Y-91115000D01*
X126343238Y-91210238D01*
X126438476Y-91305476D01*
X126486095Y-91400714D01*
X126200381Y-90495952D02*
X127200381Y-89829285D01*
X126200381Y-89829285D02*
X127200381Y-90495952D01*
X126200381Y-89257857D02*
X126200381Y-89162618D01*
X126248000Y-89067380D01*
X126295619Y-89019761D01*
X126390857Y-88972142D01*
X126581333Y-88924523D01*
X126819429Y-88924523D01*
X127009905Y-88972142D01*
X127105143Y-89019761D01*
X127152762Y-89067380D01*
X127200381Y-89162618D01*
X127200381Y-89257857D01*
X127152762Y-89353095D01*
X127105143Y-89400714D01*
X127009905Y-89448333D01*
X126819429Y-89495952D01*
X126581333Y-89495952D01*
X126390857Y-89448333D01*
X126295619Y-89400714D01*
X126248000Y-89353095D01*
X126200381Y-89257857D01*
X126200381Y-88591190D02*
X126200381Y-87924523D01*
X127200381Y-88353095D01*
D14*
X125526571Y-117436428D02*
X124026571Y-117436428D01*
X124026571Y-116865000D01*
X124098000Y-116722142D01*
X124169429Y-116650714D01*
X124312286Y-116579285D01*
X124526571Y-116579285D01*
X124669429Y-116650714D01*
X124740857Y-116722142D01*
X124812286Y-116865000D01*
X124812286Y-117436428D01*
X125526571Y-115150714D02*
X125526571Y-116007857D01*
X125526571Y-115579285D02*
X124026571Y-115579285D01*
X124240857Y-115722142D01*
X124383714Y-115865000D01*
X124455143Y-116007857D01*
X125526571Y-113722143D02*
X125526571Y-114579286D01*
X125526571Y-114150714D02*
X124026571Y-114150714D01*
X124240857Y-114293571D01*
X124383714Y-114436429D01*
X124455143Y-114579286D01*
D15*
X127605143Y-118888809D02*
X127652762Y-118936428D01*
X127700381Y-119079285D01*
X127700381Y-119174523D01*
X127652762Y-119317381D01*
X127557524Y-119412619D01*
X127462286Y-119460238D01*
X127271810Y-119507857D01*
X127128952Y-119507857D01*
X126938476Y-119460238D01*
X126843238Y-119412619D01*
X126748000Y-119317381D01*
X126700381Y-119174523D01*
X126700381Y-119079285D01*
X126748000Y-118936428D01*
X126795619Y-118888809D01*
X126700381Y-118269762D02*
X126700381Y-118079285D01*
X126748000Y-117984047D01*
X126843238Y-117888809D01*
X127033714Y-117841190D01*
X127367048Y-117841190D01*
X127557524Y-117888809D01*
X127652762Y-117984047D01*
X127700381Y-118079285D01*
X127700381Y-118269762D01*
X127652762Y-118365000D01*
X127557524Y-118460238D01*
X127367048Y-118507857D01*
X127033714Y-118507857D01*
X126843238Y-118460238D01*
X126748000Y-118365000D01*
X126700381Y-118269762D01*
X127700381Y-117412619D02*
X126700381Y-117412619D01*
X127700381Y-116841190D01*
X126700381Y-116841190D01*
X127700381Y-116365000D02*
X126700381Y-116365000D01*
X127700381Y-115793571D01*
X126700381Y-115793571D01*
X127795619Y-115555476D02*
X127795619Y-114793571D01*
X126700381Y-114365000D02*
X126700381Y-114269761D01*
X126748000Y-114174523D01*
X126795619Y-114126904D01*
X126890857Y-114079285D01*
X127081333Y-114031666D01*
X127319429Y-114031666D01*
X127509905Y-114079285D01*
X127605143Y-114126904D01*
X127652762Y-114174523D01*
X127700381Y-114269761D01*
X127700381Y-114365000D01*
X127652762Y-114460238D01*
X127605143Y-114507857D01*
X127509905Y-114555476D01*
X127319429Y-114603095D01*
X127081333Y-114603095D01*
X126890857Y-114555476D01*
X126795619Y-114507857D01*
X126748000Y-114460238D01*
X126700381Y-114365000D01*
X127700381Y-113079285D02*
X127700381Y-113650714D01*
X127700381Y-113365000D02*
X126700381Y-113365000D01*
X126843238Y-113460238D01*
X126938476Y-113555476D01*
X126986095Y-113650714D01*
X126700381Y-112745952D02*
X127700381Y-112079285D01*
X126700381Y-112079285D02*
X127700381Y-112745952D01*
X126700381Y-111507857D02*
X126700381Y-111412618D01*
X126748000Y-111317380D01*
X126795619Y-111269761D01*
X126890857Y-111222142D01*
X127081333Y-111174523D01*
X127319429Y-111174523D01*
X127509905Y-111222142D01*
X127605143Y-111269761D01*
X127652762Y-111317380D01*
X127700381Y-111412618D01*
X127700381Y-111507857D01*
X127652762Y-111603095D01*
X127605143Y-111650714D01*
X127509905Y-111698333D01*
X127319429Y-111745952D01*
X127081333Y-111745952D01*
X126890857Y-111698333D01*
X126795619Y-111650714D01*
X126748000Y-111603095D01*
X126700381Y-111507857D01*
X126795619Y-110793571D02*
X126748000Y-110745952D01*
X126700381Y-110650714D01*
X126700381Y-110412618D01*
X126748000Y-110317380D01*
X126795619Y-110269761D01*
X126890857Y-110222142D01*
X126986095Y-110222142D01*
X127128952Y-110269761D01*
X127700381Y-110841190D01*
X127700381Y-110222142D01*
M02*
