M48
;DRILL file {KiCad 4.0.4-stable} date 04/08/17 18:27:34
;FORMAT={-:-/ absolute / metric / decimal}
FMAT,2
METRIC,TZ
T1C0.400
T2C1.016
T3C1.300
T4C3.048
%
G90
G05
M71
T1
X127.489Y-85.49
X139.282Y-106.959
X141.266Y-106.461
T2
X129.794Y-75.565
X132.334Y-75.565
X134.874Y-75.565
X137.414Y-75.565
X138.938Y-123.825
X139.954Y-75.565
X141.478Y-123.825
X142.494Y-75.565
X144.018Y-123.825
X145.034Y-75.565
X146.558Y-123.825
X147.574Y-75.565
X149.098Y-123.825
X150.114Y-75.565
X151.638Y-123.825
X152.654Y-75.565
X154.178Y-123.825
X156.718Y-75.565
X156.718Y-123.825
X159.258Y-75.565
X161.798Y-75.565
X161.798Y-123.825
X164.338Y-75.565
X164.338Y-123.825
X166.878Y-75.565
X166.878Y-123.825
X169.418Y-75.565
X169.418Y-123.825
X171.958Y-75.565
X171.958Y-123.825
X174.498Y-75.565
X174.498Y-123.825
T3
X118.248Y-76.615
X118.248Y-81.615
X118.248Y-86.615
X118.248Y-91.615
X118.248Y-96.615
X118.248Y-101.615
X118.248Y-106.615
X118.248Y-113.115
X118.248Y-118.115
X172.748Y-97.365
X172.748Y-102.365
X172.748Y-107.365
X172.748Y-112.365
T4
X124.968Y-123.825
X126.238Y-75.565
X177.038Y-90.805
X177.038Y-118.745
T0
M30
