%FSLAX45Y45*%
G04 Gerber Fmt 4.5, Leading zero omitted, Abs format (unit mm)*
G04 Created by KiCad (PCBNEW (5.0.1)-4) date 13/12/2018 19:21:13*
%MOMM*%
%LPD*%
G01*
G04 APERTURE LIST*
%ADD10C,0.150000*%
%ADD11C,0.200000*%
%ADD12C,0.300000*%
G04 APERTURE END LIST*
D10*
X11479530Y-13035280D02*
X11379200Y-12936220D01*
X16738600Y-13032740D02*
X16830040Y-12933680D01*
X16831310Y-6723380D02*
X16733520Y-6631940D01*
X11379200Y-6731000D02*
X11476990Y-6631940D01*
X11379200Y-12936220D02*
X11379200Y-6732270D01*
X16831310Y-6725920D02*
X16830040Y-12933680D01*
X11476990Y-6631940D02*
X16733520Y-6631940D01*
X11479530Y-13035280D02*
X16737330Y-13032740D01*
D11*
X11644400Y-11995900D02*
X11754400Y-12105900D01*
X11754400Y-11995900D02*
X11644400Y-12105900D01*
X11644400Y-12455900D02*
X11754400Y-12565900D01*
X11754400Y-12455900D02*
X11644400Y-12565900D01*
X11646400Y-7108430D02*
X11756400Y-7218430D01*
X11756400Y-7108430D02*
X11646400Y-7218430D01*
X11646400Y-7568430D02*
X11756400Y-7678430D01*
X11756400Y-7568430D02*
X11646400Y-7678430D01*
D12*
X11658128Y-13508494D02*
X11658128Y-13208494D01*
X11729557Y-13208494D01*
X11772414Y-13222780D01*
X11800986Y-13251351D01*
X11815271Y-13279923D01*
X11829557Y-13337066D01*
X11829557Y-13379923D01*
X11815271Y-13437066D01*
X11800986Y-13465637D01*
X11772414Y-13494209D01*
X11729557Y-13508494D01*
X11658128Y-13508494D01*
X11958128Y-13508494D02*
X11958128Y-13308494D01*
X11958128Y-13365637D02*
X11972414Y-13337066D01*
X11986700Y-13322780D01*
X12015271Y-13308494D01*
X12043843Y-13308494D01*
X12143843Y-13508494D02*
X12143843Y-13308494D01*
X12143843Y-13208494D02*
X12129557Y-13222780D01*
X12143843Y-13237066D01*
X12158128Y-13222780D01*
X12143843Y-13208494D01*
X12143843Y-13237066D01*
X12329557Y-13508494D02*
X12300986Y-13494209D01*
X12286700Y-13465637D01*
X12286700Y-13208494D01*
X12486700Y-13508494D02*
X12458128Y-13494209D01*
X12443843Y-13465637D01*
X12443843Y-13208494D01*
X12829557Y-13508494D02*
X12829557Y-13208494D01*
X12929557Y-13422780D01*
X13029557Y-13208494D01*
X13029557Y-13508494D01*
X13300986Y-13508494D02*
X13300986Y-13351351D01*
X13286700Y-13322780D01*
X13258128Y-13308494D01*
X13200986Y-13308494D01*
X13172414Y-13322780D01*
X13300986Y-13494209D02*
X13272414Y-13508494D01*
X13200986Y-13508494D01*
X13172414Y-13494209D01*
X13158128Y-13465637D01*
X13158128Y-13437066D01*
X13172414Y-13408494D01*
X13200986Y-13394209D01*
X13272414Y-13394209D01*
X13300986Y-13379923D01*
X13443843Y-13308494D02*
X13443843Y-13608494D01*
X13443843Y-13322780D02*
X13472414Y-13308494D01*
X13529557Y-13308494D01*
X13558128Y-13322780D01*
X13572414Y-13337066D01*
X13586700Y-13365637D01*
X13586700Y-13451351D01*
X13572414Y-13479923D01*
X13558128Y-13494209D01*
X13529557Y-13508494D01*
X13472414Y-13508494D01*
X13443843Y-13494209D01*
X13715271Y-13479923D02*
X13729557Y-13494209D01*
X13715271Y-13508494D01*
X13700986Y-13494209D01*
X13715271Y-13479923D01*
X13715271Y-13508494D01*
X13715271Y-13322780D02*
X13729557Y-13337066D01*
X13715271Y-13351351D01*
X13700986Y-13337066D01*
X13715271Y-13322780D01*
X13715271Y-13351351D01*
X11261700Y-13947780D02*
X11371700Y-14057780D01*
X11371700Y-13947780D02*
X11261700Y-14057780D01*
X11815271Y-14138494D02*
X11643843Y-14138494D01*
X11729557Y-14138494D02*
X11729557Y-13838494D01*
X11700986Y-13881351D01*
X11672414Y-13909923D01*
X11643843Y-13924209D01*
X11943843Y-14109923D02*
X11958128Y-14124209D01*
X11943843Y-14138494D01*
X11929557Y-14124209D01*
X11943843Y-14109923D01*
X11943843Y-14138494D01*
X12243843Y-14138494D02*
X12072414Y-14138494D01*
X12158128Y-14138494D02*
X12158128Y-13838494D01*
X12129557Y-13881351D01*
X12100986Y-13909923D01*
X12072414Y-13924209D01*
X12429557Y-13838494D02*
X12458128Y-13838494D01*
X12486700Y-13852780D01*
X12500986Y-13867066D01*
X12515271Y-13895637D01*
X12529557Y-13952780D01*
X12529557Y-14024209D01*
X12515271Y-14081351D01*
X12500986Y-14109923D01*
X12486700Y-14124209D01*
X12458128Y-14138494D01*
X12429557Y-14138494D01*
X12400986Y-14124209D01*
X12386700Y-14109923D01*
X12372414Y-14081351D01*
X12358128Y-14024209D01*
X12358128Y-13952780D01*
X12372414Y-13895637D01*
X12386700Y-13867066D01*
X12400986Y-13852780D01*
X12429557Y-13838494D01*
X12658128Y-14138494D02*
X12658128Y-13938494D01*
X12658128Y-13967066D02*
X12672414Y-13952780D01*
X12700986Y-13938494D01*
X12743843Y-13938494D01*
X12772414Y-13952780D01*
X12786700Y-13981351D01*
X12786700Y-14138494D01*
X12786700Y-13981351D02*
X12800986Y-13952780D01*
X12829557Y-13938494D01*
X12872414Y-13938494D01*
X12900986Y-13952780D01*
X12915271Y-13981351D01*
X12915271Y-14138494D01*
X13058128Y-14138494D02*
X13058128Y-13938494D01*
X13058128Y-13967066D02*
X13072414Y-13952780D01*
X13100986Y-13938494D01*
X13143843Y-13938494D01*
X13172414Y-13952780D01*
X13186700Y-13981351D01*
X13186700Y-14138494D01*
X13186700Y-13981351D02*
X13200986Y-13952780D01*
X13229557Y-13938494D01*
X13272414Y-13938494D01*
X13300986Y-13952780D01*
X13315271Y-13981351D01*
X13315271Y-14138494D01*
X13900986Y-13824209D02*
X13643843Y-14209923D01*
X14286700Y-13838494D02*
X14315271Y-13838494D01*
X14343843Y-13852780D01*
X14358128Y-13867066D01*
X14372414Y-13895637D01*
X14386700Y-13952780D01*
X14386700Y-14024209D01*
X14372414Y-14081351D01*
X14358128Y-14109923D01*
X14343843Y-14124209D01*
X14315271Y-14138494D01*
X14286700Y-14138494D01*
X14258128Y-14124209D01*
X14243843Y-14109923D01*
X14229557Y-14081351D01*
X14215271Y-14024209D01*
X14215271Y-13952780D01*
X14229557Y-13895637D01*
X14243843Y-13867066D01*
X14258128Y-13852780D01*
X14286700Y-13838494D01*
X14515271Y-14109923D02*
X14529557Y-14124209D01*
X14515271Y-14138494D01*
X14500986Y-14124209D01*
X14515271Y-14109923D01*
X14515271Y-14138494D01*
X14715271Y-13838494D02*
X14743843Y-13838494D01*
X14772414Y-13852780D01*
X14786700Y-13867066D01*
X14800986Y-13895637D01*
X14815271Y-13952780D01*
X14815271Y-14024209D01*
X14800986Y-14081351D01*
X14786700Y-14109923D01*
X14772414Y-14124209D01*
X14743843Y-14138494D01*
X14715271Y-14138494D01*
X14686700Y-14124209D01*
X14672414Y-14109923D01*
X14658128Y-14081351D01*
X14643843Y-14024209D01*
X14643843Y-13952780D01*
X14658128Y-13895637D01*
X14672414Y-13867066D01*
X14686700Y-13852780D01*
X14715271Y-13838494D01*
X15072414Y-13938494D02*
X15072414Y-14138494D01*
X15000986Y-13824209D02*
X14929557Y-14038494D01*
X15115271Y-14038494D01*
X15200986Y-13838494D02*
X15386700Y-13838494D01*
X15286700Y-13952780D01*
X15329557Y-13952780D01*
X15358128Y-13967066D01*
X15372414Y-13981351D01*
X15386700Y-14009923D01*
X15386700Y-14081351D01*
X15372414Y-14109923D01*
X15358128Y-14124209D01*
X15329557Y-14138494D01*
X15243843Y-14138494D01*
X15215271Y-14124209D01*
X15200986Y-14109923D01*
X15500986Y-13838494D02*
X15500986Y-13895637D01*
X15615271Y-13838494D02*
X15615271Y-13895637D01*
X16058128Y-14252780D02*
X16043843Y-14238494D01*
X16015271Y-14195637D01*
X16000986Y-14167066D01*
X15986700Y-14124209D01*
X15972414Y-14052780D01*
X15972414Y-13995637D01*
X15986700Y-13924209D01*
X16000986Y-13881351D01*
X16015271Y-13852780D01*
X16043843Y-13809923D01*
X16058128Y-13795637D01*
X16300986Y-13938494D02*
X16300986Y-14138494D01*
X16229557Y-13824209D02*
X16158128Y-14038494D01*
X16343843Y-14038494D01*
X16686700Y-14138494D02*
X16686700Y-13838494D01*
X16815271Y-14138494D02*
X16815271Y-13981351D01*
X16800986Y-13952780D01*
X16772414Y-13938494D01*
X16729557Y-13938494D01*
X16700986Y-13952780D01*
X16686700Y-13967066D01*
X17000986Y-14138494D02*
X16972414Y-14124209D01*
X16958128Y-14109923D01*
X16943843Y-14081351D01*
X16943843Y-13995637D01*
X16958128Y-13967066D01*
X16972414Y-13952780D01*
X17000986Y-13938494D01*
X17043843Y-13938494D01*
X17072414Y-13952780D01*
X17086700Y-13967066D01*
X17100986Y-13995637D01*
X17100986Y-14081351D01*
X17086700Y-14109923D01*
X17072414Y-14124209D01*
X17043843Y-14138494D01*
X17000986Y-14138494D01*
X17272414Y-14138494D02*
X17243843Y-14124209D01*
X17229557Y-14095637D01*
X17229557Y-13838494D01*
X17500986Y-14124209D02*
X17472414Y-14138494D01*
X17415271Y-14138494D01*
X17386700Y-14124209D01*
X17372414Y-14095637D01*
X17372414Y-13981351D01*
X17386700Y-13952780D01*
X17415271Y-13938494D01*
X17472414Y-13938494D01*
X17500986Y-13952780D01*
X17515271Y-13981351D01*
X17515271Y-14009923D01*
X17372414Y-14038494D01*
X17629557Y-14124209D02*
X17658128Y-14138494D01*
X17715271Y-14138494D01*
X17743843Y-14124209D01*
X17758128Y-14095637D01*
X17758128Y-14081351D01*
X17743843Y-14052780D01*
X17715271Y-14038494D01*
X17672414Y-14038494D01*
X17643843Y-14024209D01*
X17629557Y-13995637D01*
X17629557Y-13981351D01*
X17643843Y-13952780D01*
X17672414Y-13938494D01*
X17715271Y-13938494D01*
X17743843Y-13952780D01*
X17858128Y-14252780D02*
X17872414Y-14238494D01*
X17900986Y-14195637D01*
X17915271Y-14167066D01*
X17929557Y-14124209D01*
X17943843Y-14052780D01*
X17943843Y-13995637D01*
X17929557Y-13924209D01*
X17915271Y-13881351D01*
X17900986Y-13852780D01*
X17872414Y-13809923D01*
X17858128Y-13795637D01*
X18400986Y-14252780D02*
X18386700Y-14238494D01*
X18358128Y-14195637D01*
X18343843Y-14167066D01*
X18329557Y-14124209D01*
X18315271Y-14052780D01*
X18315271Y-13995637D01*
X18329557Y-13924209D01*
X18343843Y-13881351D01*
X18358128Y-13852780D01*
X18386700Y-13809923D01*
X18400986Y-13795637D01*
X18515271Y-13938494D02*
X18515271Y-14138494D01*
X18515271Y-13967066D02*
X18529557Y-13952780D01*
X18558128Y-13938494D01*
X18600986Y-13938494D01*
X18629557Y-13952780D01*
X18643843Y-13981351D01*
X18643843Y-14138494D01*
X18829557Y-14138494D02*
X18800986Y-14124209D01*
X18786700Y-14109923D01*
X18772414Y-14081351D01*
X18772414Y-13995637D01*
X18786700Y-13967066D01*
X18800986Y-13952780D01*
X18829557Y-13938494D01*
X18872414Y-13938494D01*
X18900986Y-13952780D01*
X18915271Y-13967066D01*
X18929557Y-13995637D01*
X18929557Y-14081351D01*
X18915271Y-14109923D01*
X18900986Y-14124209D01*
X18872414Y-14138494D01*
X18829557Y-14138494D01*
X19015271Y-13938494D02*
X19129557Y-13938494D01*
X19058128Y-13838494D02*
X19058128Y-14095637D01*
X19072414Y-14124209D01*
X19100986Y-14138494D01*
X19129557Y-14138494D01*
X19458128Y-13938494D02*
X19458128Y-14238494D01*
X19458128Y-13952780D02*
X19486700Y-13938494D01*
X19543843Y-13938494D01*
X19572414Y-13952780D01*
X19586700Y-13967066D01*
X19600986Y-13995637D01*
X19600986Y-14081351D01*
X19586700Y-14109923D01*
X19572414Y-14124209D01*
X19543843Y-14138494D01*
X19486700Y-14138494D01*
X19458128Y-14124209D01*
X19772414Y-14138494D02*
X19743843Y-14124209D01*
X19729557Y-14095637D01*
X19729557Y-13838494D01*
X20015271Y-14138494D02*
X20015271Y-13981351D01*
X20000986Y-13952780D01*
X19972414Y-13938494D01*
X19915271Y-13938494D01*
X19886700Y-13952780D01*
X20015271Y-14124209D02*
X19986700Y-14138494D01*
X19915271Y-14138494D01*
X19886700Y-14124209D01*
X19872414Y-14095637D01*
X19872414Y-14067066D01*
X19886700Y-14038494D01*
X19915271Y-14024209D01*
X19986700Y-14024209D01*
X20015271Y-14009923D01*
X20115271Y-13938494D02*
X20229557Y-13938494D01*
X20158128Y-13838494D02*
X20158128Y-14095637D01*
X20172414Y-14124209D01*
X20200986Y-14138494D01*
X20229557Y-14138494D01*
X20443843Y-14124209D02*
X20415271Y-14138494D01*
X20358128Y-14138494D01*
X20329557Y-14124209D01*
X20315271Y-14095637D01*
X20315271Y-13981351D01*
X20329557Y-13952780D01*
X20358128Y-13938494D01*
X20415271Y-13938494D01*
X20443843Y-13952780D01*
X20458128Y-13981351D01*
X20458128Y-14009923D01*
X20315271Y-14038494D01*
X20715271Y-14138494D02*
X20715271Y-13838494D01*
X20715271Y-14124209D02*
X20686700Y-14138494D01*
X20629557Y-14138494D01*
X20600986Y-14124209D01*
X20586700Y-14109923D01*
X20572414Y-14081351D01*
X20572414Y-13995637D01*
X20586700Y-13967066D01*
X20600986Y-13952780D01*
X20629557Y-13938494D01*
X20686700Y-13938494D01*
X20715271Y-13952780D01*
X20829557Y-14252780D02*
X20843843Y-14238494D01*
X20872414Y-14195637D01*
X20886700Y-14167066D01*
X20900986Y-14124209D01*
X20915271Y-14052780D01*
X20915271Y-13995637D01*
X20900986Y-13924209D01*
X20886700Y-13881351D01*
X20872414Y-13852780D01*
X20843843Y-13809923D01*
X20829557Y-13795637D01*
M02*
