G04 #@! TF.GenerationSoftware,KiCad,Pcbnew,(5.0.1)-4*
G04 #@! TF.CreationDate,2018-12-13T19:21:24-06:00*
G04 #@! TF.ProjectId,ExpansionUSB,457870616E73696F6E5553422E6B6963,rev?*
G04 #@! TF.SameCoordinates,Original*
G04 #@! TF.FileFunction,Copper,L1,Top,Signal*
G04 #@! TF.FilePolarity,Positive*
%FSLAX46Y46*%
G04 Gerber Fmt 4.6, Leading zero omitted, Abs format (unit mm)*
G04 Created by KiCad (PCBNEW (5.0.1)-4) date 13/12/2018 19:21:24*
%MOMM*%
%LPD*%
G01*
G04 APERTURE LIST*
G04 #@! TA.AperFunction,SMDPad,CuDef*
%ADD10R,0.750000X1.200000*%
G04 #@! TD*
G04 #@! TA.AperFunction,SMDPad,CuDef*
%ADD11R,0.600000X1.550000*%
G04 #@! TD*
G04 #@! TA.AperFunction,SMDPad,CuDef*
%ADD12R,2.500000X1.100000*%
G04 #@! TD*
G04 #@! TA.AperFunction,ComponentPad*
%ADD13O,3.500000X1.900000*%
G04 #@! TD*
G04 #@! TA.AperFunction,ComponentPad*
%ADD14C,1.501140*%
G04 #@! TD*
G04 #@! TA.AperFunction,ComponentPad*
%ADD15C,2.999740*%
G04 #@! TD*
G04 #@! TA.AperFunction,ComponentPad*
%ADD16C,1.524000*%
G04 #@! TD*
G04 #@! TA.AperFunction,ComponentPad*
%ADD17O,1.600000X1.600000*%
G04 #@! TD*
G04 #@! TA.AperFunction,ComponentPad*
%ADD18R,1.600000X1.600000*%
G04 #@! TD*
G04 #@! TA.AperFunction,ComponentPad*
%ADD19C,4.064000*%
G04 #@! TD*
G04 #@! TA.AperFunction,ViaPad*
%ADD20C,1.000000*%
G04 #@! TD*
G04 #@! TA.AperFunction,Conductor*
%ADD21C,0.700000*%
G04 #@! TD*
G04 #@! TA.AperFunction,Conductor*
%ADD22C,0.254000*%
G04 #@! TD*
G04 APERTURE END LIST*
D10*
G04 #@! TO.P,C3,1*
G04 #@! TO.N,GND*
X115418000Y-99482000D03*
G04 #@! TO.P,C3,2*
G04 #@! TO.N,+5V*
X115418000Y-101382000D03*
G04 #@! TD*
G04 #@! TO.P,C4,1*
G04 #@! TO.N,GND*
X118212000Y-99482000D03*
G04 #@! TO.P,C4,2*
G04 #@! TO.N,Net-(C4-Pad2)*
X118212000Y-101382000D03*
G04 #@! TD*
G04 #@! TO.P,C1,2*
G04 #@! TO.N,+5V*
X115418000Y-97317600D03*
G04 #@! TO.P,C1,1*
G04 #@! TO.N,GND*
X115418000Y-95417600D03*
G04 #@! TD*
G04 #@! TO.P,C2,2*
G04 #@! TO.N,Net-(C2-Pad2)*
X118212000Y-97317600D03*
G04 #@! TO.P,C2,1*
G04 #@! TO.N,GND*
X118212000Y-95417600D03*
G04 #@! TD*
D11*
G04 #@! TO.P,U1,1*
G04 #@! TO.N,+5V*
X119355000Y-87571600D03*
G04 #@! TO.P,U1,2*
X118085000Y-87571600D03*
G04 #@! TO.P,U1,3*
G04 #@! TO.N,Net-(J2-Pad1)*
X116815000Y-87571600D03*
G04 #@! TO.P,U1,4*
X115545000Y-87571600D03*
G04 #@! TO.P,U1,5*
G04 #@! TO.N,GND*
X115545000Y-92971600D03*
G04 #@! TO.P,U1,6*
G04 #@! TO.N,Net-(C2-Pad2)*
X116815000Y-92971600D03*
G04 #@! TO.P,U1,7*
G04 #@! TO.N,Net-(U1-Pad7)*
X118085000Y-92971600D03*
G04 #@! TO.P,U1,8*
G04 #@! TO.N,+5V*
X119355000Y-92971600D03*
G04 #@! TD*
D12*
G04 #@! TO.P,J1,2*
G04 #@! TO.N,N/C*
X119764000Y-74934300D03*
G04 #@! TO.P,J1,3*
X119764000Y-72934300D03*
G04 #@! TO.P,J1,1*
G04 #@! TO.N,+5V*
X119764000Y-77434300D03*
G04 #@! TO.P,J1,4*
G04 #@! TO.N,GND*
X119764000Y-70434300D03*
D13*
G04 #@! TO.P,J1,5*
G04 #@! TO.N,Net-(J1-Pad5)*
X117014000Y-79634300D03*
X117014000Y-68234300D03*
G04 #@! TD*
D14*
G04 #@! TO.P,J2,4*
G04 #@! TO.N,GND*
X154817680Y-71277480D03*
G04 #@! TO.P,J2,3*
G04 #@! TO.N,N/C*
X154817680Y-73776840D03*
G04 #@! TO.P,J2,2*
X154817680Y-75778360D03*
G04 #@! TO.P,J2,1*
G04 #@! TO.N,Net-(J2-Pad1)*
X154817680Y-78277720D03*
D15*
G04 #@! TO.P,J2,5*
G04 #@! TO.N,Net-(J1-Pad5)*
X157527860Y-68206620D03*
X157527860Y-81348580D03*
G04 #@! TD*
G04 #@! TO.P,J4,5*
G04 #@! TO.N,Net-(J3-Pad5)*
X157527860Y-128465980D03*
X157527860Y-115324020D03*
D14*
G04 #@! TO.P,J4,1*
G04 #@! TO.N,Net-(J4-Pad1)*
X154817680Y-125395120D03*
G04 #@! TO.P,J4,2*
G04 #@! TO.N,N/C*
X154817680Y-122895760D03*
G04 #@! TO.P,J4,3*
X154817680Y-120894240D03*
G04 #@! TO.P,J4,4*
G04 #@! TO.N,Net-(J3-Pad4)*
X154817680Y-118394880D03*
G04 #@! TD*
D16*
G04 #@! TO.P,U2,1*
G04 #@! TO.N,Net-(U2-Pad1)*
X123292000Y-80620000D03*
G04 #@! TO.P,U2,2*
G04 #@! TO.N,N/C*
X123292000Y-83160000D03*
G04 #@! TO.P,U2,3*
X123292000Y-85700000D03*
G04 #@! TO.P,U2,4*
X123292000Y-88240000D03*
G04 #@! TO.P,U2,5*
X123292000Y-90780000D03*
G04 #@! TO.P,U2,6*
X123292000Y-93320000D03*
G04 #@! TO.P,U2,7*
X123292000Y-95860000D03*
G04 #@! TO.P,U2,8*
X123292000Y-98400000D03*
G04 #@! TO.P,U2,9*
X123292000Y-100940000D03*
G04 #@! TO.P,U2,10*
G04 #@! TO.N,GND*
X123292000Y-103480000D03*
G04 #@! TO.P,U2,11*
G04 #@! TO.N,N/C*
X123292000Y-106020000D03*
G04 #@! TO.P,U2,12*
X123292000Y-108560000D03*
G04 #@! TO.P,U2,13*
X123292000Y-111100000D03*
G04 #@! TO.P,U2,14*
G04 #@! TO.N,GND*
X123292000Y-113640000D03*
G04 #@! TO.P,U2,15*
G04 #@! TO.N,+5V*
X123292000Y-116180000D03*
G04 #@! TO.P,U2,16*
G04 #@! TO.N,N/C*
X151232000Y-116180000D03*
G04 #@! TO.P,U2,17*
G04 #@! TO.N,GND*
X151232000Y-113640000D03*
G04 #@! TO.P,U2,18*
G04 #@! TO.N,N/C*
X151232000Y-111100000D03*
G04 #@! TO.P,U2,19*
X151232000Y-108560000D03*
G04 #@! TO.P,U2,20*
X151232000Y-106020000D03*
G04 #@! TO.P,U2,21*
X151232000Y-103480000D03*
G04 #@! TO.P,U2,22*
X151232000Y-100940000D03*
G04 #@! TO.P,U2,23*
X151232000Y-98400000D03*
G04 #@! TO.P,U2,24*
G04 #@! TO.N,GND*
X151232000Y-95860000D03*
G04 #@! TO.P,U2,25*
G04 #@! TO.N,N/C*
X151232000Y-93320000D03*
G04 #@! TO.P,U2,26*
X151232000Y-90780000D03*
G04 #@! TO.P,U2,27*
X151232000Y-88240000D03*
G04 #@! TO.P,U2,28*
X151232000Y-85700000D03*
G04 #@! TO.P,U2,29*
G04 #@! TO.N,Net-(U2-Pad29)*
X151232000Y-83160000D03*
G04 #@! TO.P,U2,30*
G04 #@! TO.N,Net-(U2-Pad30)*
X151232000Y-80620000D03*
G04 #@! TD*
D17*
G04 #@! TO.P,U3,16*
G04 #@! TO.N,+5V*
X164948000Y-89509600D03*
G04 #@! TO.P,U3,8*
G04 #@! TO.N,GND*
X157328000Y-107289600D03*
G04 #@! TO.P,U3,15*
G04 #@! TO.N,N/C*
X164948000Y-92049600D03*
G04 #@! TO.P,U3,7*
G04 #@! TO.N,GND*
X157328000Y-104749600D03*
G04 #@! TO.P,U3,14*
G04 #@! TO.N,Net-(U3-Pad14)*
X164948000Y-94589600D03*
G04 #@! TO.P,U3,6*
G04 #@! TO.N,GND*
X157328000Y-102209600D03*
G04 #@! TO.P,U3,13*
G04 #@! TO.N,Net-(U1-Pad7)*
X164948000Y-97129600D03*
G04 #@! TO.P,U3,5*
G04 #@! TO.N,N/C*
X157328000Y-99669600D03*
G04 #@! TO.P,U3,12*
X164948000Y-99669600D03*
G04 #@! TO.P,U3,4*
X157328000Y-97129600D03*
G04 #@! TO.P,U3,11*
G04 #@! TO.N,Net-(U2-Pad30)*
X164948000Y-102209600D03*
G04 #@! TO.P,U3,3*
G04 #@! TO.N,Net-(U2-Pad1)*
X157328000Y-94589600D03*
G04 #@! TO.P,U3,10*
G04 #@! TO.N,Net-(U2-Pad29)*
X164948000Y-104749600D03*
G04 #@! TO.P,U3,2*
G04 #@! TO.N,N/C*
X157328000Y-92049600D03*
G04 #@! TO.P,U3,9*
G04 #@! TO.N,GND*
X164948000Y-107289600D03*
D18*
G04 #@! TO.P,U3,1*
G04 #@! TO.N,N/C*
X157328000Y-89509600D03*
G04 #@! TD*
D11*
G04 #@! TO.P,U4,1*
G04 #@! TO.N,Net-(J3-Pad1)*
X119609000Y-103828000D03*
G04 #@! TO.P,U4,2*
X118339000Y-103828000D03*
G04 #@! TO.P,U4,3*
G04 #@! TO.N,Net-(J4-Pad1)*
X117069000Y-103828000D03*
G04 #@! TO.P,U4,4*
X115799000Y-103828000D03*
G04 #@! TO.P,U4,5*
G04 #@! TO.N,GND*
X115799000Y-109228000D03*
G04 #@! TO.P,U4,6*
G04 #@! TO.N,Net-(C4-Pad2)*
X117069000Y-109228000D03*
G04 #@! TO.P,U4,7*
G04 #@! TO.N,Net-(U3-Pad14)*
X118339000Y-109228000D03*
G04 #@! TO.P,U4,8*
G04 #@! TO.N,+5V*
X119609000Y-109228000D03*
G04 #@! TD*
D12*
G04 #@! TO.P,J3,2*
G04 #@! TO.N,N/C*
X119744000Y-123809000D03*
G04 #@! TO.P,J3,3*
X119744000Y-121809000D03*
G04 #@! TO.P,J3,1*
G04 #@! TO.N,Net-(J3-Pad1)*
X119744000Y-126309000D03*
G04 #@! TO.P,J3,4*
G04 #@! TO.N,Net-(J3-Pad4)*
X119744000Y-119309000D03*
D13*
G04 #@! TO.P,J3,5*
G04 #@! TO.N,Net-(J3-Pad5)*
X116994000Y-128509000D03*
X116994000Y-117109000D03*
G04 #@! TD*
D19*
G04 #@! TO.P,J5,1*
G04 #@! TO.N,N/C*
X116434000Y-83667600D03*
G04 #@! TD*
G04 #@! TO.P,J6,1*
G04 #@! TO.N,N/C*
X116434000Y-113132000D03*
G04 #@! TD*
G04 #@! TO.P,J7,1*
G04 #@! TO.N,N/C*
X164694000Y-85293200D03*
G04 #@! TD*
G04 #@! TO.P,J8,1*
G04 #@! TO.N,N/C*
X164694000Y-111608000D03*
G04 #@! TD*
D20*
G04 #@! TO.N,+5V*
X116815000Y-101929700D03*
G04 #@! TO.N,Net-(C2-Pad2)*
X119377500Y-97408100D03*
X116815000Y-91495900D03*
G04 #@! TO.N,Net-(U1-Pad7)*
X118303400Y-90160400D03*
G04 #@! TO.N,Net-(J2-Pad1)*
X116356900Y-89047000D03*
G04 #@! TO.N,Net-(J4-Pad1)*
X117069000Y-105303400D03*
G04 #@! TO.N,Net-(U3-Pad14)*
X158068600Y-112256300D03*
G04 #@! TO.N,Net-(J3-Pad1)*
X119067500Y-106402200D03*
X121772000Y-122010600D03*
G04 #@! TD*
D21*
G04 #@! TO.N,+5V*
X119355000Y-89046600D02*
X119355000Y-88309100D01*
X118085000Y-89046600D02*
X119355000Y-89046600D01*
X119355000Y-89046600D02*
X119355000Y-92971600D01*
X116343400Y-101382000D02*
X116815000Y-101853600D01*
X116815000Y-101853600D02*
X116815000Y-101929700D01*
X115418000Y-101382000D02*
X116343400Y-101382000D01*
X115418000Y-97317600D02*
X116343400Y-98243000D01*
X116343400Y-98243000D02*
X116343400Y-101382000D01*
X119609000Y-110703000D02*
X119783300Y-110877300D01*
X119783300Y-110877300D02*
X119783300Y-111352900D01*
X119783300Y-111352900D02*
X121019400Y-112589000D01*
X121019400Y-112589000D02*
X121019400Y-113247000D01*
X121019400Y-113247000D02*
X123296900Y-115524400D01*
X119609000Y-109228000D02*
X119609000Y-110703000D01*
X123292000Y-116180000D02*
X123296900Y-116175100D01*
X123296900Y-116175100D02*
X123296900Y-115524500D01*
X123296900Y-115524500D02*
X123296900Y-115524400D01*
X125535500Y-79307000D02*
X125535500Y-113285800D01*
X125535500Y-113285800D02*
X123296900Y-115524400D01*
X125535500Y-79307000D02*
X121964500Y-79307000D01*
X164948000Y-89509600D02*
X162763600Y-89509600D01*
X162763600Y-89509600D02*
X152561000Y-79307000D01*
X152561000Y-79307000D02*
X125535500Y-79307000D01*
X119764000Y-77434300D02*
X121714000Y-77434300D01*
X121964500Y-79307000D02*
X121964500Y-83487100D01*
X121964500Y-83487100D02*
X119355000Y-86096600D01*
X121714000Y-77434300D02*
X121714000Y-79056500D01*
X121714000Y-79056500D02*
X121964500Y-79307000D01*
X119355000Y-87571600D02*
X119355000Y-86096600D01*
X119355000Y-87571600D02*
X119355000Y-88309100D01*
X118085000Y-87571600D02*
X118085000Y-89046600D01*
G04 #@! TO.N,GND*
X115418000Y-95417600D02*
X114492600Y-96343000D01*
X114492600Y-96343000D02*
X114492600Y-98556600D01*
X114492600Y-98556600D02*
X115418000Y-99482000D01*
X115545000Y-94446600D02*
X115418000Y-94573600D01*
X115418000Y-94573600D02*
X115418000Y-95417600D01*
X115799000Y-107753000D02*
X114492600Y-106446600D01*
X114492600Y-106446600D02*
X114492600Y-100407400D01*
X114492600Y-100407400D02*
X115418000Y-99482000D01*
X115799000Y-109228000D02*
X115799000Y-107753000D01*
X154817700Y-71277500D02*
X167337400Y-83797200D01*
X167337400Y-83797200D02*
X167337400Y-104900200D01*
X167337400Y-104900200D02*
X164948000Y-107289600D01*
X119764000Y-70434300D02*
X153974500Y-70434300D01*
X153974500Y-70434300D02*
X154817700Y-71277500D01*
X115418000Y-95417600D02*
X116493000Y-95417600D01*
X116493000Y-95417600D02*
X116493000Y-95432900D01*
X116493000Y-95432900D02*
X117286600Y-96226500D01*
X117286600Y-96226500D02*
X117403100Y-96226500D01*
X117403100Y-96226500D02*
X118212000Y-95417600D01*
X118212000Y-99482000D02*
X117286600Y-98556600D01*
X117286600Y-98556600D02*
X117286600Y-96226500D01*
X118749500Y-99482000D02*
X118212000Y-99482000D01*
X118749500Y-99482000D02*
X119287000Y-99482000D01*
X123292000Y-103480000D02*
X123285000Y-103480000D01*
X123285000Y-103480000D02*
X119287000Y-99482000D01*
X123292000Y-113640000D02*
X123292000Y-112955900D01*
X123292000Y-112955900D02*
X123292100Y-112955900D01*
X123292100Y-112955900D02*
X124604300Y-111643700D01*
X124604300Y-111643700D02*
X124604300Y-105476300D01*
X124604300Y-105476300D02*
X123606500Y-104478500D01*
X123606500Y-104478500D02*
X123606400Y-104478500D01*
X123606400Y-104478500D02*
X123606400Y-103794400D01*
X123606400Y-103794400D02*
X123292000Y-103480000D01*
X115545000Y-92971600D02*
X115545000Y-94446600D01*
X157328000Y-104749600D02*
X157328000Y-107289600D01*
X157328000Y-102209600D02*
X157328000Y-104749600D01*
G04 #@! TO.N,Net-(C2-Pad2)*
X116815000Y-91496600D02*
X116815000Y-91495900D01*
X116815000Y-92971600D02*
X116815000Y-91496600D01*
X119377500Y-97408100D02*
X119287000Y-97317600D01*
X118212000Y-97317600D02*
X119287000Y-97317600D01*
G04 #@! TO.N,Net-(C4-Pad2)*
X118212000Y-101382000D02*
X119287000Y-101382000D01*
X117069000Y-109228000D02*
X117069000Y-107753000D01*
X117069000Y-107753000D02*
X119289500Y-107753000D01*
X119289500Y-107753000D02*
X120555700Y-106486800D01*
X120555700Y-106486800D02*
X120555700Y-102650700D01*
X120555700Y-102650700D02*
X119287000Y-101382000D01*
G04 #@! TO.N,Net-(U1-Pad7)*
X118085000Y-92971600D02*
X118085000Y-91496600D01*
X118303400Y-90160400D02*
X118303400Y-91278200D01*
X118303400Y-91278200D02*
X118085000Y-91496600D01*
G04 #@! TO.N,Net-(J2-Pad1)*
X116356900Y-89046600D02*
X116357300Y-89046600D01*
X116357300Y-89046600D02*
X116815000Y-88588900D01*
X115545000Y-89046600D02*
X116356900Y-89046600D01*
X116356900Y-89046600D02*
X116356900Y-89047000D01*
X116815000Y-87571600D02*
X116815000Y-88588900D01*
X115545000Y-87571600D02*
X115545000Y-89046600D01*
G04 #@! TO.N,Net-(J4-Pad1)*
X117069000Y-105303000D02*
X117069000Y-105303400D01*
X115799000Y-103828000D02*
X115799000Y-105303000D01*
X115799000Y-105303000D02*
X117069000Y-105303000D01*
X117069000Y-103828000D02*
X117069000Y-105303000D01*
G04 #@! TO.N,Net-(U2-Pad29)*
X164948000Y-104749600D02*
X159249200Y-99050800D01*
X159249200Y-99050800D02*
X159249200Y-89008000D01*
X159249200Y-89008000D02*
X153401200Y-83160000D01*
X153401200Y-83160000D02*
X151232000Y-83160000D01*
G04 #@! TO.N,Net-(U2-Pad30)*
X151232000Y-80620000D02*
X152157000Y-80620000D01*
X152157000Y-80620000D02*
X160918400Y-89381400D01*
X160918400Y-89381400D02*
X160918400Y-98180000D01*
X160918400Y-98180000D02*
X164948000Y-102209600D01*
G04 #@! TO.N,Net-(U3-Pad14)*
X118339000Y-109228000D02*
X118339000Y-111181900D01*
X118339000Y-111181900D02*
X119117700Y-111960600D01*
X119117700Y-111960600D02*
X119117700Y-113864400D01*
X119117700Y-113864400D02*
X122761300Y-117508000D01*
X122761300Y-117508000D02*
X152420700Y-117508000D01*
X152420700Y-117508000D02*
X157672400Y-112256300D01*
X157672400Y-112256300D02*
X158068600Y-112256300D01*
G04 #@! TO.N,Net-(J3-Pad1)*
X119067500Y-105303000D02*
X119609000Y-105303000D01*
X118339000Y-105303000D02*
X119067500Y-105303000D01*
X119067500Y-105303000D02*
X119067500Y-106402200D01*
X121694000Y-126309000D02*
X121694000Y-122088600D01*
X121694000Y-122088600D02*
X121772000Y-122010600D01*
X119744000Y-126309000D02*
X121694000Y-126309000D01*
X118339000Y-103828000D02*
X118339000Y-105303000D01*
X119609000Y-103828000D02*
X119609000Y-105303000D01*
G04 #@! TO.N,Net-(J3-Pad4)*
X154817700Y-118394900D02*
X153903600Y-119309000D01*
X153903600Y-119309000D02*
X121694000Y-119309000D01*
X119744000Y-119309000D02*
X121694000Y-119309000D01*
G04 #@! TO.N,Net-(J3-Pad5)*
X157527900Y-128466000D02*
X119487000Y-128466000D01*
X119487000Y-128466000D02*
X119444000Y-128509000D01*
X116994000Y-128509000D02*
X119444000Y-128509000D01*
X157527900Y-115324000D02*
X157527900Y-128466000D01*
X116994000Y-128509000D02*
X114544000Y-128509000D01*
X116994000Y-117109000D02*
X114544000Y-117109000D01*
X114544000Y-117109000D02*
X114544000Y-128509000D01*
G04 #@! TD*
D22*
G04 #@! TO.N,GND*
G36*
X115071279Y-67091579D02*
X114720964Y-67615864D01*
X114597949Y-68234300D01*
X114720964Y-68852736D01*
X115071279Y-69377021D01*
X115595564Y-69727336D01*
X116057897Y-69819300D01*
X117879000Y-69819300D01*
X117879000Y-70148550D01*
X118037750Y-70307300D01*
X119637000Y-70307300D01*
X119637000Y-69408050D01*
X119891000Y-69408050D01*
X119891000Y-70307300D01*
X121490250Y-70307300D01*
X121492000Y-70305550D01*
X154025355Y-70305550D01*
X154817680Y-71097875D01*
X155610005Y-70305550D01*
X155541945Y-70064549D01*
X155022646Y-69879713D01*
X154472142Y-69907675D01*
X154093415Y-70064549D01*
X154025355Y-70305550D01*
X121492000Y-70305550D01*
X121649000Y-70148550D01*
X121649000Y-69757990D01*
X121552327Y-69524601D01*
X121373698Y-69345973D01*
X121140309Y-69249300D01*
X120049750Y-69249300D01*
X119891000Y-69408050D01*
X119637000Y-69408050D01*
X119478250Y-69249300D01*
X119042061Y-69249300D01*
X119307036Y-68852736D01*
X119430051Y-68234300D01*
X119307036Y-67615864D01*
X118956721Y-67091579D01*
X118863663Y-67029400D01*
X155704713Y-67029400D01*
X155392990Y-67781968D01*
X155392990Y-68631272D01*
X155718004Y-69415927D01*
X156318553Y-70016476D01*
X157103208Y-70341490D01*
X157952512Y-70341490D01*
X158737167Y-70016476D01*
X159337716Y-69415927D01*
X159662730Y-68631272D01*
X159662730Y-67781968D01*
X159351007Y-67029400D01*
X167054965Y-67029400D01*
X167603043Y-67541888D01*
X167590457Y-129059140D01*
X167075007Y-129617545D01*
X159360090Y-129621272D01*
X159662730Y-128890632D01*
X159662730Y-128041328D01*
X159337716Y-127256673D01*
X158737167Y-126656124D01*
X158512900Y-126563230D01*
X158512900Y-117226770D01*
X158737167Y-117133876D01*
X159337716Y-116533327D01*
X159662730Y-115748672D01*
X159662730Y-114899368D01*
X159337716Y-114114713D01*
X158737167Y-113514164D01*
X158367456Y-113361025D01*
X158711526Y-113218507D01*
X159030807Y-112899226D01*
X159203600Y-112482066D01*
X159203600Y-112030534D01*
X159030807Y-111613374D01*
X158711526Y-111294093D01*
X158294366Y-111121300D01*
X157842834Y-111121300D01*
X157425674Y-111294093D01*
X157416952Y-111302815D01*
X157288072Y-111328451D01*
X156962255Y-111546155D01*
X156907302Y-111628398D01*
X152629000Y-115906700D01*
X152629000Y-115902119D01*
X152416320Y-115388663D01*
X152023337Y-114995680D01*
X151832353Y-114916572D01*
X151963143Y-114862397D01*
X152032608Y-114620213D01*
X151232000Y-113819605D01*
X150431392Y-114620213D01*
X150500857Y-114862397D01*
X150641393Y-114912535D01*
X150440663Y-114995680D01*
X150047680Y-115388663D01*
X149835000Y-115902119D01*
X149835000Y-116457881D01*
X149861973Y-116523000D01*
X124662027Y-116523000D01*
X124689000Y-116457881D01*
X124689000Y-115902119D01*
X124578632Y-115635668D01*
X126163402Y-114050898D01*
X126245645Y-113995945D01*
X126463349Y-113670128D01*
X126510655Y-113432302D01*
X149822856Y-113432302D01*
X149850638Y-113987368D01*
X150009603Y-114371143D01*
X150251787Y-114440608D01*
X151052395Y-113640000D01*
X151411605Y-113640000D01*
X152212213Y-114440608D01*
X152454397Y-114371143D01*
X152641144Y-113847698D01*
X152613362Y-113292632D01*
X152454397Y-112908857D01*
X152212213Y-112839392D01*
X151411605Y-113640000D01*
X151052395Y-113640000D01*
X150251787Y-112839392D01*
X150009603Y-112908857D01*
X149822856Y-113432302D01*
X126510655Y-113432302D01*
X126520500Y-113382812D01*
X126520500Y-113382808D01*
X126539796Y-113285801D01*
X126520500Y-113188794D01*
X126520500Y-98122119D01*
X149835000Y-98122119D01*
X149835000Y-98677881D01*
X150047680Y-99191337D01*
X150440663Y-99584320D01*
X150647513Y-99670000D01*
X150440663Y-99755680D01*
X150047680Y-100148663D01*
X149835000Y-100662119D01*
X149835000Y-101217881D01*
X150047680Y-101731337D01*
X150440663Y-102124320D01*
X150647513Y-102210000D01*
X150440663Y-102295680D01*
X150047680Y-102688663D01*
X149835000Y-103202119D01*
X149835000Y-103757881D01*
X150047680Y-104271337D01*
X150440663Y-104664320D01*
X150647513Y-104750000D01*
X150440663Y-104835680D01*
X150047680Y-105228663D01*
X149835000Y-105742119D01*
X149835000Y-106297881D01*
X150047680Y-106811337D01*
X150440663Y-107204320D01*
X150647513Y-107290000D01*
X150440663Y-107375680D01*
X150047680Y-107768663D01*
X149835000Y-108282119D01*
X149835000Y-108837881D01*
X150047680Y-109351337D01*
X150440663Y-109744320D01*
X150647513Y-109830000D01*
X150440663Y-109915680D01*
X150047680Y-110308663D01*
X149835000Y-110822119D01*
X149835000Y-111377881D01*
X150047680Y-111891337D01*
X150440663Y-112284320D01*
X150631647Y-112363428D01*
X150500857Y-112417603D01*
X150431392Y-112659787D01*
X151232000Y-113460395D01*
X152032608Y-112659787D01*
X151963143Y-112417603D01*
X151822607Y-112367465D01*
X152023337Y-112284320D01*
X152416320Y-111891337D01*
X152629000Y-111377881D01*
X152629000Y-111077501D01*
X162027000Y-111077501D01*
X162027000Y-112138499D01*
X162433026Y-113118734D01*
X163183266Y-113868974D01*
X164163501Y-114275000D01*
X165224499Y-114275000D01*
X166204734Y-113868974D01*
X166954974Y-113118734D01*
X167361000Y-112138499D01*
X167361000Y-111077501D01*
X166954974Y-110097266D01*
X166204734Y-109347026D01*
X165224499Y-108941000D01*
X164163501Y-108941000D01*
X163183266Y-109347026D01*
X162433026Y-110097266D01*
X162027000Y-111077501D01*
X152629000Y-111077501D01*
X152629000Y-110822119D01*
X152416320Y-110308663D01*
X152023337Y-109915680D01*
X151816487Y-109830000D01*
X152023337Y-109744320D01*
X152416320Y-109351337D01*
X152629000Y-108837881D01*
X152629000Y-108282119D01*
X152416320Y-107768663D01*
X152286296Y-107638639D01*
X155936096Y-107638639D01*
X156096959Y-108027023D01*
X156472866Y-108441989D01*
X156978959Y-108681514D01*
X157201000Y-108560229D01*
X157201000Y-107416600D01*
X157455000Y-107416600D01*
X157455000Y-108560229D01*
X157677041Y-108681514D01*
X158183134Y-108441989D01*
X158559041Y-108027023D01*
X158719904Y-107638639D01*
X163556096Y-107638639D01*
X163716959Y-108027023D01*
X164092866Y-108441989D01*
X164598959Y-108681514D01*
X164821000Y-108560229D01*
X164821000Y-107416600D01*
X165075000Y-107416600D01*
X165075000Y-108560229D01*
X165297041Y-108681514D01*
X165803134Y-108441989D01*
X166179041Y-108027023D01*
X166339904Y-107638639D01*
X166217915Y-107416600D01*
X165075000Y-107416600D01*
X164821000Y-107416600D01*
X163678085Y-107416600D01*
X163556096Y-107638639D01*
X158719904Y-107638639D01*
X158597915Y-107416600D01*
X157455000Y-107416600D01*
X157201000Y-107416600D01*
X156058085Y-107416600D01*
X155936096Y-107638639D01*
X152286296Y-107638639D01*
X152023337Y-107375680D01*
X151816487Y-107290000D01*
X152023337Y-107204320D01*
X152416320Y-106811337D01*
X152629000Y-106297881D01*
X152629000Y-105742119D01*
X152416320Y-105228663D01*
X152286296Y-105098639D01*
X155936096Y-105098639D01*
X156096959Y-105487023D01*
X156472866Y-105901989D01*
X156721367Y-106019600D01*
X156472866Y-106137211D01*
X156096959Y-106552177D01*
X155936096Y-106940561D01*
X156058085Y-107162600D01*
X157201000Y-107162600D01*
X157201000Y-104876600D01*
X157455000Y-104876600D01*
X157455000Y-107162600D01*
X158597915Y-107162600D01*
X158719904Y-106940561D01*
X158559041Y-106552177D01*
X158183134Y-106137211D01*
X157934633Y-106019600D01*
X158183134Y-105901989D01*
X158559041Y-105487023D01*
X158719904Y-105098639D01*
X158597915Y-104876600D01*
X157455000Y-104876600D01*
X157201000Y-104876600D01*
X156058085Y-104876600D01*
X155936096Y-105098639D01*
X152286296Y-105098639D01*
X152023337Y-104835680D01*
X151816487Y-104750000D01*
X152023337Y-104664320D01*
X152416320Y-104271337D01*
X152629000Y-103757881D01*
X152629000Y-103202119D01*
X152416320Y-102688663D01*
X152286296Y-102558639D01*
X155936096Y-102558639D01*
X156096959Y-102947023D01*
X156472866Y-103361989D01*
X156721367Y-103479600D01*
X156472866Y-103597211D01*
X156096959Y-104012177D01*
X155936096Y-104400561D01*
X156058085Y-104622600D01*
X157201000Y-104622600D01*
X157201000Y-102336600D01*
X157455000Y-102336600D01*
X157455000Y-104622600D01*
X158597915Y-104622600D01*
X158719904Y-104400561D01*
X158559041Y-104012177D01*
X158183134Y-103597211D01*
X157934633Y-103479600D01*
X158183134Y-103361989D01*
X158559041Y-102947023D01*
X158719904Y-102558639D01*
X158597915Y-102336600D01*
X157455000Y-102336600D01*
X157201000Y-102336600D01*
X156058085Y-102336600D01*
X155936096Y-102558639D01*
X152286296Y-102558639D01*
X152023337Y-102295680D01*
X151816487Y-102210000D01*
X152023337Y-102124320D01*
X152416320Y-101731337D01*
X152629000Y-101217881D01*
X152629000Y-100662119D01*
X152416320Y-100148663D01*
X152023337Y-99755680D01*
X151816487Y-99670000D01*
X152023337Y-99584320D01*
X152416320Y-99191337D01*
X152629000Y-98677881D01*
X152629000Y-98122119D01*
X152416320Y-97608663D01*
X152023337Y-97215680D01*
X151832353Y-97136572D01*
X151963143Y-97082397D01*
X152032608Y-96840213D01*
X151232000Y-96039605D01*
X150431392Y-96840213D01*
X150500857Y-97082397D01*
X150641393Y-97132535D01*
X150440663Y-97215680D01*
X150047680Y-97608663D01*
X149835000Y-98122119D01*
X126520500Y-98122119D01*
X126520500Y-95652302D01*
X149822856Y-95652302D01*
X149850638Y-96207368D01*
X150009603Y-96591143D01*
X150251787Y-96660608D01*
X151052395Y-95860000D01*
X151411605Y-95860000D01*
X152212213Y-96660608D01*
X152454397Y-96591143D01*
X152641144Y-96067698D01*
X152613362Y-95512632D01*
X152454397Y-95128857D01*
X152212213Y-95059392D01*
X151411605Y-95860000D01*
X151052395Y-95860000D01*
X150251787Y-95059392D01*
X150009603Y-95128857D01*
X149822856Y-95652302D01*
X126520500Y-95652302D01*
X126520500Y-80292000D01*
X149855760Y-80292000D01*
X149835000Y-80342119D01*
X149835000Y-80897881D01*
X150047680Y-81411337D01*
X150440663Y-81804320D01*
X150647513Y-81890000D01*
X150440663Y-81975680D01*
X150047680Y-82368663D01*
X149835000Y-82882119D01*
X149835000Y-83437881D01*
X150047680Y-83951337D01*
X150440663Y-84344320D01*
X150647513Y-84430000D01*
X150440663Y-84515680D01*
X150047680Y-84908663D01*
X149835000Y-85422119D01*
X149835000Y-85977881D01*
X150047680Y-86491337D01*
X150440663Y-86884320D01*
X150647513Y-86970000D01*
X150440663Y-87055680D01*
X150047680Y-87448663D01*
X149835000Y-87962119D01*
X149835000Y-88517881D01*
X150047680Y-89031337D01*
X150440663Y-89424320D01*
X150647513Y-89510000D01*
X150440663Y-89595680D01*
X150047680Y-89988663D01*
X149835000Y-90502119D01*
X149835000Y-91057881D01*
X150047680Y-91571337D01*
X150440663Y-91964320D01*
X150647513Y-92050000D01*
X150440663Y-92135680D01*
X150047680Y-92528663D01*
X149835000Y-93042119D01*
X149835000Y-93597881D01*
X150047680Y-94111337D01*
X150440663Y-94504320D01*
X150631647Y-94583428D01*
X150500857Y-94637603D01*
X150431392Y-94879787D01*
X151232000Y-95680395D01*
X152032608Y-94879787D01*
X151963143Y-94637603D01*
X151822607Y-94587465D01*
X152023337Y-94504320D01*
X152416320Y-94111337D01*
X152629000Y-93597881D01*
X152629000Y-93042119D01*
X152416320Y-92528663D01*
X152023337Y-92135680D01*
X151816487Y-92050000D01*
X152023337Y-91964320D01*
X152416320Y-91571337D01*
X152629000Y-91057881D01*
X152629000Y-90502119D01*
X152416320Y-89988663D01*
X152023337Y-89595680D01*
X151816487Y-89510000D01*
X152023337Y-89424320D01*
X152416320Y-89031337D01*
X152629000Y-88517881D01*
X152629000Y-87962119D01*
X152416320Y-87448663D01*
X152023337Y-87055680D01*
X151816487Y-86970000D01*
X152023337Y-86884320D01*
X152416320Y-86491337D01*
X152629000Y-85977881D01*
X152629000Y-85422119D01*
X152416320Y-84908663D01*
X152023337Y-84515680D01*
X151816487Y-84430000D01*
X152023337Y-84344320D01*
X152222657Y-84145000D01*
X152993200Y-84145000D01*
X156910359Y-88062160D01*
X156528000Y-88062160D01*
X156280235Y-88111443D01*
X156070191Y-88251791D01*
X155929843Y-88461835D01*
X155880560Y-88709600D01*
X155880560Y-90309600D01*
X155929843Y-90557365D01*
X156070191Y-90767409D01*
X156280235Y-90907757D01*
X156414106Y-90934385D01*
X156293423Y-91015023D01*
X155976260Y-91489691D01*
X155864887Y-92049600D01*
X155976260Y-92609509D01*
X156293423Y-93084177D01*
X156645758Y-93319600D01*
X156293423Y-93555023D01*
X155976260Y-94029691D01*
X155864887Y-94589600D01*
X155976260Y-95149509D01*
X156293423Y-95624177D01*
X156645758Y-95859600D01*
X156293423Y-96095023D01*
X155976260Y-96569691D01*
X155864887Y-97129600D01*
X155976260Y-97689509D01*
X156293423Y-98164177D01*
X156645758Y-98399600D01*
X156293423Y-98635023D01*
X155976260Y-99109691D01*
X155864887Y-99669600D01*
X155976260Y-100229509D01*
X156293423Y-100704177D01*
X156677108Y-100960547D01*
X156472866Y-101057211D01*
X156096959Y-101472177D01*
X155936096Y-101860561D01*
X156058085Y-102082600D01*
X157201000Y-102082600D01*
X157201000Y-102062600D01*
X157455000Y-102062600D01*
X157455000Y-102082600D01*
X158597915Y-102082600D01*
X158719904Y-101860561D01*
X158559041Y-101472177D01*
X158183134Y-101057211D01*
X157978892Y-100960547D01*
X158362577Y-100704177D01*
X158679740Y-100229509D01*
X158738666Y-99933266D01*
X163496520Y-104691120D01*
X163484887Y-104749600D01*
X163596260Y-105309509D01*
X163913423Y-105784177D01*
X164297108Y-106040547D01*
X164092866Y-106137211D01*
X163716959Y-106552177D01*
X163556096Y-106940561D01*
X163678085Y-107162600D01*
X164821000Y-107162600D01*
X164821000Y-107142600D01*
X165075000Y-107142600D01*
X165075000Y-107162600D01*
X166217915Y-107162600D01*
X166339904Y-106940561D01*
X166179041Y-106552177D01*
X165803134Y-106137211D01*
X165598892Y-106040547D01*
X165982577Y-105784177D01*
X166299740Y-105309509D01*
X166411113Y-104749600D01*
X166299740Y-104189691D01*
X165982577Y-103715023D01*
X165630242Y-103479600D01*
X165982577Y-103244177D01*
X166299740Y-102769509D01*
X166411113Y-102209600D01*
X166299740Y-101649691D01*
X165982577Y-101175023D01*
X165630242Y-100939600D01*
X165982577Y-100704177D01*
X166299740Y-100229509D01*
X166411113Y-99669600D01*
X166299740Y-99109691D01*
X165982577Y-98635023D01*
X165630242Y-98399600D01*
X165982577Y-98164177D01*
X166299740Y-97689509D01*
X166411113Y-97129600D01*
X166299740Y-96569691D01*
X165982577Y-96095023D01*
X165630242Y-95859600D01*
X165982577Y-95624177D01*
X166299740Y-95149509D01*
X166411113Y-94589600D01*
X166299740Y-94029691D01*
X165982577Y-93555023D01*
X165630242Y-93319600D01*
X165982577Y-93084177D01*
X166299740Y-92609509D01*
X166411113Y-92049600D01*
X166299740Y-91489691D01*
X165982577Y-91015023D01*
X165630242Y-90779600D01*
X165982577Y-90544177D01*
X166299740Y-90069509D01*
X166411113Y-89509600D01*
X166299740Y-88949691D01*
X165982577Y-88475023D01*
X165507909Y-88157860D01*
X165089333Y-88074600D01*
X164806667Y-88074600D01*
X164388091Y-88157860D01*
X163913423Y-88475023D01*
X163880297Y-88524600D01*
X163171600Y-88524600D01*
X159409701Y-84762701D01*
X162027000Y-84762701D01*
X162027000Y-85823699D01*
X162433026Y-86803934D01*
X163183266Y-87554174D01*
X164163501Y-87960200D01*
X165224499Y-87960200D01*
X166204734Y-87554174D01*
X166954974Y-86803934D01*
X167361000Y-85823699D01*
X167361000Y-84762701D01*
X166954974Y-83782466D01*
X166204734Y-83032226D01*
X165224499Y-82626200D01*
X164163501Y-82626200D01*
X163183266Y-83032226D01*
X162433026Y-83782466D01*
X162027000Y-84762701D01*
X159409701Y-84762701D01*
X158078333Y-83431333D01*
X158737167Y-83158436D01*
X159337716Y-82557887D01*
X159662730Y-81773232D01*
X159662730Y-80923928D01*
X159337716Y-80139273D01*
X158737167Y-79538724D01*
X157952512Y-79213710D01*
X157103208Y-79213710D01*
X156318553Y-79538724D01*
X155718004Y-80139273D01*
X155445107Y-80798107D01*
X154146395Y-79499395D01*
X154542073Y-79663290D01*
X155093287Y-79663290D01*
X155602542Y-79452350D01*
X155992310Y-79062582D01*
X156203250Y-78553327D01*
X156203250Y-78002113D01*
X155992310Y-77492858D01*
X155602542Y-77103090D01*
X155421355Y-77028040D01*
X155602542Y-76952990D01*
X155992310Y-76563222D01*
X156203250Y-76053967D01*
X156203250Y-75502753D01*
X155992310Y-74993498D01*
X155776412Y-74777600D01*
X155992310Y-74561702D01*
X156203250Y-74052447D01*
X156203250Y-73501233D01*
X155992310Y-72991978D01*
X155602542Y-72602210D01*
X155437290Y-72533761D01*
X155541945Y-72490411D01*
X155610005Y-72249410D01*
X154817680Y-71457085D01*
X154025355Y-72249410D01*
X154093415Y-72490411D01*
X154205990Y-72530480D01*
X154032818Y-72602210D01*
X153643050Y-72991978D01*
X153432110Y-73501233D01*
X153432110Y-74052447D01*
X153643050Y-74561702D01*
X153858948Y-74777600D01*
X153643050Y-74993498D01*
X153432110Y-75502753D01*
X153432110Y-76053967D01*
X153643050Y-76563222D01*
X154032818Y-76952990D01*
X154214005Y-77028040D01*
X154032818Y-77103090D01*
X153643050Y-77492858D01*
X153432110Y-78002113D01*
X153432110Y-78553327D01*
X153596005Y-78949005D01*
X153326098Y-78679098D01*
X153271145Y-78596855D01*
X152945328Y-78379151D01*
X152658012Y-78322000D01*
X152658008Y-78322000D01*
X152561000Y-78302704D01*
X152463992Y-78322000D01*
X125632512Y-78322000D01*
X125535500Y-78302703D01*
X125438488Y-78322000D01*
X122699000Y-78322000D01*
X122699000Y-77531312D01*
X122718297Y-77434300D01*
X122641849Y-77049972D01*
X122424145Y-76724155D01*
X122098328Y-76506451D01*
X121811012Y-76449300D01*
X121714000Y-76430003D01*
X121616988Y-76449300D01*
X121487050Y-76449300D01*
X121471809Y-76426491D01*
X121261765Y-76286143D01*
X121014000Y-76236860D01*
X118514000Y-76236860D01*
X118266235Y-76286143D01*
X118199000Y-76331068D01*
X118199000Y-76037532D01*
X118266235Y-76082457D01*
X118514000Y-76131740D01*
X121014000Y-76131740D01*
X121261765Y-76082457D01*
X121471809Y-75942109D01*
X121612157Y-75732065D01*
X121661440Y-75484300D01*
X121661440Y-74384300D01*
X121612157Y-74136535D01*
X121477027Y-73934300D01*
X121612157Y-73732065D01*
X121661440Y-73484300D01*
X121661440Y-72384300D01*
X121612157Y-72136535D01*
X121471809Y-71926491D01*
X121261765Y-71786143D01*
X121014000Y-71736860D01*
X118514000Y-71736860D01*
X118266235Y-71786143D01*
X118199000Y-71831068D01*
X118199000Y-71541142D01*
X118387691Y-71619300D01*
X119478250Y-71619300D01*
X119637000Y-71460550D01*
X119637000Y-70561300D01*
X119891000Y-70561300D01*
X119891000Y-71460550D01*
X120049750Y-71619300D01*
X121140309Y-71619300D01*
X121373698Y-71522627D01*
X121552327Y-71343999D01*
X121649000Y-71110610D01*
X121649000Y-71072514D01*
X153419913Y-71072514D01*
X153447875Y-71623018D01*
X153604749Y-72001745D01*
X153845750Y-72069805D01*
X154638075Y-71277480D01*
X154997285Y-71277480D01*
X155789610Y-72069805D01*
X156030611Y-72001745D01*
X156215447Y-71482446D01*
X156187485Y-70931942D01*
X156030611Y-70553215D01*
X155789610Y-70485155D01*
X154997285Y-71277480D01*
X154638075Y-71277480D01*
X153845750Y-70485155D01*
X153604749Y-70553215D01*
X153419913Y-71072514D01*
X121649000Y-71072514D01*
X121649000Y-70720050D01*
X121490250Y-70561300D01*
X119891000Y-70561300D01*
X119637000Y-70561300D01*
X118037750Y-70561300D01*
X117879000Y-70720050D01*
X117879000Y-70823456D01*
X117685249Y-70629705D01*
X117249711Y-70449300D01*
X116778289Y-70449300D01*
X116342751Y-70629705D01*
X116009405Y-70963051D01*
X115829000Y-71398589D01*
X115829000Y-71870011D01*
X116009405Y-72305549D01*
X116342751Y-72638895D01*
X116778289Y-72819300D01*
X117249711Y-72819300D01*
X117685249Y-72638895D01*
X117866560Y-72457584D01*
X117866560Y-73484300D01*
X117915843Y-73732065D01*
X118050973Y-73934300D01*
X117915843Y-74136535D01*
X117866560Y-74384300D01*
X117866560Y-75411016D01*
X117685249Y-75229705D01*
X117249711Y-75049300D01*
X116778289Y-75049300D01*
X116342751Y-75229705D01*
X116009405Y-75563051D01*
X115829000Y-75998589D01*
X115829000Y-76470011D01*
X116009405Y-76905549D01*
X116342751Y-77238895D01*
X116778289Y-77419300D01*
X117249711Y-77419300D01*
X117685249Y-77238895D01*
X117866560Y-77057584D01*
X117866560Y-77984300D01*
X117879489Y-78049300D01*
X116057897Y-78049300D01*
X115595564Y-78141264D01*
X115071279Y-78491579D01*
X114720964Y-79015864D01*
X114597949Y-79634300D01*
X114720964Y-80252736D01*
X115071279Y-80777021D01*
X115595564Y-81127336D01*
X115596894Y-81127601D01*
X114923266Y-81406626D01*
X114502000Y-81827892D01*
X114502000Y-67601411D01*
X115066678Y-67029400D01*
X115164337Y-67029400D01*
X115071279Y-67091579D01*
X115071279Y-67091579D01*
G37*
X115071279Y-67091579D02*
X114720964Y-67615864D01*
X114597949Y-68234300D01*
X114720964Y-68852736D01*
X115071279Y-69377021D01*
X115595564Y-69727336D01*
X116057897Y-69819300D01*
X117879000Y-69819300D01*
X117879000Y-70148550D01*
X118037750Y-70307300D01*
X119637000Y-70307300D01*
X119637000Y-69408050D01*
X119891000Y-69408050D01*
X119891000Y-70307300D01*
X121490250Y-70307300D01*
X121492000Y-70305550D01*
X154025355Y-70305550D01*
X154817680Y-71097875D01*
X155610005Y-70305550D01*
X155541945Y-70064549D01*
X155022646Y-69879713D01*
X154472142Y-69907675D01*
X154093415Y-70064549D01*
X154025355Y-70305550D01*
X121492000Y-70305550D01*
X121649000Y-70148550D01*
X121649000Y-69757990D01*
X121552327Y-69524601D01*
X121373698Y-69345973D01*
X121140309Y-69249300D01*
X120049750Y-69249300D01*
X119891000Y-69408050D01*
X119637000Y-69408050D01*
X119478250Y-69249300D01*
X119042061Y-69249300D01*
X119307036Y-68852736D01*
X119430051Y-68234300D01*
X119307036Y-67615864D01*
X118956721Y-67091579D01*
X118863663Y-67029400D01*
X155704713Y-67029400D01*
X155392990Y-67781968D01*
X155392990Y-68631272D01*
X155718004Y-69415927D01*
X156318553Y-70016476D01*
X157103208Y-70341490D01*
X157952512Y-70341490D01*
X158737167Y-70016476D01*
X159337716Y-69415927D01*
X159662730Y-68631272D01*
X159662730Y-67781968D01*
X159351007Y-67029400D01*
X167054965Y-67029400D01*
X167603043Y-67541888D01*
X167590457Y-129059140D01*
X167075007Y-129617545D01*
X159360090Y-129621272D01*
X159662730Y-128890632D01*
X159662730Y-128041328D01*
X159337716Y-127256673D01*
X158737167Y-126656124D01*
X158512900Y-126563230D01*
X158512900Y-117226770D01*
X158737167Y-117133876D01*
X159337716Y-116533327D01*
X159662730Y-115748672D01*
X159662730Y-114899368D01*
X159337716Y-114114713D01*
X158737167Y-113514164D01*
X158367456Y-113361025D01*
X158711526Y-113218507D01*
X159030807Y-112899226D01*
X159203600Y-112482066D01*
X159203600Y-112030534D01*
X159030807Y-111613374D01*
X158711526Y-111294093D01*
X158294366Y-111121300D01*
X157842834Y-111121300D01*
X157425674Y-111294093D01*
X157416952Y-111302815D01*
X157288072Y-111328451D01*
X156962255Y-111546155D01*
X156907302Y-111628398D01*
X152629000Y-115906700D01*
X152629000Y-115902119D01*
X152416320Y-115388663D01*
X152023337Y-114995680D01*
X151832353Y-114916572D01*
X151963143Y-114862397D01*
X152032608Y-114620213D01*
X151232000Y-113819605D01*
X150431392Y-114620213D01*
X150500857Y-114862397D01*
X150641393Y-114912535D01*
X150440663Y-114995680D01*
X150047680Y-115388663D01*
X149835000Y-115902119D01*
X149835000Y-116457881D01*
X149861973Y-116523000D01*
X124662027Y-116523000D01*
X124689000Y-116457881D01*
X124689000Y-115902119D01*
X124578632Y-115635668D01*
X126163402Y-114050898D01*
X126245645Y-113995945D01*
X126463349Y-113670128D01*
X126510655Y-113432302D01*
X149822856Y-113432302D01*
X149850638Y-113987368D01*
X150009603Y-114371143D01*
X150251787Y-114440608D01*
X151052395Y-113640000D01*
X151411605Y-113640000D01*
X152212213Y-114440608D01*
X152454397Y-114371143D01*
X152641144Y-113847698D01*
X152613362Y-113292632D01*
X152454397Y-112908857D01*
X152212213Y-112839392D01*
X151411605Y-113640000D01*
X151052395Y-113640000D01*
X150251787Y-112839392D01*
X150009603Y-112908857D01*
X149822856Y-113432302D01*
X126510655Y-113432302D01*
X126520500Y-113382812D01*
X126520500Y-113382808D01*
X126539796Y-113285801D01*
X126520500Y-113188794D01*
X126520500Y-98122119D01*
X149835000Y-98122119D01*
X149835000Y-98677881D01*
X150047680Y-99191337D01*
X150440663Y-99584320D01*
X150647513Y-99670000D01*
X150440663Y-99755680D01*
X150047680Y-100148663D01*
X149835000Y-100662119D01*
X149835000Y-101217881D01*
X150047680Y-101731337D01*
X150440663Y-102124320D01*
X150647513Y-102210000D01*
X150440663Y-102295680D01*
X150047680Y-102688663D01*
X149835000Y-103202119D01*
X149835000Y-103757881D01*
X150047680Y-104271337D01*
X150440663Y-104664320D01*
X150647513Y-104750000D01*
X150440663Y-104835680D01*
X150047680Y-105228663D01*
X149835000Y-105742119D01*
X149835000Y-106297881D01*
X150047680Y-106811337D01*
X150440663Y-107204320D01*
X150647513Y-107290000D01*
X150440663Y-107375680D01*
X150047680Y-107768663D01*
X149835000Y-108282119D01*
X149835000Y-108837881D01*
X150047680Y-109351337D01*
X150440663Y-109744320D01*
X150647513Y-109830000D01*
X150440663Y-109915680D01*
X150047680Y-110308663D01*
X149835000Y-110822119D01*
X149835000Y-111377881D01*
X150047680Y-111891337D01*
X150440663Y-112284320D01*
X150631647Y-112363428D01*
X150500857Y-112417603D01*
X150431392Y-112659787D01*
X151232000Y-113460395D01*
X152032608Y-112659787D01*
X151963143Y-112417603D01*
X151822607Y-112367465D01*
X152023337Y-112284320D01*
X152416320Y-111891337D01*
X152629000Y-111377881D01*
X152629000Y-111077501D01*
X162027000Y-111077501D01*
X162027000Y-112138499D01*
X162433026Y-113118734D01*
X163183266Y-113868974D01*
X164163501Y-114275000D01*
X165224499Y-114275000D01*
X166204734Y-113868974D01*
X166954974Y-113118734D01*
X167361000Y-112138499D01*
X167361000Y-111077501D01*
X166954974Y-110097266D01*
X166204734Y-109347026D01*
X165224499Y-108941000D01*
X164163501Y-108941000D01*
X163183266Y-109347026D01*
X162433026Y-110097266D01*
X162027000Y-111077501D01*
X152629000Y-111077501D01*
X152629000Y-110822119D01*
X152416320Y-110308663D01*
X152023337Y-109915680D01*
X151816487Y-109830000D01*
X152023337Y-109744320D01*
X152416320Y-109351337D01*
X152629000Y-108837881D01*
X152629000Y-108282119D01*
X152416320Y-107768663D01*
X152286296Y-107638639D01*
X155936096Y-107638639D01*
X156096959Y-108027023D01*
X156472866Y-108441989D01*
X156978959Y-108681514D01*
X157201000Y-108560229D01*
X157201000Y-107416600D01*
X157455000Y-107416600D01*
X157455000Y-108560229D01*
X157677041Y-108681514D01*
X158183134Y-108441989D01*
X158559041Y-108027023D01*
X158719904Y-107638639D01*
X163556096Y-107638639D01*
X163716959Y-108027023D01*
X164092866Y-108441989D01*
X164598959Y-108681514D01*
X164821000Y-108560229D01*
X164821000Y-107416600D01*
X165075000Y-107416600D01*
X165075000Y-108560229D01*
X165297041Y-108681514D01*
X165803134Y-108441989D01*
X166179041Y-108027023D01*
X166339904Y-107638639D01*
X166217915Y-107416600D01*
X165075000Y-107416600D01*
X164821000Y-107416600D01*
X163678085Y-107416600D01*
X163556096Y-107638639D01*
X158719904Y-107638639D01*
X158597915Y-107416600D01*
X157455000Y-107416600D01*
X157201000Y-107416600D01*
X156058085Y-107416600D01*
X155936096Y-107638639D01*
X152286296Y-107638639D01*
X152023337Y-107375680D01*
X151816487Y-107290000D01*
X152023337Y-107204320D01*
X152416320Y-106811337D01*
X152629000Y-106297881D01*
X152629000Y-105742119D01*
X152416320Y-105228663D01*
X152286296Y-105098639D01*
X155936096Y-105098639D01*
X156096959Y-105487023D01*
X156472866Y-105901989D01*
X156721367Y-106019600D01*
X156472866Y-106137211D01*
X156096959Y-106552177D01*
X155936096Y-106940561D01*
X156058085Y-107162600D01*
X157201000Y-107162600D01*
X157201000Y-104876600D01*
X157455000Y-104876600D01*
X157455000Y-107162600D01*
X158597915Y-107162600D01*
X158719904Y-106940561D01*
X158559041Y-106552177D01*
X158183134Y-106137211D01*
X157934633Y-106019600D01*
X158183134Y-105901989D01*
X158559041Y-105487023D01*
X158719904Y-105098639D01*
X158597915Y-104876600D01*
X157455000Y-104876600D01*
X157201000Y-104876600D01*
X156058085Y-104876600D01*
X155936096Y-105098639D01*
X152286296Y-105098639D01*
X152023337Y-104835680D01*
X151816487Y-104750000D01*
X152023337Y-104664320D01*
X152416320Y-104271337D01*
X152629000Y-103757881D01*
X152629000Y-103202119D01*
X152416320Y-102688663D01*
X152286296Y-102558639D01*
X155936096Y-102558639D01*
X156096959Y-102947023D01*
X156472866Y-103361989D01*
X156721367Y-103479600D01*
X156472866Y-103597211D01*
X156096959Y-104012177D01*
X155936096Y-104400561D01*
X156058085Y-104622600D01*
X157201000Y-104622600D01*
X157201000Y-102336600D01*
X157455000Y-102336600D01*
X157455000Y-104622600D01*
X158597915Y-104622600D01*
X158719904Y-104400561D01*
X158559041Y-104012177D01*
X158183134Y-103597211D01*
X157934633Y-103479600D01*
X158183134Y-103361989D01*
X158559041Y-102947023D01*
X158719904Y-102558639D01*
X158597915Y-102336600D01*
X157455000Y-102336600D01*
X157201000Y-102336600D01*
X156058085Y-102336600D01*
X155936096Y-102558639D01*
X152286296Y-102558639D01*
X152023337Y-102295680D01*
X151816487Y-102210000D01*
X152023337Y-102124320D01*
X152416320Y-101731337D01*
X152629000Y-101217881D01*
X152629000Y-100662119D01*
X152416320Y-100148663D01*
X152023337Y-99755680D01*
X151816487Y-99670000D01*
X152023337Y-99584320D01*
X152416320Y-99191337D01*
X152629000Y-98677881D01*
X152629000Y-98122119D01*
X152416320Y-97608663D01*
X152023337Y-97215680D01*
X151832353Y-97136572D01*
X151963143Y-97082397D01*
X152032608Y-96840213D01*
X151232000Y-96039605D01*
X150431392Y-96840213D01*
X150500857Y-97082397D01*
X150641393Y-97132535D01*
X150440663Y-97215680D01*
X150047680Y-97608663D01*
X149835000Y-98122119D01*
X126520500Y-98122119D01*
X126520500Y-95652302D01*
X149822856Y-95652302D01*
X149850638Y-96207368D01*
X150009603Y-96591143D01*
X150251787Y-96660608D01*
X151052395Y-95860000D01*
X151411605Y-95860000D01*
X152212213Y-96660608D01*
X152454397Y-96591143D01*
X152641144Y-96067698D01*
X152613362Y-95512632D01*
X152454397Y-95128857D01*
X152212213Y-95059392D01*
X151411605Y-95860000D01*
X151052395Y-95860000D01*
X150251787Y-95059392D01*
X150009603Y-95128857D01*
X149822856Y-95652302D01*
X126520500Y-95652302D01*
X126520500Y-80292000D01*
X149855760Y-80292000D01*
X149835000Y-80342119D01*
X149835000Y-80897881D01*
X150047680Y-81411337D01*
X150440663Y-81804320D01*
X150647513Y-81890000D01*
X150440663Y-81975680D01*
X150047680Y-82368663D01*
X149835000Y-82882119D01*
X149835000Y-83437881D01*
X150047680Y-83951337D01*
X150440663Y-84344320D01*
X150647513Y-84430000D01*
X150440663Y-84515680D01*
X150047680Y-84908663D01*
X149835000Y-85422119D01*
X149835000Y-85977881D01*
X150047680Y-86491337D01*
X150440663Y-86884320D01*
X150647513Y-86970000D01*
X150440663Y-87055680D01*
X150047680Y-87448663D01*
X149835000Y-87962119D01*
X149835000Y-88517881D01*
X150047680Y-89031337D01*
X150440663Y-89424320D01*
X150647513Y-89510000D01*
X150440663Y-89595680D01*
X150047680Y-89988663D01*
X149835000Y-90502119D01*
X149835000Y-91057881D01*
X150047680Y-91571337D01*
X150440663Y-91964320D01*
X150647513Y-92050000D01*
X150440663Y-92135680D01*
X150047680Y-92528663D01*
X149835000Y-93042119D01*
X149835000Y-93597881D01*
X150047680Y-94111337D01*
X150440663Y-94504320D01*
X150631647Y-94583428D01*
X150500857Y-94637603D01*
X150431392Y-94879787D01*
X151232000Y-95680395D01*
X152032608Y-94879787D01*
X151963143Y-94637603D01*
X151822607Y-94587465D01*
X152023337Y-94504320D01*
X152416320Y-94111337D01*
X152629000Y-93597881D01*
X152629000Y-93042119D01*
X152416320Y-92528663D01*
X152023337Y-92135680D01*
X151816487Y-92050000D01*
X152023337Y-91964320D01*
X152416320Y-91571337D01*
X152629000Y-91057881D01*
X152629000Y-90502119D01*
X152416320Y-89988663D01*
X152023337Y-89595680D01*
X151816487Y-89510000D01*
X152023337Y-89424320D01*
X152416320Y-89031337D01*
X152629000Y-88517881D01*
X152629000Y-87962119D01*
X152416320Y-87448663D01*
X152023337Y-87055680D01*
X151816487Y-86970000D01*
X152023337Y-86884320D01*
X152416320Y-86491337D01*
X152629000Y-85977881D01*
X152629000Y-85422119D01*
X152416320Y-84908663D01*
X152023337Y-84515680D01*
X151816487Y-84430000D01*
X152023337Y-84344320D01*
X152222657Y-84145000D01*
X152993200Y-84145000D01*
X156910359Y-88062160D01*
X156528000Y-88062160D01*
X156280235Y-88111443D01*
X156070191Y-88251791D01*
X155929843Y-88461835D01*
X155880560Y-88709600D01*
X155880560Y-90309600D01*
X155929843Y-90557365D01*
X156070191Y-90767409D01*
X156280235Y-90907757D01*
X156414106Y-90934385D01*
X156293423Y-91015023D01*
X155976260Y-91489691D01*
X155864887Y-92049600D01*
X155976260Y-92609509D01*
X156293423Y-93084177D01*
X156645758Y-93319600D01*
X156293423Y-93555023D01*
X155976260Y-94029691D01*
X155864887Y-94589600D01*
X155976260Y-95149509D01*
X156293423Y-95624177D01*
X156645758Y-95859600D01*
X156293423Y-96095023D01*
X155976260Y-96569691D01*
X155864887Y-97129600D01*
X155976260Y-97689509D01*
X156293423Y-98164177D01*
X156645758Y-98399600D01*
X156293423Y-98635023D01*
X155976260Y-99109691D01*
X155864887Y-99669600D01*
X155976260Y-100229509D01*
X156293423Y-100704177D01*
X156677108Y-100960547D01*
X156472866Y-101057211D01*
X156096959Y-101472177D01*
X155936096Y-101860561D01*
X156058085Y-102082600D01*
X157201000Y-102082600D01*
X157201000Y-102062600D01*
X157455000Y-102062600D01*
X157455000Y-102082600D01*
X158597915Y-102082600D01*
X158719904Y-101860561D01*
X158559041Y-101472177D01*
X158183134Y-101057211D01*
X157978892Y-100960547D01*
X158362577Y-100704177D01*
X158679740Y-100229509D01*
X158738666Y-99933266D01*
X163496520Y-104691120D01*
X163484887Y-104749600D01*
X163596260Y-105309509D01*
X163913423Y-105784177D01*
X164297108Y-106040547D01*
X164092866Y-106137211D01*
X163716959Y-106552177D01*
X163556096Y-106940561D01*
X163678085Y-107162600D01*
X164821000Y-107162600D01*
X164821000Y-107142600D01*
X165075000Y-107142600D01*
X165075000Y-107162600D01*
X166217915Y-107162600D01*
X166339904Y-106940561D01*
X166179041Y-106552177D01*
X165803134Y-106137211D01*
X165598892Y-106040547D01*
X165982577Y-105784177D01*
X166299740Y-105309509D01*
X166411113Y-104749600D01*
X166299740Y-104189691D01*
X165982577Y-103715023D01*
X165630242Y-103479600D01*
X165982577Y-103244177D01*
X166299740Y-102769509D01*
X166411113Y-102209600D01*
X166299740Y-101649691D01*
X165982577Y-101175023D01*
X165630242Y-100939600D01*
X165982577Y-100704177D01*
X166299740Y-100229509D01*
X166411113Y-99669600D01*
X166299740Y-99109691D01*
X165982577Y-98635023D01*
X165630242Y-98399600D01*
X165982577Y-98164177D01*
X166299740Y-97689509D01*
X166411113Y-97129600D01*
X166299740Y-96569691D01*
X165982577Y-96095023D01*
X165630242Y-95859600D01*
X165982577Y-95624177D01*
X166299740Y-95149509D01*
X166411113Y-94589600D01*
X166299740Y-94029691D01*
X165982577Y-93555023D01*
X165630242Y-93319600D01*
X165982577Y-93084177D01*
X166299740Y-92609509D01*
X166411113Y-92049600D01*
X166299740Y-91489691D01*
X165982577Y-91015023D01*
X165630242Y-90779600D01*
X165982577Y-90544177D01*
X166299740Y-90069509D01*
X166411113Y-89509600D01*
X166299740Y-88949691D01*
X165982577Y-88475023D01*
X165507909Y-88157860D01*
X165089333Y-88074600D01*
X164806667Y-88074600D01*
X164388091Y-88157860D01*
X163913423Y-88475023D01*
X163880297Y-88524600D01*
X163171600Y-88524600D01*
X159409701Y-84762701D01*
X162027000Y-84762701D01*
X162027000Y-85823699D01*
X162433026Y-86803934D01*
X163183266Y-87554174D01*
X164163501Y-87960200D01*
X165224499Y-87960200D01*
X166204734Y-87554174D01*
X166954974Y-86803934D01*
X167361000Y-85823699D01*
X167361000Y-84762701D01*
X166954974Y-83782466D01*
X166204734Y-83032226D01*
X165224499Y-82626200D01*
X164163501Y-82626200D01*
X163183266Y-83032226D01*
X162433026Y-83782466D01*
X162027000Y-84762701D01*
X159409701Y-84762701D01*
X158078333Y-83431333D01*
X158737167Y-83158436D01*
X159337716Y-82557887D01*
X159662730Y-81773232D01*
X159662730Y-80923928D01*
X159337716Y-80139273D01*
X158737167Y-79538724D01*
X157952512Y-79213710D01*
X157103208Y-79213710D01*
X156318553Y-79538724D01*
X155718004Y-80139273D01*
X155445107Y-80798107D01*
X154146395Y-79499395D01*
X154542073Y-79663290D01*
X155093287Y-79663290D01*
X155602542Y-79452350D01*
X155992310Y-79062582D01*
X156203250Y-78553327D01*
X156203250Y-78002113D01*
X155992310Y-77492858D01*
X155602542Y-77103090D01*
X155421355Y-77028040D01*
X155602542Y-76952990D01*
X155992310Y-76563222D01*
X156203250Y-76053967D01*
X156203250Y-75502753D01*
X155992310Y-74993498D01*
X155776412Y-74777600D01*
X155992310Y-74561702D01*
X156203250Y-74052447D01*
X156203250Y-73501233D01*
X155992310Y-72991978D01*
X155602542Y-72602210D01*
X155437290Y-72533761D01*
X155541945Y-72490411D01*
X155610005Y-72249410D01*
X154817680Y-71457085D01*
X154025355Y-72249410D01*
X154093415Y-72490411D01*
X154205990Y-72530480D01*
X154032818Y-72602210D01*
X153643050Y-72991978D01*
X153432110Y-73501233D01*
X153432110Y-74052447D01*
X153643050Y-74561702D01*
X153858948Y-74777600D01*
X153643050Y-74993498D01*
X153432110Y-75502753D01*
X153432110Y-76053967D01*
X153643050Y-76563222D01*
X154032818Y-76952990D01*
X154214005Y-77028040D01*
X154032818Y-77103090D01*
X153643050Y-77492858D01*
X153432110Y-78002113D01*
X153432110Y-78553327D01*
X153596005Y-78949005D01*
X153326098Y-78679098D01*
X153271145Y-78596855D01*
X152945328Y-78379151D01*
X152658012Y-78322000D01*
X152658008Y-78322000D01*
X152561000Y-78302704D01*
X152463992Y-78322000D01*
X125632512Y-78322000D01*
X125535500Y-78302703D01*
X125438488Y-78322000D01*
X122699000Y-78322000D01*
X122699000Y-77531312D01*
X122718297Y-77434300D01*
X122641849Y-77049972D01*
X122424145Y-76724155D01*
X122098328Y-76506451D01*
X121811012Y-76449300D01*
X121714000Y-76430003D01*
X121616988Y-76449300D01*
X121487050Y-76449300D01*
X121471809Y-76426491D01*
X121261765Y-76286143D01*
X121014000Y-76236860D01*
X118514000Y-76236860D01*
X118266235Y-76286143D01*
X118199000Y-76331068D01*
X118199000Y-76037532D01*
X118266235Y-76082457D01*
X118514000Y-76131740D01*
X121014000Y-76131740D01*
X121261765Y-76082457D01*
X121471809Y-75942109D01*
X121612157Y-75732065D01*
X121661440Y-75484300D01*
X121661440Y-74384300D01*
X121612157Y-74136535D01*
X121477027Y-73934300D01*
X121612157Y-73732065D01*
X121661440Y-73484300D01*
X121661440Y-72384300D01*
X121612157Y-72136535D01*
X121471809Y-71926491D01*
X121261765Y-71786143D01*
X121014000Y-71736860D01*
X118514000Y-71736860D01*
X118266235Y-71786143D01*
X118199000Y-71831068D01*
X118199000Y-71541142D01*
X118387691Y-71619300D01*
X119478250Y-71619300D01*
X119637000Y-71460550D01*
X119637000Y-70561300D01*
X119891000Y-70561300D01*
X119891000Y-71460550D01*
X120049750Y-71619300D01*
X121140309Y-71619300D01*
X121373698Y-71522627D01*
X121552327Y-71343999D01*
X121649000Y-71110610D01*
X121649000Y-71072514D01*
X153419913Y-71072514D01*
X153447875Y-71623018D01*
X153604749Y-72001745D01*
X153845750Y-72069805D01*
X154638075Y-71277480D01*
X154997285Y-71277480D01*
X155789610Y-72069805D01*
X156030611Y-72001745D01*
X156215447Y-71482446D01*
X156187485Y-70931942D01*
X156030611Y-70553215D01*
X155789610Y-70485155D01*
X154997285Y-71277480D01*
X154638075Y-71277480D01*
X153845750Y-70485155D01*
X153604749Y-70553215D01*
X153419913Y-71072514D01*
X121649000Y-71072514D01*
X121649000Y-70720050D01*
X121490250Y-70561300D01*
X119891000Y-70561300D01*
X119637000Y-70561300D01*
X118037750Y-70561300D01*
X117879000Y-70720050D01*
X117879000Y-70823456D01*
X117685249Y-70629705D01*
X117249711Y-70449300D01*
X116778289Y-70449300D01*
X116342751Y-70629705D01*
X116009405Y-70963051D01*
X115829000Y-71398589D01*
X115829000Y-71870011D01*
X116009405Y-72305549D01*
X116342751Y-72638895D01*
X116778289Y-72819300D01*
X117249711Y-72819300D01*
X117685249Y-72638895D01*
X117866560Y-72457584D01*
X117866560Y-73484300D01*
X117915843Y-73732065D01*
X118050973Y-73934300D01*
X117915843Y-74136535D01*
X117866560Y-74384300D01*
X117866560Y-75411016D01*
X117685249Y-75229705D01*
X117249711Y-75049300D01*
X116778289Y-75049300D01*
X116342751Y-75229705D01*
X116009405Y-75563051D01*
X115829000Y-75998589D01*
X115829000Y-76470011D01*
X116009405Y-76905549D01*
X116342751Y-77238895D01*
X116778289Y-77419300D01*
X117249711Y-77419300D01*
X117685249Y-77238895D01*
X117866560Y-77057584D01*
X117866560Y-77984300D01*
X117879489Y-78049300D01*
X116057897Y-78049300D01*
X115595564Y-78141264D01*
X115071279Y-78491579D01*
X114720964Y-79015864D01*
X114597949Y-79634300D01*
X114720964Y-80252736D01*
X115071279Y-80777021D01*
X115595564Y-81127336D01*
X115596894Y-81127601D01*
X114923266Y-81406626D01*
X114502000Y-81827892D01*
X114502000Y-67601411D01*
X115066678Y-67029400D01*
X115164337Y-67029400D01*
X115071279Y-67091579D01*
G36*
X122500663Y-84344320D02*
X122707513Y-84430000D01*
X122500663Y-84515680D01*
X122107680Y-84908663D01*
X121895000Y-85422119D01*
X121895000Y-85977881D01*
X122107680Y-86491337D01*
X122500663Y-86884320D01*
X122707513Y-86970000D01*
X122500663Y-87055680D01*
X122107680Y-87448663D01*
X121895000Y-87962119D01*
X121895000Y-88517881D01*
X122107680Y-89031337D01*
X122500663Y-89424320D01*
X122707513Y-89510000D01*
X122500663Y-89595680D01*
X122107680Y-89988663D01*
X121895000Y-90502119D01*
X121895000Y-91057881D01*
X122107680Y-91571337D01*
X122500663Y-91964320D01*
X122707513Y-92050000D01*
X122500663Y-92135680D01*
X122107680Y-92528663D01*
X121895000Y-93042119D01*
X121895000Y-93597881D01*
X122107680Y-94111337D01*
X122500663Y-94504320D01*
X122707513Y-94590000D01*
X122500663Y-94675680D01*
X122107680Y-95068663D01*
X121895000Y-95582119D01*
X121895000Y-96137881D01*
X122107680Y-96651337D01*
X122500663Y-97044320D01*
X122707513Y-97130000D01*
X122500663Y-97215680D01*
X122107680Y-97608663D01*
X121895000Y-98122119D01*
X121895000Y-98677881D01*
X122107680Y-99191337D01*
X122500663Y-99584320D01*
X122707513Y-99670000D01*
X122500663Y-99755680D01*
X122107680Y-100148663D01*
X121895000Y-100662119D01*
X121895000Y-101217881D01*
X122107680Y-101731337D01*
X122500663Y-102124320D01*
X122691647Y-102203428D01*
X122560857Y-102257603D01*
X122491392Y-102499787D01*
X123292000Y-103300395D01*
X124092608Y-102499787D01*
X124023143Y-102257603D01*
X123882607Y-102207465D01*
X124083337Y-102124320D01*
X124476320Y-101731337D01*
X124550501Y-101552249D01*
X124550501Y-102836019D01*
X124514397Y-102748857D01*
X124272213Y-102679392D01*
X123471605Y-103480000D01*
X124272213Y-104280608D01*
X124514397Y-104211143D01*
X124550501Y-104109946D01*
X124550501Y-105407752D01*
X124476320Y-105228663D01*
X124083337Y-104835680D01*
X123892353Y-104756572D01*
X124023143Y-104702397D01*
X124092608Y-104460213D01*
X123292000Y-103659605D01*
X122491392Y-104460213D01*
X122560857Y-104702397D01*
X122701393Y-104752535D01*
X122500663Y-104835680D01*
X122107680Y-105228663D01*
X121895000Y-105742119D01*
X121895000Y-106297881D01*
X122107680Y-106811337D01*
X122500663Y-107204320D01*
X122707513Y-107290000D01*
X122500663Y-107375680D01*
X122107680Y-107768663D01*
X121895000Y-108282119D01*
X121895000Y-108837881D01*
X122107680Y-109351337D01*
X122500663Y-109744320D01*
X122707513Y-109830000D01*
X122500663Y-109915680D01*
X122107680Y-110308663D01*
X121895000Y-110822119D01*
X121895000Y-111377881D01*
X122107680Y-111891337D01*
X122500663Y-112284320D01*
X122691647Y-112363428D01*
X122560857Y-112417603D01*
X122491392Y-112659787D01*
X123292000Y-113460395D01*
X124092608Y-112659787D01*
X124023143Y-112417603D01*
X123882607Y-112367465D01*
X124083337Y-112284320D01*
X124476320Y-111891337D01*
X124550501Y-111712248D01*
X124550501Y-112877799D01*
X124515875Y-112912425D01*
X124514397Y-112908857D01*
X124272213Y-112839392D01*
X123471605Y-113640000D01*
X123485748Y-113654143D01*
X123306143Y-113833748D01*
X123292000Y-113819605D01*
X123277858Y-113833748D01*
X123098253Y-113654143D01*
X123112395Y-113640000D01*
X122311787Y-112839392D01*
X122073231Y-112907816D01*
X122004400Y-112838988D01*
X122004400Y-112686006D01*
X122023696Y-112588999D01*
X122004400Y-112491992D01*
X122004400Y-112491988D01*
X121947249Y-112204672D01*
X121729545Y-111878855D01*
X121647302Y-111823902D01*
X120773179Y-110949779D01*
X120787596Y-110877299D01*
X120768300Y-110780292D01*
X120768300Y-110780288D01*
X120711149Y-110492972D01*
X120594000Y-110317646D01*
X120594000Y-109130988D01*
X120556440Y-108942162D01*
X120556440Y-108453000D01*
X120507157Y-108205235D01*
X120396249Y-108039251D01*
X121183602Y-107251898D01*
X121265845Y-107196945D01*
X121483549Y-106871128D01*
X121540700Y-106583812D01*
X121540700Y-106583809D01*
X121559996Y-106486801D01*
X121540700Y-106389793D01*
X121540700Y-103272302D01*
X121882856Y-103272302D01*
X121910638Y-103827368D01*
X122069603Y-104211143D01*
X122311787Y-104280608D01*
X123112395Y-103480000D01*
X122311787Y-102679392D01*
X122069603Y-102748857D01*
X121882856Y-103272302D01*
X121540700Y-103272302D01*
X121540700Y-102747708D01*
X121559996Y-102650700D01*
X121540700Y-102553692D01*
X121540700Y-102553688D01*
X121483549Y-102266372D01*
X121371473Y-102098638D01*
X121320798Y-102022797D01*
X121320796Y-102022795D01*
X121265845Y-101940555D01*
X121183605Y-101885604D01*
X120052098Y-100754098D01*
X119997145Y-100671855D01*
X119671328Y-100454151D01*
X119384012Y-100397000D01*
X119384008Y-100397000D01*
X119287000Y-100377704D01*
X119189992Y-100397000D01*
X119143842Y-100397000D01*
X119222000Y-100208309D01*
X119222000Y-99767750D01*
X119063250Y-99609000D01*
X118339000Y-99609000D01*
X118339000Y-99629000D01*
X118085000Y-99629000D01*
X118085000Y-99609000D01*
X118065000Y-99609000D01*
X118065000Y-99355000D01*
X118085000Y-99355000D01*
X118085000Y-99335000D01*
X118339000Y-99335000D01*
X118339000Y-99355000D01*
X119063250Y-99355000D01*
X119222000Y-99196250D01*
X119222000Y-98755691D01*
X119130257Y-98534204D01*
X119151734Y-98543100D01*
X119603266Y-98543100D01*
X120020426Y-98370307D01*
X120339707Y-98051026D01*
X120512500Y-97633866D01*
X120512500Y-97182334D01*
X120339707Y-96765174D01*
X120020426Y-96445893D01*
X119603266Y-96273100D01*
X119168487Y-96273100D01*
X119222000Y-96143909D01*
X119222000Y-95703350D01*
X119063250Y-95544600D01*
X118339000Y-95544600D01*
X118339000Y-95564600D01*
X118085000Y-95564600D01*
X118085000Y-95544600D01*
X117360750Y-95544600D01*
X117202000Y-95703350D01*
X117202000Y-96143909D01*
X117298673Y-96377298D01*
X117299873Y-96378498D01*
X117238843Y-96469835D01*
X117189560Y-96717600D01*
X117189560Y-97736416D01*
X117053545Y-97532855D01*
X116971302Y-97477902D01*
X116440440Y-96947040D01*
X116440440Y-96717600D01*
X116391157Y-96469835D01*
X116330127Y-96378498D01*
X116331327Y-96377298D01*
X116428000Y-96143909D01*
X116428000Y-95703350D01*
X116269250Y-95544600D01*
X115545000Y-95544600D01*
X115545000Y-95564600D01*
X115291000Y-95564600D01*
X115291000Y-95544600D01*
X115271000Y-95544600D01*
X115271000Y-95290600D01*
X115291000Y-95290600D01*
X115291000Y-94349850D01*
X115417998Y-94222852D01*
X115417998Y-94381600D01*
X115545000Y-94381600D01*
X115545000Y-95290600D01*
X116269250Y-95290600D01*
X116428000Y-95131850D01*
X116428000Y-94691291D01*
X116331327Y-94457902D01*
X116171927Y-94298501D01*
X116188028Y-94291832D01*
X116267235Y-94344757D01*
X116515000Y-94394040D01*
X117115000Y-94394040D01*
X117362765Y-94344757D01*
X117450000Y-94286468D01*
X117462053Y-94294521D01*
X117298673Y-94457902D01*
X117202000Y-94691291D01*
X117202000Y-95131850D01*
X117360750Y-95290600D01*
X118085000Y-95290600D01*
X118085000Y-95270600D01*
X118339000Y-95270600D01*
X118339000Y-95290600D01*
X119063250Y-95290600D01*
X119222000Y-95131850D01*
X119222000Y-94691291D01*
X119125327Y-94457902D01*
X119061465Y-94394040D01*
X119655000Y-94394040D01*
X119902765Y-94344757D01*
X120112809Y-94204409D01*
X120253157Y-93994365D01*
X120302440Y-93746600D01*
X120302440Y-93257438D01*
X120340000Y-93068612D01*
X120340000Y-89143611D01*
X120359297Y-89046600D01*
X120340000Y-88949588D01*
X120340000Y-86504600D01*
X122500472Y-84344129D01*
X122500663Y-84344320D01*
X122500663Y-84344320D01*
G37*
X122500663Y-84344320D02*
X122707513Y-84430000D01*
X122500663Y-84515680D01*
X122107680Y-84908663D01*
X121895000Y-85422119D01*
X121895000Y-85977881D01*
X122107680Y-86491337D01*
X122500663Y-86884320D01*
X122707513Y-86970000D01*
X122500663Y-87055680D01*
X122107680Y-87448663D01*
X121895000Y-87962119D01*
X121895000Y-88517881D01*
X122107680Y-89031337D01*
X122500663Y-89424320D01*
X122707513Y-89510000D01*
X122500663Y-89595680D01*
X122107680Y-89988663D01*
X121895000Y-90502119D01*
X121895000Y-91057881D01*
X122107680Y-91571337D01*
X122500663Y-91964320D01*
X122707513Y-92050000D01*
X122500663Y-92135680D01*
X122107680Y-92528663D01*
X121895000Y-93042119D01*
X121895000Y-93597881D01*
X122107680Y-94111337D01*
X122500663Y-94504320D01*
X122707513Y-94590000D01*
X122500663Y-94675680D01*
X122107680Y-95068663D01*
X121895000Y-95582119D01*
X121895000Y-96137881D01*
X122107680Y-96651337D01*
X122500663Y-97044320D01*
X122707513Y-97130000D01*
X122500663Y-97215680D01*
X122107680Y-97608663D01*
X121895000Y-98122119D01*
X121895000Y-98677881D01*
X122107680Y-99191337D01*
X122500663Y-99584320D01*
X122707513Y-99670000D01*
X122500663Y-99755680D01*
X122107680Y-100148663D01*
X121895000Y-100662119D01*
X121895000Y-101217881D01*
X122107680Y-101731337D01*
X122500663Y-102124320D01*
X122691647Y-102203428D01*
X122560857Y-102257603D01*
X122491392Y-102499787D01*
X123292000Y-103300395D01*
X124092608Y-102499787D01*
X124023143Y-102257603D01*
X123882607Y-102207465D01*
X124083337Y-102124320D01*
X124476320Y-101731337D01*
X124550501Y-101552249D01*
X124550501Y-102836019D01*
X124514397Y-102748857D01*
X124272213Y-102679392D01*
X123471605Y-103480000D01*
X124272213Y-104280608D01*
X124514397Y-104211143D01*
X124550501Y-104109946D01*
X124550501Y-105407752D01*
X124476320Y-105228663D01*
X124083337Y-104835680D01*
X123892353Y-104756572D01*
X124023143Y-104702397D01*
X124092608Y-104460213D01*
X123292000Y-103659605D01*
X122491392Y-104460213D01*
X122560857Y-104702397D01*
X122701393Y-104752535D01*
X122500663Y-104835680D01*
X122107680Y-105228663D01*
X121895000Y-105742119D01*
X121895000Y-106297881D01*
X122107680Y-106811337D01*
X122500663Y-107204320D01*
X122707513Y-107290000D01*
X122500663Y-107375680D01*
X122107680Y-107768663D01*
X121895000Y-108282119D01*
X121895000Y-108837881D01*
X122107680Y-109351337D01*
X122500663Y-109744320D01*
X122707513Y-109830000D01*
X122500663Y-109915680D01*
X122107680Y-110308663D01*
X121895000Y-110822119D01*
X121895000Y-111377881D01*
X122107680Y-111891337D01*
X122500663Y-112284320D01*
X122691647Y-112363428D01*
X122560857Y-112417603D01*
X122491392Y-112659787D01*
X123292000Y-113460395D01*
X124092608Y-112659787D01*
X124023143Y-112417603D01*
X123882607Y-112367465D01*
X124083337Y-112284320D01*
X124476320Y-111891337D01*
X124550501Y-111712248D01*
X124550501Y-112877799D01*
X124515875Y-112912425D01*
X124514397Y-112908857D01*
X124272213Y-112839392D01*
X123471605Y-113640000D01*
X123485748Y-113654143D01*
X123306143Y-113833748D01*
X123292000Y-113819605D01*
X123277858Y-113833748D01*
X123098253Y-113654143D01*
X123112395Y-113640000D01*
X122311787Y-112839392D01*
X122073231Y-112907816D01*
X122004400Y-112838988D01*
X122004400Y-112686006D01*
X122023696Y-112588999D01*
X122004400Y-112491992D01*
X122004400Y-112491988D01*
X121947249Y-112204672D01*
X121729545Y-111878855D01*
X121647302Y-111823902D01*
X120773179Y-110949779D01*
X120787596Y-110877299D01*
X120768300Y-110780292D01*
X120768300Y-110780288D01*
X120711149Y-110492972D01*
X120594000Y-110317646D01*
X120594000Y-109130988D01*
X120556440Y-108942162D01*
X120556440Y-108453000D01*
X120507157Y-108205235D01*
X120396249Y-108039251D01*
X121183602Y-107251898D01*
X121265845Y-107196945D01*
X121483549Y-106871128D01*
X121540700Y-106583812D01*
X121540700Y-106583809D01*
X121559996Y-106486801D01*
X121540700Y-106389793D01*
X121540700Y-103272302D01*
X121882856Y-103272302D01*
X121910638Y-103827368D01*
X122069603Y-104211143D01*
X122311787Y-104280608D01*
X123112395Y-103480000D01*
X122311787Y-102679392D01*
X122069603Y-102748857D01*
X121882856Y-103272302D01*
X121540700Y-103272302D01*
X121540700Y-102747708D01*
X121559996Y-102650700D01*
X121540700Y-102553692D01*
X121540700Y-102553688D01*
X121483549Y-102266372D01*
X121371473Y-102098638D01*
X121320798Y-102022797D01*
X121320796Y-102022795D01*
X121265845Y-101940555D01*
X121183605Y-101885604D01*
X120052098Y-100754098D01*
X119997145Y-100671855D01*
X119671328Y-100454151D01*
X119384012Y-100397000D01*
X119384008Y-100397000D01*
X119287000Y-100377704D01*
X119189992Y-100397000D01*
X119143842Y-100397000D01*
X119222000Y-100208309D01*
X119222000Y-99767750D01*
X119063250Y-99609000D01*
X118339000Y-99609000D01*
X118339000Y-99629000D01*
X118085000Y-99629000D01*
X118085000Y-99609000D01*
X118065000Y-99609000D01*
X118065000Y-99355000D01*
X118085000Y-99355000D01*
X118085000Y-99335000D01*
X118339000Y-99335000D01*
X118339000Y-99355000D01*
X119063250Y-99355000D01*
X119222000Y-99196250D01*
X119222000Y-98755691D01*
X119130257Y-98534204D01*
X119151734Y-98543100D01*
X119603266Y-98543100D01*
X120020426Y-98370307D01*
X120339707Y-98051026D01*
X120512500Y-97633866D01*
X120512500Y-97182334D01*
X120339707Y-96765174D01*
X120020426Y-96445893D01*
X119603266Y-96273100D01*
X119168487Y-96273100D01*
X119222000Y-96143909D01*
X119222000Y-95703350D01*
X119063250Y-95544600D01*
X118339000Y-95544600D01*
X118339000Y-95564600D01*
X118085000Y-95564600D01*
X118085000Y-95544600D01*
X117360750Y-95544600D01*
X117202000Y-95703350D01*
X117202000Y-96143909D01*
X117298673Y-96377298D01*
X117299873Y-96378498D01*
X117238843Y-96469835D01*
X117189560Y-96717600D01*
X117189560Y-97736416D01*
X117053545Y-97532855D01*
X116971302Y-97477902D01*
X116440440Y-96947040D01*
X116440440Y-96717600D01*
X116391157Y-96469835D01*
X116330127Y-96378498D01*
X116331327Y-96377298D01*
X116428000Y-96143909D01*
X116428000Y-95703350D01*
X116269250Y-95544600D01*
X115545000Y-95544600D01*
X115545000Y-95564600D01*
X115291000Y-95564600D01*
X115291000Y-95544600D01*
X115271000Y-95544600D01*
X115271000Y-95290600D01*
X115291000Y-95290600D01*
X115291000Y-94349850D01*
X115417998Y-94222852D01*
X115417998Y-94381600D01*
X115545000Y-94381600D01*
X115545000Y-95290600D01*
X116269250Y-95290600D01*
X116428000Y-95131850D01*
X116428000Y-94691291D01*
X116331327Y-94457902D01*
X116171927Y-94298501D01*
X116188028Y-94291832D01*
X116267235Y-94344757D01*
X116515000Y-94394040D01*
X117115000Y-94394040D01*
X117362765Y-94344757D01*
X117450000Y-94286468D01*
X117462053Y-94294521D01*
X117298673Y-94457902D01*
X117202000Y-94691291D01*
X117202000Y-95131850D01*
X117360750Y-95290600D01*
X118085000Y-95290600D01*
X118085000Y-95270600D01*
X118339000Y-95270600D01*
X118339000Y-95290600D01*
X119063250Y-95290600D01*
X119222000Y-95131850D01*
X119222000Y-94691291D01*
X119125327Y-94457902D01*
X119061465Y-94394040D01*
X119655000Y-94394040D01*
X119902765Y-94344757D01*
X120112809Y-94204409D01*
X120253157Y-93994365D01*
X120302440Y-93746600D01*
X120302440Y-93257438D01*
X120340000Y-93068612D01*
X120340000Y-89143611D01*
X120359297Y-89046600D01*
X120340000Y-88949588D01*
X120340000Y-86504600D01*
X122500472Y-84344129D01*
X122500663Y-84344320D01*
G36*
X114585191Y-102439809D02*
X114795235Y-102580157D01*
X115021203Y-102625104D01*
X114900843Y-102805235D01*
X114851560Y-103053000D01*
X114851560Y-103542163D01*
X114814000Y-103730989D01*
X114814001Y-105205984D01*
X114794703Y-105303000D01*
X114871151Y-105687328D01*
X115088855Y-106013145D01*
X115414672Y-106230849D01*
X115701988Y-106288000D01*
X115799000Y-106307297D01*
X115896012Y-106288000D01*
X116480136Y-106288000D01*
X116843234Y-106438400D01*
X117294766Y-106438400D01*
X117711926Y-106265607D01*
X117829992Y-106147541D01*
X117932500Y-106216034D01*
X117932500Y-106627966D01*
X117990504Y-106768000D01*
X117166012Y-106768000D01*
X117069000Y-106748703D01*
X116971988Y-106768000D01*
X116684672Y-106825151D01*
X116358855Y-107042855D01*
X116141151Y-107368672D01*
X116064703Y-107753000D01*
X116078813Y-107823937D01*
X115926000Y-107976750D01*
X115926000Y-109101000D01*
X115946000Y-109101000D01*
X115946000Y-109355000D01*
X115926000Y-109355000D01*
X115926000Y-109375000D01*
X115672000Y-109375000D01*
X115672000Y-109355000D01*
X115022750Y-109355000D01*
X114864000Y-109513750D01*
X114864000Y-110129309D01*
X114960673Y-110362698D01*
X115139301Y-110541327D01*
X115372690Y-110638000D01*
X115485841Y-110638000D01*
X114923266Y-110871026D01*
X114502000Y-111292292D01*
X114502000Y-108326691D01*
X114864000Y-108326691D01*
X114864000Y-108942250D01*
X115022750Y-109101000D01*
X115672000Y-109101000D01*
X115672000Y-107976750D01*
X115513250Y-107818000D01*
X115372690Y-107818000D01*
X115139301Y-107914673D01*
X114960673Y-108093302D01*
X114864000Y-108326691D01*
X114502000Y-108326691D01*
X114502000Y-102315306D01*
X114585191Y-102439809D01*
X114585191Y-102439809D01*
G37*
X114585191Y-102439809D02*
X114795235Y-102580157D01*
X115021203Y-102625104D01*
X114900843Y-102805235D01*
X114851560Y-103053000D01*
X114851560Y-103542163D01*
X114814000Y-103730989D01*
X114814001Y-105205984D01*
X114794703Y-105303000D01*
X114871151Y-105687328D01*
X115088855Y-106013145D01*
X115414672Y-106230849D01*
X115701988Y-106288000D01*
X115799000Y-106307297D01*
X115896012Y-106288000D01*
X116480136Y-106288000D01*
X116843234Y-106438400D01*
X117294766Y-106438400D01*
X117711926Y-106265607D01*
X117829992Y-106147541D01*
X117932500Y-106216034D01*
X117932500Y-106627966D01*
X117990504Y-106768000D01*
X117166012Y-106768000D01*
X117069000Y-106748703D01*
X116971988Y-106768000D01*
X116684672Y-106825151D01*
X116358855Y-107042855D01*
X116141151Y-107368672D01*
X116064703Y-107753000D01*
X116078813Y-107823937D01*
X115926000Y-107976750D01*
X115926000Y-109101000D01*
X115946000Y-109101000D01*
X115946000Y-109355000D01*
X115926000Y-109355000D01*
X115926000Y-109375000D01*
X115672000Y-109375000D01*
X115672000Y-109355000D01*
X115022750Y-109355000D01*
X114864000Y-109513750D01*
X114864000Y-110129309D01*
X114960673Y-110362698D01*
X115139301Y-110541327D01*
X115372690Y-110638000D01*
X115485841Y-110638000D01*
X114923266Y-110871026D01*
X114502000Y-111292292D01*
X114502000Y-108326691D01*
X114864000Y-108326691D01*
X114864000Y-108942250D01*
X115022750Y-109101000D01*
X115672000Y-109101000D01*
X115672000Y-107976750D01*
X115513250Y-107818000D01*
X115372690Y-107818000D01*
X115139301Y-107914673D01*
X114960673Y-108093302D01*
X114864000Y-108326691D01*
X114502000Y-108326691D01*
X114502000Y-102315306D01*
X114585191Y-102439809D01*
G36*
X114504673Y-100441698D02*
X114505873Y-100442898D01*
X114502000Y-100448694D01*
X114502000Y-100435245D01*
X114504673Y-100441698D01*
X114504673Y-100441698D01*
G37*
X114504673Y-100441698D02*
X114505873Y-100442898D01*
X114502000Y-100448694D01*
X114502000Y-100435245D01*
X114504673Y-100441698D01*
G36*
X115358401Y-99629000D02*
X115291000Y-99629000D01*
X115291000Y-99609000D01*
X115271000Y-99609000D01*
X115271000Y-99355000D01*
X115291000Y-99355000D01*
X115291000Y-99335000D01*
X115358400Y-99335000D01*
X115358401Y-99629000D01*
X115358401Y-99629000D01*
G37*
X115358401Y-99629000D02*
X115291000Y-99629000D01*
X115291000Y-99609000D01*
X115271000Y-99609000D01*
X115271000Y-99355000D01*
X115291000Y-99355000D01*
X115291000Y-99335000D01*
X115358400Y-99335000D01*
X115358401Y-99629000D01*
G36*
X114585191Y-98375409D02*
X114624979Y-98401995D01*
X114504673Y-98522302D01*
X114502000Y-98528755D01*
X114502000Y-98250906D01*
X114585191Y-98375409D01*
X114585191Y-98375409D01*
G37*
X114585191Y-98375409D02*
X114624979Y-98401995D01*
X114504673Y-98522302D01*
X114502000Y-98528755D01*
X114502000Y-98250906D01*
X114585191Y-98375409D01*
G36*
X117379191Y-98375409D02*
X117418979Y-98401995D01*
X117328400Y-98492575D01*
X117328400Y-98340007D01*
X117334625Y-98308712D01*
X117379191Y-98375409D01*
X117379191Y-98375409D01*
G37*
X117379191Y-98375409D02*
X117418979Y-98401995D01*
X117328400Y-98492575D01*
X117328400Y-98340007D01*
X117334625Y-98308712D01*
X117379191Y-98375409D01*
G36*
X114504673Y-96377298D02*
X114505873Y-96378498D01*
X114502000Y-96384294D01*
X114502000Y-96370845D01*
X114504673Y-96377298D01*
X114504673Y-96377298D01*
G37*
X114504673Y-96377298D02*
X114505873Y-96378498D01*
X114502000Y-96384294D01*
X114502000Y-96370845D01*
X114504673Y-96377298D01*
G36*
X114923266Y-85928574D02*
X115455809Y-86149160D01*
X115245000Y-86149160D01*
X114997235Y-86198443D01*
X114787191Y-86338791D01*
X114646843Y-86548835D01*
X114597560Y-86796600D01*
X114597560Y-87285763D01*
X114560000Y-87474589D01*
X114560001Y-88949584D01*
X114540703Y-89046600D01*
X114617151Y-89430928D01*
X114834855Y-89756745D01*
X115160672Y-89974449D01*
X115447988Y-90031600D01*
X115545000Y-90050897D01*
X115642012Y-90031600D01*
X115768036Y-90031600D01*
X116131134Y-90182000D01*
X116582666Y-90182000D01*
X116999826Y-90009207D01*
X117234869Y-89774164D01*
X117168400Y-89934634D01*
X117168400Y-90386166D01*
X117182201Y-90419484D01*
X117040766Y-90360900D01*
X116589234Y-90360900D01*
X116172074Y-90533693D01*
X115852793Y-90852974D01*
X115680000Y-91270134D01*
X115680000Y-91712350D01*
X115672000Y-91720350D01*
X115672000Y-92844600D01*
X115692000Y-92844600D01*
X115692000Y-93098600D01*
X115672000Y-93098600D01*
X115672000Y-93118600D01*
X115418000Y-93118600D01*
X115418000Y-93098600D01*
X114768750Y-93098600D01*
X114610000Y-93257350D01*
X114610000Y-93872909D01*
X114706673Y-94106298D01*
X114822139Y-94221764D01*
X114683301Y-94279273D01*
X114504673Y-94457902D01*
X114502000Y-94464355D01*
X114502000Y-92070291D01*
X114610000Y-92070291D01*
X114610000Y-92685850D01*
X114768750Y-92844600D01*
X115418000Y-92844600D01*
X115418000Y-91720350D01*
X115259250Y-91561600D01*
X115118690Y-91561600D01*
X114885301Y-91658273D01*
X114706673Y-91836902D01*
X114610000Y-92070291D01*
X114502000Y-92070291D01*
X114502000Y-85507308D01*
X114923266Y-85928574D01*
X114923266Y-85928574D01*
G37*
X114923266Y-85928574D02*
X115455809Y-86149160D01*
X115245000Y-86149160D01*
X114997235Y-86198443D01*
X114787191Y-86338791D01*
X114646843Y-86548835D01*
X114597560Y-86796600D01*
X114597560Y-87285763D01*
X114560000Y-87474589D01*
X114560001Y-88949584D01*
X114540703Y-89046600D01*
X114617151Y-89430928D01*
X114834855Y-89756745D01*
X115160672Y-89974449D01*
X115447988Y-90031600D01*
X115545000Y-90050897D01*
X115642012Y-90031600D01*
X115768036Y-90031600D01*
X116131134Y-90182000D01*
X116582666Y-90182000D01*
X116999826Y-90009207D01*
X117234869Y-89774164D01*
X117168400Y-89934634D01*
X117168400Y-90386166D01*
X117182201Y-90419484D01*
X117040766Y-90360900D01*
X116589234Y-90360900D01*
X116172074Y-90533693D01*
X115852793Y-90852974D01*
X115680000Y-91270134D01*
X115680000Y-91712350D01*
X115672000Y-91720350D01*
X115672000Y-92844600D01*
X115692000Y-92844600D01*
X115692000Y-93098600D01*
X115672000Y-93098600D01*
X115672000Y-93118600D01*
X115418000Y-93118600D01*
X115418000Y-93098600D01*
X114768750Y-93098600D01*
X114610000Y-93257350D01*
X114610000Y-93872909D01*
X114706673Y-94106298D01*
X114822139Y-94221764D01*
X114683301Y-94279273D01*
X114504673Y-94457902D01*
X114502000Y-94464355D01*
X114502000Y-92070291D01*
X114610000Y-92070291D01*
X114610000Y-92685850D01*
X114768750Y-92844600D01*
X115418000Y-92844600D01*
X115418000Y-91720350D01*
X115259250Y-91561600D01*
X115118690Y-91561600D01*
X114885301Y-91658273D01*
X114706673Y-91836902D01*
X114610000Y-92070291D01*
X114502000Y-92070291D01*
X114502000Y-85507308D01*
X114923266Y-85928574D01*
G04 #@! TD*
M02*
