M48
;DRILL file {KiCad (5.0.1)-4} date 13/12/2018 19:21:11
;FORMAT={-:-/ absolute / metric / decimal}
FMAT,2
METRIC,TZ
T1C0.600
T2C0.762
T3C0.800
T4C0.899
T5C0.900
T6C1.999
T7C3.048
%
G90
G05
M71
T1
X116.357Y-89.047
X116.815Y-91.496
X116.815Y-101.93
X117.069Y-105.303
X118.303Y-90.16
X119.067Y-106.402
X119.377Y-97.408
X121.772Y-122.011
X158.069Y-112.256
T2
X123.292Y-80.62
X123.292Y-83.16
X123.292Y-85.7
X123.292Y-88.24
X123.292Y-90.78
X123.292Y-93.32
X123.292Y-95.86
X123.292Y-98.4
X123.292Y-100.94
X123.292Y-103.48
X123.292Y-106.02
X123.292Y-108.56
X123.292Y-111.1
X123.292Y-113.64
X123.292Y-116.18
X151.232Y-80.62
X151.232Y-83.16
X151.232Y-85.7
X151.232Y-88.24
X151.232Y-90.78
X151.232Y-93.32
X151.232Y-95.86
X151.232Y-98.4
X151.232Y-100.94
X151.232Y-103.48
X151.232Y-106.02
X151.232Y-108.56
X151.232Y-111.1
X151.232Y-113.64
X151.232Y-116.18
T3
X157.328Y-89.51
X157.328Y-92.05
X157.328Y-94.59
X157.328Y-97.13
X157.328Y-99.67
X157.328Y-102.21
X157.328Y-104.75
X157.328Y-107.29
X164.948Y-89.51
X164.948Y-92.05
X164.948Y-94.59
X164.948Y-97.13
X164.948Y-99.67
X164.948Y-102.21
X164.948Y-104.75
X164.948Y-107.29
T4
X154.818Y-118.395
X154.818Y-120.894
X154.818Y-122.896
X154.818Y-125.395
X154.818Y-71.277
X154.818Y-73.777
X154.818Y-75.778
X154.818Y-78.278
T6
X157.528Y-115.324
X157.528Y-128.466
X157.528Y-68.207
X157.528Y-81.349
T7
X116.434Y-113.132
X164.694Y-111.608
X116.434Y-83.668
X164.694Y-85.293
T5
X117.794Y-117.109G85X116.194Y-117.109
G05
X117.794Y-128.509G85X116.194Y-128.509
G05
X117.814Y-68.234G85X116.214Y-68.234
G05
X117.814Y-79.634G85X116.214Y-79.634
G05
T0
M30
