G04 #@! TF.GenerationSoftware,KiCad,Pcbnew,(5.0.1)-4*
G04 #@! TF.CreationDate,2018-12-13T19:21:25-06:00*
G04 #@! TF.ProjectId,ExpansionUSB,457870616E73696F6E5553422E6B6963,rev?*
G04 #@! TF.SameCoordinates,Original*
G04 #@! TF.FileFunction,Soldermask,Bot*
G04 #@! TF.FilePolarity,Negative*
%FSLAX46Y46*%
G04 Gerber Fmt 4.6, Leading zero omitted, Abs format (unit mm)*
G04 Created by KiCad (PCBNEW (5.0.1)-4) date 13/12/2018 19:21:25*
%MOMM*%
%LPD*%
G01*
G04 APERTURE LIST*
%ADD10C,0.100000*%
G04 APERTURE END LIST*
D10*
G36*
X157880357Y-126954843D02*
X157980232Y-126974709D01*
X158097139Y-127023134D01*
X158262471Y-127091616D01*
X158516485Y-127261343D01*
X158732497Y-127477355D01*
X158902224Y-127731369D01*
X159019131Y-128013609D01*
X159078730Y-128313231D01*
X159078730Y-128618729D01*
X159019131Y-128918351D01*
X158902224Y-129200591D01*
X158732497Y-129454605D01*
X158516485Y-129670617D01*
X158262471Y-129840344D01*
X158097139Y-129908826D01*
X157980232Y-129957251D01*
X157880357Y-129977117D01*
X157680609Y-130016850D01*
X157375111Y-130016850D01*
X157175363Y-129977117D01*
X157075488Y-129957251D01*
X156958581Y-129908826D01*
X156793249Y-129840344D01*
X156539235Y-129670617D01*
X156323223Y-129454605D01*
X156153496Y-129200591D01*
X156036589Y-128918351D01*
X155976990Y-128618729D01*
X155976990Y-128313231D01*
X156036589Y-128013609D01*
X156153496Y-127731369D01*
X156323223Y-127477355D01*
X156539235Y-127261343D01*
X156793249Y-127091616D01*
X156958581Y-127023134D01*
X157075488Y-126974709D01*
X157175363Y-126954843D01*
X157375111Y-126915110D01*
X157680609Y-126915110D01*
X157880357Y-126954843D01*
X157880357Y-126954843D01*
G37*
G36*
X117990232Y-127522483D02*
X118178919Y-127579721D01*
X118352817Y-127672671D01*
X118505239Y-127797761D01*
X118630329Y-127950183D01*
X118723279Y-128124081D01*
X118780517Y-128312768D01*
X118799843Y-128509000D01*
X118780517Y-128705232D01*
X118723279Y-128893919D01*
X118630329Y-129067817D01*
X118505239Y-129220239D01*
X118352817Y-129345329D01*
X118178919Y-129438279D01*
X117990232Y-129495517D01*
X117843176Y-129510000D01*
X116144824Y-129510000D01*
X115997768Y-129495517D01*
X115809081Y-129438279D01*
X115635183Y-129345329D01*
X115482761Y-129220239D01*
X115357671Y-129067817D01*
X115264721Y-128893919D01*
X115207483Y-128705232D01*
X115188157Y-128509000D01*
X115207483Y-128312768D01*
X115264721Y-128124081D01*
X115357671Y-127950183D01*
X115482761Y-127797761D01*
X115635183Y-127672671D01*
X115809081Y-127579721D01*
X115997768Y-127522483D01*
X116144824Y-127508000D01*
X117843176Y-127508000D01*
X117990232Y-127522483D01*
X117990232Y-127522483D01*
G37*
G36*
X155051489Y-124624354D02*
X155197366Y-124684778D01*
X155328061Y-124772106D01*
X155328654Y-124772502D01*
X155440298Y-124884146D01*
X155440300Y-124884149D01*
X155528022Y-125015434D01*
X155588446Y-125161311D01*
X155619250Y-125316172D01*
X155619250Y-125474068D01*
X155588446Y-125628929D01*
X155528022Y-125774806D01*
X155440694Y-125905501D01*
X155440298Y-125906094D01*
X155328654Y-126017738D01*
X155328651Y-126017740D01*
X155197366Y-126105462D01*
X155051489Y-126165886D01*
X154896628Y-126196690D01*
X154738732Y-126196690D01*
X154583871Y-126165886D01*
X154437994Y-126105462D01*
X154306709Y-126017740D01*
X154306706Y-126017738D01*
X154195062Y-125906094D01*
X154194666Y-125905501D01*
X154107338Y-125774806D01*
X154046914Y-125628929D01*
X154016110Y-125474068D01*
X154016110Y-125316172D01*
X154046914Y-125161311D01*
X154107338Y-125015434D01*
X154195060Y-124884149D01*
X154195062Y-124884146D01*
X154306706Y-124772502D01*
X154307299Y-124772106D01*
X154437994Y-124684778D01*
X154583871Y-124624354D01*
X154738732Y-124593550D01*
X154896628Y-124593550D01*
X155051489Y-124624354D01*
X155051489Y-124624354D01*
G37*
G36*
X117169305Y-124531096D02*
X117278680Y-124576400D01*
X117377118Y-124642175D01*
X117460825Y-124725882D01*
X117526600Y-124824320D01*
X117571904Y-124933695D01*
X117595000Y-125049806D01*
X117595000Y-125168194D01*
X117571904Y-125284305D01*
X117526600Y-125393680D01*
X117460825Y-125492118D01*
X117377118Y-125575825D01*
X117278680Y-125641600D01*
X117169305Y-125686904D01*
X117053194Y-125710000D01*
X116934806Y-125710000D01*
X116818695Y-125686904D01*
X116709320Y-125641600D01*
X116610882Y-125575825D01*
X116527175Y-125492118D01*
X116461400Y-125393680D01*
X116416096Y-125284305D01*
X116393000Y-125168194D01*
X116393000Y-125049806D01*
X116416096Y-124933695D01*
X116461400Y-124824320D01*
X116527175Y-124725882D01*
X116610882Y-124642175D01*
X116709320Y-124576400D01*
X116818695Y-124531096D01*
X116934806Y-124508000D01*
X117053194Y-124508000D01*
X117169305Y-124531096D01*
X117169305Y-124531096D01*
G37*
G36*
X155051489Y-122124994D02*
X155197366Y-122185418D01*
X155328061Y-122272746D01*
X155328654Y-122273142D01*
X155440298Y-122384786D01*
X155440300Y-122384789D01*
X155528022Y-122516074D01*
X155588446Y-122661951D01*
X155619250Y-122816812D01*
X155619250Y-122974708D01*
X155588446Y-123129569D01*
X155528022Y-123275446D01*
X155440694Y-123406141D01*
X155440298Y-123406734D01*
X155328654Y-123518378D01*
X155328651Y-123518380D01*
X155197366Y-123606102D01*
X155051489Y-123666526D01*
X154896628Y-123697330D01*
X154738732Y-123697330D01*
X154583871Y-123666526D01*
X154437994Y-123606102D01*
X154306709Y-123518380D01*
X154306706Y-123518378D01*
X154195062Y-123406734D01*
X154194666Y-123406141D01*
X154107338Y-123275446D01*
X154046914Y-123129569D01*
X154016110Y-122974708D01*
X154016110Y-122816812D01*
X154046914Y-122661951D01*
X154107338Y-122516074D01*
X154195060Y-122384789D01*
X154195062Y-122384786D01*
X154306706Y-122273142D01*
X154307299Y-122272746D01*
X154437994Y-122185418D01*
X154583871Y-122124994D01*
X154738732Y-122094190D01*
X154896628Y-122094190D01*
X155051489Y-122124994D01*
X155051489Y-122124994D01*
G37*
G36*
X155051489Y-120123474D02*
X155197366Y-120183898D01*
X155328061Y-120271226D01*
X155328654Y-120271622D01*
X155440298Y-120383266D01*
X155440300Y-120383269D01*
X155528022Y-120514554D01*
X155588446Y-120660431D01*
X155619250Y-120815292D01*
X155619250Y-120973188D01*
X155588446Y-121128049D01*
X155528022Y-121273926D01*
X155440694Y-121404621D01*
X155440298Y-121405214D01*
X155328654Y-121516858D01*
X155328651Y-121516860D01*
X155197366Y-121604582D01*
X155051489Y-121665006D01*
X154896628Y-121695810D01*
X154738732Y-121695810D01*
X154583871Y-121665006D01*
X154437994Y-121604582D01*
X154306709Y-121516860D01*
X154306706Y-121516858D01*
X154195062Y-121405214D01*
X154194666Y-121404621D01*
X154107338Y-121273926D01*
X154046914Y-121128049D01*
X154016110Y-120973188D01*
X154016110Y-120815292D01*
X154046914Y-120660431D01*
X154107338Y-120514554D01*
X154195060Y-120383269D01*
X154195062Y-120383266D01*
X154306706Y-120271622D01*
X154307299Y-120271226D01*
X154437994Y-120183898D01*
X154583871Y-120123474D01*
X154738732Y-120092670D01*
X154896628Y-120092670D01*
X155051489Y-120123474D01*
X155051489Y-120123474D01*
G37*
G36*
X117169305Y-119931096D02*
X117278680Y-119976400D01*
X117377118Y-120042175D01*
X117460825Y-120125882D01*
X117526600Y-120224320D01*
X117571904Y-120333695D01*
X117595000Y-120449806D01*
X117595000Y-120568194D01*
X117571904Y-120684305D01*
X117526600Y-120793680D01*
X117460825Y-120892118D01*
X117377118Y-120975825D01*
X117278680Y-121041600D01*
X117169305Y-121086904D01*
X117053194Y-121110000D01*
X116934806Y-121110000D01*
X116818695Y-121086904D01*
X116709320Y-121041600D01*
X116610882Y-120975825D01*
X116527175Y-120892118D01*
X116461400Y-120793680D01*
X116416096Y-120684305D01*
X116393000Y-120568194D01*
X116393000Y-120449806D01*
X116416096Y-120333695D01*
X116461400Y-120224320D01*
X116527175Y-120125882D01*
X116610882Y-120042175D01*
X116709320Y-119976400D01*
X116818695Y-119931096D01*
X116934806Y-119908000D01*
X117053194Y-119908000D01*
X117169305Y-119931096D01*
X117169305Y-119931096D01*
G37*
G36*
X155051489Y-117624114D02*
X155197366Y-117684538D01*
X155328061Y-117771866D01*
X155328654Y-117772262D01*
X155440298Y-117883906D01*
X155440300Y-117883909D01*
X155528022Y-118015194D01*
X155588446Y-118161071D01*
X155619250Y-118315932D01*
X155619250Y-118473828D01*
X155588446Y-118628689D01*
X155528022Y-118774566D01*
X155440694Y-118905261D01*
X155440298Y-118905854D01*
X155328654Y-119017498D01*
X155328651Y-119017500D01*
X155197366Y-119105222D01*
X155051489Y-119165646D01*
X154896628Y-119196450D01*
X154738732Y-119196450D01*
X154583871Y-119165646D01*
X154437994Y-119105222D01*
X154306709Y-119017500D01*
X154306706Y-119017498D01*
X154195062Y-118905854D01*
X154194666Y-118905261D01*
X154107338Y-118774566D01*
X154046914Y-118628689D01*
X154016110Y-118473828D01*
X154016110Y-118315932D01*
X154046914Y-118161071D01*
X154107338Y-118015194D01*
X154195060Y-117883909D01*
X154195062Y-117883906D01*
X154306706Y-117772262D01*
X154307299Y-117771866D01*
X154437994Y-117684538D01*
X154583871Y-117624114D01*
X154738732Y-117593310D01*
X154896628Y-117593310D01*
X155051489Y-117624114D01*
X155051489Y-117624114D01*
G37*
G36*
X117990232Y-116122483D02*
X118178919Y-116179721D01*
X118352817Y-116272671D01*
X118505239Y-116397761D01*
X118630329Y-116550183D01*
X118723279Y-116724081D01*
X118780517Y-116912768D01*
X118799843Y-117109000D01*
X118780517Y-117305232D01*
X118723279Y-117493919D01*
X118630329Y-117667817D01*
X118505239Y-117820239D01*
X118352817Y-117945329D01*
X118178919Y-118038279D01*
X117990232Y-118095517D01*
X117843176Y-118110000D01*
X116144824Y-118110000D01*
X115997768Y-118095517D01*
X115809081Y-118038279D01*
X115635183Y-117945329D01*
X115482761Y-117820239D01*
X115357671Y-117667817D01*
X115264721Y-117493919D01*
X115207483Y-117305232D01*
X115188157Y-117109000D01*
X115207483Y-116912768D01*
X115264721Y-116724081D01*
X115357671Y-116550183D01*
X115482761Y-116397761D01*
X115635183Y-116272671D01*
X115809081Y-116179721D01*
X115997768Y-116122483D01*
X116144824Y-116108000D01*
X117843176Y-116108000D01*
X117990232Y-116122483D01*
X117990232Y-116122483D01*
G37*
G36*
X151469142Y-115398242D02*
X151617102Y-115459530D01*
X151750258Y-115548502D01*
X151863498Y-115661742D01*
X151952470Y-115794898D01*
X152013758Y-115942858D01*
X152045000Y-116099925D01*
X152045000Y-116260075D01*
X152013758Y-116417142D01*
X151967566Y-116528657D01*
X151952471Y-116565100D01*
X151863499Y-116698257D01*
X151750257Y-116811499D01*
X151684130Y-116855683D01*
X151617102Y-116900470D01*
X151617101Y-116900471D01*
X151617100Y-116900471D01*
X151587408Y-116912770D01*
X151469142Y-116961758D01*
X151312075Y-116993000D01*
X151151925Y-116993000D01*
X150994858Y-116961758D01*
X150876592Y-116912770D01*
X150846900Y-116900471D01*
X150846899Y-116900471D01*
X150846898Y-116900470D01*
X150779870Y-116855683D01*
X150713743Y-116811499D01*
X150600501Y-116698257D01*
X150511529Y-116565100D01*
X150496434Y-116528657D01*
X150450242Y-116417142D01*
X150419000Y-116260075D01*
X150419000Y-116099925D01*
X150450242Y-115942858D01*
X150511530Y-115794898D01*
X150600502Y-115661742D01*
X150713742Y-115548502D01*
X150846898Y-115459530D01*
X150994858Y-115398242D01*
X151151925Y-115367000D01*
X151312075Y-115367000D01*
X151469142Y-115398242D01*
X151469142Y-115398242D01*
G37*
G36*
X123529142Y-115398242D02*
X123677102Y-115459530D01*
X123810258Y-115548502D01*
X123923498Y-115661742D01*
X124012470Y-115794898D01*
X124073758Y-115942858D01*
X124105000Y-116099925D01*
X124105000Y-116260075D01*
X124073758Y-116417142D01*
X124027566Y-116528657D01*
X124012471Y-116565100D01*
X123923499Y-116698257D01*
X123810257Y-116811499D01*
X123744130Y-116855683D01*
X123677102Y-116900470D01*
X123677101Y-116900471D01*
X123677100Y-116900471D01*
X123647408Y-116912770D01*
X123529142Y-116961758D01*
X123372075Y-116993000D01*
X123211925Y-116993000D01*
X123054858Y-116961758D01*
X122936592Y-116912770D01*
X122906900Y-116900471D01*
X122906899Y-116900471D01*
X122906898Y-116900470D01*
X122839870Y-116855683D01*
X122773743Y-116811499D01*
X122660501Y-116698257D01*
X122571529Y-116565100D01*
X122556434Y-116528657D01*
X122510242Y-116417142D01*
X122479000Y-116260075D01*
X122479000Y-116099925D01*
X122510242Y-115942858D01*
X122571530Y-115794898D01*
X122660502Y-115661742D01*
X122773742Y-115548502D01*
X122906898Y-115459530D01*
X123054858Y-115398242D01*
X123211925Y-115367000D01*
X123372075Y-115367000D01*
X123529142Y-115398242D01*
X123529142Y-115398242D01*
G37*
G36*
X157880357Y-113812883D02*
X157980232Y-113832749D01*
X158087406Y-113877142D01*
X158262471Y-113949656D01*
X158516485Y-114119383D01*
X158732497Y-114335395D01*
X158902224Y-114589409D01*
X159019131Y-114871649D01*
X159078730Y-115171271D01*
X159078730Y-115476769D01*
X159064461Y-115548502D01*
X159019131Y-115776392D01*
X158970706Y-115893299D01*
X158902224Y-116058631D01*
X158732497Y-116312645D01*
X158516485Y-116528657D01*
X158262471Y-116698384D01*
X158097139Y-116766866D01*
X157980232Y-116815291D01*
X157880357Y-116835157D01*
X157680609Y-116874890D01*
X157375111Y-116874890D01*
X157175363Y-116835157D01*
X157075488Y-116815291D01*
X156958581Y-116766866D01*
X156793249Y-116698384D01*
X156539235Y-116528657D01*
X156323223Y-116312645D01*
X156153496Y-116058631D01*
X156085014Y-115893299D01*
X156036589Y-115776392D01*
X155991259Y-115548502D01*
X155976990Y-115476769D01*
X155976990Y-115171271D01*
X156036589Y-114871649D01*
X156153496Y-114589409D01*
X156323223Y-114335395D01*
X156539235Y-114119383D01*
X156793249Y-113949656D01*
X156968314Y-113877142D01*
X157075488Y-113832749D01*
X157175363Y-113812883D01*
X157375111Y-113773150D01*
X157680609Y-113773150D01*
X157880357Y-113812883D01*
X157880357Y-113812883D01*
G37*
G36*
X116840373Y-111089024D02*
X117041589Y-111129048D01*
X117420671Y-111286069D01*
X117497107Y-111337142D01*
X117761838Y-111514030D01*
X118051970Y-111804162D01*
X118279932Y-112145331D01*
X118436952Y-112524412D01*
X118515546Y-112919529D01*
X118517000Y-112926842D01*
X118517000Y-113337158D01*
X118436952Y-113739589D01*
X118279931Y-114118671D01*
X118177815Y-114271498D01*
X118051970Y-114459838D01*
X117761838Y-114749970D01*
X117761835Y-114749972D01*
X117420671Y-114977931D01*
X117041589Y-115134952D01*
X116859000Y-115171271D01*
X116639159Y-115215000D01*
X116228841Y-115215000D01*
X116009000Y-115171271D01*
X115826411Y-115134952D01*
X115447329Y-114977931D01*
X115106165Y-114749972D01*
X115106162Y-114749970D01*
X114816030Y-114459838D01*
X114690185Y-114271498D01*
X114588069Y-114118671D01*
X114431048Y-113739589D01*
X114351000Y-113337158D01*
X114351000Y-112926842D01*
X114352455Y-112919529D01*
X114431048Y-112524412D01*
X114588068Y-112145331D01*
X114816030Y-111804162D01*
X115106162Y-111514030D01*
X115370893Y-111337142D01*
X115447329Y-111286069D01*
X115826411Y-111129048D01*
X116027627Y-111089024D01*
X116228841Y-111049000D01*
X116639159Y-111049000D01*
X116840373Y-111089024D01*
X116840373Y-111089024D01*
G37*
G36*
X123529142Y-112858242D02*
X123677102Y-112919530D01*
X123810258Y-113008502D01*
X123923498Y-113121742D01*
X124012470Y-113254898D01*
X124073758Y-113402858D01*
X124105000Y-113559925D01*
X124105000Y-113720075D01*
X124073758Y-113877142D01*
X124043721Y-113949656D01*
X124012471Y-114025100D01*
X123949474Y-114119383D01*
X123923498Y-114158258D01*
X123810258Y-114271498D01*
X123677102Y-114360470D01*
X123529142Y-114421758D01*
X123372075Y-114453000D01*
X123211925Y-114453000D01*
X123054858Y-114421758D01*
X122906898Y-114360470D01*
X122773742Y-114271498D01*
X122660502Y-114158258D01*
X122634527Y-114119383D01*
X122571529Y-114025100D01*
X122540279Y-113949656D01*
X122510242Y-113877142D01*
X122479000Y-113720075D01*
X122479000Y-113559925D01*
X122510242Y-113402858D01*
X122571530Y-113254898D01*
X122660502Y-113121742D01*
X122773742Y-113008502D01*
X122906898Y-112919530D01*
X123054858Y-112858242D01*
X123211925Y-112827000D01*
X123372075Y-112827000D01*
X123529142Y-112858242D01*
X123529142Y-112858242D01*
G37*
G36*
X151469142Y-112858242D02*
X151617102Y-112919530D01*
X151750258Y-113008502D01*
X151863498Y-113121742D01*
X151952470Y-113254898D01*
X152013758Y-113402858D01*
X152045000Y-113559925D01*
X152045000Y-113720075D01*
X152013758Y-113877142D01*
X151983721Y-113949656D01*
X151952471Y-114025100D01*
X151889474Y-114119383D01*
X151863498Y-114158258D01*
X151750258Y-114271498D01*
X151617102Y-114360470D01*
X151469142Y-114421758D01*
X151312075Y-114453000D01*
X151151925Y-114453000D01*
X150994858Y-114421758D01*
X150846898Y-114360470D01*
X150713742Y-114271498D01*
X150600502Y-114158258D01*
X150574527Y-114119383D01*
X150511529Y-114025100D01*
X150480279Y-113949656D01*
X150450242Y-113877142D01*
X150419000Y-113720075D01*
X150419000Y-113559925D01*
X150450242Y-113402858D01*
X150511530Y-113254898D01*
X150600502Y-113121742D01*
X150713742Y-113008502D01*
X150846898Y-112919530D01*
X150994858Y-112858242D01*
X151151925Y-112827000D01*
X151312075Y-112827000D01*
X151469142Y-112858242D01*
X151469142Y-112858242D01*
G37*
G36*
X165301589Y-109605048D02*
X165680671Y-109762069D01*
X166017294Y-109986994D01*
X166021838Y-109990030D01*
X166311970Y-110280162D01*
X166311972Y-110280165D01*
X166539931Y-110621329D01*
X166696952Y-111000411D01*
X166700834Y-111019926D01*
X166777000Y-111402841D01*
X166777000Y-111813159D01*
X166696952Y-112215588D01*
X166539932Y-112594669D01*
X166311970Y-112935838D01*
X166021838Y-113225970D01*
X166021835Y-113225972D01*
X165680671Y-113453931D01*
X165301589Y-113610952D01*
X165100373Y-113650976D01*
X164899159Y-113691000D01*
X164488841Y-113691000D01*
X164287627Y-113650976D01*
X164086411Y-113610952D01*
X163707329Y-113453931D01*
X163366165Y-113225972D01*
X163366162Y-113225970D01*
X163076030Y-112935838D01*
X162848068Y-112594669D01*
X162691048Y-112215588D01*
X162611000Y-111813159D01*
X162611000Y-111402841D01*
X162687166Y-111019926D01*
X162691048Y-111000411D01*
X162848069Y-110621329D01*
X163076028Y-110280165D01*
X163076030Y-110280162D01*
X163366162Y-109990030D01*
X163370706Y-109986994D01*
X163707329Y-109762069D01*
X164086411Y-109605048D01*
X164488841Y-109525000D01*
X164899159Y-109525000D01*
X165301589Y-109605048D01*
X165301589Y-109605048D01*
G37*
G36*
X151469142Y-110318242D02*
X151617102Y-110379530D01*
X151750258Y-110468502D01*
X151863498Y-110581742D01*
X151952470Y-110714898D01*
X152013758Y-110862858D01*
X152045000Y-111019925D01*
X152045000Y-111180075D01*
X152013758Y-111337142D01*
X151952470Y-111485102D01*
X151863498Y-111618258D01*
X151750258Y-111731498D01*
X151617102Y-111820470D01*
X151469142Y-111881758D01*
X151312075Y-111913000D01*
X151151925Y-111913000D01*
X150994858Y-111881758D01*
X150846898Y-111820470D01*
X150713742Y-111731498D01*
X150600502Y-111618258D01*
X150511530Y-111485102D01*
X150450242Y-111337142D01*
X150419000Y-111180075D01*
X150419000Y-111019925D01*
X150450242Y-110862858D01*
X150511530Y-110714898D01*
X150600502Y-110581742D01*
X150713742Y-110468502D01*
X150846898Y-110379530D01*
X150994858Y-110318242D01*
X151151925Y-110287000D01*
X151312075Y-110287000D01*
X151469142Y-110318242D01*
X151469142Y-110318242D01*
G37*
G36*
X123529142Y-110318242D02*
X123677102Y-110379530D01*
X123810258Y-110468502D01*
X123923498Y-110581742D01*
X124012470Y-110714898D01*
X124073758Y-110862858D01*
X124105000Y-111019925D01*
X124105000Y-111180075D01*
X124073758Y-111337142D01*
X124012470Y-111485102D01*
X123923498Y-111618258D01*
X123810258Y-111731498D01*
X123677102Y-111820470D01*
X123529142Y-111881758D01*
X123372075Y-111913000D01*
X123211925Y-111913000D01*
X123054858Y-111881758D01*
X122906898Y-111820470D01*
X122773742Y-111731498D01*
X122660502Y-111618258D01*
X122571530Y-111485102D01*
X122510242Y-111337142D01*
X122479000Y-111180075D01*
X122479000Y-111019925D01*
X122510242Y-110862858D01*
X122571530Y-110714898D01*
X122660502Y-110581742D01*
X122773742Y-110468502D01*
X122906898Y-110379530D01*
X123054858Y-110318242D01*
X123211925Y-110287000D01*
X123372075Y-110287000D01*
X123529142Y-110318242D01*
X123529142Y-110318242D01*
G37*
G36*
X151469142Y-107778242D02*
X151617102Y-107839530D01*
X151750258Y-107928502D01*
X151863498Y-108041742D01*
X151952470Y-108174898D01*
X152013758Y-108322858D01*
X152045000Y-108479925D01*
X152045000Y-108640075D01*
X152013758Y-108797142D01*
X151952470Y-108945102D01*
X151863498Y-109078258D01*
X151750258Y-109191498D01*
X151617102Y-109280470D01*
X151469142Y-109341758D01*
X151312075Y-109373000D01*
X151151925Y-109373000D01*
X150994858Y-109341758D01*
X150846898Y-109280470D01*
X150713742Y-109191498D01*
X150600502Y-109078258D01*
X150511530Y-108945102D01*
X150450242Y-108797142D01*
X150419000Y-108640075D01*
X150419000Y-108479925D01*
X150450242Y-108322858D01*
X150511530Y-108174898D01*
X150600502Y-108041742D01*
X150713742Y-107928502D01*
X150846898Y-107839530D01*
X150994858Y-107778242D01*
X151151925Y-107747000D01*
X151312075Y-107747000D01*
X151469142Y-107778242D01*
X151469142Y-107778242D01*
G37*
G36*
X123529142Y-107778242D02*
X123677102Y-107839530D01*
X123810258Y-107928502D01*
X123923498Y-108041742D01*
X124012470Y-108174898D01*
X124073758Y-108322858D01*
X124105000Y-108479925D01*
X124105000Y-108640075D01*
X124073758Y-108797142D01*
X124012470Y-108945102D01*
X123923498Y-109078258D01*
X123810258Y-109191498D01*
X123677102Y-109280470D01*
X123529142Y-109341758D01*
X123372075Y-109373000D01*
X123211925Y-109373000D01*
X123054858Y-109341758D01*
X122906898Y-109280470D01*
X122773742Y-109191498D01*
X122660502Y-109078258D01*
X122571530Y-108945102D01*
X122510242Y-108797142D01*
X122479000Y-108640075D01*
X122479000Y-108479925D01*
X122510242Y-108322858D01*
X122571530Y-108174898D01*
X122660502Y-108041742D01*
X122773742Y-107928502D01*
X122906898Y-107839530D01*
X123054858Y-107778242D01*
X123211925Y-107747000D01*
X123372075Y-107747000D01*
X123529142Y-107778242D01*
X123529142Y-107778242D01*
G37*
G36*
X157494821Y-106450913D02*
X157494824Y-106450914D01*
X157494825Y-106450914D01*
X157655239Y-106499575D01*
X157655241Y-106499576D01*
X157655244Y-106499577D01*
X157803078Y-106578595D01*
X157932659Y-106684941D01*
X158039005Y-106814522D01*
X158118023Y-106962356D01*
X158166687Y-107122779D01*
X158183117Y-107289600D01*
X158166687Y-107456421D01*
X158118023Y-107616844D01*
X158039005Y-107764678D01*
X157932659Y-107894259D01*
X157803078Y-108000605D01*
X157655244Y-108079623D01*
X157655241Y-108079624D01*
X157655239Y-108079625D01*
X157494825Y-108128286D01*
X157494824Y-108128286D01*
X157494821Y-108128287D01*
X157369804Y-108140600D01*
X157286196Y-108140600D01*
X157161179Y-108128287D01*
X157161176Y-108128286D01*
X157161175Y-108128286D01*
X157000761Y-108079625D01*
X157000759Y-108079624D01*
X157000756Y-108079623D01*
X156852922Y-108000605D01*
X156723341Y-107894259D01*
X156616995Y-107764678D01*
X156537977Y-107616844D01*
X156489313Y-107456421D01*
X156472883Y-107289600D01*
X156489313Y-107122779D01*
X156537977Y-106962356D01*
X156616995Y-106814522D01*
X156723341Y-106684941D01*
X156852922Y-106578595D01*
X157000756Y-106499577D01*
X157000759Y-106499576D01*
X157000761Y-106499575D01*
X157161175Y-106450914D01*
X157161176Y-106450914D01*
X157161179Y-106450913D01*
X157286196Y-106438600D01*
X157369804Y-106438600D01*
X157494821Y-106450913D01*
X157494821Y-106450913D01*
G37*
G36*
X165114821Y-106450913D02*
X165114824Y-106450914D01*
X165114825Y-106450914D01*
X165275239Y-106499575D01*
X165275241Y-106499576D01*
X165275244Y-106499577D01*
X165423078Y-106578595D01*
X165552659Y-106684941D01*
X165659005Y-106814522D01*
X165738023Y-106962356D01*
X165786687Y-107122779D01*
X165803117Y-107289600D01*
X165786687Y-107456421D01*
X165738023Y-107616844D01*
X165659005Y-107764678D01*
X165552659Y-107894259D01*
X165423078Y-108000605D01*
X165275244Y-108079623D01*
X165275241Y-108079624D01*
X165275239Y-108079625D01*
X165114825Y-108128286D01*
X165114824Y-108128286D01*
X165114821Y-108128287D01*
X164989804Y-108140600D01*
X164906196Y-108140600D01*
X164781179Y-108128287D01*
X164781176Y-108128286D01*
X164781175Y-108128286D01*
X164620761Y-108079625D01*
X164620759Y-108079624D01*
X164620756Y-108079623D01*
X164472922Y-108000605D01*
X164343341Y-107894259D01*
X164236995Y-107764678D01*
X164157977Y-107616844D01*
X164109313Y-107456421D01*
X164092883Y-107289600D01*
X164109313Y-107122779D01*
X164157977Y-106962356D01*
X164236995Y-106814522D01*
X164343341Y-106684941D01*
X164472922Y-106578595D01*
X164620756Y-106499577D01*
X164620759Y-106499576D01*
X164620761Y-106499575D01*
X164781175Y-106450914D01*
X164781176Y-106450914D01*
X164781179Y-106450913D01*
X164906196Y-106438600D01*
X164989804Y-106438600D01*
X165114821Y-106450913D01*
X165114821Y-106450913D01*
G37*
G36*
X151469142Y-105238242D02*
X151617102Y-105299530D01*
X151750258Y-105388502D01*
X151863498Y-105501742D01*
X151952470Y-105634898D01*
X152013758Y-105782858D01*
X152045000Y-105939925D01*
X152045000Y-106100075D01*
X152013758Y-106257142D01*
X151952470Y-106405102D01*
X151863498Y-106538258D01*
X151750258Y-106651498D01*
X151617102Y-106740470D01*
X151469142Y-106801758D01*
X151312075Y-106833000D01*
X151151925Y-106833000D01*
X150994858Y-106801758D01*
X150846898Y-106740470D01*
X150713742Y-106651498D01*
X150600502Y-106538258D01*
X150511530Y-106405102D01*
X150450242Y-106257142D01*
X150419000Y-106100075D01*
X150419000Y-105939925D01*
X150450242Y-105782858D01*
X150511530Y-105634898D01*
X150600502Y-105501742D01*
X150713742Y-105388502D01*
X150846898Y-105299530D01*
X150994858Y-105238242D01*
X151151925Y-105207000D01*
X151312075Y-105207000D01*
X151469142Y-105238242D01*
X151469142Y-105238242D01*
G37*
G36*
X123529142Y-105238242D02*
X123677102Y-105299530D01*
X123810258Y-105388502D01*
X123923498Y-105501742D01*
X124012470Y-105634898D01*
X124073758Y-105782858D01*
X124105000Y-105939925D01*
X124105000Y-106100075D01*
X124073758Y-106257142D01*
X124012470Y-106405102D01*
X123923498Y-106538258D01*
X123810258Y-106651498D01*
X123677102Y-106740470D01*
X123529142Y-106801758D01*
X123372075Y-106833000D01*
X123211925Y-106833000D01*
X123054858Y-106801758D01*
X122906898Y-106740470D01*
X122773742Y-106651498D01*
X122660502Y-106538258D01*
X122571530Y-106405102D01*
X122510242Y-106257142D01*
X122479000Y-106100075D01*
X122479000Y-105939925D01*
X122510242Y-105782858D01*
X122571530Y-105634898D01*
X122660502Y-105501742D01*
X122773742Y-105388502D01*
X122906898Y-105299530D01*
X123054858Y-105238242D01*
X123211925Y-105207000D01*
X123372075Y-105207000D01*
X123529142Y-105238242D01*
X123529142Y-105238242D01*
G37*
G36*
X157494821Y-103910913D02*
X157494824Y-103910914D01*
X157494825Y-103910914D01*
X157655239Y-103959575D01*
X157655241Y-103959576D01*
X157655244Y-103959577D01*
X157803078Y-104038595D01*
X157932659Y-104144941D01*
X158039005Y-104274522D01*
X158118023Y-104422356D01*
X158166687Y-104582779D01*
X158183117Y-104749600D01*
X158166687Y-104916421D01*
X158118023Y-105076844D01*
X158039005Y-105224678D01*
X157932659Y-105354259D01*
X157803078Y-105460605D01*
X157655244Y-105539623D01*
X157655241Y-105539624D01*
X157655239Y-105539625D01*
X157494825Y-105588286D01*
X157494824Y-105588286D01*
X157494821Y-105588287D01*
X157369804Y-105600600D01*
X157286196Y-105600600D01*
X157161179Y-105588287D01*
X157161176Y-105588286D01*
X157161175Y-105588286D01*
X157000761Y-105539625D01*
X157000759Y-105539624D01*
X157000756Y-105539623D01*
X156852922Y-105460605D01*
X156723341Y-105354259D01*
X156616995Y-105224678D01*
X156537977Y-105076844D01*
X156489313Y-104916421D01*
X156472883Y-104749600D01*
X156489313Y-104582779D01*
X156537977Y-104422356D01*
X156616995Y-104274522D01*
X156723341Y-104144941D01*
X156852922Y-104038595D01*
X157000756Y-103959577D01*
X157000759Y-103959576D01*
X157000761Y-103959575D01*
X157161175Y-103910914D01*
X157161176Y-103910914D01*
X157161179Y-103910913D01*
X157286196Y-103898600D01*
X157369804Y-103898600D01*
X157494821Y-103910913D01*
X157494821Y-103910913D01*
G37*
G36*
X165114821Y-103910913D02*
X165114824Y-103910914D01*
X165114825Y-103910914D01*
X165275239Y-103959575D01*
X165275241Y-103959576D01*
X165275244Y-103959577D01*
X165423078Y-104038595D01*
X165552659Y-104144941D01*
X165659005Y-104274522D01*
X165738023Y-104422356D01*
X165786687Y-104582779D01*
X165803117Y-104749600D01*
X165786687Y-104916421D01*
X165738023Y-105076844D01*
X165659005Y-105224678D01*
X165552659Y-105354259D01*
X165423078Y-105460605D01*
X165275244Y-105539623D01*
X165275241Y-105539624D01*
X165275239Y-105539625D01*
X165114825Y-105588286D01*
X165114824Y-105588286D01*
X165114821Y-105588287D01*
X164989804Y-105600600D01*
X164906196Y-105600600D01*
X164781179Y-105588287D01*
X164781176Y-105588286D01*
X164781175Y-105588286D01*
X164620761Y-105539625D01*
X164620759Y-105539624D01*
X164620756Y-105539623D01*
X164472922Y-105460605D01*
X164343341Y-105354259D01*
X164236995Y-105224678D01*
X164157977Y-105076844D01*
X164109313Y-104916421D01*
X164092883Y-104749600D01*
X164109313Y-104582779D01*
X164157977Y-104422356D01*
X164236995Y-104274522D01*
X164343341Y-104144941D01*
X164472922Y-104038595D01*
X164620756Y-103959577D01*
X164620759Y-103959576D01*
X164620761Y-103959575D01*
X164781175Y-103910914D01*
X164781176Y-103910914D01*
X164781179Y-103910913D01*
X164906196Y-103898600D01*
X164989804Y-103898600D01*
X165114821Y-103910913D01*
X165114821Y-103910913D01*
G37*
G36*
X151469142Y-102698242D02*
X151617102Y-102759530D01*
X151750258Y-102848502D01*
X151863498Y-102961742D01*
X151952470Y-103094898D01*
X152013758Y-103242858D01*
X152045000Y-103399925D01*
X152045000Y-103560075D01*
X152013758Y-103717142D01*
X151952470Y-103865102D01*
X151863498Y-103998258D01*
X151750258Y-104111498D01*
X151617102Y-104200470D01*
X151469142Y-104261758D01*
X151312075Y-104293000D01*
X151151925Y-104293000D01*
X150994858Y-104261758D01*
X150846898Y-104200470D01*
X150713742Y-104111498D01*
X150600502Y-103998258D01*
X150511530Y-103865102D01*
X150450242Y-103717142D01*
X150419000Y-103560075D01*
X150419000Y-103399925D01*
X150450242Y-103242858D01*
X150511530Y-103094898D01*
X150600502Y-102961742D01*
X150713742Y-102848502D01*
X150846898Y-102759530D01*
X150994858Y-102698242D01*
X151151925Y-102667000D01*
X151312075Y-102667000D01*
X151469142Y-102698242D01*
X151469142Y-102698242D01*
G37*
G36*
X123529142Y-102698242D02*
X123677102Y-102759530D01*
X123810258Y-102848502D01*
X123923498Y-102961742D01*
X124012470Y-103094898D01*
X124073758Y-103242858D01*
X124105000Y-103399925D01*
X124105000Y-103560075D01*
X124073758Y-103717142D01*
X124012470Y-103865102D01*
X123923498Y-103998258D01*
X123810258Y-104111498D01*
X123677102Y-104200470D01*
X123529142Y-104261758D01*
X123372075Y-104293000D01*
X123211925Y-104293000D01*
X123054858Y-104261758D01*
X122906898Y-104200470D01*
X122773742Y-104111498D01*
X122660502Y-103998258D01*
X122571530Y-103865102D01*
X122510242Y-103717142D01*
X122479000Y-103560075D01*
X122479000Y-103399925D01*
X122510242Y-103242858D01*
X122571530Y-103094898D01*
X122660502Y-102961742D01*
X122773742Y-102848502D01*
X122906898Y-102759530D01*
X123054858Y-102698242D01*
X123211925Y-102667000D01*
X123372075Y-102667000D01*
X123529142Y-102698242D01*
X123529142Y-102698242D01*
G37*
G36*
X165114821Y-101370913D02*
X165114824Y-101370914D01*
X165114825Y-101370914D01*
X165275239Y-101419575D01*
X165275241Y-101419576D01*
X165275244Y-101419577D01*
X165423078Y-101498595D01*
X165552659Y-101604941D01*
X165659005Y-101734522D01*
X165738023Y-101882356D01*
X165786687Y-102042779D01*
X165803117Y-102209600D01*
X165786687Y-102376421D01*
X165738023Y-102536844D01*
X165659005Y-102684678D01*
X165552659Y-102814259D01*
X165423078Y-102920605D01*
X165275244Y-102999623D01*
X165275241Y-102999624D01*
X165275239Y-102999625D01*
X165114825Y-103048286D01*
X165114824Y-103048286D01*
X165114821Y-103048287D01*
X164989804Y-103060600D01*
X164906196Y-103060600D01*
X164781179Y-103048287D01*
X164781176Y-103048286D01*
X164781175Y-103048286D01*
X164620761Y-102999625D01*
X164620759Y-102999624D01*
X164620756Y-102999623D01*
X164472922Y-102920605D01*
X164343341Y-102814259D01*
X164236995Y-102684678D01*
X164157977Y-102536844D01*
X164109313Y-102376421D01*
X164092883Y-102209600D01*
X164109313Y-102042779D01*
X164157977Y-101882356D01*
X164236995Y-101734522D01*
X164343341Y-101604941D01*
X164472922Y-101498595D01*
X164620756Y-101419577D01*
X164620759Y-101419576D01*
X164620761Y-101419575D01*
X164781175Y-101370914D01*
X164781176Y-101370914D01*
X164781179Y-101370913D01*
X164906196Y-101358600D01*
X164989804Y-101358600D01*
X165114821Y-101370913D01*
X165114821Y-101370913D01*
G37*
G36*
X157494821Y-101370913D02*
X157494824Y-101370914D01*
X157494825Y-101370914D01*
X157655239Y-101419575D01*
X157655241Y-101419576D01*
X157655244Y-101419577D01*
X157803078Y-101498595D01*
X157932659Y-101604941D01*
X158039005Y-101734522D01*
X158118023Y-101882356D01*
X158166687Y-102042779D01*
X158183117Y-102209600D01*
X158166687Y-102376421D01*
X158118023Y-102536844D01*
X158039005Y-102684678D01*
X157932659Y-102814259D01*
X157803078Y-102920605D01*
X157655244Y-102999623D01*
X157655241Y-102999624D01*
X157655239Y-102999625D01*
X157494825Y-103048286D01*
X157494824Y-103048286D01*
X157494821Y-103048287D01*
X157369804Y-103060600D01*
X157286196Y-103060600D01*
X157161179Y-103048287D01*
X157161176Y-103048286D01*
X157161175Y-103048286D01*
X157000761Y-102999625D01*
X157000759Y-102999624D01*
X157000756Y-102999623D01*
X156852922Y-102920605D01*
X156723341Y-102814259D01*
X156616995Y-102684678D01*
X156537977Y-102536844D01*
X156489313Y-102376421D01*
X156472883Y-102209600D01*
X156489313Y-102042779D01*
X156537977Y-101882356D01*
X156616995Y-101734522D01*
X156723341Y-101604941D01*
X156852922Y-101498595D01*
X157000756Y-101419577D01*
X157000759Y-101419576D01*
X157000761Y-101419575D01*
X157161175Y-101370914D01*
X157161176Y-101370914D01*
X157161179Y-101370913D01*
X157286196Y-101358600D01*
X157369804Y-101358600D01*
X157494821Y-101370913D01*
X157494821Y-101370913D01*
G37*
G36*
X151469142Y-100158242D02*
X151617102Y-100219530D01*
X151750258Y-100308502D01*
X151863498Y-100421742D01*
X151952470Y-100554898D01*
X152013758Y-100702858D01*
X152045000Y-100859925D01*
X152045000Y-101020075D01*
X152013758Y-101177142D01*
X151952470Y-101325102D01*
X151863498Y-101458258D01*
X151750258Y-101571498D01*
X151617102Y-101660470D01*
X151469142Y-101721758D01*
X151312075Y-101753000D01*
X151151925Y-101753000D01*
X150994858Y-101721758D01*
X150846898Y-101660470D01*
X150713742Y-101571498D01*
X150600502Y-101458258D01*
X150511530Y-101325102D01*
X150450242Y-101177142D01*
X150419000Y-101020075D01*
X150419000Y-100859925D01*
X150450242Y-100702858D01*
X150511530Y-100554898D01*
X150600502Y-100421742D01*
X150713742Y-100308502D01*
X150846898Y-100219530D01*
X150994858Y-100158242D01*
X151151925Y-100127000D01*
X151312075Y-100127000D01*
X151469142Y-100158242D01*
X151469142Y-100158242D01*
G37*
G36*
X123529142Y-100158242D02*
X123677102Y-100219530D01*
X123810258Y-100308502D01*
X123923498Y-100421742D01*
X124012470Y-100554898D01*
X124073758Y-100702858D01*
X124105000Y-100859925D01*
X124105000Y-101020075D01*
X124073758Y-101177142D01*
X124012470Y-101325102D01*
X123923498Y-101458258D01*
X123810258Y-101571498D01*
X123677102Y-101660470D01*
X123529142Y-101721758D01*
X123372075Y-101753000D01*
X123211925Y-101753000D01*
X123054858Y-101721758D01*
X122906898Y-101660470D01*
X122773742Y-101571498D01*
X122660502Y-101458258D01*
X122571530Y-101325102D01*
X122510242Y-101177142D01*
X122479000Y-101020075D01*
X122479000Y-100859925D01*
X122510242Y-100702858D01*
X122571530Y-100554898D01*
X122660502Y-100421742D01*
X122773742Y-100308502D01*
X122906898Y-100219530D01*
X123054858Y-100158242D01*
X123211925Y-100127000D01*
X123372075Y-100127000D01*
X123529142Y-100158242D01*
X123529142Y-100158242D01*
G37*
G36*
X165114821Y-98830913D02*
X165114824Y-98830914D01*
X165114825Y-98830914D01*
X165275239Y-98879575D01*
X165275241Y-98879576D01*
X165275244Y-98879577D01*
X165423078Y-98958595D01*
X165552659Y-99064941D01*
X165659005Y-99194522D01*
X165738023Y-99342356D01*
X165786687Y-99502779D01*
X165803117Y-99669600D01*
X165786687Y-99836421D01*
X165738023Y-99996844D01*
X165659005Y-100144678D01*
X165552659Y-100274259D01*
X165423078Y-100380605D01*
X165275244Y-100459623D01*
X165275241Y-100459624D01*
X165275239Y-100459625D01*
X165114825Y-100508286D01*
X165114824Y-100508286D01*
X165114821Y-100508287D01*
X164989804Y-100520600D01*
X164906196Y-100520600D01*
X164781179Y-100508287D01*
X164781176Y-100508286D01*
X164781175Y-100508286D01*
X164620761Y-100459625D01*
X164620759Y-100459624D01*
X164620756Y-100459623D01*
X164472922Y-100380605D01*
X164343341Y-100274259D01*
X164236995Y-100144678D01*
X164157977Y-99996844D01*
X164109313Y-99836421D01*
X164092883Y-99669600D01*
X164109313Y-99502779D01*
X164157977Y-99342356D01*
X164236995Y-99194522D01*
X164343341Y-99064941D01*
X164472922Y-98958595D01*
X164620756Y-98879577D01*
X164620759Y-98879576D01*
X164620761Y-98879575D01*
X164781175Y-98830914D01*
X164781176Y-98830914D01*
X164781179Y-98830913D01*
X164906196Y-98818600D01*
X164989804Y-98818600D01*
X165114821Y-98830913D01*
X165114821Y-98830913D01*
G37*
G36*
X157494821Y-98830913D02*
X157494824Y-98830914D01*
X157494825Y-98830914D01*
X157655239Y-98879575D01*
X157655241Y-98879576D01*
X157655244Y-98879577D01*
X157803078Y-98958595D01*
X157932659Y-99064941D01*
X158039005Y-99194522D01*
X158118023Y-99342356D01*
X158166687Y-99502779D01*
X158183117Y-99669600D01*
X158166687Y-99836421D01*
X158118023Y-99996844D01*
X158039005Y-100144678D01*
X157932659Y-100274259D01*
X157803078Y-100380605D01*
X157655244Y-100459623D01*
X157655241Y-100459624D01*
X157655239Y-100459625D01*
X157494825Y-100508286D01*
X157494824Y-100508286D01*
X157494821Y-100508287D01*
X157369804Y-100520600D01*
X157286196Y-100520600D01*
X157161179Y-100508287D01*
X157161176Y-100508286D01*
X157161175Y-100508286D01*
X157000761Y-100459625D01*
X157000759Y-100459624D01*
X157000756Y-100459623D01*
X156852922Y-100380605D01*
X156723341Y-100274259D01*
X156616995Y-100144678D01*
X156537977Y-99996844D01*
X156489313Y-99836421D01*
X156472883Y-99669600D01*
X156489313Y-99502779D01*
X156537977Y-99342356D01*
X156616995Y-99194522D01*
X156723341Y-99064941D01*
X156852922Y-98958595D01*
X157000756Y-98879577D01*
X157000759Y-98879576D01*
X157000761Y-98879575D01*
X157161175Y-98830914D01*
X157161176Y-98830914D01*
X157161179Y-98830913D01*
X157286196Y-98818600D01*
X157369804Y-98818600D01*
X157494821Y-98830913D01*
X157494821Y-98830913D01*
G37*
G36*
X151469142Y-97618242D02*
X151617102Y-97679530D01*
X151750258Y-97768502D01*
X151863498Y-97881742D01*
X151952470Y-98014898D01*
X152013758Y-98162858D01*
X152045000Y-98319925D01*
X152045000Y-98480075D01*
X152013758Y-98637142D01*
X151952470Y-98785102D01*
X151863498Y-98918258D01*
X151750258Y-99031498D01*
X151617102Y-99120470D01*
X151469142Y-99181758D01*
X151312075Y-99213000D01*
X151151925Y-99213000D01*
X150994858Y-99181758D01*
X150846898Y-99120470D01*
X150713742Y-99031498D01*
X150600502Y-98918258D01*
X150511530Y-98785102D01*
X150450242Y-98637142D01*
X150419000Y-98480075D01*
X150419000Y-98319925D01*
X150450242Y-98162858D01*
X150511530Y-98014898D01*
X150600502Y-97881742D01*
X150713742Y-97768502D01*
X150846898Y-97679530D01*
X150994858Y-97618242D01*
X151151925Y-97587000D01*
X151312075Y-97587000D01*
X151469142Y-97618242D01*
X151469142Y-97618242D01*
G37*
G36*
X123529142Y-97618242D02*
X123677102Y-97679530D01*
X123810258Y-97768502D01*
X123923498Y-97881742D01*
X124012470Y-98014898D01*
X124073758Y-98162858D01*
X124105000Y-98319925D01*
X124105000Y-98480075D01*
X124073758Y-98637142D01*
X124012470Y-98785102D01*
X123923498Y-98918258D01*
X123810258Y-99031498D01*
X123677102Y-99120470D01*
X123529142Y-99181758D01*
X123372075Y-99213000D01*
X123211925Y-99213000D01*
X123054858Y-99181758D01*
X122906898Y-99120470D01*
X122773742Y-99031498D01*
X122660502Y-98918258D01*
X122571530Y-98785102D01*
X122510242Y-98637142D01*
X122479000Y-98480075D01*
X122479000Y-98319925D01*
X122510242Y-98162858D01*
X122571530Y-98014898D01*
X122660502Y-97881742D01*
X122773742Y-97768502D01*
X122906898Y-97679530D01*
X123054858Y-97618242D01*
X123211925Y-97587000D01*
X123372075Y-97587000D01*
X123529142Y-97618242D01*
X123529142Y-97618242D01*
G37*
G36*
X165114821Y-96290913D02*
X165114824Y-96290914D01*
X165114825Y-96290914D01*
X165275239Y-96339575D01*
X165275241Y-96339576D01*
X165275244Y-96339577D01*
X165423078Y-96418595D01*
X165552659Y-96524941D01*
X165659005Y-96654522D01*
X165738023Y-96802356D01*
X165786687Y-96962779D01*
X165803117Y-97129600D01*
X165786687Y-97296421D01*
X165738023Y-97456844D01*
X165659005Y-97604678D01*
X165552659Y-97734259D01*
X165423078Y-97840605D01*
X165275244Y-97919623D01*
X165275241Y-97919624D01*
X165275239Y-97919625D01*
X165114825Y-97968286D01*
X165114824Y-97968286D01*
X165114821Y-97968287D01*
X164989804Y-97980600D01*
X164906196Y-97980600D01*
X164781179Y-97968287D01*
X164781176Y-97968286D01*
X164781175Y-97968286D01*
X164620761Y-97919625D01*
X164620759Y-97919624D01*
X164620756Y-97919623D01*
X164472922Y-97840605D01*
X164343341Y-97734259D01*
X164236995Y-97604678D01*
X164157977Y-97456844D01*
X164109313Y-97296421D01*
X164092883Y-97129600D01*
X164109313Y-96962779D01*
X164157977Y-96802356D01*
X164236995Y-96654522D01*
X164343341Y-96524941D01*
X164472922Y-96418595D01*
X164620756Y-96339577D01*
X164620759Y-96339576D01*
X164620761Y-96339575D01*
X164781175Y-96290914D01*
X164781176Y-96290914D01*
X164781179Y-96290913D01*
X164906196Y-96278600D01*
X164989804Y-96278600D01*
X165114821Y-96290913D01*
X165114821Y-96290913D01*
G37*
G36*
X157494821Y-96290913D02*
X157494824Y-96290914D01*
X157494825Y-96290914D01*
X157655239Y-96339575D01*
X157655241Y-96339576D01*
X157655244Y-96339577D01*
X157803078Y-96418595D01*
X157932659Y-96524941D01*
X158039005Y-96654522D01*
X158118023Y-96802356D01*
X158166687Y-96962779D01*
X158183117Y-97129600D01*
X158166687Y-97296421D01*
X158118023Y-97456844D01*
X158039005Y-97604678D01*
X157932659Y-97734259D01*
X157803078Y-97840605D01*
X157655244Y-97919623D01*
X157655241Y-97919624D01*
X157655239Y-97919625D01*
X157494825Y-97968286D01*
X157494824Y-97968286D01*
X157494821Y-97968287D01*
X157369804Y-97980600D01*
X157286196Y-97980600D01*
X157161179Y-97968287D01*
X157161176Y-97968286D01*
X157161175Y-97968286D01*
X157000761Y-97919625D01*
X157000759Y-97919624D01*
X157000756Y-97919623D01*
X156852922Y-97840605D01*
X156723341Y-97734259D01*
X156616995Y-97604678D01*
X156537977Y-97456844D01*
X156489313Y-97296421D01*
X156472883Y-97129600D01*
X156489313Y-96962779D01*
X156537977Y-96802356D01*
X156616995Y-96654522D01*
X156723341Y-96524941D01*
X156852922Y-96418595D01*
X157000756Y-96339577D01*
X157000759Y-96339576D01*
X157000761Y-96339575D01*
X157161175Y-96290914D01*
X157161176Y-96290914D01*
X157161179Y-96290913D01*
X157286196Y-96278600D01*
X157369804Y-96278600D01*
X157494821Y-96290913D01*
X157494821Y-96290913D01*
G37*
G36*
X123529142Y-95078242D02*
X123677102Y-95139530D01*
X123810258Y-95228502D01*
X123923498Y-95341742D01*
X124012470Y-95474898D01*
X124073758Y-95622858D01*
X124105000Y-95779925D01*
X124105000Y-95940075D01*
X124073758Y-96097142D01*
X124012470Y-96245102D01*
X123923498Y-96378258D01*
X123810258Y-96491498D01*
X123677102Y-96580470D01*
X123529142Y-96641758D01*
X123372075Y-96673000D01*
X123211925Y-96673000D01*
X123054858Y-96641758D01*
X122906898Y-96580470D01*
X122773742Y-96491498D01*
X122660502Y-96378258D01*
X122571530Y-96245102D01*
X122510242Y-96097142D01*
X122479000Y-95940075D01*
X122479000Y-95779925D01*
X122510242Y-95622858D01*
X122571530Y-95474898D01*
X122660502Y-95341742D01*
X122773742Y-95228502D01*
X122906898Y-95139530D01*
X123054858Y-95078242D01*
X123211925Y-95047000D01*
X123372075Y-95047000D01*
X123529142Y-95078242D01*
X123529142Y-95078242D01*
G37*
G36*
X151469142Y-95078242D02*
X151617102Y-95139530D01*
X151750258Y-95228502D01*
X151863498Y-95341742D01*
X151952470Y-95474898D01*
X152013758Y-95622858D01*
X152045000Y-95779925D01*
X152045000Y-95940075D01*
X152013758Y-96097142D01*
X151952470Y-96245102D01*
X151863498Y-96378258D01*
X151750258Y-96491498D01*
X151617102Y-96580470D01*
X151469142Y-96641758D01*
X151312075Y-96673000D01*
X151151925Y-96673000D01*
X150994858Y-96641758D01*
X150846898Y-96580470D01*
X150713742Y-96491498D01*
X150600502Y-96378258D01*
X150511530Y-96245102D01*
X150450242Y-96097142D01*
X150419000Y-95940075D01*
X150419000Y-95779925D01*
X150450242Y-95622858D01*
X150511530Y-95474898D01*
X150600502Y-95341742D01*
X150713742Y-95228502D01*
X150846898Y-95139530D01*
X150994858Y-95078242D01*
X151151925Y-95047000D01*
X151312075Y-95047000D01*
X151469142Y-95078242D01*
X151469142Y-95078242D01*
G37*
G36*
X165114821Y-93750913D02*
X165114824Y-93750914D01*
X165114825Y-93750914D01*
X165275239Y-93799575D01*
X165275241Y-93799576D01*
X165275244Y-93799577D01*
X165423078Y-93878595D01*
X165552659Y-93984941D01*
X165659005Y-94114522D01*
X165738023Y-94262356D01*
X165786687Y-94422779D01*
X165803117Y-94589600D01*
X165786687Y-94756421D01*
X165738023Y-94916844D01*
X165659005Y-95064678D01*
X165552659Y-95194259D01*
X165423078Y-95300605D01*
X165275244Y-95379623D01*
X165275241Y-95379624D01*
X165275239Y-95379625D01*
X165114825Y-95428286D01*
X165114824Y-95428286D01*
X165114821Y-95428287D01*
X164989804Y-95440600D01*
X164906196Y-95440600D01*
X164781179Y-95428287D01*
X164781176Y-95428286D01*
X164781175Y-95428286D01*
X164620761Y-95379625D01*
X164620759Y-95379624D01*
X164620756Y-95379623D01*
X164472922Y-95300605D01*
X164343341Y-95194259D01*
X164236995Y-95064678D01*
X164157977Y-94916844D01*
X164109313Y-94756421D01*
X164092883Y-94589600D01*
X164109313Y-94422779D01*
X164157977Y-94262356D01*
X164236995Y-94114522D01*
X164343341Y-93984941D01*
X164472922Y-93878595D01*
X164620756Y-93799577D01*
X164620759Y-93799576D01*
X164620761Y-93799575D01*
X164781175Y-93750914D01*
X164781176Y-93750914D01*
X164781179Y-93750913D01*
X164906196Y-93738600D01*
X164989804Y-93738600D01*
X165114821Y-93750913D01*
X165114821Y-93750913D01*
G37*
G36*
X157494821Y-93750913D02*
X157494824Y-93750914D01*
X157494825Y-93750914D01*
X157655239Y-93799575D01*
X157655241Y-93799576D01*
X157655244Y-93799577D01*
X157803078Y-93878595D01*
X157932659Y-93984941D01*
X158039005Y-94114522D01*
X158118023Y-94262356D01*
X158166687Y-94422779D01*
X158183117Y-94589600D01*
X158166687Y-94756421D01*
X158118023Y-94916844D01*
X158039005Y-95064678D01*
X157932659Y-95194259D01*
X157803078Y-95300605D01*
X157655244Y-95379623D01*
X157655241Y-95379624D01*
X157655239Y-95379625D01*
X157494825Y-95428286D01*
X157494824Y-95428286D01*
X157494821Y-95428287D01*
X157369804Y-95440600D01*
X157286196Y-95440600D01*
X157161179Y-95428287D01*
X157161176Y-95428286D01*
X157161175Y-95428286D01*
X157000761Y-95379625D01*
X157000759Y-95379624D01*
X157000756Y-95379623D01*
X156852922Y-95300605D01*
X156723341Y-95194259D01*
X156616995Y-95064678D01*
X156537977Y-94916844D01*
X156489313Y-94756421D01*
X156472883Y-94589600D01*
X156489313Y-94422779D01*
X156537977Y-94262356D01*
X156616995Y-94114522D01*
X156723341Y-93984941D01*
X156852922Y-93878595D01*
X157000756Y-93799577D01*
X157000759Y-93799576D01*
X157000761Y-93799575D01*
X157161175Y-93750914D01*
X157161176Y-93750914D01*
X157161179Y-93750913D01*
X157286196Y-93738600D01*
X157369804Y-93738600D01*
X157494821Y-93750913D01*
X157494821Y-93750913D01*
G37*
G36*
X151469142Y-92538242D02*
X151617102Y-92599530D01*
X151750258Y-92688502D01*
X151863498Y-92801742D01*
X151952470Y-92934898D01*
X152013758Y-93082858D01*
X152045000Y-93239925D01*
X152045000Y-93400075D01*
X152013758Y-93557142D01*
X151952470Y-93705102D01*
X151863498Y-93838258D01*
X151750258Y-93951498D01*
X151617102Y-94040470D01*
X151469142Y-94101758D01*
X151312075Y-94133000D01*
X151151925Y-94133000D01*
X150994858Y-94101758D01*
X150846898Y-94040470D01*
X150713742Y-93951498D01*
X150600502Y-93838258D01*
X150511530Y-93705102D01*
X150450242Y-93557142D01*
X150419000Y-93400075D01*
X150419000Y-93239925D01*
X150450242Y-93082858D01*
X150511530Y-92934898D01*
X150600502Y-92801742D01*
X150713742Y-92688502D01*
X150846898Y-92599530D01*
X150994858Y-92538242D01*
X151151925Y-92507000D01*
X151312075Y-92507000D01*
X151469142Y-92538242D01*
X151469142Y-92538242D01*
G37*
G36*
X123529142Y-92538242D02*
X123677102Y-92599530D01*
X123810258Y-92688502D01*
X123923498Y-92801742D01*
X124012470Y-92934898D01*
X124073758Y-93082858D01*
X124105000Y-93239925D01*
X124105000Y-93400075D01*
X124073758Y-93557142D01*
X124012470Y-93705102D01*
X123923498Y-93838258D01*
X123810258Y-93951498D01*
X123677102Y-94040470D01*
X123529142Y-94101758D01*
X123372075Y-94133000D01*
X123211925Y-94133000D01*
X123054858Y-94101758D01*
X122906898Y-94040470D01*
X122773742Y-93951498D01*
X122660502Y-93838258D01*
X122571530Y-93705102D01*
X122510242Y-93557142D01*
X122479000Y-93400075D01*
X122479000Y-93239925D01*
X122510242Y-93082858D01*
X122571530Y-92934898D01*
X122660502Y-92801742D01*
X122773742Y-92688502D01*
X122906898Y-92599530D01*
X123054858Y-92538242D01*
X123211925Y-92507000D01*
X123372075Y-92507000D01*
X123529142Y-92538242D01*
X123529142Y-92538242D01*
G37*
G36*
X165114821Y-91210913D02*
X165114824Y-91210914D01*
X165114825Y-91210914D01*
X165275239Y-91259575D01*
X165275241Y-91259576D01*
X165275244Y-91259577D01*
X165423078Y-91338595D01*
X165552659Y-91444941D01*
X165659005Y-91574522D01*
X165738023Y-91722356D01*
X165786687Y-91882779D01*
X165803117Y-92049600D01*
X165786687Y-92216421D01*
X165738023Y-92376844D01*
X165659005Y-92524678D01*
X165552659Y-92654259D01*
X165423078Y-92760605D01*
X165275244Y-92839623D01*
X165275241Y-92839624D01*
X165275239Y-92839625D01*
X165114825Y-92888286D01*
X165114824Y-92888286D01*
X165114821Y-92888287D01*
X164989804Y-92900600D01*
X164906196Y-92900600D01*
X164781179Y-92888287D01*
X164781176Y-92888286D01*
X164781175Y-92888286D01*
X164620761Y-92839625D01*
X164620759Y-92839624D01*
X164620756Y-92839623D01*
X164472922Y-92760605D01*
X164343341Y-92654259D01*
X164236995Y-92524678D01*
X164157977Y-92376844D01*
X164109313Y-92216421D01*
X164092883Y-92049600D01*
X164109313Y-91882779D01*
X164157977Y-91722356D01*
X164236995Y-91574522D01*
X164343341Y-91444941D01*
X164472922Y-91338595D01*
X164620756Y-91259577D01*
X164620759Y-91259576D01*
X164620761Y-91259575D01*
X164781175Y-91210914D01*
X164781176Y-91210914D01*
X164781179Y-91210913D01*
X164906196Y-91198600D01*
X164989804Y-91198600D01*
X165114821Y-91210913D01*
X165114821Y-91210913D01*
G37*
G36*
X157494821Y-91210913D02*
X157494824Y-91210914D01*
X157494825Y-91210914D01*
X157655239Y-91259575D01*
X157655241Y-91259576D01*
X157655244Y-91259577D01*
X157803078Y-91338595D01*
X157932659Y-91444941D01*
X158039005Y-91574522D01*
X158118023Y-91722356D01*
X158166687Y-91882779D01*
X158183117Y-92049600D01*
X158166687Y-92216421D01*
X158118023Y-92376844D01*
X158039005Y-92524678D01*
X157932659Y-92654259D01*
X157803078Y-92760605D01*
X157655244Y-92839623D01*
X157655241Y-92839624D01*
X157655239Y-92839625D01*
X157494825Y-92888286D01*
X157494824Y-92888286D01*
X157494821Y-92888287D01*
X157369804Y-92900600D01*
X157286196Y-92900600D01*
X157161179Y-92888287D01*
X157161176Y-92888286D01*
X157161175Y-92888286D01*
X157000761Y-92839625D01*
X157000759Y-92839624D01*
X157000756Y-92839623D01*
X156852922Y-92760605D01*
X156723341Y-92654259D01*
X156616995Y-92524678D01*
X156537977Y-92376844D01*
X156489313Y-92216421D01*
X156472883Y-92049600D01*
X156489313Y-91882779D01*
X156537977Y-91722356D01*
X156616995Y-91574522D01*
X156723341Y-91444941D01*
X156852922Y-91338595D01*
X157000756Y-91259577D01*
X157000759Y-91259576D01*
X157000761Y-91259575D01*
X157161175Y-91210914D01*
X157161176Y-91210914D01*
X157161179Y-91210913D01*
X157286196Y-91198600D01*
X157369804Y-91198600D01*
X157494821Y-91210913D01*
X157494821Y-91210913D01*
G37*
G36*
X151469142Y-89998242D02*
X151617102Y-90059530D01*
X151750258Y-90148502D01*
X151863498Y-90261742D01*
X151952470Y-90394898D01*
X152013758Y-90542858D01*
X152045000Y-90699925D01*
X152045000Y-90860075D01*
X152013758Y-91017142D01*
X151952470Y-91165102D01*
X151863498Y-91298258D01*
X151750258Y-91411498D01*
X151617102Y-91500470D01*
X151469142Y-91561758D01*
X151312075Y-91593000D01*
X151151925Y-91593000D01*
X150994858Y-91561758D01*
X150846898Y-91500470D01*
X150713742Y-91411498D01*
X150600502Y-91298258D01*
X150511530Y-91165102D01*
X150450242Y-91017142D01*
X150419000Y-90860075D01*
X150419000Y-90699925D01*
X150450242Y-90542858D01*
X150511530Y-90394898D01*
X150600502Y-90261742D01*
X150713742Y-90148502D01*
X150846898Y-90059530D01*
X150994858Y-89998242D01*
X151151925Y-89967000D01*
X151312075Y-89967000D01*
X151469142Y-89998242D01*
X151469142Y-89998242D01*
G37*
G36*
X123529142Y-89998242D02*
X123677102Y-90059530D01*
X123810258Y-90148502D01*
X123923498Y-90261742D01*
X124012470Y-90394898D01*
X124073758Y-90542858D01*
X124105000Y-90699925D01*
X124105000Y-90860075D01*
X124073758Y-91017142D01*
X124012470Y-91165102D01*
X123923498Y-91298258D01*
X123810258Y-91411498D01*
X123677102Y-91500470D01*
X123529142Y-91561758D01*
X123372075Y-91593000D01*
X123211925Y-91593000D01*
X123054858Y-91561758D01*
X122906898Y-91500470D01*
X122773742Y-91411498D01*
X122660502Y-91298258D01*
X122571530Y-91165102D01*
X122510242Y-91017142D01*
X122479000Y-90860075D01*
X122479000Y-90699925D01*
X122510242Y-90542858D01*
X122571530Y-90394898D01*
X122660502Y-90261742D01*
X122773742Y-90148502D01*
X122906898Y-90059530D01*
X123054858Y-89998242D01*
X123211925Y-89967000D01*
X123372075Y-89967000D01*
X123529142Y-89998242D01*
X123529142Y-89998242D01*
G37*
G36*
X165114821Y-88670913D02*
X165114824Y-88670914D01*
X165114825Y-88670914D01*
X165275239Y-88719575D01*
X165275241Y-88719576D01*
X165275244Y-88719577D01*
X165423078Y-88798595D01*
X165552659Y-88904941D01*
X165659005Y-89034522D01*
X165738023Y-89182356D01*
X165786687Y-89342779D01*
X165803117Y-89509600D01*
X165786687Y-89676421D01*
X165738023Y-89836844D01*
X165659005Y-89984678D01*
X165552659Y-90114259D01*
X165423078Y-90220605D01*
X165275244Y-90299623D01*
X165275241Y-90299624D01*
X165275239Y-90299625D01*
X165114825Y-90348286D01*
X165114824Y-90348286D01*
X165114821Y-90348287D01*
X164989804Y-90360600D01*
X164906196Y-90360600D01*
X164781179Y-90348287D01*
X164781176Y-90348286D01*
X164781175Y-90348286D01*
X164620761Y-90299625D01*
X164620759Y-90299624D01*
X164620756Y-90299623D01*
X164472922Y-90220605D01*
X164343341Y-90114259D01*
X164236995Y-89984678D01*
X164157977Y-89836844D01*
X164109313Y-89676421D01*
X164092883Y-89509600D01*
X164109313Y-89342779D01*
X164157977Y-89182356D01*
X164236995Y-89034522D01*
X164343341Y-88904941D01*
X164472922Y-88798595D01*
X164620756Y-88719577D01*
X164620759Y-88719576D01*
X164620761Y-88719575D01*
X164781175Y-88670914D01*
X164781176Y-88670914D01*
X164781179Y-88670913D01*
X164906196Y-88658600D01*
X164989804Y-88658600D01*
X165114821Y-88670913D01*
X165114821Y-88670913D01*
G37*
G36*
X158179000Y-90360600D02*
X156477000Y-90360600D01*
X156477000Y-88658600D01*
X158179000Y-88658600D01*
X158179000Y-90360600D01*
X158179000Y-90360600D01*
G37*
G36*
X123529142Y-87458242D02*
X123677102Y-87519530D01*
X123810258Y-87608502D01*
X123923498Y-87721742D01*
X124012470Y-87854898D01*
X124073758Y-88002858D01*
X124105000Y-88159925D01*
X124105000Y-88320075D01*
X124073758Y-88477142D01*
X124012470Y-88625102D01*
X123923498Y-88758258D01*
X123810258Y-88871498D01*
X123677102Y-88960470D01*
X123529142Y-89021758D01*
X123372075Y-89053000D01*
X123211925Y-89053000D01*
X123054858Y-89021758D01*
X122906898Y-88960470D01*
X122773742Y-88871498D01*
X122660502Y-88758258D01*
X122571530Y-88625102D01*
X122510242Y-88477142D01*
X122479000Y-88320075D01*
X122479000Y-88159925D01*
X122510242Y-88002858D01*
X122571530Y-87854898D01*
X122660502Y-87721742D01*
X122773742Y-87608502D01*
X122906898Y-87519530D01*
X123054858Y-87458242D01*
X123211925Y-87427000D01*
X123372075Y-87427000D01*
X123529142Y-87458242D01*
X123529142Y-87458242D01*
G37*
G36*
X151469142Y-87458242D02*
X151617102Y-87519530D01*
X151750258Y-87608502D01*
X151863498Y-87721742D01*
X151952470Y-87854898D01*
X152013758Y-88002858D01*
X152045000Y-88159925D01*
X152045000Y-88320075D01*
X152013758Y-88477142D01*
X151952470Y-88625102D01*
X151863498Y-88758258D01*
X151750258Y-88871498D01*
X151617102Y-88960470D01*
X151469142Y-89021758D01*
X151312075Y-89053000D01*
X151151925Y-89053000D01*
X150994858Y-89021758D01*
X150846898Y-88960470D01*
X150713742Y-88871498D01*
X150600502Y-88758258D01*
X150511530Y-88625102D01*
X150450242Y-88477142D01*
X150419000Y-88320075D01*
X150419000Y-88159925D01*
X150450242Y-88002858D01*
X150511530Y-87854898D01*
X150600502Y-87721742D01*
X150713742Y-87608502D01*
X150846898Y-87519530D01*
X150994858Y-87458242D01*
X151151925Y-87427000D01*
X151312075Y-87427000D01*
X151469142Y-87458242D01*
X151469142Y-87458242D01*
G37*
G36*
X165049346Y-83240074D02*
X165301589Y-83290248D01*
X165680671Y-83447269D01*
X165827085Y-83545100D01*
X166021838Y-83675230D01*
X166311970Y-83965362D01*
X166311972Y-83965365D01*
X166539931Y-84306529D01*
X166683971Y-84654271D01*
X166696952Y-84685612D01*
X166758580Y-84995435D01*
X166777000Y-85088042D01*
X166777000Y-85498358D01*
X166696952Y-85900789D01*
X166539931Y-86279871D01*
X166445985Y-86420471D01*
X166311970Y-86621038D01*
X166021838Y-86911170D01*
X166021835Y-86911172D01*
X165680671Y-87139131D01*
X165301589Y-87296152D01*
X165100373Y-87336176D01*
X164899159Y-87376200D01*
X164488841Y-87376200D01*
X164287627Y-87336176D01*
X164086411Y-87296152D01*
X163707329Y-87139131D01*
X163366165Y-86911172D01*
X163366162Y-86911170D01*
X163076030Y-86621038D01*
X162942015Y-86420471D01*
X162848069Y-86279871D01*
X162691048Y-85900789D01*
X162611000Y-85498358D01*
X162611000Y-85088042D01*
X162629421Y-84995435D01*
X162691048Y-84685612D01*
X162704030Y-84654271D01*
X162848069Y-84306529D01*
X163076028Y-83965365D01*
X163076030Y-83965362D01*
X163366162Y-83675230D01*
X163560915Y-83545100D01*
X163707329Y-83447269D01*
X164086411Y-83290248D01*
X164338654Y-83240074D01*
X164488841Y-83210200D01*
X164899159Y-83210200D01*
X165049346Y-83240074D01*
X165049346Y-83240074D01*
G37*
G36*
X123529142Y-84918242D02*
X123677102Y-84979530D01*
X123810258Y-85068502D01*
X123923498Y-85181742D01*
X124012470Y-85314898D01*
X124073758Y-85462858D01*
X124105000Y-85619925D01*
X124105000Y-85780075D01*
X124073758Y-85937142D01*
X124012470Y-86085102D01*
X123923498Y-86218258D01*
X123810258Y-86331498D01*
X123677102Y-86420470D01*
X123529142Y-86481758D01*
X123372075Y-86513000D01*
X123211925Y-86513000D01*
X123054858Y-86481758D01*
X122906898Y-86420470D01*
X122773742Y-86331498D01*
X122660502Y-86218258D01*
X122571530Y-86085102D01*
X122510242Y-85937142D01*
X122479000Y-85780075D01*
X122479000Y-85619925D01*
X122510242Y-85462858D01*
X122571530Y-85314898D01*
X122660502Y-85181742D01*
X122773742Y-85068502D01*
X122906898Y-84979530D01*
X123054858Y-84918242D01*
X123211925Y-84887000D01*
X123372075Y-84887000D01*
X123529142Y-84918242D01*
X123529142Y-84918242D01*
G37*
G36*
X151469142Y-84918242D02*
X151617102Y-84979530D01*
X151750258Y-85068502D01*
X151863498Y-85181742D01*
X151952470Y-85314898D01*
X152013758Y-85462858D01*
X152045000Y-85619925D01*
X152045000Y-85780075D01*
X152013758Y-85937142D01*
X151952470Y-86085102D01*
X151863498Y-86218258D01*
X151750258Y-86331498D01*
X151617102Y-86420470D01*
X151469142Y-86481758D01*
X151312075Y-86513000D01*
X151151925Y-86513000D01*
X150994858Y-86481758D01*
X150846898Y-86420470D01*
X150713742Y-86331498D01*
X150600502Y-86218258D01*
X150511530Y-86085102D01*
X150450242Y-85937142D01*
X150419000Y-85780075D01*
X150419000Y-85619925D01*
X150450242Y-85462858D01*
X150511530Y-85314898D01*
X150600502Y-85181742D01*
X150713742Y-85068502D01*
X150846898Y-84979530D01*
X150994858Y-84918242D01*
X151151925Y-84887000D01*
X151312075Y-84887000D01*
X151469142Y-84918242D01*
X151469142Y-84918242D01*
G37*
G36*
X116840373Y-81624624D02*
X117041589Y-81664648D01*
X117309639Y-81775678D01*
X117370654Y-81800951D01*
X117420671Y-81821669D01*
X117757294Y-82046594D01*
X117761838Y-82049630D01*
X118051970Y-82339762D01*
X118051972Y-82339765D01*
X118253748Y-82641743D01*
X118279932Y-82680931D01*
X118436952Y-83060012D01*
X118517000Y-83462441D01*
X118517000Y-83872759D01*
X118497061Y-83973000D01*
X118436952Y-84275189D01*
X118279931Y-84654271D01*
X118124426Y-84887000D01*
X118051970Y-84995438D01*
X117761838Y-85285570D01*
X117761835Y-85285572D01*
X117420671Y-85513531D01*
X117041589Y-85670552D01*
X116639159Y-85750600D01*
X116228841Y-85750600D01*
X116027627Y-85710576D01*
X115826411Y-85670552D01*
X115447329Y-85513531D01*
X115106165Y-85285572D01*
X115106162Y-85285570D01*
X114816030Y-84995438D01*
X114743574Y-84887000D01*
X114588069Y-84654271D01*
X114431048Y-84275189D01*
X114370939Y-83973000D01*
X114351000Y-83872759D01*
X114351000Y-83462441D01*
X114431048Y-83060012D01*
X114588068Y-82680931D01*
X114614253Y-82641743D01*
X114816028Y-82339765D01*
X114816030Y-82339762D01*
X115106162Y-82049630D01*
X115110706Y-82046594D01*
X115447329Y-81821669D01*
X115497347Y-81800951D01*
X115558361Y-81775678D01*
X115826411Y-81664648D01*
X116027627Y-81624624D01*
X116228841Y-81584600D01*
X116639159Y-81584600D01*
X116840373Y-81624624D01*
X116840373Y-81624624D01*
G37*
G36*
X151469142Y-82378242D02*
X151617102Y-82439530D01*
X151750258Y-82528502D01*
X151863498Y-82641742D01*
X151952470Y-82774898D01*
X152013758Y-82922858D01*
X152045000Y-83079925D01*
X152045000Y-83240075D01*
X152013758Y-83397142D01*
X151992994Y-83447269D01*
X151952471Y-83545100D01*
X151865522Y-83675230D01*
X151863498Y-83678258D01*
X151750258Y-83791498D01*
X151617102Y-83880470D01*
X151469142Y-83941758D01*
X151312075Y-83973000D01*
X151151925Y-83973000D01*
X150994858Y-83941758D01*
X150846898Y-83880470D01*
X150713742Y-83791498D01*
X150600502Y-83678258D01*
X150598479Y-83675230D01*
X150511529Y-83545100D01*
X150471006Y-83447269D01*
X150450242Y-83397142D01*
X150419000Y-83240075D01*
X150419000Y-83079925D01*
X150450242Y-82922858D01*
X150511530Y-82774898D01*
X150600502Y-82641742D01*
X150713742Y-82528502D01*
X150846898Y-82439530D01*
X150994858Y-82378242D01*
X151151925Y-82347000D01*
X151312075Y-82347000D01*
X151469142Y-82378242D01*
X151469142Y-82378242D01*
G37*
G36*
X123529142Y-82378242D02*
X123677102Y-82439530D01*
X123810258Y-82528502D01*
X123923498Y-82641742D01*
X124012470Y-82774898D01*
X124073758Y-82922858D01*
X124105000Y-83079925D01*
X124105000Y-83240075D01*
X124073758Y-83397142D01*
X124052994Y-83447269D01*
X124012471Y-83545100D01*
X123925522Y-83675230D01*
X123923498Y-83678258D01*
X123810258Y-83791498D01*
X123677102Y-83880470D01*
X123529142Y-83941758D01*
X123372075Y-83973000D01*
X123211925Y-83973000D01*
X123054858Y-83941758D01*
X122906898Y-83880470D01*
X122773742Y-83791498D01*
X122660502Y-83678258D01*
X122658479Y-83675230D01*
X122571529Y-83545100D01*
X122531006Y-83447269D01*
X122510242Y-83397142D01*
X122479000Y-83240075D01*
X122479000Y-83079925D01*
X122510242Y-82922858D01*
X122571530Y-82774898D01*
X122660502Y-82641742D01*
X122773742Y-82528502D01*
X122906898Y-82439530D01*
X123054858Y-82378242D01*
X123211925Y-82347000D01*
X123372075Y-82347000D01*
X123529142Y-82378242D01*
X123529142Y-82378242D01*
G37*
G36*
X157845605Y-79830530D02*
X157980232Y-79857309D01*
X158082160Y-79899529D01*
X158262471Y-79974216D01*
X158516485Y-80143943D01*
X158732497Y-80359955D01*
X158902224Y-80613969D01*
X158937890Y-80700075D01*
X159002950Y-80857143D01*
X159019131Y-80896209D01*
X159078730Y-81195831D01*
X159078730Y-81501329D01*
X159038997Y-81701077D01*
X159019131Y-81800952D01*
X158970706Y-81917859D01*
X158902224Y-82083191D01*
X158732497Y-82337205D01*
X158516485Y-82553217D01*
X158262471Y-82722944D01*
X158137042Y-82774898D01*
X157980232Y-82839851D01*
X157880357Y-82859717D01*
X157680609Y-82899450D01*
X157375111Y-82899450D01*
X157175363Y-82859717D01*
X157075488Y-82839851D01*
X156918678Y-82774898D01*
X156793249Y-82722944D01*
X156539235Y-82553217D01*
X156323223Y-82337205D01*
X156153496Y-82083191D01*
X156085014Y-81917859D01*
X156036589Y-81800952D01*
X156016723Y-81701077D01*
X155976990Y-81501329D01*
X155976990Y-81195831D01*
X156036589Y-80896209D01*
X156052771Y-80857143D01*
X156117830Y-80700075D01*
X156153496Y-80613969D01*
X156323223Y-80359955D01*
X156539235Y-80143943D01*
X156793249Y-79974216D01*
X156973560Y-79899529D01*
X157075488Y-79857309D01*
X157210115Y-79830530D01*
X157375111Y-79797710D01*
X157680609Y-79797710D01*
X157845605Y-79830530D01*
X157845605Y-79830530D01*
G37*
G36*
X123529142Y-79838242D02*
X123677102Y-79899530D01*
X123744130Y-79944317D01*
X123810257Y-79988501D01*
X123923499Y-80101743D01*
X123951696Y-80143943D01*
X124012470Y-80234898D01*
X124073758Y-80382858D01*
X124105000Y-80539925D01*
X124105000Y-80700075D01*
X124073758Y-80857142D01*
X124012470Y-81005102D01*
X123923498Y-81138258D01*
X123810258Y-81251498D01*
X123677102Y-81340470D01*
X123529142Y-81401758D01*
X123372075Y-81433000D01*
X123211925Y-81433000D01*
X123054858Y-81401758D01*
X122906898Y-81340470D01*
X122773742Y-81251498D01*
X122660502Y-81138258D01*
X122571530Y-81005102D01*
X122510242Y-80857142D01*
X122479000Y-80700075D01*
X122479000Y-80539925D01*
X122510242Y-80382858D01*
X122571530Y-80234898D01*
X122632304Y-80143943D01*
X122660501Y-80101743D01*
X122773743Y-79988501D01*
X122839870Y-79944317D01*
X122906898Y-79899530D01*
X123054858Y-79838242D01*
X123211925Y-79807000D01*
X123372075Y-79807000D01*
X123529142Y-79838242D01*
X123529142Y-79838242D01*
G37*
G36*
X151469142Y-79838242D02*
X151617102Y-79899530D01*
X151684130Y-79944317D01*
X151750257Y-79988501D01*
X151863499Y-80101743D01*
X151891696Y-80143943D01*
X151952470Y-80234898D01*
X152013758Y-80382858D01*
X152045000Y-80539925D01*
X152045000Y-80700075D01*
X152013758Y-80857142D01*
X151952470Y-81005102D01*
X151863498Y-81138258D01*
X151750258Y-81251498D01*
X151617102Y-81340470D01*
X151469142Y-81401758D01*
X151312075Y-81433000D01*
X151151925Y-81433000D01*
X150994858Y-81401758D01*
X150846898Y-81340470D01*
X150713742Y-81251498D01*
X150600502Y-81138258D01*
X150511530Y-81005102D01*
X150450242Y-80857142D01*
X150419000Y-80700075D01*
X150419000Y-80539925D01*
X150450242Y-80382858D01*
X150511530Y-80234898D01*
X150572304Y-80143943D01*
X150600501Y-80101743D01*
X150713743Y-79988501D01*
X150779870Y-79944317D01*
X150846898Y-79899530D01*
X150994858Y-79838242D01*
X151151925Y-79807000D01*
X151312075Y-79807000D01*
X151469142Y-79838242D01*
X151469142Y-79838242D01*
G37*
G36*
X118010232Y-78647783D02*
X118198919Y-78705021D01*
X118372817Y-78797971D01*
X118525239Y-78923061D01*
X118650329Y-79075483D01*
X118743279Y-79249381D01*
X118800517Y-79438068D01*
X118819843Y-79634300D01*
X118800517Y-79830532D01*
X118743279Y-80019219D01*
X118650329Y-80193117D01*
X118525239Y-80345539D01*
X118372817Y-80470629D01*
X118198919Y-80563579D01*
X118010232Y-80620817D01*
X117863176Y-80635300D01*
X116164824Y-80635300D01*
X116017768Y-80620817D01*
X115829081Y-80563579D01*
X115655183Y-80470629D01*
X115502761Y-80345539D01*
X115377671Y-80193117D01*
X115284721Y-80019219D01*
X115227483Y-79830532D01*
X115208157Y-79634300D01*
X115227483Y-79438068D01*
X115284721Y-79249381D01*
X115377671Y-79075483D01*
X115502761Y-78923061D01*
X115655183Y-78797971D01*
X115829081Y-78705021D01*
X116017768Y-78647783D01*
X116164824Y-78633300D01*
X117863176Y-78633300D01*
X118010232Y-78647783D01*
X118010232Y-78647783D01*
G37*
G36*
X155051489Y-77506954D02*
X155197366Y-77567378D01*
X155328061Y-77654706D01*
X155328654Y-77655102D01*
X155440298Y-77766746D01*
X155440300Y-77766749D01*
X155528022Y-77898034D01*
X155588446Y-78043911D01*
X155619250Y-78198772D01*
X155619250Y-78356668D01*
X155588446Y-78511529D01*
X155528022Y-78657406D01*
X155440694Y-78788101D01*
X155440298Y-78788694D01*
X155328654Y-78900338D01*
X155328651Y-78900340D01*
X155197366Y-78988062D01*
X155051489Y-79048486D01*
X154896628Y-79079290D01*
X154738732Y-79079290D01*
X154583871Y-79048486D01*
X154437994Y-78988062D01*
X154306709Y-78900340D01*
X154306706Y-78900338D01*
X154195062Y-78788694D01*
X154194666Y-78788101D01*
X154107338Y-78657406D01*
X154046914Y-78511529D01*
X154016110Y-78356668D01*
X154016110Y-78198772D01*
X154046914Y-78043911D01*
X154107338Y-77898034D01*
X154195060Y-77766749D01*
X154195062Y-77766746D01*
X154306706Y-77655102D01*
X154307299Y-77654706D01*
X154437994Y-77567378D01*
X154583871Y-77506954D01*
X154738732Y-77476150D01*
X154896628Y-77476150D01*
X155051489Y-77506954D01*
X155051489Y-77506954D01*
G37*
G36*
X117189305Y-75656396D02*
X117298680Y-75701700D01*
X117397118Y-75767475D01*
X117480825Y-75851182D01*
X117546600Y-75949620D01*
X117591904Y-76058995D01*
X117615000Y-76175106D01*
X117615000Y-76293494D01*
X117591904Y-76409605D01*
X117546600Y-76518980D01*
X117480825Y-76617418D01*
X117397118Y-76701125D01*
X117298680Y-76766900D01*
X117189305Y-76812204D01*
X117073194Y-76835300D01*
X116954806Y-76835300D01*
X116838695Y-76812204D01*
X116729320Y-76766900D01*
X116630882Y-76701125D01*
X116547175Y-76617418D01*
X116481400Y-76518980D01*
X116436096Y-76409605D01*
X116413000Y-76293494D01*
X116413000Y-76175106D01*
X116436096Y-76058995D01*
X116481400Y-75949620D01*
X116547175Y-75851182D01*
X116630882Y-75767475D01*
X116729320Y-75701700D01*
X116838695Y-75656396D01*
X116954806Y-75633300D01*
X117073194Y-75633300D01*
X117189305Y-75656396D01*
X117189305Y-75656396D01*
G37*
G36*
X155051489Y-75007594D02*
X155197366Y-75068018D01*
X155328061Y-75155346D01*
X155328654Y-75155742D01*
X155440298Y-75267386D01*
X155440300Y-75267389D01*
X155528022Y-75398674D01*
X155588446Y-75544551D01*
X155619250Y-75699412D01*
X155619250Y-75857308D01*
X155588446Y-76012169D01*
X155528022Y-76158046D01*
X155440694Y-76288741D01*
X155440298Y-76289334D01*
X155328654Y-76400978D01*
X155328651Y-76400980D01*
X155197366Y-76488702D01*
X155051489Y-76549126D01*
X154896628Y-76579930D01*
X154738732Y-76579930D01*
X154583871Y-76549126D01*
X154437994Y-76488702D01*
X154306709Y-76400980D01*
X154306706Y-76400978D01*
X154195062Y-76289334D01*
X154194666Y-76288741D01*
X154107338Y-76158046D01*
X154046914Y-76012169D01*
X154016110Y-75857308D01*
X154016110Y-75699412D01*
X154046914Y-75544551D01*
X154107338Y-75398674D01*
X154195060Y-75267389D01*
X154195062Y-75267386D01*
X154306706Y-75155742D01*
X154307299Y-75155346D01*
X154437994Y-75068018D01*
X154583871Y-75007594D01*
X154738732Y-74976790D01*
X154896628Y-74976790D01*
X155051489Y-75007594D01*
X155051489Y-75007594D01*
G37*
G36*
X155051489Y-73006074D02*
X155197366Y-73066498D01*
X155328061Y-73153826D01*
X155328654Y-73154222D01*
X155440298Y-73265866D01*
X155440300Y-73265869D01*
X155528022Y-73397154D01*
X155588446Y-73543031D01*
X155619250Y-73697892D01*
X155619250Y-73855788D01*
X155588446Y-74010649D01*
X155528022Y-74156526D01*
X155440694Y-74287221D01*
X155440298Y-74287814D01*
X155328654Y-74399458D01*
X155328651Y-74399460D01*
X155197366Y-74487182D01*
X155051489Y-74547606D01*
X154896628Y-74578410D01*
X154738732Y-74578410D01*
X154583871Y-74547606D01*
X154437994Y-74487182D01*
X154306709Y-74399460D01*
X154306706Y-74399458D01*
X154195062Y-74287814D01*
X154194666Y-74287221D01*
X154107338Y-74156526D01*
X154046914Y-74010649D01*
X154016110Y-73855788D01*
X154016110Y-73697892D01*
X154046914Y-73543031D01*
X154107338Y-73397154D01*
X154195060Y-73265869D01*
X154195062Y-73265866D01*
X154306706Y-73154222D01*
X154307299Y-73153826D01*
X154437994Y-73066498D01*
X154583871Y-73006074D01*
X154738732Y-72975270D01*
X154896628Y-72975270D01*
X155051489Y-73006074D01*
X155051489Y-73006074D01*
G37*
G36*
X117189305Y-71056396D02*
X117298680Y-71101700D01*
X117397118Y-71167475D01*
X117480825Y-71251182D01*
X117546600Y-71349620D01*
X117591904Y-71458995D01*
X117615000Y-71575106D01*
X117615000Y-71693494D01*
X117591904Y-71809605D01*
X117546600Y-71918980D01*
X117480825Y-72017418D01*
X117397118Y-72101125D01*
X117298680Y-72166900D01*
X117189305Y-72212204D01*
X117073194Y-72235300D01*
X116954806Y-72235300D01*
X116838695Y-72212204D01*
X116729320Y-72166900D01*
X116630882Y-72101125D01*
X116547175Y-72017418D01*
X116481400Y-71918980D01*
X116436096Y-71809605D01*
X116413000Y-71693494D01*
X116413000Y-71575106D01*
X116436096Y-71458995D01*
X116481400Y-71349620D01*
X116547175Y-71251182D01*
X116630882Y-71167475D01*
X116729320Y-71101700D01*
X116838695Y-71056396D01*
X116954806Y-71033300D01*
X117073194Y-71033300D01*
X117189305Y-71056396D01*
X117189305Y-71056396D01*
G37*
G36*
X155051489Y-70506714D02*
X155197366Y-70567138D01*
X155328061Y-70654466D01*
X155328654Y-70654862D01*
X155440298Y-70766506D01*
X155440300Y-70766509D01*
X155528022Y-70897794D01*
X155588446Y-71043671D01*
X155619250Y-71198532D01*
X155619250Y-71356428D01*
X155588446Y-71511289D01*
X155528022Y-71657166D01*
X155503748Y-71693494D01*
X155440298Y-71788454D01*
X155328654Y-71900098D01*
X155328651Y-71900100D01*
X155197366Y-71987822D01*
X155051489Y-72048246D01*
X154896628Y-72079050D01*
X154738732Y-72079050D01*
X154583871Y-72048246D01*
X154437994Y-71987822D01*
X154306709Y-71900100D01*
X154306706Y-71900098D01*
X154195062Y-71788454D01*
X154131612Y-71693494D01*
X154107338Y-71657166D01*
X154046914Y-71511289D01*
X154016110Y-71356428D01*
X154016110Y-71198532D01*
X154046914Y-71043671D01*
X154107338Y-70897794D01*
X154195060Y-70766509D01*
X154195062Y-70766506D01*
X154306706Y-70654862D01*
X154307299Y-70654466D01*
X154437994Y-70567138D01*
X154583871Y-70506714D01*
X154738732Y-70475910D01*
X154896628Y-70475910D01*
X155051489Y-70506714D01*
X155051489Y-70506714D01*
G37*
G36*
X157880357Y-66695483D02*
X157980232Y-66715349D01*
X158097139Y-66763774D01*
X158262471Y-66832256D01*
X158516485Y-67001983D01*
X158732497Y-67217995D01*
X158902224Y-67472009D01*
X159019131Y-67754249D01*
X159078730Y-68053871D01*
X159078730Y-68359369D01*
X159019131Y-68658991D01*
X158902224Y-68941231D01*
X158732497Y-69195245D01*
X158516485Y-69411257D01*
X158262471Y-69580984D01*
X158097139Y-69649466D01*
X157980232Y-69697891D01*
X157880357Y-69717757D01*
X157680609Y-69757490D01*
X157375111Y-69757490D01*
X157175363Y-69717757D01*
X157075488Y-69697891D01*
X156958581Y-69649466D01*
X156793249Y-69580984D01*
X156539235Y-69411257D01*
X156323223Y-69195245D01*
X156153496Y-68941231D01*
X156036589Y-68658991D01*
X155976990Y-68359369D01*
X155976990Y-68053871D01*
X156036589Y-67754249D01*
X156153496Y-67472009D01*
X156323223Y-67217995D01*
X156539235Y-67001983D01*
X156793249Y-66832256D01*
X156958581Y-66763774D01*
X157075488Y-66715349D01*
X157175363Y-66695483D01*
X157375111Y-66655750D01*
X157680609Y-66655750D01*
X157880357Y-66695483D01*
X157880357Y-66695483D01*
G37*
G36*
X118010232Y-67247783D02*
X118198919Y-67305021D01*
X118372817Y-67397971D01*
X118525239Y-67523061D01*
X118650329Y-67675483D01*
X118743279Y-67849381D01*
X118800517Y-68038068D01*
X118819843Y-68234300D01*
X118800517Y-68430532D01*
X118743279Y-68619219D01*
X118650329Y-68793117D01*
X118525239Y-68945539D01*
X118372817Y-69070629D01*
X118198919Y-69163579D01*
X118010232Y-69220817D01*
X117863176Y-69235300D01*
X116164824Y-69235300D01*
X116017768Y-69220817D01*
X115829081Y-69163579D01*
X115655183Y-69070629D01*
X115502761Y-68945539D01*
X115377671Y-68793117D01*
X115284721Y-68619219D01*
X115227483Y-68430532D01*
X115208157Y-68234300D01*
X115227483Y-68038068D01*
X115284721Y-67849381D01*
X115377671Y-67675483D01*
X115502761Y-67523061D01*
X115655183Y-67397971D01*
X115829081Y-67305021D01*
X116017768Y-67247783D01*
X116164824Y-67233300D01*
X117863176Y-67233300D01*
X118010232Y-67247783D01*
X118010232Y-67247783D01*
G37*
M02*
