G04 #@! TF.FileFunction,Soldermask,Top*
%FSLAX46Y46*%
G04 Gerber Fmt 4.6, Leading zero omitted, Abs format (unit mm)*
G04 Created by KiCad (PCBNEW 4.0.4-stable) date 04/04/17 13:48:34*
%MOMM*%
%LPD*%
G01*
G04 APERTURE LIST*
%ADD10C,0.100000*%
%ADD11O,1.901140X2.599640*%
%ADD12R,2.200000X1.700000*%
%ADD13O,2.200000X1.700000*%
%ADD14R,2.400000X2.100000*%
%ADD15R,2.100000X2.400000*%
%ADD16R,2.127200X2.432000*%
%ADD17O,2.127200X2.432000*%
%ADD18C,2.900000*%
%ADD19R,1.150000X1.600000*%
%ADD20R,3.097480X2.195780*%
%ADD21C,1.900000*%
G04 APERTURE END LIST*
D10*
D11*
X162110000Y-74810000D03*
X164650000Y-74810000D03*
X167190000Y-74810000D03*
X169730000Y-74810000D03*
X172270000Y-74810000D03*
X174810000Y-74810000D03*
X177350000Y-74810000D03*
X179890000Y-74810000D03*
X179890000Y-67190000D03*
X177350000Y-67190000D03*
X174810000Y-67190000D03*
X172270000Y-67190000D03*
X169730000Y-67190000D03*
X167190000Y-67190000D03*
X164650000Y-67190000D03*
X162110000Y-67190000D03*
D12*
X110000000Y-73400000D03*
D13*
X110000000Y-71400000D03*
X110000000Y-69400000D03*
D12*
X117500000Y-73400000D03*
D13*
X117500000Y-71400000D03*
X117500000Y-69400000D03*
D12*
X114000000Y-73400000D03*
D13*
X114000000Y-71400000D03*
X114000000Y-69400000D03*
D14*
X89000000Y-68250000D03*
X93000000Y-68250000D03*
X89000000Y-71500000D03*
X93000000Y-71500000D03*
D15*
X123300000Y-68000000D03*
X123300000Y-72000000D03*
X126500000Y-68000000D03*
X126500000Y-72000000D03*
X129800000Y-68000000D03*
X129800000Y-72000000D03*
X132900000Y-68000000D03*
X132900000Y-72000000D03*
X136000000Y-68000000D03*
X136000000Y-72000000D03*
X139100000Y-68000000D03*
X139100000Y-72000000D03*
X142200000Y-68000000D03*
X142200000Y-72000000D03*
X145300000Y-68000000D03*
X145300000Y-72000000D03*
D16*
X189500000Y-63500000D03*
D17*
X192040000Y-63500000D03*
X194580000Y-63500000D03*
X197120000Y-63500000D03*
D16*
X84500000Y-63500000D03*
D17*
X87040000Y-63500000D03*
X89580000Y-63500000D03*
X92120000Y-63500000D03*
D18*
X108250000Y-57500000D03*
X113250000Y-57500000D03*
X118250000Y-57500000D03*
X123250000Y-57500000D03*
X128250000Y-57500000D03*
X133250000Y-57500000D03*
X138250000Y-57500000D03*
X143250000Y-57500000D03*
X148250000Y-57500000D03*
X153250000Y-57500000D03*
X158250000Y-57500000D03*
X163250000Y-57500000D03*
X168250000Y-57500000D03*
X173250000Y-57500000D03*
X183250000Y-57500000D03*
X178250000Y-57500000D03*
D19*
X158100000Y-71450000D03*
X158100000Y-69550000D03*
D18*
X102500000Y-57500000D03*
X97500000Y-57500000D03*
D20*
X101250000Y-71498600D03*
X101250000Y-68501400D03*
D15*
X97000000Y-72750000D03*
X97000000Y-68750000D03*
D21*
X85000000Y-69972000D03*
X150750000Y-65472000D03*
X193750000Y-70722000D03*
M02*
