G04 #@! TF.FileFunction,Copper,L1,Top,Signal*
%FSLAX46Y46*%
G04 Gerber Fmt 4.6, Leading zero omitted, Abs format (unit mm)*
G04 Created by KiCad (PCBNEW 4.0.4-stable) date 04/04/17 13:48:34*
%MOMM*%
%LPD*%
G01*
G04 APERTURE LIST*
%ADD10C,0.100000*%
%ADD11O,1.501140X2.199640*%
%ADD12R,1.800000X1.300000*%
%ADD13O,1.800000X1.300000*%
%ADD14R,2.000000X1.700000*%
%ADD15R,1.700000X2.000000*%
%ADD16R,1.727200X2.032000*%
%ADD17O,1.727200X2.032000*%
%ADD18C,2.500000*%
%ADD19R,0.750000X1.200000*%
%ADD20R,2.697480X1.795780*%
%ADD21C,0.600000*%
%ADD22C,0.500000*%
%ADD23C,0.200000*%
G04 APERTURE END LIST*
D10*
D11*
X162110000Y-74810000D03*
X164650000Y-74810000D03*
X167190000Y-74810000D03*
X169730000Y-74810000D03*
X172270000Y-74810000D03*
X174810000Y-74810000D03*
X177350000Y-74810000D03*
X179890000Y-74810000D03*
X179890000Y-67190000D03*
X177350000Y-67190000D03*
X174810000Y-67190000D03*
X172270000Y-67190000D03*
X169730000Y-67190000D03*
X167190000Y-67190000D03*
X164650000Y-67190000D03*
X162110000Y-67190000D03*
D12*
X110000000Y-73400000D03*
D13*
X110000000Y-71400000D03*
X110000000Y-69400000D03*
D12*
X117500000Y-73400000D03*
D13*
X117500000Y-71400000D03*
X117500000Y-69400000D03*
D12*
X114000000Y-73400000D03*
D13*
X114000000Y-71400000D03*
X114000000Y-69400000D03*
D14*
X89000000Y-68250000D03*
X93000000Y-68250000D03*
X89000000Y-71500000D03*
X93000000Y-71500000D03*
D15*
X123300000Y-68000000D03*
X123300000Y-72000000D03*
X126500000Y-68000000D03*
X126500000Y-72000000D03*
X129800000Y-68000000D03*
X129800000Y-72000000D03*
X132900000Y-68000000D03*
X132900000Y-72000000D03*
X136000000Y-68000000D03*
X136000000Y-72000000D03*
X139100000Y-68000000D03*
X139100000Y-72000000D03*
X142200000Y-68000000D03*
X142200000Y-72000000D03*
X145300000Y-68000000D03*
X145300000Y-72000000D03*
D16*
X189500000Y-63500000D03*
D17*
X192040000Y-63500000D03*
X194580000Y-63500000D03*
X197120000Y-63500000D03*
D16*
X84500000Y-63500000D03*
D17*
X87040000Y-63500000D03*
X89580000Y-63500000D03*
X92120000Y-63500000D03*
D18*
X108250000Y-57500000D03*
X113250000Y-57500000D03*
X118250000Y-57500000D03*
X123250000Y-57500000D03*
X128250000Y-57500000D03*
X133250000Y-57500000D03*
X138250000Y-57500000D03*
X143250000Y-57500000D03*
X148250000Y-57500000D03*
X153250000Y-57500000D03*
X158250000Y-57500000D03*
X163250000Y-57500000D03*
X168250000Y-57500000D03*
X173250000Y-57500000D03*
X183250000Y-57500000D03*
X178250000Y-57500000D03*
D19*
X158100000Y-71450000D03*
X158100000Y-69550000D03*
D18*
X102500000Y-57500000D03*
X97500000Y-57500000D03*
D20*
X101250000Y-71498600D03*
X101250000Y-68501400D03*
D15*
X97000000Y-72750000D03*
X97000000Y-68750000D03*
D21*
X167678500Y-64799600D03*
X166287400Y-71945000D03*
X91151300Y-70827700D03*
X180036800Y-72830000D03*
X168043000Y-69501000D03*
X145252000Y-65066400D03*
X175226800Y-61686300D03*
X134223600Y-66526400D03*
X130692100Y-66432900D03*
X169860600Y-61351300D03*
X126500000Y-66480500D03*
X121804300Y-65351900D03*
D22*
X179890000Y-74810000D02*
X178639400Y-74810000D01*
X117500000Y-69400000D02*
X114000000Y-69400000D01*
X114000000Y-69400000D02*
X110000000Y-69400000D01*
X158100000Y-69550000D02*
X158975000Y-69550000D01*
X95650000Y-65666400D02*
X95650000Y-68750000D01*
X93483600Y-63500000D02*
X95650000Y-65666400D01*
X92120000Y-63500000D02*
X93483600Y-63500000D01*
X97000000Y-68750000D02*
X95650000Y-68750000D01*
X160317900Y-70892900D02*
X158975000Y-69550000D01*
X167142600Y-70892900D02*
X160317900Y-70892900D01*
X167480800Y-71231100D02*
X167142600Y-70892900D01*
X175819600Y-71231100D02*
X167480800Y-71231100D01*
X178639400Y-74050900D02*
X175819600Y-71231100D01*
X178639400Y-74810000D02*
X178639400Y-74050900D01*
X176547100Y-55797100D02*
X178250000Y-57500000D01*
X169952900Y-55797100D02*
X176547100Y-55797100D01*
X168250000Y-57500000D02*
X169952900Y-55797100D01*
X166549700Y-59200300D02*
X168250000Y-57500000D01*
X159950300Y-59200300D02*
X166549700Y-59200300D01*
X158250000Y-57500000D02*
X159950300Y-59200300D01*
X149950300Y-55799700D02*
X148250000Y-57500000D01*
X153954400Y-55799700D02*
X149950300Y-55799700D01*
X155654600Y-57499900D02*
X153954400Y-55799700D01*
X155654600Y-57500000D02*
X155654600Y-57499900D01*
X158250000Y-57500000D02*
X155654600Y-57500000D01*
X136549600Y-55799600D02*
X138250000Y-57500000D01*
X129950400Y-55799600D02*
X136549600Y-55799600D01*
X128250000Y-57500000D02*
X129950400Y-55799600D01*
X94562900Y-69600000D02*
X89000000Y-69600000D01*
X95250300Y-70287400D02*
X94562900Y-69600000D01*
X99464000Y-70287400D02*
X95250300Y-70287400D01*
X99852100Y-69899300D02*
X99464000Y-70287400D01*
X101250000Y-69899300D02*
X99852100Y-69899300D01*
X89000000Y-68250000D02*
X89000000Y-69600000D01*
X87900000Y-66900000D02*
X89000000Y-66900000D01*
X84500000Y-63500000D02*
X87900000Y-66900000D01*
X89000000Y-68250000D02*
X89000000Y-66900000D01*
X142200000Y-72000000D02*
X139100000Y-72000000D01*
X136000000Y-72000000D02*
X132900000Y-72000000D01*
X132900000Y-72000000D02*
X129800000Y-72000000D01*
X129800000Y-72000000D02*
X126500000Y-72000000D01*
X117500000Y-73400000D02*
X118900000Y-73400000D01*
X126500000Y-72000000D02*
X123300000Y-72000000D01*
X120550000Y-73400000D02*
X118900000Y-73400000D01*
X121950000Y-72000000D02*
X120550000Y-73400000D01*
X123300000Y-72000000D02*
X121950000Y-72000000D01*
X89000000Y-71500000D02*
X89000000Y-69600000D01*
X101250000Y-68501400D02*
X101250000Y-69200300D01*
X101250000Y-69200300D02*
X101250000Y-69899300D01*
X105800300Y-69200300D02*
X110000000Y-73400000D01*
X101250000Y-69200300D02*
X105800300Y-69200300D01*
X110000000Y-73400000D02*
X111400000Y-73400000D01*
X162110000Y-67190000D02*
X160859400Y-67190000D01*
X139100000Y-72000000D02*
X137779000Y-72000000D01*
X137779000Y-72000000D02*
X136000000Y-72000000D01*
X111400000Y-73400000D02*
X114000000Y-73400000D01*
X114000000Y-73400000D02*
X117500000Y-73400000D01*
X142200000Y-72000000D02*
X145300000Y-72000000D01*
X189500000Y-63500000D02*
X188136400Y-63500000D01*
X160341700Y-66672300D02*
X160859400Y-67190000D01*
X149592200Y-66672300D02*
X160341700Y-66672300D01*
X148758200Y-65838300D02*
X149592200Y-66672300D01*
X138771200Y-65838300D02*
X148758200Y-65838300D01*
X137779000Y-66830500D02*
X138771200Y-65838300D01*
X137779000Y-72000000D02*
X137779000Y-66830500D01*
X159470000Y-71945000D02*
X158975000Y-71450000D01*
X166287400Y-71945000D02*
X159470000Y-71945000D01*
X158100000Y-71450000D02*
X158975000Y-71450000D01*
X168978100Y-63500000D02*
X167678500Y-64799600D01*
X188136400Y-63500000D02*
X168978100Y-63500000D01*
X93000000Y-68250000D02*
X91500000Y-68250000D01*
X164650000Y-67190000D02*
X164650000Y-65590100D01*
X161237900Y-62178000D02*
X164650000Y-65590100D01*
X132276400Y-62178000D02*
X161237900Y-62178000D01*
X131378000Y-61279600D02*
X132276400Y-62178000D01*
X89779300Y-61279600D02*
X131378000Y-61279600D01*
X87427600Y-63631300D02*
X89779300Y-61279600D01*
X87296200Y-63500000D02*
X87427600Y-63631300D01*
X87040000Y-63500000D02*
X87296200Y-63500000D01*
X91500000Y-67703800D02*
X91500000Y-68250000D01*
X87427600Y-63631300D02*
X91500000Y-67703800D01*
X168268400Y-65590100D02*
X164650000Y-65590100D01*
X168974100Y-64884400D02*
X168268400Y-65590100D01*
X185006700Y-64884400D02*
X168974100Y-64884400D01*
X185088700Y-64966400D02*
X185006700Y-64884400D01*
X190573600Y-64966400D02*
X185088700Y-64966400D01*
X192040000Y-63500000D02*
X190573600Y-64966400D01*
X167190000Y-67190000D02*
X168440600Y-67190000D01*
X167190000Y-67190000D02*
X165939400Y-67190000D01*
X91500000Y-71176400D02*
X91500000Y-71500000D01*
X91151300Y-70827700D02*
X91500000Y-71176400D01*
X93000000Y-71500000D02*
X91500000Y-71500000D01*
X165939400Y-67949100D02*
X165939400Y-67190000D01*
X165137900Y-68750600D02*
X165939400Y-67949100D01*
X164147600Y-68750600D02*
X165137900Y-68750600D01*
X163380000Y-67983000D02*
X164147600Y-68750600D01*
X163380000Y-66391400D02*
X163380000Y-67983000D01*
X161181600Y-64193000D02*
X163380000Y-66391400D01*
X120413500Y-64193000D02*
X161181600Y-64193000D01*
X118247800Y-62027300D02*
X120413500Y-64193000D01*
X91052700Y-62027300D02*
X118247800Y-62027300D01*
X89580000Y-63500000D02*
X91052700Y-62027300D01*
X192367000Y-65713000D02*
X194580000Y-63500000D01*
X184732600Y-65713000D02*
X192367000Y-65713000D01*
X184620500Y-65600900D02*
X184732600Y-65713000D01*
X169248100Y-65600900D02*
X184620500Y-65600900D01*
X168440600Y-66408400D02*
X169248100Y-65600900D01*
X168440600Y-67190000D02*
X168440600Y-66408400D01*
X145300000Y-68000000D02*
X146650000Y-68000000D01*
X169730000Y-74810000D02*
X170980600Y-74810000D01*
X181129700Y-73922900D02*
X180036800Y-72830000D01*
X181129700Y-75718900D02*
X181129700Y-73922900D01*
X180460500Y-76388100D02*
X181129700Y-75718900D01*
X171799600Y-76388100D02*
X180460500Y-76388100D01*
X170980600Y-75569100D02*
X171799600Y-76388100D01*
X170980600Y-74810000D02*
X170980600Y-75569100D01*
X146723100Y-68073100D02*
X146650000Y-68000000D01*
X158488600Y-68073100D02*
X146723100Y-68073100D01*
X160608100Y-70192600D02*
X158488600Y-68073100D01*
X167432800Y-70192600D02*
X160608100Y-70192600D01*
X167771000Y-70530800D02*
X167432800Y-70192600D01*
X177737600Y-70530800D02*
X167771000Y-70530800D01*
X180036800Y-72830000D02*
X177737600Y-70530800D01*
X142200000Y-68000000D02*
X143550000Y-68000000D01*
X143550000Y-67240600D02*
X143550000Y-68000000D01*
X144241000Y-66549600D02*
X143550000Y-67240600D01*
X147983800Y-66549600D02*
X144241000Y-66549600D01*
X148806900Y-67372700D02*
X147983800Y-66549600D01*
X159921200Y-67372700D02*
X148806900Y-67372700D01*
X162040800Y-69492300D02*
X159921200Y-67372700D01*
X168034300Y-69492300D02*
X162040800Y-69492300D01*
X168043000Y-69501000D02*
X168034300Y-69492300D01*
X139100000Y-68000000D02*
X140450000Y-68000000D01*
X174810000Y-74810000D02*
X173559400Y-74810000D01*
X173559400Y-74050900D02*
X173559400Y-74810000D01*
X172425800Y-72917300D02*
X173559400Y-74050900D01*
X155117000Y-72917300D02*
X172425800Y-72917300D01*
X152749400Y-70549700D02*
X155117000Y-72917300D01*
X142240300Y-70549700D02*
X152749400Y-70549700D01*
X140450000Y-68759400D02*
X142240300Y-70549700D01*
X140450000Y-68000000D02*
X140450000Y-68759400D01*
X137433600Y-65066400D02*
X145252000Y-65066400D01*
X136000000Y-66500000D02*
X137433600Y-65066400D01*
X136000000Y-68000000D02*
X136000000Y-66500000D01*
X173819700Y-60279200D02*
X175226800Y-61686300D01*
X146029200Y-60279200D02*
X173819700Y-60279200D01*
X143250000Y-57500000D02*
X146029200Y-60279200D01*
X132900000Y-67850000D02*
X134223600Y-66526400D01*
X132900000Y-68000000D02*
X132900000Y-67850000D01*
X129800000Y-68000000D02*
X129800000Y-66500000D01*
X130625000Y-66500000D02*
X130692100Y-66432900D01*
X129800000Y-66500000D02*
X130625000Y-66500000D01*
X137101300Y-61351300D02*
X169860600Y-61351300D01*
X133250000Y-57500000D02*
X137101300Y-61351300D01*
X126500000Y-66480500D02*
X126500000Y-68000000D01*
X122952400Y-66500000D02*
X123300000Y-66500000D01*
X121804300Y-65351900D02*
X122952400Y-66500000D01*
X123300000Y-68000000D02*
X123300000Y-66500000D01*
X99401300Y-71698700D02*
X98350000Y-72750000D01*
X99401300Y-71498600D02*
X99401300Y-71698700D01*
X97000000Y-72750000D02*
X98350000Y-72750000D01*
X101250000Y-71498600D02*
X99401300Y-71498600D01*
D23*
G36*
X198825000Y-76075000D02*
X182408868Y-76075000D01*
X182479700Y-75718900D01*
X182479700Y-73922900D01*
X182376937Y-73406277D01*
X182084294Y-72968306D01*
X181273903Y-72157915D01*
X181224355Y-72038000D01*
X180830872Y-71643830D01*
X180709363Y-71593375D01*
X180204361Y-71088373D01*
X191899679Y-71088373D01*
X192180732Y-71768572D01*
X192700691Y-72289439D01*
X193380398Y-72571679D01*
X194116373Y-72572321D01*
X194796572Y-72291268D01*
X195317439Y-71771309D01*
X195599679Y-71091602D01*
X195600321Y-70355627D01*
X195319268Y-69675428D01*
X194799309Y-69154561D01*
X194119602Y-68872321D01*
X193383627Y-68871679D01*
X192703428Y-69152732D01*
X192182561Y-69672691D01*
X191900321Y-70352398D01*
X191899679Y-71088373D01*
X180204361Y-71088373D01*
X178692194Y-69576206D01*
X178579640Y-69501000D01*
X178254223Y-69283563D01*
X178112943Y-69255461D01*
X178620000Y-68916657D01*
X179181818Y-69292051D01*
X179890000Y-69432917D01*
X180598182Y-69292051D01*
X181198551Y-68890898D01*
X181599704Y-68290529D01*
X181740570Y-67582347D01*
X181740570Y-66950900D01*
X184202003Y-66950900D01*
X184215977Y-66960237D01*
X184732600Y-67063000D01*
X192367000Y-67063000D01*
X192883623Y-66960237D01*
X193321594Y-66667594D01*
X194372923Y-65616265D01*
X194580000Y-65657455D01*
X195331437Y-65507985D01*
X195968475Y-65082330D01*
X196181694Y-64763226D01*
X196256359Y-64843822D01*
X196738951Y-65073811D01*
X196966000Y-64962983D01*
X196966000Y-63654000D01*
X197274000Y-63654000D01*
X197274000Y-64962983D01*
X197501049Y-65073811D01*
X197983641Y-64843822D01*
X198373838Y-64422629D01*
X198573149Y-63884176D01*
X198439516Y-63654000D01*
X197274000Y-63654000D01*
X196966000Y-63654000D01*
X196946000Y-63654000D01*
X196946000Y-63346000D01*
X196966000Y-63346000D01*
X196966000Y-62037017D01*
X197274000Y-62037017D01*
X197274000Y-63346000D01*
X198439516Y-63346000D01*
X198573149Y-63115824D01*
X198373838Y-62577371D01*
X197983641Y-62156178D01*
X197501049Y-61926189D01*
X197274000Y-62037017D01*
X196966000Y-62037017D01*
X196738951Y-61926189D01*
X196256359Y-62156178D01*
X196181694Y-62236774D01*
X195968475Y-61917670D01*
X195331437Y-61492015D01*
X194580000Y-61342545D01*
X193828563Y-61492015D01*
X193310000Y-61838508D01*
X192791437Y-61492015D01*
X192040000Y-61342545D01*
X191288563Y-61492015D01*
X191072014Y-61636708D01*
X190799946Y-61450812D01*
X190363600Y-61362450D01*
X188636400Y-61362450D01*
X188228764Y-61439152D01*
X187854376Y-61680064D01*
X187603212Y-62047654D01*
X187582486Y-62150000D01*
X176550153Y-62150000D01*
X176626557Y-61965999D01*
X176627043Y-61409044D01*
X176414355Y-60894300D01*
X176020872Y-60500130D01*
X175899363Y-60449675D01*
X174774294Y-59324606D01*
X174758850Y-59314287D01*
X175237835Y-58836136D01*
X177131653Y-58836136D01*
X177264774Y-59118048D01*
X177958970Y-59371911D01*
X178697473Y-59340793D01*
X179235226Y-59118048D01*
X179368347Y-58836136D01*
X178250000Y-57717789D01*
X177131653Y-58836136D01*
X175237835Y-58836136D01*
X175241071Y-58832906D01*
X175599591Y-57969495D01*
X175600254Y-57208970D01*
X176378089Y-57208970D01*
X176409207Y-57947473D01*
X176631952Y-58485226D01*
X176913864Y-58618347D01*
X178032211Y-57500000D01*
X178467789Y-57500000D01*
X179586136Y-58618347D01*
X179868048Y-58485226D01*
X180058147Y-57965393D01*
X180899593Y-57965393D01*
X181256605Y-58829429D01*
X181917094Y-59491071D01*
X182780505Y-59849591D01*
X183715393Y-59850407D01*
X184579429Y-59493395D01*
X185241071Y-58832906D01*
X185599591Y-57969495D01*
X185600407Y-57034607D01*
X185243395Y-56170571D01*
X184582906Y-55508929D01*
X183719495Y-55150409D01*
X182784607Y-55149593D01*
X181920571Y-55506605D01*
X181258929Y-56167094D01*
X180900409Y-57030505D01*
X180899593Y-57965393D01*
X180058147Y-57965393D01*
X180121911Y-57791030D01*
X180090793Y-57052527D01*
X179868048Y-56514774D01*
X179586136Y-56381653D01*
X178467789Y-57500000D01*
X178032211Y-57500000D01*
X176913864Y-56381653D01*
X176631952Y-56514774D01*
X176378089Y-57208970D01*
X175600254Y-57208970D01*
X175600407Y-57034607D01*
X175243395Y-56170571D01*
X175236700Y-56163864D01*
X177131653Y-56163864D01*
X178250000Y-57282211D01*
X179368347Y-56163864D01*
X179235226Y-55881952D01*
X178541030Y-55628089D01*
X177802527Y-55659207D01*
X177264774Y-55881952D01*
X177131653Y-56163864D01*
X175236700Y-56163864D01*
X174582906Y-55508929D01*
X173719495Y-55150409D01*
X172784607Y-55149593D01*
X171920571Y-55506605D01*
X171258929Y-56167094D01*
X170900409Y-57030505D01*
X170899593Y-57965393D01*
X171256605Y-58829429D01*
X171356202Y-58929200D01*
X169324401Y-58929200D01*
X169368347Y-58836136D01*
X168250000Y-57717789D01*
X167131653Y-58836136D01*
X167175599Y-58929200D01*
X165144609Y-58929200D01*
X165241071Y-58832906D01*
X165599591Y-57969495D01*
X165600254Y-57208970D01*
X166378089Y-57208970D01*
X166409207Y-57947473D01*
X166631952Y-58485226D01*
X166913864Y-58618347D01*
X168032211Y-57500000D01*
X168467789Y-57500000D01*
X169586136Y-58618347D01*
X169868048Y-58485226D01*
X170121911Y-57791030D01*
X170090793Y-57052527D01*
X169868048Y-56514774D01*
X169586136Y-56381653D01*
X168467789Y-57500000D01*
X168032211Y-57500000D01*
X166913864Y-56381653D01*
X166631952Y-56514774D01*
X166378089Y-57208970D01*
X165600254Y-57208970D01*
X165600407Y-57034607D01*
X165243395Y-56170571D01*
X165236700Y-56163864D01*
X167131653Y-56163864D01*
X168250000Y-57282211D01*
X169368347Y-56163864D01*
X169235226Y-55881952D01*
X168541030Y-55628089D01*
X167802527Y-55659207D01*
X167264774Y-55881952D01*
X167131653Y-56163864D01*
X165236700Y-56163864D01*
X164582906Y-55508929D01*
X163719495Y-55150409D01*
X162784607Y-55149593D01*
X161920571Y-55506605D01*
X161258929Y-56167094D01*
X160900409Y-57030505D01*
X160899593Y-57965393D01*
X161256605Y-58829429D01*
X161356202Y-58929200D01*
X159324401Y-58929200D01*
X159368347Y-58836136D01*
X158250000Y-57717789D01*
X157131653Y-58836136D01*
X157175599Y-58929200D01*
X155144609Y-58929200D01*
X155241071Y-58832906D01*
X155599591Y-57969495D01*
X155600254Y-57208970D01*
X156378089Y-57208970D01*
X156409207Y-57947473D01*
X156631952Y-58485226D01*
X156913864Y-58618347D01*
X158032211Y-57500000D01*
X158467789Y-57500000D01*
X159586136Y-58618347D01*
X159868048Y-58485226D01*
X160121911Y-57791030D01*
X160090793Y-57052527D01*
X159868048Y-56514774D01*
X159586136Y-56381653D01*
X158467789Y-57500000D01*
X158032211Y-57500000D01*
X156913864Y-56381653D01*
X156631952Y-56514774D01*
X156378089Y-57208970D01*
X155600254Y-57208970D01*
X155600407Y-57034607D01*
X155243395Y-56170571D01*
X155236700Y-56163864D01*
X157131653Y-56163864D01*
X158250000Y-57282211D01*
X159368347Y-56163864D01*
X159235226Y-55881952D01*
X158541030Y-55628089D01*
X157802527Y-55659207D01*
X157264774Y-55881952D01*
X157131653Y-56163864D01*
X155236700Y-56163864D01*
X154582906Y-55508929D01*
X153719495Y-55150409D01*
X152784607Y-55149593D01*
X151920571Y-55506605D01*
X151258929Y-56167094D01*
X150900409Y-57030505D01*
X150899593Y-57965393D01*
X151256605Y-58829429D01*
X151356202Y-58929200D01*
X149324401Y-58929200D01*
X149368347Y-58836136D01*
X148250000Y-57717789D01*
X147131653Y-58836136D01*
X147175599Y-58929200D01*
X146588388Y-58929200D01*
X145599616Y-57940428D01*
X145600254Y-57208970D01*
X146378089Y-57208970D01*
X146409207Y-57947473D01*
X146631952Y-58485226D01*
X146913864Y-58618347D01*
X148032211Y-57500000D01*
X148467789Y-57500000D01*
X149586136Y-58618347D01*
X149868048Y-58485226D01*
X150121911Y-57791030D01*
X150090793Y-57052527D01*
X149868048Y-56514774D01*
X149586136Y-56381653D01*
X148467789Y-57500000D01*
X148032211Y-57500000D01*
X146913864Y-56381653D01*
X146631952Y-56514774D01*
X146378089Y-57208970D01*
X145600254Y-57208970D01*
X145600407Y-57034607D01*
X145243395Y-56170571D01*
X145236700Y-56163864D01*
X147131653Y-56163864D01*
X148250000Y-57282211D01*
X149368347Y-56163864D01*
X149235226Y-55881952D01*
X148541030Y-55628089D01*
X147802527Y-55659207D01*
X147264774Y-55881952D01*
X147131653Y-56163864D01*
X145236700Y-56163864D01*
X144582906Y-55508929D01*
X143719495Y-55150409D01*
X142784607Y-55149593D01*
X141920571Y-55506605D01*
X141258929Y-56167094D01*
X140900409Y-57030505D01*
X140899593Y-57965393D01*
X141256605Y-58829429D01*
X141917094Y-59491071D01*
X142780505Y-59849591D01*
X143691198Y-59850386D01*
X143842112Y-60001300D01*
X137660488Y-60001300D01*
X136495324Y-58836136D01*
X137131653Y-58836136D01*
X137264774Y-59118048D01*
X137958970Y-59371911D01*
X138697473Y-59340793D01*
X139235226Y-59118048D01*
X139368347Y-58836136D01*
X138250000Y-57717789D01*
X137131653Y-58836136D01*
X136495324Y-58836136D01*
X135599616Y-57940428D01*
X135600254Y-57208970D01*
X136378089Y-57208970D01*
X136409207Y-57947473D01*
X136631952Y-58485226D01*
X136913864Y-58618347D01*
X138032211Y-57500000D01*
X138467789Y-57500000D01*
X139586136Y-58618347D01*
X139868048Y-58485226D01*
X140121911Y-57791030D01*
X140090793Y-57052527D01*
X139868048Y-56514774D01*
X139586136Y-56381653D01*
X138467789Y-57500000D01*
X138032211Y-57500000D01*
X136913864Y-56381653D01*
X136631952Y-56514774D01*
X136378089Y-57208970D01*
X135600254Y-57208970D01*
X135600407Y-57034607D01*
X135243395Y-56170571D01*
X135236700Y-56163864D01*
X137131653Y-56163864D01*
X138250000Y-57282211D01*
X139368347Y-56163864D01*
X139235226Y-55881952D01*
X138541030Y-55628089D01*
X137802527Y-55659207D01*
X137264774Y-55881952D01*
X137131653Y-56163864D01*
X135236700Y-56163864D01*
X134582906Y-55508929D01*
X133719495Y-55150409D01*
X132784607Y-55149593D01*
X131920571Y-55506605D01*
X131258929Y-56167094D01*
X130900409Y-57030505D01*
X130899593Y-57965393D01*
X131256605Y-58829429D01*
X131917094Y-59491071D01*
X132780505Y-59849591D01*
X133691198Y-59850386D01*
X134668812Y-60828000D01*
X132835588Y-60828000D01*
X132332594Y-60325006D01*
X132274303Y-60286057D01*
X131894623Y-60032363D01*
X131378000Y-59929600D01*
X89779300Y-59929600D01*
X89262677Y-60032363D01*
X88882997Y-60286057D01*
X88824706Y-60325006D01*
X87679886Y-61469826D01*
X87040000Y-61342545D01*
X86288563Y-61492015D01*
X86072014Y-61636708D01*
X85799946Y-61450812D01*
X85363600Y-61362450D01*
X83636400Y-61362450D01*
X83228764Y-61439152D01*
X82854376Y-61680064D01*
X82675000Y-61942589D01*
X82675000Y-58836136D01*
X96381653Y-58836136D01*
X96514774Y-59118048D01*
X97208970Y-59371911D01*
X97947473Y-59340793D01*
X98485226Y-59118048D01*
X98618347Y-58836136D01*
X97500000Y-57717789D01*
X96381653Y-58836136D01*
X82675000Y-58836136D01*
X82675000Y-57208970D01*
X95628089Y-57208970D01*
X95659207Y-57947473D01*
X95881952Y-58485226D01*
X96163864Y-58618347D01*
X97282211Y-57500000D01*
X97717789Y-57500000D01*
X98836136Y-58618347D01*
X99118048Y-58485226D01*
X99308147Y-57965393D01*
X100149593Y-57965393D01*
X100506605Y-58829429D01*
X101167094Y-59491071D01*
X102030505Y-59849591D01*
X102965393Y-59850407D01*
X103829429Y-59493395D01*
X104487835Y-58836136D01*
X107131653Y-58836136D01*
X107264774Y-59118048D01*
X107958970Y-59371911D01*
X108697473Y-59340793D01*
X109235226Y-59118048D01*
X109368347Y-58836136D01*
X108250000Y-57717789D01*
X107131653Y-58836136D01*
X104487835Y-58836136D01*
X104491071Y-58832906D01*
X104849591Y-57969495D01*
X104850254Y-57208970D01*
X106378089Y-57208970D01*
X106409207Y-57947473D01*
X106631952Y-58485226D01*
X106913864Y-58618347D01*
X108032211Y-57500000D01*
X108467789Y-57500000D01*
X109586136Y-58618347D01*
X109868048Y-58485226D01*
X110058147Y-57965393D01*
X110899593Y-57965393D01*
X111256605Y-58829429D01*
X111917094Y-59491071D01*
X112780505Y-59849591D01*
X113715393Y-59850407D01*
X114579429Y-59493395D01*
X115237835Y-58836136D01*
X117131653Y-58836136D01*
X117264774Y-59118048D01*
X117958970Y-59371911D01*
X118697473Y-59340793D01*
X119235226Y-59118048D01*
X119368347Y-58836136D01*
X118250000Y-57717789D01*
X117131653Y-58836136D01*
X115237835Y-58836136D01*
X115241071Y-58832906D01*
X115599591Y-57969495D01*
X115600254Y-57208970D01*
X116378089Y-57208970D01*
X116409207Y-57947473D01*
X116631952Y-58485226D01*
X116913864Y-58618347D01*
X118032211Y-57500000D01*
X118467789Y-57500000D01*
X119586136Y-58618347D01*
X119868048Y-58485226D01*
X120058147Y-57965393D01*
X120899593Y-57965393D01*
X121256605Y-58829429D01*
X121917094Y-59491071D01*
X122780505Y-59849591D01*
X123715393Y-59850407D01*
X124579429Y-59493395D01*
X125237835Y-58836136D01*
X127131653Y-58836136D01*
X127264774Y-59118048D01*
X127958970Y-59371911D01*
X128697473Y-59340793D01*
X129235226Y-59118048D01*
X129368347Y-58836136D01*
X128250000Y-57717789D01*
X127131653Y-58836136D01*
X125237835Y-58836136D01*
X125241071Y-58832906D01*
X125599591Y-57969495D01*
X125600254Y-57208970D01*
X126378089Y-57208970D01*
X126409207Y-57947473D01*
X126631952Y-58485226D01*
X126913864Y-58618347D01*
X128032211Y-57500000D01*
X128467789Y-57500000D01*
X129586136Y-58618347D01*
X129868048Y-58485226D01*
X130121911Y-57791030D01*
X130090793Y-57052527D01*
X129868048Y-56514774D01*
X129586136Y-56381653D01*
X128467789Y-57500000D01*
X128032211Y-57500000D01*
X126913864Y-56381653D01*
X126631952Y-56514774D01*
X126378089Y-57208970D01*
X125600254Y-57208970D01*
X125600407Y-57034607D01*
X125243395Y-56170571D01*
X125236700Y-56163864D01*
X127131653Y-56163864D01*
X128250000Y-57282211D01*
X129368347Y-56163864D01*
X129235226Y-55881952D01*
X128541030Y-55628089D01*
X127802527Y-55659207D01*
X127264774Y-55881952D01*
X127131653Y-56163864D01*
X125236700Y-56163864D01*
X124582906Y-55508929D01*
X123719495Y-55150409D01*
X122784607Y-55149593D01*
X121920571Y-55506605D01*
X121258929Y-56167094D01*
X120900409Y-57030505D01*
X120899593Y-57965393D01*
X120058147Y-57965393D01*
X120121911Y-57791030D01*
X120090793Y-57052527D01*
X119868048Y-56514774D01*
X119586136Y-56381653D01*
X118467789Y-57500000D01*
X118032211Y-57500000D01*
X116913864Y-56381653D01*
X116631952Y-56514774D01*
X116378089Y-57208970D01*
X115600254Y-57208970D01*
X115600407Y-57034607D01*
X115243395Y-56170571D01*
X115236700Y-56163864D01*
X117131653Y-56163864D01*
X118250000Y-57282211D01*
X119368347Y-56163864D01*
X119235226Y-55881952D01*
X118541030Y-55628089D01*
X117802527Y-55659207D01*
X117264774Y-55881952D01*
X117131653Y-56163864D01*
X115236700Y-56163864D01*
X114582906Y-55508929D01*
X113719495Y-55150409D01*
X112784607Y-55149593D01*
X111920571Y-55506605D01*
X111258929Y-56167094D01*
X110900409Y-57030505D01*
X110899593Y-57965393D01*
X110058147Y-57965393D01*
X110121911Y-57791030D01*
X110090793Y-57052527D01*
X109868048Y-56514774D01*
X109586136Y-56381653D01*
X108467789Y-57500000D01*
X108032211Y-57500000D01*
X106913864Y-56381653D01*
X106631952Y-56514774D01*
X106378089Y-57208970D01*
X104850254Y-57208970D01*
X104850407Y-57034607D01*
X104493395Y-56170571D01*
X104486700Y-56163864D01*
X107131653Y-56163864D01*
X108250000Y-57282211D01*
X109368347Y-56163864D01*
X109235226Y-55881952D01*
X108541030Y-55628089D01*
X107802527Y-55659207D01*
X107264774Y-55881952D01*
X107131653Y-56163864D01*
X104486700Y-56163864D01*
X103832906Y-55508929D01*
X102969495Y-55150409D01*
X102034607Y-55149593D01*
X101170571Y-55506605D01*
X100508929Y-56167094D01*
X100150409Y-57030505D01*
X100149593Y-57965393D01*
X99308147Y-57965393D01*
X99371911Y-57791030D01*
X99340793Y-57052527D01*
X99118048Y-56514774D01*
X98836136Y-56381653D01*
X97717789Y-57500000D01*
X97282211Y-57500000D01*
X96163864Y-56381653D01*
X95881952Y-56514774D01*
X95628089Y-57208970D01*
X82675000Y-57208970D01*
X82675000Y-56163864D01*
X96381653Y-56163864D01*
X97500000Y-57282211D01*
X98618347Y-56163864D01*
X98485226Y-55881952D01*
X97791030Y-55628089D01*
X97052527Y-55659207D01*
X96514774Y-55881952D01*
X96381653Y-56163864D01*
X82675000Y-56163864D01*
X82675000Y-53675000D01*
X198825000Y-53675000D01*
X198825000Y-76075000D01*
X198825000Y-76075000D01*
G37*
X198825000Y-76075000D02*
X182408868Y-76075000D01*
X182479700Y-75718900D01*
X182479700Y-73922900D01*
X182376937Y-73406277D01*
X182084294Y-72968306D01*
X181273903Y-72157915D01*
X181224355Y-72038000D01*
X180830872Y-71643830D01*
X180709363Y-71593375D01*
X180204361Y-71088373D01*
X191899679Y-71088373D01*
X192180732Y-71768572D01*
X192700691Y-72289439D01*
X193380398Y-72571679D01*
X194116373Y-72572321D01*
X194796572Y-72291268D01*
X195317439Y-71771309D01*
X195599679Y-71091602D01*
X195600321Y-70355627D01*
X195319268Y-69675428D01*
X194799309Y-69154561D01*
X194119602Y-68872321D01*
X193383627Y-68871679D01*
X192703428Y-69152732D01*
X192182561Y-69672691D01*
X191900321Y-70352398D01*
X191899679Y-71088373D01*
X180204361Y-71088373D01*
X178692194Y-69576206D01*
X178579640Y-69501000D01*
X178254223Y-69283563D01*
X178112943Y-69255461D01*
X178620000Y-68916657D01*
X179181818Y-69292051D01*
X179890000Y-69432917D01*
X180598182Y-69292051D01*
X181198551Y-68890898D01*
X181599704Y-68290529D01*
X181740570Y-67582347D01*
X181740570Y-66950900D01*
X184202003Y-66950900D01*
X184215977Y-66960237D01*
X184732600Y-67063000D01*
X192367000Y-67063000D01*
X192883623Y-66960237D01*
X193321594Y-66667594D01*
X194372923Y-65616265D01*
X194580000Y-65657455D01*
X195331437Y-65507985D01*
X195968475Y-65082330D01*
X196181694Y-64763226D01*
X196256359Y-64843822D01*
X196738951Y-65073811D01*
X196966000Y-64962983D01*
X196966000Y-63654000D01*
X197274000Y-63654000D01*
X197274000Y-64962983D01*
X197501049Y-65073811D01*
X197983641Y-64843822D01*
X198373838Y-64422629D01*
X198573149Y-63884176D01*
X198439516Y-63654000D01*
X197274000Y-63654000D01*
X196966000Y-63654000D01*
X196946000Y-63654000D01*
X196946000Y-63346000D01*
X196966000Y-63346000D01*
X196966000Y-62037017D01*
X197274000Y-62037017D01*
X197274000Y-63346000D01*
X198439516Y-63346000D01*
X198573149Y-63115824D01*
X198373838Y-62577371D01*
X197983641Y-62156178D01*
X197501049Y-61926189D01*
X197274000Y-62037017D01*
X196966000Y-62037017D01*
X196738951Y-61926189D01*
X196256359Y-62156178D01*
X196181694Y-62236774D01*
X195968475Y-61917670D01*
X195331437Y-61492015D01*
X194580000Y-61342545D01*
X193828563Y-61492015D01*
X193310000Y-61838508D01*
X192791437Y-61492015D01*
X192040000Y-61342545D01*
X191288563Y-61492015D01*
X191072014Y-61636708D01*
X190799946Y-61450812D01*
X190363600Y-61362450D01*
X188636400Y-61362450D01*
X188228764Y-61439152D01*
X187854376Y-61680064D01*
X187603212Y-62047654D01*
X187582486Y-62150000D01*
X176550153Y-62150000D01*
X176626557Y-61965999D01*
X176627043Y-61409044D01*
X176414355Y-60894300D01*
X176020872Y-60500130D01*
X175899363Y-60449675D01*
X174774294Y-59324606D01*
X174758850Y-59314287D01*
X175237835Y-58836136D01*
X177131653Y-58836136D01*
X177264774Y-59118048D01*
X177958970Y-59371911D01*
X178697473Y-59340793D01*
X179235226Y-59118048D01*
X179368347Y-58836136D01*
X178250000Y-57717789D01*
X177131653Y-58836136D01*
X175237835Y-58836136D01*
X175241071Y-58832906D01*
X175599591Y-57969495D01*
X175600254Y-57208970D01*
X176378089Y-57208970D01*
X176409207Y-57947473D01*
X176631952Y-58485226D01*
X176913864Y-58618347D01*
X178032211Y-57500000D01*
X178467789Y-57500000D01*
X179586136Y-58618347D01*
X179868048Y-58485226D01*
X180058147Y-57965393D01*
X180899593Y-57965393D01*
X181256605Y-58829429D01*
X181917094Y-59491071D01*
X182780505Y-59849591D01*
X183715393Y-59850407D01*
X184579429Y-59493395D01*
X185241071Y-58832906D01*
X185599591Y-57969495D01*
X185600407Y-57034607D01*
X185243395Y-56170571D01*
X184582906Y-55508929D01*
X183719495Y-55150409D01*
X182784607Y-55149593D01*
X181920571Y-55506605D01*
X181258929Y-56167094D01*
X180900409Y-57030505D01*
X180899593Y-57965393D01*
X180058147Y-57965393D01*
X180121911Y-57791030D01*
X180090793Y-57052527D01*
X179868048Y-56514774D01*
X179586136Y-56381653D01*
X178467789Y-57500000D01*
X178032211Y-57500000D01*
X176913864Y-56381653D01*
X176631952Y-56514774D01*
X176378089Y-57208970D01*
X175600254Y-57208970D01*
X175600407Y-57034607D01*
X175243395Y-56170571D01*
X175236700Y-56163864D01*
X177131653Y-56163864D01*
X178250000Y-57282211D01*
X179368347Y-56163864D01*
X179235226Y-55881952D01*
X178541030Y-55628089D01*
X177802527Y-55659207D01*
X177264774Y-55881952D01*
X177131653Y-56163864D01*
X175236700Y-56163864D01*
X174582906Y-55508929D01*
X173719495Y-55150409D01*
X172784607Y-55149593D01*
X171920571Y-55506605D01*
X171258929Y-56167094D01*
X170900409Y-57030505D01*
X170899593Y-57965393D01*
X171256605Y-58829429D01*
X171356202Y-58929200D01*
X169324401Y-58929200D01*
X169368347Y-58836136D01*
X168250000Y-57717789D01*
X167131653Y-58836136D01*
X167175599Y-58929200D01*
X165144609Y-58929200D01*
X165241071Y-58832906D01*
X165599591Y-57969495D01*
X165600254Y-57208970D01*
X166378089Y-57208970D01*
X166409207Y-57947473D01*
X166631952Y-58485226D01*
X166913864Y-58618347D01*
X168032211Y-57500000D01*
X168467789Y-57500000D01*
X169586136Y-58618347D01*
X169868048Y-58485226D01*
X170121911Y-57791030D01*
X170090793Y-57052527D01*
X169868048Y-56514774D01*
X169586136Y-56381653D01*
X168467789Y-57500000D01*
X168032211Y-57500000D01*
X166913864Y-56381653D01*
X166631952Y-56514774D01*
X166378089Y-57208970D01*
X165600254Y-57208970D01*
X165600407Y-57034607D01*
X165243395Y-56170571D01*
X165236700Y-56163864D01*
X167131653Y-56163864D01*
X168250000Y-57282211D01*
X169368347Y-56163864D01*
X169235226Y-55881952D01*
X168541030Y-55628089D01*
X167802527Y-55659207D01*
X167264774Y-55881952D01*
X167131653Y-56163864D01*
X165236700Y-56163864D01*
X164582906Y-55508929D01*
X163719495Y-55150409D01*
X162784607Y-55149593D01*
X161920571Y-55506605D01*
X161258929Y-56167094D01*
X160900409Y-57030505D01*
X160899593Y-57965393D01*
X161256605Y-58829429D01*
X161356202Y-58929200D01*
X159324401Y-58929200D01*
X159368347Y-58836136D01*
X158250000Y-57717789D01*
X157131653Y-58836136D01*
X157175599Y-58929200D01*
X155144609Y-58929200D01*
X155241071Y-58832906D01*
X155599591Y-57969495D01*
X155600254Y-57208970D01*
X156378089Y-57208970D01*
X156409207Y-57947473D01*
X156631952Y-58485226D01*
X156913864Y-58618347D01*
X158032211Y-57500000D01*
X158467789Y-57500000D01*
X159586136Y-58618347D01*
X159868048Y-58485226D01*
X160121911Y-57791030D01*
X160090793Y-57052527D01*
X159868048Y-56514774D01*
X159586136Y-56381653D01*
X158467789Y-57500000D01*
X158032211Y-57500000D01*
X156913864Y-56381653D01*
X156631952Y-56514774D01*
X156378089Y-57208970D01*
X155600254Y-57208970D01*
X155600407Y-57034607D01*
X155243395Y-56170571D01*
X155236700Y-56163864D01*
X157131653Y-56163864D01*
X158250000Y-57282211D01*
X159368347Y-56163864D01*
X159235226Y-55881952D01*
X158541030Y-55628089D01*
X157802527Y-55659207D01*
X157264774Y-55881952D01*
X157131653Y-56163864D01*
X155236700Y-56163864D01*
X154582906Y-55508929D01*
X153719495Y-55150409D01*
X152784607Y-55149593D01*
X151920571Y-55506605D01*
X151258929Y-56167094D01*
X150900409Y-57030505D01*
X150899593Y-57965393D01*
X151256605Y-58829429D01*
X151356202Y-58929200D01*
X149324401Y-58929200D01*
X149368347Y-58836136D01*
X148250000Y-57717789D01*
X147131653Y-58836136D01*
X147175599Y-58929200D01*
X146588388Y-58929200D01*
X145599616Y-57940428D01*
X145600254Y-57208970D01*
X146378089Y-57208970D01*
X146409207Y-57947473D01*
X146631952Y-58485226D01*
X146913864Y-58618347D01*
X148032211Y-57500000D01*
X148467789Y-57500000D01*
X149586136Y-58618347D01*
X149868048Y-58485226D01*
X150121911Y-57791030D01*
X150090793Y-57052527D01*
X149868048Y-56514774D01*
X149586136Y-56381653D01*
X148467789Y-57500000D01*
X148032211Y-57500000D01*
X146913864Y-56381653D01*
X146631952Y-56514774D01*
X146378089Y-57208970D01*
X145600254Y-57208970D01*
X145600407Y-57034607D01*
X145243395Y-56170571D01*
X145236700Y-56163864D01*
X147131653Y-56163864D01*
X148250000Y-57282211D01*
X149368347Y-56163864D01*
X149235226Y-55881952D01*
X148541030Y-55628089D01*
X147802527Y-55659207D01*
X147264774Y-55881952D01*
X147131653Y-56163864D01*
X145236700Y-56163864D01*
X144582906Y-55508929D01*
X143719495Y-55150409D01*
X142784607Y-55149593D01*
X141920571Y-55506605D01*
X141258929Y-56167094D01*
X140900409Y-57030505D01*
X140899593Y-57965393D01*
X141256605Y-58829429D01*
X141917094Y-59491071D01*
X142780505Y-59849591D01*
X143691198Y-59850386D01*
X143842112Y-60001300D01*
X137660488Y-60001300D01*
X136495324Y-58836136D01*
X137131653Y-58836136D01*
X137264774Y-59118048D01*
X137958970Y-59371911D01*
X138697473Y-59340793D01*
X139235226Y-59118048D01*
X139368347Y-58836136D01*
X138250000Y-57717789D01*
X137131653Y-58836136D01*
X136495324Y-58836136D01*
X135599616Y-57940428D01*
X135600254Y-57208970D01*
X136378089Y-57208970D01*
X136409207Y-57947473D01*
X136631952Y-58485226D01*
X136913864Y-58618347D01*
X138032211Y-57500000D01*
X138467789Y-57500000D01*
X139586136Y-58618347D01*
X139868048Y-58485226D01*
X140121911Y-57791030D01*
X140090793Y-57052527D01*
X139868048Y-56514774D01*
X139586136Y-56381653D01*
X138467789Y-57500000D01*
X138032211Y-57500000D01*
X136913864Y-56381653D01*
X136631952Y-56514774D01*
X136378089Y-57208970D01*
X135600254Y-57208970D01*
X135600407Y-57034607D01*
X135243395Y-56170571D01*
X135236700Y-56163864D01*
X137131653Y-56163864D01*
X138250000Y-57282211D01*
X139368347Y-56163864D01*
X139235226Y-55881952D01*
X138541030Y-55628089D01*
X137802527Y-55659207D01*
X137264774Y-55881952D01*
X137131653Y-56163864D01*
X135236700Y-56163864D01*
X134582906Y-55508929D01*
X133719495Y-55150409D01*
X132784607Y-55149593D01*
X131920571Y-55506605D01*
X131258929Y-56167094D01*
X130900409Y-57030505D01*
X130899593Y-57965393D01*
X131256605Y-58829429D01*
X131917094Y-59491071D01*
X132780505Y-59849591D01*
X133691198Y-59850386D01*
X134668812Y-60828000D01*
X132835588Y-60828000D01*
X132332594Y-60325006D01*
X132274303Y-60286057D01*
X131894623Y-60032363D01*
X131378000Y-59929600D01*
X89779300Y-59929600D01*
X89262677Y-60032363D01*
X88882997Y-60286057D01*
X88824706Y-60325006D01*
X87679886Y-61469826D01*
X87040000Y-61342545D01*
X86288563Y-61492015D01*
X86072014Y-61636708D01*
X85799946Y-61450812D01*
X85363600Y-61362450D01*
X83636400Y-61362450D01*
X83228764Y-61439152D01*
X82854376Y-61680064D01*
X82675000Y-61942589D01*
X82675000Y-58836136D01*
X96381653Y-58836136D01*
X96514774Y-59118048D01*
X97208970Y-59371911D01*
X97947473Y-59340793D01*
X98485226Y-59118048D01*
X98618347Y-58836136D01*
X97500000Y-57717789D01*
X96381653Y-58836136D01*
X82675000Y-58836136D01*
X82675000Y-57208970D01*
X95628089Y-57208970D01*
X95659207Y-57947473D01*
X95881952Y-58485226D01*
X96163864Y-58618347D01*
X97282211Y-57500000D01*
X97717789Y-57500000D01*
X98836136Y-58618347D01*
X99118048Y-58485226D01*
X99308147Y-57965393D01*
X100149593Y-57965393D01*
X100506605Y-58829429D01*
X101167094Y-59491071D01*
X102030505Y-59849591D01*
X102965393Y-59850407D01*
X103829429Y-59493395D01*
X104487835Y-58836136D01*
X107131653Y-58836136D01*
X107264774Y-59118048D01*
X107958970Y-59371911D01*
X108697473Y-59340793D01*
X109235226Y-59118048D01*
X109368347Y-58836136D01*
X108250000Y-57717789D01*
X107131653Y-58836136D01*
X104487835Y-58836136D01*
X104491071Y-58832906D01*
X104849591Y-57969495D01*
X104850254Y-57208970D01*
X106378089Y-57208970D01*
X106409207Y-57947473D01*
X106631952Y-58485226D01*
X106913864Y-58618347D01*
X108032211Y-57500000D01*
X108467789Y-57500000D01*
X109586136Y-58618347D01*
X109868048Y-58485226D01*
X110058147Y-57965393D01*
X110899593Y-57965393D01*
X111256605Y-58829429D01*
X111917094Y-59491071D01*
X112780505Y-59849591D01*
X113715393Y-59850407D01*
X114579429Y-59493395D01*
X115237835Y-58836136D01*
X117131653Y-58836136D01*
X117264774Y-59118048D01*
X117958970Y-59371911D01*
X118697473Y-59340793D01*
X119235226Y-59118048D01*
X119368347Y-58836136D01*
X118250000Y-57717789D01*
X117131653Y-58836136D01*
X115237835Y-58836136D01*
X115241071Y-58832906D01*
X115599591Y-57969495D01*
X115600254Y-57208970D01*
X116378089Y-57208970D01*
X116409207Y-57947473D01*
X116631952Y-58485226D01*
X116913864Y-58618347D01*
X118032211Y-57500000D01*
X118467789Y-57500000D01*
X119586136Y-58618347D01*
X119868048Y-58485226D01*
X120058147Y-57965393D01*
X120899593Y-57965393D01*
X121256605Y-58829429D01*
X121917094Y-59491071D01*
X122780505Y-59849591D01*
X123715393Y-59850407D01*
X124579429Y-59493395D01*
X125237835Y-58836136D01*
X127131653Y-58836136D01*
X127264774Y-59118048D01*
X127958970Y-59371911D01*
X128697473Y-59340793D01*
X129235226Y-59118048D01*
X129368347Y-58836136D01*
X128250000Y-57717789D01*
X127131653Y-58836136D01*
X125237835Y-58836136D01*
X125241071Y-58832906D01*
X125599591Y-57969495D01*
X125600254Y-57208970D01*
X126378089Y-57208970D01*
X126409207Y-57947473D01*
X126631952Y-58485226D01*
X126913864Y-58618347D01*
X128032211Y-57500000D01*
X128467789Y-57500000D01*
X129586136Y-58618347D01*
X129868048Y-58485226D01*
X130121911Y-57791030D01*
X130090793Y-57052527D01*
X129868048Y-56514774D01*
X129586136Y-56381653D01*
X128467789Y-57500000D01*
X128032211Y-57500000D01*
X126913864Y-56381653D01*
X126631952Y-56514774D01*
X126378089Y-57208970D01*
X125600254Y-57208970D01*
X125600407Y-57034607D01*
X125243395Y-56170571D01*
X125236700Y-56163864D01*
X127131653Y-56163864D01*
X128250000Y-57282211D01*
X129368347Y-56163864D01*
X129235226Y-55881952D01*
X128541030Y-55628089D01*
X127802527Y-55659207D01*
X127264774Y-55881952D01*
X127131653Y-56163864D01*
X125236700Y-56163864D01*
X124582906Y-55508929D01*
X123719495Y-55150409D01*
X122784607Y-55149593D01*
X121920571Y-55506605D01*
X121258929Y-56167094D01*
X120900409Y-57030505D01*
X120899593Y-57965393D01*
X120058147Y-57965393D01*
X120121911Y-57791030D01*
X120090793Y-57052527D01*
X119868048Y-56514774D01*
X119586136Y-56381653D01*
X118467789Y-57500000D01*
X118032211Y-57500000D01*
X116913864Y-56381653D01*
X116631952Y-56514774D01*
X116378089Y-57208970D01*
X115600254Y-57208970D01*
X115600407Y-57034607D01*
X115243395Y-56170571D01*
X115236700Y-56163864D01*
X117131653Y-56163864D01*
X118250000Y-57282211D01*
X119368347Y-56163864D01*
X119235226Y-55881952D01*
X118541030Y-55628089D01*
X117802527Y-55659207D01*
X117264774Y-55881952D01*
X117131653Y-56163864D01*
X115236700Y-56163864D01*
X114582906Y-55508929D01*
X113719495Y-55150409D01*
X112784607Y-55149593D01*
X111920571Y-55506605D01*
X111258929Y-56167094D01*
X110900409Y-57030505D01*
X110899593Y-57965393D01*
X110058147Y-57965393D01*
X110121911Y-57791030D01*
X110090793Y-57052527D01*
X109868048Y-56514774D01*
X109586136Y-56381653D01*
X108467789Y-57500000D01*
X108032211Y-57500000D01*
X106913864Y-56381653D01*
X106631952Y-56514774D01*
X106378089Y-57208970D01*
X104850254Y-57208970D01*
X104850407Y-57034607D01*
X104493395Y-56170571D01*
X104486700Y-56163864D01*
X107131653Y-56163864D01*
X108250000Y-57282211D01*
X109368347Y-56163864D01*
X109235226Y-55881952D01*
X108541030Y-55628089D01*
X107802527Y-55659207D01*
X107264774Y-55881952D01*
X107131653Y-56163864D01*
X104486700Y-56163864D01*
X103832906Y-55508929D01*
X102969495Y-55150409D01*
X102034607Y-55149593D01*
X101170571Y-55506605D01*
X100508929Y-56167094D01*
X100150409Y-57030505D01*
X100149593Y-57965393D01*
X99308147Y-57965393D01*
X99371911Y-57791030D01*
X99340793Y-57052527D01*
X99118048Y-56514774D01*
X98836136Y-56381653D01*
X97717789Y-57500000D01*
X97282211Y-57500000D01*
X96163864Y-56381653D01*
X95881952Y-56514774D01*
X95628089Y-57208970D01*
X82675000Y-57208970D01*
X82675000Y-56163864D01*
X96381653Y-56163864D01*
X97500000Y-57282211D01*
X98618347Y-56163864D01*
X98485226Y-55881952D01*
X97791030Y-55628089D01*
X97052527Y-55659207D01*
X96514774Y-55881952D01*
X96381653Y-56163864D01*
X82675000Y-56163864D01*
X82675000Y-53675000D01*
X198825000Y-53675000D01*
X198825000Y-76075000D01*
G36*
X119458906Y-65147594D02*
X119896877Y-65440237D01*
X120404134Y-65541137D01*
X120404057Y-65629156D01*
X120616745Y-66143900D01*
X121010228Y-66538070D01*
X121131737Y-66588525D01*
X121364616Y-66821404D01*
X121328450Y-67000000D01*
X121328450Y-69000000D01*
X121405152Y-69407636D01*
X121646064Y-69782024D01*
X121968761Y-70002514D01*
X121667976Y-70196064D01*
X121416812Y-70563654D01*
X121369932Y-70795156D01*
X121163068Y-70933378D01*
X120995406Y-71045406D01*
X119990812Y-72050000D01*
X119409889Y-72050000D01*
X119539182Y-71400000D01*
X119405971Y-70730304D01*
X119026619Y-70162563D01*
X118823744Y-70027007D01*
X118956523Y-69788389D01*
X118959076Y-69747418D01*
X118845226Y-69554000D01*
X117654000Y-69554000D01*
X117654000Y-69574000D01*
X117346000Y-69574000D01*
X117346000Y-69554000D01*
X116154774Y-69554000D01*
X116040924Y-69747418D01*
X116043477Y-69788389D01*
X116176256Y-70027007D01*
X115973381Y-70162563D01*
X115750000Y-70496877D01*
X115526619Y-70162563D01*
X115323744Y-70027007D01*
X115456523Y-69788389D01*
X115459076Y-69747418D01*
X115345226Y-69554000D01*
X114154000Y-69554000D01*
X114154000Y-69574000D01*
X113846000Y-69574000D01*
X113846000Y-69554000D01*
X112654774Y-69554000D01*
X112540924Y-69747418D01*
X112543477Y-69788389D01*
X112676256Y-70027007D01*
X112473381Y-70162563D01*
X112094029Y-70730304D01*
X112000000Y-71203019D01*
X111905971Y-70730304D01*
X111526619Y-70162563D01*
X111323744Y-70027007D01*
X111456523Y-69788389D01*
X111459076Y-69747418D01*
X111345226Y-69554000D01*
X110154000Y-69554000D01*
X110154000Y-69574000D01*
X109846000Y-69574000D01*
X109846000Y-69554000D01*
X108654774Y-69554000D01*
X108540924Y-69747418D01*
X108543477Y-69788389D01*
X108676256Y-70027007D01*
X108592295Y-70083107D01*
X107561770Y-69052582D01*
X108540924Y-69052582D01*
X108654774Y-69246000D01*
X109846000Y-69246000D01*
X109846000Y-68288146D01*
X110154000Y-68288146D01*
X110154000Y-69246000D01*
X111345226Y-69246000D01*
X111459076Y-69052582D01*
X112540924Y-69052582D01*
X112654774Y-69246000D01*
X113846000Y-69246000D01*
X113846000Y-68288146D01*
X114154000Y-68288146D01*
X114154000Y-69246000D01*
X115345226Y-69246000D01*
X115459076Y-69052582D01*
X116040924Y-69052582D01*
X116154774Y-69246000D01*
X117346000Y-69246000D01*
X117346000Y-68288146D01*
X117654000Y-68288146D01*
X117654000Y-69246000D01*
X118845226Y-69246000D01*
X118959076Y-69052582D01*
X118956523Y-69011611D01*
X118716052Y-68579459D01*
X118328508Y-68272227D01*
X117852892Y-68136688D01*
X117654000Y-68288146D01*
X117346000Y-68288146D01*
X117147108Y-68136688D01*
X116671492Y-68272227D01*
X116283948Y-68579459D01*
X116043477Y-69011611D01*
X116040924Y-69052582D01*
X115459076Y-69052582D01*
X115456523Y-69011611D01*
X115216052Y-68579459D01*
X114828508Y-68272227D01*
X114352892Y-68136688D01*
X114154000Y-68288146D01*
X113846000Y-68288146D01*
X113647108Y-68136688D01*
X113171492Y-68272227D01*
X112783948Y-68579459D01*
X112543477Y-69011611D01*
X112540924Y-69052582D01*
X111459076Y-69052582D01*
X111456523Y-69011611D01*
X111216052Y-68579459D01*
X110828508Y-68272227D01*
X110352892Y-68136688D01*
X110154000Y-68288146D01*
X109846000Y-68288146D01*
X109647108Y-68136688D01*
X109171492Y-68272227D01*
X108783948Y-68579459D01*
X108543477Y-69011611D01*
X108540924Y-69052582D01*
X107561770Y-69052582D01*
X106754894Y-68245706D01*
X106657306Y-68180500D01*
X106316923Y-67953063D01*
X105800300Y-67850300D01*
X103720290Y-67850300D01*
X103720290Y-67603510D01*
X103643588Y-67195874D01*
X103402676Y-66821486D01*
X103035086Y-66570322D01*
X102598740Y-66481960D01*
X99901260Y-66481960D01*
X99493624Y-66558662D01*
X99119236Y-66799574D01*
X98868072Y-67167164D01*
X98779710Y-67603510D01*
X98779710Y-68937400D01*
X98339400Y-68937400D01*
X98306000Y-68904000D01*
X97154000Y-68904000D01*
X97154000Y-68924000D01*
X96846000Y-68924000D01*
X96846000Y-68904000D01*
X96826000Y-68904000D01*
X96826000Y-68596000D01*
X96846000Y-68596000D01*
X96846000Y-67294000D01*
X97154000Y-67294000D01*
X97154000Y-68596000D01*
X98306000Y-68596000D01*
X98458000Y-68444000D01*
X98458000Y-67629061D01*
X98365437Y-67405595D01*
X98194404Y-67234562D01*
X97970938Y-67142000D01*
X97306000Y-67142000D01*
X97154000Y-67294000D01*
X96846000Y-67294000D01*
X96694000Y-67142000D01*
X96029062Y-67142000D01*
X95805596Y-67234562D01*
X95634563Y-67405595D01*
X95542000Y-67629061D01*
X95542000Y-68444000D01*
X95693998Y-68595998D01*
X95542000Y-68595998D01*
X95542000Y-68669912D01*
X95517494Y-68645406D01*
X95435471Y-68590600D01*
X95121550Y-68380845D01*
X95121550Y-67400000D01*
X95044848Y-66992364D01*
X94803936Y-66617976D01*
X94436346Y-66366812D01*
X94000000Y-66278450D01*
X92000000Y-66278450D01*
X91986407Y-66281008D01*
X90860143Y-65154715D01*
X90968475Y-65082330D01*
X91181694Y-64763226D01*
X91256359Y-64843822D01*
X91738951Y-65073811D01*
X91966000Y-64962983D01*
X91966000Y-63654000D01*
X92274000Y-63654000D01*
X92274000Y-64962983D01*
X92501049Y-65073811D01*
X92983641Y-64843822D01*
X93373838Y-64422629D01*
X93573149Y-63884176D01*
X93439516Y-63654000D01*
X92274000Y-63654000D01*
X91966000Y-63654000D01*
X91946000Y-63654000D01*
X91946000Y-63377300D01*
X117688612Y-63377300D01*
X119458906Y-65147594D01*
X119458906Y-65147594D01*
G37*
X119458906Y-65147594D02*
X119896877Y-65440237D01*
X120404134Y-65541137D01*
X120404057Y-65629156D01*
X120616745Y-66143900D01*
X121010228Y-66538070D01*
X121131737Y-66588525D01*
X121364616Y-66821404D01*
X121328450Y-67000000D01*
X121328450Y-69000000D01*
X121405152Y-69407636D01*
X121646064Y-69782024D01*
X121968761Y-70002514D01*
X121667976Y-70196064D01*
X121416812Y-70563654D01*
X121369932Y-70795156D01*
X121163068Y-70933378D01*
X120995406Y-71045406D01*
X119990812Y-72050000D01*
X119409889Y-72050000D01*
X119539182Y-71400000D01*
X119405971Y-70730304D01*
X119026619Y-70162563D01*
X118823744Y-70027007D01*
X118956523Y-69788389D01*
X118959076Y-69747418D01*
X118845226Y-69554000D01*
X117654000Y-69554000D01*
X117654000Y-69574000D01*
X117346000Y-69574000D01*
X117346000Y-69554000D01*
X116154774Y-69554000D01*
X116040924Y-69747418D01*
X116043477Y-69788389D01*
X116176256Y-70027007D01*
X115973381Y-70162563D01*
X115750000Y-70496877D01*
X115526619Y-70162563D01*
X115323744Y-70027007D01*
X115456523Y-69788389D01*
X115459076Y-69747418D01*
X115345226Y-69554000D01*
X114154000Y-69554000D01*
X114154000Y-69574000D01*
X113846000Y-69574000D01*
X113846000Y-69554000D01*
X112654774Y-69554000D01*
X112540924Y-69747418D01*
X112543477Y-69788389D01*
X112676256Y-70027007D01*
X112473381Y-70162563D01*
X112094029Y-70730304D01*
X112000000Y-71203019D01*
X111905971Y-70730304D01*
X111526619Y-70162563D01*
X111323744Y-70027007D01*
X111456523Y-69788389D01*
X111459076Y-69747418D01*
X111345226Y-69554000D01*
X110154000Y-69554000D01*
X110154000Y-69574000D01*
X109846000Y-69574000D01*
X109846000Y-69554000D01*
X108654774Y-69554000D01*
X108540924Y-69747418D01*
X108543477Y-69788389D01*
X108676256Y-70027007D01*
X108592295Y-70083107D01*
X107561770Y-69052582D01*
X108540924Y-69052582D01*
X108654774Y-69246000D01*
X109846000Y-69246000D01*
X109846000Y-68288146D01*
X110154000Y-68288146D01*
X110154000Y-69246000D01*
X111345226Y-69246000D01*
X111459076Y-69052582D01*
X112540924Y-69052582D01*
X112654774Y-69246000D01*
X113846000Y-69246000D01*
X113846000Y-68288146D01*
X114154000Y-68288146D01*
X114154000Y-69246000D01*
X115345226Y-69246000D01*
X115459076Y-69052582D01*
X116040924Y-69052582D01*
X116154774Y-69246000D01*
X117346000Y-69246000D01*
X117346000Y-68288146D01*
X117654000Y-68288146D01*
X117654000Y-69246000D01*
X118845226Y-69246000D01*
X118959076Y-69052582D01*
X118956523Y-69011611D01*
X118716052Y-68579459D01*
X118328508Y-68272227D01*
X117852892Y-68136688D01*
X117654000Y-68288146D01*
X117346000Y-68288146D01*
X117147108Y-68136688D01*
X116671492Y-68272227D01*
X116283948Y-68579459D01*
X116043477Y-69011611D01*
X116040924Y-69052582D01*
X115459076Y-69052582D01*
X115456523Y-69011611D01*
X115216052Y-68579459D01*
X114828508Y-68272227D01*
X114352892Y-68136688D01*
X114154000Y-68288146D01*
X113846000Y-68288146D01*
X113647108Y-68136688D01*
X113171492Y-68272227D01*
X112783948Y-68579459D01*
X112543477Y-69011611D01*
X112540924Y-69052582D01*
X111459076Y-69052582D01*
X111456523Y-69011611D01*
X111216052Y-68579459D01*
X110828508Y-68272227D01*
X110352892Y-68136688D01*
X110154000Y-68288146D01*
X109846000Y-68288146D01*
X109647108Y-68136688D01*
X109171492Y-68272227D01*
X108783948Y-68579459D01*
X108543477Y-69011611D01*
X108540924Y-69052582D01*
X107561770Y-69052582D01*
X106754894Y-68245706D01*
X106657306Y-68180500D01*
X106316923Y-67953063D01*
X105800300Y-67850300D01*
X103720290Y-67850300D01*
X103720290Y-67603510D01*
X103643588Y-67195874D01*
X103402676Y-66821486D01*
X103035086Y-66570322D01*
X102598740Y-66481960D01*
X99901260Y-66481960D01*
X99493624Y-66558662D01*
X99119236Y-66799574D01*
X98868072Y-67167164D01*
X98779710Y-67603510D01*
X98779710Y-68937400D01*
X98339400Y-68937400D01*
X98306000Y-68904000D01*
X97154000Y-68904000D01*
X97154000Y-68924000D01*
X96846000Y-68924000D01*
X96846000Y-68904000D01*
X96826000Y-68904000D01*
X96826000Y-68596000D01*
X96846000Y-68596000D01*
X96846000Y-67294000D01*
X97154000Y-67294000D01*
X97154000Y-68596000D01*
X98306000Y-68596000D01*
X98458000Y-68444000D01*
X98458000Y-67629061D01*
X98365437Y-67405595D01*
X98194404Y-67234562D01*
X97970938Y-67142000D01*
X97306000Y-67142000D01*
X97154000Y-67294000D01*
X96846000Y-67294000D01*
X96694000Y-67142000D01*
X96029062Y-67142000D01*
X95805596Y-67234562D01*
X95634563Y-67405595D01*
X95542000Y-67629061D01*
X95542000Y-68444000D01*
X95693998Y-68595998D01*
X95542000Y-68595998D01*
X95542000Y-68669912D01*
X95517494Y-68645406D01*
X95435471Y-68590600D01*
X95121550Y-68380845D01*
X95121550Y-67400000D01*
X95044848Y-66992364D01*
X94803936Y-66617976D01*
X94436346Y-66366812D01*
X94000000Y-66278450D01*
X92000000Y-66278450D01*
X91986407Y-66281008D01*
X90860143Y-65154715D01*
X90968475Y-65082330D01*
X91181694Y-64763226D01*
X91256359Y-64843822D01*
X91738951Y-65073811D01*
X91966000Y-64962983D01*
X91966000Y-63654000D01*
X92274000Y-63654000D01*
X92274000Y-64962983D01*
X92501049Y-65073811D01*
X92983641Y-64843822D01*
X93373838Y-64422629D01*
X93573149Y-63884176D01*
X93439516Y-63654000D01*
X92274000Y-63654000D01*
X91966000Y-63654000D01*
X91946000Y-63654000D01*
X91946000Y-63377300D01*
X117688612Y-63377300D01*
X119458906Y-65147594D01*
M02*
