G04 #@! TF.FileFunction,Legend,Top*
%FSLAX46Y46*%
G04 Gerber Fmt 4.6, Leading zero omitted, Abs format (unit mm)*
G04 Created by KiCad (PCBNEW 4.0.4-stable) date 04/04/17 13:48:34*
%MOMM*%
%LPD*%
G01*
G04 APERTURE LIST*
%ADD10C,0.100000*%
%ADD11C,0.381000*%
%ADD12C,0.304800*%
%ADD13C,0.120000*%
%ADD14C,0.150000*%
%ADD15C,0.198120*%
%ADD16C,0.285750*%
%ADD17C,0.287020*%
%ADD18C,0.203200*%
%ADD19C,0.125000*%
%ADD20C,0.300000*%
%ADD21C,0.149860*%
%ADD22C,0.062500*%
G04 APERTURE END LIST*
D10*
D11*
X160840000Y-69730000D02*
X160840000Y-72270000D01*
X182176000Y-74302000D02*
X159824000Y-74302000D01*
X159824000Y-67698000D02*
X182176000Y-67698000D01*
X160840000Y-72270000D02*
X159824000Y-72270000D01*
X160840000Y-69730000D02*
X159824000Y-69730000D01*
X182176000Y-67698000D02*
X182176000Y-74302000D01*
X159824000Y-74302000D02*
X159824000Y-67698000D01*
D12*
X109000000Y-68400000D02*
X111000000Y-68400000D01*
X111000000Y-68400000D02*
X111000000Y-74400000D01*
X109000000Y-74400000D02*
X109000000Y-68400000D01*
X111000000Y-74400000D02*
X109000000Y-74400000D01*
X109000000Y-72400000D02*
X111000000Y-72400000D01*
X116500000Y-68400000D02*
X118500000Y-68400000D01*
X118500000Y-68400000D02*
X118500000Y-74400000D01*
X116500000Y-74400000D02*
X116500000Y-68400000D01*
X118500000Y-74400000D02*
X116500000Y-74400000D01*
X116500000Y-72400000D02*
X118500000Y-72400000D01*
X113000000Y-68400000D02*
X115000000Y-68400000D01*
X115000000Y-68400000D02*
X115000000Y-74400000D01*
X113000000Y-74400000D02*
X113000000Y-68400000D01*
X115000000Y-74400000D02*
X113000000Y-74400000D01*
X113000000Y-72400000D02*
X115000000Y-72400000D01*
D13*
X92000000Y-69320000D02*
X90000000Y-69320000D01*
X90000000Y-67180000D02*
X92000000Y-67180000D01*
X92000000Y-72570000D02*
X90000000Y-72570000D01*
X90000000Y-70430000D02*
X92000000Y-70430000D01*
X122230000Y-71000000D02*
X122230000Y-69000000D01*
X124370000Y-69000000D02*
X124370000Y-71000000D01*
X125430000Y-71000000D02*
X125430000Y-69000000D01*
X127570000Y-69000000D02*
X127570000Y-71000000D01*
X128730000Y-71000000D02*
X128730000Y-69000000D01*
X130870000Y-69000000D02*
X130870000Y-71000000D01*
X131830000Y-71000000D02*
X131830000Y-69000000D01*
X133970000Y-69000000D02*
X133970000Y-71000000D01*
X134930000Y-71000000D02*
X134930000Y-69000000D01*
X137070000Y-69000000D02*
X137070000Y-71000000D01*
X138030000Y-71000000D02*
X138030000Y-69000000D01*
X140170000Y-69000000D02*
X140170000Y-71000000D01*
X141130000Y-71000000D02*
X141130000Y-69000000D01*
X143270000Y-69000000D02*
X143270000Y-71000000D01*
X144230000Y-71000000D02*
X144230000Y-69000000D01*
X146370000Y-69000000D02*
X146370000Y-71000000D01*
D14*
X187950000Y-64800000D02*
X189500000Y-64800000D01*
X187950000Y-63500000D02*
X187950000Y-64800000D01*
X189373000Y-59309000D02*
X189373000Y-53467000D01*
X189373000Y-53467000D02*
X189627000Y-53467000D01*
X189627000Y-53467000D02*
X189627000Y-59309000D01*
X189627000Y-59309000D02*
X189500000Y-59309000D01*
X189500000Y-59309000D02*
X189500000Y-53467000D01*
X189246000Y-61976000D02*
X189246000Y-62357000D01*
X189754000Y-61976000D02*
X189754000Y-62357000D01*
X191786000Y-61976000D02*
X191786000Y-62357000D01*
X192294000Y-61976000D02*
X192294000Y-62357000D01*
X194326000Y-61976000D02*
X194326000Y-62357000D01*
X194834000Y-61976000D02*
X194834000Y-62357000D01*
X197374000Y-61976000D02*
X197374000Y-62357000D01*
X196866000Y-61976000D02*
X196866000Y-62357000D01*
X188230000Y-61976000D02*
X188230000Y-59436000D01*
X190770000Y-61976000D02*
X190770000Y-59436000D01*
X190770000Y-61976000D02*
X193310000Y-61976000D01*
X193310000Y-61976000D02*
X193310000Y-59436000D01*
X191786000Y-59436000D02*
X191786000Y-53340000D01*
X191786000Y-53340000D02*
X192294000Y-53340000D01*
X192294000Y-53340000D02*
X192294000Y-59436000D01*
X193310000Y-59436000D02*
X190770000Y-59436000D01*
X190770000Y-59436000D02*
X188230000Y-59436000D01*
X189754000Y-53340000D02*
X189754000Y-59436000D01*
X189246000Y-53340000D02*
X189754000Y-53340000D01*
X189246000Y-59436000D02*
X189246000Y-53340000D01*
X190770000Y-61976000D02*
X190770000Y-59436000D01*
X188230000Y-61976000D02*
X190770000Y-61976000D01*
X195850000Y-61976000D02*
X195850000Y-59436000D01*
X195850000Y-61976000D02*
X198390000Y-61976000D01*
X198390000Y-61976000D02*
X198390000Y-59436000D01*
X196866000Y-59436000D02*
X196866000Y-53340000D01*
X196866000Y-53340000D02*
X197374000Y-53340000D01*
X197374000Y-53340000D02*
X197374000Y-59436000D01*
X198390000Y-59436000D02*
X195850000Y-59436000D01*
X195850000Y-59436000D02*
X193310000Y-59436000D01*
X194834000Y-53340000D02*
X194834000Y-59436000D01*
X194326000Y-53340000D02*
X194834000Y-53340000D01*
X194326000Y-59436000D02*
X194326000Y-53340000D01*
X195850000Y-61976000D02*
X195850000Y-59436000D01*
X193310000Y-61976000D02*
X195850000Y-61976000D01*
X193310000Y-61976000D02*
X193310000Y-59436000D01*
X82950000Y-64800000D02*
X84500000Y-64800000D01*
X82950000Y-63500000D02*
X82950000Y-64800000D01*
X84373000Y-59309000D02*
X84373000Y-53467000D01*
X84373000Y-53467000D02*
X84627000Y-53467000D01*
X84627000Y-53467000D02*
X84627000Y-59309000D01*
X84627000Y-59309000D02*
X84500000Y-59309000D01*
X84500000Y-59309000D02*
X84500000Y-53467000D01*
X84246000Y-61976000D02*
X84246000Y-62357000D01*
X84754000Y-61976000D02*
X84754000Y-62357000D01*
X86786000Y-61976000D02*
X86786000Y-62357000D01*
X87294000Y-61976000D02*
X87294000Y-62357000D01*
X89326000Y-61976000D02*
X89326000Y-62357000D01*
X89834000Y-61976000D02*
X89834000Y-62357000D01*
X92374000Y-61976000D02*
X92374000Y-62357000D01*
X91866000Y-61976000D02*
X91866000Y-62357000D01*
X83230000Y-61976000D02*
X83230000Y-59436000D01*
X85770000Y-61976000D02*
X85770000Y-59436000D01*
X85770000Y-61976000D02*
X88310000Y-61976000D01*
X88310000Y-61976000D02*
X88310000Y-59436000D01*
X86786000Y-59436000D02*
X86786000Y-53340000D01*
X86786000Y-53340000D02*
X87294000Y-53340000D01*
X87294000Y-53340000D02*
X87294000Y-59436000D01*
X88310000Y-59436000D02*
X85770000Y-59436000D01*
X85770000Y-59436000D02*
X83230000Y-59436000D01*
X84754000Y-53340000D02*
X84754000Y-59436000D01*
X84246000Y-53340000D02*
X84754000Y-53340000D01*
X84246000Y-59436000D02*
X84246000Y-53340000D01*
X85770000Y-61976000D02*
X85770000Y-59436000D01*
X83230000Y-61976000D02*
X85770000Y-61976000D01*
X90850000Y-61976000D02*
X90850000Y-59436000D01*
X90850000Y-61976000D02*
X93390000Y-61976000D01*
X93390000Y-61976000D02*
X93390000Y-59436000D01*
X91866000Y-59436000D02*
X91866000Y-53340000D01*
X91866000Y-53340000D02*
X92374000Y-53340000D01*
X92374000Y-53340000D02*
X92374000Y-59436000D01*
X93390000Y-59436000D02*
X90850000Y-59436000D01*
X90850000Y-59436000D02*
X88310000Y-59436000D01*
X89834000Y-53340000D02*
X89834000Y-59436000D01*
X89326000Y-53340000D02*
X89834000Y-53340000D01*
X89326000Y-59436000D02*
X89326000Y-53340000D01*
X90850000Y-61976000D02*
X90850000Y-59436000D01*
X88310000Y-61976000D02*
X90850000Y-61976000D01*
X88310000Y-61976000D02*
X88310000Y-59436000D01*
D11*
X110250000Y-57400000D02*
G75*
G03X110250000Y-57400000I-2000000J0D01*
G01*
X110750000Y-53400000D02*
X110750000Y-52900000D01*
X115750000Y-53400000D02*
X115750000Y-52900000D01*
X115250000Y-57400000D02*
G75*
G03X115250000Y-57400000I-2000000J0D01*
G01*
X120250000Y-57400000D02*
G75*
G03X120250000Y-57400000I-2000000J0D01*
G01*
X120750000Y-53400000D02*
X120750000Y-52900000D01*
X125750000Y-53400000D02*
X125750000Y-52900000D01*
X125250000Y-57400000D02*
G75*
G03X125250000Y-57400000I-2000000J0D01*
G01*
X130250000Y-57400000D02*
G75*
G03X130250000Y-57400000I-2000000J0D01*
G01*
X130750000Y-53400000D02*
X130750000Y-52900000D01*
X135750000Y-53400000D02*
X135750000Y-52900000D01*
X135250000Y-57400000D02*
G75*
G03X135250000Y-57400000I-2000000J0D01*
G01*
X140250000Y-57400000D02*
G75*
G03X140250000Y-57400000I-2000000J0D01*
G01*
X140750000Y-53400000D02*
X140750000Y-52900000D01*
X145750000Y-53400000D02*
X145750000Y-52900000D01*
X145250000Y-57400000D02*
G75*
G03X145250000Y-57400000I-2000000J0D01*
G01*
X150250000Y-57400000D02*
G75*
G03X150250000Y-57400000I-2000000J0D01*
G01*
X150750000Y-53400000D02*
X150750000Y-52900000D01*
X155750000Y-53400000D02*
X155750000Y-52900000D01*
X155250000Y-57400000D02*
G75*
G03X155250000Y-57400000I-2000000J0D01*
G01*
X160250000Y-57400000D02*
G75*
G03X160250000Y-57400000I-2000000J0D01*
G01*
X160750000Y-53400000D02*
X160750000Y-52900000D01*
X165750000Y-53400000D02*
X165750000Y-52900000D01*
X165250000Y-57400000D02*
G75*
G03X165250000Y-57400000I-2000000J0D01*
G01*
X170750000Y-53400000D02*
X170750000Y-52900000D01*
X170250000Y-57400000D02*
G75*
G03X170250000Y-57400000I-2000000J0D01*
G01*
X175250000Y-57400000D02*
G75*
G03X175250000Y-57400000I-2000000J0D01*
G01*
X175750000Y-53400000D02*
X175750000Y-52900000D01*
X180750000Y-53400000D02*
X180750000Y-52900000D01*
X180250000Y-57400000D02*
G75*
G03X180250000Y-57400000I-2000000J0D01*
G01*
X185250000Y-57400000D02*
G75*
G03X185250000Y-57400000I-2000000J0D01*
G01*
X185750000Y-54900000D02*
X105750000Y-54900000D01*
X185750000Y-59800000D02*
X105750000Y-59800000D01*
X185750000Y-53400000D02*
X105750000Y-53400000D01*
X185750000Y-52900000D02*
X105750000Y-52900000D01*
X105750000Y-52900000D02*
X105750000Y-62700000D01*
X105750000Y-62700000D02*
X185750000Y-62700000D01*
X185750000Y-62700000D02*
X185750000Y-52900000D01*
D13*
X157500000Y-70850000D02*
X157500000Y-70150000D01*
X158700000Y-70150000D02*
X158700000Y-70850000D01*
D11*
X100000000Y-53400000D02*
X100000000Y-52900000D01*
X99500000Y-57400000D02*
G75*
G03X99500000Y-57400000I-2000000J0D01*
G01*
X104500000Y-57400000D02*
G75*
G03X104500000Y-57400000I-2000000J0D01*
G01*
X105000000Y-54900000D02*
X95000000Y-54900000D01*
X105000000Y-59800000D02*
X95000000Y-59800000D01*
X105000000Y-53400000D02*
X95000000Y-53400000D01*
X105000000Y-52900000D02*
X95000000Y-52900000D01*
X95000000Y-52900000D02*
X95000000Y-62700000D01*
X95000000Y-62700000D02*
X105000000Y-62700000D01*
X105000000Y-62700000D02*
X105000000Y-52900000D01*
D15*
X101450660Y-69900940D02*
X101049340Y-69900940D01*
X101549720Y-70099060D02*
X100950280Y-70099060D01*
X102649540Y-68498860D02*
X99850460Y-68498860D01*
X99850460Y-71501140D02*
X102649540Y-71501140D01*
X102448880Y-70000000D02*
G75*
G03X102448880Y-70000000I-1198880J0D01*
G01*
X100749620Y-70198120D02*
X101750380Y-70198120D01*
X101750380Y-70198120D02*
X101250000Y-69700280D01*
X101250000Y-69700280D02*
X100749620Y-70198120D01*
X102649540Y-69199900D02*
X101951040Y-68501400D01*
X102649540Y-68801120D02*
X102349820Y-68501400D01*
X102448880Y-68501400D02*
X102649540Y-68699520D01*
X102649540Y-69001780D02*
X102149160Y-68501400D01*
X99850460Y-71699260D02*
X102649540Y-71699260D01*
X102649540Y-71699260D02*
X102649540Y-68300740D01*
X102649540Y-68300740D02*
X99850460Y-68300740D01*
X99853000Y-68300740D02*
X99853000Y-71699260D01*
D13*
X98070000Y-69750000D02*
X98070000Y-71750000D01*
X95930000Y-71750000D02*
X95930000Y-69750000D01*
D16*
X183129143Y-70865429D02*
X183129143Y-72099143D01*
X183183571Y-72244286D01*
X183238000Y-72316857D01*
X183346857Y-72389429D01*
X183564571Y-72389429D01*
X183673429Y-72316857D01*
X183727857Y-72244286D01*
X183782286Y-72099143D01*
X183782286Y-70865429D01*
X184925286Y-72389429D02*
X184272143Y-72389429D01*
X184598715Y-72389429D02*
X184598715Y-70865429D01*
X184489858Y-71083143D01*
X184381000Y-71228286D01*
X184272143Y-71300857D01*
D17*
D16*
X168162144Y-72089429D02*
X168162144Y-70565429D01*
X168597572Y-70565429D01*
X168706430Y-70638000D01*
X168760858Y-70710571D01*
X168815287Y-70855714D01*
X168815287Y-71073429D01*
X168760858Y-71218571D01*
X168706430Y-71291143D01*
X168597572Y-71363714D01*
X168162144Y-71363714D01*
X169958287Y-71944286D02*
X169903858Y-72016857D01*
X169740572Y-72089429D01*
X169631715Y-72089429D01*
X169468430Y-72016857D01*
X169359572Y-71871714D01*
X169305144Y-71726571D01*
X169250715Y-71436286D01*
X169250715Y-71218571D01*
X169305144Y-70928286D01*
X169359572Y-70783143D01*
X169468430Y-70638000D01*
X169631715Y-70565429D01*
X169740572Y-70565429D01*
X169903858Y-70638000D01*
X169958287Y-70710571D01*
X170829144Y-71291143D02*
X170448144Y-71291143D01*
X170448144Y-72089429D02*
X170448144Y-70565429D01*
X170992430Y-70565429D01*
X171591144Y-71218571D02*
X171482286Y-71146000D01*
X171427858Y-71073429D01*
X171373429Y-70928286D01*
X171373429Y-70855714D01*
X171427858Y-70710571D01*
X171482286Y-70638000D01*
X171591144Y-70565429D01*
X171808858Y-70565429D01*
X171917715Y-70638000D01*
X171972144Y-70710571D01*
X172026572Y-70855714D01*
X172026572Y-70928286D01*
X171972144Y-71073429D01*
X171917715Y-71146000D01*
X171808858Y-71218571D01*
X171591144Y-71218571D01*
X171482286Y-71291143D01*
X171427858Y-71363714D01*
X171373429Y-71508857D01*
X171373429Y-71799143D01*
X171427858Y-71944286D01*
X171482286Y-72016857D01*
X171591144Y-72089429D01*
X171808858Y-72089429D01*
X171917715Y-72016857D01*
X171972144Y-71944286D01*
X172026572Y-71799143D01*
X172026572Y-71508857D01*
X171972144Y-71363714D01*
X171917715Y-71291143D01*
X171808858Y-71218571D01*
X173060715Y-70565429D02*
X172516429Y-70565429D01*
X172462000Y-71291143D01*
X172516429Y-71218571D01*
X172625286Y-71146000D01*
X172897429Y-71146000D01*
X173006286Y-71218571D01*
X173060715Y-71291143D01*
X173115143Y-71436286D01*
X173115143Y-71799143D01*
X173060715Y-71944286D01*
X173006286Y-72016857D01*
X172897429Y-72089429D01*
X172625286Y-72089429D01*
X172516429Y-72016857D01*
X172462000Y-71944286D01*
X173496143Y-70565429D02*
X174258143Y-70565429D01*
X173768286Y-72089429D01*
X175183428Y-71073429D02*
X175183428Y-72089429D01*
X174911285Y-70492857D02*
X174639142Y-71581429D01*
X175346714Y-71581429D01*
D17*
D18*
X110559619Y-67849904D02*
X109543619Y-67849904D01*
X109543619Y-67462857D01*
X109592000Y-67366095D01*
X109640381Y-67317714D01*
X109737143Y-67269333D01*
X109882286Y-67269333D01*
X109979048Y-67317714D01*
X110027429Y-67366095D01*
X110075810Y-67462857D01*
X110075810Y-67849904D01*
X110559619Y-66301714D02*
X110559619Y-66882285D01*
X110559619Y-66591999D02*
X109543619Y-66591999D01*
X109688762Y-66688761D01*
X109785524Y-66785523D01*
X109833905Y-66882285D01*
X117959619Y-68049904D02*
X116943619Y-68049904D01*
X116943619Y-67662857D01*
X116992000Y-67566095D01*
X117040381Y-67517714D01*
X117137143Y-67469333D01*
X117282286Y-67469333D01*
X117379048Y-67517714D01*
X117427429Y-67566095D01*
X117475810Y-67662857D01*
X117475810Y-68049904D01*
X117040381Y-67082285D02*
X116992000Y-67033904D01*
X116943619Y-66937142D01*
X116943619Y-66695238D01*
X116992000Y-66598476D01*
X117040381Y-66550095D01*
X117137143Y-66501714D01*
X117233905Y-66501714D01*
X117379048Y-66550095D01*
X117959619Y-67130666D01*
X117959619Y-66501714D01*
X114609619Y-67874904D02*
X113593619Y-67874904D01*
X113593619Y-67487857D01*
X113642000Y-67391095D01*
X113690381Y-67342714D01*
X113787143Y-67294333D01*
X113932286Y-67294333D01*
X114029048Y-67342714D01*
X114077429Y-67391095D01*
X114125810Y-67487857D01*
X114125810Y-67874904D01*
X113593619Y-66955666D02*
X113593619Y-66326714D01*
X113980667Y-66665380D01*
X113980667Y-66520238D01*
X114029048Y-66423476D01*
X114077429Y-66375095D01*
X114174190Y-66326714D01*
X114416095Y-66326714D01*
X114512857Y-66375095D01*
X114561238Y-66423476D01*
X114609619Y-66520238D01*
X114609619Y-66810523D01*
X114561238Y-66907285D01*
X114512857Y-66955666D01*
D19*
X91016667Y-70076190D02*
X90850000Y-69838095D01*
X90730953Y-70076190D02*
X90730953Y-69576190D01*
X90921429Y-69576190D01*
X90969048Y-69600000D01*
X90992857Y-69623810D01*
X91016667Y-69671429D01*
X91016667Y-69742857D01*
X90992857Y-69790476D01*
X90969048Y-69814286D01*
X90921429Y-69838095D01*
X90730953Y-69838095D01*
X91492857Y-70076190D02*
X91207143Y-70076190D01*
X91350000Y-70076190D02*
X91350000Y-69576190D01*
X91302381Y-69647619D01*
X91254762Y-69695238D01*
X91207143Y-69719048D01*
X91016667Y-73326190D02*
X90850000Y-73088095D01*
X90730953Y-73326190D02*
X90730953Y-72826190D01*
X90921429Y-72826190D01*
X90969048Y-72850000D01*
X90992857Y-72873810D01*
X91016667Y-72921429D01*
X91016667Y-72992857D01*
X90992857Y-73040476D01*
X90969048Y-73064286D01*
X90921429Y-73088095D01*
X90730953Y-73088095D01*
X91207143Y-72873810D02*
X91230953Y-72850000D01*
X91278572Y-72826190D01*
X91397619Y-72826190D01*
X91445238Y-72850000D01*
X91469048Y-72873810D01*
X91492857Y-72921429D01*
X91492857Y-72969048D01*
X91469048Y-73040476D01*
X91183334Y-73326190D01*
X91492857Y-73326190D01*
D14*
X123927381Y-74366666D02*
X123451190Y-74700000D01*
X123927381Y-74938095D02*
X122927381Y-74938095D01*
X122927381Y-74557142D01*
X122975000Y-74461904D01*
X123022619Y-74414285D01*
X123117857Y-74366666D01*
X123260714Y-74366666D01*
X123355952Y-74414285D01*
X123403571Y-74461904D01*
X123451190Y-74557142D01*
X123451190Y-74938095D01*
X122927381Y-74033333D02*
X122927381Y-73414285D01*
X123308333Y-73747619D01*
X123308333Y-73604761D01*
X123355952Y-73509523D01*
X123403571Y-73461904D01*
X123498810Y-73414285D01*
X123736905Y-73414285D01*
X123832143Y-73461904D01*
X123879762Y-73509523D01*
X123927381Y-73604761D01*
X123927381Y-73890476D01*
X123879762Y-73985714D01*
X123832143Y-74033333D01*
X127027381Y-74416666D02*
X126551190Y-74750000D01*
X127027381Y-74988095D02*
X126027381Y-74988095D01*
X126027381Y-74607142D01*
X126075000Y-74511904D01*
X126122619Y-74464285D01*
X126217857Y-74416666D01*
X126360714Y-74416666D01*
X126455952Y-74464285D01*
X126503571Y-74511904D01*
X126551190Y-74607142D01*
X126551190Y-74988095D01*
X126360714Y-73559523D02*
X127027381Y-73559523D01*
X125979762Y-73797619D02*
X126694048Y-74035714D01*
X126694048Y-73416666D01*
X130327381Y-74366666D02*
X129851190Y-74700000D01*
X130327381Y-74938095D02*
X129327381Y-74938095D01*
X129327381Y-74557142D01*
X129375000Y-74461904D01*
X129422619Y-74414285D01*
X129517857Y-74366666D01*
X129660714Y-74366666D01*
X129755952Y-74414285D01*
X129803571Y-74461904D01*
X129851190Y-74557142D01*
X129851190Y-74938095D01*
X129327381Y-73461904D02*
X129327381Y-73938095D01*
X129803571Y-73985714D01*
X129755952Y-73938095D01*
X129708333Y-73842857D01*
X129708333Y-73604761D01*
X129755952Y-73509523D01*
X129803571Y-73461904D01*
X129898810Y-73414285D01*
X130136905Y-73414285D01*
X130232143Y-73461904D01*
X130279762Y-73509523D01*
X130327381Y-73604761D01*
X130327381Y-73842857D01*
X130279762Y-73938095D01*
X130232143Y-73985714D01*
X133177381Y-74391666D02*
X132701190Y-74725000D01*
X133177381Y-74963095D02*
X132177381Y-74963095D01*
X132177381Y-74582142D01*
X132225000Y-74486904D01*
X132272619Y-74439285D01*
X132367857Y-74391666D01*
X132510714Y-74391666D01*
X132605952Y-74439285D01*
X132653571Y-74486904D01*
X132701190Y-74582142D01*
X132701190Y-74963095D01*
X132177381Y-73534523D02*
X132177381Y-73725000D01*
X132225000Y-73820238D01*
X132272619Y-73867857D01*
X132415476Y-73963095D01*
X132605952Y-74010714D01*
X132986905Y-74010714D01*
X133082143Y-73963095D01*
X133129762Y-73915476D01*
X133177381Y-73820238D01*
X133177381Y-73629761D01*
X133129762Y-73534523D01*
X133082143Y-73486904D01*
X132986905Y-73439285D01*
X132748810Y-73439285D01*
X132653571Y-73486904D01*
X132605952Y-73534523D01*
X132558333Y-73629761D01*
X132558333Y-73820238D01*
X132605952Y-73915476D01*
X132653571Y-73963095D01*
X132748810Y-74010714D01*
X136502381Y-74516666D02*
X136026190Y-74850000D01*
X136502381Y-75088095D02*
X135502381Y-75088095D01*
X135502381Y-74707142D01*
X135550000Y-74611904D01*
X135597619Y-74564285D01*
X135692857Y-74516666D01*
X135835714Y-74516666D01*
X135930952Y-74564285D01*
X135978571Y-74611904D01*
X136026190Y-74707142D01*
X136026190Y-75088095D01*
X135502381Y-74183333D02*
X135502381Y-73516666D01*
X136502381Y-73945238D01*
X139602381Y-74516666D02*
X139126190Y-74850000D01*
X139602381Y-75088095D02*
X138602381Y-75088095D01*
X138602381Y-74707142D01*
X138650000Y-74611904D01*
X138697619Y-74564285D01*
X138792857Y-74516666D01*
X138935714Y-74516666D01*
X139030952Y-74564285D01*
X139078571Y-74611904D01*
X139126190Y-74707142D01*
X139126190Y-75088095D01*
X139030952Y-73945238D02*
X138983333Y-74040476D01*
X138935714Y-74088095D01*
X138840476Y-74135714D01*
X138792857Y-74135714D01*
X138697619Y-74088095D01*
X138650000Y-74040476D01*
X138602381Y-73945238D01*
X138602381Y-73754761D01*
X138650000Y-73659523D01*
X138697619Y-73611904D01*
X138792857Y-73564285D01*
X138840476Y-73564285D01*
X138935714Y-73611904D01*
X138983333Y-73659523D01*
X139030952Y-73754761D01*
X139030952Y-73945238D01*
X139078571Y-74040476D01*
X139126190Y-74088095D01*
X139221429Y-74135714D01*
X139411905Y-74135714D01*
X139507143Y-74088095D01*
X139554762Y-74040476D01*
X139602381Y-73945238D01*
X139602381Y-73754761D01*
X139554762Y-73659523D01*
X139507143Y-73611904D01*
X139411905Y-73564285D01*
X139221429Y-73564285D01*
X139126190Y-73611904D01*
X139078571Y-73659523D01*
X139030952Y-73754761D01*
X142777381Y-74366666D02*
X142301190Y-74700000D01*
X142777381Y-74938095D02*
X141777381Y-74938095D01*
X141777381Y-74557142D01*
X141825000Y-74461904D01*
X141872619Y-74414285D01*
X141967857Y-74366666D01*
X142110714Y-74366666D01*
X142205952Y-74414285D01*
X142253571Y-74461904D01*
X142301190Y-74557142D01*
X142301190Y-74938095D01*
X142777381Y-73890476D02*
X142777381Y-73700000D01*
X142729762Y-73604761D01*
X142682143Y-73557142D01*
X142539286Y-73461904D01*
X142348810Y-73414285D01*
X141967857Y-73414285D01*
X141872619Y-73461904D01*
X141825000Y-73509523D01*
X141777381Y-73604761D01*
X141777381Y-73795238D01*
X141825000Y-73890476D01*
X141872619Y-73938095D01*
X141967857Y-73985714D01*
X142205952Y-73985714D01*
X142301190Y-73938095D01*
X142348810Y-73890476D01*
X142396429Y-73795238D01*
X142396429Y-73604761D01*
X142348810Y-73509523D01*
X142301190Y-73461904D01*
X142205952Y-73414285D01*
X145802381Y-75392857D02*
X145326190Y-75726191D01*
X145802381Y-75964286D02*
X144802381Y-75964286D01*
X144802381Y-75583333D01*
X144850000Y-75488095D01*
X144897619Y-75440476D01*
X144992857Y-75392857D01*
X145135714Y-75392857D01*
X145230952Y-75440476D01*
X145278571Y-75488095D01*
X145326190Y-75583333D01*
X145326190Y-75964286D01*
X145802381Y-74440476D02*
X145802381Y-75011905D01*
X145802381Y-74726191D02*
X144802381Y-74726191D01*
X144945238Y-74821429D01*
X145040476Y-74916667D01*
X145088095Y-75011905D01*
X144802381Y-73821429D02*
X144802381Y-73726190D01*
X144850000Y-73630952D01*
X144897619Y-73583333D01*
X144992857Y-73535714D01*
X145183333Y-73488095D01*
X145421429Y-73488095D01*
X145611905Y-73535714D01*
X145707143Y-73583333D01*
X145754762Y-73630952D01*
X145802381Y-73726190D01*
X145802381Y-73821429D01*
X145754762Y-73916667D01*
X145707143Y-73964286D01*
X145611905Y-74011905D01*
X145421429Y-74059524D01*
X145183333Y-74059524D01*
X144992857Y-74011905D01*
X144897619Y-73964286D01*
X144850000Y-73916667D01*
X144802381Y-73821429D01*
D19*
X199476190Y-62619047D02*
X198976190Y-62619047D01*
X198976190Y-62428571D01*
X199000000Y-62380952D01*
X199023810Y-62357143D01*
X199071429Y-62333333D01*
X199142857Y-62333333D01*
X199190476Y-62357143D01*
X199214286Y-62380952D01*
X199238095Y-62428571D01*
X199238095Y-62619047D01*
X199142857Y-61904762D02*
X199476190Y-61904762D01*
X198952381Y-62023809D02*
X199309524Y-62142857D01*
X199309524Y-61833333D01*
X82476190Y-55119047D02*
X81976190Y-55119047D01*
X81976190Y-54928571D01*
X82000000Y-54880952D01*
X82023810Y-54857143D01*
X82071429Y-54833333D01*
X82142857Y-54833333D01*
X82190476Y-54857143D01*
X82214286Y-54880952D01*
X82238095Y-54928571D01*
X82238095Y-55119047D01*
X81976190Y-54380952D02*
X81976190Y-54619047D01*
X82214286Y-54642857D01*
X82190476Y-54619047D01*
X82166667Y-54571428D01*
X82166667Y-54452381D01*
X82190476Y-54404762D01*
X82214286Y-54380952D01*
X82261905Y-54357143D01*
X82380952Y-54357143D01*
X82428571Y-54380952D01*
X82452381Y-54404762D01*
X82476190Y-54452381D01*
X82476190Y-54571428D01*
X82452381Y-54619047D01*
X82428571Y-54642857D01*
X141380953Y-63726190D02*
X141380953Y-63226190D01*
X141571429Y-63226190D01*
X141619048Y-63250000D01*
X141642857Y-63273810D01*
X141666667Y-63321429D01*
X141666667Y-63392857D01*
X141642857Y-63440476D01*
X141619048Y-63464286D01*
X141571429Y-63488095D01*
X141380953Y-63488095D01*
X142095238Y-63226190D02*
X142000000Y-63226190D01*
X141952381Y-63250000D01*
X141928572Y-63273810D01*
X141880953Y-63345238D01*
X141857143Y-63440476D01*
X141857143Y-63630952D01*
X141880953Y-63678571D01*
X141904762Y-63702381D01*
X141952381Y-63726190D01*
X142047619Y-63726190D01*
X142095238Y-63702381D01*
X142119048Y-63678571D01*
X142142857Y-63630952D01*
X142142857Y-63511905D01*
X142119048Y-63464286D01*
X142095238Y-63440476D01*
X142047619Y-63416667D01*
X141952381Y-63416667D01*
X141904762Y-63440476D01*
X141880953Y-63464286D01*
X141857143Y-63511905D01*
X143738096Y-63678571D02*
X143714286Y-63702381D01*
X143642858Y-63726190D01*
X143595239Y-63726190D01*
X143523810Y-63702381D01*
X143476191Y-63654762D01*
X143452382Y-63607143D01*
X143428572Y-63511905D01*
X143428572Y-63440476D01*
X143452382Y-63345238D01*
X143476191Y-63297619D01*
X143523810Y-63250000D01*
X143595239Y-63226190D01*
X143642858Y-63226190D01*
X143714286Y-63250000D01*
X143738096Y-63273810D01*
X144047620Y-63226190D02*
X144142858Y-63226190D01*
X144190477Y-63250000D01*
X144238096Y-63297619D01*
X144261905Y-63392857D01*
X144261905Y-63559524D01*
X144238096Y-63654762D01*
X144190477Y-63702381D01*
X144142858Y-63726190D01*
X144047620Y-63726190D01*
X144000001Y-63702381D01*
X143952382Y-63654762D01*
X143928572Y-63559524D01*
X143928572Y-63392857D01*
X143952382Y-63297619D01*
X144000001Y-63250000D01*
X144047620Y-63226190D01*
X144476192Y-63726190D02*
X144476192Y-63226190D01*
X144761906Y-63726190D01*
X144761906Y-63226190D01*
X145000002Y-63726190D02*
X145000002Y-63226190D01*
X145285716Y-63726190D01*
X145285716Y-63226190D01*
X145404764Y-63773810D02*
X145785716Y-63773810D01*
X146000002Y-63226190D02*
X146047621Y-63226190D01*
X146095240Y-63250000D01*
X146119049Y-63273810D01*
X146142859Y-63321429D01*
X146166668Y-63416667D01*
X146166668Y-63535714D01*
X146142859Y-63630952D01*
X146119049Y-63678571D01*
X146095240Y-63702381D01*
X146047621Y-63726190D01*
X146000002Y-63726190D01*
X145952383Y-63702381D01*
X145928573Y-63678571D01*
X145904764Y-63630952D01*
X145880954Y-63535714D01*
X145880954Y-63416667D01*
X145904764Y-63321429D01*
X145928573Y-63273810D01*
X145952383Y-63250000D01*
X146000002Y-63226190D01*
X146642858Y-63726190D02*
X146357144Y-63726190D01*
X146500001Y-63726190D02*
X146500001Y-63226190D01*
X146452382Y-63297619D01*
X146404763Y-63345238D01*
X146357144Y-63369048D01*
X146809525Y-63226190D02*
X147142858Y-63726190D01*
X147142858Y-63226190D02*
X146809525Y-63726190D01*
X147595238Y-63726190D02*
X147309524Y-63726190D01*
X147452381Y-63726190D02*
X147452381Y-63226190D01*
X147404762Y-63297619D01*
X147357143Y-63345238D01*
X147309524Y-63369048D01*
X148023809Y-63226190D02*
X147928571Y-63226190D01*
X147880952Y-63250000D01*
X147857143Y-63273810D01*
X147809524Y-63345238D01*
X147785714Y-63440476D01*
X147785714Y-63630952D01*
X147809524Y-63678571D01*
X147833333Y-63702381D01*
X147880952Y-63726190D01*
X147976190Y-63726190D01*
X148023809Y-63702381D01*
X148047619Y-63678571D01*
X148071428Y-63630952D01*
X148071428Y-63511905D01*
X148047619Y-63464286D01*
X148023809Y-63440476D01*
X147976190Y-63416667D01*
X147880952Y-63416667D01*
X147833333Y-63440476D01*
X147809524Y-63464286D01*
X147785714Y-63511905D01*
D14*
X157207143Y-70666666D02*
X157254762Y-70714285D01*
X157302381Y-70857142D01*
X157302381Y-70952380D01*
X157254762Y-71095238D01*
X157159524Y-71190476D01*
X157064286Y-71238095D01*
X156873810Y-71285714D01*
X156730952Y-71285714D01*
X156540476Y-71238095D01*
X156445238Y-71190476D01*
X156350000Y-71095238D01*
X156302381Y-70952380D01*
X156302381Y-70857142D01*
X156350000Y-70714285D01*
X156397619Y-70666666D01*
X157302381Y-69714285D02*
X157302381Y-70285714D01*
X157302381Y-70000000D02*
X156302381Y-70000000D01*
X156445238Y-70095238D01*
X156540476Y-70190476D01*
X156588095Y-70285714D01*
D20*
X98892858Y-64778571D02*
X98892858Y-63278571D01*
X99464286Y-63278571D01*
X99607144Y-63350000D01*
X99678572Y-63421429D01*
X99750001Y-63564286D01*
X99750001Y-63778571D01*
X99678572Y-63921429D01*
X99607144Y-63992857D01*
X99464286Y-64064286D01*
X98892858Y-64064286D01*
X100250001Y-63278571D02*
X101250001Y-63278571D01*
X100607144Y-64778571D01*
D19*
X94678571Y-61761904D02*
X94702381Y-61785714D01*
X94726190Y-61857142D01*
X94726190Y-61904761D01*
X94702381Y-61976190D01*
X94654762Y-62023809D01*
X94607143Y-62047618D01*
X94511905Y-62071428D01*
X94440476Y-62071428D01*
X94345238Y-62047618D01*
X94297619Y-62023809D01*
X94250000Y-61976190D01*
X94226190Y-61904761D01*
X94226190Y-61857142D01*
X94250000Y-61785714D01*
X94273810Y-61761904D01*
X94226190Y-61452380D02*
X94226190Y-61357142D01*
X94250000Y-61309523D01*
X94297619Y-61261904D01*
X94392857Y-61238095D01*
X94559524Y-61238095D01*
X94654762Y-61261904D01*
X94702381Y-61309523D01*
X94726190Y-61357142D01*
X94726190Y-61452380D01*
X94702381Y-61499999D01*
X94654762Y-61547618D01*
X94559524Y-61571428D01*
X94392857Y-61571428D01*
X94297619Y-61547618D01*
X94250000Y-61499999D01*
X94226190Y-61452380D01*
X94726190Y-61023808D02*
X94226190Y-61023808D01*
X94726190Y-60738094D01*
X94226190Y-60738094D01*
X94726190Y-60499998D02*
X94226190Y-60499998D01*
X94726190Y-60214284D01*
X94226190Y-60214284D01*
X94773810Y-60095236D02*
X94773810Y-59714284D01*
X94226190Y-59499998D02*
X94226190Y-59452379D01*
X94250000Y-59404760D01*
X94273810Y-59380951D01*
X94321429Y-59357141D01*
X94416667Y-59333332D01*
X94535714Y-59333332D01*
X94630952Y-59357141D01*
X94678571Y-59380951D01*
X94702381Y-59404760D01*
X94726190Y-59452379D01*
X94726190Y-59499998D01*
X94702381Y-59547617D01*
X94678571Y-59571427D01*
X94630952Y-59595236D01*
X94535714Y-59619046D01*
X94416667Y-59619046D01*
X94321429Y-59595236D01*
X94273810Y-59571427D01*
X94250000Y-59547617D01*
X94226190Y-59499998D01*
X94726190Y-58857142D02*
X94726190Y-59142856D01*
X94726190Y-58999999D02*
X94226190Y-58999999D01*
X94297619Y-59047618D01*
X94345238Y-59095237D01*
X94369048Y-59142856D01*
X94226190Y-58690475D02*
X94726190Y-58357142D01*
X94226190Y-58357142D02*
X94726190Y-58690475D01*
X94226190Y-58071428D02*
X94226190Y-58023809D01*
X94250000Y-57976190D01*
X94273810Y-57952381D01*
X94321429Y-57928571D01*
X94416667Y-57904762D01*
X94535714Y-57904762D01*
X94630952Y-57928571D01*
X94678571Y-57952381D01*
X94702381Y-57976190D01*
X94726190Y-58023809D01*
X94726190Y-58071428D01*
X94702381Y-58119047D01*
X94678571Y-58142857D01*
X94630952Y-58166666D01*
X94535714Y-58190476D01*
X94416667Y-58190476D01*
X94321429Y-58166666D01*
X94273810Y-58142857D01*
X94250000Y-58119047D01*
X94226190Y-58071428D01*
X94273810Y-57714286D02*
X94250000Y-57690476D01*
X94226190Y-57642857D01*
X94226190Y-57523810D01*
X94250000Y-57476191D01*
X94273810Y-57452381D01*
X94321429Y-57428572D01*
X94369048Y-57428572D01*
X94440476Y-57452381D01*
X94726190Y-57738095D01*
X94726190Y-57428572D01*
D21*
X99511370Y-70590550D02*
X98711270Y-70590550D01*
X98711270Y-70400050D01*
X98749370Y-70285750D01*
X98825570Y-70209550D01*
X98901770Y-70171450D01*
X99054170Y-70133350D01*
X99168470Y-70133350D01*
X99320870Y-70171450D01*
X99397070Y-70209550D01*
X99473270Y-70285750D01*
X99511370Y-70400050D01*
X99511370Y-70590550D01*
X99511370Y-69371350D02*
X99511370Y-69828550D01*
X99511370Y-69599950D02*
X98711270Y-69599950D01*
X98825570Y-69676150D01*
X98901770Y-69752350D01*
X98939870Y-69828550D01*
X103811590Y-70514350D02*
X103811590Y-70895350D01*
X103011490Y-70895350D01*
X103392490Y-70247650D02*
X103392490Y-69980950D01*
X103811590Y-69866650D02*
X103811590Y-70247650D01*
X103011490Y-70247650D01*
X103011490Y-69866650D01*
X103811590Y-69523750D02*
X103011490Y-69523750D01*
X103011490Y-69333250D01*
X103049590Y-69218950D01*
X103125790Y-69142750D01*
X103201990Y-69104650D01*
X103354390Y-69066550D01*
X103468690Y-69066550D01*
X103621090Y-69104650D01*
X103697290Y-69142750D01*
X103773490Y-69218950D01*
X103811590Y-69333250D01*
X103811590Y-69523750D01*
D14*
X95602381Y-71392857D02*
X95126190Y-71726191D01*
X95602381Y-71964286D02*
X94602381Y-71964286D01*
X94602381Y-71583333D01*
X94650000Y-71488095D01*
X94697619Y-71440476D01*
X94792857Y-71392857D01*
X94935714Y-71392857D01*
X95030952Y-71440476D01*
X95078571Y-71488095D01*
X95126190Y-71583333D01*
X95126190Y-71964286D01*
X95602381Y-70440476D02*
X95602381Y-71011905D01*
X95602381Y-70726191D02*
X94602381Y-70726191D01*
X94745238Y-70821429D01*
X94840476Y-70916667D01*
X94888095Y-71011905D01*
X95602381Y-69488095D02*
X95602381Y-70059524D01*
X95602381Y-69773810D02*
X94602381Y-69773810D01*
X94745238Y-69869048D01*
X94840476Y-69964286D01*
X94888095Y-70059524D01*
D22*
X84656762Y-71597190D02*
X84680572Y-71609095D01*
X84728191Y-71609095D01*
X84752000Y-71597190D01*
X84763905Y-71573381D01*
X84763905Y-71561476D01*
X84752000Y-71537667D01*
X84728191Y-71525762D01*
X84692476Y-71525762D01*
X84668667Y-71513857D01*
X84656762Y-71490048D01*
X84656762Y-71478143D01*
X84668667Y-71454333D01*
X84692476Y-71442429D01*
X84728191Y-71442429D01*
X84752000Y-71454333D01*
X84966286Y-71597190D02*
X84942476Y-71609095D01*
X84894857Y-71609095D01*
X84871048Y-71597190D01*
X84859143Y-71573381D01*
X84859143Y-71478143D01*
X84871048Y-71454333D01*
X84894857Y-71442429D01*
X84942476Y-71442429D01*
X84966286Y-71454333D01*
X84978191Y-71478143D01*
X84978191Y-71501952D01*
X84859143Y-71525762D01*
X85049620Y-71442429D02*
X85144858Y-71442429D01*
X85085334Y-71359095D02*
X85085334Y-71573381D01*
X85097239Y-71597190D01*
X85121048Y-71609095D01*
X85144858Y-71609095D01*
X85275810Y-71359095D02*
X85299619Y-71359095D01*
X85323429Y-71371000D01*
X85335334Y-71382905D01*
X85347238Y-71406714D01*
X85359143Y-71454333D01*
X85359143Y-71513857D01*
X85347238Y-71561476D01*
X85335334Y-71585286D01*
X85323429Y-71597190D01*
X85299619Y-71609095D01*
X85275810Y-71609095D01*
X85252000Y-71597190D01*
X85240096Y-71585286D01*
X85228191Y-71561476D01*
X85216286Y-71513857D01*
X85216286Y-71454333D01*
X85228191Y-71406714D01*
X85240096Y-71382905D01*
X85252000Y-71371000D01*
X85275810Y-71359095D01*
X85597238Y-71609095D02*
X85454381Y-71609095D01*
X85525810Y-71609095D02*
X85525810Y-71359095D01*
X85502000Y-71394810D01*
X85478191Y-71418619D01*
X85454381Y-71430524D01*
X150406762Y-67097190D02*
X150430572Y-67109095D01*
X150478191Y-67109095D01*
X150502000Y-67097190D01*
X150513905Y-67073381D01*
X150513905Y-67061476D01*
X150502000Y-67037667D01*
X150478191Y-67025762D01*
X150442476Y-67025762D01*
X150418667Y-67013857D01*
X150406762Y-66990048D01*
X150406762Y-66978143D01*
X150418667Y-66954333D01*
X150442476Y-66942429D01*
X150478191Y-66942429D01*
X150502000Y-66954333D01*
X150716286Y-67097190D02*
X150692476Y-67109095D01*
X150644857Y-67109095D01*
X150621048Y-67097190D01*
X150609143Y-67073381D01*
X150609143Y-66978143D01*
X150621048Y-66954333D01*
X150644857Y-66942429D01*
X150692476Y-66942429D01*
X150716286Y-66954333D01*
X150728191Y-66978143D01*
X150728191Y-67001952D01*
X150609143Y-67025762D01*
X150799620Y-66942429D02*
X150894858Y-66942429D01*
X150835334Y-66859095D02*
X150835334Y-67073381D01*
X150847239Y-67097190D01*
X150871048Y-67109095D01*
X150894858Y-67109095D01*
X151025810Y-66859095D02*
X151049619Y-66859095D01*
X151073429Y-66871000D01*
X151085334Y-66882905D01*
X151097238Y-66906714D01*
X151109143Y-66954333D01*
X151109143Y-67013857D01*
X151097238Y-67061476D01*
X151085334Y-67085286D01*
X151073429Y-67097190D01*
X151049619Y-67109095D01*
X151025810Y-67109095D01*
X151002000Y-67097190D01*
X150990096Y-67085286D01*
X150978191Y-67061476D01*
X150966286Y-67013857D01*
X150966286Y-66954333D01*
X150978191Y-66906714D01*
X150990096Y-66882905D01*
X151002000Y-66871000D01*
X151025810Y-66859095D01*
X151204381Y-66882905D02*
X151216286Y-66871000D01*
X151240095Y-66859095D01*
X151299619Y-66859095D01*
X151323429Y-66871000D01*
X151335333Y-66882905D01*
X151347238Y-66906714D01*
X151347238Y-66930524D01*
X151335333Y-66966238D01*
X151192476Y-67109095D01*
X151347238Y-67109095D01*
X193406762Y-72347190D02*
X193430572Y-72359095D01*
X193478191Y-72359095D01*
X193502000Y-72347190D01*
X193513905Y-72323381D01*
X193513905Y-72311476D01*
X193502000Y-72287667D01*
X193478191Y-72275762D01*
X193442476Y-72275762D01*
X193418667Y-72263857D01*
X193406762Y-72240048D01*
X193406762Y-72228143D01*
X193418667Y-72204333D01*
X193442476Y-72192429D01*
X193478191Y-72192429D01*
X193502000Y-72204333D01*
X193716286Y-72347190D02*
X193692476Y-72359095D01*
X193644857Y-72359095D01*
X193621048Y-72347190D01*
X193609143Y-72323381D01*
X193609143Y-72228143D01*
X193621048Y-72204333D01*
X193644857Y-72192429D01*
X193692476Y-72192429D01*
X193716286Y-72204333D01*
X193728191Y-72228143D01*
X193728191Y-72251952D01*
X193609143Y-72275762D01*
X193799620Y-72192429D02*
X193894858Y-72192429D01*
X193835334Y-72109095D02*
X193835334Y-72323381D01*
X193847239Y-72347190D01*
X193871048Y-72359095D01*
X193894858Y-72359095D01*
X194025810Y-72109095D02*
X194049619Y-72109095D01*
X194073429Y-72121000D01*
X194085334Y-72132905D01*
X194097238Y-72156714D01*
X194109143Y-72204333D01*
X194109143Y-72263857D01*
X194097238Y-72311476D01*
X194085334Y-72335286D01*
X194073429Y-72347190D01*
X194049619Y-72359095D01*
X194025810Y-72359095D01*
X194002000Y-72347190D01*
X193990096Y-72335286D01*
X193978191Y-72311476D01*
X193966286Y-72263857D01*
X193966286Y-72204333D01*
X193978191Y-72156714D01*
X193990096Y-72132905D01*
X194002000Y-72121000D01*
X194025810Y-72109095D01*
X194192476Y-72109095D02*
X194347238Y-72109095D01*
X194263905Y-72204333D01*
X194299619Y-72204333D01*
X194323429Y-72216238D01*
X194335333Y-72228143D01*
X194347238Y-72251952D01*
X194347238Y-72311476D01*
X194335333Y-72335286D01*
X194323429Y-72347190D01*
X194299619Y-72359095D01*
X194228191Y-72359095D01*
X194204381Y-72347190D01*
X194192476Y-72335286D01*
M02*
