G04 #@! TF.GenerationSoftware,KiCad,Pcbnew,(5.0.1)-4*
G04 #@! TF.CreationDate,2018-12-02T21:27:52-06:00*
G04 #@! TF.ProjectId,ExpansionUSB,457870616E73696F6E5553422E6B6963,rev?*
G04 #@! TF.SameCoordinates,Original*
G04 #@! TF.FileFunction,Legend,Top*
G04 #@! TF.FilePolarity,Positive*
%FSLAX46Y46*%
G04 Gerber Fmt 4.6, Leading zero omitted, Abs format (unit mm)*
G04 Created by KiCad (PCBNEW (5.0.1)-4) date 02/12/2018 21:27:52*
%MOMM*%
%LPD*%
G01*
G04 APERTURE LIST*
%ADD10C,0.120000*%
%ADD11C,0.150000*%
%ADD12C,0.381000*%
%ADD13C,0.125000*%
%ADD14C,0.304800*%
G04 APERTURE END LIST*
D10*
G04 #@! TO.C,C3*
X116018000Y-100082000D02*
X116018000Y-100782000D01*
X114818000Y-100782000D02*
X114818000Y-100082000D01*
G04 #@! TO.C,C4*
X118812000Y-100082000D02*
X118812000Y-100782000D01*
X117612000Y-100782000D02*
X117612000Y-100082000D01*
G04 #@! TO.C,C1*
X114818000Y-96717600D02*
X114818000Y-96017600D01*
X116018000Y-96017600D02*
X116018000Y-96717600D01*
G04 #@! TO.C,C2*
X117612000Y-96717600D02*
X117612000Y-96017600D01*
X118812000Y-96017600D02*
X118812000Y-96717600D01*
D11*
G04 #@! TO.C,U1*
X120025000Y-88196600D02*
X119975000Y-88196600D01*
X120025000Y-92346600D02*
X119880000Y-92346600D01*
X114875000Y-92346600D02*
X115020000Y-92346600D01*
X114875000Y-88196600D02*
X115020000Y-88196600D01*
X120025000Y-88196600D02*
X120025000Y-92346600D01*
X114875000Y-88196600D02*
X114875000Y-92346600D01*
X119975000Y-88196600D02*
X119975000Y-86796600D01*
D10*
G04 #@! TO.C,J1*
X118134000Y-78334300D02*
X118134000Y-69534300D01*
X114964000Y-80079300D02*
X113914000Y-80079300D01*
X114964000Y-67789300D02*
X113914000Y-67789300D01*
D12*
G04 #@! TO.C,J2*
X167919000Y-68173600D02*
X153695000Y-68173600D01*
X153695000Y-81381600D02*
X167919000Y-81381600D01*
X153695000Y-68173600D02*
X153695000Y-81381600D01*
X157505000Y-82651600D02*
X158521000Y-81381600D01*
X156489000Y-81381600D02*
X157505000Y-82651600D01*
X157505000Y-66903600D02*
X158521000Y-68173600D01*
X156489000Y-68173600D02*
X157505000Y-66903600D01*
X167538000Y-82397600D02*
X167538000Y-67157600D01*
X168046000Y-67157600D02*
X168046000Y-82397600D01*
X167538000Y-67157600D02*
X168046000Y-67157600D01*
X167538000Y-82397600D02*
X168046000Y-82397600D01*
X167792000Y-82397600D02*
X167792000Y-67157600D01*
G04 #@! TO.C,J4*
X167792000Y-129515000D02*
X167792000Y-114275000D01*
X167538000Y-129515000D02*
X168046000Y-129515000D01*
X167538000Y-114275000D02*
X168046000Y-114275000D01*
X168046000Y-114275000D02*
X168046000Y-129515000D01*
X167538000Y-129515000D02*
X167538000Y-114275000D01*
X156489000Y-115291000D02*
X157505000Y-114021000D01*
X157505000Y-114021000D02*
X158521000Y-115291000D01*
X156489000Y-128499000D02*
X157505000Y-129769000D01*
X157505000Y-129769000D02*
X158521000Y-128499000D01*
X153695000Y-115291000D02*
X153695000Y-128499000D01*
X153695000Y-128499000D02*
X167919000Y-128499000D01*
X167919000Y-115291000D02*
X153695000Y-115291000D01*
D11*
G04 #@! TO.C,U2*
X151758051Y-125070000D02*
G75*
G03X151758051Y-125070000I-1796051J0D01*
G01*
X126358051Y-125070000D02*
G75*
G03X126358051Y-125070000I-1796051J0D01*
G01*
X126358051Y-73000000D02*
G75*
G03X126358051Y-73000000I-1796051J0D01*
G01*
X151758051Y-73000000D02*
G75*
G03X151758051Y-73000000I-1796051J0D01*
G01*
X152512000Y-70440000D02*
X122512000Y-70440000D01*
X122512000Y-70440000D02*
X122012000Y-70440000D01*
X122012000Y-70440000D02*
X122012000Y-127440000D01*
X122012000Y-127440000D02*
X152512000Y-127440000D01*
X152512000Y-127440000D02*
X152512000Y-70440000D01*
D10*
G04 #@! TO.C,U3*
X163788000Y-88179600D02*
X162138000Y-88179600D01*
X163788000Y-108619600D02*
X163788000Y-88179600D01*
X158488000Y-108619600D02*
X163788000Y-108619600D01*
X158488000Y-88179600D02*
X158488000Y-108619600D01*
X160138000Y-88179600D02*
X158488000Y-88179600D01*
X162138000Y-88179600D02*
G75*
G02X160138000Y-88179600I-1000000J0D01*
G01*
D11*
G04 #@! TO.C,U4*
X120279000Y-104453000D02*
X120229000Y-104453000D01*
X120279000Y-108603000D02*
X120134000Y-108603000D01*
X115129000Y-108603000D02*
X115274000Y-108603000D01*
X115129000Y-104453000D02*
X115274000Y-104453000D01*
X120279000Y-104453000D02*
X120279000Y-108603000D01*
X115129000Y-104453000D02*
X115129000Y-108603000D01*
X120229000Y-104453000D02*
X120229000Y-103053000D01*
D10*
G04 #@! TO.C,J3*
X118114000Y-127209000D02*
X118114000Y-118409000D01*
X114944000Y-128954000D02*
X113894000Y-128954000D01*
X114944000Y-116664000D02*
X113894000Y-116664000D01*
D11*
G04 #@! TO.C,J5*
X118720000Y-83667600D02*
G75*
G03X118720000Y-83667600I-2286000J0D01*
G01*
G04 #@! TO.C,J6*
X118720000Y-113132000D02*
G75*
G03X118720000Y-113132000I-2286000J0D01*
G01*
G04 #@! TO.C,J7*
X166980000Y-85293200D02*
G75*
G03X166980000Y-85293200I-2286000J0D01*
G01*
G04 #@! TO.C,J8*
X166980000Y-111608000D02*
G75*
G03X166980000Y-111608000I-2286000J0D01*
G01*
G04 #@! TO.C,C3*
D13*
X116645863Y-100498039D02*
X116669672Y-100521848D01*
X116693482Y-100593277D01*
X116693482Y-100640896D01*
X116669672Y-100712325D01*
X116622053Y-100759944D01*
X116574434Y-100783753D01*
X116479196Y-100807563D01*
X116407768Y-100807563D01*
X116312530Y-100783753D01*
X116264911Y-100759944D01*
X116217292Y-100712325D01*
X116193482Y-100640896D01*
X116193482Y-100593277D01*
X116217292Y-100521848D01*
X116241101Y-100498039D01*
X116193482Y-100331372D02*
X116193482Y-100021848D01*
X116383958Y-100188515D01*
X116383958Y-100117086D01*
X116407768Y-100069467D01*
X116431577Y-100045658D01*
X116479196Y-100021848D01*
X116598244Y-100021848D01*
X116645863Y-100045658D01*
X116669672Y-100069467D01*
X116693482Y-100117086D01*
X116693482Y-100259944D01*
X116669672Y-100307563D01*
X116645863Y-100331372D01*
G04 #@! TO.C,C4*
X119406571Y-100515333D02*
X119430380Y-100539142D01*
X119454190Y-100610571D01*
X119454190Y-100658190D01*
X119430380Y-100729619D01*
X119382761Y-100777238D01*
X119335142Y-100801047D01*
X119239904Y-100824857D01*
X119168476Y-100824857D01*
X119073238Y-100801047D01*
X119025619Y-100777238D01*
X118978000Y-100729619D01*
X118954190Y-100658190D01*
X118954190Y-100610571D01*
X118978000Y-100539142D01*
X119001809Y-100515333D01*
X119120857Y-100086761D02*
X119454190Y-100086761D01*
X118930380Y-100205809D02*
X119287523Y-100324857D01*
X119287523Y-100015333D01*
G04 #@! TO.C,C1*
X116612571Y-96450933D02*
X116636380Y-96474742D01*
X116660190Y-96546171D01*
X116660190Y-96593790D01*
X116636380Y-96665219D01*
X116588761Y-96712838D01*
X116541142Y-96736647D01*
X116445904Y-96760457D01*
X116374476Y-96760457D01*
X116279238Y-96736647D01*
X116231619Y-96712838D01*
X116184000Y-96665219D01*
X116160190Y-96593790D01*
X116160190Y-96546171D01*
X116184000Y-96474742D01*
X116207809Y-96450933D01*
X116660190Y-95974742D02*
X116660190Y-96260457D01*
X116660190Y-96117600D02*
X116160190Y-96117600D01*
X116231619Y-96165219D01*
X116279238Y-96212838D01*
X116303047Y-96260457D01*
G04 #@! TO.C,C2*
X119406571Y-96450933D02*
X119430380Y-96474742D01*
X119454190Y-96546171D01*
X119454190Y-96593790D01*
X119430380Y-96665219D01*
X119382761Y-96712838D01*
X119335142Y-96736647D01*
X119239904Y-96760457D01*
X119168476Y-96760457D01*
X119073238Y-96736647D01*
X119025619Y-96712838D01*
X118978000Y-96665219D01*
X118954190Y-96593790D01*
X118954190Y-96546171D01*
X118978000Y-96474742D01*
X119001809Y-96450933D01*
X119001809Y-96260457D02*
X118978000Y-96236647D01*
X118954190Y-96189028D01*
X118954190Y-96069980D01*
X118978000Y-96022361D01*
X119001809Y-95998552D01*
X119049428Y-95974742D01*
X119097047Y-95974742D01*
X119168476Y-95998552D01*
X119454190Y-96284266D01*
X119454190Y-95974742D01*
G04 #@! TO.C,U1*
D11*
X120458380Y-91033504D02*
X121267904Y-91033504D01*
X121363142Y-90985885D01*
X121410761Y-90938266D01*
X121458380Y-90843028D01*
X121458380Y-90652552D01*
X121410761Y-90557314D01*
X121363142Y-90509695D01*
X121267904Y-90462076D01*
X120458380Y-90462076D01*
X121458380Y-89462076D02*
X121458380Y-90033504D01*
X121458380Y-89747790D02*
X120458380Y-89747790D01*
X120601238Y-89843028D01*
X120696476Y-89938266D01*
X120744095Y-90033504D01*
G04 #@! TO.C,J1*
X120164186Y-78801960D02*
X120164186Y-79516246D01*
X120116567Y-79659103D01*
X120021329Y-79754341D01*
X119878472Y-79801960D01*
X119783234Y-79801960D01*
X121164186Y-79801960D02*
X120592758Y-79801960D01*
X120878472Y-79801960D02*
X120878472Y-78801960D01*
X120783234Y-78944818D01*
X120687996Y-79040056D01*
X120592758Y-79087675D01*
G04 #@! TO.C,J2*
D14*
X162939148Y-75570080D02*
X164027720Y-75570080D01*
X164245434Y-75642651D01*
X164390577Y-75787794D01*
X164463148Y-76005508D01*
X164463148Y-76150651D01*
X163084291Y-74916937D02*
X163011720Y-74844365D01*
X162939148Y-74699222D01*
X162939148Y-74336365D01*
X163011720Y-74191222D01*
X163084291Y-74118651D01*
X163229434Y-74046080D01*
X163374577Y-74046080D01*
X163592291Y-74118651D01*
X164463148Y-74989508D01*
X164463148Y-74046080D01*
X157859148Y-77934457D02*
X159092862Y-77934457D01*
X159238005Y-77861885D01*
X159310577Y-77789314D01*
X159383148Y-77644171D01*
X159383148Y-77353885D01*
X159310577Y-77208742D01*
X159238005Y-77136171D01*
X159092862Y-77063600D01*
X157859148Y-77063600D01*
X159310577Y-76410457D02*
X159383148Y-76192742D01*
X159383148Y-75829885D01*
X159310577Y-75684742D01*
X159238005Y-75612171D01*
X159092862Y-75539600D01*
X158947720Y-75539600D01*
X158802577Y-75612171D01*
X158730005Y-75684742D01*
X158657434Y-75829885D01*
X158584862Y-76120171D01*
X158512291Y-76265314D01*
X158439720Y-76337885D01*
X158294577Y-76410457D01*
X158149434Y-76410457D01*
X158004291Y-76337885D01*
X157931720Y-76265314D01*
X157859148Y-76120171D01*
X157859148Y-75757314D01*
X157931720Y-75539600D01*
X158584862Y-74378457D02*
X158657434Y-74160742D01*
X158730005Y-74088171D01*
X158875148Y-74015600D01*
X159092862Y-74015600D01*
X159238005Y-74088171D01*
X159310577Y-74160742D01*
X159383148Y-74305885D01*
X159383148Y-74886457D01*
X157859148Y-74886457D01*
X157859148Y-74378457D01*
X157931720Y-74233314D01*
X158004291Y-74160742D01*
X158149434Y-74088171D01*
X158294577Y-74088171D01*
X158439720Y-74160742D01*
X158512291Y-74233314D01*
X158584862Y-74378457D01*
X158584862Y-74886457D01*
X159528291Y-73725314D02*
X159528291Y-72564171D01*
X158947720Y-72273885D02*
X158947720Y-71548171D01*
X159383148Y-72419028D02*
X157859148Y-71911028D01*
X159383148Y-71403028D01*
G04 #@! TO.C,J4*
X163528428Y-122230280D02*
X164617000Y-122230280D01*
X164834714Y-122302851D01*
X164979857Y-122447994D01*
X165052428Y-122665708D01*
X165052428Y-122810851D01*
X164036428Y-120851422D02*
X165052428Y-120851422D01*
X163455857Y-121214280D02*
X164544428Y-121577137D01*
X164544428Y-120633708D01*
X157940428Y-125051857D02*
X159174142Y-125051857D01*
X159319285Y-124979285D01*
X159391857Y-124906714D01*
X159464428Y-124761571D01*
X159464428Y-124471285D01*
X159391857Y-124326142D01*
X159319285Y-124253571D01*
X159174142Y-124181000D01*
X157940428Y-124181000D01*
X159391857Y-123527857D02*
X159464428Y-123310142D01*
X159464428Y-122947285D01*
X159391857Y-122802142D01*
X159319285Y-122729571D01*
X159174142Y-122657000D01*
X159029000Y-122657000D01*
X158883857Y-122729571D01*
X158811285Y-122802142D01*
X158738714Y-122947285D01*
X158666142Y-123237571D01*
X158593571Y-123382714D01*
X158521000Y-123455285D01*
X158375857Y-123527857D01*
X158230714Y-123527857D01*
X158085571Y-123455285D01*
X158013000Y-123382714D01*
X157940428Y-123237571D01*
X157940428Y-122874714D01*
X158013000Y-122657000D01*
X158666142Y-121495857D02*
X158738714Y-121278142D01*
X158811285Y-121205571D01*
X158956428Y-121133000D01*
X159174142Y-121133000D01*
X159319285Y-121205571D01*
X159391857Y-121278142D01*
X159464428Y-121423285D01*
X159464428Y-122003857D01*
X157940428Y-122003857D01*
X157940428Y-121495857D01*
X158013000Y-121350714D01*
X158085571Y-121278142D01*
X158230714Y-121205571D01*
X158375857Y-121205571D01*
X158521000Y-121278142D01*
X158593571Y-121350714D01*
X158666142Y-121495857D01*
X158666142Y-122003857D01*
X159609571Y-120842714D02*
X159609571Y-119681571D01*
X159029000Y-119391285D02*
X159029000Y-118665571D01*
X159464428Y-119536428D02*
X157940428Y-119028428D01*
X159464428Y-118520428D01*
G04 #@! TO.C,U2*
D11*
X136500095Y-100392380D02*
X136500095Y-101201904D01*
X136547714Y-101297142D01*
X136595333Y-101344761D01*
X136690571Y-101392380D01*
X136881047Y-101392380D01*
X136976285Y-101344761D01*
X137023904Y-101297142D01*
X137071523Y-101201904D01*
X137071523Y-100392380D01*
X137500095Y-100487619D02*
X137547714Y-100440000D01*
X137642952Y-100392380D01*
X137881047Y-100392380D01*
X137976285Y-100440000D01*
X138023904Y-100487619D01*
X138071523Y-100582857D01*
X138071523Y-100678095D01*
X138023904Y-100820952D01*
X137452476Y-101392380D01*
X138071523Y-101392380D01*
X124736761Y-115632380D02*
X125070095Y-116632380D01*
X125403428Y-115632380D01*
X125736761Y-116632380D02*
X125736761Y-115632380D01*
X126212952Y-116632380D02*
X126212952Y-115632380D01*
X126784380Y-116632380D01*
X126784380Y-115632380D01*
X126093904Y-113140000D02*
X125998666Y-113092380D01*
X125855809Y-113092380D01*
X125712952Y-113140000D01*
X125617714Y-113235238D01*
X125570095Y-113330476D01*
X125522476Y-113520952D01*
X125522476Y-113663809D01*
X125570095Y-113854285D01*
X125617714Y-113949523D01*
X125712952Y-114044761D01*
X125855809Y-114092380D01*
X125951047Y-114092380D01*
X126093904Y-114044761D01*
X126141523Y-113997142D01*
X126141523Y-113663809D01*
X125951047Y-113663809D01*
X125284380Y-111552380D02*
X124951047Y-111076190D01*
X124712952Y-111552380D02*
X124712952Y-110552380D01*
X125093904Y-110552380D01*
X125189142Y-110600000D01*
X125236761Y-110647619D01*
X125284380Y-110742857D01*
X125284380Y-110885714D01*
X125236761Y-110980952D01*
X125189142Y-111028571D01*
X125093904Y-111076190D01*
X124712952Y-111076190D01*
X125665333Y-111504761D02*
X125808190Y-111552380D01*
X126046285Y-111552380D01*
X126141523Y-111504761D01*
X126189142Y-111457142D01*
X126236761Y-111361904D01*
X126236761Y-111266666D01*
X126189142Y-111171428D01*
X126141523Y-111123809D01*
X126046285Y-111076190D01*
X125855809Y-111028571D01*
X125760571Y-110980952D01*
X125712952Y-110933333D01*
X125665333Y-110838095D01*
X125665333Y-110742857D01*
X125712952Y-110647619D01*
X125760571Y-110600000D01*
X125855809Y-110552380D01*
X126093904Y-110552380D01*
X126236761Y-110600000D01*
X126522476Y-110552380D02*
X127093904Y-110552380D01*
X126808190Y-111552380D02*
X126808190Y-110552380D01*
X125093904Y-108488571D02*
X125427238Y-108488571D01*
X125570095Y-109012380D02*
X125093904Y-109012380D01*
X125093904Y-108012380D01*
X125570095Y-108012380D01*
X125998666Y-109012380D02*
X125998666Y-108012380D01*
X126570095Y-109012380D01*
X126570095Y-108012380D01*
X125070095Y-105472380D02*
X125689142Y-105472380D01*
X125355809Y-105853333D01*
X125498666Y-105853333D01*
X125593904Y-105900952D01*
X125641523Y-105948571D01*
X125689142Y-106043809D01*
X125689142Y-106281904D01*
X125641523Y-106377142D01*
X125593904Y-106424761D01*
X125498666Y-106472380D01*
X125212952Y-106472380D01*
X125117714Y-106424761D01*
X125070095Y-106377142D01*
X125974857Y-105472380D02*
X126308190Y-106472380D01*
X126641523Y-105472380D01*
X126093904Y-102980000D02*
X125998666Y-102932380D01*
X125855809Y-102932380D01*
X125712952Y-102980000D01*
X125617714Y-103075238D01*
X125570095Y-103170476D01*
X125522476Y-103360952D01*
X125522476Y-103503809D01*
X125570095Y-103694285D01*
X125617714Y-103789523D01*
X125712952Y-103884761D01*
X125855809Y-103932380D01*
X125951047Y-103932380D01*
X126093904Y-103884761D01*
X126141523Y-103837142D01*
X126141523Y-103503809D01*
X125951047Y-103503809D01*
X125046285Y-101344761D02*
X125189142Y-101392380D01*
X125427238Y-101392380D01*
X125522476Y-101344761D01*
X125570095Y-101297142D01*
X125617714Y-101201904D01*
X125617714Y-101106666D01*
X125570095Y-101011428D01*
X125522476Y-100963809D01*
X125427238Y-100916190D01*
X125236761Y-100868571D01*
X125141523Y-100820952D01*
X125093904Y-100773333D01*
X125046285Y-100678095D01*
X125046285Y-100582857D01*
X125093904Y-100487619D01*
X125141523Y-100440000D01*
X125236761Y-100392380D01*
X125474857Y-100392380D01*
X125617714Y-100440000D01*
X126046285Y-101392380D02*
X126046285Y-100392380D01*
X126617714Y-101392380D02*
X126189142Y-100820952D01*
X126617714Y-100392380D02*
X126046285Y-100963809D01*
X125022476Y-98804761D02*
X125165333Y-98852380D01*
X125403428Y-98852380D01*
X125498666Y-98804761D01*
X125546285Y-98757142D01*
X125593904Y-98661904D01*
X125593904Y-98566666D01*
X125546285Y-98471428D01*
X125498666Y-98423809D01*
X125403428Y-98376190D01*
X125212952Y-98328571D01*
X125117714Y-98280952D01*
X125070095Y-98233333D01*
X125022476Y-98138095D01*
X125022476Y-98042857D01*
X125070095Y-97947619D01*
X125117714Y-97900000D01*
X125212952Y-97852380D01*
X125451047Y-97852380D01*
X125593904Y-97900000D01*
X126212952Y-97852380D02*
X126403428Y-97852380D01*
X126498666Y-97900000D01*
X126593904Y-97995238D01*
X126641523Y-98185714D01*
X126641523Y-98519047D01*
X126593904Y-98709523D01*
X126498666Y-98804761D01*
X126403428Y-98852380D01*
X126212952Y-98852380D01*
X126117714Y-98804761D01*
X126022476Y-98709523D01*
X125974857Y-98519047D01*
X125974857Y-98185714D01*
X126022476Y-97995238D01*
X126117714Y-97900000D01*
X126212952Y-97852380D01*
X125046285Y-96264761D02*
X125189142Y-96312380D01*
X125427238Y-96312380D01*
X125522476Y-96264761D01*
X125570095Y-96217142D01*
X125617714Y-96121904D01*
X125617714Y-96026666D01*
X125570095Y-95931428D01*
X125522476Y-95883809D01*
X125427238Y-95836190D01*
X125236761Y-95788571D01*
X125141523Y-95740952D01*
X125093904Y-95693333D01*
X125046285Y-95598095D01*
X125046285Y-95502857D01*
X125093904Y-95407619D01*
X125141523Y-95360000D01*
X125236761Y-95312380D01*
X125474857Y-95312380D01*
X125617714Y-95360000D01*
X126617714Y-96217142D02*
X126570095Y-96264761D01*
X126427238Y-96312380D01*
X126332000Y-96312380D01*
X126189142Y-96264761D01*
X126093904Y-96169523D01*
X126046285Y-96074285D01*
X125998666Y-95883809D01*
X125998666Y-95740952D01*
X126046285Y-95550476D01*
X126093904Y-95455238D01*
X126189142Y-95360000D01*
X126332000Y-95312380D01*
X126427238Y-95312380D01*
X126570095Y-95360000D01*
X126617714Y-95407619D01*
X125070095Y-93724761D02*
X125212952Y-93772380D01*
X125451047Y-93772380D01*
X125546285Y-93724761D01*
X125593904Y-93677142D01*
X125641523Y-93581904D01*
X125641523Y-93486666D01*
X125593904Y-93391428D01*
X125546285Y-93343809D01*
X125451047Y-93296190D01*
X125260571Y-93248571D01*
X125165333Y-93200952D01*
X125117714Y-93153333D01*
X125070095Y-93058095D01*
X125070095Y-92962857D01*
X125117714Y-92867619D01*
X125165333Y-92820000D01*
X125260571Y-92772380D01*
X125498666Y-92772380D01*
X125641523Y-92820000D01*
X126593904Y-93772380D02*
X126022476Y-93772380D01*
X126308190Y-93772380D02*
X126308190Y-92772380D01*
X126212952Y-92915238D01*
X126117714Y-93010476D01*
X126022476Y-93058095D01*
X125070095Y-91184761D02*
X125212952Y-91232380D01*
X125451047Y-91232380D01*
X125546285Y-91184761D01*
X125593904Y-91137142D01*
X125641523Y-91041904D01*
X125641523Y-90946666D01*
X125593904Y-90851428D01*
X125546285Y-90803809D01*
X125451047Y-90756190D01*
X125260571Y-90708571D01*
X125165333Y-90660952D01*
X125117714Y-90613333D01*
X125070095Y-90518095D01*
X125070095Y-90422857D01*
X125117714Y-90327619D01*
X125165333Y-90280000D01*
X125260571Y-90232380D01*
X125498666Y-90232380D01*
X125641523Y-90280000D01*
X126022476Y-90327619D02*
X126070095Y-90280000D01*
X126165333Y-90232380D01*
X126403428Y-90232380D01*
X126498666Y-90280000D01*
X126546285Y-90327619D01*
X126593904Y-90422857D01*
X126593904Y-90518095D01*
X126546285Y-90660952D01*
X125974857Y-91232380D01*
X126593904Y-91232380D01*
X125070095Y-88644761D02*
X125212952Y-88692380D01*
X125451047Y-88692380D01*
X125546285Y-88644761D01*
X125593904Y-88597142D01*
X125641523Y-88501904D01*
X125641523Y-88406666D01*
X125593904Y-88311428D01*
X125546285Y-88263809D01*
X125451047Y-88216190D01*
X125260571Y-88168571D01*
X125165333Y-88120952D01*
X125117714Y-88073333D01*
X125070095Y-87978095D01*
X125070095Y-87882857D01*
X125117714Y-87787619D01*
X125165333Y-87740000D01*
X125260571Y-87692380D01*
X125498666Y-87692380D01*
X125641523Y-87740000D01*
X125974857Y-87692380D02*
X126593904Y-87692380D01*
X126260571Y-88073333D01*
X126403428Y-88073333D01*
X126498666Y-88120952D01*
X126546285Y-88168571D01*
X126593904Y-88263809D01*
X126593904Y-88501904D01*
X126546285Y-88597142D01*
X126498666Y-88644761D01*
X126403428Y-88692380D01*
X126117714Y-88692380D01*
X126022476Y-88644761D01*
X125974857Y-88597142D01*
X124974857Y-85152380D02*
X125308190Y-86152380D01*
X125641523Y-85152380D01*
X125974857Y-85152380D02*
X125974857Y-85961904D01*
X126022476Y-86057142D01*
X126070095Y-86104761D01*
X126165333Y-86152380D01*
X126355809Y-86152380D01*
X126451047Y-86104761D01*
X126498666Y-86057142D01*
X126546285Y-85961904D01*
X126546285Y-85152380D01*
X126093904Y-82660000D02*
X125998666Y-82612380D01*
X125855809Y-82612380D01*
X125712952Y-82660000D01*
X125617714Y-82755238D01*
X125570095Y-82850476D01*
X125522476Y-83040952D01*
X125522476Y-83183809D01*
X125570095Y-83374285D01*
X125617714Y-83469523D01*
X125712952Y-83564761D01*
X125855809Y-83612380D01*
X125951047Y-83612380D01*
X126093904Y-83564761D01*
X126141523Y-83517142D01*
X126141523Y-83183809D01*
X125951047Y-83183809D01*
X125117714Y-80786666D02*
X125593904Y-80786666D01*
X125022476Y-81072380D02*
X125355809Y-80072380D01*
X125689142Y-81072380D01*
X126212952Y-80072380D02*
X126308190Y-80072380D01*
X126403428Y-80120000D01*
X126451047Y-80167619D01*
X126498666Y-80262857D01*
X126546285Y-80453333D01*
X126546285Y-80691428D01*
X126498666Y-80881904D01*
X126451047Y-80977142D01*
X126403428Y-81024761D01*
X126308190Y-81072380D01*
X126212952Y-81072380D01*
X126117714Y-81024761D01*
X126070095Y-80977142D01*
X126022476Y-80881904D01*
X125974857Y-80691428D01*
X125974857Y-80453333D01*
X126022476Y-80262857D01*
X126070095Y-80167619D01*
X126117714Y-80120000D01*
X126212952Y-80072380D01*
X147930095Y-115632380D02*
X148549142Y-115632380D01*
X148215809Y-116013333D01*
X148358666Y-116013333D01*
X148453904Y-116060952D01*
X148501523Y-116108571D01*
X148549142Y-116203809D01*
X148549142Y-116441904D01*
X148501523Y-116537142D01*
X148453904Y-116584761D01*
X148358666Y-116632380D01*
X148072952Y-116632380D01*
X147977714Y-116584761D01*
X147930095Y-116537142D01*
X148834857Y-115632380D02*
X149168190Y-116632380D01*
X149501523Y-115632380D01*
X148953904Y-113140000D02*
X148858666Y-113092380D01*
X148715809Y-113092380D01*
X148572952Y-113140000D01*
X148477714Y-113235238D01*
X148430095Y-113330476D01*
X148382476Y-113520952D01*
X148382476Y-113663809D01*
X148430095Y-113854285D01*
X148477714Y-113949523D01*
X148572952Y-114044761D01*
X148715809Y-114092380D01*
X148811047Y-114092380D01*
X148953904Y-114044761D01*
X149001523Y-113997142D01*
X149001523Y-113663809D01*
X148811047Y-113663809D01*
X147930095Y-110552380D02*
X148501523Y-110552380D01*
X148215809Y-111552380D02*
X148215809Y-110552380D01*
X148739619Y-110552380D02*
X149406285Y-111552380D01*
X149406285Y-110552380D02*
X148739619Y-111552380D01*
X148525333Y-109012380D02*
X148192000Y-108536190D01*
X147953904Y-109012380D02*
X147953904Y-108012380D01*
X148334857Y-108012380D01*
X148430095Y-108060000D01*
X148477714Y-108107619D01*
X148525333Y-108202857D01*
X148525333Y-108345714D01*
X148477714Y-108440952D01*
X148430095Y-108488571D01*
X148334857Y-108536190D01*
X147953904Y-108536190D01*
X148858666Y-108012380D02*
X149525333Y-109012380D01*
X149525333Y-108012380D02*
X148858666Y-109012380D01*
X147953904Y-106472380D02*
X147953904Y-105472380D01*
X148192000Y-105472380D01*
X148334857Y-105520000D01*
X148430095Y-105615238D01*
X148477714Y-105710476D01*
X148525333Y-105900952D01*
X148525333Y-106043809D01*
X148477714Y-106234285D01*
X148430095Y-106329523D01*
X148334857Y-106424761D01*
X148192000Y-106472380D01*
X147953904Y-106472380D01*
X149096761Y-105900952D02*
X149001523Y-105853333D01*
X148953904Y-105805714D01*
X148906285Y-105710476D01*
X148906285Y-105662857D01*
X148953904Y-105567619D01*
X149001523Y-105520000D01*
X149096761Y-105472380D01*
X149287238Y-105472380D01*
X149382476Y-105520000D01*
X149430095Y-105567619D01*
X149477714Y-105662857D01*
X149477714Y-105710476D01*
X149430095Y-105805714D01*
X149382476Y-105853333D01*
X149287238Y-105900952D01*
X149096761Y-105900952D01*
X149001523Y-105948571D01*
X148953904Y-105996190D01*
X148906285Y-106091428D01*
X148906285Y-106281904D01*
X148953904Y-106377142D01*
X149001523Y-106424761D01*
X149096761Y-106472380D01*
X149287238Y-106472380D01*
X149382476Y-106424761D01*
X149430095Y-106377142D01*
X149477714Y-106281904D01*
X149477714Y-106091428D01*
X149430095Y-105996190D01*
X149382476Y-105948571D01*
X149287238Y-105900952D01*
X147953904Y-103932380D02*
X147953904Y-102932380D01*
X148192000Y-102932380D01*
X148334857Y-102980000D01*
X148430095Y-103075238D01*
X148477714Y-103170476D01*
X148525333Y-103360952D01*
X148525333Y-103503809D01*
X148477714Y-103694285D01*
X148430095Y-103789523D01*
X148334857Y-103884761D01*
X148192000Y-103932380D01*
X147953904Y-103932380D01*
X148858666Y-102932380D02*
X149525333Y-102932380D01*
X149096761Y-103932380D01*
X147953904Y-101392380D02*
X147953904Y-100392380D01*
X148192000Y-100392380D01*
X148334857Y-100440000D01*
X148430095Y-100535238D01*
X148477714Y-100630476D01*
X148525333Y-100820952D01*
X148525333Y-100963809D01*
X148477714Y-101154285D01*
X148430095Y-101249523D01*
X148334857Y-101344761D01*
X148192000Y-101392380D01*
X147953904Y-101392380D01*
X149382476Y-100392380D02*
X149192000Y-100392380D01*
X149096761Y-100440000D01*
X149049142Y-100487619D01*
X148953904Y-100630476D01*
X148906285Y-100820952D01*
X148906285Y-101201904D01*
X148953904Y-101297142D01*
X149001523Y-101344761D01*
X149096761Y-101392380D01*
X149287238Y-101392380D01*
X149382476Y-101344761D01*
X149430095Y-101297142D01*
X149477714Y-101201904D01*
X149477714Y-100963809D01*
X149430095Y-100868571D01*
X149382476Y-100820952D01*
X149287238Y-100773333D01*
X149096761Y-100773333D01*
X149001523Y-100820952D01*
X148953904Y-100868571D01*
X148906285Y-100963809D01*
X147953904Y-98852380D02*
X147953904Y-97852380D01*
X148192000Y-97852380D01*
X148334857Y-97900000D01*
X148430095Y-97995238D01*
X148477714Y-98090476D01*
X148525333Y-98280952D01*
X148525333Y-98423809D01*
X148477714Y-98614285D01*
X148430095Y-98709523D01*
X148334857Y-98804761D01*
X148192000Y-98852380D01*
X147953904Y-98852380D01*
X149430095Y-97852380D02*
X148953904Y-97852380D01*
X148906285Y-98328571D01*
X148953904Y-98280952D01*
X149049142Y-98233333D01*
X149287238Y-98233333D01*
X149382476Y-98280952D01*
X149430095Y-98328571D01*
X149477714Y-98423809D01*
X149477714Y-98661904D01*
X149430095Y-98757142D01*
X149382476Y-98804761D01*
X149287238Y-98852380D01*
X149049142Y-98852380D01*
X148953904Y-98804761D01*
X148906285Y-98757142D01*
X148953904Y-95360000D02*
X148858666Y-95312380D01*
X148715809Y-95312380D01*
X148572952Y-95360000D01*
X148477714Y-95455238D01*
X148430095Y-95550476D01*
X148382476Y-95740952D01*
X148382476Y-95883809D01*
X148430095Y-96074285D01*
X148477714Y-96169523D01*
X148572952Y-96264761D01*
X148715809Y-96312380D01*
X148811047Y-96312380D01*
X148953904Y-96264761D01*
X149001523Y-96217142D01*
X149001523Y-95883809D01*
X148811047Y-95883809D01*
X147930095Y-92772380D02*
X148549142Y-92772380D01*
X148215809Y-93153333D01*
X148358666Y-93153333D01*
X148453904Y-93200952D01*
X148501523Y-93248571D01*
X148549142Y-93343809D01*
X148549142Y-93581904D01*
X148501523Y-93677142D01*
X148453904Y-93724761D01*
X148358666Y-93772380D01*
X148072952Y-93772380D01*
X147977714Y-93724761D01*
X147930095Y-93677142D01*
X148834857Y-92772380D02*
X149168190Y-93772380D01*
X149501523Y-92772380D01*
X147953904Y-91232380D02*
X147953904Y-90232380D01*
X148192000Y-90232380D01*
X148334857Y-90280000D01*
X148430095Y-90375238D01*
X148477714Y-90470476D01*
X148525333Y-90660952D01*
X148525333Y-90803809D01*
X148477714Y-90994285D01*
X148430095Y-91089523D01*
X148334857Y-91184761D01*
X148192000Y-91232380D01*
X147953904Y-91232380D01*
X149382476Y-90565714D02*
X149382476Y-91232380D01*
X149144380Y-90184761D02*
X148906285Y-90899047D01*
X149525333Y-90899047D01*
X147953904Y-88692380D02*
X147953904Y-87692380D01*
X148192000Y-87692380D01*
X148334857Y-87740000D01*
X148430095Y-87835238D01*
X148477714Y-87930476D01*
X148525333Y-88120952D01*
X148525333Y-88263809D01*
X148477714Y-88454285D01*
X148430095Y-88549523D01*
X148334857Y-88644761D01*
X148192000Y-88692380D01*
X147953904Y-88692380D01*
X148858666Y-87692380D02*
X149477714Y-87692380D01*
X149144380Y-88073333D01*
X149287238Y-88073333D01*
X149382476Y-88120952D01*
X149430095Y-88168571D01*
X149477714Y-88263809D01*
X149477714Y-88501904D01*
X149430095Y-88597142D01*
X149382476Y-88644761D01*
X149287238Y-88692380D01*
X149001523Y-88692380D01*
X148906285Y-88644761D01*
X148858666Y-88597142D01*
X147953904Y-86152380D02*
X147953904Y-85152380D01*
X148192000Y-85152380D01*
X148334857Y-85200000D01*
X148430095Y-85295238D01*
X148477714Y-85390476D01*
X148525333Y-85580952D01*
X148525333Y-85723809D01*
X148477714Y-85914285D01*
X148430095Y-86009523D01*
X148334857Y-86104761D01*
X148192000Y-86152380D01*
X147953904Y-86152380D01*
X148906285Y-85247619D02*
X148953904Y-85200000D01*
X149049142Y-85152380D01*
X149287238Y-85152380D01*
X149382476Y-85200000D01*
X149430095Y-85247619D01*
X149477714Y-85342857D01*
X149477714Y-85438095D01*
X149430095Y-85580952D01*
X148858666Y-86152380D01*
X149477714Y-86152380D01*
X147953904Y-83612380D02*
X147953904Y-82612380D01*
X148192000Y-82612380D01*
X148334857Y-82660000D01*
X148430095Y-82755238D01*
X148477714Y-82850476D01*
X148525333Y-83040952D01*
X148525333Y-83183809D01*
X148477714Y-83374285D01*
X148430095Y-83469523D01*
X148334857Y-83564761D01*
X148192000Y-83612380D01*
X147953904Y-83612380D01*
X149477714Y-83612380D02*
X148906285Y-83612380D01*
X149192000Y-83612380D02*
X149192000Y-82612380D01*
X149096761Y-82755238D01*
X149001523Y-82850476D01*
X148906285Y-82898095D01*
X147953904Y-81072380D02*
X147953904Y-80072380D01*
X148192000Y-80072380D01*
X148334857Y-80120000D01*
X148430095Y-80215238D01*
X148477714Y-80310476D01*
X148525333Y-80500952D01*
X148525333Y-80643809D01*
X148477714Y-80834285D01*
X148430095Y-80929523D01*
X148334857Y-81024761D01*
X148192000Y-81072380D01*
X147953904Y-81072380D01*
X149144380Y-80072380D02*
X149239619Y-80072380D01*
X149334857Y-80120000D01*
X149382476Y-80167619D01*
X149430095Y-80262857D01*
X149477714Y-80453333D01*
X149477714Y-80691428D01*
X149430095Y-80881904D01*
X149382476Y-80977142D01*
X149334857Y-81024761D01*
X149239619Y-81072380D01*
X149144380Y-81072380D01*
X149049142Y-81024761D01*
X149001523Y-80977142D01*
X148953904Y-80881904D01*
X148906285Y-80691428D01*
X148906285Y-80453333D01*
X148953904Y-80262857D01*
X149001523Y-80167619D01*
X149049142Y-80120000D01*
X149144380Y-80072380D01*
G04 #@! TO.C,U3*
X160376095Y-86631980D02*
X160376095Y-87441504D01*
X160423714Y-87536742D01*
X160471333Y-87584361D01*
X160566571Y-87631980D01*
X160757047Y-87631980D01*
X160852285Y-87584361D01*
X160899904Y-87536742D01*
X160947523Y-87441504D01*
X160947523Y-86631980D01*
X161328476Y-86631980D02*
X161947523Y-86631980D01*
X161614190Y-87012933D01*
X161757047Y-87012933D01*
X161852285Y-87060552D01*
X161899904Y-87108171D01*
X161947523Y-87203409D01*
X161947523Y-87441504D01*
X161899904Y-87536742D01*
X161852285Y-87584361D01*
X161757047Y-87631980D01*
X161471333Y-87631980D01*
X161376095Y-87584361D01*
X161328476Y-87536742D01*
G04 #@! TO.C,U4*
X120712380Y-107289904D02*
X121521904Y-107289904D01*
X121617142Y-107242285D01*
X121664761Y-107194666D01*
X121712380Y-107099428D01*
X121712380Y-106908952D01*
X121664761Y-106813714D01*
X121617142Y-106766095D01*
X121521904Y-106718476D01*
X120712380Y-106718476D01*
X121045714Y-105813714D02*
X121712380Y-105813714D01*
X120664761Y-106051809D02*
X121379047Y-106289904D01*
X121379047Y-105670857D01*
G04 #@! TO.C,J3*
X119910506Y-116647980D02*
X119910506Y-117362266D01*
X119862887Y-117505123D01*
X119767649Y-117600361D01*
X119624792Y-117647980D01*
X119529554Y-117647980D01*
X120291459Y-116647980D02*
X120910506Y-116647980D01*
X120577173Y-117028933D01*
X120720030Y-117028933D01*
X120815268Y-117076552D01*
X120862887Y-117124171D01*
X120910506Y-117219409D01*
X120910506Y-117457504D01*
X120862887Y-117552742D01*
X120815268Y-117600361D01*
X120720030Y-117647980D01*
X120434316Y-117647980D01*
X120339078Y-117600361D01*
X120291459Y-117552742D01*
G04 #@! TO.C,J5*
D13*
X119315333Y-82631790D02*
X119315333Y-82988933D01*
X119291523Y-83060361D01*
X119243904Y-83107980D01*
X119172476Y-83131790D01*
X119124857Y-83131790D01*
X119791523Y-82631790D02*
X119553428Y-82631790D01*
X119529619Y-82869885D01*
X119553428Y-82846076D01*
X119601047Y-82822266D01*
X119720095Y-82822266D01*
X119767714Y-82846076D01*
X119791523Y-82869885D01*
X119815333Y-82917504D01*
X119815333Y-83036552D01*
X119791523Y-83084171D01*
X119767714Y-83107980D01*
X119720095Y-83131790D01*
X119601047Y-83131790D01*
X119553428Y-83107980D01*
X119529619Y-83084171D01*
G04 #@! TO.C,J6*
X119315333Y-112096190D02*
X119315333Y-112453333D01*
X119291523Y-112524761D01*
X119243904Y-112572380D01*
X119172476Y-112596190D01*
X119124857Y-112596190D01*
X119767714Y-112096190D02*
X119672476Y-112096190D01*
X119624857Y-112120000D01*
X119601047Y-112143809D01*
X119553428Y-112215238D01*
X119529619Y-112310476D01*
X119529619Y-112500952D01*
X119553428Y-112548571D01*
X119577238Y-112572380D01*
X119624857Y-112596190D01*
X119720095Y-112596190D01*
X119767714Y-112572380D01*
X119791523Y-112548571D01*
X119815333Y-112500952D01*
X119815333Y-112381904D01*
X119791523Y-112334285D01*
X119767714Y-112310476D01*
X119720095Y-112286666D01*
X119624857Y-112286666D01*
X119577238Y-112310476D01*
X119553428Y-112334285D01*
X119529619Y-112381904D01*
G04 #@! TO.C,J7*
X161453933Y-84206590D02*
X161453933Y-84563733D01*
X161430123Y-84635161D01*
X161382504Y-84682780D01*
X161311076Y-84706590D01*
X161263457Y-84706590D01*
X161644409Y-84206590D02*
X161977742Y-84206590D01*
X161763457Y-84706590D01*
G04 #@! TO.C,J8*
X161453933Y-110673790D02*
X161453933Y-111030933D01*
X161430123Y-111102361D01*
X161382504Y-111149980D01*
X161311076Y-111173790D01*
X161263457Y-111173790D01*
X161763457Y-110888076D02*
X161715838Y-110864266D01*
X161692028Y-110840457D01*
X161668219Y-110792838D01*
X161668219Y-110769028D01*
X161692028Y-110721409D01*
X161715838Y-110697600D01*
X161763457Y-110673790D01*
X161858695Y-110673790D01*
X161906314Y-110697600D01*
X161930123Y-110721409D01*
X161953933Y-110769028D01*
X161953933Y-110792838D01*
X161930123Y-110840457D01*
X161906314Y-110864266D01*
X161858695Y-110888076D01*
X161763457Y-110888076D01*
X161715838Y-110911885D01*
X161692028Y-110935695D01*
X161668219Y-110983314D01*
X161668219Y-111078552D01*
X161692028Y-111126171D01*
X161715838Y-111149980D01*
X161763457Y-111173790D01*
X161858695Y-111173790D01*
X161906314Y-111149980D01*
X161930123Y-111126171D01*
X161953933Y-111078552D01*
X161953933Y-110983314D01*
X161930123Y-110935695D01*
X161906314Y-110911885D01*
X161858695Y-110888076D01*
G04 #@! TD*
M02*
