G04 #@! TF.GenerationSoftware,KiCad,Pcbnew,(5.0.1)-4*
G04 #@! TF.CreationDate,2018-12-02T21:27:52-06:00*
G04 #@! TF.ProjectId,ExpansionUSB,457870616E73696F6E5553422E6B6963,rev?*
G04 #@! TF.SameCoordinates,Original*
G04 #@! TF.FileFunction,Copper,L2,Bot,Signal*
G04 #@! TF.FilePolarity,Positive*
%FSLAX46Y46*%
G04 Gerber Fmt 4.6, Leading zero omitted, Abs format (unit mm)*
G04 Created by KiCad (PCBNEW (5.0.1)-4) date 02/12/2018 21:27:52*
%MOMM*%
%LPD*%
G01*
G04 APERTURE LIST*
G04 #@! TA.AperFunction,ComponentPad*
%ADD10O,3.500000X1.900000*%
G04 #@! TD*
G04 #@! TA.AperFunction,ComponentPad*
%ADD11C,1.501140*%
G04 #@! TD*
G04 #@! TA.AperFunction,ComponentPad*
%ADD12C,2.999740*%
G04 #@! TD*
G04 #@! TA.AperFunction,ComponentPad*
%ADD13C,1.524000*%
G04 #@! TD*
G04 #@! TA.AperFunction,ComponentPad*
%ADD14O,1.600000X1.600000*%
G04 #@! TD*
G04 #@! TA.AperFunction,ComponentPad*
%ADD15R,1.600000X1.600000*%
G04 #@! TD*
G04 #@! TA.AperFunction,ComponentPad*
%ADD16C,4.064000*%
G04 #@! TD*
G04 #@! TA.AperFunction,ViaPad*
%ADD17C,1.000000*%
G04 #@! TD*
G04 #@! TA.AperFunction,Conductor*
%ADD18C,0.700000*%
G04 #@! TD*
G04 #@! TA.AperFunction,Conductor*
%ADD19C,0.254000*%
G04 #@! TD*
G04 APERTURE END LIST*
D10*
G04 #@! TO.P,J1,5*
G04 #@! TO.N,Net-(J1-Pad5)*
X117014000Y-79634300D03*
X117014000Y-68234300D03*
G04 #@! TD*
D11*
G04 #@! TO.P,J2,4*
G04 #@! TO.N,GND*
X154817680Y-71277480D03*
G04 #@! TO.P,J2,3*
G04 #@! TO.N,N/C*
X154817680Y-73776840D03*
G04 #@! TO.P,J2,2*
X154817680Y-75778360D03*
G04 #@! TO.P,J2,1*
G04 #@! TO.N,Net-(J2-Pad1)*
X154817680Y-78277720D03*
D12*
G04 #@! TO.P,J2,5*
G04 #@! TO.N,Net-(J1-Pad5)*
X157527860Y-68206620D03*
X157527860Y-81348580D03*
G04 #@! TD*
G04 #@! TO.P,J4,5*
G04 #@! TO.N,Net-(J3-Pad5)*
X157527860Y-128465980D03*
X157527860Y-115324020D03*
D11*
G04 #@! TO.P,J4,1*
G04 #@! TO.N,Net-(J4-Pad1)*
X154817680Y-125395120D03*
G04 #@! TO.P,J4,2*
G04 #@! TO.N,N/C*
X154817680Y-122895760D03*
G04 #@! TO.P,J4,3*
X154817680Y-120894240D03*
G04 #@! TO.P,J4,4*
G04 #@! TO.N,Net-(J3-Pad4)*
X154817680Y-118394880D03*
G04 #@! TD*
D13*
G04 #@! TO.P,U2,1*
G04 #@! TO.N,Net-(U2-Pad1)*
X123292000Y-80620000D03*
G04 #@! TO.P,U2,2*
G04 #@! TO.N,N/C*
X123292000Y-83160000D03*
G04 #@! TO.P,U2,3*
X123292000Y-85700000D03*
G04 #@! TO.P,U2,4*
X123292000Y-88240000D03*
G04 #@! TO.P,U2,5*
X123292000Y-90780000D03*
G04 #@! TO.P,U2,6*
X123292000Y-93320000D03*
G04 #@! TO.P,U2,7*
X123292000Y-95860000D03*
G04 #@! TO.P,U2,8*
X123292000Y-98400000D03*
G04 #@! TO.P,U2,9*
X123292000Y-100940000D03*
G04 #@! TO.P,U2,10*
G04 #@! TO.N,GND*
X123292000Y-103480000D03*
G04 #@! TO.P,U2,11*
G04 #@! TO.N,N/C*
X123292000Y-106020000D03*
G04 #@! TO.P,U2,12*
X123292000Y-108560000D03*
G04 #@! TO.P,U2,13*
X123292000Y-111100000D03*
G04 #@! TO.P,U2,14*
G04 #@! TO.N,GND*
X123292000Y-113640000D03*
G04 #@! TO.P,U2,15*
G04 #@! TO.N,+5V*
X123292000Y-116180000D03*
G04 #@! TO.P,U2,16*
G04 #@! TO.N,N/C*
X151232000Y-116180000D03*
G04 #@! TO.P,U2,17*
G04 #@! TO.N,GND*
X151232000Y-113640000D03*
G04 #@! TO.P,U2,18*
G04 #@! TO.N,N/C*
X151232000Y-111100000D03*
G04 #@! TO.P,U2,19*
X151232000Y-108560000D03*
G04 #@! TO.P,U2,20*
X151232000Y-106020000D03*
G04 #@! TO.P,U2,21*
X151232000Y-103480000D03*
G04 #@! TO.P,U2,22*
X151232000Y-100940000D03*
G04 #@! TO.P,U2,23*
X151232000Y-98400000D03*
G04 #@! TO.P,U2,24*
G04 #@! TO.N,GND*
X151232000Y-95860000D03*
G04 #@! TO.P,U2,25*
G04 #@! TO.N,N/C*
X151232000Y-93320000D03*
G04 #@! TO.P,U2,26*
X151232000Y-90780000D03*
G04 #@! TO.P,U2,27*
X151232000Y-88240000D03*
G04 #@! TO.P,U2,28*
X151232000Y-85700000D03*
G04 #@! TO.P,U2,29*
G04 #@! TO.N,Net-(U2-Pad29)*
X151232000Y-83160000D03*
G04 #@! TO.P,U2,30*
G04 #@! TO.N,Net-(U2-Pad30)*
X151232000Y-80620000D03*
G04 #@! TD*
D14*
G04 #@! TO.P,U3,16*
G04 #@! TO.N,+5V*
X164948000Y-89509600D03*
G04 #@! TO.P,U3,8*
G04 #@! TO.N,GND*
X157328000Y-107289600D03*
G04 #@! TO.P,U3,15*
G04 #@! TO.N,N/C*
X164948000Y-92049600D03*
G04 #@! TO.P,U3,7*
G04 #@! TO.N,GND*
X157328000Y-104749600D03*
G04 #@! TO.P,U3,14*
G04 #@! TO.N,Net-(U3-Pad14)*
X164948000Y-94589600D03*
G04 #@! TO.P,U3,6*
G04 #@! TO.N,GND*
X157328000Y-102209600D03*
G04 #@! TO.P,U3,13*
G04 #@! TO.N,Net-(U1-Pad7)*
X164948000Y-97129600D03*
G04 #@! TO.P,U3,5*
G04 #@! TO.N,N/C*
X157328000Y-99669600D03*
G04 #@! TO.P,U3,12*
X164948000Y-99669600D03*
G04 #@! TO.P,U3,4*
X157328000Y-97129600D03*
G04 #@! TO.P,U3,11*
G04 #@! TO.N,Net-(U2-Pad30)*
X164948000Y-102209600D03*
G04 #@! TO.P,U3,3*
G04 #@! TO.N,Net-(U2-Pad1)*
X157328000Y-94589600D03*
G04 #@! TO.P,U3,10*
G04 #@! TO.N,Net-(U2-Pad29)*
X164948000Y-104749600D03*
G04 #@! TO.P,U3,2*
G04 #@! TO.N,N/C*
X157328000Y-92049600D03*
G04 #@! TO.P,U3,9*
G04 #@! TO.N,GND*
X164948000Y-107289600D03*
D15*
G04 #@! TO.P,U3,1*
G04 #@! TO.N,N/C*
X157328000Y-89509600D03*
G04 #@! TD*
D10*
G04 #@! TO.P,J3,5*
G04 #@! TO.N,Net-(J3-Pad5)*
X116994000Y-128509000D03*
X116994000Y-117109000D03*
G04 #@! TD*
D16*
G04 #@! TO.P,J5,1*
G04 #@! TO.N,N/C*
X116434000Y-83667600D03*
G04 #@! TD*
G04 #@! TO.P,J6,1*
G04 #@! TO.N,N/C*
X116434000Y-113132000D03*
G04 #@! TD*
G04 #@! TO.P,J7,1*
G04 #@! TO.N,N/C*
X164694000Y-85293200D03*
G04 #@! TD*
G04 #@! TO.P,J8,1*
G04 #@! TO.N,N/C*
X164694000Y-111608000D03*
G04 #@! TD*
D17*
G04 #@! TO.N,+5V*
X116815000Y-101929700D03*
G04 #@! TO.N,Net-(C2-Pad2)*
X119377500Y-97408100D03*
X116815000Y-91495900D03*
G04 #@! TO.N,Net-(U1-Pad7)*
X118303400Y-90160400D03*
G04 #@! TO.N,Net-(J2-Pad1)*
X116356900Y-89047000D03*
G04 #@! TO.N,Net-(J4-Pad1)*
X117069000Y-105303400D03*
G04 #@! TO.N,Net-(U3-Pad14)*
X158068600Y-112256300D03*
G04 #@! TO.N,Net-(J3-Pad1)*
X119067500Y-106402200D03*
X121772000Y-122010600D03*
G04 #@! TD*
D18*
G04 #@! TO.N,+5V*
X123292000Y-116180000D02*
X121562400Y-114450400D01*
X121562400Y-114450400D02*
X121562400Y-106132500D01*
X121562400Y-106132500D02*
X117359600Y-101929700D01*
X117359600Y-101929700D02*
X116815000Y-101929700D01*
G04 #@! TO.N,GND*
X157328000Y-102209600D02*
X151232000Y-96113600D01*
X151232000Y-96113600D02*
X151232000Y-95860000D01*
X151232000Y-113640000D02*
X123292000Y-113640000D01*
X157328000Y-108789600D02*
X152477600Y-113640000D01*
X152477600Y-113640000D02*
X151232000Y-113640000D01*
X157328000Y-107289600D02*
X157328000Y-108789600D01*
X164948000Y-107289600D02*
X157328000Y-107289600D01*
G04 #@! TO.N,Net-(C2-Pad2)*
X119377500Y-97408100D02*
X116815000Y-94845600D01*
X116815000Y-94845600D02*
X116815000Y-91495900D01*
G04 #@! TO.N,Net-(J1-Pad5)*
X157527900Y-69134200D02*
X157527900Y-68206600D01*
X157527900Y-81348600D02*
X157527900Y-69134200D01*
X157527900Y-69134200D02*
X119464000Y-69134200D01*
X119464000Y-69134200D02*
X119464000Y-79634300D01*
X118564100Y-68234300D02*
X119464000Y-69134200D01*
X117014000Y-79634300D02*
X119464000Y-79634300D01*
X117014000Y-68234300D02*
X118564100Y-68234300D01*
G04 #@! TO.N,Net-(U1-Pad7)*
X164948000Y-97129600D02*
X158830200Y-91011800D01*
X158830200Y-91011800D02*
X158830200Y-85707200D01*
X158830200Y-85707200D02*
X155112400Y-81989400D01*
X155112400Y-81989400D02*
X155112400Y-81332800D01*
X155112400Y-81332800D02*
X152166400Y-78386800D01*
X152166400Y-78386800D02*
X123644400Y-78386800D01*
X123644400Y-78386800D02*
X120440900Y-81590300D01*
X120440900Y-81590300D02*
X120440900Y-88022900D01*
X120440900Y-88022900D02*
X118303400Y-90160400D01*
G04 #@! TO.N,Net-(J2-Pad1)*
X154817700Y-78277700D02*
X154026400Y-77486400D01*
X154026400Y-77486400D02*
X123271500Y-77486400D01*
X123271500Y-77486400D02*
X119153900Y-81604000D01*
X119153900Y-81604000D02*
X119153900Y-86250000D01*
X119153900Y-86250000D02*
X116356900Y-89047000D01*
G04 #@! TO.N,Net-(J4-Pad1)*
X154817700Y-125395100D02*
X130646000Y-125395100D01*
X130646000Y-125395100D02*
X120556200Y-115305300D01*
X120556200Y-115305300D02*
X120556200Y-106405400D01*
X120556200Y-106405400D02*
X119454200Y-105303400D01*
X119454200Y-105303400D02*
X117069000Y-105303400D01*
G04 #@! TO.N,Net-(U2-Pad1)*
X157328000Y-94589600D02*
X153022200Y-90283800D01*
X153022200Y-90283800D02*
X153022200Y-80535000D01*
X153022200Y-80535000D02*
X151784600Y-79297400D01*
X151784600Y-79297400D02*
X124614600Y-79297400D01*
X124614600Y-79297400D02*
X123292000Y-80620000D01*
G04 #@! TO.N,Net-(U3-Pad14)*
X164948000Y-94589600D02*
X166312500Y-95954100D01*
X166312500Y-95954100D02*
X166312500Y-107881100D01*
X166312500Y-107881100D02*
X165526300Y-108667300D01*
X165526300Y-108667300D02*
X161657600Y-108667300D01*
X161657600Y-108667300D02*
X158068600Y-112256300D01*
G04 #@! TO.N,Net-(J3-Pad1)*
X121772000Y-122010600D02*
X119654500Y-119893100D01*
X119654500Y-119893100D02*
X119654500Y-106989200D01*
X119654500Y-106989200D02*
X119067500Y-106402200D01*
G04 #@! TD*
D19*
G04 #@! TO.N,GND*
G36*
X167603043Y-67541888D02*
X167590457Y-129059140D01*
X167075007Y-129617545D01*
X159360090Y-129621272D01*
X159662730Y-128890632D01*
X159662730Y-128041328D01*
X159337716Y-127256673D01*
X158737167Y-126656124D01*
X157952512Y-126331110D01*
X157103208Y-126331110D01*
X156318553Y-126656124D01*
X155718004Y-127256673D01*
X155392990Y-128041328D01*
X155392990Y-128890632D01*
X155696363Y-129623042D01*
X118944021Y-129640796D01*
X119287036Y-129127436D01*
X119410051Y-128509000D01*
X119287036Y-127890564D01*
X118936721Y-127366279D01*
X118412436Y-127015964D01*
X117950103Y-126924000D01*
X116037897Y-126924000D01*
X115575564Y-127015964D01*
X115051279Y-127366279D01*
X114700964Y-127890564D01*
X114577949Y-128509000D01*
X114700964Y-129127436D01*
X114965001Y-129522597D01*
X114502000Y-129065457D01*
X114502000Y-124873289D01*
X115809000Y-124873289D01*
X115809000Y-125344711D01*
X115989405Y-125780249D01*
X116322751Y-126113595D01*
X116758289Y-126294000D01*
X117229711Y-126294000D01*
X117665249Y-126113595D01*
X117998595Y-125780249D01*
X118179000Y-125344711D01*
X118179000Y-124873289D01*
X117998595Y-124437751D01*
X117665249Y-124104405D01*
X117229711Y-123924000D01*
X116758289Y-123924000D01*
X116322751Y-124104405D01*
X115989405Y-124437751D01*
X115809000Y-124873289D01*
X114502000Y-124873289D01*
X114502000Y-120273289D01*
X115809000Y-120273289D01*
X115809000Y-120744711D01*
X115989405Y-121180249D01*
X116322751Y-121513595D01*
X116758289Y-121694000D01*
X117229711Y-121694000D01*
X117665249Y-121513595D01*
X117998595Y-121180249D01*
X118179000Y-120744711D01*
X118179000Y-120273289D01*
X117998595Y-119837751D01*
X117665249Y-119504405D01*
X117229711Y-119324000D01*
X116758289Y-119324000D01*
X116322751Y-119504405D01*
X115989405Y-119837751D01*
X115809000Y-120273289D01*
X114502000Y-120273289D01*
X114502000Y-114971708D01*
X114923266Y-115392974D01*
X115531957Y-115645101D01*
X115051279Y-115966279D01*
X114700964Y-116490564D01*
X114577949Y-117109000D01*
X114700964Y-117727436D01*
X115051279Y-118251721D01*
X115575564Y-118602036D01*
X116037897Y-118694000D01*
X117950103Y-118694000D01*
X118412436Y-118602036D01*
X118669500Y-118430272D01*
X118669500Y-119796092D01*
X118650204Y-119893100D01*
X118669500Y-119990108D01*
X118669500Y-119990111D01*
X118726651Y-120277427D01*
X118944355Y-120603245D01*
X119026598Y-120658198D01*
X120659793Y-122291393D01*
X120809793Y-122653526D01*
X121129074Y-122972807D01*
X121546234Y-123145600D01*
X121997766Y-123145600D01*
X122414926Y-122972807D01*
X122734207Y-122653526D01*
X122907000Y-122236366D01*
X122907000Y-121784834D01*
X122734207Y-121367674D01*
X122414926Y-121048393D01*
X122052793Y-120898393D01*
X120639500Y-119485100D01*
X120639500Y-116781600D01*
X129880904Y-126023005D01*
X129935855Y-126105245D01*
X130018095Y-126160196D01*
X130018097Y-126160198D01*
X130218347Y-126294000D01*
X130261672Y-126322949D01*
X130548988Y-126380100D01*
X130548991Y-126380100D01*
X130645999Y-126399396D01*
X130743007Y-126380100D01*
X153843168Y-126380100D01*
X154032818Y-126569750D01*
X154542073Y-126780690D01*
X155093287Y-126780690D01*
X155602542Y-126569750D01*
X155992310Y-126179982D01*
X156203250Y-125670727D01*
X156203250Y-125119513D01*
X155992310Y-124610258D01*
X155602542Y-124220490D01*
X155421355Y-124145440D01*
X155602542Y-124070390D01*
X155992310Y-123680622D01*
X156203250Y-123171367D01*
X156203250Y-122620153D01*
X155992310Y-122110898D01*
X155776412Y-121895000D01*
X155992310Y-121679102D01*
X156203250Y-121169847D01*
X156203250Y-120618633D01*
X155992310Y-120109378D01*
X155602542Y-119719610D01*
X155421355Y-119644560D01*
X155602542Y-119569510D01*
X155992310Y-119179742D01*
X156203250Y-118670487D01*
X156203250Y-118119273D01*
X155992310Y-117610018D01*
X155602542Y-117220250D01*
X155093287Y-117009310D01*
X154542073Y-117009310D01*
X154032818Y-117220250D01*
X153643050Y-117610018D01*
X153432110Y-118119273D01*
X153432110Y-118670487D01*
X153643050Y-119179742D01*
X154032818Y-119569510D01*
X154214005Y-119644560D01*
X154032818Y-119719610D01*
X153643050Y-120109378D01*
X153432110Y-120618633D01*
X153432110Y-121169847D01*
X153643050Y-121679102D01*
X153858948Y-121895000D01*
X153643050Y-122110898D01*
X153432110Y-122620153D01*
X153432110Y-123171367D01*
X153643050Y-123680622D01*
X154032818Y-124070390D01*
X154214005Y-124145440D01*
X154032818Y-124220490D01*
X153843208Y-124410100D01*
X131054001Y-124410100D01*
X124030221Y-117386321D01*
X124083337Y-117364320D01*
X124476320Y-116971337D01*
X124689000Y-116457881D01*
X124689000Y-115902119D01*
X149835000Y-115902119D01*
X149835000Y-116457881D01*
X150047680Y-116971337D01*
X150440663Y-117364320D01*
X150954119Y-117577000D01*
X151509881Y-117577000D01*
X152023337Y-117364320D01*
X152416320Y-116971337D01*
X152629000Y-116457881D01*
X152629000Y-115902119D01*
X152416320Y-115388663D01*
X152023337Y-114995680D01*
X151832353Y-114916572D01*
X151963143Y-114862397D01*
X152032608Y-114620213D01*
X151232000Y-113819605D01*
X150431392Y-114620213D01*
X150500857Y-114862397D01*
X150641393Y-114912535D01*
X150440663Y-114995680D01*
X150047680Y-115388663D01*
X149835000Y-115902119D01*
X124689000Y-115902119D01*
X124476320Y-115388663D01*
X124083337Y-114995680D01*
X123892353Y-114916572D01*
X124023143Y-114862397D01*
X124092608Y-114620213D01*
X123292000Y-113819605D01*
X123277858Y-113833748D01*
X123098253Y-113654143D01*
X123112395Y-113640000D01*
X123471605Y-113640000D01*
X124272213Y-114440608D01*
X124514397Y-114371143D01*
X124701144Y-113847698D01*
X124680353Y-113432302D01*
X149822856Y-113432302D01*
X149850638Y-113987368D01*
X150009603Y-114371143D01*
X150251787Y-114440608D01*
X151052395Y-113640000D01*
X151411605Y-113640000D01*
X152212213Y-114440608D01*
X152454397Y-114371143D01*
X152641144Y-113847698D01*
X152613362Y-113292632D01*
X152454397Y-112908857D01*
X152212213Y-112839392D01*
X151411605Y-113640000D01*
X151052395Y-113640000D01*
X150251787Y-112839392D01*
X150009603Y-112908857D01*
X149822856Y-113432302D01*
X124680353Y-113432302D01*
X124673362Y-113292632D01*
X124514397Y-112908857D01*
X124272213Y-112839392D01*
X123471605Y-113640000D01*
X123112395Y-113640000D01*
X123098253Y-113625858D01*
X123277858Y-113446253D01*
X123292000Y-113460395D01*
X124092608Y-112659787D01*
X124023143Y-112417603D01*
X123882607Y-112367465D01*
X124083337Y-112284320D01*
X124476320Y-111891337D01*
X124689000Y-111377881D01*
X124689000Y-110822119D01*
X124476320Y-110308663D01*
X124083337Y-109915680D01*
X123876487Y-109830000D01*
X124083337Y-109744320D01*
X124476320Y-109351337D01*
X124689000Y-108837881D01*
X124689000Y-108282119D01*
X124476320Y-107768663D01*
X124083337Y-107375680D01*
X123876487Y-107290000D01*
X124083337Y-107204320D01*
X124476320Y-106811337D01*
X124689000Y-106297881D01*
X124689000Y-105742119D01*
X124476320Y-105228663D01*
X124083337Y-104835680D01*
X123892353Y-104756572D01*
X124023143Y-104702397D01*
X124092608Y-104460213D01*
X123292000Y-103659605D01*
X122491392Y-104460213D01*
X122560857Y-104702397D01*
X122701393Y-104752535D01*
X122500663Y-104835680D01*
X122107680Y-105228663D01*
X122091244Y-105268343D01*
X120095203Y-103272302D01*
X121882856Y-103272302D01*
X121910638Y-103827368D01*
X122069603Y-104211143D01*
X122311787Y-104280608D01*
X123112395Y-103480000D01*
X123471605Y-103480000D01*
X124272213Y-104280608D01*
X124514397Y-104211143D01*
X124701144Y-103687698D01*
X124673362Y-103132632D01*
X124514397Y-102748857D01*
X124272213Y-102679392D01*
X123471605Y-103480000D01*
X123112395Y-103480000D01*
X122311787Y-102679392D01*
X122069603Y-102748857D01*
X121882856Y-103272302D01*
X120095203Y-103272302D01*
X118124698Y-101301798D01*
X118069745Y-101219555D01*
X117743928Y-101001851D01*
X117456612Y-100944700D01*
X117456608Y-100944700D01*
X117359600Y-100925404D01*
X117357380Y-100925846D01*
X117040766Y-100794700D01*
X116589234Y-100794700D01*
X116172074Y-100967493D01*
X115852793Y-101286774D01*
X115680000Y-101703934D01*
X115680000Y-102155466D01*
X115852793Y-102572626D01*
X116172074Y-102891907D01*
X116589234Y-103064700D01*
X117040766Y-103064700D01*
X117083782Y-103046882D01*
X118355300Y-104318400D01*
X117656899Y-104318400D01*
X117294766Y-104168400D01*
X116843234Y-104168400D01*
X116426074Y-104341193D01*
X116106793Y-104660474D01*
X115934000Y-105077634D01*
X115934000Y-105529166D01*
X116106793Y-105946326D01*
X116426074Y-106265607D01*
X116843234Y-106438400D01*
X117294766Y-106438400D01*
X117656899Y-106288400D01*
X117932500Y-106288400D01*
X117932500Y-106627966D01*
X118105293Y-107045126D01*
X118424574Y-107364407D01*
X118669501Y-107465859D01*
X118669501Y-111595793D01*
X117944734Y-110871026D01*
X116964499Y-110465000D01*
X115903501Y-110465000D01*
X114923266Y-110871026D01*
X114502000Y-111292292D01*
X114502000Y-85507308D01*
X114923266Y-85928574D01*
X115903501Y-86334600D01*
X116964499Y-86334600D01*
X117944734Y-85928574D01*
X118168901Y-85704407D01*
X118168901Y-85841999D01*
X116076107Y-87934793D01*
X115713974Y-88084793D01*
X115394693Y-88404074D01*
X115221900Y-88821234D01*
X115221900Y-89272766D01*
X115394693Y-89689926D01*
X115713974Y-90009207D01*
X116131134Y-90182000D01*
X116582666Y-90182000D01*
X116999826Y-90009207D01*
X117234869Y-89774164D01*
X117168400Y-89934634D01*
X117168400Y-90386166D01*
X117182201Y-90419484D01*
X117040766Y-90360900D01*
X116589234Y-90360900D01*
X116172074Y-90533693D01*
X115852793Y-90852974D01*
X115680000Y-91270134D01*
X115680000Y-91721666D01*
X115830001Y-92083801D01*
X115830000Y-94748592D01*
X115810704Y-94845600D01*
X115830000Y-94942608D01*
X115830000Y-94942611D01*
X115887151Y-95229927D01*
X116104855Y-95555745D01*
X116187098Y-95610698D01*
X118265293Y-97688893D01*
X118415293Y-98051026D01*
X118734574Y-98370307D01*
X119151734Y-98543100D01*
X119603266Y-98543100D01*
X120020426Y-98370307D01*
X120339707Y-98051026D01*
X120512500Y-97633866D01*
X120512500Y-97182334D01*
X120339707Y-96765174D01*
X120020426Y-96445893D01*
X119658293Y-96295893D01*
X117800000Y-94437600D01*
X117800000Y-92083799D01*
X117950000Y-91721666D01*
X117950000Y-91270134D01*
X117936199Y-91236816D01*
X118077634Y-91295400D01*
X118529166Y-91295400D01*
X118946326Y-91122607D01*
X119265607Y-90803326D01*
X119415607Y-90441193D01*
X121068802Y-88787998D01*
X121151045Y-88733045D01*
X121368749Y-88407228D01*
X121425900Y-88119912D01*
X121425900Y-88119908D01*
X121445196Y-88022901D01*
X121425900Y-87925894D01*
X121425900Y-81998300D01*
X122079909Y-81344291D01*
X122107680Y-81411337D01*
X122500663Y-81804320D01*
X122707513Y-81890000D01*
X122500663Y-81975680D01*
X122107680Y-82368663D01*
X121895000Y-82882119D01*
X121895000Y-83437881D01*
X122107680Y-83951337D01*
X122500663Y-84344320D01*
X122707513Y-84430000D01*
X122500663Y-84515680D01*
X122107680Y-84908663D01*
X121895000Y-85422119D01*
X121895000Y-85977881D01*
X122107680Y-86491337D01*
X122500663Y-86884320D01*
X122707513Y-86970000D01*
X122500663Y-87055680D01*
X122107680Y-87448663D01*
X121895000Y-87962119D01*
X121895000Y-88517881D01*
X122107680Y-89031337D01*
X122500663Y-89424320D01*
X122707513Y-89510000D01*
X122500663Y-89595680D01*
X122107680Y-89988663D01*
X121895000Y-90502119D01*
X121895000Y-91057881D01*
X122107680Y-91571337D01*
X122500663Y-91964320D01*
X122707513Y-92050000D01*
X122500663Y-92135680D01*
X122107680Y-92528663D01*
X121895000Y-93042119D01*
X121895000Y-93597881D01*
X122107680Y-94111337D01*
X122500663Y-94504320D01*
X122707513Y-94590000D01*
X122500663Y-94675680D01*
X122107680Y-95068663D01*
X121895000Y-95582119D01*
X121895000Y-96137881D01*
X122107680Y-96651337D01*
X122500663Y-97044320D01*
X122707513Y-97130000D01*
X122500663Y-97215680D01*
X122107680Y-97608663D01*
X121895000Y-98122119D01*
X121895000Y-98677881D01*
X122107680Y-99191337D01*
X122500663Y-99584320D01*
X122707513Y-99670000D01*
X122500663Y-99755680D01*
X122107680Y-100148663D01*
X121895000Y-100662119D01*
X121895000Y-101217881D01*
X122107680Y-101731337D01*
X122500663Y-102124320D01*
X122691647Y-102203428D01*
X122560857Y-102257603D01*
X122491392Y-102499787D01*
X123292000Y-103300395D01*
X124092608Y-102499787D01*
X124023143Y-102257603D01*
X123882607Y-102207465D01*
X124083337Y-102124320D01*
X124476320Y-101731337D01*
X124689000Y-101217881D01*
X124689000Y-100662119D01*
X124476320Y-100148663D01*
X124083337Y-99755680D01*
X123876487Y-99670000D01*
X124083337Y-99584320D01*
X124476320Y-99191337D01*
X124689000Y-98677881D01*
X124689000Y-98122119D01*
X149835000Y-98122119D01*
X149835000Y-98677881D01*
X150047680Y-99191337D01*
X150440663Y-99584320D01*
X150647513Y-99670000D01*
X150440663Y-99755680D01*
X150047680Y-100148663D01*
X149835000Y-100662119D01*
X149835000Y-101217881D01*
X150047680Y-101731337D01*
X150440663Y-102124320D01*
X150647513Y-102210000D01*
X150440663Y-102295680D01*
X150047680Y-102688663D01*
X149835000Y-103202119D01*
X149835000Y-103757881D01*
X150047680Y-104271337D01*
X150440663Y-104664320D01*
X150647513Y-104750000D01*
X150440663Y-104835680D01*
X150047680Y-105228663D01*
X149835000Y-105742119D01*
X149835000Y-106297881D01*
X150047680Y-106811337D01*
X150440663Y-107204320D01*
X150647513Y-107290000D01*
X150440663Y-107375680D01*
X150047680Y-107768663D01*
X149835000Y-108282119D01*
X149835000Y-108837881D01*
X150047680Y-109351337D01*
X150440663Y-109744320D01*
X150647513Y-109830000D01*
X150440663Y-109915680D01*
X150047680Y-110308663D01*
X149835000Y-110822119D01*
X149835000Y-111377881D01*
X150047680Y-111891337D01*
X150440663Y-112284320D01*
X150631647Y-112363428D01*
X150500857Y-112417603D01*
X150431392Y-112659787D01*
X151232000Y-113460395D01*
X152032608Y-112659787D01*
X151963143Y-112417603D01*
X151822607Y-112367465D01*
X152023337Y-112284320D01*
X152416320Y-111891337D01*
X152629000Y-111377881D01*
X152629000Y-110822119D01*
X152416320Y-110308663D01*
X152023337Y-109915680D01*
X151816487Y-109830000D01*
X152023337Y-109744320D01*
X152416320Y-109351337D01*
X152629000Y-108837881D01*
X152629000Y-108282119D01*
X152416320Y-107768663D01*
X152286296Y-107638639D01*
X155936096Y-107638639D01*
X156096959Y-108027023D01*
X156472866Y-108441989D01*
X156978959Y-108681514D01*
X157201000Y-108560229D01*
X157201000Y-107416600D01*
X157455000Y-107416600D01*
X157455000Y-108560229D01*
X157677041Y-108681514D01*
X158183134Y-108441989D01*
X158559041Y-108027023D01*
X158719904Y-107638639D01*
X158597915Y-107416600D01*
X157455000Y-107416600D01*
X157201000Y-107416600D01*
X156058085Y-107416600D01*
X155936096Y-107638639D01*
X152286296Y-107638639D01*
X152023337Y-107375680D01*
X151816487Y-107290000D01*
X152023337Y-107204320D01*
X152416320Y-106811337D01*
X152629000Y-106297881D01*
X152629000Y-105742119D01*
X152416320Y-105228663D01*
X152286296Y-105098639D01*
X155936096Y-105098639D01*
X156096959Y-105487023D01*
X156472866Y-105901989D01*
X156721367Y-106019600D01*
X156472866Y-106137211D01*
X156096959Y-106552177D01*
X155936096Y-106940561D01*
X156058085Y-107162600D01*
X157201000Y-107162600D01*
X157201000Y-104876600D01*
X157455000Y-104876600D01*
X157455000Y-107162600D01*
X158597915Y-107162600D01*
X158719904Y-106940561D01*
X158559041Y-106552177D01*
X158183134Y-106137211D01*
X157934633Y-106019600D01*
X158183134Y-105901989D01*
X158559041Y-105487023D01*
X158719904Y-105098639D01*
X158597915Y-104876600D01*
X157455000Y-104876600D01*
X157201000Y-104876600D01*
X156058085Y-104876600D01*
X155936096Y-105098639D01*
X152286296Y-105098639D01*
X152023337Y-104835680D01*
X151816487Y-104750000D01*
X152023337Y-104664320D01*
X152416320Y-104271337D01*
X152629000Y-103757881D01*
X152629000Y-103202119D01*
X152416320Y-102688663D01*
X152286296Y-102558639D01*
X155936096Y-102558639D01*
X156096959Y-102947023D01*
X156472866Y-103361989D01*
X156721367Y-103479600D01*
X156472866Y-103597211D01*
X156096959Y-104012177D01*
X155936096Y-104400561D01*
X156058085Y-104622600D01*
X157201000Y-104622600D01*
X157201000Y-102336600D01*
X157455000Y-102336600D01*
X157455000Y-104622600D01*
X158597915Y-104622600D01*
X158719904Y-104400561D01*
X158559041Y-104012177D01*
X158183134Y-103597211D01*
X157934633Y-103479600D01*
X158183134Y-103361989D01*
X158559041Y-102947023D01*
X158719904Y-102558639D01*
X158597915Y-102336600D01*
X157455000Y-102336600D01*
X157201000Y-102336600D01*
X156058085Y-102336600D01*
X155936096Y-102558639D01*
X152286296Y-102558639D01*
X152023337Y-102295680D01*
X151816487Y-102210000D01*
X152023337Y-102124320D01*
X152416320Y-101731337D01*
X152629000Y-101217881D01*
X152629000Y-100662119D01*
X152416320Y-100148663D01*
X152023337Y-99755680D01*
X151816487Y-99670000D01*
X152023337Y-99584320D01*
X152416320Y-99191337D01*
X152629000Y-98677881D01*
X152629000Y-98122119D01*
X152416320Y-97608663D01*
X152023337Y-97215680D01*
X151832353Y-97136572D01*
X151963143Y-97082397D01*
X152032608Y-96840213D01*
X151232000Y-96039605D01*
X150431392Y-96840213D01*
X150500857Y-97082397D01*
X150641393Y-97132535D01*
X150440663Y-97215680D01*
X150047680Y-97608663D01*
X149835000Y-98122119D01*
X124689000Y-98122119D01*
X124476320Y-97608663D01*
X124083337Y-97215680D01*
X123876487Y-97130000D01*
X124083337Y-97044320D01*
X124476320Y-96651337D01*
X124689000Y-96137881D01*
X124689000Y-95652302D01*
X149822856Y-95652302D01*
X149850638Y-96207368D01*
X150009603Y-96591143D01*
X150251787Y-96660608D01*
X151052395Y-95860000D01*
X151411605Y-95860000D01*
X152212213Y-96660608D01*
X152454397Y-96591143D01*
X152641144Y-96067698D01*
X152613362Y-95512632D01*
X152454397Y-95128857D01*
X152212213Y-95059392D01*
X151411605Y-95860000D01*
X151052395Y-95860000D01*
X150251787Y-95059392D01*
X150009603Y-95128857D01*
X149822856Y-95652302D01*
X124689000Y-95652302D01*
X124689000Y-95582119D01*
X124476320Y-95068663D01*
X124083337Y-94675680D01*
X123876487Y-94590000D01*
X124083337Y-94504320D01*
X124476320Y-94111337D01*
X124689000Y-93597881D01*
X124689000Y-93042119D01*
X124476320Y-92528663D01*
X124083337Y-92135680D01*
X123876487Y-92050000D01*
X124083337Y-91964320D01*
X124476320Y-91571337D01*
X124689000Y-91057881D01*
X124689000Y-90502119D01*
X124476320Y-89988663D01*
X124083337Y-89595680D01*
X123876487Y-89510000D01*
X124083337Y-89424320D01*
X124476320Y-89031337D01*
X124689000Y-88517881D01*
X124689000Y-87962119D01*
X124476320Y-87448663D01*
X124083337Y-87055680D01*
X123876487Y-86970000D01*
X124083337Y-86884320D01*
X124476320Y-86491337D01*
X124689000Y-85977881D01*
X124689000Y-85422119D01*
X124476320Y-84908663D01*
X124083337Y-84515680D01*
X123876487Y-84430000D01*
X124083337Y-84344320D01*
X124476320Y-83951337D01*
X124689000Y-83437881D01*
X124689000Y-82882119D01*
X124476320Y-82368663D01*
X124083337Y-81975680D01*
X123876487Y-81890000D01*
X124083337Y-81804320D01*
X124476320Y-81411337D01*
X124689000Y-80897881D01*
X124689000Y-80616001D01*
X125022601Y-80282400D01*
X149859736Y-80282400D01*
X149835000Y-80342119D01*
X149835000Y-80897881D01*
X150047680Y-81411337D01*
X150440663Y-81804320D01*
X150647513Y-81890000D01*
X150440663Y-81975680D01*
X150047680Y-82368663D01*
X149835000Y-82882119D01*
X149835000Y-83437881D01*
X150047680Y-83951337D01*
X150440663Y-84344320D01*
X150647513Y-84430000D01*
X150440663Y-84515680D01*
X150047680Y-84908663D01*
X149835000Y-85422119D01*
X149835000Y-85977881D01*
X150047680Y-86491337D01*
X150440663Y-86884320D01*
X150647513Y-86970000D01*
X150440663Y-87055680D01*
X150047680Y-87448663D01*
X149835000Y-87962119D01*
X149835000Y-88517881D01*
X150047680Y-89031337D01*
X150440663Y-89424320D01*
X150647513Y-89510000D01*
X150440663Y-89595680D01*
X150047680Y-89988663D01*
X149835000Y-90502119D01*
X149835000Y-91057881D01*
X150047680Y-91571337D01*
X150440663Y-91964320D01*
X150647513Y-92050000D01*
X150440663Y-92135680D01*
X150047680Y-92528663D01*
X149835000Y-93042119D01*
X149835000Y-93597881D01*
X150047680Y-94111337D01*
X150440663Y-94504320D01*
X150631647Y-94583428D01*
X150500857Y-94637603D01*
X150431392Y-94879787D01*
X151232000Y-95680395D01*
X152032608Y-94879787D01*
X151963143Y-94637603D01*
X151822607Y-94587465D01*
X152023337Y-94504320D01*
X152416320Y-94111337D01*
X152629000Y-93597881D01*
X152629000Y-93042119D01*
X152416320Y-92528663D01*
X152023337Y-92135680D01*
X151816487Y-92050000D01*
X152023337Y-91964320D01*
X152416320Y-91571337D01*
X152562889Y-91217489D01*
X155876519Y-94531120D01*
X155864887Y-94589600D01*
X155976260Y-95149509D01*
X156293423Y-95624177D01*
X156645758Y-95859600D01*
X156293423Y-96095023D01*
X155976260Y-96569691D01*
X155864887Y-97129600D01*
X155976260Y-97689509D01*
X156293423Y-98164177D01*
X156645758Y-98399600D01*
X156293423Y-98635023D01*
X155976260Y-99109691D01*
X155864887Y-99669600D01*
X155976260Y-100229509D01*
X156293423Y-100704177D01*
X156677108Y-100960547D01*
X156472866Y-101057211D01*
X156096959Y-101472177D01*
X155936096Y-101860561D01*
X156058085Y-102082600D01*
X157201000Y-102082600D01*
X157201000Y-102062600D01*
X157455000Y-102062600D01*
X157455000Y-102082600D01*
X158597915Y-102082600D01*
X158719904Y-101860561D01*
X158559041Y-101472177D01*
X158183134Y-101057211D01*
X157978892Y-100960547D01*
X158362577Y-100704177D01*
X158679740Y-100229509D01*
X158791113Y-99669600D01*
X158679740Y-99109691D01*
X158362577Y-98635023D01*
X158010242Y-98399600D01*
X158362577Y-98164177D01*
X158679740Y-97689509D01*
X158791113Y-97129600D01*
X158679740Y-96569691D01*
X158362577Y-96095023D01*
X158010242Y-95859600D01*
X158362577Y-95624177D01*
X158679740Y-95149509D01*
X158791113Y-94589600D01*
X158679740Y-94029691D01*
X158362577Y-93555023D01*
X158010242Y-93319600D01*
X158362577Y-93084177D01*
X158679740Y-92609509D01*
X158738666Y-92313266D01*
X163496519Y-97071120D01*
X163484887Y-97129600D01*
X163596260Y-97689509D01*
X163913423Y-98164177D01*
X164265758Y-98399600D01*
X163913423Y-98635023D01*
X163596260Y-99109691D01*
X163484887Y-99669600D01*
X163596260Y-100229509D01*
X163913423Y-100704177D01*
X164265758Y-100939600D01*
X163913423Y-101175023D01*
X163596260Y-101649691D01*
X163484887Y-102209600D01*
X163596260Y-102769509D01*
X163913423Y-103244177D01*
X164265758Y-103479600D01*
X163913423Y-103715023D01*
X163596260Y-104189691D01*
X163484887Y-104749600D01*
X163596260Y-105309509D01*
X163913423Y-105784177D01*
X164297108Y-106040547D01*
X164092866Y-106137211D01*
X163716959Y-106552177D01*
X163556096Y-106940561D01*
X163678085Y-107162600D01*
X164821000Y-107162600D01*
X164821000Y-107142600D01*
X165075000Y-107142600D01*
X165075000Y-107162600D01*
X165095000Y-107162600D01*
X165095000Y-107416600D01*
X165075000Y-107416600D01*
X165075000Y-107436600D01*
X164821000Y-107436600D01*
X164821000Y-107416600D01*
X163678085Y-107416600D01*
X163556096Y-107638639D01*
X163574180Y-107682300D01*
X161754606Y-107682300D01*
X161657599Y-107663004D01*
X161560592Y-107682300D01*
X161560588Y-107682300D01*
X161273272Y-107739451D01*
X160947455Y-107957155D01*
X160892502Y-108039398D01*
X157787807Y-111144093D01*
X157425674Y-111294093D01*
X157106393Y-111613374D01*
X156933600Y-112030534D01*
X156933600Y-112482066D01*
X157106393Y-112899226D01*
X157396317Y-113189150D01*
X157103208Y-113189150D01*
X156318553Y-113514164D01*
X155718004Y-114114713D01*
X155392990Y-114899368D01*
X155392990Y-115748672D01*
X155718004Y-116533327D01*
X156318553Y-117133876D01*
X157103208Y-117458890D01*
X157952512Y-117458890D01*
X158737167Y-117133876D01*
X159337716Y-116533327D01*
X159662730Y-115748672D01*
X159662730Y-114899368D01*
X159337716Y-114114713D01*
X158737167Y-113514164D01*
X158367456Y-113361025D01*
X158711526Y-113218507D01*
X159030807Y-112899226D01*
X159180807Y-112537093D01*
X162065600Y-109652300D01*
X162877992Y-109652300D01*
X162433026Y-110097266D01*
X162027000Y-111077501D01*
X162027000Y-112138499D01*
X162433026Y-113118734D01*
X163183266Y-113868974D01*
X164163501Y-114275000D01*
X165224499Y-114275000D01*
X166204734Y-113868974D01*
X166954974Y-113118734D01*
X167361000Y-112138499D01*
X167361000Y-111077501D01*
X166954974Y-110097266D01*
X166235671Y-109377963D01*
X166236445Y-109377445D01*
X166291398Y-109295202D01*
X166940404Y-108646196D01*
X167022645Y-108591245D01*
X167077596Y-108509005D01*
X167077598Y-108509003D01*
X167240349Y-108265428D01*
X167285309Y-108039398D01*
X167297500Y-107978112D01*
X167297500Y-107978108D01*
X167316796Y-107881100D01*
X167297500Y-107784092D01*
X167297500Y-96051106D01*
X167316796Y-95954099D01*
X167297500Y-95857092D01*
X167297500Y-95857088D01*
X167240349Y-95569772D01*
X167022645Y-95243955D01*
X166940402Y-95189002D01*
X166399480Y-94648080D01*
X166411113Y-94589600D01*
X166299740Y-94029691D01*
X165982577Y-93555023D01*
X165630242Y-93319600D01*
X165982577Y-93084177D01*
X166299740Y-92609509D01*
X166411113Y-92049600D01*
X166299740Y-91489691D01*
X165982577Y-91015023D01*
X165630242Y-90779600D01*
X165982577Y-90544177D01*
X166299740Y-90069509D01*
X166411113Y-89509600D01*
X166299740Y-88949691D01*
X165982577Y-88475023D01*
X165507909Y-88157860D01*
X165089333Y-88074600D01*
X164806667Y-88074600D01*
X164388091Y-88157860D01*
X163913423Y-88475023D01*
X163596260Y-88949691D01*
X163484887Y-89509600D01*
X163596260Y-90069509D01*
X163913423Y-90544177D01*
X164265758Y-90779600D01*
X163913423Y-91015023D01*
X163596260Y-91489691D01*
X163484887Y-92049600D01*
X163596260Y-92609509D01*
X163913423Y-93084177D01*
X164265758Y-93319600D01*
X163913423Y-93555023D01*
X163596260Y-94029691D01*
X163537334Y-94325933D01*
X159815200Y-90603800D01*
X159815200Y-85804207D01*
X159834496Y-85707199D01*
X159815200Y-85610191D01*
X159815200Y-85610188D01*
X159758049Y-85322872D01*
X159540345Y-84997055D01*
X159458102Y-84942102D01*
X159278701Y-84762701D01*
X162027000Y-84762701D01*
X162027000Y-85823699D01*
X162433026Y-86803934D01*
X163183266Y-87554174D01*
X164163501Y-87960200D01*
X165224499Y-87960200D01*
X166204734Y-87554174D01*
X166954974Y-86803934D01*
X167361000Y-85823699D01*
X167361000Y-84762701D01*
X166954974Y-83782466D01*
X166204734Y-83032226D01*
X165224499Y-82626200D01*
X164163501Y-82626200D01*
X163183266Y-83032226D01*
X162433026Y-83782466D01*
X162027000Y-84762701D01*
X159278701Y-84762701D01*
X157985702Y-83469702D01*
X158737167Y-83158436D01*
X159337716Y-82557887D01*
X159662730Y-81773232D01*
X159662730Y-80923928D01*
X159337716Y-80139273D01*
X158737167Y-79538724D01*
X158512900Y-79445830D01*
X158512900Y-70109370D01*
X158737167Y-70016476D01*
X159337716Y-69415927D01*
X159662730Y-68631272D01*
X159662730Y-67781968D01*
X159351007Y-67029400D01*
X167054965Y-67029400D01*
X167603043Y-67541888D01*
X167603043Y-67541888D01*
G37*
X167603043Y-67541888D02*
X167590457Y-129059140D01*
X167075007Y-129617545D01*
X159360090Y-129621272D01*
X159662730Y-128890632D01*
X159662730Y-128041328D01*
X159337716Y-127256673D01*
X158737167Y-126656124D01*
X157952512Y-126331110D01*
X157103208Y-126331110D01*
X156318553Y-126656124D01*
X155718004Y-127256673D01*
X155392990Y-128041328D01*
X155392990Y-128890632D01*
X155696363Y-129623042D01*
X118944021Y-129640796D01*
X119287036Y-129127436D01*
X119410051Y-128509000D01*
X119287036Y-127890564D01*
X118936721Y-127366279D01*
X118412436Y-127015964D01*
X117950103Y-126924000D01*
X116037897Y-126924000D01*
X115575564Y-127015964D01*
X115051279Y-127366279D01*
X114700964Y-127890564D01*
X114577949Y-128509000D01*
X114700964Y-129127436D01*
X114965001Y-129522597D01*
X114502000Y-129065457D01*
X114502000Y-124873289D01*
X115809000Y-124873289D01*
X115809000Y-125344711D01*
X115989405Y-125780249D01*
X116322751Y-126113595D01*
X116758289Y-126294000D01*
X117229711Y-126294000D01*
X117665249Y-126113595D01*
X117998595Y-125780249D01*
X118179000Y-125344711D01*
X118179000Y-124873289D01*
X117998595Y-124437751D01*
X117665249Y-124104405D01*
X117229711Y-123924000D01*
X116758289Y-123924000D01*
X116322751Y-124104405D01*
X115989405Y-124437751D01*
X115809000Y-124873289D01*
X114502000Y-124873289D01*
X114502000Y-120273289D01*
X115809000Y-120273289D01*
X115809000Y-120744711D01*
X115989405Y-121180249D01*
X116322751Y-121513595D01*
X116758289Y-121694000D01*
X117229711Y-121694000D01*
X117665249Y-121513595D01*
X117998595Y-121180249D01*
X118179000Y-120744711D01*
X118179000Y-120273289D01*
X117998595Y-119837751D01*
X117665249Y-119504405D01*
X117229711Y-119324000D01*
X116758289Y-119324000D01*
X116322751Y-119504405D01*
X115989405Y-119837751D01*
X115809000Y-120273289D01*
X114502000Y-120273289D01*
X114502000Y-114971708D01*
X114923266Y-115392974D01*
X115531957Y-115645101D01*
X115051279Y-115966279D01*
X114700964Y-116490564D01*
X114577949Y-117109000D01*
X114700964Y-117727436D01*
X115051279Y-118251721D01*
X115575564Y-118602036D01*
X116037897Y-118694000D01*
X117950103Y-118694000D01*
X118412436Y-118602036D01*
X118669500Y-118430272D01*
X118669500Y-119796092D01*
X118650204Y-119893100D01*
X118669500Y-119990108D01*
X118669500Y-119990111D01*
X118726651Y-120277427D01*
X118944355Y-120603245D01*
X119026598Y-120658198D01*
X120659793Y-122291393D01*
X120809793Y-122653526D01*
X121129074Y-122972807D01*
X121546234Y-123145600D01*
X121997766Y-123145600D01*
X122414926Y-122972807D01*
X122734207Y-122653526D01*
X122907000Y-122236366D01*
X122907000Y-121784834D01*
X122734207Y-121367674D01*
X122414926Y-121048393D01*
X122052793Y-120898393D01*
X120639500Y-119485100D01*
X120639500Y-116781600D01*
X129880904Y-126023005D01*
X129935855Y-126105245D01*
X130018095Y-126160196D01*
X130018097Y-126160198D01*
X130218347Y-126294000D01*
X130261672Y-126322949D01*
X130548988Y-126380100D01*
X130548991Y-126380100D01*
X130645999Y-126399396D01*
X130743007Y-126380100D01*
X153843168Y-126380100D01*
X154032818Y-126569750D01*
X154542073Y-126780690D01*
X155093287Y-126780690D01*
X155602542Y-126569750D01*
X155992310Y-126179982D01*
X156203250Y-125670727D01*
X156203250Y-125119513D01*
X155992310Y-124610258D01*
X155602542Y-124220490D01*
X155421355Y-124145440D01*
X155602542Y-124070390D01*
X155992310Y-123680622D01*
X156203250Y-123171367D01*
X156203250Y-122620153D01*
X155992310Y-122110898D01*
X155776412Y-121895000D01*
X155992310Y-121679102D01*
X156203250Y-121169847D01*
X156203250Y-120618633D01*
X155992310Y-120109378D01*
X155602542Y-119719610D01*
X155421355Y-119644560D01*
X155602542Y-119569510D01*
X155992310Y-119179742D01*
X156203250Y-118670487D01*
X156203250Y-118119273D01*
X155992310Y-117610018D01*
X155602542Y-117220250D01*
X155093287Y-117009310D01*
X154542073Y-117009310D01*
X154032818Y-117220250D01*
X153643050Y-117610018D01*
X153432110Y-118119273D01*
X153432110Y-118670487D01*
X153643050Y-119179742D01*
X154032818Y-119569510D01*
X154214005Y-119644560D01*
X154032818Y-119719610D01*
X153643050Y-120109378D01*
X153432110Y-120618633D01*
X153432110Y-121169847D01*
X153643050Y-121679102D01*
X153858948Y-121895000D01*
X153643050Y-122110898D01*
X153432110Y-122620153D01*
X153432110Y-123171367D01*
X153643050Y-123680622D01*
X154032818Y-124070390D01*
X154214005Y-124145440D01*
X154032818Y-124220490D01*
X153843208Y-124410100D01*
X131054001Y-124410100D01*
X124030221Y-117386321D01*
X124083337Y-117364320D01*
X124476320Y-116971337D01*
X124689000Y-116457881D01*
X124689000Y-115902119D01*
X149835000Y-115902119D01*
X149835000Y-116457881D01*
X150047680Y-116971337D01*
X150440663Y-117364320D01*
X150954119Y-117577000D01*
X151509881Y-117577000D01*
X152023337Y-117364320D01*
X152416320Y-116971337D01*
X152629000Y-116457881D01*
X152629000Y-115902119D01*
X152416320Y-115388663D01*
X152023337Y-114995680D01*
X151832353Y-114916572D01*
X151963143Y-114862397D01*
X152032608Y-114620213D01*
X151232000Y-113819605D01*
X150431392Y-114620213D01*
X150500857Y-114862397D01*
X150641393Y-114912535D01*
X150440663Y-114995680D01*
X150047680Y-115388663D01*
X149835000Y-115902119D01*
X124689000Y-115902119D01*
X124476320Y-115388663D01*
X124083337Y-114995680D01*
X123892353Y-114916572D01*
X124023143Y-114862397D01*
X124092608Y-114620213D01*
X123292000Y-113819605D01*
X123277858Y-113833748D01*
X123098253Y-113654143D01*
X123112395Y-113640000D01*
X123471605Y-113640000D01*
X124272213Y-114440608D01*
X124514397Y-114371143D01*
X124701144Y-113847698D01*
X124680353Y-113432302D01*
X149822856Y-113432302D01*
X149850638Y-113987368D01*
X150009603Y-114371143D01*
X150251787Y-114440608D01*
X151052395Y-113640000D01*
X151411605Y-113640000D01*
X152212213Y-114440608D01*
X152454397Y-114371143D01*
X152641144Y-113847698D01*
X152613362Y-113292632D01*
X152454397Y-112908857D01*
X152212213Y-112839392D01*
X151411605Y-113640000D01*
X151052395Y-113640000D01*
X150251787Y-112839392D01*
X150009603Y-112908857D01*
X149822856Y-113432302D01*
X124680353Y-113432302D01*
X124673362Y-113292632D01*
X124514397Y-112908857D01*
X124272213Y-112839392D01*
X123471605Y-113640000D01*
X123112395Y-113640000D01*
X123098253Y-113625858D01*
X123277858Y-113446253D01*
X123292000Y-113460395D01*
X124092608Y-112659787D01*
X124023143Y-112417603D01*
X123882607Y-112367465D01*
X124083337Y-112284320D01*
X124476320Y-111891337D01*
X124689000Y-111377881D01*
X124689000Y-110822119D01*
X124476320Y-110308663D01*
X124083337Y-109915680D01*
X123876487Y-109830000D01*
X124083337Y-109744320D01*
X124476320Y-109351337D01*
X124689000Y-108837881D01*
X124689000Y-108282119D01*
X124476320Y-107768663D01*
X124083337Y-107375680D01*
X123876487Y-107290000D01*
X124083337Y-107204320D01*
X124476320Y-106811337D01*
X124689000Y-106297881D01*
X124689000Y-105742119D01*
X124476320Y-105228663D01*
X124083337Y-104835680D01*
X123892353Y-104756572D01*
X124023143Y-104702397D01*
X124092608Y-104460213D01*
X123292000Y-103659605D01*
X122491392Y-104460213D01*
X122560857Y-104702397D01*
X122701393Y-104752535D01*
X122500663Y-104835680D01*
X122107680Y-105228663D01*
X122091244Y-105268343D01*
X120095203Y-103272302D01*
X121882856Y-103272302D01*
X121910638Y-103827368D01*
X122069603Y-104211143D01*
X122311787Y-104280608D01*
X123112395Y-103480000D01*
X123471605Y-103480000D01*
X124272213Y-104280608D01*
X124514397Y-104211143D01*
X124701144Y-103687698D01*
X124673362Y-103132632D01*
X124514397Y-102748857D01*
X124272213Y-102679392D01*
X123471605Y-103480000D01*
X123112395Y-103480000D01*
X122311787Y-102679392D01*
X122069603Y-102748857D01*
X121882856Y-103272302D01*
X120095203Y-103272302D01*
X118124698Y-101301798D01*
X118069745Y-101219555D01*
X117743928Y-101001851D01*
X117456612Y-100944700D01*
X117456608Y-100944700D01*
X117359600Y-100925404D01*
X117357380Y-100925846D01*
X117040766Y-100794700D01*
X116589234Y-100794700D01*
X116172074Y-100967493D01*
X115852793Y-101286774D01*
X115680000Y-101703934D01*
X115680000Y-102155466D01*
X115852793Y-102572626D01*
X116172074Y-102891907D01*
X116589234Y-103064700D01*
X117040766Y-103064700D01*
X117083782Y-103046882D01*
X118355300Y-104318400D01*
X117656899Y-104318400D01*
X117294766Y-104168400D01*
X116843234Y-104168400D01*
X116426074Y-104341193D01*
X116106793Y-104660474D01*
X115934000Y-105077634D01*
X115934000Y-105529166D01*
X116106793Y-105946326D01*
X116426074Y-106265607D01*
X116843234Y-106438400D01*
X117294766Y-106438400D01*
X117656899Y-106288400D01*
X117932500Y-106288400D01*
X117932500Y-106627966D01*
X118105293Y-107045126D01*
X118424574Y-107364407D01*
X118669501Y-107465859D01*
X118669501Y-111595793D01*
X117944734Y-110871026D01*
X116964499Y-110465000D01*
X115903501Y-110465000D01*
X114923266Y-110871026D01*
X114502000Y-111292292D01*
X114502000Y-85507308D01*
X114923266Y-85928574D01*
X115903501Y-86334600D01*
X116964499Y-86334600D01*
X117944734Y-85928574D01*
X118168901Y-85704407D01*
X118168901Y-85841999D01*
X116076107Y-87934793D01*
X115713974Y-88084793D01*
X115394693Y-88404074D01*
X115221900Y-88821234D01*
X115221900Y-89272766D01*
X115394693Y-89689926D01*
X115713974Y-90009207D01*
X116131134Y-90182000D01*
X116582666Y-90182000D01*
X116999826Y-90009207D01*
X117234869Y-89774164D01*
X117168400Y-89934634D01*
X117168400Y-90386166D01*
X117182201Y-90419484D01*
X117040766Y-90360900D01*
X116589234Y-90360900D01*
X116172074Y-90533693D01*
X115852793Y-90852974D01*
X115680000Y-91270134D01*
X115680000Y-91721666D01*
X115830001Y-92083801D01*
X115830000Y-94748592D01*
X115810704Y-94845600D01*
X115830000Y-94942608D01*
X115830000Y-94942611D01*
X115887151Y-95229927D01*
X116104855Y-95555745D01*
X116187098Y-95610698D01*
X118265293Y-97688893D01*
X118415293Y-98051026D01*
X118734574Y-98370307D01*
X119151734Y-98543100D01*
X119603266Y-98543100D01*
X120020426Y-98370307D01*
X120339707Y-98051026D01*
X120512500Y-97633866D01*
X120512500Y-97182334D01*
X120339707Y-96765174D01*
X120020426Y-96445893D01*
X119658293Y-96295893D01*
X117800000Y-94437600D01*
X117800000Y-92083799D01*
X117950000Y-91721666D01*
X117950000Y-91270134D01*
X117936199Y-91236816D01*
X118077634Y-91295400D01*
X118529166Y-91295400D01*
X118946326Y-91122607D01*
X119265607Y-90803326D01*
X119415607Y-90441193D01*
X121068802Y-88787998D01*
X121151045Y-88733045D01*
X121368749Y-88407228D01*
X121425900Y-88119912D01*
X121425900Y-88119908D01*
X121445196Y-88022901D01*
X121425900Y-87925894D01*
X121425900Y-81998300D01*
X122079909Y-81344291D01*
X122107680Y-81411337D01*
X122500663Y-81804320D01*
X122707513Y-81890000D01*
X122500663Y-81975680D01*
X122107680Y-82368663D01*
X121895000Y-82882119D01*
X121895000Y-83437881D01*
X122107680Y-83951337D01*
X122500663Y-84344320D01*
X122707513Y-84430000D01*
X122500663Y-84515680D01*
X122107680Y-84908663D01*
X121895000Y-85422119D01*
X121895000Y-85977881D01*
X122107680Y-86491337D01*
X122500663Y-86884320D01*
X122707513Y-86970000D01*
X122500663Y-87055680D01*
X122107680Y-87448663D01*
X121895000Y-87962119D01*
X121895000Y-88517881D01*
X122107680Y-89031337D01*
X122500663Y-89424320D01*
X122707513Y-89510000D01*
X122500663Y-89595680D01*
X122107680Y-89988663D01*
X121895000Y-90502119D01*
X121895000Y-91057881D01*
X122107680Y-91571337D01*
X122500663Y-91964320D01*
X122707513Y-92050000D01*
X122500663Y-92135680D01*
X122107680Y-92528663D01*
X121895000Y-93042119D01*
X121895000Y-93597881D01*
X122107680Y-94111337D01*
X122500663Y-94504320D01*
X122707513Y-94590000D01*
X122500663Y-94675680D01*
X122107680Y-95068663D01*
X121895000Y-95582119D01*
X121895000Y-96137881D01*
X122107680Y-96651337D01*
X122500663Y-97044320D01*
X122707513Y-97130000D01*
X122500663Y-97215680D01*
X122107680Y-97608663D01*
X121895000Y-98122119D01*
X121895000Y-98677881D01*
X122107680Y-99191337D01*
X122500663Y-99584320D01*
X122707513Y-99670000D01*
X122500663Y-99755680D01*
X122107680Y-100148663D01*
X121895000Y-100662119D01*
X121895000Y-101217881D01*
X122107680Y-101731337D01*
X122500663Y-102124320D01*
X122691647Y-102203428D01*
X122560857Y-102257603D01*
X122491392Y-102499787D01*
X123292000Y-103300395D01*
X124092608Y-102499787D01*
X124023143Y-102257603D01*
X123882607Y-102207465D01*
X124083337Y-102124320D01*
X124476320Y-101731337D01*
X124689000Y-101217881D01*
X124689000Y-100662119D01*
X124476320Y-100148663D01*
X124083337Y-99755680D01*
X123876487Y-99670000D01*
X124083337Y-99584320D01*
X124476320Y-99191337D01*
X124689000Y-98677881D01*
X124689000Y-98122119D01*
X149835000Y-98122119D01*
X149835000Y-98677881D01*
X150047680Y-99191337D01*
X150440663Y-99584320D01*
X150647513Y-99670000D01*
X150440663Y-99755680D01*
X150047680Y-100148663D01*
X149835000Y-100662119D01*
X149835000Y-101217881D01*
X150047680Y-101731337D01*
X150440663Y-102124320D01*
X150647513Y-102210000D01*
X150440663Y-102295680D01*
X150047680Y-102688663D01*
X149835000Y-103202119D01*
X149835000Y-103757881D01*
X150047680Y-104271337D01*
X150440663Y-104664320D01*
X150647513Y-104750000D01*
X150440663Y-104835680D01*
X150047680Y-105228663D01*
X149835000Y-105742119D01*
X149835000Y-106297881D01*
X150047680Y-106811337D01*
X150440663Y-107204320D01*
X150647513Y-107290000D01*
X150440663Y-107375680D01*
X150047680Y-107768663D01*
X149835000Y-108282119D01*
X149835000Y-108837881D01*
X150047680Y-109351337D01*
X150440663Y-109744320D01*
X150647513Y-109830000D01*
X150440663Y-109915680D01*
X150047680Y-110308663D01*
X149835000Y-110822119D01*
X149835000Y-111377881D01*
X150047680Y-111891337D01*
X150440663Y-112284320D01*
X150631647Y-112363428D01*
X150500857Y-112417603D01*
X150431392Y-112659787D01*
X151232000Y-113460395D01*
X152032608Y-112659787D01*
X151963143Y-112417603D01*
X151822607Y-112367465D01*
X152023337Y-112284320D01*
X152416320Y-111891337D01*
X152629000Y-111377881D01*
X152629000Y-110822119D01*
X152416320Y-110308663D01*
X152023337Y-109915680D01*
X151816487Y-109830000D01*
X152023337Y-109744320D01*
X152416320Y-109351337D01*
X152629000Y-108837881D01*
X152629000Y-108282119D01*
X152416320Y-107768663D01*
X152286296Y-107638639D01*
X155936096Y-107638639D01*
X156096959Y-108027023D01*
X156472866Y-108441989D01*
X156978959Y-108681514D01*
X157201000Y-108560229D01*
X157201000Y-107416600D01*
X157455000Y-107416600D01*
X157455000Y-108560229D01*
X157677041Y-108681514D01*
X158183134Y-108441989D01*
X158559041Y-108027023D01*
X158719904Y-107638639D01*
X158597915Y-107416600D01*
X157455000Y-107416600D01*
X157201000Y-107416600D01*
X156058085Y-107416600D01*
X155936096Y-107638639D01*
X152286296Y-107638639D01*
X152023337Y-107375680D01*
X151816487Y-107290000D01*
X152023337Y-107204320D01*
X152416320Y-106811337D01*
X152629000Y-106297881D01*
X152629000Y-105742119D01*
X152416320Y-105228663D01*
X152286296Y-105098639D01*
X155936096Y-105098639D01*
X156096959Y-105487023D01*
X156472866Y-105901989D01*
X156721367Y-106019600D01*
X156472866Y-106137211D01*
X156096959Y-106552177D01*
X155936096Y-106940561D01*
X156058085Y-107162600D01*
X157201000Y-107162600D01*
X157201000Y-104876600D01*
X157455000Y-104876600D01*
X157455000Y-107162600D01*
X158597915Y-107162600D01*
X158719904Y-106940561D01*
X158559041Y-106552177D01*
X158183134Y-106137211D01*
X157934633Y-106019600D01*
X158183134Y-105901989D01*
X158559041Y-105487023D01*
X158719904Y-105098639D01*
X158597915Y-104876600D01*
X157455000Y-104876600D01*
X157201000Y-104876600D01*
X156058085Y-104876600D01*
X155936096Y-105098639D01*
X152286296Y-105098639D01*
X152023337Y-104835680D01*
X151816487Y-104750000D01*
X152023337Y-104664320D01*
X152416320Y-104271337D01*
X152629000Y-103757881D01*
X152629000Y-103202119D01*
X152416320Y-102688663D01*
X152286296Y-102558639D01*
X155936096Y-102558639D01*
X156096959Y-102947023D01*
X156472866Y-103361989D01*
X156721367Y-103479600D01*
X156472866Y-103597211D01*
X156096959Y-104012177D01*
X155936096Y-104400561D01*
X156058085Y-104622600D01*
X157201000Y-104622600D01*
X157201000Y-102336600D01*
X157455000Y-102336600D01*
X157455000Y-104622600D01*
X158597915Y-104622600D01*
X158719904Y-104400561D01*
X158559041Y-104012177D01*
X158183134Y-103597211D01*
X157934633Y-103479600D01*
X158183134Y-103361989D01*
X158559041Y-102947023D01*
X158719904Y-102558639D01*
X158597915Y-102336600D01*
X157455000Y-102336600D01*
X157201000Y-102336600D01*
X156058085Y-102336600D01*
X155936096Y-102558639D01*
X152286296Y-102558639D01*
X152023337Y-102295680D01*
X151816487Y-102210000D01*
X152023337Y-102124320D01*
X152416320Y-101731337D01*
X152629000Y-101217881D01*
X152629000Y-100662119D01*
X152416320Y-100148663D01*
X152023337Y-99755680D01*
X151816487Y-99670000D01*
X152023337Y-99584320D01*
X152416320Y-99191337D01*
X152629000Y-98677881D01*
X152629000Y-98122119D01*
X152416320Y-97608663D01*
X152023337Y-97215680D01*
X151832353Y-97136572D01*
X151963143Y-97082397D01*
X152032608Y-96840213D01*
X151232000Y-96039605D01*
X150431392Y-96840213D01*
X150500857Y-97082397D01*
X150641393Y-97132535D01*
X150440663Y-97215680D01*
X150047680Y-97608663D01*
X149835000Y-98122119D01*
X124689000Y-98122119D01*
X124476320Y-97608663D01*
X124083337Y-97215680D01*
X123876487Y-97130000D01*
X124083337Y-97044320D01*
X124476320Y-96651337D01*
X124689000Y-96137881D01*
X124689000Y-95652302D01*
X149822856Y-95652302D01*
X149850638Y-96207368D01*
X150009603Y-96591143D01*
X150251787Y-96660608D01*
X151052395Y-95860000D01*
X151411605Y-95860000D01*
X152212213Y-96660608D01*
X152454397Y-96591143D01*
X152641144Y-96067698D01*
X152613362Y-95512632D01*
X152454397Y-95128857D01*
X152212213Y-95059392D01*
X151411605Y-95860000D01*
X151052395Y-95860000D01*
X150251787Y-95059392D01*
X150009603Y-95128857D01*
X149822856Y-95652302D01*
X124689000Y-95652302D01*
X124689000Y-95582119D01*
X124476320Y-95068663D01*
X124083337Y-94675680D01*
X123876487Y-94590000D01*
X124083337Y-94504320D01*
X124476320Y-94111337D01*
X124689000Y-93597881D01*
X124689000Y-93042119D01*
X124476320Y-92528663D01*
X124083337Y-92135680D01*
X123876487Y-92050000D01*
X124083337Y-91964320D01*
X124476320Y-91571337D01*
X124689000Y-91057881D01*
X124689000Y-90502119D01*
X124476320Y-89988663D01*
X124083337Y-89595680D01*
X123876487Y-89510000D01*
X124083337Y-89424320D01*
X124476320Y-89031337D01*
X124689000Y-88517881D01*
X124689000Y-87962119D01*
X124476320Y-87448663D01*
X124083337Y-87055680D01*
X123876487Y-86970000D01*
X124083337Y-86884320D01*
X124476320Y-86491337D01*
X124689000Y-85977881D01*
X124689000Y-85422119D01*
X124476320Y-84908663D01*
X124083337Y-84515680D01*
X123876487Y-84430000D01*
X124083337Y-84344320D01*
X124476320Y-83951337D01*
X124689000Y-83437881D01*
X124689000Y-82882119D01*
X124476320Y-82368663D01*
X124083337Y-81975680D01*
X123876487Y-81890000D01*
X124083337Y-81804320D01*
X124476320Y-81411337D01*
X124689000Y-80897881D01*
X124689000Y-80616001D01*
X125022601Y-80282400D01*
X149859736Y-80282400D01*
X149835000Y-80342119D01*
X149835000Y-80897881D01*
X150047680Y-81411337D01*
X150440663Y-81804320D01*
X150647513Y-81890000D01*
X150440663Y-81975680D01*
X150047680Y-82368663D01*
X149835000Y-82882119D01*
X149835000Y-83437881D01*
X150047680Y-83951337D01*
X150440663Y-84344320D01*
X150647513Y-84430000D01*
X150440663Y-84515680D01*
X150047680Y-84908663D01*
X149835000Y-85422119D01*
X149835000Y-85977881D01*
X150047680Y-86491337D01*
X150440663Y-86884320D01*
X150647513Y-86970000D01*
X150440663Y-87055680D01*
X150047680Y-87448663D01*
X149835000Y-87962119D01*
X149835000Y-88517881D01*
X150047680Y-89031337D01*
X150440663Y-89424320D01*
X150647513Y-89510000D01*
X150440663Y-89595680D01*
X150047680Y-89988663D01*
X149835000Y-90502119D01*
X149835000Y-91057881D01*
X150047680Y-91571337D01*
X150440663Y-91964320D01*
X150647513Y-92050000D01*
X150440663Y-92135680D01*
X150047680Y-92528663D01*
X149835000Y-93042119D01*
X149835000Y-93597881D01*
X150047680Y-94111337D01*
X150440663Y-94504320D01*
X150631647Y-94583428D01*
X150500857Y-94637603D01*
X150431392Y-94879787D01*
X151232000Y-95680395D01*
X152032608Y-94879787D01*
X151963143Y-94637603D01*
X151822607Y-94587465D01*
X152023337Y-94504320D01*
X152416320Y-94111337D01*
X152629000Y-93597881D01*
X152629000Y-93042119D01*
X152416320Y-92528663D01*
X152023337Y-92135680D01*
X151816487Y-92050000D01*
X152023337Y-91964320D01*
X152416320Y-91571337D01*
X152562889Y-91217489D01*
X155876519Y-94531120D01*
X155864887Y-94589600D01*
X155976260Y-95149509D01*
X156293423Y-95624177D01*
X156645758Y-95859600D01*
X156293423Y-96095023D01*
X155976260Y-96569691D01*
X155864887Y-97129600D01*
X155976260Y-97689509D01*
X156293423Y-98164177D01*
X156645758Y-98399600D01*
X156293423Y-98635023D01*
X155976260Y-99109691D01*
X155864887Y-99669600D01*
X155976260Y-100229509D01*
X156293423Y-100704177D01*
X156677108Y-100960547D01*
X156472866Y-101057211D01*
X156096959Y-101472177D01*
X155936096Y-101860561D01*
X156058085Y-102082600D01*
X157201000Y-102082600D01*
X157201000Y-102062600D01*
X157455000Y-102062600D01*
X157455000Y-102082600D01*
X158597915Y-102082600D01*
X158719904Y-101860561D01*
X158559041Y-101472177D01*
X158183134Y-101057211D01*
X157978892Y-100960547D01*
X158362577Y-100704177D01*
X158679740Y-100229509D01*
X158791113Y-99669600D01*
X158679740Y-99109691D01*
X158362577Y-98635023D01*
X158010242Y-98399600D01*
X158362577Y-98164177D01*
X158679740Y-97689509D01*
X158791113Y-97129600D01*
X158679740Y-96569691D01*
X158362577Y-96095023D01*
X158010242Y-95859600D01*
X158362577Y-95624177D01*
X158679740Y-95149509D01*
X158791113Y-94589600D01*
X158679740Y-94029691D01*
X158362577Y-93555023D01*
X158010242Y-93319600D01*
X158362577Y-93084177D01*
X158679740Y-92609509D01*
X158738666Y-92313266D01*
X163496519Y-97071120D01*
X163484887Y-97129600D01*
X163596260Y-97689509D01*
X163913423Y-98164177D01*
X164265758Y-98399600D01*
X163913423Y-98635023D01*
X163596260Y-99109691D01*
X163484887Y-99669600D01*
X163596260Y-100229509D01*
X163913423Y-100704177D01*
X164265758Y-100939600D01*
X163913423Y-101175023D01*
X163596260Y-101649691D01*
X163484887Y-102209600D01*
X163596260Y-102769509D01*
X163913423Y-103244177D01*
X164265758Y-103479600D01*
X163913423Y-103715023D01*
X163596260Y-104189691D01*
X163484887Y-104749600D01*
X163596260Y-105309509D01*
X163913423Y-105784177D01*
X164297108Y-106040547D01*
X164092866Y-106137211D01*
X163716959Y-106552177D01*
X163556096Y-106940561D01*
X163678085Y-107162600D01*
X164821000Y-107162600D01*
X164821000Y-107142600D01*
X165075000Y-107142600D01*
X165075000Y-107162600D01*
X165095000Y-107162600D01*
X165095000Y-107416600D01*
X165075000Y-107416600D01*
X165075000Y-107436600D01*
X164821000Y-107436600D01*
X164821000Y-107416600D01*
X163678085Y-107416600D01*
X163556096Y-107638639D01*
X163574180Y-107682300D01*
X161754606Y-107682300D01*
X161657599Y-107663004D01*
X161560592Y-107682300D01*
X161560588Y-107682300D01*
X161273272Y-107739451D01*
X160947455Y-107957155D01*
X160892502Y-108039398D01*
X157787807Y-111144093D01*
X157425674Y-111294093D01*
X157106393Y-111613374D01*
X156933600Y-112030534D01*
X156933600Y-112482066D01*
X157106393Y-112899226D01*
X157396317Y-113189150D01*
X157103208Y-113189150D01*
X156318553Y-113514164D01*
X155718004Y-114114713D01*
X155392990Y-114899368D01*
X155392990Y-115748672D01*
X155718004Y-116533327D01*
X156318553Y-117133876D01*
X157103208Y-117458890D01*
X157952512Y-117458890D01*
X158737167Y-117133876D01*
X159337716Y-116533327D01*
X159662730Y-115748672D01*
X159662730Y-114899368D01*
X159337716Y-114114713D01*
X158737167Y-113514164D01*
X158367456Y-113361025D01*
X158711526Y-113218507D01*
X159030807Y-112899226D01*
X159180807Y-112537093D01*
X162065600Y-109652300D01*
X162877992Y-109652300D01*
X162433026Y-110097266D01*
X162027000Y-111077501D01*
X162027000Y-112138499D01*
X162433026Y-113118734D01*
X163183266Y-113868974D01*
X164163501Y-114275000D01*
X165224499Y-114275000D01*
X166204734Y-113868974D01*
X166954974Y-113118734D01*
X167361000Y-112138499D01*
X167361000Y-111077501D01*
X166954974Y-110097266D01*
X166235671Y-109377963D01*
X166236445Y-109377445D01*
X166291398Y-109295202D01*
X166940404Y-108646196D01*
X167022645Y-108591245D01*
X167077596Y-108509005D01*
X167077598Y-108509003D01*
X167240349Y-108265428D01*
X167285309Y-108039398D01*
X167297500Y-107978112D01*
X167297500Y-107978108D01*
X167316796Y-107881100D01*
X167297500Y-107784092D01*
X167297500Y-96051106D01*
X167316796Y-95954099D01*
X167297500Y-95857092D01*
X167297500Y-95857088D01*
X167240349Y-95569772D01*
X167022645Y-95243955D01*
X166940402Y-95189002D01*
X166399480Y-94648080D01*
X166411113Y-94589600D01*
X166299740Y-94029691D01*
X165982577Y-93555023D01*
X165630242Y-93319600D01*
X165982577Y-93084177D01*
X166299740Y-92609509D01*
X166411113Y-92049600D01*
X166299740Y-91489691D01*
X165982577Y-91015023D01*
X165630242Y-90779600D01*
X165982577Y-90544177D01*
X166299740Y-90069509D01*
X166411113Y-89509600D01*
X166299740Y-88949691D01*
X165982577Y-88475023D01*
X165507909Y-88157860D01*
X165089333Y-88074600D01*
X164806667Y-88074600D01*
X164388091Y-88157860D01*
X163913423Y-88475023D01*
X163596260Y-88949691D01*
X163484887Y-89509600D01*
X163596260Y-90069509D01*
X163913423Y-90544177D01*
X164265758Y-90779600D01*
X163913423Y-91015023D01*
X163596260Y-91489691D01*
X163484887Y-92049600D01*
X163596260Y-92609509D01*
X163913423Y-93084177D01*
X164265758Y-93319600D01*
X163913423Y-93555023D01*
X163596260Y-94029691D01*
X163537334Y-94325933D01*
X159815200Y-90603800D01*
X159815200Y-85804207D01*
X159834496Y-85707199D01*
X159815200Y-85610191D01*
X159815200Y-85610188D01*
X159758049Y-85322872D01*
X159540345Y-84997055D01*
X159458102Y-84942102D01*
X159278701Y-84762701D01*
X162027000Y-84762701D01*
X162027000Y-85823699D01*
X162433026Y-86803934D01*
X163183266Y-87554174D01*
X164163501Y-87960200D01*
X165224499Y-87960200D01*
X166204734Y-87554174D01*
X166954974Y-86803934D01*
X167361000Y-85823699D01*
X167361000Y-84762701D01*
X166954974Y-83782466D01*
X166204734Y-83032226D01*
X165224499Y-82626200D01*
X164163501Y-82626200D01*
X163183266Y-83032226D01*
X162433026Y-83782466D01*
X162027000Y-84762701D01*
X159278701Y-84762701D01*
X157985702Y-83469702D01*
X158737167Y-83158436D01*
X159337716Y-82557887D01*
X159662730Y-81773232D01*
X159662730Y-80923928D01*
X159337716Y-80139273D01*
X158737167Y-79538724D01*
X158512900Y-79445830D01*
X158512900Y-70109370D01*
X158737167Y-70016476D01*
X159337716Y-69415927D01*
X159662730Y-68631272D01*
X159662730Y-67781968D01*
X159351007Y-67029400D01*
X167054965Y-67029400D01*
X167603043Y-67541888D01*
G36*
X154025355Y-70305550D02*
X154817680Y-71097875D01*
X155610005Y-70305550D01*
X155557379Y-70119200D01*
X156542901Y-70119200D01*
X156542900Y-79445797D01*
X156318553Y-79538724D01*
X155718004Y-80139273D01*
X155599051Y-80426451D01*
X154835890Y-79663290D01*
X155093287Y-79663290D01*
X155602542Y-79452350D01*
X155992310Y-79062582D01*
X156203250Y-78553327D01*
X156203250Y-78002113D01*
X155992310Y-77492858D01*
X155602542Y-77103090D01*
X155421355Y-77028040D01*
X155602542Y-76952990D01*
X155992310Y-76563222D01*
X156203250Y-76053967D01*
X156203250Y-75502753D01*
X155992310Y-74993498D01*
X155776412Y-74777600D01*
X155992310Y-74561702D01*
X156203250Y-74052447D01*
X156203250Y-73501233D01*
X155992310Y-72991978D01*
X155602542Y-72602210D01*
X155437290Y-72533761D01*
X155541945Y-72490411D01*
X155610005Y-72249410D01*
X154817680Y-71457085D01*
X154025355Y-72249410D01*
X154093415Y-72490411D01*
X154205990Y-72530480D01*
X154032818Y-72602210D01*
X153643050Y-72991978D01*
X153432110Y-73501233D01*
X153432110Y-74052447D01*
X153643050Y-74561702D01*
X153858948Y-74777600D01*
X153643050Y-74993498D01*
X153432110Y-75502753D01*
X153432110Y-76053967D01*
X153617443Y-76501400D01*
X123368508Y-76501400D01*
X123271500Y-76482104D01*
X123174492Y-76501400D01*
X123174488Y-76501400D01*
X122887172Y-76558551D01*
X122643597Y-76721302D01*
X122643595Y-76721304D01*
X122561355Y-76776255D01*
X122506404Y-76858495D01*
X120449000Y-78915900D01*
X120449000Y-71072514D01*
X153419913Y-71072514D01*
X153447875Y-71623018D01*
X153604749Y-72001745D01*
X153845750Y-72069805D01*
X154638075Y-71277480D01*
X154997285Y-71277480D01*
X155789610Y-72069805D01*
X156030611Y-72001745D01*
X156215447Y-71482446D01*
X156187485Y-70931942D01*
X156030611Y-70553215D01*
X155789610Y-70485155D01*
X154997285Y-71277480D01*
X154638075Y-71277480D01*
X153845750Y-70485155D01*
X153604749Y-70553215D01*
X153419913Y-71072514D01*
X120449000Y-71072514D01*
X120449000Y-70119200D01*
X154077981Y-70119200D01*
X154025355Y-70305550D01*
X154025355Y-70305550D01*
G37*
X154025355Y-70305550D02*
X154817680Y-71097875D01*
X155610005Y-70305550D01*
X155557379Y-70119200D01*
X156542901Y-70119200D01*
X156542900Y-79445797D01*
X156318553Y-79538724D01*
X155718004Y-80139273D01*
X155599051Y-80426451D01*
X154835890Y-79663290D01*
X155093287Y-79663290D01*
X155602542Y-79452350D01*
X155992310Y-79062582D01*
X156203250Y-78553327D01*
X156203250Y-78002113D01*
X155992310Y-77492858D01*
X155602542Y-77103090D01*
X155421355Y-77028040D01*
X155602542Y-76952990D01*
X155992310Y-76563222D01*
X156203250Y-76053967D01*
X156203250Y-75502753D01*
X155992310Y-74993498D01*
X155776412Y-74777600D01*
X155992310Y-74561702D01*
X156203250Y-74052447D01*
X156203250Y-73501233D01*
X155992310Y-72991978D01*
X155602542Y-72602210D01*
X155437290Y-72533761D01*
X155541945Y-72490411D01*
X155610005Y-72249410D01*
X154817680Y-71457085D01*
X154025355Y-72249410D01*
X154093415Y-72490411D01*
X154205990Y-72530480D01*
X154032818Y-72602210D01*
X153643050Y-72991978D01*
X153432110Y-73501233D01*
X153432110Y-74052447D01*
X153643050Y-74561702D01*
X153858948Y-74777600D01*
X153643050Y-74993498D01*
X153432110Y-75502753D01*
X153432110Y-76053967D01*
X153617443Y-76501400D01*
X123368508Y-76501400D01*
X123271500Y-76482104D01*
X123174492Y-76501400D01*
X123174488Y-76501400D01*
X122887172Y-76558551D01*
X122643597Y-76721302D01*
X122643595Y-76721304D01*
X122561355Y-76776255D01*
X122506404Y-76858495D01*
X120449000Y-78915900D01*
X120449000Y-71072514D01*
X153419913Y-71072514D01*
X153447875Y-71623018D01*
X153604749Y-72001745D01*
X153845750Y-72069805D01*
X154638075Y-71277480D01*
X154997285Y-71277480D01*
X155789610Y-72069805D01*
X156030611Y-72001745D01*
X156215447Y-71482446D01*
X156187485Y-70931942D01*
X156030611Y-70553215D01*
X155789610Y-70485155D01*
X154997285Y-71277480D01*
X154638075Y-71277480D01*
X153845750Y-70485155D01*
X153604749Y-70553215D01*
X153419913Y-71072514D01*
X120449000Y-71072514D01*
X120449000Y-70119200D01*
X154077981Y-70119200D01*
X154025355Y-70305550D01*
G04 #@! TD*
M02*
